<svg width="25" height="25" fill="none" xmlns="http://www.w3.org/2000/svg">
    <circle cx="12.5" cy="12.5" r="12.5" fill="#878787"/>
    <path d="M12.518 7.044C13.322 6.005 14.444 6 14.444 6s.167.977-.634 1.918c-.855 1.005-1.827.84-1.827.84s-.182-.79.534-1.714zm-.432 2.4c.414 0 1.184-.558 2.186-.558 1.724 0 2.402 1.2 2.402 1.2s-1.327.663-1.327 2.273c0 1.817 1.653 2.443 1.653 2.443s-1.155 3.18-2.716 3.18c-.716 0-1.273-.472-2.029-.472-.77 0-1.533.49-2.03.49C8.8 18 7 14.983 7 12.557 7 10.171 8.524 8.92 9.953 8.92c.929 0 1.65.524 2.133.524z" fill="#fff"/>
</svg>
