<svg width="45" height="45" viewBox="0 0 45 45" fill="none" xmlns="http://www.w3.org/2000/svg">
    <path d="M22.5 45C34.926 45 45 34.926 45 22.5S34.926 0 22.5 0 0 10.074 0 22.5 10.074 45 22.5 45z" fill="#000"/>
    <path d="m16.48 20.026 6.02-6.02 6.023 6.023 3.503-3.503L22.5 7l-9.523 9.523 3.503 3.503zM7 22.5l3.503-3.504 3.503 3.503-3.503 3.504L7 22.5zm9.48 2.474 6.02 6.02 6.023-6.023 3.505 3.501-.002.002L22.5 38l-9.523-9.523-.005-.005 3.508-3.498zm14.514-2.472 3.503-3.504L38 22.501l-3.503 3.503-3.503-3.502z" fill="#F3BA2F"/>
    <path d="M26.053 22.498h.001L22.5 18.943l-2.627 2.627-.302.302-.622.622-.005.005.005.005 3.551 3.552 3.555-3.554.001-.002-.003-.002" fill="#F3BA2F"/>
</svg>
