<svg width="25" height="25" viewBox="0 0 25 25" fill="none" xmlns="http://www.w3.org/2000/svg">
    <path d="M11.592.635c2.27-.185 4.592.318 6.587 1.417 3.4 1.832 5.81 5.407 6.153 9.265a11.785 11.785 0 0 1-1.407 6.918 11.934 11.934 0 0 1-5.123 4.917 11.682 11.682 0 0 1-5.49 1.242c-2.594-.022-5.164-.95-7.195-2.562a11.973 11.973 0 0 1-3.84-5.373c-1.155-3.24-.815-6.985.946-9.945A11.94 11.94 0 0 1 7.36 1.766 11.792 11.792 0 0 1 11.592.635zm-2.104 1.13c-2.048.554-3.96 1.758-5.175 3.519-.818 1.157-1.288 2.527-1.53 3.914-.115.866-.163 1.81.27 2.6.2.394.55.69.722 1.098.164.362.048.852-.305 1.058-.33.237-.798.147-1.097-.1-.432-.339-.615-.891-.707-1.412-.182-1.174.055-2.362.354-3.495-.234.098-.2.422-.289.627-.511 1.983-.507 4.103.053 6.075.53 1.884 1.61 3.634 3.171 4.833 1.176.93 2.616 1.459 4.074 1.745.88.148 1.836.207 2.66-.193.409-.205.715-.561 1.115-.778a.89.89 0 0 1 1.04.16c.304.304.31.824.061 1.164-.267.364-.698.567-1.123.684-.938.235-1.92.129-2.858-.042-.344-.054-.67-.207-1.02-.206.187.186.463.218.705.29 1.843.455 3.799.458 5.644.017 2.124-.511 4.133-1.706 5.394-3.517.818-1.124 1.268-2.467 1.546-3.816.148-.997.223-2.123-.382-2.992-.282-.414-.735-.813-.644-1.367.039-.517.618-.844 1.094-.676.622.202.912.868 1.04 1.459.241 1.223 0 2.481-.322 3.667a.175.175 0 0 0 .156-.143c.557-1.74.654-3.617.332-5.414-.37-2.105-1.342-4.158-2.96-5.588-.972-.886-2.17-1.51-3.436-1.856-1.054-.314-2.196-.53-3.284-.26-.536.116-.952.492-1.381.807-.364.28-.945.299-1.273-.048-.295-.314-.268-.834-.014-1.165.339-.445.899-.652 1.432-.747.851-.127 1.721-.044 2.562.123.333.058.644.211.983.236-.07-.059-.139-.125-.228-.152-2.055-.664-4.303-.689-6.38-.108z" fill="#FEFFFE"/>
    <path d="M9.769 5.977c.46-.242 1.046-.315 1.515-.06.374.215.52.68.484 1.09-.067.814-.46 1.565-.955 2.201-.535.647-1.194 1.22-1.984 1.526.06.253.25.521.536.52.5.018.934-.298 1.293-.612.258-.196.272-.54.393-.817.176-.434.415-.896.852-1.115.205-.109.518-.13.659.088.154.295.014.632-.134.9-.202.386-.523.689-.777 1.037-.096.323-.114.663-.12.999.354-.157.671-.38 1.004-.573.58-.375 1.181-.724 1.719-1.157.062-.21-.023-.438-.013-.655-.033-1.053.33-2.133 1.049-2.912.446-.47 1.118-.802 1.776-.636.394.071.703.392.814.769.14.569-.055 1.163-.354 1.647-.515.806-1.264 1.422-2.023 1.989.101.252.246.538.518.632.391-.075.788-.182 1.188-.102.267.056.588.136.72.402.12.26-.111.526-.348.607-.505.165-1.039.072-1.554.033-.614.146-1.147.552-1.53 1.046-.593.78-.776 1.813-.647 2.77.123.794.522 1.594 1.223 2.025.79.506 1.927.398 2.581-.284.617-.637.812-1.65.468-2.469-.145-.36-.459-.666-.852-.727-.458-.104-1.003.195-1.07.682-.066.375.197.685.419.953.172.178.192.506-.021.659-.33.226-.788.067-1.05-.195-.65-.64-.63-1.797-.008-2.451.79-.907 2.364-.924 3.172-.031.864.957.973 2.491.309 3.588a3.35 3.35 0 0 1-2.386 1.623c-1.075.16-2.236-.18-2.992-.978-1.477-1.505-1.454-4.15-.044-5.693.377-.45.875-.771 1.374-1.07a11.981 11.981 0 0 0-.336-.428 31.204 31.204 0 0 1-3.029 1.93c-.176.064-.145.277-.17.427-.093 1.285-.203 2.625-.842 3.773-.432.811-1.085 1.555-1.962 1.888-.695.263-1.535.286-2.173-.136-.61-.383-.888-1.148-.84-1.844.096-.886.6-1.686 1.24-2.288.88-.803 1.946-1.358 2.992-1.91.213-.118.445-.208.635-.361.07-.192.081-.398.1-.6-.542.329-1.227.592-1.85.34-.51-.196-.828-.684-.99-1.184-.482-.051-.966-.243-1.273-.631-.534-.642-.568-1.617-.182-2.34.13-.26.42-.4.704-.383.055.112.158.223.12.36-.084.468-.249.955-.093 1.43a.823.823 0 0 0 .68.63c.07-.77.22-1.542.582-2.233.34-.673.806-1.324 1.483-1.69zm.453.752c-.457.31-.735.807-.975 1.29-.258.544-.467 1.13-.49 1.737.174-.077.339-.178.48-.307.571-.497 1.07-1.089 1.405-1.772.118-.247.22-.527.153-.804-.087-.224-.39-.283-.573-.144zm5.905.237a3.45 3.45 0 0 0-.818 2.263c.602-.497 1.156-1.078 1.53-1.768.107-.22.25-.58-.023-.742-.248-.127-.527.06-.69.247zM8.04 14.902c-.524.47-1.036 1.019-1.226 1.714-.091.374-.113.845.2 1.123.332.302.83.212 1.213.069.737-.284 1.182-.998 1.482-1.692.35-.86.566-1.778.655-2.703-.837.387-1.62.896-2.324 1.489z" fill="#FEFFFE"/>
    <path d="M11.595.035A12.442 12.442 0 0 1 18.72 1.66a12.542 12.542 0 0 1 4.265 4.043 12.476 12.476 0 0 1 2.014 6.896 12.495 12.495 0 0 1-8.435 11.725 12.587 12.587 0 0 1-6.828.37 12.496 12.496 0 0 1-6.235-3.512C1.722 19.34.518 16.942.151 14.404a12.442 12.442 0 0 1 .82-6.727c.82-1.961 2.154-3.7 3.825-5.013a12.45 12.45 0 0 1 6.8-2.63zm-.003.6a11.793 11.793 0 0 0-4.232 1.13 11.94 11.94 0 0 0-5.136 4.749c-1.761 2.96-2.101 6.705-.947 9.945a11.972 11.972 0 0 0 3.84 5.373c2.032 1.611 4.601 2.54 7.196 2.562a11.684 11.684 0 0 0 5.49-1.242 11.935 11.935 0 0 0 5.123-4.917 11.784 11.784 0 0 0 1.406-6.918c-.342-3.858-2.752-7.432-6.153-9.265A11.766 11.766 0 0 0 11.592.635z" fill="#3A73B8"/>
    <path d="M9.489 1.766c2.077-.58 4.325-.556 6.38.108.09.028.158.093.228.152-.34-.025-.65-.178-.983-.235-.84-.168-1.71-.251-2.562-.124-.533.096-1.093.302-1.431.748-.255.33-.282.85.013 1.164.328.347.91.328 1.273.048.429-.315.845-.69 1.38-.808 1.09-.27 2.23-.052 3.285.261 1.266.345 2.464.97 3.435 1.856 1.619 1.43 2.592 3.483 2.961 5.589.322 1.796.225 3.673-.332 5.414a.175.175 0 0 1-.156.142c.323-1.185.563-2.443.322-3.667-.128-.59-.418-1.257-1.04-1.459-.476-.168-1.055.159-1.094.676-.09.554.362.953.644 1.368.605.868.53 1.995.382 2.991-.278 1.35-.728 2.692-1.546 3.816-1.26 1.811-3.27 3.006-5.394 3.517a12.027 12.027 0 0 1-5.643-.016c-.243-.073-.519-.105-.707-.29.352-.002.677.15 1.02.205.94.171 1.921.277 2.86.042.425-.117.855-.32 1.122-.684.248-.34.243-.86-.062-1.164a.89.89 0 0 0-1.039-.16c-.4.217-.706.573-1.115.778-.824.4-1.78.341-2.66.194-1.458-.287-2.898-.816-4.074-1.746-1.56-1.2-2.641-2.949-3.17-4.833-.561-1.972-.565-4.092-.054-6.075.089-.205.055-.53.289-.627-.3 1.133-.536 2.32-.354 3.495.092.521.275 1.073.707 1.412.299.247.766.337 1.097.1.353-.206.47-.696.305-1.058-.172-.407-.522-.704-.722-1.097-.433-.79-.385-1.735-.27-2.6.242-1.388.712-2.758 1.53-3.915C5.53 3.524 7.441 2.319 9.49 1.766zm.28 4.211c-.676.365-1.141 1.017-1.482 1.69-.362.69-.511 1.462-.582 2.231a.823.823 0 0 1-.68-.628c-.156-.475.009-.963.093-1.432.038-.136-.065-.247-.12-.358-.285-.018-.575.122-.704.383-.387.722-.353 1.698.182 2.339.307.388.791.58 1.272.632.163.5.48.988.99 1.184.624.252 1.309-.012 1.851-.34-.02.201-.03.407-.1.6-.19.152-.422.242-.635.361-1.047.551-2.112 1.107-2.992 1.91-.64.6-1.144 1.4-1.24 2.287-.048.697.23 1.46.84 1.844.637.422 1.478.399 2.173.137.876-.334 1.53-1.078 1.962-1.889.639-1.148.749-2.487.841-3.772.026-.15-.006-.364.171-.429a31.23 31.23 0 0 0 3.029-1.929c.114.141.228.283.336.43-.5.297-.997.618-1.374 1.069-1.41 1.542-1.433 4.188.044 5.692.756.797 1.917 1.138 2.992.979a3.35 3.35 0 0 0 2.385-1.624c.665-1.097.556-2.63-.308-3.588-.808-.893-2.382-.875-3.172.031-.622.654-.642 1.81.007 2.451.263.263.72.421 1.05.195.214-.153.193-.48.022-.658-.222-.269-.485-.579-.419-.954.067-.487.611-.785 1.07-.682.393.061.706.368.852.728.344.818.149 1.831-.468 2.468-.654.682-1.792.79-2.581.284-.701-.43-1.1-1.23-1.223-2.025-.13-.957.054-1.99.648-2.77.382-.494.915-.9 1.529-1.046.515.039 1.049.132 1.553-.033.238-.08.469-.346.348-.606-.13-.267-.452-.347-.72-.403-.399-.08-.796.027-1.187.102-.272-.094-.417-.38-.518-.632.758-.567 1.508-1.182 2.023-1.988.3-.485.494-1.08.354-1.648-.111-.377-.42-.697-.815-.769-.657-.165-1.33.166-1.776.637-.717.779-1.081 1.858-1.048 2.911-.01.218.074.446.013.655-.538.434-1.14.783-1.719 1.157-.333.194-.65.417-1.004.573.006-.335.024-.675.12-.999.254-.348.574-.65.777-1.038.148-.266.288-.604.133-.899-.14-.218-.454-.197-.658-.088-.437.22-.676.681-.852 1.115-.121.277-.135.621-.393.817-.36.315-.793.63-1.293.612-.286.002-.476-.267-.537-.52.79-.306 1.45-.879 1.985-1.525.495-.636.888-1.387.955-2.202.037-.41-.11-.874-.485-1.089-.468-.255-1.055-.183-1.514.06z" fill="#3A73B8"/>
    <path d="M10.222 6.73c.183-.14.486-.08.573.144.067.276-.035.556-.152.803-.335.683-.834 1.275-1.406 1.772-.14.13-.305.23-.48.307.023-.607.232-1.193.49-1.737.24-.483.519-.98.975-1.29zm5.905.236c.162-.187.442-.374.69-.247.271.161.13.522.022.742-.374.69-.928 1.272-1.53 1.768a3.45 3.45 0 0 1 .818-2.263zM8.04 14.902a10.407 10.407 0 0 1 2.324-1.489 9.637 9.637 0 0 1-.655 2.704c-.3.693-.745 1.407-1.482 1.691-.382.143-.881.233-1.212-.069-.313-.278-.292-.75-.2-1.122.19-.696.7-1.244 1.225-1.715z" fill="#3A73B8"/>
</svg>
