<svg width="25" height="25" viewBox="0 0 25 25" fill="none" xmlns="http://www.w3.org/2000/svg">
    <circle cx="12.5" cy="12.5" r="12.5" fill="#fff"/>
    <path d="M3.5 12.1c0-.657.372-1.1 1.074-1.1h4.56v.93H4.711c-.124 0-.234.07-.234.276v1.552c0 .189.072.31.299.31H7.89c.164 0 .29-.063.29-.3v-.364H6.358v-.887h2.776v1.427c0 .683-.452 1.056-1.162 1.056h-3.39c-.686 0-1.081-.408-1.081-1.091l-.001-1.81zm9.703 2.9 1.557-3.034V15h.977v-4h-1.502l-1.485 2.873L11.265 11H9.763v4h.977v-3.034L12.298 15h.905zm8.296 0h-4.083c-.687 0-1.081-.408-1.081-1.091v-1.81c0-.656.37-1.099 1.073-1.099H21.5v1.005h-3.955c-.123 0-.234.07-.234.275v1.404c0 .189.072.31.299.31h3.89V15" fill="#CF4037"/>
</svg>
