<svg width="25" height="25" viewBox="0 0 25 25" fill="none" xmlns="http://www.w3.org/2000/svg">
    <circle cx="12.5" cy="12.5" r="12.5" fill="#fff"/>
    <path d="M4 17.485h17V8H4v9.485zm.833-8.653h15.334v7.82H4.833v-7.82z" fill="#000"/>
    <path d="M13.192 10.786s-.66 2.49-.715 2.756l-.721-2.757H10.39v3.824h.893v-2.81l.78 2.81h.825s.761-2.723.78-2.805v2.805h.897v-3.823h-1.374zM9.912 14v-1.993c0-.406-.007-.76-.451-1.03-.331-.196-.768-.24-1.129-.24-.24 0-1.137 0-1.498.653a1.192 1.192 0 0 0-.15.55v.002l.925-.001a.389.389 0 0 1 .09-.265c.09-.12.294-.241.67-.241.743 0 .633.748.633.748s-.37.005-1.16.102c-.365.045-.94.188-1.212.73-.08.158-.12.334-.12.511 0 .647.512 1.173 1.362 1.173.52 0 .919-.217 1.115-.383 0 .052.015.203.022.293h.919c-.015-.61-.015-.323-.015-.61zm-.902-.85c0 .113 0 .225-.053.338-.098.226-.422.436-.881.436-.362 0-.61-.15-.61-.443 0-.4.374-.488.699-.528.406-.051.845-.066.845-.066v.263zm9.521-.026-.876.002c-.026.105-.208.795-.891.795h-.13c-.502-.016-.914-.433-.914-1.256 0-.631.319-1.2.922-1.213h.122c.624 0 .843.653.855.693l.876.002c-.17-.815-.808-1.48-1.775-1.48-1.083 0-1.853.893-1.853 2.024 0 1.295.818 2.031 1.832 2.031 1.129 0 1.714-.862 1.832-1.598" fill="#000"/>
</svg>
