<svg width="25" height="25" fill="none" xmlns="http://www.w3.org/2000/svg">
    <circle cx="12.5" cy="12.5" r="12.5" fill="#E4E4E4"/>
    <mask id="a" style="mask-type:alpha" maskUnits="userSpaceOnUse" x="6" y="6" width="13" height="13">
        <path fill-rule="evenodd" clip-rule="evenodd" d="M12.5 19a6.5 6.5 0 0 0 6.424-7.5H12.5V14H16l-.1.251A3.578 3.578 0 0 1 9 12.922v-.352c0-2.789 2.935-4.603 5.43-3.355L15 9.5l1.987-1.703A6.5 6.5 0 1 0 12.5 19z" fill="#C4C4C4"/>
    </mask>
    <g mask="url(#a)">
        <path d="m3.5 17.5 6.5-4V12L5 8l-1.5 9.5z" fill="#F2BD42"/>
        <path d="m19 18.5-4.5-3-5-2L4 17l5.5 6.5 9.5-5z" fill="#58A55C"/>
        <path d="M10 12 3.5 7 19 3.5 18 9l-8 3z" fill="#D95040"/>
        <path d="m20.5 20 2-9.5H12l-.5 3 9 6.5z" fill="#5186EC"/>
    </g>
</svg>
