<svg width="45" height="45" viewBox="0 0 45 45" fill="none" xmlns="http://www.w3.org/2000/svg">
    <path d="M22.5 45C34.926 45 45 34.926 45 22.5S34.926 0 22.5 0 0 10.074 0 22.5 10.074 45 22.5 45z" fill="#172852"/>
    <path d="M18.124 10.055c2.634-.986 5.6-.988 8.284-.178 3.494 1.085 6.444 3.722 7.985 7.031.426.943.833 1.926.873 2.975-1.964-1.139-4.117-1.877-6.275-2.55-3.451-1.244-7.065-2.108-10.332-3.818-.76-.454-1.73-.92-1.937-1.867-.083-.82.783-1.276 1.402-1.593zM10.17 18.02c.763-2.07 2.014-3.991 3.712-5.415.432 3.552 1.944 6.986 4.442 9.569 2.995 3.111 7.26 5.022 11.6 4.95 1.724.054 3.41-.345 5.09-.666-1.653 5.976-8.203 9.943-14.271 8.989-3.663-.469-7.045-2.638-9.086-5.7-2.302-3.384-2.882-7.877-1.487-11.727z" fill="#FFD83D"/>
    <path d="M28.991 17.334c2.158.673 4.311 1.41 6.276 2.55l.132.069c.182 1.37.315 2.768.072 4.14-.987-.419-1.788-1.154-2.625-1.805-1.611-1.34-3.256-2.875-3.855-4.954z" fill="#FF6F03"/>
</svg>
