<svg width="35" height="36" fill="none" xmlns="http://www.w3.org/2000/svg">
    <circle cx="17.5" cy="18" r="17.5" fill="#fff"/>
    <path fill-rule="evenodd" clip-rule="evenodd" d="M20.123 9.092c.696.112 1.188.258 1.475.44.288.183.594.54.917 1.075-.174.15-.326.237-.456.26-.13.024-.344.004-.643-.06l-.358-.167a.683.683 0 0 0-.913.346.623.623 0 0 0 .36.848l.478.152c.134.11.194.265.179.464-.015.2-.105.393-.268.582l.258.733c-.311.071-.686.092-1.123.063-.655-.044-.976-.25-.982-.282-.002-.017-.215-.139-.639-.367a5.25 5.25 0 0 0-1.364-.18c-2.997 0-5.427 2.519-5.427 5.626 0 3.106 2.43 5.625 5.427 5.625 2.01 0 3.766-1.134 4.703-2.819h-2.25a.908.908 0 0 1-.866-.671l-.594-2.09a.188.188 0 0 1 .123-.232.176.176 0 0 1 .05-.007h7.182c.211 0 .398.143.46.352.099.333.148.692.148 1.076 0 .432-.082.865-.246 1.297C24.688 25.104 21.192 28 17.044 28 12.049 28 8 23.802 8 18.625c0-4.208 2.673-7.768 6.355-8.954a.172.172 0 0 1 .052-.043c.483-.237 1.214-.352 1.963-.477l.098-.016c.114-.02.229-.039.342-.06.596-.105 1.7-.1 3.313.017zm2.647 1.846c.253.204.415.376.488.516.07.135.14.365.207.69l.007.033 1.769 1.654a.377.377 0 0 1 .113.207l.002.017.028.205a.119.119 0 0 1-.067.125l-.01.004-.09.03-.053-.007c-1.75-.24-2.817-.446-3.197-.615-.362-.161-.42-.538-.172-1.13a.321.321 0 0 0 .009-.224l-.006-.016-.17-.44a.315.315 0 0 0-.054-.091l-.012-.013-.36-.374c-.109-.023-.228.013-.336-.01a1.737 1.737 0 0 1-.193-.067.22.22 0 0 1-.1-.289.295.295 0 0 1 .325-.171c.102.02.176.039.22.054.074.025.172.078.295.16.368.075.638.097.81.065.173-.031.355-.136.547-.313z" fill="url(#a)"/>
    <defs>
        <linearGradient id="a" x1="14.405" y1="10.513" x2="23.379" y2="25.145" gradientUnits="userSpaceOnUse">
            <stop stop-color="#3735BB"/>
            <stop offset="1" stop-color="#9B24AC"/>
        </linearGradient>
    </defs>
</svg>
