<svg width="25" height="25" viewBox="0 0 25 25" fill="none" xmlns="http://www.w3.org/2000/svg">
    <circle cx="12.5" cy="12.5" r="12.5" fill="#fff"/>
    <path fill-rule="evenodd" clip-rule="evenodd" d="M6.41 9.722c.54.208 1.013.507 1.346.921.242.323.45.703.553 1.106.023.103.046.15.058.264.046.288.069.518.046.76v.15c-.012.173-.058.3-.092.472-.047.127-.081.253-.104.322a3.68 3.68 0 0 1-.587.99 3.42 3.42 0 0 1-.864.76c-.23.138-.54.277-.875.38-.172.058-.276.08-.449.104l-.103.023c.081-.058.166-.112.253-.161.242-.138.46-.277.725-.403.3-.104.576-.277.818-.484.38-.334.633-.736.748-1.22.012-.058.035-.15.035-.23.034-.208.046-.45.011-.657a2.49 2.49 0 0 0-.161-.702c-.104-.242-.196-.46-.345-.702-.288-.438-.737-.783-1.186-1.025a2.257 2.257 0 0 0-.599-.242c-.437-.115-.978-.103-1.416-.057-.207.034-.38.08-.576.16-.23.093-.368.139-.598.277-.288.207-.599.438-.83.702-.057.081-.137.173-.218.242.058-.161.161-.31.253-.437.507-.691 1.243-1.232 2.165-1.428.633-.15 1.462-.092 1.991.115z" fill="#000"/>
    <path fill-rule="evenodd" clip-rule="evenodd" d="M4.337 10.943a2.273 2.273 0 0 0-.506.334c-.07.046-.127.069-.208.126l-1.013.553c.3-.45.83-.795 1.405-.944a1.61 1.61 0 0 1 .322-.07zm-1.047.932c-.081.138-.104.23-.173.369l-.91.518c.046-.162.104-.334.173-.45l.99-.575a.397.397 0 0 1-.08.138zm-.277.68a4.616 4.616 0 0 1-.057.391l-.84.484v-.127l.01-.07c0-.022.012-.103.024-.184.276-.172.575-.333.863-.494zm-.057.621c.011.127.023.242.046.346l-.852.495a1.668 1.668 0 0 1-.035-.346l.84-.495zm.08.553c.035.104.08.207.115.31l-.817.461a1.464 1.464 0 0 1-.127-.3l.83-.471zm.242.564c.046.092.08.127.127.196l-.795.472c-.069-.092-.103-.185-.16-.277.252-.15.54-.3.805-.449l.023.058zm.242.357c.057.069.161.184.242.23l-.783.46c-.058-.045-.15-.15-.242-.241.253-.138.518-.3.783-.45zm.391.391c.08.07.196.127.3.184-.242.127-.507.311-.772.438a1.607 1.607 0 0 1-.288-.196l.76-.426zm.599.311c.115.058.161.08.3.115l-.737.426a2.288 2.288 0 0 1-.392-.138c.253-.138.484-.276.737-.414l.092.011zm.61.184c.207 0 .38.012.599 0l-.783.46c-.023.013-.38-.01-.553-.045l.737-.415zm4.997-1.646c.046 0 .08-.011.126-.011s.093.011.15.011v-2.234h-.276v2.234zm2.66-2.234h-.162v1.681h-.034l-1.497-1.68h-.127v2.233c.023 0 .07-.012.104-.012.011 0 .046.012.069.012v-1.761h.046l1.347 1.554c.08.08.127.161.161.207h.092v-2.234zm1.554 1.474c-.046.15-.127.276-.185.415h-.034l-.403-1.002-.184-.576c-.046-.103-.08-.218-.127-.31h-.3c.127.264.588 1.473.956 2.233.012 0 .046-.012.058-.012.034 0 .057.012.069.012.115-.345.817-2.038.91-2.234h-.22l-.022.058-.196.53-.322.886zm1.427-1.312h.553c.092 0 .196.023.288.046 0-.046-.023-.07-.023-.104 0-.035.023-.07.023-.104H15.47v2.234h1.14c0-.023-.011-.058-.011-.104 0-.034.011-.057.011-.103a1.23 1.23 0 0 1-.288.034c-.184.012-.368.012-.564.012v-.967h.484c.092 0 .173.011.288.023 0-.023-.012-.035-.012-.07 0-.034.012-.057.012-.114a.976.976 0 0 1-.288.057h-.484v-.84zm1.278 1.623a1.349 1.349 0 0 1-.057.31c.115.116.368.185.518.185.426 0 .771-.288.771-.737 0-.702-1.013-.449-1.013-1.059 0-.242.196-.38.426-.38a.42.42 0 0 1 .38.265h.012c.046-.104.069-.161.103-.265a.778.778 0 0 0-.449-.15c-.368 0-.702.208-.702.634 0 .748.978.472.978 1.07 0 .265-.172.473-.425.473-.242 0-.392-.127-.53-.346h-.012zm3.362.104a.942.942 0 0 1-.656.264c-.495 0-.84-.391-.84-1.036 0-.541.276-1.047.863-1.047.334 0 .552.23.587.287l.035-.011a.951.951 0 0 1 .069-.242 1.762 1.762 0 0 0-.68-.15c-.668 0-1.186.415-1.186 1.163 0 .714.392 1.163 1.117 1.163.219 0 .484-.046.68-.184l.011-.207zm1.405.391c.69 0 1.197-.472 1.197-1.186 0-.829-.61-1.14-1.197-1.14-.645 0-1.163.461-1.163 1.163 0 .703.46 1.163 1.163 1.163zm.898-1.163c.023.357-.23 1.06-.898 1.06-.46 0-.852-.346-.852-1.014s.334-1.094.886-1.094c.265 0 .507.116.656.3.162.23.208.449.208.748z" fill="#000"/>
    <path d="M8.732 17.161h-.72V16.9h1.737v.261h-.72V19h-.297v-1.839zM11.48 19l-.453-.645c-.056.004-.1.006-.132.006h-.52V19h-.3v-2.1h.82c.272 0 .486.065.642.195.156.13.234.309.234.537 0 .162-.04.3-.12.414a.678.678 0 0 1-.342.249l.498.705h-.327zm-.594-.894c.19 0 .335-.041.435-.123.1-.082.15-.199.15-.351 0-.152-.05-.268-.15-.348-.1-.082-.245-.123-.435-.123h-.51v.945h.51zm2.24.918c-.28 0-.499-.08-.655-.24-.156-.16-.234-.39-.234-.69V16.9h.3v1.182c0 .45.197.675.591.675.192 0 .34-.055.441-.165.102-.112.153-.282.153-.51V16.9h.291v1.194c0 .302-.078.533-.234.693-.156.158-.374.237-.654.237zm2.115 0c-.159 0-.311-.024-.46-.072a.956.956 0 0 1-.345-.192l.111-.234c.08.072.182.131.306.177.127.044.255.066.388.066.174 0 .303-.029.39-.087a.276.276 0 0 0 .128-.237.225.225 0 0 0-.072-.174.446.446 0 0 0-.173-.105 3.05 3.05 0 0 0-.291-.081 3.1 3.1 0 0 1-.385-.114.654.654 0 0 1-.248-.174.48.48 0 0 1-.102-.321c0-.112.029-.213.087-.303.06-.09.15-.162.27-.216a1.09 1.09 0 0 1 .446-.081c.124 0 .246.016.367.048.12.032.223.078.309.138l-.1.24a1.05 1.05 0 0 0-.282-.126 1.02 1.02 0 0 0-.294-.045c-.17 0-.298.031-.383.093a.286.286 0 0 0-.127.24c0 .072.024.131.072.177a.533.533 0 0 0 .178.105c.071.024.168.05.29.078.159.038.286.076.382.114a.629.629 0 0 1 .245.174c.07.078.105.183.105.315 0 .11-.03.211-.09.303a.616.616 0 0 1-.272.216 1.148 1.148 0 0 1-.45.078zm1.639-1.863h-.72V16.9h1.736v.261h-.72V19h-.296v-1.839z" fill="#000"/>
</svg>
