<svg width="25" height="25" viewBox="0 0 25 25" fill="none" xmlns="http://www.w3.org/2000/svg">
    <circle cx="12.5" cy="12.5" r="12.5" fill="#fff"/>
    <path d="M5.866 13.06c-.324 0-.638-.046-.942-.138-.3-.092-.538-.214-.714-.366l.27-.606c.172.136.382.248.63.336.252.084.504.126.756.126.312 0 .544-.05.696-.15.156-.1.234-.232.234-.396a.37.37 0 0 0-.132-.294.853.853 0 0 0-.324-.186 7.29 7.29 0 0 0-.54-.15 6.47 6.47 0 0 1-.78-.228 1.32 1.32 0 0 1-.51-.354c-.14-.164-.21-.384-.21-.66 0-.232.062-.442.186-.63.128-.192.318-.344.57-.456.256-.112.568-.168.936-.168.256 0 .508.032.756.096s.462.156.642.276l-.246.606a2.427 2.427 0 0 0-.576-.246 2.155 2.155 0 0 0-.582-.084c-.308 0-.538.052-.69.156a.483.483 0 0 0-.222.414c0 .12.042.218.126.294a.965.965 0 0 0 .33.18c.132.044.312.094.54.15.312.072.568.148.768.228.2.076.37.194.51.354.144.16.216.376.216.648 0 .232-.064.442-.192.63-.124.188-.314.338-.57.45-.256.112-.568.168-.936.168zm4.2-4.26c.363 0 .68.06.947.18.272.12.48.292.624.516.144.224.216.49.216.798 0 .304-.072.57-.216.798a1.38 1.38 0 0 1-.624.516c-.268.12-.584.18-.948.18h-.948V13h-.78V8.8h1.728zm-.037 2.328c.34 0 .598-.072.774-.216.176-.144.264-.35.264-.618s-.088-.474-.264-.618c-.176-.144-.434-.216-.774-.216h-.912v1.668h.912zM12.632 8.8h1.836c.448 0 .846.088 1.194.264.348.172.618.418.81.738.192.316.288.682.288 1.098 0 .416-.096.784-.288 1.104a1.958 1.958 0 0 1-.81.738 2.66 2.66 0 0 1-1.194.258h-1.836V8.8zm1.8 3.54c.308 0 .578-.058.81-.174.236-.12.416-.288.54-.504.128-.22.192-.474.192-.762 0-.288-.064-.54-.192-.756a1.221 1.221 0 0 0-.54-.504 1.74 1.74 0 0 0-.81-.18h-1.02v2.88h1.02zm5.905.66-.858-1.23a1.6 1.6 0 0 1-.162.006h-.948V13h-.78V8.8h1.728c.364 0 .68.06.948.18.272.12.48.292.624.516.144.224.216.49.216.798 0 .316-.078.588-.234.816a1.357 1.357 0 0 1-.66.51l.966 1.38h-.84zm-.018-2.706c0-.268-.088-.474-.264-.618-.176-.144-.434-.216-.774-.216h-.912v1.674h.912c.34 0 .598-.072.774-.216.176-.148.264-.356.264-.624zM6.976 15.548h-.96V15.2h2.316v.348h-.96V18h-.396v-2.452zM10.64 18l-.604-.86a2.646 2.646 0 0 1-.176.008h-.692V18h-.4v-2.8H9.86c.362 0 .648.087.856.26.208.173.312.412.312.716 0 .216-.054.4-.16.552a.904.904 0 0 1-.456.332l.664.94h-.436zm-.792-1.192c.253 0 .446-.055.58-.164.133-.11.2-.265.2-.468s-.067-.357-.2-.464c-.134-.11-.327-.164-.58-.164h-.68v1.26h.68zm2.986 1.224c-.373 0-.664-.107-.872-.32-.208-.213-.312-.52-.312-.92V15.2h.4v1.576c0 .6.263.9.788.9.256 0 .452-.073.588-.22.136-.15.204-.376.204-.68V15.2h.388v1.592c0 .403-.104.71-.312.924-.208.21-.499.316-.872.316zm2.82 0c-.21 0-.415-.032-.612-.096a1.275 1.275 0 0 1-.46-.256l.148-.312c.107.096.243.175.408.236.168.059.34.088.516.088.232 0 .405-.039.52-.116a.369.369 0 0 0 .172-.316.3.3 0 0 0-.096-.232.596.596 0 0 0-.232-.14 4.07 4.07 0 0 0-.388-.108 4.127 4.127 0 0 1-.512-.152.872.872 0 0 1-.332-.232.639.639 0 0 1-.136-.428.73.73 0 0 1 .116-.404c.08-.12.2-.216.36-.288.16-.072.359-.108.596-.108.165 0 .328.021.488.064a1.3 1.3 0 0 1 .412.184l-.132.32a1.399 1.399 0 0 0-.376-.168 1.36 1.36 0 0 0-.392-.06c-.227 0-.397.041-.512.124a.381.381 0 0 0-.168.32c0 .096.032.175.096.236a.71.71 0 0 0 .236.14c.096.032.225.067.388.104.21.05.38.101.508.152a.84.84 0 0 1 .328.232c.093.104.14.244.14.42 0 .147-.04.281-.12.404a.822.822 0 0 1-.364.288c-.163.07-.363.104-.6.104zm2.185-2.484h-.96V15.2h2.316v.348h-.96V18h-.396v-2.452z" fill="#000"/>
</svg>
