<svg width="25" height="25" fill="none" xmlns="http://www.w3.org/2000/svg">
    <circle cx="12.5" cy="12.5" r="12.5" fill="#F2474C"/>
    <path d="m12.326 19 1.686-9.482c1.607 0 2.114.177 2.187.896 0 0 1.078-.402 1.622-1.218-2.122-.983-4.254-1.028-4.254-1.028l-1.244 1.515h.003l-1.244-1.515S8.95 8.212 6.83 9.195c.543.817 1.622 1.219 1.622 1.219.073-.72.58-.896 2.176-.897l1.7 9.483z" fill="#fff"/>
    <path d="M12.325 7.73a13.89 13.89 0 0 1 5.688 1.141c.269-.483.338-.697.338-.697A16.495 16.495 0 0 0 12.325 7 16.493 16.493 0 0 0 6.3 8.174s.098.263.337.697a13.89 13.89 0 0 1 5.688-1.141z" fill="#fff"/>
</svg>
