<svg width="25" height="25" fill="none" xmlns="http://www.w3.org/2000/svg">
    <circle cx="12.5" cy="12.5" r="12.5" fill="#fff"/>
    <path d="M11.931 18.668h1.056a.44.44 0 0 0 .44-.439v-1.015l.219-.059c1.79-.45 2.425-1.682 2.425-2.598 0-1.697-1.463-2.402-2.896-2.87-1.346-.445-1.777-.714-1.777-1.112 0-.357.413-.714 1.338-.714 1.018 0 1.656.29 1.928.415.059.026.12.041.181.041.17 0 .325-.1.398-.252l.419-.886a.426.426 0 0 0 .014-.334.43.43 0 0 0-.225-.249 5.329 5.329 0 0 0-1.668-.462l-.257-.032v-.88a.438.438 0 0 0-.44-.437h-1.038a.44.44 0 0 0-.44.436v.98l-.219.056c-1.445.366-2.308 1.293-2.308 2.478 0 1.563 1.548 2.26 3.066 2.736 1.402.457 1.592.852 1.592 1.18 0 .506-.655.874-1.557.874-.766 0-1.591-.196-2.206-.523a.43.43 0 0 0-.348-.03.447.447 0 0 0-.258.237l-.403.899a.436.436 0 0 0 .184.559c.512.295 1.273.514 2.08.605l.26.027v.93c.001.243.197.44.44.44z" fill="url(#a)"/>
    <defs>
        <linearGradient id="a" x1="12.5" y1="6.785" x2="12.5" y2="18.668" gradientUnits="userSpaceOnUse">
            <stop stop-color="#3935BB"/>
            <stop offset="1" stop-color="#9C25AD"/>
        </linearGradient>
    </defs>
</svg>
