<svg width="25" height="25" fill="none" xmlns="http://www.w3.org/2000/svg">
    <circle cx="12.5" cy="12.5" r="12.5" fill="#E4E4E4"/>
    <path d="M17.403 17.027c-5.53 2.631-8.961.43-11.158-.908-.136-.084-.367.02-.167.25.732.888 3.13 3.026 6.261 3.026 3.133 0 4.997-1.709 5.23-2.007.231-.296.068-.459-.166-.361zm1.553-.858c-.149-.193-.903-.23-1.378-.17-.476.056-1.19.346-1.127.52.032.066.097.037.423.008.328-.033 1.245-.149 1.437.101.192.252-.293 1.45-.381 1.644-.086.193.032.243.193.114.158-.128.445-.462.638-.933.191-.475.308-1.137.195-1.284z" fill="#F90"/>
    <path fill-rule="evenodd" clip-rule="evenodd" d="M13.685 11.659c0 .69.017 1.266-.332 1.88-.281.498-.728.804-1.226.804-.68 0-1.077-.518-1.077-1.284 0-1.51 1.353-1.784 2.635-1.784v.384zm1.787 4.32a.37.37 0 0 1-.419.042c-.588-.489-.693-.716-1.017-1.182-.972.992-1.66 1.29-2.921 1.29-1.49 0-2.653-.92-2.653-2.763 0-1.438.78-2.418 1.89-2.896.962-.424 2.306-.499 3.333-.616v-.23c0-.42.032-.92-.215-1.283-.216-.327-.63-.461-.994-.461-.676 0-1.279.346-1.426 1.064-.03.16-.147.317-.307.324l-1.72-.184c-.144-.033-.304-.15-.264-.372C9.155 6.628 11.037 6 12.722 6c.863 0 1.99.23 2.67.882.863.806.78 1.88.78 3.05v2.761c0 .83.345 1.194.668 1.643.115.16.14.351-.005.47-.36.303-1.004.863-1.358 1.178l-.005-.005" fill="#000"/>
    <path d="M17.403 17.027c-5.53 2.631-8.961.43-11.158-.908-.136-.084-.367.02-.167.25.732.888 3.13 3.026 6.261 3.026 3.133 0 4.997-1.709 5.23-2.007.231-.296.068-.459-.166-.361zm1.553-.858c-.149-.193-.903-.23-1.378-.17-.476.056-1.19.346-1.127.52.032.066.097.037.423.008.328-.033 1.245-.149 1.437.101.192.252-.293 1.45-.381 1.644-.086.193.032.243.193.114.158-.128.445-.462.638-.933.191-.475.308-1.137.195-1.284z" fill="#F90"/>
    <path fill-rule="evenodd" clip-rule="evenodd" d="M13.685 11.659c0 .69.017 1.266-.332 1.88-.281.498-.728.804-1.226.804-.68 0-1.077-.518-1.077-1.284 0-1.51 1.353-1.784 2.635-1.784v.384zm1.787 4.32a.37.37 0 0 1-.419.042c-.588-.489-.693-.716-1.017-1.182-.972.992-1.66 1.29-2.921 1.29-1.49 0-2.653-.92-2.653-2.763 0-1.438.78-2.418 1.89-2.896.962-.424 2.306-.499 3.333-.616v-.23c0-.42.032-.92-.215-1.283-.216-.327-.63-.461-.994-.461-.676 0-1.279.346-1.426 1.064-.03.16-.147.317-.307.324l-1.72-.184c-.144-.033-.304-.15-.264-.372C9.155 6.628 11.037 6 12.722 6c.863 0 1.99.23 2.67.882.863.806.78 1.88.78 3.05v2.761c0 .83.345 1.194.668 1.643.115.16.14.351-.005.47-.36.303-1.004.863-1.358 1.178l-.005-.005" fill="#000"/>
</svg>
