<svg width="1340" height="498" viewBox="0 0 1340 498" fill="none" xmlns="http://www.w3.org/2000/svg">
<rect width="1340" height="498" rx="25" fill="url(#paint0_linear_187_280)"/>
<mask id="mask0_187_280" style="mask-type:alpha" maskUnits="userSpaceOnUse" x="0" y="0" width="1340" height="498">
<rect width="1340" height="498" rx="25" fill="url(#paint1_linear_187_280)"/>
</mask>
<g mask="url(#mask0_187_280)">
<path d="M-272.761 668.661L461.938 785.026C461.938 785.026 588.825 764.662 611.5 621.5C642.145 428.015 876.5 210.5 876.5 210.5C876.5 210.5 163.5 598 -137.5 220.5C-274.235 49.0132 -280.808 569.06 -280.808 569.06L-282.88 656.524C-283.023 662.533 -278.698 667.72 -272.761 668.661Z" fill="url(#paint2_linear_187_280)" fill-opacity="0.6"/>
<path fill-rule="evenodd" clip-rule="evenodd" d="M447.028 456.98C446.9 456.57 446.761 456.16 446.611 455.752C441.914 442.987 428.102 436.24 415.762 440.683C408.147 443.424 402.872 449.785 401.052 457.254C400.553 457.396 400.055 457.556 399.56 457.734C387.22 462.177 381.023 476.127 385.72 488.892C390.417 501.657 404.228 508.403 416.569 503.961C419.647 502.853 422.342 501.153 424.582 499.028C430.998 504.644 440.004 506.748 448.339 503.747C452.429 502.275 455.844 499.758 458.411 496.586C463.279 498.223 468.648 498.304 473.764 496.462C486.105 492.019 492.301 478.07 487.605 465.305C482.908 452.54 469.096 445.793 456.756 450.236C452.846 451.643 449.553 454.005 447.028 456.98Z" fill="url(#paint3_linear_187_280)"/>
<path fill-rule="evenodd" clip-rule="evenodd" d="M561.028 456.98C560.9 456.57 560.761 456.16 560.611 455.752C555.914 442.987 542.102 436.24 529.762 440.683C522.147 443.424 516.872 449.785 515.052 457.254C514.553 457.396 514.055 457.556 513.56 457.734C501.22 462.177 495.023 476.127 499.72 488.892C504.417 501.657 518.228 508.403 530.569 503.961C533.647 502.853 536.342 501.153 538.582 499.028C544.998 504.644 554.004 506.748 562.339 503.747C566.429 502.275 569.844 499.758 572.411 496.586C577.279 498.223 582.648 498.304 587.764 496.462C600.105 492.019 606.301 478.07 601.605 465.305C596.908 452.54 583.096 445.793 570.756 450.236C566.846 451.643 563.553 454.005 561.028 456.98Z" fill="url(#paint4_linear_187_280)"/>
<path fill-rule="evenodd" clip-rule="evenodd" d="M670.028 456.98C669.9 456.57 669.761 456.16 669.611 455.752C664.914 442.987 651.102 436.24 638.762 440.683C631.147 443.424 625.872 449.785 624.052 457.254C623.553 457.396 623.055 457.556 622.56 457.734C610.22 462.177 604.023 476.127 608.72 488.892C613.417 501.657 627.228 508.403 639.569 503.961C642.647 502.853 645.342 501.153 647.582 499.028C653.998 504.644 663.004 506.748 671.339 503.747C675.429 502.275 678.844 499.758 681.411 496.586C686.279 498.223 691.648 498.304 696.764 496.462C709.105 492.019 715.301 478.07 710.605 465.305C705.908 452.54 692.096 445.793 679.756 450.236C675.846 451.643 672.553 454.005 670.028 456.98Z" fill="url(#paint5_linear_187_280)"/>
<path fill-rule="evenodd" clip-rule="evenodd" d="M338.523 461.954C338.558 461.526 338.582 461.094 338.596 460.659C339.023 447.064 328.744 435.635 315.638 435.131C307.551 434.82 300.278 438.742 295.792 444.985C295.276 444.93 294.754 444.892 294.229 444.872C281.122 444.368 270.152 454.981 269.724 468.576C269.297 482.171 279.576 493.6 292.682 494.104C295.951 494.229 299.087 493.663 301.96 492.532C305.805 500.142 313.367 505.466 322.219 505.806C326.563 505.973 330.672 504.919 334.24 502.941C338.14 506.281 343.088 508.368 348.522 508.577C361.628 509.08 372.599 498.468 373.026 484.873C373.453 471.278 363.175 459.849 350.068 459.345C345.916 459.185 341.979 460.141 338.523 461.954Z" fill="url(#paint6_linear_187_280)"/>
<path fill-rule="evenodd" clip-rule="evenodd" d="M127.511 461.482C127.383 461.071 127.244 460.661 127.094 460.253C122.397 447.488 108.585 440.741 96.245 445.184C88.6304 447.925 83.3551 454.286 81.5348 461.755C81.0357 461.897 80.5383 462.058 80.0433 462.236C67.7028 466.679 61.5063 480.628 66.2031 493.393C70.8999 506.158 84.7113 512.905 97.0519 508.462C100.13 507.354 102.825 505.655 105.065 503.53C111.481 509.145 120.487 511.249 128.822 508.248C132.912 506.776 136.327 504.259 138.895 501.088C143.762 502.724 149.131 502.805 154.247 500.963C166.588 496.521 172.784 482.571 168.088 469.806C163.391 457.041 149.579 450.294 137.239 454.737C133.329 456.145 130.037 458.506 127.511 461.482Z" fill="url(#paint7_linear_187_280)"/>
<path fill-rule="evenodd" clip-rule="evenodd" d="M37.5228 453.955C37.5577 453.526 37.5822 453.094 37.5958 452.659C38.0229 439.064 27.7445 427.635 14.6383 427.132C6.55145 426.821 -0.722429 430.742 -5.20811 436.985C-5.72429 436.93 -6.24553 436.892 -6.77132 436.872C-19.8775 436.368 -30.8484 446.981 -31.2755 460.576C-31.7026 474.171 -21.4242 485.6 -8.31796 486.104C-5.04901 486.23 -1.9129 485.664 0.959896 484.532C4.80471 492.142 12.367 497.467 21.2194 497.807C25.5629 497.974 29.6718 496.92 33.2402 494.941C37.1404 498.281 42.0881 500.368 47.5218 500.577C60.628 501.081 71.5989 490.468 72.026 476.873C72.4531 463.278 62.1747 451.849 49.0685 451.345C44.9165 451.186 40.9788 452.142 37.5228 453.955Z" fill="url(#paint8_linear_187_280)"/>
<path fill-rule="evenodd" clip-rule="evenodd" d="M236.205 466.758C236.077 466.347 235.938 465.937 235.787 465.529C231.091 452.764 217.279 446.017 204.939 450.46C197.324 453.201 192.049 459.562 190.228 467.031C189.729 467.173 189.232 467.334 188.737 467.512C176.396 471.955 170.2 485.904 174.897 498.669C179.594 511.434 193.405 518.181 205.746 513.738C208.823 512.63 211.519 510.931 213.759 508.806C220.174 514.421 229.181 516.525 237.516 513.524C241.606 512.052 245.021 509.535 247.588 506.364C252.456 508 257.825 508.081 262.941 506.239C275.282 501.797 281.478 487.847 276.781 475.082C272.085 462.317 258.273 455.57 245.933 460.013C242.023 461.42 238.73 463.782 236.205 466.758Z" fill="url(#paint9_linear_187_280)"/>
<path fill-rule="evenodd" clip-rule="evenodd" d="M916.008 200.116L920.847 204.84C923.424 207.356 927.528 207.286 930.015 204.683L1011.03 119.863C1016.66 113.97 1021.61 107.37 1024.46 99.7025C1028.5 88.8664 1032.4 72.9552 1024.74 64.6852C1017.14 56.4762 1001.75 59.6814 990.483 63.6477C981.293 66.8828 973.528 73.0512 966.769 80.127L887.473 163.147C884.986 165.75 885.06 169.9 887.637 172.416L892.833 177.49L892.062 183.731C892.03 183.987 892.12 184.243 892.303 184.422L910.059 201.757C910.28 201.973 910.602 202.044 910.892 201.941L916.008 200.116Z" fill="url(#paint10_linear_187_280)"/>
<path d="M984.974 116.94C984.469 124.202 978.236 129.677 971.059 129.173C963.881 128.669 958.468 122.377 958.974 115.114C959.48 107.852 965.712 102.377 972.89 102.881C980.067 103.385 985.48 109.677 984.974 116.94Z" fill="url(#paint11_linear_187_280)" stroke="white" stroke-width="0.407469"/>
</g>
<defs>
<linearGradient id="paint0_linear_187_280" x1="104.441" y1="448.91" x2="167.431" y2="-115.747" gradientUnits="userSpaceOnUse">
<stop stop-color="#F7931A"/>
<stop offset="1" stop-color="#85049D"/>
</linearGradient>
<linearGradient id="paint1_linear_187_280" x1="104.441" y1="448.91" x2="167.431" y2="-115.747" gradientUnits="userSpaceOnUse">
<stop stop-color="#F7931A"/>
<stop offset="1" stop-color="#85049D"/>
</linearGradient>
<linearGradient id="paint2_linear_187_280" x1="153.464" y1="544.288" x2="845.87" y2="172.69" gradientUnits="userSpaceOnUse">
<stop stop-color="white"/>
<stop offset="1" stop-color="#D9D9D9" stop-opacity="0"/>
</linearGradient>
<linearGradient id="paint3_linear_187_280" x1="422.387" y1="438.297" x2="433.525" y2="502.782" gradientUnits="userSpaceOnUse">
<stop stop-color="white"/>
<stop offset="1" stop-color="#C4C4C4" stop-opacity="0"/>
</linearGradient>
<linearGradient id="paint4_linear_187_280" x1="536.387" y1="438.297" x2="547.525" y2="502.782" gradientUnits="userSpaceOnUse">
<stop stop-color="white"/>
<stop offset="1" stop-color="#C4C4C4" stop-opacity="0"/>
</linearGradient>
<linearGradient id="paint5_linear_187_280" x1="645.387" y1="438.297" x2="656.525" y2="502.782" gradientUnits="userSpaceOnUse">
<stop stop-color="white"/>
<stop offset="1" stop-color="#C4C4C4" stop-opacity="0"/>
</linearGradient>
<linearGradient id="paint6_linear_187_280" x1="322.674" y1="435.401" x2="308.845" y2="499.362" gradientUnits="userSpaceOnUse">
<stop stop-color="white"/>
<stop offset="1" stop-color="#C4C4C4" stop-opacity="0"/>
</linearGradient>
<linearGradient id="paint7_linear_187_280" x1="102.87" y1="442.799" x2="114.008" y2="507.283" gradientUnits="userSpaceOnUse">
<stop stop-color="white"/>
<stop offset="1" stop-color="#C4C4C4" stop-opacity="0"/>
</linearGradient>
<linearGradient id="paint8_linear_187_280" x1="21.6742" y1="427.402" x2="7.84499" y2="491.363" gradientUnits="userSpaceOnUse">
<stop stop-color="white"/>
<stop offset="1" stop-color="#C4C4C4" stop-opacity="0"/>
</linearGradient>
<linearGradient id="paint9_linear_187_280" x1="211.563" y1="448.075" x2="222.701" y2="512.559" gradientUnits="userSpaceOnUse">
<stop stop-color="white"/>
<stop offset="1" stop-color="#C4C4C4" stop-opacity="0"/>
</linearGradient>
<linearGradient id="paint10_linear_187_280" x1="1023.66" y1="63.602" x2="899.161" y2="191.117" gradientUnits="userSpaceOnUse">
<stop stop-color="white"/>
<stop offset="0.0001" stop-color="white"/>
<stop offset="1" stop-color="#CECECE" stop-opacity="0.33"/>
</linearGradient>
<linearGradient id="paint11_linear_187_280" x1="972.904" y1="102.678" x2="971.03" y2="129.375" gradientUnits="userSpaceOnUse">
<stop stop-color="white"/>
<stop offset="1" stop-color="#64E3FF" stop-opacity="0.15"/>
</linearGradient>
</defs>
</svg>
