<svg width="25" height="25" viewBox="0 0 25 25" fill="none" xmlns="http://www.w3.org/2000/svg">
    <circle cx="12.5" cy="12.5" r="12.5" fill="#000"/>
    <path d="M12.222 19.998c-.344 0-.689-.097-.99-.273l-4.4-2.593a2.05 2.05 0 0 1-.999-1.767v-5.187c0-.721.38-1.398.99-1.759l4.409-2.593c.611-.36 1.369-.36 1.989 0l4.4 2.593c.611.36.99 1.038.99 1.759v5.196c0 .72-.379 1.397-.99 1.758l-4.4 2.593c-.31.176-.646.273-.999.273zm0-13.741c-.224 0-.448.061-.646.176L7.168 9.035a1.323 1.323 0 0 0-.646 1.143v5.196c0 .474.25.905.646 1.143l4.4 2.602c.404.237.895.237 1.3 0l4.4-2.594a1.33 1.33 0 0 0 .646-1.143v-5.204c0-.475-.25-.915-.646-1.143l-4.392-2.602a1.305 1.305 0 0 0-.654-.176zm0 11.385c-.19 0-.37-.053-.534-.15l-3.203-1.881a1.101 1.101 0 0 1-.534-.95V10.89c0-.387.198-.747.534-.95l3.203-1.881c.336-.193.74-.193 1.068 0L15.95 9.94c.328.194.534.554.534.95v3.771c0 .387-.206.757-.534.95l-3.203 1.881a.99.99 0 0 1-.525.15zm0-9.205a.526.526 0 0 0-.275.08l-3.203 1.88a.574.574 0 0 0-.276.493v3.771c0 .203.103.387.276.493l3.203 1.881a.52.52 0 0 0 .55 0l3.195-1.881a.574.574 0 0 0 .276-.492V10.89a.574.574 0 0 0-.276-.492l-3.194-1.882a.484.484 0 0 0-.276-.079zm0 6.814a.612.612 0 0 1-.275-.07l-1.62-.968a.56.56 0 0 1-.275-.483v-1.917a.55.55 0 0 1 .276-.484l1.619-.958a.56.56 0 0 1 .55 0l1.62.958a.55.55 0 0 1 .275.484v1.917a.55.55 0 0 1-.276.483l-1.618.958a.526.526 0 0 1-.276.08zm0-4.598a.226.226 0 0 0-.103.026l-1.619.958a.212.212 0 0 0-.103.176v1.917c0 .07.043.14.103.184l1.619.959c.06.035.138.035.207 0l1.618-.959a.227.227 0 0 0 .103-.184v-1.917c0-.07-.043-.14-.103-.176l-1.619-.958a.226.226 0 0 0-.103-.027z" fill="url(#a)"/>
    <defs>
        <linearGradient id="a" x1="5.833" y1="12.774" x2="18.614" y2="12.774" gradientUnits="userSpaceOnUse">
            <stop stop-color="#E168FD"/>
            <stop offset="1" stop-color="#7B00FC"/>
        </linearGradient>
    </defs>
</svg>
