<svg width="45" height="45" viewBox="0 0 45 45" fill="none" xmlns="http://www.w3.org/2000/svg">
<circle cx="22.5" cy="22.5" r="22.5" fill="#415BE0"/>
<path d="M28.4421 28.4421C27.7132 29.1709 26.5295 29.1709 25.8006 28.4421C25.0718 27.7132 25.0718 26.5295 25.8006 25.8006C26.5295 25.0718 27.7132 25.0718 28.4421 25.8006C29.1709 26.5295 29.1709 27.7132 28.4421 28.4421ZM20.5178 32.4019L23.1592 29.7605C23.5259 29.3937 24.1155 29.3937 24.4776 29.7605C24.8443 30.1272 24.8443 30.7168 24.4776 31.0789L21.8362 33.7203C21.4694 34.087 20.8799 34.087 20.5178 33.7203C20.1557 33.3582 20.1557 32.7686 20.5178 32.4019ZM31.0835 29.7651L33.7249 32.4065C34.0917 32.7733 34.0917 33.3629 33.7249 33.7249C33.3582 34.0917 32.7686 34.0917 32.4065 33.7249L29.7651 31.0835C29.3984 30.7168 29.3984 30.1272 29.7651 29.7651C30.1272 29.3984 30.7168 29.3984 31.0835 29.7651ZM19.1994 19.1994C18.4705 19.9282 17.2868 19.9282 16.5579 19.1994C15.8291 18.4705 15.8291 17.2868 16.5579 16.5579C17.2868 15.8291 18.4705 15.8291 19.1994 16.5579C19.9282 17.2868 19.9282 18.4705 19.1994 19.1994ZM20.5178 13.9165L23.1592 11.2751C23.5259 10.9083 24.1155 10.9083 24.4776 11.2751C24.8443 11.6418 24.8443 12.2314 24.4776 12.5935L21.8362 15.2349C21.4694 15.6016 20.8799 15.6016 20.5178 15.2349C20.1557 14.8728 20.1557 14.2832 20.5178 13.9165ZM21.8408 20.5178L24.4822 23.1592C24.849 23.5259 24.849 24.1155 24.4822 24.4776C24.1155 24.8397 23.5259 24.8443 23.1638 24.4776L20.5224 21.8362C20.1557 21.4694 20.1557 20.8799 20.5224 20.5178C20.8845 20.1557 21.4741 20.1557 21.8408 20.5178ZM12.5981 11.2751L15.2395 13.9165C15.6063 14.2832 15.6063 14.8728 15.2395 15.2349C14.8728 15.6016 14.2832 15.6016 13.9211 15.2349L11.2751 12.5981C10.9083 12.2314 10.9083 11.6418 11.2751 11.2797C11.6418 10.9083 12.2314 10.9083 12.5981 11.2751Z" fill="white"/>
</svg>
