<svg width="25" height="25" viewBox="0 0 25 25" fill="none" xmlns="http://www.w3.org/2000/svg">
<circle cx="12.5" cy="12.5" r="12.5" fill="#415BE0"/>
<path d="M15.8011 15.8014C15.3962 16.2063 14.7386 16.2063 14.3337 15.8014C13.9288 15.3965 13.9288 14.7388 14.3337 14.3339C14.7386 13.929 15.3962 13.929 15.8011 14.3339C16.206 14.7388 16.206 15.3965 15.8011 15.8014ZM11.3987 18.0013L12.8662 16.5338C13.0699 16.3301 13.3975 16.3301 13.5986 16.5338C13.8024 16.7376 13.8024 17.0651 13.5986 17.2663L12.1312 18.7337C11.9274 18.9375 11.5999 18.9375 11.3987 18.7337C11.1976 18.5326 11.1976 18.205 11.3987 18.0013ZM17.2686 16.5364L18.7361 18.0039C18.9398 18.2076 18.9398 18.5351 18.7361 18.7363C18.5323 18.94 18.2048 18.94 18.0036 18.7363L16.5361 17.2688C16.3324 17.0651 16.3324 16.7376 16.5361 16.5364C16.7373 16.3326 17.0648 16.3326 17.2686 16.5364ZM10.6663 10.6665C10.2614 11.0714 9.60373 11.0714 9.19882 10.6665C8.79391 10.2616 8.79391 9.60397 9.19882 9.19907C9.60373 8.79416 10.2614 8.79416 10.6663 9.19907C11.0712 9.60397 11.0712 10.2616 10.6663 10.6665ZM11.3987 7.7316L12.8662 6.26414C13.0699 6.06039 13.3975 6.06039 13.5986 6.26414C13.8024 6.46788 13.8024 6.79541 13.5986 6.99658L12.1312 8.46404C11.9274 8.66779 11.5999 8.66779 11.3987 8.46404C11.1976 8.26288 11.1976 7.93534 11.3987 7.7316ZM12.1338 11.399L13.6012 12.8664C13.805 13.0702 13.805 13.3977 13.6012 13.5989C13.3975 13.8 13.0699 13.8026 12.8688 13.5989L11.4013 12.1314C11.1976 11.9277 11.1976 11.6001 11.4013 11.399C11.6025 11.1978 11.93 11.1978 12.1338 11.399ZM6.99891 6.26414L8.46638 7.7316C8.67012 7.93534 8.67012 8.26288 8.46638 8.46404C8.26264 8.66779 7.9351 8.66779 7.73394 8.46404L6.26389 6.99916C6.06015 6.79541 6.06015 6.46788 6.26389 6.26671C6.46763 6.06039 6.79517 6.06039 6.99891 6.26414Z" fill="white"/>
</svg>
