<svg width="40" height="40" viewBox="0 0 40 40" fill="none" xmlns="http://www.w3.org/2000/svg">
    <circle cx="20" cy="20" r="20" fill="#FED702"/>
    <path d="M21.313 23.468a.08.08 0 0 0-.034.007 2.596 2.596 0 0 1-2.055 0c-.086-.037-.156.073-.093.14a1.539 1.539 0 0 0 2.243 0c.055-.058.008-.147-.06-.147z" fill="#000"/>
    <path d="M29.405 22.669a1.844 1.844 0 0 0-.05-.173l-4.307-12.157a5.107 5.107 0 0 0-2.803-2.948A5.032 5.032 0 0 0 20.305 7c-.658 0-1.315.13-1.934.389l-.006.003a5.093 5.093 0 0 0-2.812 2.955l-4.221 11.584A4.12 4.12 0 0 0 11 23.557c0 1.32.619 2.494 1.579 3.24.067.053.13.108.189.171.029.032.06.061.09.091l4.726 4.408a3.909 3.909 0 0 0 5.449 0l4.723-4.408c.138-.134.262-.263.394-.419l.06-.066c.76-.783 1.29-1.826 1.29-3.017a4.09 4.09 0 0 0-.095-.888zm-6.823 6.455a3.657 3.657 0 0 1-4.66 0 .389.389 0 0 1 0-.598 3.656 3.656 0 0 1 4.66 0 .39.39 0 0 1 0 .598zm3.555-3.48-2.323 2.357a.537.537 0 0 1-.723.043 4.444 4.444 0 0 0-2.84-1.016 4.448 4.448 0 0 0-2.84 1.017.524.524 0 0 1-.334.12.542.542 0 0 1-.387-.164l-2.323-2.357a.557.557 0 0 1 .019-.802 8.748 8.748 0 0 1 5.867-2.243c2.181 0 4.243.792 5.866 2.243a.56.56 0 0 1 .018.803zm-.02-6.21a8.748 8.748 0 0 1-5.866 2.242 8.748 8.748 0 0 1-5.867-2.243.556.556 0 0 1-.019-.802l2.323-2.357a.537.537 0 0 1 .722-.043 4.445 4.445 0 0 0 2.84 1.017 4.443 4.443 0 0 0 2.84-1.017.537.537 0 0 1 .722.043l2.323 2.357a.555.555 0 0 1-.017.802z" fill="#000"/>
</svg>
