<svg width="40" height="40" viewBox="0 0 40 40" fill="none" xmlns="http://www.w3.org/2000/svg">
    <circle cx="20" cy="20" r="20" fill="#000"/>
    <path d="M31.5 19.036h-.236c-2.757 0-5.513-.002-8.269.003a.924.924 0 0 1-.752-.34 37.926 37.926 0 0 0-.712-.805c-.338-.374-.743-.38-1.098-.014-.289.298-.576.599-.86.902a.764.764 0 0 1-.59.256c-3.416-.003-6.833-.002-10.25-.002-.063 0-.126-.006-.233-.01.074-.473.128-.933.221-1.384.088-.419.223-.827.325-1.242.042-.172.13-.215.302-.215 3.568.006 7.135.001 10.702.008.51 0 .92-.156 1.238-.561.177-.225.374-.434.572-.642.305-.323.715-.313 1.012.019.244.271.493.54.727.82.22.265.496.363.833.363 2.074-.005 4.149 0 6.223-.007.19 0 .267.052.325.237.265.841.447 1.697.52 2.614zM9.623 25.008a11.247 11.247 0 0 1-.946-2.876h.269c2.354 0 4.709-.003 7.063.002.469 0 .85-.156 1.15-.52.19-.232.393-.455.598-.676.301-.324.718-.323 1.015.002.252.274.503.55.743.835.215.257.484.358.813.358 3.582-.003 7.164-.002 10.746-.002h.27a11.581 11.581 0 0 1-.886 2.764c-.063.136-.162.114-.265.114h-6.117c-1.723 0-3.445-.005-5.168.004-.35.001-.622-.11-.844-.382-.223-.27-.462-.528-.697-.79-.306-.339-.714-.353-1.034-.03-.313.315-.606.652-.934.95-.133.121-.333.235-.504.236-1.75.017-3.502.01-5.273.01l.001.001zM29.195 13.102h-2.146a.846.846 0 0 1-.665-.293c-.264-.293-.522-.59-.788-.881-.308-.338-.718-.346-1.035-.021-.286.292-.57.586-.845.887a.913.913 0 0 1-.721.311c-3.976-.005-7.952-.003-11.928-.003h-.302c1.977-2.521 4.482-4.083 7.614-4.487 4.428-.57 8.027.999 10.84 4.407l-.024.08zM11.612 27.866c.477-.04.816-.278 1.095-.632.16-.202.34-.388.513-.58.295-.328.715-.338 1.014-.016.244.262.485.527.712.804.232.283.516.397.882.396 4.104-.006 8.208-.004 12.313-.004h.254c-1.96 2.104-4.362 3.34-7.215 3.608-3.752.35-6.937-.886-9.568-3.576z" fill="#fff"/>
</svg>
