<svg width="40" height="40" viewBox="0 0 40 40" fill="none" xmlns="http://www.w3.org/2000/svg">
    <circle cx="20" cy="20" r="20" fill="#27A17C"/>
    <path fill-rule="evenodd" clip-rule="evenodd" d="M21.933 20.638c-.108.008-.666.04-1.91.04-.99 0-1.692-.028-1.939-.04-3.824-.163-6.679-.81-6.679-1.584s2.855-1.42 6.68-1.586v2.526c.25.018.965.059 1.955.059 1.188 0 1.782-.048 1.89-.058V17.47c3.816.165 6.664.812 6.664 1.584 0 .773-2.847 1.42-6.665 1.584h.004zm0-3.43v-2.26h5.326V11.5h-14.5v3.447h5.324v2.26c-4.328.194-7.583 1.026-7.583 2.024s3.255 1.83 7.583 2.024V28.5h3.849v-7.247c4.318-.193 7.568-1.025 7.568-2.023 0-.997-3.247-1.829-7.568-2.023v.001z" fill="#fff"/>
</svg>
