<svg width="40" height="40" viewBox="0 0 40 40" fill="none" xmlns="http://www.w3.org/2000/svg">
    <path d="M20 40c11.046 0 20-8.954 20-20S31.046 0 20 0 0 8.954 0 20s8.954 20 20 20z" fill="url(#enl2h0wwva)"/>
    <mask id="ze29uut99b" style="mask-type:alpha" maskUnits="userSpaceOnUse" x="0" y="0" width="40" height="40">
        <path d="M20 40c11.046 0 20-8.954 20-20S31.046 0 20 0 0 8.954 0 20s8.954 20 20 20z" fill="#E757CC"/>
    </mask>
    <g mask="url(#ze29uut99b)">
        <path fill="url(#9vzjq2a8nc)" stroke="#00EADB" d="M-3.944 20.056h46.111V47.5H-3.944z"/>
        <path d="M14.667 20.444H11.11L20 40l8.889-19.556h-3.556L20 32.89l-5.333-12.445z" fill="#E756CC"/>
        <path d="m10.667 19.556-8-16.89 3.555-.444 4.89 10.667h17.777L34.222 0l4 .444-8.889 19.112h-3.555L27.11 16H12.89l1.333 3.556h-3.555z" fill="#00EADB"/>
        <path d="M.889 6.222s2.26 3.145 4.444 3.556c.892.168 1.921.046 2.712-.111.856-.171 1.744-.262 2.582-.016.519.152 1.066.35 1.373.571.378.273.494.379.889.445.79.132 1.778.444 1.778.444S7.334 12.594 4 14.222C.684 15.842-1.778 20-1.778 20L.89 6.222zM8-4.444S10.26-1.3 12.444-.89c0 0-3.814.381-3.11.889.377.273-2.618.379-2.223.444.79.132 7.111 2.223 7.111 2.223S20.91 4 20 4.444c-2.667 1.303-14.667 0-14.667 0L8-4.444zM44.974 6.222s-2.26 3.145-4.444 3.556c0 0 3.814.38 3.11.889-.314.227 1.707.338 2.167.407l.007.041c-.493.042-4.627.396-7.592.885-.889 0-5.799 2.222-4.889 2.667.864.421 2.348-.008 4.445 0 4.377.017 9.333 4 9.333 4l-1.296-7.548.048-.008c.066-.011.037-.023-.056-.037l-.833-4.852z" fill="#00EADB"/>
        <path d="M39.403-.54s-1.86 3.397-3.978 4.071c0 0 3.833-.087 3.196.503-.284.264 1.735.128 2.2.14l.012.04c-.484.102-4.544.957-7.427 1.804-.423.052-2.501 2.11-4.073 3.315-1.71 1.313-3.11 1.778-2.666 1.778.444 0 4.54-2.145 6.622-2.392 4.347-.517 9.752 2.833 9.752 2.833l-2.207-7.334c.017-.005.032-.01.047-.013.064-.02.034-.028-.06-.03L39.403-.54z" fill="#00EADB"/>
    </g>
    <defs>
        <linearGradient id="enl2h0wwva" x1="20" y1="0" x2="20" y2="20" gradientUnits="userSpaceOnUse">
            <stop stop-color="#E052C5"/>
            <stop offset="1" stop-color="#897DD3"/>
        </linearGradient>
        <linearGradient id="9vzjq2a8nc" x1="18.667" y1="40.444" x2="18.667" y2="20.444" gradientUnits="userSpaceOnUse">
            <stop stop-color="#0AD8CD"/>
            <stop offset="1" stop-color="#7285D4"/>
        </linearGradient>
    </defs>
</svg>
