<svg width="25" height="25" viewBox="0 0 25 25" fill="none" xmlns="http://www.w3.org/2000/svg">
    <path d="M24.626 15.524c-1.67 6.696-8.453 10.772-15.15 9.102C2.78 22.956-1.297 16.173.373 9.477 2.044 2.78 8.827-1.295 15.523.374c6.697 1.67 10.773 8.453 9.103 15.15z" fill="#F7931A"/>
    <path d="M17.196 10.916c.208-1.401-.85-2.154-2.299-2.657l.47-1.898-1.147-.287-.457 1.847a47.122 47.122 0 0 0-.92-.217l.461-1.86-1.146-.288-.47 1.897c-.25-.057-.495-.114-.732-.174l.001-.005-1.582-.398L9.07 8.11s.851.196.833.208c.465.117.549.427.535.672l-.535 2.162c.032.008.073.02.119.039l-.121-.03-.75 3.028c-.057.142-.201.356-.526.275.012.016-.833-.21-.833-.21l-.57 1.322 1.493.375c.277.07.55.144.817.213l-.474 1.92 1.145.287.47-1.899c.313.085.617.165.914.239l-.468 1.89 1.147.288.475-1.916c1.955.373 3.426.223 4.045-1.56.499-1.434-.025-2.261-1.054-2.8.75-.175 1.314-.671 1.465-1.697h-.001zm-2.62 3.701c-.355 1.435-2.753.66-3.53.465l.63-2.543c.777.195 3.27.582 2.9 2.078zm.354-3.722c-.323 1.305-2.319.642-2.966.48l.57-2.307c.648.163 2.733.466 2.396 1.827z" fill="#fff"/>
</svg>
