<svg width="45" height="45" viewBox="0 0 45 45" fill="none" xmlns="http://www.w3.org/2000/svg">
    <path d="M44.327 27.943c-3.006 12.054-15.215 19.39-27.272 16.383C5.004 41.321-2.333 29.112.674 17.06 3.678 5.004 15.888-2.33 27.94.673c12.055 3.005 19.391 15.216 16.386 27.27z" fill="#F7931A"/>
    <path d="M30.953 19.648c.374-2.522-1.532-3.877-4.138-4.781l.845-3.417-2.064-.518-.823 3.326c-.543-.136-1.1-.264-1.654-.392l.829-3.348L21.885 10l-.846 3.415a68.36 68.36 0 0 1-1.319-.312l.003-.01-2.847-.717-.55 2.221s1.532.354 1.5.376c.836.21.987.767.962 1.209l-.963 3.892c.058.014.132.036.215.069l-.218-.054-1.35 5.451c-.103.256-.362.64-.947.494.021.03-1.5-.377-1.5-.377L13 28.037l2.687.675c.5.126.99.258 1.471.383l-.854 3.455 2.062.518.846-3.419c.564.154 1.11.296 1.645.43l-.843 3.403L22.08 34l.854-3.449c3.52.671 6.167.4 7.282-2.806.897-2.583-.045-4.072-1.897-5.043 1.349-.314 2.365-1.208 2.636-3.054h-.001zm-4.717 6.663c-.638 2.582-4.954 1.186-6.354.836l1.134-4.578c1.4.352 5.887 1.048 5.22 3.742zm.639-6.7c-.582 2.349-4.175 1.155-5.34.863l1.027-4.152c1.166.293 4.919.839 4.313 3.289z" fill="#fff"/>
</svg>
