<svg width="40" height="40" viewBox="0 0 40 40" fill="none" xmlns="http://www.w3.org/2000/svg">
<g id="Tokens farming" clip-path="url(#clip0_948_1086)">
<path id="Vector" d="M20 40C31.0457 40 40 31.0457 40 20C40 8.9543 31.0457 0 20 0C8.9543 0 0 8.9543 0 20C0 31.0457 8.9543 40 20 40Z" fill="#FDDE00"/>
<path id="Vector_2" d="M10.2645 14.1404C10.2645 14.1404 9.23038 15.4427 9.57509 21.3411C9.57509 21.3411 7.31531 27.1246 8.08133 30.0739C8.84736 33.0231 11.8349 32.8699 11.8349 32.8699C11.8349 32.8699 16.6226 37.083 20.2995 33.3678C23.9765 29.6525 17.2354 15.2512 17.2354 15.2512L16.3928 10.272C16.3928 10.272 15.4735 10.9997 15.5884 15.7874C15.7033 20.5751 13.7117 17.2045 13.7117 17.2045L10.2645 14.1404Z" fill="#3C2D0C"/>
<path id="Vector_3" d="M10.648 19.3494L9.38406 22.9114L8.92444 25.401C8.92444 25.401 7.35408 30.9548 13.827 30.8782C13.827 30.8782 18.8828 35.3977 22.1768 32.3719L23.0577 31.4144L24.5898 29.0397L27.1177 21.4943C27.1177 21.4943 26.3133 16.3236 21.2192 14.1787C21.2192 14.1787 20.7979 13.9489 20.0319 14.2553C20.0319 14.2553 17.9253 9.50592 16.5847 10.0804C16.5847 10.0804 15.4357 10.6933 16.4315 15.3661L14.6314 16.1704C14.6314 16.1704 12.6623 12.4372 10.8395 13.1829C9.15425 13.8723 10.648 19.3494 10.648 19.3494Z" fill="#E78C19"/>
<path id="Vector_4" d="M17.197 12.4164L17.3502 14.4847C17.3502 14.4847 17.4651 15.6721 18.729 15.2507C19.0863 15.1317 19.4 14.8829 19.367 14.4745C19.3423 14.1687 19.1287 13.8919 18.9898 13.6281C18.7297 13.1342 18.5214 12.61 18.219 12.1396C18.0642 11.898 17.7456 11.3576 17.3885 11.4206C17.3885 11.4206 17.1252 11.344 17.197 12.4164Z" fill="#EFB99D"/>
<path id="Vector_5" d="M11.66 14.7388C11.6842 14.723 12.1987 14.0711 13.2687 15.6509C14.3387 17.2308 14.231 17.0225 14.231 17.0225C14.231 17.0225 14.8055 17.6545 13.6277 18.466C13.371 18.6562 13.091 18.8127 12.7944 18.9316C12.6102 19.0057 12.4134 19.0433 12.2149 19.0426C11.9913 19.0319 11.8907 18.9177 11.8354 18.7073C11.6544 18.0179 11.4505 17.3322 11.3472 16.6257C11.2693 16.0932 11.1137 15.0964 11.66 14.7388Z" fill="#EFB99D"/>
<path id="Vector_6" d="M24.0995 17.9219C24.0995 18.2974 23.5506 18.6018 22.8735 18.6018C22.1964 18.6018 21.6475 18.2974 21.6475 17.9219C21.6475 17.5465 22.208 16.9937 22.8851 16.9937C23.5622 16.9937 24.0995 17.5465 24.0995 17.9219Z" fill="#FBFBFB"/>
<path id="Vector_7" d="M17.0291 20.8542C17.3935 20.2104 17.3553 19.4999 16.944 19.2671C16.5327 19.0343 15.9039 19.3674 15.5395 20.0112C15.1752 20.6549 15.2133 21.3655 15.6247 21.5983C16.036 21.8311 16.6648 21.4979 17.0291 20.8542Z" fill="#FBFBFB"/>
<path id="Vector_8" d="M18.768 23.9647L22.1194 22.222C22.1194 22.222 26.2942 20.0388 27.3092 21.7241C28.3242 23.4093 27.3092 25.9755 27.3092 25.9755C27.3092 25.9755 26.8687 28.9822 23.8046 29.2503L22.1577 29.4801L20.0511 29.5376C20.0511 29.5376 16.6614 29.7291 14.1718 27.8906L13.3866 26.9331C13.3866 26.9331 11.7971 24.7499 12.9078 23.1795C14.0186 21.6092 17.8104 24.0413 17.8104 24.0413C17.8104 24.0413 18.3275 24.3094 18.768 23.9647Z" fill="#FBFBFB"/>
<path id="Vector_9" d="M26.3707 15.2703C26.815 15.2703 27.1751 14.9102 27.1751 14.466C27.1751 14.0217 26.815 13.6616 26.3707 13.6616C25.9265 13.6616 25.5664 14.0217 25.5664 14.466C25.5664 14.9102 25.9265 15.2703 26.3707 15.2703Z" fill="#E72D36"/>
<path id="Vector_10" d="M24.5895 13.2976C25.0337 13.2976 25.3938 12.9375 25.3938 12.4933C25.3938 12.0491 25.0337 11.689 24.5895 11.689C24.1453 11.689 23.7852 12.0491 23.7852 12.4933C23.7852 12.9375 24.1453 13.2976 24.5895 13.2976Z" fill="#E72D36"/>
<path id="Vector_11" d="M21.736 12.6658C22.1802 12.6658 22.5403 12.3057 22.5403 11.8615C22.5403 11.4172 22.1802 11.0571 21.736 11.0571C21.2918 11.0571 20.9316 11.4172 20.9316 11.8615C20.9316 12.3057 21.2918 12.6658 21.736 12.6658Z" fill="#E72D36"/>
<path id="Vector_12" d="M22.3677 6.15437C22.5401 8.52906 22.1973 10.6739 21.6208 10.6739C21.0444 10.6739 20.2803 8.3567 20.2803 6.15437C20.2803 5.24477 20.7571 5.10107 21.3336 5.10107C21.91 5.10107 22.3019 5.24716 22.3677 6.15437Z" fill="#E72D36"/>
<path id="Vector_13" d="M27.6966 7.63663C26.8208 9.85047 25.5807 11.6337 25.0614 11.3834C24.5421 11.1332 24.8598 8.71422 25.816 6.73046C26.211 5.91114 26.703 5.98871 27.2223 6.23895C27.7416 6.48918 28.0312 6.79088 27.6966 7.63663Z" fill="#E72D36"/>
<path id="Vector_14" d="M31.5048 11.9425C29.5771 13.3412 27.5731 14.1809 27.2693 13.6909C26.9655 13.201 28.5326 11.3296 30.4047 10.1682C31.1779 9.68857 31.5514 10.0181 31.8552 10.508C32.159 10.998 32.2413 11.4081 31.5048 11.9425Z" fill="#E72D36"/>
<path id="Vector_15" d="M18.6094 21.628C18.5372 21.6336 18.467 21.6427 18.3991 21.6544C18.4075 21.6787 18.412 21.7042 18.4124 21.7299C18.4124 21.9751 18.0313 22.1748 17.5515 22.1883C17.5481 22.2088 17.5471 22.2298 17.5485 22.2506C17.5715 22.5471 18.0838 22.7492 18.6928 22.702C19.3018 22.6547 19.7768 22.3759 19.7537 22.0793C19.7307 21.7828 19.2184 21.5807 18.6094 21.628Z" fill="black"/>
<path id="Vector_16" d="M22.8467 20.5796C22.7745 20.5852 22.7043 20.5943 22.6364 20.6061C22.6448 20.6304 22.6493 20.6559 22.6497 20.6816C22.6497 20.9267 22.2686 21.1265 21.7888 21.1399C21.7854 21.1605 21.7844 21.1814 21.7858 21.2022C21.8088 21.4988 22.3211 21.7009 22.9301 21.6536C23.5391 21.6063 24.0141 21.3276 23.991 21.031C23.968 20.7344 23.4557 20.5323 22.8467 20.5796Z" fill="black"/>
<path id="Vector_17" d="M24.2356 21.8196C24.2356 21.8196 22.5552 22.3079 22.6557 23.2559C22.7562 24.2039 24.7814 24.6922 24.7814 24.6922C24.7814 24.6922 25.3272 24.9077 25.6432 24.3906C25.9592 23.8735 26.4188 23.1697 26.2896 22.1643C26.2896 22.1643 26.2465 21.4174 24.2356 21.8196Z" fill="black"/>
</g>
<defs>
<clipPath id="clip0_948_1086">
<rect width="40" height="40" fill="white"/>
</clipPath>
</defs>
</svg>
