<svg width="45" height="45" viewBox="0 0 45 45" fill="none" xmlns="http://www.w3.org/2000/svg">
<circle cx="22.5" cy="22.5" r="22.5" fill="black"/>
<path fill-rule="evenodd" clip-rule="evenodd" d="M23.7019 12.6425C25.8533 12.6196 27.6097 14.3574 27.6097 16.509C27.6097 18.5942 26.7247 19.6549 26.5347 19.8599C26.1638 20.26 26.2154 20.925 26.7023 21.2446C27.0594 21.479 29.3577 23.142 29.3577 27.6058C29.3577 31.1462 26.4877 34.0162 22.9473 34.0162H22.0958C18.5316 34.0162 15.6423 31.1269 15.6423 27.5627V26.4015C15.6423 24.6374 16.4159 22.962 17.7587 21.8179L21.37 18.7411C21.6309 18.8742 21.9264 18.9493 22.2394 18.9493C23.2975 18.9493 24.1553 18.0915 24.1553 17.0333C24.1553 15.9752 23.2975 15.1173 22.2394 15.1173C21.1812 15.1173 20.3234 15.9752 20.3234 17.0333C20.3234 17.1724 20.3382 17.308 20.3664 17.4387L16.6937 20.5678C14.9846 22.0239 14 24.1562 14 26.4015V27.5627C14 32.0339 17.6246 35.6585 22.0958 35.6585H22.9473C27.3947 35.6585 31 32.0532 31 27.6058C31 23.4752 29.2629 21.2897 28.217 20.3508C28.686 19.6222 29.2519 18.3586 29.2519 16.509C29.2519 13.4436 26.7497 10.9678 23.6844 11.0003L19.1225 11.0488C17.3222 11.0679 15.8729 12.5327 15.8729 14.3331V18.5856L17.5152 17.3992V14.3331C17.5152 13.4329 18.2398 12.7005 19.14 12.691L23.7019 12.6425ZM20.676 27.1607C20.676 26.1461 21.4985 25.3236 22.5131 25.3236C23.5277 25.3236 24.3502 26.1461 24.3502 27.1607C24.3502 28.1753 23.5277 28.9978 22.5131 28.9978C21.4985 28.9978 20.676 28.1753 20.676 27.1607ZM22.5131 23.5236C20.5043 23.5236 18.876 25.152 18.876 27.1607C18.876 29.1694 20.5043 30.7978 22.5131 30.7978C24.5218 30.7978 26.1502 29.1694 26.1502 27.1607C26.1502 25.152 24.5218 23.5236 22.5131 23.5236Z" fill="#FF6121"/>
</svg>
