<svg width="25" height="25" viewBox="0 0 25 25" fill="none" xmlns="http://www.w3.org/2000/svg">
<circle cx="12.5" cy="12.5" r="12.5" fill="black"/>
<path fill-rule="evenodd" clip-rule="evenodd" d="M13.1678 7.02376C14.363 7.01107 15.3388 7.9765 15.3388 9.17184C15.3388 10.3303 14.8471 10.9196 14.7416 11.0334C14.5355 11.2557 14.5642 11.6252 14.8346 11.8027C15.033 11.9329 16.3099 12.8568 16.3099 15.3367C16.3099 17.3036 14.7154 18.8981 12.7486 18.8981H12.2755C10.2954 18.8981 8.6902 17.2929 8.6902 15.3128V14.6677C8.6902 13.6876 9.11998 12.7568 9.866 12.1212L11.8723 10.4119C12.0172 10.4859 12.1814 10.5275 12.3553 10.5275C12.9431 10.5275 13.4197 10.051 13.4197 9.46312C13.4197 8.87525 12.9431 8.39869 12.3553 8.39869C11.7674 8.39869 11.2908 8.87525 11.2908 9.46312C11.2908 9.54039 11.2991 9.61572 11.3147 9.68832L9.27431 11.4267C8.32482 12.2357 7.77783 13.4203 7.77783 14.6677V15.3128C7.77783 17.7968 9.79152 19.8104 12.2755 19.8104H12.7486C15.2193 19.8104 17.2223 17.8075 17.2223 15.3367C17.2223 13.0419 16.2572 11.8277 15.6762 11.3062C15.9367 10.9014 16.2511 10.1994 16.2511 9.17184C16.2511 7.46883 14.861 6.09336 13.1581 6.11145L10.6237 6.13837C9.62352 6.149 8.81833 6.96279 8.81833 7.963V10.3255L9.7307 9.66639V7.963C9.7307 7.4629 10.1333 7.056 10.6334 7.05069L13.1678 7.02376ZM11.4866 15.0895C11.4866 14.5258 11.9435 14.0689 12.5072 14.0689C13.0709 14.0689 13.5278 14.5258 13.5278 15.0895C13.5278 15.6532 13.0709 16.1101 12.5072 16.1101C11.9435 16.1101 11.4866 15.6532 11.4866 15.0895ZM12.5072 13.0689C11.3912 13.0689 10.4866 13.9736 10.4866 15.0895C10.4866 16.2055 11.3912 17.1101 12.5072 17.1101C13.6231 17.1101 14.5278 16.2055 14.5278 15.0895C14.5278 13.9736 13.6231 13.0689 12.5072 13.0689Z" fill="#FF6121"/>
</svg>
