<svg width="40" height="40" viewBox="0 0 40 40" fill="none" xmlns="http://www.w3.org/2000/svg">
    <path d="M20 40c11.046 0 20-8.954 20-20S31.046 0 20 0 0 8.954 0 20s8.954 20 20 20z" fill="#D9B432"/>
    <path d="M25.704 11.556c2.574 0 4.719 2.095 4.719 4.713 0 .388-.042.775-.125 1.152-.134.605-.85.774-1.385.462-.507-.297-.742-.949-.722-1.536l.001-.078c0-1.309-1.115-2.444-2.402-2.444-1.373 0-2.402 1.135-2.402 2.444v.074c.014.59-.206 1.225-.724 1.51-.545.299-1.291.192-1.41-.418a6.06 6.06 0 0 1-.097-1.166 4.53 4.53 0 0 1 4.547-4.713zm-11.41 17.458c-2.2 0-4.085-1.53-4.588-3.608-.144-.6.369-1.106.985-1.106.615 0 1.097.525 1.374 1.075.404.799 1.23 1.37 2.143 1.37.9 0 1.717-.556 2.126-1.338.295-.564.792-1.107 1.428-1.107.607 0 1.127.478 1.018 1.075-.383 2.095-2.276 3.64-4.486 3.64zm0-6.547c-3.003 0-5.405-2.444-5.405-5.412s2.402-5.5 5.405-5.5a5.503 5.503 0 0 1 5.49 5.5c0 2.968-2.487 5.412-5.49 5.412zm11.41 6.547c-3.003 0-5.49-2.444-5.49-5.412 0-3.055 2.402-5.5 5.49-5.5 3.003 0 5.405 2.445 5.405 5.5.086 2.968-2.402 5.412-5.405 5.412zm3.26-5.5c0 1.834-1.458 3.23-3.26 3.23-1.802 0-3.26-1.483-3.26-3.23 0-1.832 1.459-3.23 3.26-3.23 1.802.088 3.26 1.485 3.26 3.23zm-11.496-6.459c0 1.833-1.458 3.23-3.26 3.23-1.802 0-3.26-1.484-3.26-3.23 0-1.833 1.458-3.23 3.26-3.23 1.887 0 3.26 1.397 3.26 3.23z" fill="#2C2C2C"/>
    <circle cx="14.222" cy="16.889" fill="#D9B432" r="3.111"/>
    <circle cx="25.778" cy="23.556" fill="#D9B432" r="3.111"/>
</svg>
