<svg width="40" height="40" viewBox="0 0 40 40" fill="none" xmlns="http://www.w3.org/2000/svg">
    <circle cx="20" cy="20" r="20" fill="#1C0D00"/>
    <path d="M20.5 32c-8.767 0-11.2-5-11.2-5s-1.08-.435-1.5-1c-.303-.407-.8-1.2-.8-1.2s.431-.113.7-.42c.225-.257.524-.724.524-.724s-.509-.643-.76-1.1C7.247 22.16 7 21.5 7 21.5s.641-.252 1-.5c.454-.314 1-1 1-1s-.218-3.515.3-6c.452-2.17 1.696-5.299 2.192-6.502a.476.476 0 0 1 .68-.235C12.67 7.55 13.45 8.028 14 8.5c.948.815 2.5 2.5 2.5 2.5s1.763-.6 4-.6 4.1.6 4.1.6 1.432-1.709 2.4-2.5c.63-.514 1.363-.968 1.83-1.238a.473.473 0 0 1 .678.233c.53 1.287 1.921 4.788 2.292 7.005.42 2.511.2 5.5.2 5.5s.546.686 1 1c.359.248 1 .5 1 .5s-.267.63-.5 1c-.267.423-.7 1-.7 1s-.109.191.2.5.98.77.98.77-.512.885-.78 1.23c-.432.556-1.4 1-1.4 1s-2.533 5-11.3 5z" fill="#FEA910"/>
    <mask id="7gh94rmfja" style="mask-type:alpha" maskUnits="userSpaceOnUse" x="7" y="7" width="27" height="25">
        <path d="M20.5 32c-8.767 0-11.2-5-11.2-5s-1.08-.435-1.5-1c-.303-.407-.8-1.2-.8-1.2s.431-.113.7-.42c.225-.257.524-.724.524-.724s-.509-.643-.76-1.1C7.247 22.16 7 21.5 7 21.5s.641-.252 1-.5c.454-.314 1-1 1-1s-.218-3.515.3-6c.452-2.17 1.696-5.299 2.192-6.502a.476.476 0 0 1 .68-.235C12.67 7.55 13.45 8.028 14 8.5c.948.815 2.5 2.5 2.5 2.5s1.763-.6 4-.6 4.1.6 4.1.6 1.432-1.709 2.4-2.5c.63-.514 1.363-.968 1.83-1.238a.473.473 0 0 1 .678.233c.53 1.287 1.921 4.788 2.292 7.005.42 2.511.2 5.5.2 5.5s.546.686 1 1c.359.248 1 .5 1 .5s-.267.63-.5 1c-.267.423-.7 1-.7 1s-.109.191.2.5.98.77.98.77-.512.885-.78 1.23c-.432.556-1.4 1-1.4 1s-2.533 5-11.3 5z" fill="#FEA910"/>
    </mask>
    <g mask="url(#7gh94rmfja)">
        <path d="M30.5 29.7c0 3.314-4.477 6-10 6s-10-2.386-10-5.7c0-3 5.294-6.4 10-6.4s10 3.4 10 6.1z" fill="#FFEDCD"/>
        <rect x="20" y="8" width="1" height="5" rx=".5" fill="#D56126"/>
        <rect x="22.8" y="7.966" width="1" height="5" rx=".5" transform="rotate(5 22.8 7.966)" fill="#D56126"/>
        <rect width="1" height="5" rx=".5" transform="scale(-1 1) rotate(5 -100.405 -206.28)" fill="#D56126"/>
        <path d="M10.7 13c.19-1.22 1.083-3.546 1.374-4.284a.195.195 0 0 1 .296-.087c.282.2.8.573 1.178.88.663.539 1.476 1.462 1.81 1.852a.199.199 0 0 1-.053.302c-.523.304-1.907 1.136-2.627 1.832-.62.598-1.451 1.541-1.908 2.07-.119.137-.335.058-.328-.124.02-.481.08-1.297.258-2.441zM30.3 13c-.19-1.226-1.167-3.566-1.48-4.294a.195.195 0 0 0-.293-.082c-.281.2-.803.575-1.185.885-.663.539-1.476 1.462-1.81 1.852a.199.199 0 0 0 .053.302c.523.304 1.907 1.136 2.627 1.832.642.62 1.512 1.61 1.956 2.125.112.13.313.067.319-.105.016-.469 0-1.31-.187-2.515z" fill="#D56126"/>
    </g>
    <path d="M22.4 23.4c0 .69-.828 1.25-1.85 1.25-1.022 0-1.85-.56-1.85-1.25s.828-.75 1.85-.75c1.022 0 1.85.06 1.85.75zM25.438 19.307c2.563-.179 2.619 1.622 2.619 1.622s-1.011-1.032-2.57-.923c-1.56.108-2.268 1.26-2.268 1.26s-.344-1.78 2.219-1.959z" fill="#640000"/>
    <path d="M22.023 25.802C20.439 25.719 20.5 24.5 20.5 24.5s.069-.049.1 0c.132.206.511.828 1.445.877 1.156.06 1.46-.592 1.46-.592s.102 1.1-1.482 1.017z" fill="#640000"/>
    <path d="M19.03 25.802c1.583-.083 1.522-1.302 1.522-1.302s-.069-.049-.1 0c-.132.206-.51.828-1.445.877-1.156.06-1.46-.592-1.46-.592s-.102 1.1 1.482 1.017zM15.677 19.303c-2.568-.09-2.561 1.712-2.561 1.712s.974-1.067 2.536-1.012c1.562.054 2.31 1.181 2.31 1.181s.282-1.791-2.285-1.88z" fill="#640000"/>
    <path d="M24.779 16.747c.246.294.221.753-.32 1.175-.435.34-1.112.372-1.359.078-.247-.294-.012-.742.466-1.143.529-.443.966-.404 1.213-.11zM15.951 16.747c-.247.294-.221.753.32 1.175.435.34 1.112.372 1.359.078.247-.294.012-.742-.466-1.143-.529-.443-.966-.404-1.213-.11z" fill="#FFEDCD"/>
</svg>
