<svg width="40" height="40" viewBox="0 0 40 40" fill="none" xmlns="http://www.w3.org/2000/svg">
    <path d="M20 40c11.046 0 20-8.954 20-20S31.046 0 20 0 0 8.954 0 20s8.954 20 20 20z" fill="#131313"/>
    <rect x="11.5" y="7.5" width="17" height="25" rx="6.373" fill="#F2B21E"/>
    <mask id="vv399ezcza" style="mask-type:alpha" maskUnits="userSpaceOnUse" x="11" y="7" width="18" height="26">
        <rect x="11.5" y="7.5" width="17" height="25" rx="6.863" fill="#F2B21D"/>
    </mask>
    <g mask="url(#vv399ezcza)">
        <path d="m17.595 13.67-.14 2.085a.49.49 0 0 1-.452.462c-.466.033-1.22.062-1.763-.038-.797-.146-1.943-.96-1.943-.96v6.007l3.63-2.648a6.372 6.372 0 0 0 1.634-1.746l.565-.893a3.784 3.784 0 0 1 2.904-1.873l.154-.016a6.372 6.372 0 0 0 4.451-2.492l1.141-1.504a.245.245 0 0 0 .023-.259l-.303-.6a.245.245 0 0 0-.335-.105l-2.294 1.238a.245.245 0 0 1-.284-.038l-.607-.574a1.47 1.47 0 0 0-2.258.287l-.383.611a.125.125 0 0 1-.067.053l-1.391.459a4.216 4.216 0 0 0-1.361.75 2.547 2.547 0 0 0-.921 1.794zM26.988 13.46l1.512-2.774 1.214 3.922s-1.887-.017-2.671.735c-.265.254-.562.582-.832.896-.525.612-1.387.832-2.122.503a2.61 2.61 0 0 0-1.9-.093l-1.946.655 1.85-1.494c.371-.3.844-.446 1.32-.41a3.742 3.742 0 0 0 3.575-1.94z" fill="#fff"/>
        <path d="M19.757 31.03c-2.608 1.422-8.743 0-8.743 0l18.457 4.656.243-16.421s-1.7 5.392-3.4 7.843c-.655.944-1.59 1.344-2.671 1.715-1.656.57-2.347 1.367-3.886 2.206zM12.957 21.716v-6.128s-.71.407-1.214.49c-.375.062-.972 0-.972 0l.486 6.618s.378-.537.729-.735c.34-.193.971-.245.971-.245zM16.679 9.454l-4.693-2.2 15.543.491s-4.049.222-6.072 1.226c-.203.1-.421.213-.642.331-1.286.684-2.818.77-4.136.152z" fill="#B86328"/>
        <path d="M12.471 26.372c-.332.233-.73.245-1.058.194-.226-.036-.463.212-.37.422l1.54 3.5a.245.245 0 0 0 .381.09l2.205-1.821a.254.254 0 0 0 .016-.374c-.279-.28-.776-.812-1.014-1.275-.19-.368-.325-.906-.404-1.282-.04-.188-.271-.272-.419-.149-.273.229-.649.536-.877.695zM13.662 8.835l.995 1.606-.628.106a2.94 2.94 0 0 0-1.46.696l-.238.21c-.207.183-.51-.061-.377-.302l1.286-2.306a.245.245 0 0 1 .422-.01z" fill="#fff"/>
        <path d="M13.2 24.944V23.91c0-.129.105-.233.234-.233a5.14 5.14 0 0 0 2.315-.552l.33-.166a.246.246 0 0 0 .063-.046l2.33-2.352a6.862 6.862 0 0 1 4.276-2.006l1.43-.126a3.431 3.431 0 0 0 2.563-1.527l2.585-3.912a.245.245 0 0 1 .449.114l.418 4.857a.245.245 0 0 1-.033.146l-3.14 5.282a2.941 2.941 0 0 1-3.414 1.302l-4.635-1.461a2.94 2.94 0 0 0-1.822.017l-.185.062a9.312 9.312 0 0 0-2.063.99l-1.323.85a.245.245 0 0 1-.378-.206z" fill="#B86328"/>
    </g>
    <rect x="11.745" y="7.745" width="16.51" height="24.51" rx="6.127" stroke="#000" stroke-width=".49"/>
    <path d="m14.171 31.03.972-1.226" stroke="#000" stroke-width=".392"/>
    <rect x="13.129" y="9.142" width="13.743" height="21.716" rx="5.221" stroke="#000" stroke-width=".343"/>
    <path d="m14.9 10.441-.972-1.47M26.8 18.284h1.214" stroke="#000" stroke-width=".392"/>
    <path d="m16.114 28.824 1.215.735v-1.47l-1.215.735z" stroke="#000" stroke-width=".294"/>
    <path d="M24.734 17.059c0 .448-.36.809-.8.809-.44 0-.8-.361-.8-.81 0-.447.36-.808.8-.808.44 0 .8.36.8.809z" stroke="#000" stroke-width=".343"/>
    <path d="M21.846 10.245v.735M22.72 10.245v.735M23.643 10.245v.735" stroke="#000" stroke-width=".294" stroke-linecap="round"/>
    <path fill="#B96428" stroke="#000" stroke-width=".343" d="M14.657 19.02h10.686v1.961H14.657z"/>
    <path d="M15.386 20.061v.723l9.811.05v-.81a.245.245 0 0 0-.268-.244l-4.93.465H18.82c-.83 0-1.657-.092-2.467-.273l-.669-.15a.245.245 0 0 0-.298.239z" fill="#F2B21E"/>
    <path fill="#B96428" stroke="#000" stroke-width=".343" d="M14.657 13.137h10.686v1.471H14.657z"/>
    <path d="M15.386 13.979v.482l9.811.037v-.81L20 14.057h-1.487c-.627 0-1.252-.052-1.87-.156l-.972-.163a.245.245 0 0 0-.285.242z" fill="#F2B21E"/>
    <path fill="#B96428" stroke="#000" stroke-width=".343" d="M14.657 24.902h10.686v1.961H14.657z"/>
    <path d="M15.386 25.943v.724l9.811.049v-.81a.245.245 0 0 0-.268-.243l-4.93.465H18.82c-.83 0-1.657-.092-2.467-.274l-.669-.15a.245.245 0 0 0-.298.24z" fill="#F2B21E"/>
</svg>
