<svg width="25" height="25" viewBox="0 0 25 25" fill="none" xmlns="http://www.w3.org/2000/svg">
<circle cx="12.5" cy="12.5" r="12.5" fill="black"/>
<path d="M7.55558 14.0003C8.19991 14.0003 8.72225 13.478 8.72225 12.8337C8.72225 12.1893 8.19991 11.667 7.55558 11.667C6.91125 11.667 6.38892 12.1893 6.38892 12.8337C6.38892 13.478 6.91125 14.0003 7.55558 14.0003Z" fill="white"/>
<path d="M12.2221 14.0003C12.8664 14.0003 13.3888 13.478 13.3888 12.8337C13.3888 12.1893 12.8664 11.667 12.2221 11.667C11.5778 11.667 11.0554 12.1893 11.0554 12.8337C11.0554 13.478 11.5778 14.0003 12.2221 14.0003Z" fill="white"/>
<path d="M16.8888 14.0003C17.5332 14.0003 18.0555 13.478 18.0555 12.8337C18.0555 12.1893 17.5332 11.667 16.8888 11.667C16.2445 11.667 15.7222 12.1893 15.7222 12.8337C15.7222 13.478 16.2445 14.0003 16.8888 14.0003Z" fill="white"/>
</svg>
