<svg width="45" height="45" viewBox="0 0 45 45" fill="none" xmlns="http://www.w3.org/2000/svg">
<circle cx="22.5" cy="22.5" r="22.5" fill="black"/>
<path d="M13.6 25.2C14.7598 25.2 15.7 24.2598 15.7 23.1C15.7 21.9402 14.7598 21 13.6 21C12.4402 21 11.5 21.9402 11.5 23.1C11.5 24.2598 12.4402 25.2 13.6 25.2Z" fill="white"/>
<path d="M21.9999 25.2C23.1597 25.2 24.0999 24.2598 24.0999 23.1C24.0999 21.9402 23.1597 21 21.9999 21C20.8401 21 19.8999 21.9402 19.8999 23.1C19.8999 24.2598 20.8401 25.2 21.9999 25.2Z" fill="white"/>
<path d="M30.4 25.2C31.5598 25.2 32.5 24.2598 32.5 23.1C32.5 21.9402 31.5598 21 30.4 21C29.2403 21 28.3 21.9402 28.3 23.1C28.3 24.2598 29.2403 25.2 30.4 25.2Z" fill="white"/>
</svg>
