<svg width="25" height="25" viewBox="0 0 25 25" fill="none" xmlns="http://www.w3.org/2000/svg">
<circle cx="12.5" cy="12.5" r="12.5" fill="#204FF9"/>
<path d="M9.95735 6.66699C9.72121 6.66699 9.52978 6.85842 9.52978 7.09457C9.52978 7.33071 9.72121 7.52214 9.95735 7.52214V6.66699ZM10.843 7.09457H11.2706V6.66699H10.843V7.09457ZM10.843 10.2403L11.2264 10.4297L11.2706 10.3401V10.2403H10.843ZM13.9582 10.2403H13.5307V10.3401L13.5749 10.4297L13.9582 10.2403ZM13.9582 7.09457V6.66699H13.5307V7.09457H13.9582ZM14.8134 7.52214C15.0495 7.52214 15.2409 7.33071 15.2409 7.09457C15.2409 6.85842 15.0495 6.66699 14.8134 6.66699V7.52214ZM17.0487 16.4959L17.432 16.3065L17.0487 16.4959ZM9.95735 7.52214H10.843V6.66699H9.95735V7.52214ZM10.4155 7.09457V10.2403H11.2706V7.09457H10.4155ZM10.4597 10.0509L7.36928 16.3065L8.13597 16.6853L11.2264 10.4297L10.4597 10.0509ZM8.62885 18.3337H16.1725V17.4785H8.62885V18.3337ZM17.432 16.3065L14.3416 10.0509L13.5749 10.4297L16.6653 16.6853L17.432 16.3065ZM14.3858 10.2403V7.09457H13.5307V10.2403H14.3858ZM13.9582 7.52214H14.8134V6.66699H13.9582V7.52214ZM16.1725 18.3337C17.2138 18.3337 17.8933 17.2402 17.432 16.3065L16.6653 16.6853C16.8458 17.0506 16.5799 17.4785 16.1725 17.4785V18.3337ZM7.36928 16.3065C6.90801 17.2402 7.58742 18.3337 8.62885 18.3337V17.4785C8.22133 17.4785 7.95547 17.0506 8.13597 16.6853L7.36928 16.3065Z" fill="white"/>
<path d="M11.1179 8.07227H12.3701" stroke="white" stroke-width="0.3"/>
<path d="M11.1179 9.04883H12.3701" stroke="white" stroke-width="0.3"/>
<path d="M12.4618 14.9745C12.7655 14.9745 13.0116 14.7284 13.0116 14.4247C13.0116 14.1211 12.7655 13.875 12.4618 13.875C12.1582 13.875 11.9121 14.1211 11.9121 14.4247C11.9121 14.7284 12.1582 14.9745 12.4618 14.9745Z" fill="white"/>
<path d="M13.6225 13.6304C13.7912 13.6304 13.928 13.4936 13.928 13.3249C13.928 13.1563 13.7912 13.0195 13.6225 13.0195C13.4539 13.0195 13.3171 13.1563 13.3171 13.3249C13.3171 13.4936 13.4539 13.6304 13.6225 13.6304Z" fill="white"/>
<path d="M12.4619 13.1421C12.6306 13.1421 12.7673 13.0053 12.7673 12.8367C12.7673 12.668 12.6306 12.5312 12.4619 12.5312C12.2932 12.5312 12.1565 12.668 12.1565 12.8367C12.1565 13.0053 12.2932 13.1421 12.4619 13.1421Z" fill="white"/>
<path d="M11.3013 13.6304C11.4699 13.6304 11.6067 13.4936 11.6067 13.3249C11.6067 13.1563 11.4699 13.0195 11.3013 13.0195C11.1326 13.0195 10.9958 13.1563 10.9958 13.3249C10.9958 13.4936 11.1326 13.6304 11.3013 13.6304Z" fill="white"/>
<path d="M10.8125 14.73C10.9812 14.73 11.1179 14.5932 11.1179 14.4246C11.1179 14.2559 10.9812 14.1191 10.8125 14.1191C10.6438 14.1191 10.5071 14.2559 10.5071 14.4246C10.5071 14.5932 10.6438 14.73 10.8125 14.73Z" fill="white"/>
<path d="M14.1111 14.73C14.2797 14.73 14.4165 14.5932 14.4165 14.4246C14.4165 14.2559 14.2797 14.1191 14.1111 14.1191C13.9424 14.1191 13.8057 14.2559 13.8057 14.4246C13.8057 14.5932 13.9424 14.73 14.1111 14.73Z" fill="white"/>
<path d="M12.4619 16.4399C12.6306 16.4399 12.7673 16.3032 12.7673 16.1345C12.7673 15.9658 12.6306 15.8291 12.4619 15.8291C12.2932 15.8291 12.1565 15.9658 12.1565 16.1345C12.1565 16.3032 12.2932 16.4399 12.4619 16.4399Z" fill="white"/>
<path d="M11.3013 15.9516C11.4699 15.9516 11.6067 15.8149 11.6067 15.6462C11.6067 15.4776 11.4699 15.3408 11.3013 15.3408C11.1326 15.3408 10.9958 15.4776 10.9958 15.6462C10.9958 15.8149 11.1326 15.9516 11.3013 15.9516Z" fill="white"/>
<path d="M11.912 16.0734C11.9794 16.0734 12.0341 16.0187 12.0341 15.9513C12.0341 15.8838 11.9794 15.8291 11.912 15.8291C11.8445 15.8291 11.7898 15.8838 11.7898 15.9513C11.7898 16.0187 11.8445 16.0734 11.912 16.0734Z" fill="white"/>
<path d="M11.057 15.218C11.1244 15.218 11.1791 15.1633 11.1791 15.0958C11.1791 15.0283 11.1244 14.9736 11.057 14.9736C10.9895 14.9736 10.9348 15.0283 10.9348 15.0958C10.9348 15.1633 10.9895 15.218 11.057 15.218Z" fill="white"/>
<path d="M10.9347 13.9963C11.0021 13.9963 11.0568 13.9416 11.0568 13.8741C11.0568 13.8066 11.0021 13.752 10.9347 13.752C10.8672 13.752 10.8125 13.8066 10.8125 13.8741C10.8125 13.9416 10.8672 13.9963 10.9347 13.9963Z" fill="white"/>
<path d="M11.8509 13.0803C11.9184 13.0803 11.9731 13.0256 11.9731 12.9581C11.9731 12.8906 11.9184 12.8359 11.8509 12.8359C11.7835 12.8359 11.7288 12.8906 11.7288 12.9581C11.7288 13.0256 11.7835 13.0803 11.8509 13.0803Z" fill="white"/>
<path d="M13.1336 13.0803C13.2011 13.0803 13.2558 13.0256 13.2558 12.9581C13.2558 12.8906 13.2011 12.8359 13.1336 12.8359C13.0662 12.8359 13.0115 12.8906 13.0115 12.9581C13.0115 13.0256 13.0662 13.0803 13.1336 13.0803Z" fill="white"/>
<path d="M13.9889 13.9357C14.0563 13.9357 14.111 13.881 14.111 13.8136C14.111 13.7461 14.0563 13.6914 13.9889 13.6914C13.9214 13.6914 13.8667 13.7461 13.8667 13.8136C13.8667 13.881 13.9214 13.9357 13.9889 13.9357Z" fill="white"/>
<path d="M13.9278 15.1574C13.9953 15.1574 14.05 15.1027 14.05 15.0352C14.05 14.9678 13.9953 14.9131 13.9278 14.9131C13.8604 14.9131 13.8057 14.9678 13.8057 15.0352C13.8057 15.1027 13.8604 15.1574 13.9278 15.1574Z" fill="white"/>
<path d="M13.0724 16.0734C13.1398 16.0734 13.1945 16.0187 13.1945 15.9513C13.1945 15.8838 13.1398 15.8291 13.0724 15.8291C13.0049 15.8291 12.9502 15.8838 12.9502 15.9513C12.9502 16.0187 13.0049 16.0734 13.0724 16.0734Z" fill="white"/>
<path d="M12.4618 15.7678C12.5292 15.7678 12.5839 15.7131 12.5839 15.6456C12.5839 15.5781 12.5292 15.5234 12.4618 15.5234C12.3943 15.5234 12.3396 15.5781 12.3396 15.6456C12.3396 15.7131 12.3943 15.7678 12.4618 15.7678Z" fill="white"/>
<path d="M12.4618 15.5236C12.5292 15.5236 12.5839 15.4689 12.5839 15.4015C12.5839 15.334 12.5292 15.2793 12.4618 15.2793C12.3943 15.2793 12.3396 15.334 12.3396 15.4015C12.3396 15.4689 12.3943 15.5236 12.4618 15.5236Z" fill="white"/>
<path d="M12.4618 15.2795C12.5292 15.2795 12.5839 15.2248 12.5839 15.1573C12.5839 15.0899 12.5292 15.0352 12.4618 15.0352C12.3943 15.0352 12.3396 15.0899 12.3396 15.1573C12.3396 15.2248 12.3943 15.2795 12.4618 15.2795Z" fill="white"/>
<path d="M12.4618 13.8742C12.5292 13.8742 12.5839 13.8195 12.5839 13.752C12.5839 13.6846 12.5292 13.6299 12.4618 13.6299C12.3943 13.6299 12.3396 13.6846 12.3396 13.752C12.3396 13.8195 12.3943 13.8742 12.4618 13.8742Z" fill="white"/>
<path d="M12.4618 13.6301C12.5292 13.6301 12.5839 13.5754 12.5839 13.5079C12.5839 13.4404 12.5292 13.3857 12.4618 13.3857C12.3943 13.3857 12.3396 13.4404 12.3396 13.5079C12.3396 13.5754 12.3943 13.6301 12.4618 13.6301Z" fill="white"/>
<path d="M12.4618 13.3859C12.5292 13.3859 12.5839 13.3312 12.5839 13.2638C12.5839 13.1963 12.5292 13.1416 12.4618 13.1416C12.3943 13.1416 12.3396 13.1963 12.3396 13.2638C12.3396 13.3312 12.3943 13.3859 12.4618 13.3859Z" fill="white"/>
<path d="M13.042 14.4552C13.042 14.5226 13.0967 14.5773 13.1642 14.5773C13.2317 14.5773 13.2864 14.5226 13.2864 14.4552C13.2864 14.3877 13.2317 14.333 13.1642 14.333C13.0967 14.333 13.042 14.3877 13.042 14.4552Z" fill="white"/>
<path d="M13.2864 14.4552C13.2864 14.5226 13.3411 14.5773 13.4086 14.5773C13.4761 14.5773 13.5308 14.5226 13.5308 14.4552C13.5308 14.3877 13.4761 14.333 13.4086 14.333C13.3411 14.333 13.2864 14.3877 13.2864 14.4552Z" fill="white"/>
<path d="M13.5306 14.4552C13.5306 14.5226 13.5853 14.5773 13.6527 14.5773C13.7202 14.5773 13.7749 14.5226 13.7749 14.4552C13.7749 14.3877 13.7202 14.333 13.6527 14.333C13.5853 14.333 13.5306 14.3877 13.5306 14.4552Z" fill="white"/>
<path d="M11.1485 14.4552C11.1485 14.5226 11.2032 14.5773 11.2707 14.5773C11.3381 14.5773 11.3928 14.5226 11.3928 14.4552C11.3928 14.3877 11.3381 14.333 11.2707 14.333C11.2032 14.333 11.1485 14.3877 11.1485 14.4552Z" fill="white"/>
<path d="M11.3929 14.4552C11.3929 14.5226 11.4476 14.5773 11.515 14.5773C11.5825 14.5773 11.6372 14.5226 11.6372 14.4552C11.6372 14.3877 11.5825 14.333 11.515 14.333C11.4476 14.333 11.3929 14.3877 11.3929 14.4552Z" fill="white"/>
<path d="M11.6373 14.4552C11.6373 14.5226 11.692 14.5773 11.7594 14.5773C11.8269 14.5773 11.8816 14.5226 11.8816 14.4552C11.8816 14.3877 11.8269 14.333 11.7594 14.333C11.692 14.333 11.6373 14.3877 11.6373 14.4552Z" fill="white"/>
<path d="M11.5019 13.541C11.4585 13.5927 11.4653 13.6698 11.5169 13.7131C11.5686 13.7565 11.6457 13.7498 11.6891 13.6981C11.7324 13.6464 11.7257 13.5693 11.674 13.526C11.6223 13.4826 11.5453 13.4893 11.5019 13.541Z" fill="white"/>
<path d="M11.6891 13.6973C11.6458 13.749 11.6525 13.826 11.7042 13.8694C11.7559 13.9128 11.8329 13.906 11.8763 13.8543C11.9197 13.8026 11.9129 13.7256 11.8613 13.6822C11.8096 13.6388 11.7325 13.6456 11.6891 13.6973Z" fill="white"/>
<path d="M11.8762 13.8545C11.8328 13.9062 11.8395 13.9832 11.8912 14.0266C11.9429 14.07 12.02 14.0632 12.0633 14.0116C12.1067 13.9599 12.0999 13.8828 12.0483 13.8394C11.9966 13.7961 11.9195 13.8028 11.8762 13.8545Z" fill="white"/>
<path d="M12.8456 14.8848C12.8023 14.9365 12.809 15.0135 12.8607 15.0569C12.9124 15.1003 12.9894 15.0935 13.0328 15.0418C13.0762 14.9901 13.0694 14.9131 13.0177 14.8697C12.9661 14.8263 12.889 14.8331 12.8456 14.8848Z" fill="white"/>
<path d="M13.0329 15.041C12.9895 15.0927 12.9963 15.1698 13.0479 15.2131C13.0996 15.2565 13.1767 15.2498 13.2201 15.1981C13.2634 15.1464 13.2567 15.0693 13.205 15.026C13.1533 14.9826 13.0763 14.9893 13.0329 15.041Z" fill="white"/>
<path d="M13.2201 15.1983C13.1768 15.2499 13.1835 15.327 13.2352 15.3704C13.2869 15.4137 13.3639 15.407 13.4073 15.3553C13.4507 15.3036 13.4439 15.2266 13.3923 15.1832C13.3406 15.1398 13.2635 15.1466 13.2201 15.1983Z" fill="white"/>
<path d="M13.4328 13.5338C13.3851 13.4861 13.3078 13.4861 13.2601 13.5338C13.2123 13.5815 13.2123 13.6589 13.2601 13.7066C13.3078 13.7543 13.3851 13.7543 13.4328 13.7066C13.4805 13.6589 13.4805 13.5815 13.4328 13.5338Z" fill="white"/>
<path d="M13.2602 13.7057C13.2125 13.658 13.1352 13.658 13.0874 13.7057C13.0397 13.7534 13.0397 13.8308 13.0874 13.8785C13.1352 13.9262 13.2125 13.9262 13.2602 13.8785C13.3079 13.8308 13.3079 13.7534 13.2602 13.7057Z" fill="white"/>
<path d="M13.0874 13.8785C13.0397 13.8308 12.9623 13.8308 12.9146 13.8785C12.8669 13.9263 12.8669 14.0036 12.9146 14.0513C12.9623 14.099 13.0397 14.099 13.0874 14.0513C13.1351 14.0036 13.1351 13.9263 13.0874 13.8785Z" fill="white"/>
<path d="M12.0891 14.8776C12.0414 14.8299 11.964 14.8299 11.9163 14.8776C11.8686 14.9253 11.8686 15.0026 11.9163 15.0503C11.964 15.098 12.0414 15.098 12.0891 15.0503C12.1368 15.0026 12.1368 14.9253 12.0891 14.8776Z" fill="white"/>
<path d="M11.9165 15.0494C11.8688 15.0017 11.7914 15.0017 11.7437 15.0494C11.696 15.0972 11.696 15.1745 11.7437 15.2222C11.7914 15.2699 11.8688 15.2699 11.9165 15.2222C11.9642 15.1745 11.9642 15.0972 11.9165 15.0494Z" fill="white"/>
<path d="M11.7436 15.2223C11.6959 15.1746 11.6186 15.1746 11.5708 15.2223C11.5231 15.27 11.5231 15.3474 11.5708 15.3951C11.6186 15.4428 11.6959 15.4428 11.7436 15.3951C11.7913 15.3474 11.7913 15.27 11.7436 15.2223Z" fill="white"/>
<path d="M13.6225 15.9516C13.7912 15.9516 13.928 15.8149 13.928 15.6462C13.928 15.4776 13.7912 15.3408 13.6225 15.3408C13.4539 15.3408 13.3171 15.4776 13.3171 15.6462C13.3171 15.8149 13.4539 15.9516 13.6225 15.9516Z" fill="white"/>
</svg>
