<svg width="45" height="45" viewBox="0 0 45 45" fill="none" xmlns="http://www.w3.org/2000/svg">
<circle cx="22.5" cy="22.5" r="22.5" fill="#204FF9"/>
<path d="M17.9233 12C17.4983 12 17.1537 12.3446 17.1537 12.7696C17.1537 13.1947 17.4983 13.5393 17.9233 13.5393V12ZM19.5176 12.7696H20.2872V12H19.5176V12.7696ZM19.5176 18.4319L20.2076 18.7728L20.2872 18.6117V18.4319H19.5176ZM25.1249 18.4319H24.3553V18.6117L24.4349 18.7728L25.1249 18.4319ZM25.1249 12.7696V12H24.3553V12.7696H25.1249ZM26.6642 13.5393C27.0892 13.5393 27.4338 13.1947 27.4338 12.7696C27.4338 12.3446 27.0892 12 26.6642 12V13.5393ZM30.6877 29.692L31.3777 29.3512L30.6877 29.692ZM17.9233 13.5393H19.5176V12H17.9233V13.5393ZM18.7479 12.7696V18.4319H20.2872V12.7696H18.7479ZM18.8276 18.091L13.2648 29.3512L14.6448 30.033L20.2076 18.7728L18.8276 18.091ZM15.532 33H29.1105V31.4607H15.532V33ZM31.3777 29.3512L25.8149 18.091L24.4349 18.7728L29.9977 30.033L31.3777 29.3512ZM25.8945 18.4319V12.7696H24.3553V18.4319H25.8945ZM25.1249 13.5393H26.6642V12H25.1249V13.5393ZM29.1105 33C30.985 33 32.208 31.0318 31.3777 29.3512L29.9977 30.033C30.3226 30.6905 29.844 31.4607 29.1105 31.4607V33ZM13.2648 29.3512C12.4345 31.0318 13.6574 33 15.532 33V31.4607C14.7985 31.4607 14.3199 30.6905 14.6448 30.033L13.2648 29.3512Z" fill="white"/>
<path d="M20.0125 14.5293H22.2664" stroke="white" stroke-width="0.7"/>
<path d="M20.0125 16.2881H22.2664" stroke="white" stroke-width="0.7"/>
<path d="M22.4313 26.9527C22.9778 26.9527 23.4208 26.5097 23.4208 25.9632C23.4208 25.4167 22.9778 24.9736 22.4313 24.9736C21.8848 24.9736 21.4418 25.4167 21.4418 25.9632C21.4418 26.5097 21.8848 26.9527 22.4313 26.9527Z" fill="white"/>
<path d="M24.5203 24.534C24.8239 24.534 25.0701 24.2879 25.0701 23.9843C25.0701 23.6807 24.8239 23.4346 24.5203 23.4346C24.2167 23.4346 23.9706 23.6807 23.9706 23.9843C23.9706 24.2879 24.2167 24.534 24.5203 24.534Z" fill="white"/>
<path d="M22.4312 23.6542C22.7348 23.6542 22.9809 23.408 22.9809 23.1044C22.9809 22.8008 22.7348 22.5547 22.4312 22.5547C22.1276 22.5547 21.8815 22.8008 21.8815 23.1044C21.8815 23.408 22.1276 23.6542 22.4312 23.6542Z" fill="white"/>
<path d="M20.3421 24.534C20.6457 24.534 20.8918 24.2879 20.8918 23.9843C20.8918 23.6807 20.6457 23.4346 20.3421 23.4346C20.0385 23.4346 19.7924 23.6807 19.7924 23.9843C19.7924 24.2879 20.0385 24.534 20.3421 24.534Z" fill="white"/>
<path d="M19.4627 26.5135C19.7663 26.5135 20.0124 26.2674 20.0124 25.9638C20.0124 25.6602 19.7663 25.4141 19.4627 25.4141C19.1591 25.4141 18.913 25.6602 18.913 25.9638C18.913 26.2674 19.1591 26.5135 19.4627 26.5135Z" fill="white"/>
<path d="M25.3998 26.5135C25.7034 26.5135 25.9496 26.2674 25.9496 25.9638C25.9496 25.6602 25.7034 25.4141 25.3998 25.4141C25.0962 25.4141 24.8501 25.6602 24.8501 25.9638C24.8501 26.2674 25.0962 26.5135 25.3998 26.5135Z" fill="white"/>
<path d="M22.4312 29.5917C22.7348 29.5917 22.9809 29.3455 22.9809 29.0419C22.9809 28.7383 22.7348 28.4922 22.4312 28.4922C22.1276 28.4922 21.8815 28.7383 21.8815 29.0419C21.8815 29.3455 22.1276 29.5917 22.4312 29.5917Z" fill="white"/>
<path d="M20.3421 28.7118C20.6457 28.7118 20.8918 28.4657 20.8918 28.162C20.8918 27.8584 20.6457 27.6123 20.3421 27.6123C20.0385 27.6123 19.7924 27.8584 19.7924 28.162C19.7924 28.4657 20.0385 28.7118 20.3421 28.7118Z" fill="white"/>
<path d="M21.4417 28.932C21.5631 28.932 21.6616 28.8335 21.6616 28.7121C21.6616 28.5906 21.5631 28.4922 21.4417 28.4922C21.3203 28.4922 21.2218 28.5906 21.2218 28.7121C21.2218 28.8335 21.3203 28.932 21.4417 28.932Z" fill="white"/>
<path d="M19.9024 27.3929C20.0238 27.3929 20.1223 27.2945 20.1223 27.173C20.1223 27.0516 20.0238 26.9531 19.9024 26.9531C19.7809 26.9531 19.6825 27.0516 19.6825 27.173C19.6825 27.2945 19.7809 27.3929 19.9024 27.3929Z" fill="white"/>
<path d="M19.6824 25.1937C19.8039 25.1937 19.9023 25.0952 19.9023 24.9738C19.9023 24.8524 19.8039 24.7539 19.6824 24.7539C19.561 24.7539 19.4625 24.8524 19.4625 24.9738C19.4625 25.0952 19.561 25.1937 19.6824 25.1937Z" fill="white"/>
<path d="M21.3318 23.5443C21.4533 23.5443 21.5517 23.4458 21.5517 23.3244C21.5517 23.2029 21.4533 23.1045 21.3318 23.1045C21.2104 23.1045 21.1119 23.2029 21.1119 23.3244C21.1119 23.4458 21.2104 23.5443 21.3318 23.5443Z" fill="white"/>
<path d="M23.6407 23.5443C23.7621 23.5443 23.8606 23.4458 23.8606 23.3244C23.8606 23.2029 23.7621 23.1045 23.6407 23.1045C23.5192 23.1045 23.4208 23.2029 23.4208 23.3244C23.4208 23.4458 23.5192 23.5443 23.6407 23.5443Z" fill="white"/>
<path d="M25.1799 25.0833C25.3013 25.0833 25.3998 24.9849 25.3998 24.8634C25.3998 24.742 25.3013 24.6436 25.1799 24.6436C25.0584 24.6436 24.96 24.742 24.96 24.8634C24.96 24.9849 25.0584 25.0833 25.1799 25.0833Z" fill="white"/>
<path d="M25.07 27.2826C25.1914 27.2826 25.2899 27.1841 25.2899 27.0627C25.2899 26.9412 25.1914 26.8428 25.07 26.8428C24.9485 26.8428 24.8501 26.9412 24.8501 27.0627C24.8501 27.1841 24.9485 27.2826 25.07 27.2826Z" fill="white"/>
<path d="M23.5306 28.932C23.652 28.932 23.7505 28.8335 23.7505 28.7121C23.7505 28.5906 23.652 28.4922 23.5306 28.4922C23.4091 28.4922 23.3107 28.5906 23.3107 28.7121C23.3107 28.8335 23.4091 28.932 23.5306 28.932Z" fill="white"/>
<path d="M22.4313 28.3822C22.5528 28.3822 22.6512 28.2837 22.6512 28.1623C22.6512 28.0408 22.5528 27.9424 22.4313 27.9424C22.3099 27.9424 22.2114 28.0408 22.2114 28.1623C22.2114 28.2837 22.3099 28.3822 22.4313 28.3822Z" fill="white"/>
<path d="M22.4313 27.9427C22.5528 27.9427 22.6512 27.8443 22.6512 27.7228C22.6512 27.6014 22.5528 27.5029 22.4313 27.5029C22.3099 27.5029 22.2114 27.6014 22.2114 27.7228C22.2114 27.8443 22.3099 27.9427 22.4313 27.9427Z" fill="white"/>
<path d="M22.4313 27.5023C22.5528 27.5023 22.6512 27.4038 22.6512 27.2824C22.6512 27.161 22.5528 27.0625 22.4313 27.0625C22.3099 27.0625 22.2114 27.161 22.2114 27.2824C22.2114 27.4038 22.3099 27.5023 22.4313 27.5023Z" fill="white"/>
<path d="M22.4313 24.974C22.5528 24.974 22.6512 24.8755 22.6512 24.7541C22.6512 24.6326 22.5528 24.5342 22.4313 24.5342C22.3099 24.5342 22.2114 24.6326 22.2114 24.7541C22.2114 24.8755 22.3099 24.974 22.4313 24.974Z" fill="white"/>
<path d="M22.4313 24.5335C22.5528 24.5335 22.6512 24.4351 22.6512 24.3136C22.6512 24.1922 22.5528 24.0938 22.4313 24.0938C22.3099 24.0938 22.2114 24.1922 22.2114 24.3136C22.2114 24.4351 22.3099 24.5335 22.4313 24.5335Z" fill="white"/>
<path d="M22.4313 24.0941C22.5528 24.0941 22.6512 23.9956 22.6512 23.8742C22.6512 23.7527 22.5528 23.6543 22.4313 23.6543C22.3099 23.6543 22.2114 23.7527 22.2114 23.8742C22.2114 23.9956 22.3099 24.0941 22.4313 24.0941Z" fill="white"/>
<path d="M23.4757 26.0177C23.4757 26.1392 23.5742 26.2376 23.6956 26.2376C23.8171 26.2376 23.9155 26.1392 23.9155 26.0177C23.9155 25.8963 23.8171 25.7979 23.6956 25.7979C23.5742 25.7979 23.4757 25.8963 23.4757 26.0177Z" fill="white"/>
<path d="M23.9156 26.0177C23.9156 26.1392 24.014 26.2376 24.1355 26.2376C24.2569 26.2376 24.3553 26.1392 24.3553 26.0177C24.3553 25.8963 24.2569 25.7979 24.1355 25.7979C24.014 25.7979 23.9156 25.8963 23.9156 26.0177Z" fill="white"/>
<path d="M24.3553 26.0177C24.3553 26.1392 24.4537 26.2376 24.5751 26.2376C24.6966 26.2376 24.795 26.1392 24.795 26.0177C24.795 25.8963 24.6966 25.7979 24.5751 25.7979C24.4537 25.7979 24.3553 25.8963 24.3553 26.0177Z" fill="white"/>
<path d="M20.0672 26.0177C20.0672 26.1392 20.1656 26.2376 20.2871 26.2376C20.4085 26.2376 20.507 26.1392 20.507 26.0177C20.507 25.8963 20.4085 25.7979 20.2871 25.7979C20.1656 25.7979 20.0672 25.8963 20.0672 26.0177Z" fill="white"/>
<path d="M20.5071 26.0177C20.5071 26.1392 20.6056 26.2376 20.727 26.2376C20.8484 26.2376 20.9469 26.1392 20.9469 26.0177C20.9469 25.8963 20.8484 25.7979 20.727 25.7979C20.6056 25.7979 20.5071 25.8963 20.5071 26.0177Z" fill="white"/>
<path d="M20.9469 26.0177C20.9469 26.1392 21.0454 26.2376 21.1668 26.2376C21.2883 26.2376 21.3867 26.1392 21.3867 26.0177C21.3867 25.8963 21.2883 25.7979 21.1668 25.7979C21.0454 25.7979 20.9469 25.8963 20.9469 26.0177Z" fill="white"/>
<path d="M20.7034 24.3731C20.6253 24.4661 20.6375 24.6048 20.7305 24.6829C20.8235 24.7609 20.9622 24.7488 21.0403 24.6558C21.1184 24.5627 21.1062 24.424 21.0132 24.346C20.9202 24.2679 20.7815 24.28 20.7034 24.3731Z" fill="white"/>
<path d="M21.0402 24.6553C20.9621 24.7483 20.9743 24.887 21.0673 24.9651C21.1603 25.0431 21.299 25.031 21.3771 24.938C21.4551 24.8449 21.443 24.7062 21.35 24.6282C21.257 24.5501 21.1183 24.5623 21.0402 24.6553Z" fill="white"/>
<path d="M21.3772 24.9385C21.2992 25.0315 21.3113 25.1702 21.4043 25.2483C21.4974 25.3264 21.6361 25.3142 21.7141 25.2212C21.7922 25.1282 21.7801 24.9895 21.687 24.9114C21.594 24.8333 21.4553 24.8455 21.3772 24.9385Z" fill="white"/>
<path d="M23.1222 26.792C23.0442 26.885 23.0563 27.0237 23.1493 27.1018C23.2424 27.1799 23.3811 27.1677 23.4591 27.0747C23.5372 26.9817 23.525 26.843 23.432 26.7649C23.339 26.6868 23.2003 26.699 23.1222 26.792Z" fill="white"/>
<path d="M23.4591 27.0742C23.3811 27.1673 23.3932 27.306 23.4862 27.384C23.5793 27.4621 23.718 27.45 23.796 27.3569C23.8741 27.2639 23.862 27.1252 23.7689 27.0471C23.6759 26.9691 23.5372 26.9812 23.4591 27.0742Z" fill="white"/>
<path d="M23.7962 27.3565C23.7181 27.4495 23.7302 27.5882 23.8233 27.6663C23.9163 27.7443 24.055 27.7322 24.1331 27.6392C24.2111 27.5461 24.199 27.4074 24.106 27.3294C24.0129 27.2513 23.8742 27.2634 23.7962 27.3565Z" fill="white"/>
<path d="M24.1792 24.3597C24.0933 24.2738 23.9541 24.2738 23.8682 24.3597C23.7823 24.4456 23.7823 24.5848 23.8682 24.6707C23.9541 24.7566 24.0933 24.7566 24.1792 24.6707C24.265 24.5848 24.265 24.4456 24.1792 24.3597Z" fill="white"/>
<path d="M23.8684 24.6703C23.7825 24.5844 23.6433 24.5844 23.5574 24.6703C23.4715 24.7561 23.4715 24.8954 23.5574 24.9812C23.6433 25.0671 23.7825 25.0671 23.8684 24.9812C23.9543 24.8954 23.9543 24.7561 23.8684 24.6703Z" fill="white"/>
<path d="M23.5571 24.9818C23.4712 24.8959 23.332 24.8959 23.2461 24.9818C23.1602 25.0676 23.1602 25.2069 23.2461 25.2928C23.332 25.3786 23.4712 25.3786 23.5571 25.2928C23.643 25.2069 23.643 25.0676 23.5571 24.9818Z" fill="white"/>
<path d="M21.7605 26.7786C21.6746 26.6928 21.5354 26.6928 21.4495 26.7786C21.3636 26.8645 21.3636 27.0038 21.4495 27.0896C21.5354 27.1755 21.6746 27.1755 21.7605 27.0896C21.8463 27.0038 21.8463 26.8645 21.7605 26.7786Z" fill="white"/>
<path d="M21.4494 27.0892C21.3636 27.0033 21.2243 27.0033 21.1385 27.0892C21.0526 27.1751 21.0526 27.3143 21.1385 27.4002C21.2243 27.486 21.3636 27.486 21.4494 27.4002C21.5353 27.3143 21.5353 27.1751 21.4494 27.0892Z" fill="white"/>
<path d="M21.1384 27.4007C21.0525 27.3148 20.9133 27.3148 20.8274 27.4007C20.7415 27.4866 20.7415 27.6258 20.8274 27.7117C20.9133 27.7976 21.0525 27.7976 21.1384 27.7117C21.2243 27.6258 21.2243 27.4866 21.1384 27.4007Z" fill="white"/>
<path d="M24.5203 28.7118C24.8239 28.7118 25.0701 28.4657 25.0701 28.162C25.0701 27.8584 24.8239 27.6123 24.5203 27.6123C24.2167 27.6123 23.9706 27.8584 23.9706 28.162C23.9706 28.4657 24.2167 28.7118 24.5203 28.7118Z" fill="white"/>
</svg>
