<svg width="40" height="40" viewBox="0 0 40 40" fill="none" xmlns="http://www.w3.org/2000/svg">
    <path d="M39.25 20c0 10.631-8.619 19.25-19.25 19.25S.75 30.631.75 20 9.369.75 20 .75 39.25 9.369 39.25 20z" fill="#000" stroke="#EE422C" stroke-width="1.5"/>
    <path fill-rule="evenodd" clip-rule="evenodd" d="M22.782 17.318 11.925 27.37a1 1 0 0 0-.027 1.441l.78.78a1 1 0 0 0 1.414 0l10.495-10.495a.5.5 0 0 1 .707 0l.357.357a1 1 0 0 0 .42.251l3.313.994a.5.5 0 0 0 .623-.622l-.994-3.314a1 1 0 0 0-.25-.42l-4.449-4.447a1 1 0 0 0-1.414 0l-1.697 1.696a1 1 0 0 0 0 1.415l1.592 1.592a.5.5 0 0 1-.014.72zm5.687-.303-4.811-4.529-1.349.866 1.357-1.31 4.81 4.529.406 2.23-.413-1.786zm-6.64 1.728-5.777 5.333v.445l5.777-5.334v-.444z" fill="#fff"/>
    <path d="M10.072 10.817 9.04 11.85a.2.2 0 0 0 .008.29l3.84 3.414v.003l-.665.665a.314.314 0 0 0 .445.445l.221-.222h.002l6.666 7.11 3.477 3.912a.5.5 0 0 0 .188.132l3.934 1.574a.2.2 0 0 0 .264-.249l-1.154-3.464a.5.5 0 0 0-.143-.216l-3.9-3.466-7.555-7.11v-.002l.222-.222a.314.314 0 0 0-.444-.444l-.665.665h-.004l-3.413-3.84a.2.2 0 0 0-.29-.008z" fill="#fff" stroke="#000" stroke-width=".5"/>
    <path d="m12.889 16.444 1.778-1.777" stroke="#000" stroke-width=".2"/>
    <path d="m13.778 15.556.125-.126 8.172 8.17.68.844-.806-.717-8.171-8.171z" fill="#000"/>
</svg>
