<svg width="40" height="40" viewBox="0 0 40 40" fill="none" xmlns="http://www.w3.org/2000/svg">
    <path d="M20 40c11.046 0 20-8.954 20-20S31.046 0 20 0 0 8.954 0 20s8.954 20 20 20z" fill="url(#u2wbrqsyba)"/>
    <path d="m28.571 10-.106.29-.358.935-.236.605c-1.802 4.538-3.195 6.69-4.687 6.69-.856 0-1.36-.25-2.021-.846l-.188-.177c-.472-.443-.668-.556-1.124-.556-.237 0-.66.306-1.198 1.032-.554.75-1.166 1.854-1.826 3.313l-.057.137h6.382L22.36 23.1h-5.966V30h-1.752V10H28.57zm-2.477 1.677h-9.69v6.666c1.165-2.055 2.265-3.087 3.455-3.087.92 0 1.467.266 2.151.879l.196.177c.44.411.611.508.986.508.408.016 1.516-1.766 2.902-5.143z" fill="#fff"/>
    <defs>
        <linearGradient id="u2wbrqsyba" x1="20" y1="40.001" x2="20" y2="-.001" gradientUnits="userSpaceOnUse">
            <stop stop-color="#291C19"/>
            <stop offset=".516" stop-color="#402A27"/>
            <stop offset="1" stop-color="#4C3835"/>
        </linearGradient>
    </defs>
</svg>
