<svg width="45" height="45" fill="none" xmlns="http://www.w3.org/2000/svg">
    <path d="M22.5 45C34.926 45 45 34.926 45 22.5S34.926 0 22.5 0 0 10.074 0 22.5 10.074 45 22.5 45z" fill="url(#a)"/>
    <path d="m32.143 11.25-.12.326-.403 1.053-.266.68c-2.026 5.105-3.594 7.527-5.272 7.527-.963 0-1.531-.281-2.274-.952l-.21-.2c-.532-.499-.752-.626-1.266-.626-.266 0-.743.345-1.348 1.161-.623.844-1.31 2.086-2.054 3.727l-.064.155h7.18l-.89 1.886h-6.711v7.763h-1.972v-22.5h15.67zm-2.788 1.886H18.454v7.5c1.31-2.312 2.549-3.473 3.887-3.473 1.036 0 1.65.3 2.42.988l.22.2c.496.463.688.571 1.11.571.459.018 1.706-1.986 3.264-5.786z" fill="#fff"/>
    <defs>
        <linearGradient id="a" x1="22.5" y1="45.001" x2="22.5" y2="-.001" gradientUnits="userSpaceOnUse">
            <stop stop-color="#291C19"/>
            <stop offset=".516" stop-color="#402A27"/>
            <stop offset="1" stop-color="#4C3835"/>
        </linearGradient>
    </defs>
</svg>
