<svg width="25" height="25" viewBox="0 0 25 25" fill="none" xmlns="http://www.w3.org/2000/svg">
<path d="M12.5 25C19.4036 25 25 19.4036 25 12.5C25 5.59644 19.4036 0 12.5 0C5.59644 0 0 5.59644 0 12.5C0 19.4036 5.59644 25 12.5 25Z" fill="url(#paint0_linear_219:305)"/>
<path d="M17.8572 6.25L17.791 6.43138L17.5669 7.01582L17.4191 7.39369C16.2934 10.2302 15.4224 11.5755 14.4902 11.5755C13.9553 11.5755 13.6395 11.4193 13.2269 11.0465L13.1098 10.9356C12.8143 10.6585 12.6921 10.588 12.4068 10.588C12.2591 10.588 11.9942 10.7794 11.658 11.2329C11.3116 11.7014 10.9296 12.3917 10.517 13.3036L10.4813 13.3893H14.4698L13.9757 14.4372H10.247V18.75H9.15186V6.25H17.8572ZM16.3087 7.29796H10.2521V11.4646C10.9805 10.1799 11.6682 9.53497 12.4119 9.53497C12.9875 9.53497 13.3288 9.70123 13.7567 10.0841L13.8789 10.195C14.154 10.4519 14.261 10.5124 14.4953 10.5124C14.75 10.5225 15.4427 9.40901 16.3087 7.29796Z" fill="white"/>
<defs>
<linearGradient id="paint0_linear_219:305" x1="12.5" y1="25.0004" x2="12.5" y2="-0.000436619" gradientUnits="userSpaceOnUse">
<stop stop-color="#291C19"/>
<stop offset="0.5156" stop-color="#402A27"/>
<stop offset="1" stop-color="#4C3835"/>
</linearGradient>
</defs>
</svg>
