<svg width="45" height="45" viewBox="0 0 45 45" fill="none" xmlns="http://www.w3.org/2000/svg">
<path d="M22.5 45C34.9264 45 45 34.9264 45 22.5C45 10.0736 34.9264 0 22.5 0C10.0736 0 0 10.0736 0 22.5C0 34.9264 10.0736 45 22.5 45Z" fill="url(#paint0_linear_211:864)"/>
<path d="M32.1428 11.25L32.0236 11.5765L31.6202 12.6285L31.3543 13.3086C29.3279 18.4144 27.7601 20.8359 26.0821 20.8359C25.1194 20.8359 24.5509 20.5547 23.8083 19.8836L23.5974 19.6841C23.0656 19.1853 22.8455 19.0583 22.3321 19.0583C22.0662 19.0583 21.5894 19.403 20.9842 20.2192C20.3608 21.0626 19.6731 22.305 18.9304 23.9465L18.8662 24.1007H26.0455L25.1561 25.987H18.4445V33.75H16.4731V11.25H32.1428ZM29.3554 13.1363H18.4536V20.6363C19.7648 18.3238 21.0026 17.1629 22.3412 17.1629C23.3773 17.1629 23.9916 17.4622 24.7618 18.1515L24.9819 18.351C25.477 18.8135 25.6695 18.9223 26.0913 18.9223C26.5498 18.9404 27.7967 16.9362 29.3554 13.1363Z" fill="white"/>
<defs>
<linearGradient id="paint0_linear_211:864" x1="22.5" y1="45.0008" x2="22.5" y2="-0.000785915" gradientUnits="userSpaceOnUse">
<stop stop-color="#291C19"/>
<stop offset="0.5156" stop-color="#402A27"/>
<stop offset="1" stop-color="#4C3835"/>
</linearGradient>
</defs>
</svg>
