<svg width="40" height="40" viewBox="0 0 40 40" fill="none" xmlns="http://www.w3.org/2000/svg">
    <path d="M20 40c11.046 0 20-8.954 20-20S31.046 0 20 0 0 8.954 0 20s8.954 20 20 20z" fill="#62D1E5"/>
    <path d="M15.313 10.668c5.131-.002 10.263-.002 15.396 0v4.975c-5.132.002-10.264.002-15.396 0-.002-1.659-.002-3.317 0-4.975zM9.25 17.515c1.656-.009 3.312-.009 4.969 0 .008 1.656.008 3.311 0 4.968-1.657.008-3.313.008-4.968 0a479.452 479.452 0 0 1 0-4.968zM15.316 17.515c3.704-.008 7.408-.008 11.111 0 .008 1.656.008 3.311 0 4.968-3.703.007-7.407.007-11.11 0a527.312 527.312 0 0 1 0-4.968zM15.321 24.364a227.57 227.57 0 0 1 4.958 0 242.38 242.38 0 0 1 0 4.957 246.76 246.76 0 0 1-4.957 0 243.01 243.01 0 0 1 0-4.957z" fill="#fff"/>
</svg>
