<svg width="25" height="25" viewBox="0 0 25 25" fill="none" xmlns="http://www.w3.org/2000/svg">
    <circle cx="12.5" cy="12.5" r="12.5" fill="#000"/>
    <path d="M9.566 7.778h8.767v2.833H9.566V7.778z" fill="#02A6C2"/>
    <path d="M6.115 11.677c.942-.005 1.885-.005 2.828 0a272.7 272.7 0 0 1 0 2.828c-.943.005-1.886.005-2.828 0-.005-.943-.005-1.886 0-2.829zM9.568 11.677c2.11-.004 4.218-.004 6.327 0 .005.943.005 1.886 0 2.829-2.109.004-4.218.004-6.327 0-.004-.943-.004-1.886 0-2.829z" fill="#5FCADE"/>
    <path d="M9.571 15.576c.941-.01 1.882-.01 2.823 0 .01.94.01 1.881 0 2.823-.94.01-1.882.009-2.822 0-.01-.941-.01-1.882 0-2.823z" fill="#ABEBF4"/>
</svg>
