<svg width="45" height="45" viewBox="0 0 45 45" fill="none" xmlns="http://www.w3.org/2000/svg">
    <circle cx="22.5" cy="22.5" r="22.5" fill="#000"/>
    <path d="M17.22 14.001h15.779v5.1h-15.78V14z" fill="#02A6C2"/>
    <path d="M11.007 21.02c1.696-.01 3.394-.01 5.091 0 .009 1.696.009 3.393 0 5.09-1.697.01-3.394.01-5.091.001a491.034 491.034 0 0 1 0-5.092zM17.224 21.019c3.796-.008 7.592-.008 11.387 0 .008 1.697.008 3.394 0 5.091-3.796.008-7.592.008-11.387 0a540.052 540.052 0 0 1 0-5.091z" fill="#5FCADE"/>
    <path d="M17.228 28.038c1.694-.018 3.388-.018 5.081 0 .018 1.693.018 3.387 0 5.081a253.1 253.1 0 0 1-5.08 0 248.64 248.64 0 0 1 0-5.08z" fill="#ABEBF4"/>
</svg>
