<?xml version="1.0" standalone="no"?>
<!DOCTYPE svg PUBLIC "-//W3C//DTD SVG 20010904//EN"
 "http://www.w3.org/TR/2001/REC-SVG-20010904/DTD/svg10.dtd">
<svg version="1.0" xmlns="http://www.w3.org/2000/svg"
 width="1000.000000pt" height="1000.000000pt" viewBox="0 0 1000.000000 1000.000000"
 preserveAspectRatio="xMidYMid meet">

<g transform="translate(0.000000,1000.000000) scale(0.100000,-0.100000)"
fill="#FF2200" stroke="none">
<path d="M4800 9994 c-393 -21 -735 -72 -1068 -160 -701 -184 -1338 -511
-1915 -981 -170 -138 -532 -500 -670 -670 -593 -727 -963 -1562 -1091 -2464
-39 -275 -49 -424 -49 -719 0 -295 10 -444 49 -719 128 -902 498 -1737 1091
-2464 138 -170 500 -532 670 -670 727 -593 1562 -963 2464 -1091 275 -39 424
-49 719 -49 295 0 444 10 719 49 903 128 1738 498 2464 1091 170 139 531 500
670 670 593 726 963 1561 1091 2464 39 275 49 424 49 719 0 295 -10 444 -49
719 -128 902 -498 1737 -1091 2464 -138 170 -500 532 -670 670 -793 647 -1708
1025 -2713 1121 -155 15 -548 27 -670 20z m248 -1535 c39 -19 79 -50 109 -84
64 -72 782 -1332 824 -1445 41 -113 59 -231 59 -385 0 -159 -19 -277 -63 -394
-23 -59 -293 -536 -861 -1521 -456 -789 -853 -1472 -882 -1516 -118 -179 -349
-347 -582 -423 -157 -51 -179 -53 -992 -49 l-755 3 -60 24 c-86 34 -158 108
-180 185 -19 63 -16 116 10 202 21 70 2972 5247 3025 5307 114 129 223 159
348 96z m1919 -3378 c50 -23 124 -90 163 -146 42 -62 1009 -1762 1043 -1835
43 -89 49 -202 17 -278 -28 -65 -92 -123 -169 -154 l-56 -23 -1110 0 -1110 0
-59 24 c-63 25 -138 87 -162 132 -42 82 -38 189 10 295 36 79 1035 1807 1076
1862 41 54 118 115 164 130 53 17 147 13 193 -7z"/>
</g>
</svg>
