<svg width="40" height="40" viewBox="0 0 40 40" fill="none" xmlns="http://www.w3.org/2000/svg">
    <circle cx="20" cy="20" r="20" fill="#012E31"/>
    <path fill-rule="evenodd" clip-rule="evenodd" d="M20.126 5.784 20 5.711l-.126.073-12 7-.124.072v14.288l.124.072 12 7 .126.073.126-.073 12-7 .124-.072V19.15h-6.8v1.658l.248.002 5.052.038v5.307l-6 3.415v-2.11a2.25 2.25 0 0 0-1.134-1.953l-2.098-1.199 1.935-1.024a2.25 2.25 0 0 0 1.197-1.988v-2.623a2.25 2.25 0 0 0-1.152-1.964l-1.98-1.106 2.055-1.116a2.25 2.25 0 0 0 1.177-1.977v-2.08l6 3.415v2.105h1.5V12.856l-.124-.072-12-7zM16.94 22.362l3.938 2.156 2.49 1.423c.546.312.882.892.882 1.52V30.43l.374-.213 6.5-3.7.126-.072v-6.093l-.248-.002-5.052-.038v-.662h5.8v7.206L20 33.711 8.25 26.856V13.144L20 6.289l11.75 6.855v2.306h-.5v-1.895l-.126-.072-6.5-3.7-.374-.213v2.94a1.75 1.75 0 0 1-.915 1.538L20.88 15.38l-.4.217.397.221 2.376 1.328c.553.31.896.893.896 1.527v2.623a1.75 1.75 0 0 1-.931 1.547l-2.13 1.127-.094-.15a.25.25 0 0 1 .094-.352l2.065-1.106a.75.75 0 0 0 .396-.661V21a.75.75 0 0 0-.75-.75h-5.5a.75.75 0 0 0-.75.75v.704c0 .274.15.526.39.658zm.24-.439 3.278 1.795a.75.75 0 0 1 .395-.69l2.065-1.107a.25.25 0 0 0 .132-.22V21a.25.25 0 0 0-.25-.25h-5.5a.25.25 0 0 0-.25.25v.704c0 .091.05.175.13.219zm-.1-12.646L20 7.685l2.92 1.592a.25.25 0 0 1 .13.22v3.314a.25.25 0 0 1-.125.217L20 14.71l-2.925-1.683a.25.25 0 0 1-.125-.217V9.497a.25.25 0 0 1 .13-.22zm3.088-2.07a.35.35 0 0 0-.336 0l-2.991 1.631a.75.75 0 0 0-.391.659v3.314a.75.75 0 0 0 .376.65l3 1.727a.35.35 0 0 0 .349 0l3-1.727a.75.75 0 0 0 .375-.65V9.497a.75.75 0 0 0-.39-.659l-2.992-1.631zm-3.088 19.77L20 25.385l2.92 1.592a.25.25 0 0 1 .13.22v3.314a.25.25 0 0 1-.125.217L20 32.41l-2.925-1.683a.25.25 0 0 1-.125-.217v-3.314a.25.25 0 0 1 .13-.22zm3.088-2.07a.35.35 0 0 0-.336 0l-2.991 1.631a.75.75 0 0 0-.391.659v3.314a.75.75 0 0 0 .376.65l3 1.727a.35.35 0 0 0 .349 0l3-1.727a.75.75 0 0 0 .375-.65v-3.314a.75.75 0 0 0-.39-.659l-2.992-1.631zM15.85 9.573v3.091c0 .663.374 1.269.967 1.565l2.295 1.147.01.006 2.5 1.4 1.49.828a.85.85 0 0 1 .438.743V19a.75.75 0 0 1-.75.75h-5.5a.75.75 0 0 1-.75-.75v-.647a.85.85 0 0 1 .437-.743l2.103-1.168-.395-.398-1.914 1.014a1.75 1.75 0 0 0-.931 1.546v2.723c0 .633.343 1.218.896 1.527l2.376 1.328.401.224-.406.215-2.336 1.237a1.75 1.75 0 0 0-.931 1.546v3.024l-.373-.21-6.6-3.724-.127-.072V13.554l.128-.072 6.6-3.7.372-.209zm3.683 6.612a.45.45 0 0 1-.143.662l-2.16 1.2a.35.35 0 0 0-.18.306V19c0 .138.112.25.25.25h5.5a.25.25 0 0 0 .25-.25v-.647a.35.35 0 0 0-.18-.306l-1.491-.829h-.001l-1.845-1.033zm-1.08-.579-1.86-.93a2.25 2.25 0 0 1-1.243-2.012v-2.237l-6.1 3.42V26.13l6.1 3.44v-2.167c0-.833.46-1.598 1.197-1.988l1.93-1.022-1.975-1.103a2.25 2.25 0 0 1-1.152-1.965v-2.722c0-.833.46-1.598 1.197-1.988l1.907-1.01z" fill="url(#vgkhasb7ka)"/>
    <defs>
        <linearGradient id="vgkhasb7ka" x1="20" y1="5.711" x2="20" y2="34.289" gradientUnits="userSpaceOnUse">
            <stop stop-color="#1DEFD7"/>
            <stop offset="1" stop-color="#80E369"/>
        </linearGradient>
    </defs>
</svg>
