<svg width="40" height="40" viewBox="0 0 40 40" fill="none" xmlns="http://www.w3.org/2000/svg">
    <circle cx="20" cy="20" r="19.5" fill="#fff" stroke="#ECECEC"/>
    <path fill-rule="evenodd" clip-rule="evenodd" d="M22.998 9.82c.795.127 1.357.295 1.686.503.329.208.678.618 1.048 1.228-.2.172-.373.271-.521.298-.148.027-.393.004-.736-.069l-.409-.191a.78.78 0 0 0-1.043.396.711.711 0 0 0 .412.968l.546.175c.153.126.222.302.204.53-.017.228-.12.449-.306.664l.295.838c-.356.082-.784.106-1.283.072-.75-.05-1.116-.287-1.122-.322-.003-.019-.247-.159-.73-.42a6 6 0 0 0-1.56-.205c-3.425 0-6.202 2.879-6.202 6.43 0 3.55 2.777 6.428 6.202 6.428 2.298 0 4.304-1.296 5.375-3.222h-2.571c-.458 0-.861-.312-.99-.766l-.679-2.389a.215.215 0 0 1 .14-.265.199.199 0 0 1 .058-.008h8.207c.242 0 .456.163.527.402.112.381.169.791.169 1.23 0 .494-.094.988-.282 1.482-1.217 4.512-5.213 7.822-9.954 7.822-5.708 0-10.336-4.797-10.336-10.715 0-4.808 3.055-8.877 7.263-10.233a.195.195 0 0 1 .06-.048c.551-.271 1.387-.403 2.243-.546l.112-.018c.13-.022.26-.044.39-.068.682-.121 1.944-.115 3.787.019zm3.025 2.11c.289.233.475.43.558.59.08.154.16.416.236.787l.008.038 2.022 1.89a.43.43 0 0 1 .129.237l.003.02.032.234a.136.136 0 0 1-.077.143l-.01.004-.104.036-.06-.009c-2.002-.275-3.22-.51-3.655-.703-.413-.184-.479-.615-.196-1.292a.367.367 0 0 0 .01-.256l-.006-.017-.195-.503a.36.36 0 0 0-.062-.105l-.014-.015-.412-.427c-.123-.026-.26.014-.383-.011a1.94 1.94 0 0 1-.22-.077.252.252 0 0 1-.116-.33.337.337 0 0 1 .373-.196c.117.024.2.044.252.062.083.029.195.09.336.183.42.086.73.11.927.075.197-.036.405-.156.624-.358z" fill="url(#0lykxbs82a)"/>
    <defs>
        <linearGradient id="0lykxbs82a" x1="12" y1="14" x2="26.59" y2="27.962" gradientUnits="userSpaceOnUse">
            <stop stop-color="#5855FF"/>
            <stop offset="1" stop-color="#DC1FFF"/>
        </linearGradient>
    </defs>
</svg>
