<svg width="45" height="46" viewBox="0 0 45 46" fill="none" xmlns="http://www.w3.org/2000/svg">
<rect y="0.850342" width="45" height="45" rx="22.5" fill="#F7F0FD"/>
<g clip-path="url(#clip0_16832_137)">
<path fill-rule="evenodd" clip-rule="evenodd" d="M26.4164 11.5709C26.1077 11.4928 25.81 11.4217 25.5862 11.3767C24.4614 11.1506 23.0837 11.2209 22.1711 11.3117C21.5063 11.3779 20.851 11.507 20.2039 11.6726C19.6974 11.8023 19.0879 11.9716 18.6185 12.1431C13.4642 14.0268 10.375 18.1989 10.375 23.5502C10.375 30.1363 15.6122 35.4753 22.0727 35.4753C27.4389 35.4753 32.0436 32.1807 33.378 26.7583C33.3989 26.6737 33.4191 26.5823 33.4386 26.4874C33.6239 25.5855 33.7315 24.6336 33.4661 23.7519C33.386 23.4855 33.1443 23.3037 32.8705 23.3037H22.835C22.8127 23.3037 22.7905 23.3069 22.7691 23.3133C22.6453 23.3503 22.5745 23.4825 22.6109 23.6084L23.0687 25.2801C23.3662 26.3664 24.3535 27.1197 25.4799 27.1197H27.626C27.8175 27.1197 27.9364 27.3255 27.831 27.4853C26.5629 29.407 24.3062 30.5378 22.0785 30.5378C18.2022 30.5378 15.0439 27.4895 15.0439 23.5378C15.0439 19.5862 18.2246 16.4753 22.0785 16.4753C22.1343 16.4753 22.1905 16.4758 22.2467 16.4766C23.0872 16.4892 23.895 16.7519 24.6645 17.0903C24.854 17.1736 25.0962 17.2479 25.3181 17.307C25.7255 17.4153 26.1447 17.4716 26.566 17.4848C26.7321 17.49 26.9086 17.4917 27.0658 17.4851C27.2331 17.4781 27.3167 17.3022 27.2345 17.1563L27.1516 17.0091C26.995 16.731 27.0428 16.3916 27.2175 16.1245C27.3155 15.9747 27.3895 15.8233 27.3994 15.697C27.4049 15.6268 27.4029 15.561 27.3935 15.4995C27.3637 15.305 27.1419 15.253 26.9285 15.203C26.858 15.1864 26.7884 15.1701 26.7269 15.1489C26.6948 15.1378 26.6609 15.124 26.625 15.1068C25.7882 14.7065 26.1676 13.1982 27.0839 13.3426C27.1452 13.3523 27.2059 13.3689 27.2651 13.3938L27.4062 13.4527C27.7769 13.6073 28.1648 13.7546 28.5602 13.6837C28.6848 13.6613 28.8255 13.5944 28.9825 13.4829C29.082 13.4121 29.0618 13.2135 28.9904 13.1145C28.3734 12.2597 27.4384 11.8291 26.4164 11.5709ZM31.1309 15.8726L33.4444 17.8723C33.7295 18.1188 33.515 18.5849 33.143 18.5273L28.9853 17.8831C28.0946 17.7451 27.5807 16.7931 27.9536 15.9719L27.9966 15.8772C28.083 15.6869 28.083 15.4684 27.9966 15.2778C27.8895 15.0415 27.6593 14.8852 27.4007 14.8732L27.2618 14.8667C26.9447 14.852 26.7198 14.5507 26.7954 14.242L26.799 14.2274C26.8749 13.9173 27.2311 13.7723 27.5019 13.9412L27.6947 14.0615C28.0641 14.292 28.5098 14.3658 28.9332 14.2665C29.0602 14.2368 29.1792 14.1798 29.282 14.0995L29.2981 14.0869C29.528 13.9075 29.8518 13.9121 30.077 14.0981L30.135 14.1461C30.4595 14.4141 30.6881 14.7805 30.7863 15.19L30.8324 15.3819C30.8781 15.5727 30.9826 15.7443 31.1309 15.8726Z" fill="url(#paint0_linear_16832_137)"/>
</g>
<defs>
<linearGradient id="paint0_linear_16832_137" x1="33.625" y1="35.4753" x2="5.20689" y2="22.9662" gradientUnits="userSpaceOnUse">
<stop stop-color="#5855FF"/>
<stop offset="1" stop-color="#E036FF"/>
</linearGradient>
<clipPath id="clip0_16832_137">
<rect width="25" height="25" fill="white" transform="translate(9.5 10.8503)"/>
</clipPath>
</defs>
</svg>
