<svg width="45" height="45" viewBox="0 0 45 45" fill="none" xmlns="http://www.w3.org/2000/svg">
<circle cx="22.5" cy="22.5" r="22.5" fill="url(#paint0_linear_321:364)"/>
<path d="M13.3261 17.1305L13.8478 17.3914C13.8478 17.3914 14.5301 14.4981 15.2826 12.761C15.7402 11.7047 16.3406 10.9401 16.8013 10.4567C17.1893 10.0494 17.8062 10.0515 18.2291 10.4226C18.7344 10.8661 19.366 11.488 19.6521 12.0436C20.0358 12.7884 20.3695 13.6088 20.3695 13.6088C20.3695 13.6088 20.6204 13.6138 20.7608 13.674C20.8933 13.7308 21.0217 13.8697 21.0217 13.8697C21.0217 13.8697 21.6909 13.5963 22.1956 13.5436C22.7047 13.4904 23.4999 13.674 23.4999 13.674C23.4999 13.674 24.0067 12.4341 24.4782 11.6523C24.7455 11.2092 25.1611 10.6555 25.4871 10.2397C25.7385 9.91914 26.2164 9.9206 26.4677 10.2411C27.1109 11.0612 28.224 12.5458 28.7825 13.674C29.5119 15.1476 30.2173 17.5218 30.2173 17.5218L30.8043 17.0653C30.8043 17.0653 30.9978 17.6716 30.6738 18.4349C30.5082 18.825 30.1113 19.4391 29.9914 19.6213C30.0827 19.4883 30.3447 19.1364 30.6738 18.9566C31.0424 18.7552 31.4564 19.0218 31.4564 19.0218C31.4564 19.0218 31.0444 19.2916 30.8695 19.5436C30.6373 19.878 30.6489 20.4894 30.6647 20.7382C30.6694 20.8101 30.6968 20.8772 30.7402 20.9347C31.0536 21.3491 32.3859 23.1648 32.7608 24.5653C33.1163 25.894 32.826 27.9566 32.826 27.9566L32.1086 26.2609C32.1086 26.2609 32.6379 27.6215 31.7825 29.1957C31.3812 29.9342 29.5157 31.4852 28.8477 32.1304C27.9125 33.0338 27.6086 34.4783 27.6086 34.4783C27.6086 34.4783 27.3294 34.0379 27.2173 33.6957C27.077 33.2668 27.2173 32.587 27.2173 32.587C27.2173 32.587 25.595 35 20.4347 35C15.7391 35 14.8261 32.3261 14.8261 32.3261C14.8261 32.3261 14.9192 32.7524 14.8261 33.0435C14.7421 33.3059 14.4348 33.6304 14.4348 33.6304C14.4348 33.6304 14.2187 32.537 13.7826 31.8696C13.6413 31.6532 13.4555 31.4076 13.2666 31.1718C12.7244 30.4949 12.2422 29.759 12.0352 28.9169C11.9262 28.4739 11.8341 27.9825 11.8261 27.5653C11.8041 26.4285 12.413 24.6305 12.413 24.6305L11.5 25.674C11.5 25.674 11.6596 24.1927 12.0217 23.3261C12.314 22.6268 12.9836 21.7401 13.2315 21.4234C13.2929 21.345 13.3324 21.2521 13.3405 21.1529C13.3589 20.9272 13.3822 20.497 13.3261 20.1957C13.2237 19.6466 12.6739 19.087 12.6739 19.087C12.6739 19.087 13.1312 18.9148 13.3913 19.0218C13.6176 19.115 13.8611 19.5726 13.9058 19.6597C13.8509 19.5505 13.4993 18.8392 13.3913 18.3044C13.2753 17.7297 13.3261 17.1305 13.3261 17.1305Z" fill="white"/>
<path d="M11.5 25.674L12.413 24.6305C12.413 24.6305 11.8041 26.4285 11.8261 27.5653C11.8341 27.9825 11.9262 28.4739 12.0352 28.9169C12.2422 29.759 12.7244 30.4949 13.2666 31.1718C13.4555 31.4076 13.6413 31.6532 13.7826 31.8696C14.2187 32.537 14.4348 33.6304 14.4348 33.6304C14.4348 33.6304 14.7421 33.3059 14.8261 33.0435C14.9192 32.7524 14.8261 32.3261 14.8261 32.3261C14.8261 32.3261 15.7391 35 20.4347 35C25.595 35 27.2173 32.587 27.2173 32.587C27.2173 32.587 27.077 33.2668 27.2173 33.6957C27.3294 34.0379 27.6086 34.4783 27.6086 34.4783C27.6086 34.4783 27.9125 33.0338 28.8477 32.1304C29.5157 31.4852 31.3812 29.9342 31.7825 29.1957C32.6379 27.6215 32.1086 26.2609 32.1086 26.2609L32.826 27.9566C32.826 27.9566 33.1163 25.894 32.7608 24.5653C32.3859 23.1648 31.0536 21.3491 30.7402 20.9347C30.6968 20.8772 30.6694 20.8101 30.6647 20.7382C30.6489 20.4894 30.6373 19.878 30.8695 19.5436C31.0444 19.2916 31.4564 19.0218 31.4564 19.0218C31.4564 19.0218 31.0424 18.7552 30.6738 18.9566C30.263 19.1812 29.9564 19.674 29.9564 19.674C29.9564 19.674 30.4775 18.8973 30.6738 18.4349C30.9978 17.6716 30.8043 17.0653 30.8043 17.0653L30.2173 17.5218C30.2173 17.5218 29.5119 15.1476 28.7825 13.674C28.224 12.5458 27.1109 11.0612 26.4677 10.2411C26.2164 9.9206 25.7385 9.91914 25.4871 10.2397C25.1612 10.6555 24.7455 11.2092 24.4782 11.6523C24.0067 12.4341 23.4999 13.674 23.4999 13.674C23.4999 13.674 22.7047 13.4904 22.1956 13.5436C21.6909 13.5963 21.0217 13.8697 21.0217 13.8697C21.0217 13.8697 20.8933 13.7308 20.7608 13.674C20.6204 13.6138 20.3695 13.6088 20.3695 13.6088C20.3695 13.6088 20.0358 12.7884 19.6521 12.0436C19.366 11.488 18.7344 10.8661 18.2291 10.4226C17.8062 10.0515 17.1893 10.0494 16.8013 10.4567C16.3406 10.9401 15.7402 11.7047 15.2826 12.761C14.5301 14.4981 13.8478 17.3914 13.8478 17.3914L13.3261 17.1305C13.3261 17.1305 13.2753 17.7297 13.3913 18.3044C13.5085 18.8851 13.913 19.674 13.913 19.674C13.913 19.674 13.6417 19.1248 13.3913 19.0218C13.1312 18.9148 12.6739 19.087 12.6739 19.087C12.6739 19.087 13.2237 19.6466 13.3261 20.1957C13.3822 20.497 13.3589 20.9272 13.3405 21.1529C13.3324 21.2521 13.2929 21.345 13.2315 21.4234C12.9836 21.7401 12.314 22.6268 12.0217 23.3261C11.6596 24.1927 11.5 25.674 11.5 25.674Z" stroke="black" stroke-width="0.3"/>
<path d="M22.9128 22.1398C23.444 22.2383 23.9332 22.0023 24.0054 21.6127C24.0776 21.2231 23.7055 20.8275 23.1743 20.7291C22.643 20.6306 22.1539 20.8666 22.0817 21.2562C22.0095 21.6457 22.3816 22.0413 22.9128 22.1398Z" fill="black"/>
<path d="M22.9128 22.1398C23.444 22.2383 23.9332 22.0023 24.0054 21.6127C24.0776 21.2231 23.7055 20.8275 23.1743 20.7291C22.643 20.6306 22.1539 20.8666 22.0817 21.2562C22.0095 21.6457 22.3816 22.0413 22.9128 22.1398Z" fill="black"/>
<path d="M22.9128 22.1398C23.444 22.2383 23.9332 22.0023 24.0054 21.6127C24.0776 21.2231 23.7055 20.8275 23.1743 20.7291C22.643 20.6306 22.1539 20.8666 22.0817 21.2562C22.0095 21.6457 22.3816 22.0413 22.9128 22.1398Z" fill="#202020"/>
<path d="M17.1737 22.1525C17.642 22.1525 18.0216 21.8314 18.0216 21.4352C18.0216 21.039 17.642 20.7178 17.1737 20.7178C16.7055 20.7178 16.3259 21.039 16.3259 21.4352C16.3259 21.8314 16.7055 22.1525 17.1737 22.1525Z" fill="black"/>
<path d="M17.1737 22.1525C17.642 22.1525 18.0216 21.8314 18.0216 21.4352C18.0216 21.039 17.642 20.7178 17.1737 20.7178C16.7055 20.7178 16.3259 21.039 16.3259 21.4352C16.3259 21.8314 16.7055 22.1525 17.1737 22.1525Z" fill="black"/>
<path d="M17.1737 22.1525C17.642 22.1525 18.0216 21.8314 18.0216 21.4352C18.0216 21.039 17.642 20.7178 17.1737 20.7178C16.7055 20.7178 16.3259 21.039 16.3259 21.4352C16.3259 21.8314 16.7055 22.1525 17.1737 22.1525Z" fill="black"/>
<path d="M16.8152 21.4352C17.0133 21.4352 17.1739 21.2746 17.1739 21.0765C17.1739 20.8784 17.0133 20.7178 16.8152 20.7178C16.6171 20.7178 16.4565 20.8784 16.4565 21.0765C16.4565 21.2746 16.6171 21.4352 16.8152 21.4352Z" fill="white"/>
<path d="M23.4673 21.4352C23.6654 21.4352 23.826 21.2746 23.826 21.0765C23.826 20.8784 23.6654 20.7178 23.4673 20.7178C23.2692 20.7178 23.1086 20.8784 23.1086 21.0765C23.1086 21.2746 23.2692 21.4352 23.4673 21.4352Z" fill="white"/>
<path d="M17.5202 27.6276L17.1738 27.4352L17.6657 28.2878C17.974 28.8221 18.503 29.1928 19.1107 29.3001L20.399 29.5274C21.0959 29.6504 21.8209 29.5321 22.3907 29.1124C22.7884 28.8194 23.2256 28.4525 23.4999 28.0874C24.1875 27.1723 24.4129 25.5439 24.4129 25.5439C24.4129 25.5439 23.756 26.6914 23.1738 27.2396C22.9811 27.421 22.7251 27.6115 22.4791 27.7791C21.9914 28.1118 21.3592 28.1083 20.8431 27.8216L19.326 26.9787L18.0069 27.6382C17.8529 27.7153 17.6708 27.7114 17.5202 27.6276Z" fill="#35201F" stroke="black" stroke-width="0.3"/>
<path d="M18.2258 27.5655L19.3345 26.9785C19.3345 26.9785 20.6652 27.7996 21.291 28.022C21.6112 28.1357 21.7476 28.0872 21.7476 28.0872C21.7476 28.0872 21.3499 29.448 21.4867 30.3046C21.5046 30.4168 21.5321 30.537 21.5657 30.6599C21.7411 31.3027 21.3051 32.0002 20.6389 32.0002H19.7348C18.9404 32.0002 18.2084 31.5221 18.0283 30.7483C17.9333 30.3401 17.8672 29.8961 17.8997 29.522C18.0302 28.022 18.2258 27.5655 18.2258 27.5655Z" fill="#F78C92" stroke="black" stroke-width="0.3"/>
<path d="M19.2613 29.278C19.1868 29.782 19.2613 30.5824 19.2613 30.5824C19.2613 30.5824 19.0536 29.833 19.0657 29.3432C19.0778 28.8489 19.1711 28.5735 19.3266 28.1041C19.4306 27.7899 19.5222 27.6476 19.7179 27.4519C19.8079 27.3619 19.9444 27.3936 19.9135 27.5172C19.8483 27.7781 19.6456 27.9811 19.5222 28.2998C19.3794 28.6685 19.3192 28.887 19.2613 29.278Z" fill="black"/>
<path d="M20.826 22.6091C20.826 22.6091 20.0686 22.2679 19.4565 22.2827C18.9808 22.2942 18.6491 22.3441 18.2173 22.5439C17.7685 22.7516 17.509 22.8977 17.1739 23.2612C16.8184 23.6469 16.6922 24.0044 16.5217 24.5004C16.4072 24.8332 16.4235 25.467 16.4586 25.9491C16.489 26.3679 16.6585 26.7612 16.9178 27.0914L17.239 27.5003" stroke="black" stroke-width="0.3"/>
<path d="M24.1522 24.8263L23.3696 23.9785L23.4753 24.2426C23.578 24.4993 23.7251 24.7358 23.9101 24.9414L24.2175 25.2829L24.2827 25.5437L24.5435 25.6089C24.5435 25.6089 24.6238 25.9671 24.6088 26.1959C24.5953 26.4008 24.4783 26.7176 24.4783 26.7176C24.4783 26.7176 24.8044 26.3915 24.8044 26.1307C24.8044 25.9515 24.7856 25.8309 24.7657 25.6905C24.7461 25.5531 24.6891 25.4228 24.5962 25.3198L24.1522 24.8263Z" fill="#101010"/>
<mask id="mask0_321:364" style="mask-type:alpha" maskUnits="userSpaceOnUse" x="14" y="11" width="5" height="8">
<path d="M18.4999 13.4886C18.4666 11.1381 17.5558 10.8525 16.9303 11.3877C16.8879 11.4239 16.8516 11.4653 16.818 11.5098C16.6168 11.7764 15.8564 12.8289 15.3297 14.1719C14.888 15.2982 14.6038 17.4039 14.5198 18.0885C14.5076 18.1878 14.6078 18.2604 14.6996 18.2207L15.3675 17.9316C15.9605 17.6749 16.4962 17.19 16.5145 16.5441C16.5152 16.5202 16.5152 16.4968 16.5145 16.474C16.5054 16.1645 16.3567 15.6969 16.3567 15.6969C16.3567 15.6969 16.6586 15.7821 16.7529 15.8135C16.7939 15.8272 16.9159 15.801 16.9213 15.7581C16.9379 15.6265 16.9644 15.468 17.0048 15.3482C17.0991 15.0682 17.3739 14.6875 17.3739 14.6875C17.3739 14.6875 17.4685 14.9019 17.5743 15.0023C17.6445 15.0689 17.7635 15.127 17.8405 15.1604C17.8837 15.1791 17.933 15.1635 17.96 15.1249C18.2966 14.6429 18.5083 14.0764 18.4999 13.4886Z" fill="#DEC0C0"/>
</mask>
<g mask="url(#mask0_321:364)">
<path d="M18.4999 13.4886C18.4666 11.1381 17.5558 10.8525 16.9303 11.3877C16.8879 11.4239 16.8516 11.4653 16.818 11.5098C16.6168 11.7764 15.8564 12.8289 15.3297 14.1719C14.888 15.2982 14.6038 17.4039 14.5198 18.0885C14.5076 18.1878 14.6078 18.2604 14.6996 18.2207L15.3675 17.9316C15.9605 17.6749 16.4962 17.19 16.5145 16.5441C16.5152 16.5202 16.5152 16.4968 16.5145 16.474C16.5054 16.1645 16.3567 15.6969 16.3567 15.6969C16.3567 15.6969 16.6586 15.7821 16.7529 15.8135C16.7939 15.8272 16.9159 15.801 16.9213 15.7581C16.9379 15.6265 16.9644 15.468 17.0048 15.3482C17.0991 15.0682 17.3739 14.6875 17.3739 14.6875C17.3739 14.6875 17.4685 14.9019 17.5743 15.0023C17.6445 15.0689 17.7635 15.127 17.8405 15.1604C17.8837 15.1791 17.933 15.1635 17.96 15.1249C18.2966 14.6429 18.5083 14.0764 18.4999 13.4886Z" fill="#DEC0C0"/>
<path d="M16.5776 19.0516C17.611 19.3675 18.9358 18.0304 19.5366 16.065C20.1375 14.0996 19.7869 12.2503 18.7536 11.9343C17.7203 11.6184 16.3955 12.9556 15.7946 14.9209C15.1937 16.8863 15.5443 18.7357 16.5776 19.0516Z" fill="#D2B0AF"/>
</g>
<mask id="mask1_321:364" style="mask-type:alpha" maskUnits="userSpaceOnUse" x="24" y="10" width="5" height="9">
<path d="M24.9658 13.3078C24.996 10.9494 25.8882 10.6616 26.501 11.1967C26.543 11.2333 26.5789 11.2751 26.612 11.3199C26.8095 11.5874 27.5528 12.6393 28.0678 13.9815C28.4998 15.1071 28.7777 17.2109 28.8601 17.8969C28.872 17.9965 28.7712 18.0687 28.6795 18.0281L28.0481 17.7488C27.4568 17.4872 26.9257 16.9982 26.9085 16.3521C26.9079 16.3288 26.9079 16.3059 26.9085 16.2836C26.9175 15.9741 27.063 15.5065 27.063 15.5065C27.063 15.5065 26.7676 15.5917 26.6752 15.6231C26.6355 15.6367 26.5159 15.6112 26.5108 15.5694C26.4945 15.4374 26.4685 15.2781 26.4289 15.1578C26.3366 14.8778 26.0677 14.497 26.0677 14.497C26.0677 14.497 25.9751 14.7114 25.8716 14.8118C25.8039 14.8775 25.6897 14.935 25.6142 14.9686C25.5705 14.9881 25.5199 14.972 25.4929 14.9324C25.1642 14.4515 24.9583 13.8898 24.9658 13.3078Z" fill="#DEC0C0"/>
</mask>
<g mask="url(#mask1_321:364)">
<path d="M24.9658 13.3078C24.996 10.9494 25.8882 10.6616 26.501 11.1967C26.543 11.2333 26.5789 11.2751 26.612 11.3199C26.8095 11.5874 27.5528 12.6393 28.0678 13.9815C28.4998 15.1071 28.7777 17.2109 28.8601 17.8969C28.872 17.9965 28.7712 18.0687 28.6795 18.0281L28.0481 17.7488C27.4568 17.4872 26.9257 16.9982 26.9085 16.3521C26.9079 16.3288 26.9079 16.3059 26.9085 16.2836C26.9175 15.9741 27.063 15.5065 27.063 15.5065C27.063 15.5065 26.7676 15.5917 26.6752 15.6231C26.6355 15.6367 26.5159 15.6112 26.5108 15.5694C26.4945 15.4374 26.4685 15.2781 26.4289 15.1578C26.3366 14.8778 26.0677 14.497 26.0677 14.497C26.0677 14.497 25.9751 14.7114 25.8716 14.8118C25.8039 14.8775 25.6897 14.935 25.6142 14.9686C25.5705 14.9881 25.5199 14.972 25.4929 14.9324C25.1642 14.4515 24.9583 13.8898 24.9658 13.3078Z" fill="#DEC0C0"/>
<path d="M26.8467 18.8612C25.8356 19.1771 24.5394 17.8399 23.9515 15.8746C23.3636 13.9092 23.7066 12.0598 24.7176 11.7439C25.7287 11.428 27.0249 12.7651 27.6129 14.7305C28.2008 16.6959 27.8578 18.5452 26.8467 18.8612Z" fill="#D2B0AF"/>
</g>
<mask id="mask2_321:364" style="mask-type:alpha" maskUnits="userSpaceOnUse" x="16" y="22" width="7" height="5">
<path d="M21.0216 24.304C21.0216 24.6545 20.8277 25.0303 20.5244 25.3224C20.2215 25.6141 19.8284 25.804 19.4564 25.804C19.0823 25.804 18.6551 25.6124 18.3185 25.3181C17.9806 25.0228 17.7607 24.648 17.7607 24.304C17.7607 23.9704 17.9692 23.6964 18.2996 23.4992C18.6299 23.3021 19.0627 23.1953 19.4564 23.1953C19.8495 23.1953 20.2475 23.3017 20.5432 23.4962C20.8367 23.6894 21.0216 23.9623 21.0216 24.304Z" fill="#C4C4C4" stroke="black" stroke-width="2"/>
</mask>
<g mask="url(#mask2_321:364)">
<path d="M21.0216 24.304C21.0216 24.6545 20.8277 25.0303 20.5244 25.3224C20.2215 25.6141 19.8284 25.804 19.4564 25.804C19.0823 25.804 18.6551 25.6124 18.3185 25.3181C17.9806 25.0228 17.7607 24.648 17.7607 24.304C17.7607 23.9704 17.9692 23.6964 18.2996 23.4992C18.6299 23.3021 19.0627 23.1953 19.4564 23.1953C19.8495 23.1953 20.2475 23.3017 20.5432 23.4962C20.8367 23.6894 21.0216 23.9623 21.0216 24.304Z" fill="#616161" stroke="black" stroke-width="0.5"/>
<path d="M20.8911 24.4347C20.8911 25.011 20.1407 25.6739 19.4563 25.6739C18.772 25.6739 17.8911 25.011 17.8911 24.4347C17.8911 23.8585 18.5479 23.5869 19.2323 23.5869C19.9166 23.5869 20.8911 23.8585 20.8911 24.4347Z" fill="#3B3B3B"/>
<path d="M19.913 25.1521C20.0446 25.3466 20.1348 25.4739 20.3695 25.4782C20.5404 25.4813 20.554 25.4354 20.6304 25.2825C20.6874 25.1687 20.7609 24.9564 20.7609 24.9564C20.7609 24.9564 20.5373 25.1179 20.4348 25.1521C20.2727 25.2061 20.1664 25.075 20.0435 24.9564C19.9366 24.8534 19.8592 24.7784 19.8478 24.6304C19.8398 24.5256 19.8147 24.3413 19.913 24.3043C19.9884 24.2758 20.1087 24.4347 20.1087 24.4347C20.1087 24.4347 20.1515 24.2458 20.0434 24.1738C19.9587 24.1174 19.876 24.0681 19.7826 24.1086C19.6464 24.1678 19.6235 24.2908 19.5869 24.4347C19.5214 24.6924 19.764 24.9319 19.913 25.1521Z" fill="black"/>
<path d="M18.7155 24.9645C18.6044 25.105 18.5284 25.197 18.3302 25.2001C18.1861 25.2024 18.1746 25.1691 18.1101 25.0587C18.062 24.9765 18 24.8233 18 24.8233C18 24.8233 18.1887 24.9399 18.2752 24.9645C18.412 25.0035 18.5017 24.9089 18.6054 24.8233C18.6956 24.7488 18.7609 24.6947 18.7706 24.5877C18.7774 24.5122 18.7985 24.379 18.7155 24.3523C18.6519 24.3317 18.5504 24.4465 18.5504 24.4465C18.5504 24.4465 18.5143 24.3101 18.6055 24.258C18.677 24.2173 18.7468 24.1816 18.8256 24.2109C18.9405 24.2537 18.9598 24.3426 18.9907 24.4465C19.046 24.6325 18.8413 24.8055 18.7155 24.9645Z" fill="black"/>
</g>
<defs>
<linearGradient id="paint0_linear_321:364" x1="22.5" y1="0" x2="22.5" y2="45" gradientUnits="userSpaceOnUse">
<stop stop-color="#42E9CD"/>
<stop offset="1" stop-color="#9531DF"/>
</linearGradient>
</defs>
</svg>
