<svg width="25" height="25" viewBox="0 0 25 25" fill="none" xmlns="http://www.w3.org/2000/svg">
<circle cx="12.5" cy="12.5" r="12.5" fill="#0B233C"/>
<path d="M6.67995 8.89019C7.27573 8.89019 7.87628 8.88305 8.47682 8.89973C8.53402 8.90211 8.61266 9.03557 8.63888 9.12136C9.12265 10.7157 9.60166 12.3124 10.0973 13.9639C10.4215 13.2251 10.7408 12.534 11.0268 11.831C11.2984 11.1589 11.7512 10.7371 12.4924 10.7419C13.2335 10.7467 13.6792 11.1828 13.9413 11.8548C14.213 12.5459 14.5133 13.2251 14.8255 13.9639C14.9399 13.5945 15.0304 13.2751 15.1377 12.9606C15.1591 12.8986 15.2401 12.8152 15.2949 12.8128C15.8836 12.8033 16.4722 12.8057 17.1014 12.8057C16.9703 13.2418 16.8487 13.6541 16.7224 14.064C16.4984 14.7932 16.272 15.5224 16.0504 16.2541C15.9384 16.6211 15.7072 16.8117 15.3092 16.8069C13.672 16.7903 13.927 16.9952 13.2979 15.4748C13.031 14.8289 12.7641 14.1807 12.4757 13.4753C12.185 14.1903 11.9133 14.8504 11.6488 15.5153C11.0268 17.0786 11.2508 16.7903 9.48727 16.7807C9.30377 16.7807 9.01541 16.5424 8.95821 16.3589C8.17417 13.8995 7.42348 11.4258 6.66803 8.95454C6.66326 8.94262 6.6728 8.92832 6.67995 8.89019Z" fill="white"/>
<path d="M15.4758 11.8425C15.7737 10.863 16.0621 9.91456 16.3552 8.96846C16.3647 8.93509 16.4243 8.89458 16.4624 8.89458C17.0773 8.88981 17.6898 8.8922 18.3332 8.8922C18.0282 9.8669 17.7327 10.813 17.43 11.7567C17.4181 11.7925 17.3633 11.8401 17.3299 11.8401C16.7246 11.8449 16.1169 11.8425 15.4758 11.8425Z" fill="white"/>
</svg>
