<svg width="25" height="25" viewBox="0 0 25 25" fill="none" xmlns="http://www.w3.org/2000/svg">
    <path d="M24 12.5C24 18.851 18.851 24 12.5 24S1 18.851 1 12.5 6.149 1 12.5 1 24 6.149 24 12.5z" fill="#131419" stroke="#6764FB" stroke-width="2"/>
    <path d="M8.5 11.667h5.944l-2.777-1.945h5.11a1 1 0 0 0 1-1V8.5a1 1 0 0 0-1-1H8.5a1 1 0 0 0-1 1v2.167a1 1 0 0 0 1 1zM16.778 13.61h-5.945l2.778 1.945h-5.11a1 1 0 0 0-1 1v.222a1 1 0 0 0 1 1h8.277a1 1 0 0 0 1-1v-2.166a1 1 0 0 0-1-1z" fill="#6764FB"/>
</svg>
