<svg width="25" height="25" viewBox="0 0 25 25" fill="none" xmlns="http://www.w3.org/2000/svg">
    <path d="M12.5 25C19.404 25 25 19.404 25 12.5S19.404 0 12.5 0 0 5.596 0 12.5 5.596 25 12.5 25z" fill="#172852"/>
    <path d="M10.069 5.586c1.463-.547 3.111-.548 4.602-.098 1.942.602 3.58 2.067 4.437 3.906.236.524.462 1.07.485 1.652-1.092-.632-2.288-1.042-3.487-1.416-1.917-.691-3.925-1.171-5.74-2.121-.422-.253-.961-.511-1.076-1.038-.046-.455.435-.708.779-.885zM5.65 10.012c.424-1.15 1.119-2.218 2.062-3.01.24 1.975 1.08 3.882 2.468 5.317 1.664 1.729 4.034 2.79 6.445 2.75.957.03 1.893-.191 2.827-.37-.919 3.32-4.557 5.524-7.929 4.994-2.034-.26-3.913-1.465-5.047-3.166-1.279-1.88-1.601-4.377-.826-6.515z" fill="#FFD83D"/>
    <path d="M16.106 9.63c1.199.374 2.395.784 3.486 1.416l.074.039c.101.761.175 1.537.04 2.3-.549-.233-.994-.641-1.459-1.003-.895-.745-1.808-1.597-2.14-2.752z" fill="#FF6F03"/>
</svg>
