<svg width="45" height="45" viewBox="0 0 45 45" fill="none" xmlns="http://www.w3.org/2000/svg">
<circle cx="22.5" cy="22.5" r="22.5" fill="#0B233C"/>
<path d="M12.0238 16.0027C13.0962 16.0027 14.1771 15.9899 15.2581 16.0199C15.3611 16.0242 15.5026 16.2644 15.5498 16.4188C16.4206 19.2886 17.2828 22.1626 18.1751 25.1354C18.7585 23.8056 19.3333 22.5616 19.848 21.2961C20.3371 20.0865 21.1521 19.3272 22.4862 19.3358C23.8202 19.3444 24.6224 20.1294 25.0942 21.339C25.5833 22.583 26.1238 23.8056 26.6857 25.1354C26.8916 24.4705 27.0546 23.8957 27.2476 23.3294C27.2862 23.2179 27.4321 23.0678 27.5308 23.0635C28.5903 23.0463 29.6498 23.0506 30.7823 23.0506C30.5464 23.8356 30.3276 24.5777 30.1002 25.3155C29.697 26.6281 29.2895 27.9408 28.8906 29.2577C28.689 29.9183 28.2729 30.2615 27.5565 30.2529C24.6095 30.2229 25.0685 30.5918 23.936 27.855C23.4556 26.6925 22.9752 25.5257 22.4561 24.256C21.9328 25.5429 21.4438 26.7311 20.9676 27.9279C19.848 30.7419 20.2513 30.2229 17.0769 30.2057C16.7466 30.2057 16.2276 29.7767 16.1246 29.4464C14.7134 25.0195 13.3621 20.5669 12.0023 16.1186C11.9937 16.0971 12.0109 16.0714 12.0238 16.0027Z" fill="white"/>
<path d="M27.8567 21.3175C28.3929 19.5545 28.9119 17.8472 29.4396 16.1442C29.4567 16.0841 29.564 16.0112 29.6326 16.0112C30.7393 16.0026 31.8418 16.0069 33 16.0069C32.4509 17.7614 31.919 19.4644 31.3742 21.1631C31.3527 21.2274 31.2541 21.3132 31.194 21.3132C30.1045 21.3218 29.0106 21.3175 27.8567 21.3175Z" fill="white"/>
</svg>
