<svg width="40" height="40" viewBox="0 0 40 40" fill="none" xmlns="http://www.w3.org/2000/svg">
    <path d="M20 40c11.046 0 20-8.954 20-20S31.046 0 20 0 0 8.954 0 20s8.954 20 20 20z" fill="#6747ED"/>
    <path fill-rule="evenodd" clip-rule="evenodd" d="M19.708 22.583a5.317 5.317 0 0 1-5.333-5.333 5.317 5.317 0 0 1 5.333-5.333 5.317 5.317 0 0 1 5.334 5.333 5.317 5.317 0 0 1-5.334 5.333zm0-13.333c4.417 0 8 3.583 8 8s-3.583 8-8 8c-4.416 0-8-3.583-8-8s3.584-8 8-8zm7.625 16.417c.542.541.542 1.375 0 1.875L22 32.875c-.542.542-1.375.542-1.875 0-.542-.542-.542-1.375 0-1.875l5.333-5.333a1.285 1.285 0 0 1 1.875 0zm3.084-15.084c0 .75-.584 1.334-1.334 1.334-.75 0-1.333-.584-1.333-1.334 0-.75.583-1.333 1.333-1.333.709 0 1.334.583 1.334 1.333z" fill="#fff"/>
</svg>
