<svg width="40" height="40" viewBox="0 0 40 40" fill="none" xmlns="http://www.w3.org/2000/svg">
    <path d="M20 40c11.046 0 20-8.954 20-20S31.046 0 20 0 0 8.954 0 20s8.954 20 20 20z" fill="#D4D4D4"/>
    <path fill-rule="evenodd" clip-rule="evenodd" d="M35.475 25.17a.812.812 0 0 0 1.066-.503 16.889 16.889 0 1 0-8.77 10.106.813.813 0 0 0 .347-1.127.882.882 0 0 0-1.156-.358 15.2 15.2 0 1 1 7.995-9.213.882.882 0 0 0 .518 1.095zM16.73 10.037c-.003.001-.003.002-.005.004l-4.93 5.985 8.027 10.726a3.556 3.556 0 0 0 2.847 1.426h8.75a.876.876 0 0 0 .874-.946 3.346 3.346 0 0 0-3.079-3.068l-2.102-.161-.318.237a.889.889 0 1 1-1.062-1.426l.13-.096-.18-.316a19.56 19.56 0 0 1-1.825-4.33l-.254-.889a1.066 1.066 0 0 1 .004-.6l.869-2.894v-.005a.11.11 0 0 0-.026-.042.15.15 0 0 0-.122-.055c-1.032.11-2.505.15-3.748-.309-1.692-.625-2.992-2.18-3.707-3.192a.14.14 0 0 0-.143-.049zm-1.378-1.126c.819-.994 2.307-.793 2.973.149.682.965 1.718 2.124 2.871 2.55.846.313 1.98.312 2.944.21 1.236-.133 2.442 1.033 2.038 2.38l-.808 2.695.197.689c.392 1.374.949 2.695 1.658 3.936l.423.74 1.702.132a5.124 5.124 0 0 1 4.715 4.697 2.653 2.653 0 0 1-2.645 2.867H22.67a5.32 5.32 0 0 1-.318-.01.898.898 0 0 1-.13.01h-9.155a.889.889 0 1 1 0-1.778h5.627a5.357 5.357 0 0 1-.294-.36l-1.017-1.359a.89.89 0 0 1-.227.03h-6.667a.889.889 0 0 1 0-1.778h5.586l-1.228-1.641a.888.888 0 0 1-.27.041H8a.889.889 0 0 1 0-1.778h5.547l-1.347-1.8a.893.893 0 0 1-.2.022H7.111a.889.889 0 0 1 0-1.777h3.776l-.514-.687a1.778 1.778 0 0 1 .051-2.195l4.93-5.985zm4.067 5.729a.889.889 0 1 0-1.507.942l1.372 2.196h-.458a.978.978 0 0 0-.83 1.496l2.138 3.42a.889.889 0 0 0 1.508-.943l-1.373-2.196h.459a.978.978 0 0 0 .829-1.495l-2.138-3.42z" fill="#231F20"/>
</svg>
