<svg width="45" height="45" fill="none" xmlns="http://www.w3.org/2000/svg">
    <circle cx="22.5" cy="22.5" r="22.5" fill="#2270C5"/>
    <path d="M28.411 25.49c0-2.728-1.86-3.664-5.581-4.055-2.658-.312-3.19-.935-3.19-2.026 0-1.091.887-1.793 2.658-1.793 1.595 0 2.482.468 2.924 1.637.09.234.355.39.62.39h1.419c.355 0 .62-.234.62-.547v-.078c-.354-1.716-1.949-3.041-3.986-3.197v-1.87c0-.313-.266-.547-.708-.624h-1.329c-.355 0-.62.234-.708.623v1.793c-2.657.312-4.341 1.871-4.341 3.821 0 2.573 1.77 3.587 5.492 3.977 2.48.389 3.278.857 3.278 2.105s-1.24 2.105-2.923 2.105c-2.303 0-3.1-.857-3.366-2.027a.632.632 0 0 0-.62-.468h-1.506c-.355 0-.621.234-.621.547v.078c.355 1.95 1.771 3.354 4.695 3.743v1.871c0 .313.265.547.707.623h1.33c.354 0 .62-.234.707-.623v-1.871c2.656-.391 4.43-2.028 4.43-4.134z" fill="#fff"/>
    <path d="M18.286 33.433c-6.412-2.242-9.7-9.205-7.315-15.368 1.233-3.361 3.945-5.922 7.315-7.123.33-.159.493-.4.493-.8v-1.12c0-.321-.164-.561-.493-.64-.083 0-.247 0-.33.08-7.808 2.402-12.083 10.485-9.617 18.09 1.48 4.482 5.015 7.924 9.617 9.365.33.16.657 0 .74-.321.083-.08.083-.16.083-.321v-1.12c0-.242-.247-.56-.493-.722zM26.997 8.46c-.33-.16-.657 0-.74.32-.082.081-.082.16-.082.321v1.12c0 .32.246.64.493.801 6.411 2.242 9.7 9.205 7.315 15.368-1.233 3.361-3.946 5.922-7.315 7.123-.33.159-.493.4-.493.8v1.12c0 .321.163.561.493.64.083 0 .246 0 .33-.08 7.807-2.402 12.082-10.485 9.616-18.09-1.48-4.56-5.095-8.003-9.617-9.443z" fill="#fff"/>
</svg>
