<svg width="45" height="45" viewBox="0 0 45 45" fill="none" xmlns="http://www.w3.org/2000/svg">
    <circle cx="22.5" cy="22.5" r="22.5" fill="#fff"/>
    <path d="M28.492 11.705a3.378 3.378 0 0 1 4.757 0 3.377 3.377 0 0 1 0 4.756 3.334 3.334 0 0 1-2.845.956h-.163c-.303-.047-.63 0-.956.14-.443.21-.746.56-.91.98-.163.419-.14.885.047 1.305 1.12 2.425.607 5.363-1.305 7.251a6.463 6.463 0 0 1-7.252 1.306c-.443-.21-.909-.21-1.329-.047-.42.163-.77.467-.956.886-.116.28-.186.56-.163.863v.163c.187 1.073-.186 2.169-.933 2.938a3.378 3.378 0 0 1-4.756 0 3.33 3.33 0 0 1-.98-2.378c0-.886.35-1.749.98-2.378a3.334 3.334 0 0 1 2.845-.956h.046c.117.023.233.046.35.046.256 0 .49-.046.723-.163.443-.21.746-.56.886-.956a1.71 1.71 0 0 0-.047-1.352c-1.12-2.448-.606-5.363 1.306-7.252a6.463 6.463 0 0 1 7.251-1.305c.42.21.91.21 1.33.046.419-.163.768-.466.978-.886.164-.326.187-.7.14-1.049a3.404 3.404 0 0 1 .956-2.914zm-3.334 13.43c1.446-1.446 1.446-3.8 0-5.27-1.446-1.445-3.8-1.445-5.27 0-1.445 1.446-1.445 3.8 0 5.27 1.47 1.445 3.824 1.445 5.27 0zM22.5 0C34.928 0 45 10.072 45 22.5S34.928 45 22.5 45 0 34.928 0 22.5 10.072 0 22.5 0zm11.984 17.72c1.982-1.982 1.982-5.2 0-7.204-1.981-1.982-5.199-1.982-7.204 0-.746.746-1.19 1.655-1.4 2.588-3.613-1.353-7.74-.49-10.491 2.261-2.752 2.752-3.614 6.902-2.239 10.516a5.048 5.048 0 0 0-2.611 1.399c-1.982 1.982-1.982 5.2 0 7.204 1.982 1.982 5.2 1.982 7.205 0a5.115 5.115 0 0 0 1.398-2.634c1.12.42 2.285.63 3.451.63a9.919 9.919 0 0 0 7.018-2.892 9.93 9.93 0 0 0 2.285-10.446 5.698 5.698 0 0 0 2.588-1.422z" fill="#384CFF"/>
</svg>
