<svg width="25" height="25" viewBox="0 0 25 25" fill="none" xmlns="http://www.w3.org/2000/svg">
    <circle cx="12.5" cy="12.5" r="12.5" fill="#fff"/>
    <path d="M15.829 6.503a1.876 1.876 0 0 1 2.642 0 1.876 1.876 0 0 1 0 2.642 1.852 1.852 0 0 1-1.58.531h-.09a.972.972 0 0 0-.532.078.987.987 0 0 0-.505.544.94.94 0 0 0 .026.725 3.587 3.587 0 0 1-4.754 4.754.919.919 0 0 0-.738-.026.944.944 0 0 0-.531.493c-.065.155-.104.31-.09.479v.09a1.896 1.896 0 0 1-.519 1.633 1.876 1.876 0 0 1-2.642 0 1.85 1.85 0 0 1-.545-1.322c0-.492.195-.971.545-1.32a1.852 1.852 0 0 1 1.58-.532h.026a.869.869 0 0 0 .596-.065.936.936 0 0 0 .492-.53.95.95 0 0 0-.026-.752 3.583 3.583 0 0 1 .725-4.029 3.59 3.59 0 0 1 4.029-.725.917.917 0 0 0 .738.026c.233-.09.428-.26.544-.492.09-.182.104-.389.078-.583a1.892 1.892 0 0 1 .531-1.62zm-1.852 7.46a2.08 2.08 0 0 0 0-2.927 2.08 2.08 0 0 0-2.928 0 2.08 2.08 0 0 0 0 2.928 2.08 2.08 0 0 0 2.928 0zM12.5 0C19.404 0 25 5.596 25 12.5S19.404 25 12.5 25 0 19.404 0 12.5 5.596 0 12.5 0zm6.658 9.845a2.838 2.838 0 0 0 0-4.003 2.838 2.838 0 0 0-4.003 0c-.414.414-.66.92-.777 1.438A5.524 5.524 0 0 0 8.55 8.536a5.516 5.516 0 0 0-1.243 5.842 2.805 2.805 0 0 0-1.451.777 2.838 2.838 0 0 0 0 4.003 2.838 2.838 0 0 0 4.003 0c.414-.415.673-.933.777-1.464a5.51 5.51 0 0 0 5.816-1.256 5.517 5.517 0 0 0 1.27-5.803 3.165 3.165 0 0 0 1.437-.79z" fill="#384CFF"/>
</svg>
