<svg width="45" height="45" fill="none" xmlns="http://www.w3.org/2000/svg">
    <circle cx="22.5" cy="22.5" r="22.5" fill="#000"/>
    <path d="m21.71 27.49-3.916 3.572 4.534-5.29 1.855 3.298h2.886l-3.023-5.428L36 9.902l-8.176 13.397 3.504 5.633-.412.893-3.641-6.526 7.97-12.367-9.55 12.71 3.847 6.87h-6.183L21.71 27.49z" fill="#DA433F"/>
    <path d="m23.29 19.246 3.916-3.573-4.534 5.29-1.855-3.297H17.93l3.023 5.427L9 36.833l8.175-13.397-3.503-5.633.412-.893 3.641 6.526-7.97 12.367 9.55-12.71-3.847-6.87h6.183l1.649 3.023zM32.771 13.475l-1.305 1.373s-1.184-1.439-3.16-2.679c-1.826-1.145-4.389-2.098-5.909-2.13-1.514-.031-3.108.162-4.466.619-2.66.896-4.603 2.404-4.603 2.404s1.554-1.63 3.985-2.816c1.589-.776 3.785-1.323 5.359-1.237 2.171.118 3.72.637 5.359 1.305 3.13 1.277 4.74 3.16 4.74 3.16z" fill="#74FA39"/>
    <path d="m12.71 32.436 1.305-1.374s1.184 1.44 3.16 2.68c1.826 1.145 4.389 2.097 5.909 2.13 1.514.031 3.108-.162 4.466-.619 2.66-.896 4.603-2.404 4.603-2.404s-1.554 1.63-3.985 2.816c-1.589.776-3.785 1.322-5.359 1.237-2.172-.118-3.72-.637-5.359-1.305-3.13-1.277-4.74-3.16-4.74-3.16z" fill="#DA433F"/>
</svg>
