<svg width="45" height="45" viewBox="0 0 45 45" fill="none" xmlns="http://www.w3.org/2000/svg">
<circle cx="22.5" cy="22.5" r="22.5" fill="black"/>
<path d="M21.71 27.4891L17.7939 31.0616L22.3283 25.7715L24.1832 29.0692H27.0687L24.0458 23.6418L36 9.90137L27.8244 23.2983L31.3282 28.9318L30.916 29.825L27.2748 23.2983L35.2443 10.9319L25.6947 23.6418L29.542 30.512H23.3588L21.71 27.4891Z" fill="#DA433F"/>
<path d="M23.29 19.2454L27.206 15.6729L22.6717 20.9629L20.8167 17.6652H17.9313L20.9542 23.0927L9 36.8331L17.1755 23.4362L13.6717 17.8026L14.0839 16.9095L17.7252 23.4362L9.75572 35.8025L19.3053 23.0927L15.458 16.2225H21.6412L23.29 19.2454Z" fill="#74FA39"/>
<path d="M32.771 13.4746L31.4657 14.8485C31.4657 14.8485 30.2824 13.4093 28.3054 12.1691C26.4799 11.0238 23.917 10.0713 22.397 10.0393C20.8833 10.0075 19.2886 10.2005 17.9314 10.6577C15.2713 11.5538 13.3284 13.0622 13.3284 13.0622C13.3284 13.0622 14.8824 11.432 17.3131 10.2455C18.9018 9.46994 21.098 8.92331 22.6718 9.0088C24.8435 9.12676 26.3922 9.64571 28.0306 10.3141C31.1608 11.5912 32.771 13.4746 32.771 13.4746Z" fill="#74FA39"/>
<path d="M12.7098 32.4364L14.0152 31.0625C14.0152 31.0625 15.1985 32.5017 17.1755 33.7419C19.001 34.8871 21.5639 35.8396 23.0838 35.8716C24.5976 35.9035 26.1923 35.7105 27.5495 35.2533C30.2096 34.3572 32.1525 32.8488 32.1525 32.8488C32.1525 32.8488 30.5985 34.4789 28.1678 35.6655C26.5791 36.441 24.3829 36.9876 22.809 36.9022C20.6374 36.7841 19.0888 36.2653 17.4503 35.5968C14.3201 34.3198 12.7098 32.4364 12.7098 32.4364Z" fill="#DA433F"/>
</svg>
