<svg width="25" height="25" viewBox="0 0 25 25" fill="none" xmlns="http://www.w3.org/2000/svg">
<circle cx="12.5" cy="12.5" r="12.5" fill="black"/>
<path d="M12.0611 15.2719L9.8855 17.2567L12.4046 14.3177L13.4351 16.1498H15.0381L13.3588 13.1345L20 5.50098L15.458 12.9437L17.4046 16.0735L17.1755 16.5696L15.1527 12.9437L19.5801 6.07349L14.2748 13.1345L16.4122 16.9513H12.9771L12.0611 15.2719Z" fill="#DA433F"/>
<path d="M12.9389 10.6918L15.1145 8.70703L12.5954 11.646L11.5649 9.8139H9.96181L11.6412 12.8292L5 20.4627L9.54197 13.02L7.59541 9.89023L7.82442 9.39405L9.84731 13.02L5.41985 19.8902L10.7252 12.8292L8.58777 9.01237H12.0229L12.9389 10.6918Z" fill="#74FA39"/>
<path d="M18.2061 7.48587L17.481 8.24915C17.481 8.24915 16.8236 7.44963 15.7252 6.7606C14.711 6.12436 13.2872 5.59518 12.4428 5.57741C11.6019 5.5597 10.7159 5.66693 9.96191 5.92094C8.48409 6.41877 7.40466 7.2568 7.40466 7.2568C7.40466 7.2568 8.268 6.35112 9.61839 5.69192C10.501 5.26108 11.7211 4.9574 12.5955 5.00489C13.802 5.07042 14.6623 5.35873 15.5726 5.73008C17.3116 6.43954 18.2061 7.48587 18.2061 7.48587Z" fill="#74FA39"/>
<path d="M7.06104 18.0201L7.78622 17.2568C7.78622 17.2568 8.44364 18.0564 9.54194 18.7454C10.5561 19.3816 11.98 19.9108 12.8244 19.9286C13.6654 19.9463 14.5513 19.839 15.3053 19.5851C16.7831 19.0872 17.8625 18.2492 17.8625 18.2492C17.8625 18.2492 16.9992 19.1548 15.6488 19.8141C14.7662 20.2449 13.546 20.5486 12.6717 20.5011C11.4652 20.4355 10.6049 20.1473 9.69461 19.7759C7.9556 19.0664 7.06104 18.0201 7.06104 18.0201Z" fill="#DA433F"/>
</svg>
