<svg width="22" height="22" viewBox="0 0 22 22" fill="none" xmlns="http://www.w3.org/2000/svg">
    <path d="M2.106 17.15a11.197 11.197 0 0 0 7.919 4.599c-.808-1.215-1.982-2.333-3.447-3.184-1.465-.852-3.017-1.316-4.472-1.416z" fill="#464646"/>
    <path d="M8.547 15.176c-2.823-1.64-5.878-2.058-8.065-1.32.211.698.49 1.373.831 2.017 1.9-.044 3.974.472 5.904 1.592 1.93 1.121 3.406 2.668 4.309 4.34a11.309 11.309 0 0 0 2.165-.277c-.442-2.264-2.322-4.712-5.144-6.352zM22 8.518A11.19 11.19 0 0 0 8.072.427c2.416.296 5.098 1.202 7.728 2.73s4.747 3.408 6.2 5.361zM18.485 13.873c-1.236-2.054-3.355-4.02-5.964-5.536C9.91 6.82 7.154 5.955 4.76 5.897c-2.107-.05-3.688.563-4.336 1.68-.004.007-.01.013-.013.02-.059.21-.109.42-.155.63.906-.358 1.956-.557 3.124-.58 2.596-.048 5.501.782 8.183 2.34 2.68 1.558 4.843 3.671 6.086 5.95.557 1.027.905 2.037 1.043 3.003.16-.143.318-.292.47-.446.005-.007.007-.014.011-.021.65-1.119.398-2.795-.688-4.6z" fill="#464646"/>
    <path d="M10.535 11.754C6.54 9.432 2.123 9.068 0 10.688c.004.508.043 1.014.116 1.516a8.792 8.792 0 0 1 1.92-.356c2.372-.178 4.989.483 7.363 1.863 2.374 1.38 4.245 3.326 5.266 5.474.282.589.497 1.207.642 1.843.472-.185.93-.402 1.374-.649.355-2.647-2.148-6.304-6.146-8.625zM20.54 10.435c-1.25-2.051-3.387-4.023-6.015-5.549C11.897 3.36 9.13 2.481 6.727 2.41c-1.83-.053-3.25.391-3.985 1.23 3.054-.518 7.082.352 10.986 2.62 3.904 2.268 6.656 5.337 7.718 8.245.364-1.053.047-2.505-.905-4.07z" fill="#464646"/>
</svg>
