<svg width="45" height="45" fill="none" xmlns="http://www.w3.org/2000/svg">
    <circle cx="23" cy="23" r="20" fill="#fff"/>
    <path d="M22.5 0C10.108 0 0 10.108 0 22.5S10.108 45 22.5 45 45 34.892 45 22.5 34.892 0 22.5 0zm9.415 17.446h-1.384l-4.293 4.985 4.293 4.984h1.384v4.016h-9.069v-4.016h1.385l-2.839-3.184h-1.177v3.323h1.593v4.015h-8.793v-4.015h1.939V17.515h-1.939V13.5h2.216v1.523h1.177V13.5h2.146v1.523h1.177V13.5h2.146v3.946h-1.592v3.323h1.177l2.838-3.323h-1.385V13.5h9.139l-.139 3.946z" fill="#000"/>
</svg>
