<svg width="45" height="45" viewBox="0 0 45 45" fill="none" xmlns="http://www.w3.org/2000/svg">
<circle cx="23" cy="23" r="20" fill="white"/>
<path d="M22.5 0C10.1077 0 0 10.1077 0 22.5C0 34.8923 10.1077 45 22.5 45C34.8923 45 45 34.8923 45 22.5C45 10.1077 34.8923 0 22.5 0ZM31.9154 17.4462H30.5308L26.2385 22.4308L30.5308 27.4154H31.9154V31.4308H22.8462V27.4154H24.2308L21.3923 24.2308H20.2154V27.5538H21.8077V31.5692H13.0154V27.5538H14.9538V22.5692V17.5154H13.0154V13.5H15.2308V15.0231H16.4077V13.5H18.5538V15.0231H19.7308V13.5H21.8769V17.4462H20.2846V20.7692H21.4615L24.3 17.4462H22.9154V13.5H32.0538L31.9154 17.4462Z" fill="black"/>
</svg>
