<svg width="25" height="25" viewBox="0 0 25 25" fill="none" xmlns="http://www.w3.org/2000/svg">
<ellipse cx="12.7779" cy="12.7781" rx="11.1111" ry="11.1111" fill="white"/>
<path d="M12.5 0C5.61539 0 0 5.61539 0 12.5C0 19.3846 5.61539 25 12.5 25C19.3846 25 25 19.3846 25 12.5C25 5.61539 19.3846 0 12.5 0ZM17.7308 9.69231H16.9615L14.5769 12.4615L16.9615 15.2308H17.7308V17.4615H12.6923V15.2308H13.4615L11.8846 13.4615H11.2308V15.3077H12.1154V17.5385H7.23077V15.3077H8.30769V12.5385V9.73077H7.23077V7.5H8.46154V8.34615H9.11539V7.5H10.3077V8.34615H10.9615V7.5H12.1538V9.69231H11.2692V11.5385H11.9231L13.5 9.69231H12.7308V7.5H17.8077L17.7308 9.69231Z" fill="black"/>
</svg>
