<svg width="45" height="45" viewBox="0 0 45 45" fill="none" xmlns="http://www.w3.org/2000/svg">
    <circle cx="22.5" cy="22.5" r="22.5" fill="#DBDBDB"/>
    <path d="M28.05 19.182h-1.808v-1.808a1.162 1.162 0 0 1 1.162-1.162h.647a1.162 1.162 0 0 1 1.162 1.162v.647a1.162 1.162 0 0 1-1.162 1.161zm-10.292 0h-1.809a1.162 1.162 0 0 1-1.162-1.162v-.646a1.162 1.162 0 0 1 1.162-1.162h.647a1.162 1.162 0 0 1 1.162 1.162v1.808zm-1.162 11.03h-.647a1.162 1.162 0 0 1-1.162-1.161v-.646a1.162 1.162 0 0 1 1.162-1.163h1.809v1.809a1.162 1.162 0 0 1-1.162 1.162zm11.455 0h-.647a1.162 1.162 0 0 1-1.162-1.161v-1.808h1.808a1.162 1.162 0 0 1 1.162 1.162v.646a1.162 1.162 0 0 1-1.162 1.162" fill="#005FFF"/>
    <path d="M22.535 16.212h-.646a1.162 1.162 0 0 1-1.162-1.162v-.646a1.162 1.162 0 0 1 1.162-1.162h.646a1.162 1.162 0 0 1 1.162 1.162v.647a1.162 1.162 0 0 1-1.162 1.162zm0 16.97h-.646a1.162 1.162 0 0 1-1.162-1.162v-.647a1.162 1.162 0 0 1 1.162-1.162h.646a1.162 1.162 0 0 1 1.162 1.162v.647a1.162 1.162 0 0 1-1.162 1.162zm8.485-8.485h-.646a1.162 1.162 0 0 1-1.162-1.162v-.647a1.162 1.162 0 0 1 1.162-1.162h.646a1.162 1.162 0 0 1 1.162 1.162v.647a1.162 1.162 0 0 1-1.162 1.162zm-16.97 0h-.646a1.162 1.162 0 0 1-1.162-1.162v-.647a1.162 1.162 0 0 1 1.162-1.162h.647a1.162 1.162 0 0 1 1.162 1.162v.647a1.164 1.164 0 0 1-1.162 1.162" fill="#0CE"/>
    <path d="M25.458 34.355a.848.848 0 1 1 1.566-.65.848.848 0 0 1-1.566.65zM16.549 12.72a.849.849 0 1 1 1.568-.65.849.849 0 0 1-1.568.65zm16.382 6.823a.848.848 0 1 1-.65-1.566.848.848 0 0 1 .65 1.566zm-21.213 8.909a.849.849 0 1 1-.649-1.568.849.849 0 0 1 .65 1.568z" fill="#005FFF"/>
    <path d="M32.281 28.45a.848.848 0 1 1 .65-1.566.848.848 0 0 1-.65 1.567zM11.07 19.543a.848.848 0 1 1 .65-1.566.848.848 0 0 1-.65 1.566zm15.957-6.823a.848.848 0 1 1-1.568-.65.848.848 0 0 1 1.568.65zm-8.909 21.636a.848.848 0 1 1-1.567-.65.848.848 0 0 1 1.567.65z" fill="#002DAE"/>
    <path d="M31.033 33.057a.425.425 0 1 1 .602-.6.425.425 0 0 1-.602.6zm-19.09-19.09a.424.424 0 1 1 .6-.6.424.424 0 0 1-.6.6zm19.69 0a.423.423 0 0 1-.724-.3.424.424 0 1 1 .724.3zm-19.09 19.09a.424.424 0 1 1-.6-.6.424.424 0 0 1 .6.6z" fill="#0099C0"/>
    <path d="M35.576 23.425a.424.424 0 1 1 0-.85.424.424 0 0 1 0 .85zM8.424 23.425a.424.424 0 1 1 0-.849.424.424 0 0 1 0 .849zM22.424 9.424a.424.424 0 1 1-.848 0 .424.424 0 0 1 .848 0zM22.424 36.576a.424.424 0 1 1-.848 0 .424.424 0 0 1 .848 0z" fill="#0029C0"/>
    <path d="M24.831 21.586h.634a.778.778 0 0 0 .777-.778v-2.05h-2.05a.778.778 0 0 0-.778.778v.636a1.414 1.414 0 0 1-2.828 0v-.665a.75.75 0 0 0-.75-.75h-2.078v8.485h2.062a.766.766 0 0 0 .766-.766v-.648A1.414 1.414 0 0 1 22 24.414v.003a1.414 1.414 0 0 1 1.414 1.414v.639a.772.772 0 0 0 .772.772h2.056v-2.056a.772.772 0 0 0-.772-.772h-.642A1.414 1.414 0 0 1 23.414 23h.003a1.414 1.414 0 0 1 1.414-1.414" fill="#003EC5"/>
</svg>
