<svg width="25" height="25" viewBox="0 0 25 25" fill="none" xmlns="http://www.w3.org/2000/svg">
    <circle cx="12.5" cy="12.5" r="12.5" fill="#DBDBDB"/>
    <path d="M15.584 10.656h-1.005V9.651a.646.646 0 0 1 .645-.645h.36a.646.646 0 0 1 .645.645v.36a.646.646 0 0 1-.645.645zm-5.718 0H8.86a.645.645 0 0 1-.646-.646v-.359a.645.645 0 0 1 .646-.645h.359a.646.646 0 0 1 .646.645v1.005zm-.646 6.128h-.36a.646.646 0 0 1-.645-.645v-.36a.645.645 0 0 1 .646-.645h1.005v1.005a.645.645 0 0 1-.646.645zm6.364 0h-.36a.646.646 0 0 1-.645-.645v-1.005h1.004a.646.646 0 0 1 .646.646v.359a.645.645 0 0 1-.646.645" fill="#005FFF"/>
    <path d="M12.52 9.007h-.36a.646.646 0 0 1-.645-.646v-.359a.646.646 0 0 1 .645-.646h.36a.645.645 0 0 1 .645.646v.36a.645.645 0 0 1-.645.645zm0 9.427h-.36a.646.646 0 0 1-.645-.646v-.359a.646.646 0 0 1 .645-.645h.36a.645.645 0 0 1 .645.645v.36a.645.645 0 0 1-.645.645zm4.713-4.714h-.359a.646.646 0 0 1-.645-.645v-.36a.645.645 0 0 1 .645-.645h.36a.646.646 0 0 1 .645.645v.36a.645.645 0 0 1-.646.645zm-9.427 0h-.36a.645.645 0 0 1-.645-.645v-.36a.645.645 0 0 1 .646-.645h.359a.646.646 0 0 1 .645.645v.36a.646.646 0 0 1-.645.645" fill="#0CE"/>
    <path d="M14.143 19.086a.472.472 0 1 1 .872-.36.472.472 0 0 1-.872.36zM9.194 7.066a.471.471 0 1 1 .871-.361.471.471 0 0 1-.87.36zm9.1 3.79a.471.471 0 1 1-.36-.87.471.471 0 0 1 .36.87zM6.51 15.806a.472.472 0 1 1-.36-.872.472.472 0 0 1 .36.872z" fill="#005FFF"/>
    <path d="M17.934 15.806a.472.472 0 1 1 .361-.872.472.472 0 0 1-.361.872zM6.15 10.856a.471.471 0 1 1 .36-.87.471.471 0 0 1-.36.87zm8.864-3.79a.471.471 0 1 1-.87-.361.471.471 0 0 1 .87.36zm-4.95 12.02a.47.47 0 1 1-.87-.36.47.47 0 0 1 .87.36z" fill="#002DAE"/>
    <path d="M17.24 18.365a.236.236 0 0 1 .036-.363.236.236 0 1 1-.035.363zM6.636 7.759a.236.236 0 1 1 .333-.333.236.236 0 0 1-.333.333zm10.939 0a.236.236 0 1 1-.334-.334.236.236 0 0 1 .334.334zM6.968 18.365a.236.236 0 1 1-.334-.334.236.236 0 0 1 .334.334z" fill="#0099C0"/>
    <path d="M19.764 13.013a.236.236 0 1 1 0-.471.236.236 0 0 1 0 .471zM4.68 13.013a.236.236 0 1 1 0-.471.236.236 0 0 1 0 .471zM12.458 5.236a.236.236 0 1 1-.471 0 .236.236 0 0 1 .47 0zM12.458 20.32a.236.236 0 1 1-.471 0 .236.236 0 0 1 .47 0z" fill="#0029C0"/>
    <path d="M13.795 11.992h.352a.433.433 0 0 0 .432-.432v-1.14H13.44a.432.432 0 0 0-.432.433v.354a.786.786 0 0 1-1.571 0v-.37a.417.417 0 0 0-.417-.416H9.865v4.713h1.146a.425.425 0 0 0 .426-.425v-.36a.786.786 0 0 1 .785-.786v.002a.785.785 0 0 1 .786.785v.355a.429.429 0 0 0 .429.43h1.142v-1.143a.43.43 0 0 0-.43-.429h-.356a.786.786 0 0 1-.785-.785h.001a.785.785 0 0 1 .786-.786" fill="#003EC5"/>
</svg>
