<svg width="40" height="40" viewBox="0 0 40 40" fill="none" xmlns="http://www.w3.org/2000/svg">
    <circle cx="20" cy="20" r="20" fill="#DBDBDB"/>
    <path d="M24.934 17.05h-1.608v-1.607a1.033 1.033 0 0 1 1.033-1.033h.575a1.033 1.033 0 0 1 1.033 1.033v.575a1.033 1.033 0 0 1-1.033 1.032zm-9.15 0h-1.607a1.033 1.033 0 0 1-1.033-1.032v-.575a1.032 1.032 0 0 1 1.033-1.033h.575a1.033 1.033 0 0 1 1.033 1.033v1.607zm-1.032 9.805h-.575a1.033 1.033 0 0 1-1.033-1.033v-.574a1.033 1.033 0 0 1 1.033-1.033h1.608v1.607a1.033 1.033 0 0 1-1.033 1.033zm10.182 0h-.575a1.033 1.033 0 0 1-1.033-1.033v-1.607h1.607a1.033 1.033 0 0 1 1.033 1.033v.575a1.033 1.033 0 0 1-1.033 1.033" fill="#005FFF"/>
    <path d="M20.032 14.41h-.575a1.033 1.033 0 0 1-1.033-1.032v-.575a1.033 1.033 0 0 1 1.033-1.032h.574a1.033 1.033 0 0 1 1.033 1.032v.575a1.033 1.033 0 0 1-1.033 1.033zm0 15.085h-.575a1.033 1.033 0 0 1-1.033-1.033v-.575a1.033 1.033 0 0 1 1.033-1.033h.574a1.033 1.033 0 0 1 1.033 1.033v.575a1.033 1.033 0 0 1-1.033 1.033zm7.542-7.542h-.575a1.033 1.033 0 0 1-1.033-1.033v-.575a1.033 1.033 0 0 1 1.033-1.033h.575a1.033 1.033 0 0 1 1.032 1.033v.575a1.033 1.033 0 0 1-1.032 1.033zm-15.085 0h-.574a1.033 1.033 0 0 1-1.033-1.033v-.575a1.033 1.033 0 0 1 1.033-1.033h.574a1.031 1.031 0 0 1 1.033 1.033v.575a1.033 1.033 0 0 1-1.033 1.033" fill="#0CE"/>
    <path d="M22.63 30.538a.754.754 0 1 1 1.392-.578.754.754 0 0 1-1.393.578zm-7.92-19.233a.754.754 0 1 1 1.394-.577.754.754 0 0 1-1.393.577zm14.562 6.066a.753.753 0 1 1-.577-1.392.753.753 0 0 1 .577 1.392zm-18.856 7.918a.754.754 0 1 1-.577-1.394.754.754 0 0 1 .577 1.394z" fill="#005FFF"/>
    <path d="M28.695 25.29a.754.754 0 1 1 .577-1.394.754.754 0 0 1-.577 1.393zM9.838 17.37a.754.754 0 1 1 .578-1.393.754.754 0 0 1-.578 1.394zm14.184-6.065a.754.754 0 1 1-1.393-.577.754.754 0 0 1 1.393.578zm-7.919 19.233a.754.754 0 1 1-1.393-.578.754.754 0 0 1 1.393.578z" fill="#002DAE"/>
    <path d="M27.585 29.384a.377.377 0 1 1 .534-.533.377.377 0 0 1-.534.533zm-16.97-16.97a.377.377 0 1 1 .535-.533.377.377 0 0 1-.534.534zm17.504 0a.378.378 0 0 1-.644-.266.377.377 0 1 1 .644.267zm-16.97 16.97a.377.377 0 1 1-.533-.532.377.377 0 0 1 .533.532z" fill="#0099C0"/>
    <path d="M31.623 20.821a.377.377 0 1 1 0-.754.377.377 0 0 1 0 .754zM7.488 20.821a.377.377 0 1 1 0-.754.377.377 0 0 1 0 .754zM19.933 8.377a.377.377 0 1 1-.754 0 .377.377 0 0 1 .754 0zM19.933 32.512a.377.377 0 1 1-.754 0 .377.377 0 0 1 .754 0z" fill="#0029C0"/>
    <path d="M22.072 19.188h.563a.691.691 0 0 0 .691-.692v-1.822h-1.822a.692.692 0 0 0-.692.691v.566a1.257 1.257 0 0 1-2.513 0v-.59a.667.667 0 0 0-.667-.667h-1.847v7.541h1.833a.68.68 0 0 0 .68-.68v-.577a1.257 1.257 0 0 1 1.258-1.257v.003a1.257 1.257 0 0 1 1.256 1.257v.568a.686.686 0 0 0 .687.686h1.827v-1.827a.686.686 0 0 0-.686-.687h-.57a1.257 1.257 0 0 1-1.258-1.256h.003a1.257 1.257 0 0 1 1.257-1.257" fill="#003EC5"/>
</svg>
