<svg width="45" height="45" viewBox="0 0 45 45" fill="none" xmlns="http://www.w3.org/2000/svg">
    <path d="M22.5 45C34.926 45 45 34.926 45 22.5S34.926 0 22.5 0 0 10.074 0 22.5 10.074 45 22.5 45z" fill="#988430"/>
    <path d="M22.5 44.28c12.028 0 21.78-9.752 21.78-21.78S34.527.72 22.5.72.72 10.473.72 22.5s9.752 21.78 21.78 21.78z" fill="#7A6A2A"/>
    <path d="M22.5 43.82c11.775 0 21.32-9.545 21.32-21.32S34.276 1.18 22.5 1.18 1.18 10.725 1.18 22.5s9.545 21.32 21.32 21.32z" fill="#BA9F33"/>
    <path fill-rule="evenodd" clip-rule="evenodd" d="M9.838 20.097c-.128-.116-.263-.233-.386-.35a36.218 36.218 0 0 0-.379-.349l-.379-.36c-.061-.061-.127-.116-.189-.178l-.196-.171c-.503-.477-1.008-.954-1.504-1.431.513.47 1.016.936 1.53 1.413l.178.178c.061.062.127.116.189.178l.378.35c.128.116.252.233.38.36.127.127.25.244.378.36zm-6.67-.072s1.827.19 2.72.317c.826.117 3.41.513 3.41.513l-6.13-.83zm0 0c.513.044 1.026.098 1.54.153.262.026.513.055.764.08l.386.044.379.055 1.53.243.764.128c.25.043.502.09.764.135a17.998 17.998 0 0 1-.764-.099l-.765-.109-1.53-.226c-.127-.018-.25-.043-.378-.061l-.386-.045c-.251-.025-.513-.062-.764-.091a44.387 44.387 0 0 1-1.54-.207zm5.949 1.306s-1.952.496-2.61.685c-.649.178-2.611.776-2.611.776l5.22-1.46z" fill="#CFB66C"/>
    <path fill-rule="evenodd" clip-rule="evenodd" d="M9.116 21.331c-.433.128-.864.251-1.303.368l-1.304.35c-.433.127-.864.25-1.296.378l-.648.178c-.214.062-.433.117-.655.179.215-.072.433-.146.648-.208l.648-.207c.433-.135.864-.262 1.296-.397.44-.11.874-.226 1.314-.331.419-.106.86-.211 1.3-.31zM4.17 23.993c.214-.08 2.69-1.234 3.265-1.504.288-.135 1.125-.432 1.125-.432l-4.39 1.936z" fill="#CFB66C"/>
    <path fill-rule="evenodd" clip-rule="evenodd" d="M4.169 23.993c.189-.072.367-.16.55-.244l.538-.251 1.082-.52c.36-.172.71-.36 1.08-.521.19-.08.38-.146.569-.208l.288-.09c.098-.026.189-.055.288-.08-.36.17-.74.316-1.1.483-.36.179-.728.324-1.1.485l-1.099.484c-.37.15-.73.31-1.097.462zm.24 1.008s2.242-1.314 3.014-1.737a69.545 69.545 0 0 1 1.711-.873L4.41 25z" fill="#CFB66C"/>
    <path fill-rule="evenodd" clip-rule="evenodd" d="M4.41 25.002c.378-.234.764-.47 1.15-.71l.576-.35c.196-.116.385-.226.586-.342.196-.117.386-.233.586-.342.095-.06.195-.11.298-.153l.306-.153c.404-.197.809-.397 1.235-.568-.386.244-.783.451-1.18.666-.197.11-.397.208-.594.317-.196.109-.386.226-.586.331-.196.117-.386.226-.586.331l-.593.325-1.198.648zm4.707-2.323s-1.395 1.07-1.846 1.412c-.452.342-1.78 1.304-1.78 1.304l3.626-2.716z" fill="#CFB66C"/>
    <path fill-rule="evenodd" clip-rule="evenodd" d="m17.119 31.31-.714-1.35.415-1.69 2.96-1.143-1.26-2.585.623-2.61 1.169-2.338 3.611-.568 2.654-2.53 5.731.433 1.125 6.128-2.166 7.715-1.234 3.994-5.003.189-2.323-1.61-2.72-1.135-2.868-.9z" fill="#E2CC85"/>
    <path fill-rule="evenodd" clip-rule="evenodd" d="M25.893 31.267s-.692.316-1.872.243c-.341-.458-2.733-.673-2.733-.673s-.299-.091-.827.127c-.531.216-1.034.19-1.503.306-.47.117-.936-.495-1.296-.622-.36-.135-.838-.459-.838-.459l-1.008-.098-2.024-.856-3.216-3.204-.873 1.368-.27 1.693.972 2.006 2.618 2.385 5.104 1.296 3.026-.891 3.79-1.602.95-1.02z" fill="#F1D789"/>
    <path fill-rule="evenodd" clip-rule="evenodd" d="m7.758 19.944.648-1.962.773-1.268 2.486-.207-.746 2.177-2.08 3.7.864 3.301-1.53.765-.47-.72-.378-1.654L7.3 22.22l.458-2.275z" fill="#F4ECB4"/>
    <path fill-rule="evenodd" clip-rule="evenodd" d="m10.547 31.132-.477-.666s-.127-.317-.054-.594c.072-.28.061-.298.025-.404-.036-.106-.342-.47-.324-.783.018-.317-.025-.422.208-.673.243-.244.17-.667.17-.667l.317.197.072-.11s.117.092.117.234c.025-.197-.08-1.107.16-1.314.24-.208.666.972.666.972l-.262-1.712-.674-1.754-1.197-1.602-.072-1.766v-.153s-.55.845-.703 1.512c-.11.459.153 1.016.098 1.675-.044.655-.098.604.062.864s.55.793.397 1.18c-.135.33-.594.098-.594.098s-.09.269-.214.367a.815.815 0 0 0-.179-.36 1.98 1.98 0 0 1-.025.146s-.08-.251-.16-.568c-.11-.422-.226-.98-.332-1.278-.043.171-.153.692-.153.692l.062.801.299 1.1.288.72.28.88.244.592.196.452.172 1.016.826.873.44.197.32-.164h.001z" fill="#F3E19D"/>
    <path fill-rule="evenodd" clip-rule="evenodd" d="M8.192 18.342s-.594 1.008-.765 2.024c-.17 1.017-.324 2.09-.216 3.474.11 1.394.317 2.25.485 2.861.288 1.016 1.034 2.429 1.034 2.429l.025-.055a3.84 3.84 0 0 1-.299-.746c-.098-.386-.134-.845-.225-1.052-.08-.208-.215-.386-.28-.641-.063-.244-.073-.63-.263-.917-.08-.117-.178-.423-.207-.729-.037-.458.018-.972-.026-1.394-.08-.703-.134-1.18-.062-1.547.073-.368.452-1.413.685-2.243.153-.532.062-.98.342-1.442.28-.459.452-.863.513-1.143.072-.255-.742 1.121-.742 1.121z" fill="#F2E8B0"/>
    <path fill-rule="evenodd" clip-rule="evenodd" d="M11.006 17.939s-.305.09-.451.25c-.146.154-.208.281-.404.54-.197.258-.208.47-.368.793-.16.317-.514.794-.557.965-.044.171-.117.972-.208 1.35-.08.38.091.846.091.846l.208-.044s0 .27.207.451c.208.179.244-.604.244-.604l.776-2.618 1.168-.794.128-.64-.834-.495z" fill="#F5EEC0"/>
    <path fill-rule="evenodd" clip-rule="evenodd" d="M11.574 19.125s-.55.036-.819.233c-.11.08-.153.146-.27.244-.214.178-.433.342-.538.576-.117.233-.244.586-.332 1.252-.036.28-.036.54-.061.765-.037.306-.091.55-.062.72.036.35.397.532.432.928l.746-.378.703-2.77 1.493-.937-.845-.947-.448.313.001.001z" fill="#E6DB9D"/>
    <path fill-rule="evenodd" clip-rule="evenodd" d="m7.636 37.783.01-.083c.109-.936.127-1.645.207-2.09.117-.629.197-.863.179-1.099-.026-.378-.055-.655-.018-.946.054-.386.433-.845.422-1.162-.008-.251-.135-.415-.244-.568-.11-.152-.197-.28-.197-.28s.747-.513.74-2.581c.015.004.03.01.043.018l.368 1.045.251.305.965 1.799 1.241 1.205 1.835 1.234 1.15 1.252.117 3.339-1.503 1.951-.247.446a21.39 21.39 0 0 1-5.319-3.785z" fill="#E5CB7A"/>
    <path fill-rule="evenodd" clip-rule="evenodd" d="M12.23 40.977s.025-.415.367-.685c.055.091.091.179.08.244a2.171 2.171 0 0 1 1.475-.99c.98-.178 1.216-.892 1.216-.892l2.079-1.89 2.377-2.188 2.89-1.016 1.352-.33s.025.098-.026.316c.251-.018.809-.146 1.387-.35.233-.09.452-.127.568-.007.171.16.197.539.208.765.28-.062.604-.332.864-.306.415.044.783.531 1.205.531.557 0 .808-.342 1.198-.611.233-.16.568-.36.757-.495.451-.332 5.228-1.792 5.228-1.792l1.675.11.27 1.798-.145 4.702-.053.051-7.615 3.977-10.555 1.619a21.171 21.171 0 0 1-6.748-2.321l-.054-.24z" fill="#D8C173"/>
    <path fill-rule="evenodd" clip-rule="evenodd" d="M8.276 38.38c.15-.313.285-.575.309-.67.019.19.053.605.122 1.046a22.397 22.397 0 0 1-.43-.376z" fill="#F1D789"/>
    <path fill-rule="evenodd" clip-rule="evenodd" d="m15.987 42.806 1.365-.38.117.037s.061.036.061.16c.172-.098.317-.08.423-.146.054.117.109.503.35.55.25.055.52-.11.793-.317.27-.215.576-.484.808-.593.085.156.16.318.226.484.306-.244.837-1.234 1.595-1.216a2.873 2.873 0 0 1 1.051-1.27c.703-.478 1.143-.514 1.693-.47.218-.284.488-.525.794-.71.09.036.342.189.655.043.317-.145.674-.71 1.143-.782.253-.035.51.019.729.153 0 0 1.367-1.359 2.311-1.81-.036-.11-.109-.52.998-1.431.062.055.018.208.062.216.018 0 .288-.116.63-.379.422-.316.928-.648 1.234-.739.576-.17 1.187.179 1.187.179a.545.545 0 0 1 .17-.08c.146-.026.252-.044.332-.072-.007.189.098.513 0 .793.114.064.235.116.36.153-.062.135-.197.477-.422.64.189.092.214.197.484.289-.11.153-.288.415-.368.576-.08.171-.368.88-.495 1.15-.135.27-.317.765-.404.864-.088.1-.404.52-.648.728.216-.08 1.1-.35 1.474-.451l-1.22 1.81a21.363 21.363 0 0 1-17.49 2.024l.002-.003z" fill="#E0CD81"/>
    <path fill-rule="evenodd" clip-rule="evenodd" d="M11.664 19.027s-.316 0-.378.044c-.062.043.316.135.433.178.116.044.367.244.433.405.062.152 2.275 1.044 2.275 1.044l1.566-.08.54-.746-1.027-.899.72-2.122-.954.152-2.293 1.369-1.151.44-.164.215z" fill="#DFC57C"/>
    <path fill-rule="evenodd" clip-rule="evenodd" d="M15.102 19.73a.245.245 0 0 0 .216.116c.324 0 .622.08.746.244.208.262.783 1.1.783 1.1l1.376.495.089-1.62-1.504-1.046-1.71.63v.08h.004z" fill="#E5CC7C"/>
    <path fill-rule="evenodd" clip-rule="evenodd" d="M14.832 20.33s.25.019.568-.098c.316-.117.837-.368 1.063-.27.316.135.251.558.593.937.208.233.586.226.801.477.215.251.954.135.954.135l.28 1.512-1.125 1.442-.367 1.79h-1.521l-1.39-.55-.685-1.657.343-1.674.486-2.043z" fill="#D2C281"/>
    <path fill-rule="evenodd" clip-rule="evenodd" d="M17.774 20.403a.41.41 0 0 0 .117.018c-.044.036-.135.116-.099.324.037.207.153.47.055.63a.788.788 0 0 1 .171.298c.062.179.08.343.484.368a.852.852 0 0 0-.16.128s.28.244.423.47c.145-.007.53-.127.53-.127l.081.055.171-.073s-.16-.061-.044-.45c.11-.343.208-.325.216-.35a3.58 3.58 0 0 0 .08-.532c.055-.19.099-.764.099-.764l-.117-1.27-.655-.398-.533-.514-.502.946-.331.33-.026.82.04.09z" fill="#E2C270"/>
    <path fill-rule="evenodd" clip-rule="evenodd" d="M19.35 19.34s.117.33.16.586a.563.563 0 0 0 .026-.153s.091.502.11.71c.036-.008.071-.018.08.018.008.036.09.44.072.666.151-.25.36-.46.611-.611.146-.091.317-.19.495-.197.28-.007.484.178.82.178.808 0 1.54-.593 2.078-.775.397-.135.74-.233.98-.452.116-.098.324-.316.513-.64.251-.433.513-.809.776-.856-.12.022-.24.03-.36.026 0 0 .08-.08.216-.19.135-.109.298-.244.53-.244.416 0 .623.062.857.062.233-.007.367-.062.367-.062s.244.172.794.172c.55.007.917.054 1.205.08.288.025 1.253-.08 1.53-.072.18.007.357.05.52.127l-.892-2.592-3.204-2.8-1.908 1.35-2.935 2.934-2.84 1.053-.593.666v1.016h-.007z" fill="#CCB360"/>
    <path fill-rule="evenodd" clip-rule="evenodd" d="M25.722 17.854s.08-.08.215-.189c.134-.109.299-.244.531-.244.416 0 .623.062.856.062a1.16 1.16 0 0 0 .368-.062s.244.171.793.171c.55.007.918.055 1.206.08.288.025 1.252-.08 1.529-.072.18.007.357.05.52.127l-.404-1.168-.47-.892-1.34-1.468-1.62-.953c-.007-.008-.556-.153-.556-.153l-1.457.88-1.321 3.42-.026.72.856.404c.214-.36.451-.648.673-.685-.2.022-.353.022-.353.022z" fill="#D5B457"/>
    <path fill-rule="evenodd" clip-rule="evenodd" d="M25.704 18.098c-.127.007-.233-.018-.262-.11-.109-.305-.196-.349-.288-.349-.091 0-.215.197-.288.215-.073.018-.16-.226-.16-.226l-.08-.036s-.47.306-.801.666c-.331.36-.874.972-1.118 1.081-.244.11-1.081.146-1.368.208-.286.062-.604.27-.648.317-.043.047.128.098.154.145.025.044-.281.026-.306.072-.019.037.071.244.116.35a.593.593 0 0 1 .251-.062c.28-.008.485.178.82.178.808 0 1.54-.593 2.078-.776.397-.134.74-.233.98-.451.116-.098.324-.317.513-.64.138-.223.273-.43.408-.583v.001z" fill="#D2B257"/>
    <path fill-rule="evenodd" clip-rule="evenodd" d="M14.112 36.117s-.072-.27-.74-.965c-.189-.197-.305-.36-.432-.477-.317-.299-.503-.379-.729-.55-.495-.367-1.034-.367-1.449-.819-.415-.451-.898-1.314-1.234-2.195-.331-.881-.423-1.162-.423-1.187 0-.026.092-.197.208-.171.116.025.116.25.146.305.058.09.124.174.196.251.171.197.415.432.54.783-.026-.298-.128-.63-.128-.63s.64.405 1.187.827c.55.422.775.568.936.837.16.27.538.98.72 1.187.18.208 2.663.99 2.663.99l1.181.881.587 1.285-.46.72-.88.19-1.431-.641-.458-.622z" fill="#D2B159"/>
    <path fill-rule="evenodd" clip-rule="evenodd" d="M10.933 31.69s.299.476 1.027.927c.655.397 1.693.758 2.618.973.531.127 1.063.225 1.54.233 1.285.018 2.17-.35 3.266-.47.593-.062 1.321-.11 2.078-.288.972-.233 1.548-.495 2.33-.864.568-.262 1.09-.459 1.511-.71.594-.35 1.027-.739 1.53-.855-.062.17-.128.477-.623.793.262-.007.623-.025.623-.025s-.35.207-.965.673c-.379.288-.881.776-1.395 1.1-.331.208-.691.36-.928.484-.576.317-.809.477-1.187.864a.513.513 0 0 1 .146 0s-.477.062-.82.244c-.071 0-.196-.025-.415.037-.17.054-.396.178-.63.243-.33.099-.44.055-.44.055l.055.11s-.432-.008-.576.007c.025.007.018.018.018.018a.22.22 0 0 0-.072.025.751.751 0 0 1-.226.098c-.043.008-.08.008-.134.018.018.044.16.288.225.432-.054.037-.873.656-.873.656.025.04.046.083.061.127.026.08.037.197.062.252.062.109.098.127.098.127s-.098.018-.269.062c-.146.036-.324.098-.576.134a2.3 2.3 0 0 1-.233.019c.036.08.197.386-.099.739-.294.353-.385.404-.476.63a.969.969 0 0 0-.146-.091c-.098-.044-.233-.11-.28-.197a2.344 2.344 0 0 1-.11.342c-.09.244-.225.484-.25.666-.099-.109-.28-.324-.532-.28-.252.044-.452.386-.495.484 0-.062-.044-.109-.055-.036-.007.08-.146.917-.917 1.595-.007-.172-.007-.55-.026-.674-.072.072-.16.178-.684.404-.514.226-.432.452-.432.452s-.044-.36.233-.74c.28-.378.451-.557.451-.586a.163.163 0 0 0-.036-.08c-.037-.036-.11-.08-.11-.109.044-.018.478-.226.452-.655a1.162 1.162 0 0 0-.306-.728c-.018-.019.172-.153.146-.197-.018-.025-.251-.197-.28-.288a.835.835 0 0 1 .036-.16c.025-.08.044-.135.037-.19-.019-.09-.117-.342-.146-.367.025.007.207 0 .207 0s-.145-.233-.17-.342c-.027-.11-.081-.397-.11-.452.062.008.215.018.215 0 .007-.054-.135-.145-.072-.216.043.008.127.044.207.146-.044-.117-.116-.342-.27-.433.073-.026.317-.092.532.036a.714.714 0 0 1 .288.306s.128.098.324.244c.226.178.514.432.972.611.099.055.35.055.532.019a.817.817 0 0 0 .226-.091.423.423 0 0 1 .08-.037 1.757 1.757 0 0 0-.135-.226c.062 0 .135.008.135.008s.043-.099-.153-.288c.044-.044.098-.072.098-.146-.062-.007-.17-.098-.196-.135.036-.025.09-.109.153-.134-.055-.044-.19-.226-.252-.244a1.14 1.14 0 0 0 .172-.08s-.306-.08-.405-.146c-.098-.072-.243-.197-.33-.233-.092-.036-.252-.054-.318-.127.062.018.16 0 .233 0 .055 0 .08.007.099.007-.008-.026-.008-.08.134-.098a.663.663 0 0 0 .197-.062s-.135-.008-.288-.153c-.153-.146-.28-.262-.368-.28-.09-.019-.262.062-.367.054-.146-.018-.208-.09-.208-.09s-.484.043-1.558-.612c-.929-.569-1.333-1.07-1.333-1.07a1.593 1.593 0 0 1-.25-.117c-.35-.182-.835-.561-.82-1.056l-.002.003z" fill="#C2A44D"/>
    <path fill-rule="evenodd" clip-rule="evenodd" d="M24.328 9.837a.473.473 0 0 1 .216.146c.17.196.28.568-.11.965.153.054.216.072.35.054-.135.16-.44.503-.459.801-.018.244.135.317.135.317s-.233.27-.244.72c.11-.124.23-.239.36-.342.27-.215.64-.459.892-.612a.512.512 0 0 0 .025.19s.47-.387.864-.215c.179.08.099.331.099.331s.244-.091.415.08c.17.171.413.613.537.784.054.08.196.233.342.47.198.33.364.68.495 1.044.007-.19.055-.484.594-.298.539.189 1.15.586 1.663 1.368.514.781.641 1.664.9 2 .261.324.531.863.55 1.088.017.226-.08.954.458 2.924.153-.612.386-1.97.386-1.97l.127-1.198.146-3.706-3.87-3.215-3.026-2.196-1.97.19.124.28z" fill="#CAA13E"/>
    <path fill-rule="evenodd" clip-rule="evenodd" d="M31.518 15.353s-.055-.36-.965-.972c-.91-.605-1.62-.605-2.275-1.118-.503-.404-1.027-1.333-1.368-1.639-.332-.302-.386-1.176-.386-1.176l1.118-.936 1.662-2.402 1.405-1.548.674.936.936 1.1.52 2.206.19 3.23-1.513 2.319h.002z" fill="#B59544"/>
    <path fill-rule="evenodd" clip-rule="evenodd" d="M32.643 19.224c.028-.49-.033-.98-.178-1.449-.24-.746-.765-2.071-1.008-2.568-.099-.55-.026-.593.08-.655.105-.062.502-.288.72-1.081.217-.794.892-.82.892-.82l.415-.305.63 1.576.55 1.424.17 1.088.128.929-.299 1.962-1.474 1.333-.626-1.434z" fill="#C89D3A"/>
    <path fill-rule="evenodd" clip-rule="evenodd" d="M12.07 41.097v-.04a.309.309 0 0 0 .08-.072c.025-.036.043-.08.061-.09.037-.019.208-.073.299-.056.09.018.331.117.459.11.262-.008.568-.208 1.052-.117.728.135.9.63 1.321.91.288.197.586.11.63.11h.098c.019 0 .153-.153.226-.146.146.007.16.128.251.135.215.025.63-.11.838-.055a.4.4 0 0 1 .163.666c-.225.208-.44.404-.483.576.055.043.108.088.16.136a21.197 21.197 0 0 1-5.156-2.064v-.003z" fill="#CEB052"/>
    <path fill-rule="evenodd" clip-rule="evenodd" d="M31.456 33.823s.568-.757.765-1.133c.197-.386-.622-5.282-.622-5.282l1.645-5.392-.044-1.755s.08-1.62.27-2.323c.226.404.928.892 1.081 1.15.072-.495.317-1.54.28-2.653.135.207.46 2.293.46 2.293l.323 1.405.423 1.493.47 1.577.28 1.088.16.262.135.46.127.494.368 1.162.216.954.17 1.73c.038.131.065.267.081.403.007.19-.025.299-.025.332 0 .033.062.415.036.702-.036.288-.036.514-.262.72-.226.207-.368 1.442-.368 1.442l-.404-.27s.08-.367-.11-.702a.71.71 0 0 0-.764-.35c-.207.044-.622.11-.757.226-.127.117-.44.477-.728.641-.36.216-.947.233-1.26.306-.317.072-.666.288-1.034.539a5.774 5.774 0 0 1-.91.48h-.002z" fill="#CCA847"/>
    <path fill-rule="evenodd" clip-rule="evenodd" d="M31.456 41.778s.024.015.07.04a21.385 21.385 0 0 0 6.817-5.051c-.021-.737-.048-1.492-.078-1.772-.062-.594-.018-1.198-.036-1.547-.018-.35-.215-1.774-.306-2.141-.098-.368-.288-.55-.317-.55-.025.007-.178.692-.178.864 0 .172-.037.586-.037.692-.025-.008-.036-.072-.036-.099-.036.091-.08.252-.098.27-.019.018.025-.153 0-.19-.026-.036-.072-.018-.062-.109.004-.054.013-.107.025-.16 0 0-.11.16-.189.568-.08.404-.08.415-.11.451-.025.044-.17.19-.178.245-.007.098.135.196.146.25.007.092-.128.514-.171.72-.044.207-.026.612-.072.82-.037.19-.072.298-.197.378.091.018.179.044.179.044s.127.539-.197.998c-.116.16-.145.233-.27.378-.243.27-.433.576-.45.776a1.313 1.313 0 0 1-.026-.179s-.379.44-.54.692c-.207.324-.494.306-.575.386-.081.08-.099.226-.072.342-.072.018-.207.044-.299.324a.682.682 0 0 1-.324.386c-.17.098-.379.128-.484.153.09.026.127.026.171.055-.054.09-.306.233-.586.415-.28.17-.415.422-.484.586-.072.153-.179.251-.35.27.072.043.179.145.233.178-.08.018-.216.018-.458.225-.255.212-.343.274-.46.292z" fill="#C39D3C"/>
    <path fill-rule="evenodd" clip-rule="evenodd" d="M26.39 43.465c.14-.097.29-.177.45-.238.568-.226 1.168-.27 1.405-.342.226-.072.404-.171.685-.226l-.02.18c-.827.26-1.669.47-2.52.626z" fill="#D2BA6B"/>
    <path fill-rule="evenodd" clip-rule="evenodd" d="M36.864 28.53s-.116.63-.324 1.026c-.207.397-.432.947-.432.947.002-.124.016-.247.044-.368-.262.153-.9.52-1.08.684-.171.153-.46.423-.532.55.171-.502.35-.954.379-1.161-.262.19-1.486 1.198-2.123 1.864l-1.984 1.605a6.861 6.861 0 0 1-.706.331c-.342.146-.747.27-1.045.386.08-.215.207-.404.386-.586.19-.178.757-.794.845-1.08.08-.299.098-.477-.008-.728-.098.025-.324.036-.477.08-.152.044-.316.207-.316.207s.116-.666.367-1.296c-.19.007-.513.062-.513.062s.451-.757 1.224-1.285c-.237.05-.468.122-.692.215-.451.189-.946.47-1.314.622.207-.288 1.664-2.366 2.53-4.303.864-1.934 1.187-2.429 1.376-3.466.099-.514.072-1.272.099-1.952.025-.673.109-1.278.054-1.682.226.28 1.07 1.07 1.1 2.836.025 1.766-.808 4.151-1.693 5.436.216.062.775.135 1.35-.864.576-.999.569-1.278.776-1.693.026.208.018.28.018.28s.838-1.015 1.234-2.293c.08.55.317 1.034-.054 2.042-.331.91-.765 1.133-.765 1.133s.215-.037.532-.226c.055.134.044.288.135.342.09.054.214.146.233.233.098-.146.25-.331.298-.47-.036.288-.062 1.548.072 2.189.28-.026.568-.044.765-.55-.135.495-.135.793-.044 1.216.15-.102.284-.284.284-.284h.001z" fill="#C0993A"/>
    <path fill-rule="evenodd" clip-rule="evenodd" d="M27.404 8.462s-.28.116-.757.116c-.415 0-.299-.16-.947-.16-.997 0-4.481.576-5.093.568-.397-.007 1.34.17 1.34.17l4.438.063.892-.072.331-.675-.204-.01z" fill="#A88F33"/>
    <path fill-rule="evenodd" clip-rule="evenodd" d="M15.896 17.137s-.568.434-.808.765c-.24.332-.368.55-.641.82a.562.562 0 0 0 .19-.026s0 .072-.045.09a.256.256 0 0 1 .208.073c-.08.043-.299.262-.128.52.128.197.397.215.397.215s-.062.179.197.16c.557-.025 1.18-.269 1.467-.207.288.072.452.098.655.452.216.349.405.404.405.404s.127-.325.098-.809c.105-.26.162-.538.171-.819l-.19-1.394-.825-1.045-1.07.594-.081.207z" fill="#E3C571"/>
    <path fill-rule="evenodd" clip-rule="evenodd" d="M16.911 16.93s.08.189.415.207c-.036.08-.036.091-.025.153l.018.153a.337.337 0 0 0 .098-.072c.018.08-.018.207 0 .298.011.056.03.11.055.16a.324.324 0 0 1 .018-.036c.007-.018.072.197.251.36 0-.025.006-.05.018-.072.003.046.018.09.044.128a.133.133 0 0 1-.036-.026s.018.576.116.874a.41.41 0 0 0 .044-.062c0-.018-.007.16-.026.288-.025.127-.007.306-.007.306a.952.952 0 0 1 .215-.128c.109-.043.288-.178.397-.477.063-.169.112-.343.145-.52.036.068.06.14.072.216.008.09.179.043.179.043l.036-.397.216-.899.197-.557.947-1.474 1.71-1.317 1.493.342 1.26-1.711-2.17-1.304-2.054.215-1.864 2.581-1.492 2.341-.27.386z" fill="#D8B65B"/>
    <path fill-rule="evenodd" clip-rule="evenodd" d="M27.666 13.195s-.127.025-.495.216c-.367.19-.622.25-.764.531-.142.28-.153.503-.153.503s.251-.11.397-.146c.152-.036.324-.025.305.036a.423.423 0 0 1-.072.117s.288-.007.28.135c-.007.142-.054.298-.108.367-.055.072-.28.179-.306.263-.062.17.025.178-.007.316-.026.135-.146.397-.54.856-.403.459-.575.783-.575.783s-.197-.368-.299-.685c-.072.037-.458.251-.458.251l-.896-3.12.018-.207s.08-.098.098-.28c-.134-.044-.153-.08-.331-.252-.179-.17-.324-.378-.623-.52-.043-.08-.098-.19-.316-.233-.219-.044-.35-.08-.35-.08s.117-.044.171-.135c-.134.018-.243.062-.538.054-.299-.007-.332-.018-.495.008-.164.025-.36.098-.434-.153-.08-.062-.251-.008-.397.207-.145.215-.196.386-.477.47a.977.977 0 0 1-.127.35c-.08.134-.208.269-.379.469-.27.317-.226.837-.655 1.234-.433.397.072-1.1.072-1.1l.692-1.655 1.97-1.927 3.058-.207.298 1.584 1.493.514.943 1.438v-.002z" fill="#D3AE4D"/>
    <path fill-rule="evenodd" clip-rule="evenodd" d="m28.15 13.543-1.285-1.853-.899-.692s-.64-1.18-.684-1.216c-.037-.025-.641-.09-1.027-.116l.072.178c.084.028.159.078.216.146.171.197.28.568-.11.965.154.054.217.072.35.054-.135.16-.44.503-.459.801-.018.244.135.317.135.317s-.233.27-.244.72c.11-.124.23-.239.36-.342.27-.216.641-.46.892-.612a.513.513 0 0 0 .026.19s.47-.387.864-.216c.178.08.098.332.098.332s.244-.091.415.08c.171.171.415.612.539.783.055.08.197.233.342.47.199.33.365.68.495 1.044.008-.145.037-.349.288-.349l-.382-.684h-.001z" fill="#CAA13E"/>
    <path fill-rule="evenodd" clip-rule="evenodd" d="M8.884 18.808s-.091-.226 0-.666c.09-.44.233-.648.28-1.296.047-.648.47-1.456.47-1.456l1.168-.532.827.226.244 1.107-1.045.576s-.055.244-.35.44c-.295.197-.702.35-.8.55a1.603 1.603 0 0 0-.128.386s-.299-.062-.477.135c-.19.2-.182.378-.19.531z" fill="#F4EFC8"/>
    <path fill-rule="evenodd" clip-rule="evenodd" d="M11.243 18.514s-.098.062-.171.216c-.072-.117-.244-.809-.251-1.431-.008-.623-.045-.777.1-.992.143-.214.708-.44.628-.827-.08-.367-.415-.52-.827-.415-.288.072-.502.685-.8.99-.227.234-.496.197-.569.325-.098.17-.007.342-.036.451a2.18 2.18 0 0 1-.262.47c-.332.477-.892 1.15-.965 1.755.025-.343.007-.35.098-.729l-.054-.09.36-1.18.233-.972.52-1.628.918-1.663.892-.998.928.062.11 1.394.53 2.618 1.118 1.376-1.79 1.206-.71.062z" fill="#EBCC73"/>
    <path fill-rule="evenodd" clip-rule="evenodd" d="M11.8 19.008s-.153.037-.208.008c-.054-.03-.109-.062-.09-.099.017-.036.116-.098.116-.127a.102.102 0 0 0-.091-.11c-.084-.01-.11.044-.11.044s-.08-.061-.145-.072c.039-.005.078-.007.117-.007a1.137 1.137 0 0 0-.317-.091c.09-.055.27-.215.386-.215.116 0 .19-.018.17-.08-.017-.062-.108-.153-.207-.19.037-.043.062-.108-.025-.287-.091-.179-.055-.299-.025-.342.025-.055.116-.153.16-.215.043-.062.08-.146.152-.19.037-.025.153-.071.27-.116.128-.044.233-.098.306-.044.08.055.043.128.043.128s.252-.091.477.025c.226.11.776.179.776.179l.197.397-1.303 1.117-.54.27-.108.018H11.8z" fill="#E5C66B"/>
    <path fill-rule="evenodd" clip-rule="evenodd" d="M13.61 17.18s-.405.27-.496.368c.054.008.145.044.109.099-.044.054-.306.243-.452.422a2.778 2.778 0 0 0-.349.513c-.054.098-.47.386-.612.422.3 0 .9-.367 1.125-.367-.007.109.062.233.19.244.127.01.495.08.99-.226.495-.299.332-.52.539-.666.397-.262.557-.495.775-.641.219-.145.332-.178.332-.178s.007-.11.072-.099a.099.099 0 0 1 .08.062s.379-.27.864-.342a.05.05 0 0 1-.026-.025s.037-.019.044-.037c0 0 .025-.036.044-.018.018.018.044.153.08.207.08-.036.233-.378.233-.378l.368-1.052v-.962l-.288.055-2.16.917-1.311 1.359-.153.323h.001z" fill="#E6BD62"/>
    <path fill-rule="evenodd" clip-rule="evenodd" d="M19.828 12.466c.116-.028.228-.073.332-.134-.044.116-.044.244-.233.52-.19.277-.197.317-.35.605-.153.298-.17.728-.316.917a.667.667 0 0 1 .207-.062s-.145.128-.207.262c-.062.135-.171.415-.44.587-.27.171-.613.28-.98.684-.368.397-.747.9-.936 1.08.098-.171.233-.513.27-.739.036-.225-.008-.495.054-.793.062-.299.062-.514.36-1.035.298-.52.808-2.33.808-2.33l1.1-.35.331.787v.001z" fill="#B6933F"/>
    <path fill-rule="evenodd" clip-rule="evenodd" d="M19.034 11.8s-.331.476-.422.899c-.091.422-.008.386-.062.593a.774.774 0 0 0 0 .386 1.37 1.37 0 0 1 .458-.451c.313-.19.568-.324.72-.485.153-.17.28-.451.611-.666-.134-.018-.323-.08-.36-.072.135-.153.54-.386.947-.666.404-.288.379-.404 1.034-.692-.215.037-.317-.018-.495 0 .072-.153.324-.226.576-.477.252-.25-.16-.622-.16-.622l-1.92 1.161-.928 1.092z" fill="#C49937"/>
    <path fill-rule="evenodd" clip-rule="evenodd" d="m13.824 10.934.044-.35.55-.88.575-1.548V6.04l-.044-1.224.091-.8.07-.256.072-.098.47.244.648.881.062 1.7-.63 2.684-1.799 1.962-.109-.2z" fill="#DFC068"/>
    <path fill-rule="evenodd" clip-rule="evenodd" d="M15.255 3.565s-.288.007-.35 1.205c-.06 1.198-.09 1.828-.134 2.421-.044.594-.146.954-.197 1.304-.051.35-.08.826-.244 1.117-.072.135-.226.557-.586.874-.404.35-1.008.594-1.1.612-.16.036-.972.116-1.303.298-.116.062-.317.135-.539.343-.44.396-1.026 1.106-1.449 1.962-.648 1.278-1.296 4.886-1.296 4.886l.146-.244s.018-.324.342-.892c.317-.568.226-1.205.666-2.294.171-.415.386-.954.648-1.412.415-.747.918-1.388 1.424-1.737a4.5 4.5 0 0 1 1.737-.692l.979-.648s.171-.331.397-.71c.317-.531.72-1.125.808-1.987.135-1.278-.19-2.116-.171-2.873.018-.757.025-1.314.178-1.45.154-.134.044-.083.044-.083z" fill="#A88F33"/>
    <path fill-rule="evenodd" clip-rule="evenodd" d="M15.255 9.28s.432-1.062.63-2.005c.036-.19.11-.379.127-.532.091-.892.117-1.26 0-1.747-.09-.36-.44-.685-.622-.936-.179-.263-.262-.36-.226-.416a.403.403 0 0 1 .317-.134 1.084 1.084 0 0 1 .775.36c.28.324.503 1.423.503 1.423l.233 1.451.594 1.828-2.33.71v-.001z" fill="#C99E3D"/>
    <path fill-rule="evenodd" clip-rule="evenodd" d="M19.314 8.174s-.08.036-.225 0a.325.325 0 0 1-.146.306c-.153-.062-1.584.062-1.584.062s-.666-.117-.874-.998c-.145-.586.11-1.394.026-1.926-.128-.783-.306-.936-.324-1.18-.019-.243-.037-.305-.037-.458-.08-.018-.127-.044-.207-.044-.018-.072.018-.135-.062-.262.043.018.342.055.692.386.287.27.287.367.331.422.055.055.495.432.684.808.19.377.557 1.577.641 1.773.026.08.08.16.216.343.212.262.52.696.87.768z" fill="#B58634"/>
    <path fill-rule="evenodd" clip-rule="evenodd" d="M16.955 4.5c.22.356.419.726.593 1.107.215.484.343.88.612 1.205-.146-.422-.404-1.252-.557-1.547-.171-.312-.52-.648-.648-.765z" fill="#A88F33"/>
    <path fill-rule="evenodd" clip-rule="evenodd" d="M14.48 10.486s-.368.09-1.053.451c-.226.116-.44.215-.648.306-.54.244-1.117.469-1.576.593.036.044.054.062.054.062s0 .179.098.28c-.054.055-.782.55-.567 2.207.145-.055.316-.128.342-.128.044.008.054.128.109.128.054 0 .233-.072.422-.317-.007.098-.116 1.088.47 1.755.11-.128.386-.55.386-.55l.007-.135s.026-.47.179-.899c.153-.43.451-.746.451-.746l1.558-2.225-.233-.783z" fill="#E6C367"/>
    <path fill-rule="evenodd" clip-rule="evenodd" d="M13.023 13.752a.861.861 0 0 1-.233.117.901.901 0 0 1 .153-.71c.251-.368.8-.845.954-1.224.098-.244.054-.856.928-1.639s1.216-1.052 1.216-1.052l1.413-.71 1.736.685-.862 3.381-.67 1.584-2.664-.502-1.971.07z" fill="#DCBA5A"/>
    <path fill-rule="evenodd" clip-rule="evenodd" d="m14.04 12.834.332-.415v-.295s.367-.098.764-.502c.397-.405.946-1.18 1.43-1.133.485.055.532 1.052.55 1.333.019.28.08.917.179 1.26.11.342-1.18 1.638-1.18 1.638l-.875.666-1.2-2.552z" fill="#E9CE77"/>
    <path fill-rule="evenodd" clip-rule="evenodd" d="M15.065 16.289s.27-.423.072-.514c.117-.262.332-.539.332-.539s.152-.378.648-.844c.495-.466.8-.776.88-1.089a2.87 2.87 0 0 0 .081-.622c.054.043.11.082.171.116.08.037.459.35.404.98-.054.63-.288.892-.288.892s-.225.225-.385.342c-.172.116-.233.25-.521.262a.343.343 0 0 1 .098-.055s-.298-.036-.459.11c-.16.145-.5.593-.672.728-.171.109-.36.233-.36.233z" fill="#CDAE50"/>
    <path fill-rule="evenodd" clip-rule="evenodd" d="M27.17 9.208a4.385 4.385 0 0 0-1.339-.262c-.764-.026-1.882.018-2.978.025-1.18.007-2.25-.404-3.735-.477-.244-.145-.864-.783-2.8.568.116-.007 1.405-.298 1.853.262.451.558.324 1.504.262 1.73-.116.502-.495 1.234-.648 1.747-.152.514-.116.784-.226 1.143-.109.36-.349.54-.207.954.19-.116.288-.116.604-.826s.251-1.216.776-1.817c.513-.604 1.368-1.43 1.693-1.638.325-.208 2.905-1.548 5.607-.27.651-.069 1.14-1.14 1.14-1.14h-.001z" fill="#D2A83E"/>
    <path fill-rule="evenodd" clip-rule="evenodd" d="M17.406 8.712a.334.334 0 0 0-.018-.08.587.587 0 0 0-.098-.145s-.64-.117-.965-.08c-.568.061-1.081.764-1.322 1.125-.24.36-.538.917-.862 1.205a.12.12 0 0 0-.019-.08s.019.025-.018.061c-.036.037-.036.055-.018.072l.055.055c.018 0 .52-.226 1.205-.864.728-.666 1.285-1.008 1.576-1.125.156-.066.318-.114.485-.144z" fill="#C29637"/>
    <path fill-rule="evenodd" clip-rule="evenodd" d="M29.836 5.975s-.116.145-.262.305c-.324.343-.747.728-1.107 1.125-.342.379-.728.674-1.161 1.169-.434.495-.936 1.045-1.064 1.205-.116.16-.207.422-.207.557-.062-.044-.135-.09-.135-.09.031.056.068.11.11.16.09.127.232.287.305.385.09.125.154.266.19.415.043.008.323.062.673-.513.35-.575.808-1.205.808-1.205l.728-1.081.46-.918.575-1.026.088-.488z" fill="#AC8132"/>
    <path fill-rule="evenodd" clip-rule="evenodd" d="M30.583 5.24s-.44.36-.612.575c-.171.216-.576.783-.576.783l.146-.018.739-.655.288-.514.014-.17v-.002z" fill="#A88F33"/>
    <path fill-rule="evenodd" clip-rule="evenodd" d="M30.448 34.173s-.008-.299.16-.477c.171-.179.604-.44 1.027-1.424.422-.983.47-1.205.47-1.205s-.758.648-1.225.801c.11-.226.171-.386.226-.502-.062-.055-.324-.117-.35-.146.146-.146.226-.502.521-.74.379-.287 1.07-.782 1.608-1.223.538-.441 1.595-1.467 1.73-1.766.08.117.098.19.098.19s-.532.691-.808 1.132c-.244.378-.226.593-.226.593l.502-.216s.146.539-.513 1.358c.288-.109.404-.043.568-.134-.27.17-.64.404-.99 1.044-.343.641-.809 1.388-1.595 1.854a13.2 13.2 0 0 0-1.205.859l.002.002z" fill="#A67A2E"/>
    <path fill-rule="evenodd" clip-rule="evenodd" d="M28.475 9.587s-.299.622-.343 1.106c-.007.117-.036.208-.036.343-.007.433.025.917-.072 1.143-.037-.091-.055-.153-.091-.19-.055.153-.153.63-.233.809a3.798 3.798 0 0 1-.11-.998c.008-.477.019-.568.019-.666-.018.145-.117.342-.153.459-.055-.099-.116-.226-.19-.332-.043.072-.098.179-.145.233a3.359 3.359 0 0 1-.036-.324c-.008-.189-.019-.433-.008-.484.018-.098.171-.484.495-.837.387-.423.783-1.234.9-1.486.116-.25.611-1.296.611-1.296h.38l-.55 1.253s-.332.684-.503.936c-.171.251-.532.972-.692 1.252.116-.153.215-.233.331-.378.113-.103.426-.543.426-.543z" fill="#8C6228"/>
    <path fill-rule="evenodd" clip-rule="evenodd" d="M30.59 5.191c-.062.19-.16.368-.288.521-.226.27-.71.63-.946.917-.216.28-.648 1.045-.452 1.952.072-.197.207-.586.568-1.027.36-.44.746-.946.936-1.34.19-.396.214-.71.214-.71l.073-.09-.044-.208-.062-.015h.001z" fill="#CBA94C"/>
    <path fill-rule="evenodd" clip-rule="evenodd" d="M37.962 29.341s-.145-.396-.189-.757c-.044-.36.072-.432-.062-.844-.08-.252-.225-.216-.262-.252-.036-.035-.062-.415-.055-.622.008-.208-.007-.477-.043-.594-.055-.043-.091-.08-.171-.35-.091-.269-.135-.403-.179-.483-.043-.08-.171-.153-.171-.233 0-.16.146-.244.146-.288-.008-.091-.117-.018-.146-.044-.036-.044.091-.306.044-.342-.018-.018-.146.135-.179.09-.036-.043-.08-.476-.145-.764-.062-.28-.128-.484-.135-.568-.007-.08-.503-1.492-.623-1.835a8.671 8.671 0 0 1-.243-.88c-.037-.172-.062-.521-.08-.485-.019.037-.008.215-.037.208-.026-.008-.117-.63-.146-.728-.025-.099-.178-.433-.215-.674-.037-.244-.117-.881-.172-1.314-.054-.434-.08-.612-.08-.72a4.483 4.483 0 0 0-.044-.794 7.401 7.401 0 0 0-.342-1.34c-.243-.612-.892-2.177-1.008-2.567 0-.098.128-.043.128-.043s.316.793.55 1.405c.225.612.44 1.15.495 1.205.043.055.386.655.538 1.638.153.983.208 1.89.3 2.494.043.288.08.594.17.9.098.331.251.673.452 1.197.17.441.298.809.367 1.125.08.405.08.71.128.91.044.172.109.514.262 1.009.153.495.379 1.132.531 1.529.3.794.432 1.456.478 1.81.04.364.174 1.623.138 2.002z" fill="#A88F33"/>
    <path fill-rule="evenodd" clip-rule="evenodd" d="m30.608 5.148-.018.044s.055.018.044.091c0 .1-.006.2-.018.299-.018.127-.055.225-.062.306 0 .17.025.367-.216.855-.072.135-.117.251-.153.331-.091.197-.11.226-.19.317.128-.072.587-.36.82-.317-.16.091-.404.27-.557.503.036.007.189.036.432 0 .404-.062.855-.208 1.252-.179.433.026.262-.52.262-.52l-.5-1.1-.946-.666-.15.037z" fill="#BE9C44"/>
    <path fill-rule="evenodd" clip-rule="evenodd" d="M33.077 13.383s-.423-.422-.594-1.871c-.171-1.457-.134-3.6-.134-3.6l-.343-.838s-.072-.557-.251-.764c-.18-.208-.531-.557-.692-.728-.16-.172-.342-.405-.451-.441.054-.091.298-.604 1.234-.612.935-.007 1.224.514 1.322.703.097.19.538 1.008.702 2.568.153 1.558.16 1.675.135 2.214-.018.298-.117.99-.288 1.729-.157.626-.328 1.325-.64 1.642v-.002z" fill="#A17C34"/>
    <path fill-rule="evenodd" clip-rule="evenodd" d="M31.752 14.625c.14.01.281-.022.404-.091.135-.008.623.054.998-.423.025.11.09.404-.08.667.09-.092.225-.128.244-.153.007.134.134.55-.405 1.558.146-.16.317-.153.47-.171.007.189.109.826-.16 1.168-.179.233-.47.16-.47.16a.93.93 0 0 0 0-.152c-.007-.099-.044-.197-.018-.262a1.306 1.306 0 0 1-.379-.263c-.316-.298-.728-.808-.757-1.187-.036-.422.342-.513.342-.513a.407.407 0 0 1-.08-.098c-.018-.062-.036-.16-.109-.24z" fill="#8C6228"/>
    <path fill-rule="evenodd" clip-rule="evenodd" d="M28.944 10.045s-.018-.026-.116.09c.018-.116.036-.225.043-.33.047-.099.107-.19.179-.27-.055.109-.091.207-.091.207s.135-.251.331-.404c.135-.11.306-.16.379-.262.08-.11.061-.127.08-.146 0 0 .178-.116.451-.459.037-.043.091-.09.128-.134.062-.026.207-.091.378-.179.179-.098.38-.233.503-.288.244-.109.503-.098.622-.27.091-.025.19-.298.172-.53.134.054.826.483 1.063 1.423.17.666-.135 1.693-.263 2.188-.127.496-.145.863-.323 1.089-.226.298-.954.72-1.133.928-.153.171-.611.604-.593.917.018.233.305.36.368.405.062.044.061.098.178.072.116-.027.16-.08.207-.08.055.006.055.018.08.018a.266.266 0 0 0 .055-.008s-.018.332-.794.432c-.054.008-.109.026-.178.037.091-.044.146-.044.244-.179-.11-.018-.422-.036-.503-.062a.968.968 0 0 1 .179-.214c.062-.055-.008-.072-.062-.044a2.91 2.91 0 0 0-.27.207c-.09.08-.17.19-.316.288a.71.71 0 0 1 .135-.622c-.044.007-.128.134-.208.109a1.16 1.16 0 0 1 .025-.397c.044-.164.28-.451.28-.451l1.144-2.043.244-1.547-2.618.508z" fill="#92723A"/>
    <path fill-rule="evenodd" clip-rule="evenodd" d="M28.882 10.132s-.062.044.062.127c-.018.026-.062.117-.116.179-.062.072-.128.116-.153.178-.055.128-.099.215-.099.27 0 .055-.018.404-.17.63-.055.08-.117.214-.161.305-.09.16-.171.288-.19.36a3.764 3.764 0 0 0-.061.477l.11-.134c-.045.09-.092.189-.161.262.044-.037.171-.128.386-.317.298-.251.764-.674 1.332-1.008-.17.062-.316.062-.433.08.091-.09.91-1.052 1.34-1.143a.171.171 0 0 0 .037-.117l-.369-.036-.746.16-.109-.576-.499.302v.001z" fill="#B18E3E"/>
    <path fill-rule="evenodd" clip-rule="evenodd" d="M30.07 13.409s-.099.098-.19.342a1.147 1.147 0 0 1-.178-.244c-.135-.226-.343-.514-.827-.35-.007-.152-.018-.233 0-.342.08-.018.324-.214.568-.502.171-.197.331-.423.44-.71.073-.055.197-.146.36-.251.234-.16.514-.379.558-.623-.11.044-.342.153-.692.135.135-.062.342-.127.317-.397.054-.036.098-.062.098-.062a.36.36 0 0 0-.127-.018c-.008-.026-.019-.062-.08-.044-.063.018-.073.018-.08.044-.026.007-.11 0-.172.044-.062.044-.233.189-.298.214l.061-.109s-.178.018-.305.072c-.233.08-.503.226-.776.368.026-.044.037-.072.055-.08.018-.008.061-.018.061-.026 0-.007-.017-.071-.007-.098.082-.173.178-.338.288-.495.128-.171.153-.415.153-.415l.557-.28 1.566-.36 1.016.062-.128.702-.6 1.227-.513 1.118-.587.685-.538.393z" fill="#543E26"/>
    <path fill-rule="evenodd" clip-rule="evenodd" d="M32.607 10.368s-.612.757-.783.874c.109-.233.783-1.62 1.026-2.006-.054-.044-.127-.044.044-.72-.145.342-.196.52-.316.611-.12.091-.135.062-.216.062a.152.152 0 0 0 .018-.09s-.514-.063-.864-.063c-.351 0-1.045.19-1.431.342-.306.128-.477.128-.586.208-.11.09-.171.19-.226.215-.044.025-.251.09-.299.16-.043.072-.116.152-.116.17 0 .019-.018.045.036.026.018-.007.153-.08.306-.17.207-.117.459-.252.64-.332.521-.208.685-.171.918-.215.244-.044.594-.146.826-.146.234-.007.674 0 .776.019-.044.036-.08.08-.062.233 0 .043-.036.09-.072.196-.109.299-.316.794-.432 1.045-.16.342-.342.63-.432.808-.09.179-.288.648-.484.9-.196.25-.298.404-.36.459-.061.054-.502.378-.47.495.08-.026.587-.216.954-.63.368-.414.44-.666.729-.892.287-.226.513-.605.648-.918.112-.29.087-.382.229-.64l-.001-.001z" fill="#806031"/>
    <path fill-rule="evenodd" clip-rule="evenodd" d="M19.424 16.02s-.08.331-.262.495c-.179.16-.496.299-.532.568-.043.27.317.404.317.404s-.197.324-.197.568c0 .251-.007.299.018.539a.239.239 0 0 0-.072.072s.018.233.197.378c.178.146.331.233.422.197.014.03.026.06.037.091 0 0 .134-.342.225-.64.091-.306.171-.263.208-.674.036-.412.432-1.118.432-1.118l.27-.604-.44-.342-.623.066z" fill="#B6903C"/>
    <path fill-rule="evenodd" clip-rule="evenodd" d="M20.243 16.613c-.091.093-.175.193-.251.299-.116.16-.207.306-.379.368-.17.062-.28.061-.269.233.01.171.171.244.262.331a.426.426 0 0 1 .135.415c.054-.025.153-.055.244-.251.09-.197.727-1.395.727-1.395h-.47z" fill="#685026"/>
    <path fill-rule="evenodd" clip-rule="evenodd" d="M22.752 13.85s.054-.146 0-.252c-.055-.11-.386-.146-.55-.27-.171-.127-.379-.215-.55-.16.026-.061.128-.196.044-.225-.08-.026-.379.109-.459.17-.08.063-.262.135-.298.18-.037.043-.099.127-.135.09-.037-.025-.055-.09-.116-.054-.062.036-.36.28-.415.422a2.16 2.16 0 0 1-.55.82c-.372.36-.532.593-.423.727.11.135.16.037.179.153a.98.98 0 0 1-.018.342c-.044.19-.117.368-.019.405.252.08.496-.073.55-.026.11.098-.062.451.197.52.262.073.52-.061.52-.061l.954-.514.918-.484.47-.928-.252-.776-.049-.08h.002z" fill="#D4B968"/>
    <path fill-rule="evenodd" clip-rule="evenodd" d="M21.852 16.067s-.16-.244.037-.459c.196-.215.476-.306.586-.44a.167.167 0 0 0-.08-.055.725.725 0 0 1 .316-.299.303.303 0 0 0-.207-.098c-.179 0-.288.11-.452.11-.16 0-.178-.08-.178-.08s.27-.026.244-.146c-.026-.128-.072-.128-.072-.128s.52-.216.611-.331c.091-.115.08-.251.099-.306.061 0 .422-.19.567-.11.146.081.044.3.044.3s.441-.332.666-.657c.196.018.288-.135.432-.135.178 0 .459.244.513.765.037.298.091.47.037.998-.026.298-.019.935.072 1.252.061.251.207.226.207.226a.408.408 0 0 1-.128.196c-.098.091-.109.332-.098.423.015.066.033.132.055.196 0 0-.117.135-.146.226-.025.091-.145.153-.233.153-.087 0-.044-.008-.16 0-.116.007-.153.025-.226 0-.073-.026-.127-.055-.098-.288.025-.233-.9-.776-.9-.776l-1.511-.538h.003z" fill="#CCA849"/>
    <path fill-rule="evenodd" clip-rule="evenodd" d="M20.116 18.367s.33.441 1.692.441c.648 0 .874-.062 1.008-.098.146-.037.692-.251 1.242-.9.495-.586.386-.826.386-.826l-.288-.044-.936.128-2.77 1.18-.336.12h.002z" fill="#585136"/>
    <path fill-rule="evenodd" clip-rule="evenodd" d="M21.131 18.477s-1.18.262-1.18-.484c0-.729.729-1.493.911-1.628.19-.135.64-.288.64-.288h1.09l.207.55-.091 1.187-1.577.662z" fill="#252211"/>
    <path fill-rule="evenodd" clip-rule="evenodd" d="M22.22 16.3s-.226-.208-.74.072c-.513.28-.928.864-.954 1.394-.025.47.386.82 1.027.838.477.018.765-.037.91-.072l-.225-.28-.018-1.952z" fill="#C3B378"/>
    <path fill-rule="evenodd" clip-rule="evenodd" d="M21.998 16.416s-.055-.044-.216.044c-.135.072-.331.262-.484.397-.099.08-.16.116-.216.178-.226.27-.415.71-.306.929.11.218.47.47 1.387.298l-.168-1.846h.003z" fill="#E6D89C"/>
    <path fill-rule="evenodd" clip-rule="evenodd" d="M21.699 16.867s-.146.226-.146.587c0 .367.208.953.973.997.586.037.979-.844 1.405-1.187.324-.262.52-.27.52-.27s-.33-.36-1.216-.825c-.873-.47-1.853-.532-2.384.189.25-.018 1.063-.226 1.063-.226l.397.127-.612.609z" fill="#252211"/>
    <path fill-rule="evenodd" clip-rule="evenodd" d="M22.842 17.344c-.025-.054-.043-.127.062-.145.106-.018.153-.008.19.072.036.08.072.146.018.178-.055.03-.197 0-.27-.105zm-.17-.513s-.037.025-.019-.026c.007-.061.055-.17.171-.145.117.026.091.153.072.19-.019.036-.116.098-.19.071a.06.06 0 0 1-.045-.064.06.06 0 0 1 .01-.026z" fill="#6F674D"/>
    <path fill-rule="evenodd" clip-rule="evenodd" d="M12.816 17.064s.288.216.622.207c.332-.007.758-.35.954-.568.117-.127.216-.262.324-.367.091-.091.153-.135.197-.197.062-.072.127-.207.16-.251-.08.062-.196.171-.317.244a3.751 3.751 0 0 1-.47.244c-.098.036-1.117.576-1.117.576l-.353.112z" fill="#AC924C"/>
    <path fill-rule="evenodd" clip-rule="evenodd" d="M13.256 14.373s.16-.109.47-.178c.299-.072.9-.128.9-.128l.494.216.197.747-.36.776-.459.287-.52-.837-.72-.881-.002-.002z" fill="#9F8E57"/>
    <path fill-rule="evenodd" clip-rule="evenodd" d="m12.608 15.04-.171.128s.044-.08.08-.324c.036-.243.226-.837.503-1.18.277-.341.27-.323.27-.323a.182.182 0 0 0-.146.036c.036-.08.27-.369.502-.513.233-.144.324-.189.568-.072.244.118.306.179.484.172.179-.008.332-.197.332-.197s.036.116-.099.386c-.134.27-.666.819-.666.819l-1.107.757-.55.312z" fill="#EAC970"/>
    <path fill-rule="evenodd" clip-rule="evenodd" d="M13.427 14.283s.801.11 1.045-.116c.007.025.037.025.037.043a.064.064 0 0 1-.019.037.599.599 0 0 1 .08-.008.47.47 0 0 0 .099.019.55.55 0 0 0 .08-.008.136.136 0 0 1-.055.091c.037 0 .072.008.072.037 0 .029.008.116-.036.135a.165.165 0 0 1-.11-.008.448.448 0 0 0 .056.197c.072.135.225.288.431.244 0 0 .11.262-.35.844-.06.08-.127.19-.207.28-.031.07-.055.142-.072.215 0 0 .776-.298.998-.979.226-.684.27-1.358.226-1.988a1.023 1.023 0 0 0-.08-.397c-.11-.225-.415-.189-.539-.061-.179.178-.477.622-.892.928-.423.306-.44.36-.765.495h.001z" fill="#D7BC6B"/>
    <path fill-rule="evenodd" clip-rule="evenodd" d="M12.466 15.266s-.153.091-.233.432c-.08.35.072.776.16.91.088.135.288.503.703.521a.77.77 0 0 0 .298-.062c.145-.066.281-.15.405-.251.178-.135.324-.251.305-.262-.043-.018-1.1-.892-1.1-.892l-.396-.443-.142.048z" fill="#585136"/>
    <path fill-rule="evenodd" clip-rule="evenodd" d="M13.464 16.715s.215-.018.342-.099c.128-.08-.746-.946-.746-.946l.062.936.342.109z" fill="#453A25"/>
    <path fill-rule="evenodd" clip-rule="evenodd" d="M12.535 15.2s-.109.208-.109.262c-.018.179.036.74.08.918.044.189.28.477.586.477.19 0 .452-.117.452-.146 0-.036-.27-.072-.342-.207-.044-.073-.062-.252-.072-.433-.008-.116-.008-.243.036-.288.098-.109.117-.422.117-.422l.349-.65h-.46l-.55.343-.087.146z" fill="#84754B"/>
    <path fill-rule="evenodd" clip-rule="evenodd" d="M12.4 15.4s.36-.477.685-.586c.324-.11.47-.044.47-.044l-.19.485-.27.298.019.153s-.044.404.225.684c.27.28.47.27.587.27.117 0 .451-.098.622-.503.153-.378.28-.864-.025-1.35-.299-.485-.827-.503-.929-.503-.102 0-.902.04-1.194 1.096z" fill="#252211"/>
    <path fill-rule="evenodd" clip-rule="evenodd" d="M21.644 17.02c-.134-.061-.007-.44.128-.557.134-.116.305-.25.604-.27.11-.006.215.063.197.136-.026.134-.215.324-.386.458-.237.186-.39.303-.543.233z" fill="#F7F7E7"/>
    <path fill-rule="evenodd" clip-rule="evenodd" d="M14.363 14.957c.098-.008.226.071.251.178.026.117-.062.35-.251.35-.153 0-.233-.19-.233-.244a.278.278 0 0 1 .036-.128c.008-.01.026-.138.197-.156z" fill="#F8F6DE"/>
    <path fill-rule="evenodd" clip-rule="evenodd" d="M12.943 15.04s-.251.116-.367.36a.955.955 0 0 0-.072.576c.018.091.109.317.17.397.063.08.146.135.208.127.062-.007.19-.17.19-.27 0-.097.007-.512.127-.738.105-.226-.255-.452-.255-.452z" fill="#D4C38B"/>
    <path fill-rule="evenodd" clip-rule="evenodd" d="M12.98 15.021c-.044.026-.117.062-.099.11.018.043.171.072.226.178.062.11.062.226.044.28a.443.443 0 0 0 .127-.09c.08-.092.178-.215.262-.215.055 0 .11.025.16.025.08 0 .16-.025.172-.109.018-.11-.153-.207-.252-.19.019-.071.044-.178-.036-.25-.08-.073-.331.054-.386.09a4.954 4.954 0 0 0-.218.172z" fill="#E2D59D"/>
    <path fill-rule="evenodd" clip-rule="evenodd" d="m18.765 22.67.539-.158.152.109s.11.233.28.262c-.054.116-.196.216-.189.299.008.082.08.145.08.145s-.484.801.47 1.608c-.226.091-.513.216-.666.288.109.026.342.072.44.16.099.089.099.117.19.172.09.054.145.127.127.16-.062-.037-.27-.146-.305-.044-.037.102-.9.062-.9.062l-1.456.28s.054-.145-.099-.28c-.178-.16-.396.007-.63-.171-.305-.233-.316-.503-.414-.604.098-.062.298-.153.775-.216-.018-.037-.08-.146-.043-.244.043-.128.225-.208.17-.36.08-.019.117-.019.317-.27.19-.251.306-.306.452-.324.146-.018.233 0 .503-.251.189-.178.127-.331.127-.331s.123-.04.08-.292z" fill="#CBAC5A"/>
    <path fill-rule="evenodd" clip-rule="evenodd" d="M17.174 22.752c.007-.036.036-.054.233-.036.196.018 1.441-.117 1.78-.135.342-.025 1.547-.007 2.133.117.587.123 1.18.27 1.468.342.288.08.378.109.367.145-.007.037-.072.072-.109.062-.036-.007-.99-.298-1.285-.36-.295-.061-1.314-.226-1.872-.216-.52.008-.728-.007-1.168.044-.441.055-1.17.127-1.388.098-.216-.025-.171-.025-.16-.062v.001z" fill="#D6BC6F"/>
    <path fill-rule="evenodd" clip-rule="evenodd" d="M20.104 25.606s.747.404 1.016.899c.197.368-.116.55-.116.55s.422 0 .367.233c-.025.145-.728.538-1.198.746-.476.207-.458.197-.691.233-.226.037-.845-.072-.973.11-.127.18-.072.367-.036.396.037.026.332.062.332.062s-.062.171-.674.19c-.611.018-.765.061-.801.127-.037.061.116.025.397.072.28.043.673.072.673.072s-.127.11-.458.196c-.379.099-.973.19-1.15.299.09.062.225.153.287.16a1.82 1.82 0 0 0-.404.146c.054.036.127.08.127.08s-.306.368-.484.459c-.178.091-1.205.568-1.558.477-.881-.233-.99-1.198-1.205-1.27-.324-.11-.477.108-.765-.045.128-.09.197-.145.332-.207-.146-.072-.9-.55-.9-.55a5.579 5.579 0 0 0-.262-.502c-.146-.252-.36-.587-.52-.882-.35-.648-.368-.946-.685-1.314.055-.072.244-.062.244-.062l2.654.874 4.707.136 1.224-1.747.52.062z" fill="#DFC677"/>
    <path fill-rule="evenodd" clip-rule="evenodd" d="M13.132 28.27a.41.41 0 0 0 .098.08c.092.063.226.136.317.245.037-.055.128-.153.288 0 .16.153.36.044.484.08.128.044.135.062.135.062s.072-.062.233-.128c.098-.036.215-.062.342-.098.117-.025.244-.062.332-.062.08.055.367.36 1.522-.09 1.088-.423 1.34-.47 1.521-.405.019-.044.037-.128.317-.117 0-.116-.233-.513-.233-.513l-1.285-.44H16.5l-2.108.386-1.168.666-.091.336v-.001z" fill="#C4A859"/>
    <path fill-rule="evenodd" clip-rule="evenodd" d="M12.43 27.532s.025.196.316.404c.288.207.379.331.379.331s.055-.072.098-.145c.044-.08.08-.172.153-.197.146-.062.477.055.55.036.062-.018.044-.145.11-.145.152-.008.25.098.305.098.055 0 .19-.007.207-.036.019-.03.026-.332.233-.477a.623.623 0 0 1 .576-.055c0 .055.008.19.153.197.146.007.16-.019.288.025.128.044.28-.007.35.207.062-.017.207-.036.17-.243.073-.055.136-.091.289-.306.036-.055.098-.116.146-.197.127 0 .28-.025.484.153-.062.044-.099.072-.117.117.053.052.102.11.146.17.054.073.09.161.16.18.153.043.404-.019.684 0 .27.017.496.116.594.178.037-.018.037-.026.127-.008.091.019.16.026.062-.09.055.025.117.08.171.025.055-.055.099-.135.252-.153.152-.018.207.007.269-.153.08-.196-.197-.196-.197-.196s.128-.117.27-.27c.171-.16.368-.368.415-.622.08-.47-.378-.532-.378-.532l-2.225.685-2.72-.135-2.319 1.154h-.001z" fill="#927D49"/>
    <path fill-rule="evenodd" clip-rule="evenodd" d="M10.43 21.105s-.071.091-.115.306c-.045.215-.026.19-.063.342-.036.153-.484 1.675-.316 2.188.168.514.459.703.64 1.118.037.091.073.146.092.226.062.27.007.477.08.746a.824.824 0 0 0 .19.306c.215.226.567.44.72.593.214.226.52.685.91.729.207.025.502-.062.746-.208.216-.135.35-.324.576-.432.16-.08.33-.109.484-.145.317-.062.604-.072.775-.037.263.055.882.244 1.225.244a3.33 3.33 0 0 0 .793-.11c.52-.152 1.15-.414 1.566-.53.244-.073.44-.092.64-.135.343-.08.63-.19.794-.397-.109-.128-.244-.324-.972-.317-.826.018-1.78.477-2.25.55-.47.073-.674.134-1.198-.055-.514-.191-.531-.318-.531-.318s-.54-.377-.766-1.34c-.225-.962 0-1.663.587-2.33.153-.17.116-.324.116-.324s.386-.52.28-1.008c-.116-.484-.862-.386-.862-.386l-4.14.724z" fill="#6E6342"/>
    <path fill-rule="evenodd" clip-rule="evenodd" d="M11.053 22.726a.377.377 0 0 0-.043.196c.007.098.036.226.331.514.251.25.197.53.197.53s.126.026.47-.134c.269-.128.36.098.36.098a.762.762 0 0 1 .25-.08.55.55 0 0 0 .226-.072s.317.324.594.477c.25.135.397.226.52.135.117-.08.117-.244.11-.317a.947.947 0 0 0-.11-.19c-.08-.116-.207-.25-.216-.36-.018-.25.19-.55.146-.622-.044-.073-.207-.09-.612.055-.418.138-2.224-.23-2.224-.23h.002z" fill="#39331F"/>
    <path fill-rule="evenodd" clip-rule="evenodd" d="M12.007 24.353s-.207-.197-.135-1.15c.088-.002.176.006.262.025 0 0 .114.739-.127 1.125z" fill="#292311"/>
    <path fill-rule="evenodd" clip-rule="evenodd" d="M10.53 20.377a.564.564 0 0 0 .08-.072c-.073.135-.405.674-.136 1.522.27.845.947 1.474 1.78 1.504.834.029 1.273-.38 1.774-.99.196-.244.422-.55.622-.758.299-.324.532-.415.532-.728 0-.64-.655-.928-1.62-1.216-.965-.287-1.835-.252-2.287-.055-.44.214-.63.44-.746.794z" fill="#252211"/>
    <path fill-rule="evenodd" clip-rule="evenodd" d="m13.628 24.641.072-.036s.018-.288.134-.28c.117.018.171.17.16.225-.007.055-.036.146-.152.135-.153.004-.215-.044-.215-.044z" fill="#3F3824"/>
    <path fill-rule="evenodd" clip-rule="evenodd" d="M13.303 23.418s.072-.026.16.061c.072 0 .386-.036.485.026.098.062.127.116.127.116s-.368.08-.568 0c-.204-.069-.204-.203-.204-.203z" fill="#2D2815"/>
    <path fill-rule="evenodd" clip-rule="evenodd" d="M14.924 23.472c0-.018-.197-.153-.405-.197-.036-.007-.044.018-.072.018-.018-.007-.025-.062-.025-.062l-.118.063s-.018.025.043.072c.055.043.146.08.172.152.025.073.025.099.036.11.007.007.135 0 .197-.037.061-.036.178-.096.17-.12h.002z" fill="#82764F"/>
    <path fill-rule="evenodd" clip-rule="evenodd" d="M13.085 24.211s.036-.25.28-.262c.251-.018.299.226.299.226l-.146.145c0-.003-.109-.156-.432-.109h-.001z" fill="#2D2816"/>
    <path fill-rule="evenodd" clip-rule="evenodd" d="M14.669 23.13s-.135.146-.433.19c-.026-.037-.08-.11 0-.226.08-.117.17-.153.262-.117a.214.214 0 0 1 .171.153z" fill="#574F35"/>
    <path fill-rule="evenodd" clip-rule="evenodd" d="M15.218 23.308c.008-.036-.018-.043 0-.062.018-.018.117-.054.135-.036.008.007 0 .036 0 .072 0 .035 0 .072-.018.098-.025.036-.098.055-.135.044-.036-.01-.043-.062-.043-.072.018-.007.061-.026.061-.044zm.622-.393c0-.018.062-.055.098-.055.055 0 .055.044.062.055.018.007.018-.007.037.026.018.032.044.09.025.127-.018.036-.09.062-.109.054a.97.97 0 0 1-.113-.207z" fill="#82764F"/>
    <path fill-rule="evenodd" clip-rule="evenodd" d="M14.589 23.392s.08.018.19.109c-.037.025-.092.054-.092.054s-.007-.083-.098-.163z" fill="#6E6342"/>
    <path fill-rule="evenodd" clip-rule="evenodd" d="M14.41 22.59c-.018-.017.055-.06.098-.054.044.008.062.037.11.044.047.007.054-.018.072-.036.017-.019.08-.008.09 0a.2.2 0 0 1 .019.025.099.099 0 0 1 .083-.092.114.114 0 0 1 .051.002c.008.025.044.116.037.134-.007.019-.117.044-.135.026.018.044.098.135.11.153.01.018-.081.062-.117.054-.051-.003-.364-.185-.419-.255h.001zm.477-.604a.084.084 0 0 0-.037-.043c-.025-.007-.109 0-.109.043 0 .044.072.288.153.416.091.127.153.232.215.262a.085.085 0 0 0 .11-.037c.006-.018.025-.153.017-.47-.007-.316-.018-.622-.036-.64-.018-.018-.091-.018-.116.018-.026.036-.19.397-.197.451z" fill="#585136"/>
    <path fill-rule="evenodd" clip-rule="evenodd" d="M14.563 23.851s-.127-.08-.251-.025c-.117.055-.11.27-.11.27a.173.173 0 0 0 .161-.019c.08-.054.182-.145.2-.226z" fill="#574F35"/>
    <path fill-rule="evenodd" clip-rule="evenodd" d="M14.803 24.138c-.007-.072-.072-.072-.072-.11a.082.082 0 0 1 .08-.061c.037 0 .072.044.117.072.044.025.11.072.116.127.008.056-.072.208-.16.208-.088 0-.062-.164-.08-.237v.001zm.703-.098s-.146.043-.135 0c.011-.044.044-.055.091-.055a.144.144 0 0 1 .091-.044c.02 0 .04.006.055.018 0 0 .098-.043.127-.018.03.026.008.026.026.055.023.033.038.07.044.11 0 .028-.11.09-.197.08-.102-.023-.084-.128-.102-.146zm.848-.164s.044.025.008.054a.593.593 0 0 1-.263.08c-.109 0-.207.019-.207-.018 0-.036.091-.109.146-.127a.117.117 0 0 1 .09-.044 3.4 3.4 0 0 0 .263-.025c.044-.008.08.018.054.054-.01.026-.09.026-.09.026zm.252-1.124s-.055.116-.117.116c-.062-.007-.062-.025-.062-.044 0-.025.062-.09.055-.109-.018 0-.062 0-.055-.044 0-.036.062-.08.117-.072a.24.24 0 0 1 .145-.054c.062 0 .117.018.117.054 0 .037-.072.117-.099.135-.029.03-.065.048-.101.018zm-.83 2.151s-.073.008-.073.044c0 .018.018.018.044.007.015 0 .03-.003.044-.007.007.007.007.044.062.044a.344.344 0 0 0 .127-.044c.044-.018.08-.037.08-.072-.018-.062-.054-.091-.109-.091a.145.145 0 0 0-.08.018s-.018-.037-.08 0c-.062.036-.055.036-.037.055.033.029.022.048.022.048v-.002zm-.412.379c0-.018.091-.055.116-.044.026.007.099.146.099.16 0 .018-.091.062-.128.062-.036 0-.098-.062-.098-.072 0-.007.044-.018.044-.025.01-.018-.033-.062-.033-.08v-.001zm-.288-.532c.018-.007.018-.025.044-.043a.061.061 0 0 1 .026-.01c.01-.002.02 0 .028.002a.088.088 0 0 1 .062-.044c.044-.007.08 0 .072.019 0 .054.037.09.037.134 0 .044-.026.099-.117.135a.644.644 0 0 1-.233.018c-.018-.007-.036-.08-.018-.116a.302.302 0 0 1 .099-.095z" fill="#82764F"/>
    <path fill-rule="evenodd" clip-rule="evenodd" d="M15.192 24.775s-.062.037-.062.055a.162.162 0 0 0-.007.055c0 .01.08-.008.09-.019.004-.007-.021-.072-.021-.09z" fill="#6E6342"/>
    <path fill-rule="evenodd" clip-rule="evenodd" d="M14.65 24.604c.037.007.099 0 .146.018.036.018.062.055.025.099-.036.043-.072.109-.153.098-.09-.007-.178-.055-.178-.091a.175.175 0 0 1 .044-.128c.036-.029.054-.01.116.004z" fill="#585136"/>
    <path fill-rule="evenodd" clip-rule="evenodd" d="M14.607 24.64s-.117.092-.146.136c-.036.043-.215.269-.27.316a.686.686 0 0 1 .063-.09.372.372 0 0 0-.153.196c-.044.134.244.207.433.262.189.055.262.072.262.072a2.033 2.033 0 0 1-.178-.331c-.072-.171-.11-.19-.062-.27.036-.08.09-.134.09-.196-.021-.058-.04-.094-.04-.094z" fill="#574F35"/>
    <path fill-rule="evenodd" clip-rule="evenodd" d="M10.457 24.928a.225.225 0 0 0 .08 0c.054-.007.622-.216 1.216-.178.444.026.884.099 1.314.216.746.196 1.675.586 2.275.808.16.062.317.171.432.214.46.18.477.18.747.226.317.044.64-.062.98-.134.414-.091 1.124-.135 1.747-.226.201-.028.4-.073.593-.135 0 0-.495.495-1.682.674-.48.072-.967.079-1.449.018a4.421 4.421 0 0 1-.819-.146c-.215-.062-.655-.226-1.198-.36-.378-.098-.8-.17-1.285-.262-1.194-.219-2.49-.47-2.952-.713v-.002z" fill="#252211"/>
    <path fill-rule="evenodd" clip-rule="evenodd" d="M9.116 22.679c-.288.244-.593.477-.891.702l-.9.691c-.305.226-.604.459-.91.685-.306.226-.612.44-.936.648.288-.244.594-.47.9-.692.305-.222.622-.44.917-.665l.9-.692c.309-.225.607-.458.92-.677zm-1.59 2.548s.323-.27.728-.648c.502-.47 1.117-1.07 1.314-1.18l-2.043 1.828z" fill="#CFB66C"/>
    <path fill-rule="evenodd" clip-rule="evenodd" d="M7.525 25.227c.16-.16.332-.317.503-.47l.262-.226c.08-.072.171-.152.251-.233.16-.16.317-.331.477-.495.08-.082.163-.16.251-.233a.675.675 0 0 1 .146-.098c.044-.026.091-.072.153-.08-.036.054-.08.08-.117.127-.043.037-.08.08-.116.116-.08.08-.171.153-.251.226-.171.146-.35.288-.52.44-.172.153-.332.318-.503.47-.186.157-.357.31-.536.456zm2.178-1.457s-1.187 1.162-1.431 1.351l1.43-1.35z" fill="#CFB66C"/>
    <path fill-rule="evenodd" clip-rule="evenodd" d="M9.703 23.77c-.107.124-.221.24-.343.35l-.36.342c-.116.117-.226.233-.35.35-.127.109-.243.216-.378.316l.35-.342c.116-.116.243-.214.367-.331l.35-.342c.12-.12.236-.237.364-.343zm.054.63c-.11.306-.238.604-.386.892-.305.612-.764 1.377-.964 1.766l1.35-2.658z" fill="#CFB66C"/>
    <path fill-rule="evenodd" clip-rule="evenodd" d="M9.757 24.4c0 .135-.036.252-.08.368-.042.117-.091.23-.145.342-.055.11-.117.226-.179.332-.062.105-.135.214-.19.324l-.367.648c-.127.216-.251.433-.386.64.091-.232.215-.45.332-.666.127-.216.243-.432.36-.655.056-.111.107-.226.152-.342.055-.117.11-.226.153-.332.055-.116.099-.225.153-.33.062-.114.113-.223.197-.329z" fill="#CFB66C"/>
    <path fill-rule="evenodd" clip-rule="evenodd" d="M11.054 27.386s-.36.477-.324 1.08c.098-.316.222-.8.324-1.08zm.342.478s-.128 1.296-.233 1.933c.15-.736.178-.675.233-1.933zm2.384 2.01s-.538 1.584-.55 2.024c.117-.453.343-1.378.55-2.026v.002z" fill="#DEC270"/>
    <path fill-rule="evenodd" clip-rule="evenodd" d="M15.04 27.288s.874 1.442 1.53 2.672c-.178-.619-.586-1.755-1.53-2.672z" fill="#CBAF59"/>
    <path fill-rule="evenodd" clip-rule="evenodd" d="M17.389 29.41c.48.848.912 1.722 1.296 2.618-.073-.62-.27-1.678-1.296-2.618z" fill="#E3C677"/>
    <path fill-rule="evenodd" clip-rule="evenodd" d="M24.291 31.536c.146-.091.434-.587.685-.71.25-.128.44-.153.666-.404.226-.263.288-.423.783-.63.692-.3.216-.685.216-.685.076-.075.158-.144.244-.207.178-.135.385-.299.367-.587-.025-.484-.116-1.186-.513-1.594.386-.08 1.125-.135 1.584-.251.532-.135.776-.325.776-.325s-.306-.52.189-1.044.9-.838 1.198-1.424c-.343-.044-.864-.226-2.196.28.072.034.142.073.208.117 0 0-.82.226-1.118.477-.52.44-.586.8-1.15 1.07-.565.27-1.133.197-1.602.415-.47.219-.539.405-.71.485.036.043-.008.116.062.178-.044.062-.299.477-.557.477.025.098.243.17.243.17s-.16.118-.567.147c.207.216.404.451.946.793-.044.091-.226.226-.153.397.08.171.288.404 1.118.594-.423.018-.917.116-1.584.025-.666-.08-.775-.127-1.187-.025.044.044.16.044.262.16-.109.007-.794-.08-1.027.226-.243.316-.349.837-.33 1.186-.128.062-.252.172-.19.397.062.226.386.299.593.44.208.154.226.208.423.172.207-.044.513-.251.692-.251.178 0 .305.135.305.135s.485-.233.532-.19c.044.044.007.324.054.368.048.033.594-.291.74-.382h-.002z" fill="#ECD592"/>
    <path fill-rule="evenodd" clip-rule="evenodd" d="M34.875 16.966C32.6 11.09 26.975 10 26.975 10H10.926l.062 5.985h3.196v13.366h-3.258v5.974H26.53c3.761 0 6.776-3.779 6.776-3.779 4.827-6.852 1.569-14.581 1.569-14.581zm-8.26 10.554s-1.225 1.766-2.557 1.766h-2.664l-.063-13.285h3.419s1.584.331 2.69 3.466c0 0 1.468 4.488-.826 8.053z" fill="#fff" fill-opacity=".8"/>
</svg>
