<svg width="25" height="25" viewBox="0 0 25 25" fill="none" xmlns="http://www.w3.org/2000/svg">
    <path d="M12.5 25C19.404 25 25 19.404 25 12.5S19.404 0 12.5 0 0 5.596 0 12.5 5.596 25 12.5 25z" fill="#988430"/>
    <path d="M12.5 24.6c6.682 0 12.1-5.418 12.1-12.1C24.6 5.818 19.182.4 12.5.4 5.818.4.4 5.818.4 12.5c0 6.682 5.418 12.1 12.1 12.1z" fill="#7A6A2A"/>
    <path d="M12.5 24.345c6.542 0 11.845-5.303 11.845-11.845C24.345 5.958 19.042.655 12.5.655 5.958.655.655 5.958.655 12.5c0 6.542 5.303 11.845 11.845 11.845z" fill="#BA9F33"/>
    <path fill-rule="evenodd" clip-rule="evenodd" d="M5.465 11.165c-.07-.064-.145-.13-.214-.194l-.21-.194-.21-.2c-.035-.034-.072-.065-.106-.1l-.11-.094c-.278-.265-.56-.53-.834-.795.285.26.564.52.85.785l.098.099c.035.034.071.065.105.099l.21.194c.072.065.14.13.211.2.07.07.14.136.21.2zm-3.705-.04s1.015.105 1.51.176c.46.065 1.896.285 1.896.285l-3.406-.46zm0 0c.285.025.57.055.855.085.146.014.286.03.425.045l.215.024.21.03.85.136.424.07.425.076c-.14-.015-.285-.035-.425-.055l-.424-.06-.85-.126c-.07-.01-.14-.024-.21-.034l-.215-.025c-.14-.014-.285-.035-.425-.05-.285-.035-.57-.072-.855-.116zm3.305.726s-1.084.275-1.45.38c-.36.1-1.45.431-1.45.431l2.9-.81v-.001z" fill="#CFB66C"/>
    <path fill-rule="evenodd" clip-rule="evenodd" d="M5.065 11.85c-.241.071-.48.14-.725.205l-.724.194-.72.21-.36.1c-.119.034-.24.064-.364.099.12-.04.241-.081.36-.115l.36-.116c.241-.075.48-.146.72-.22.245-.06.486-.126.73-.184.233-.06.478-.118.723-.172zm-2.749 1.48c.12-.045 1.495-.686 1.814-.836.16-.075.625-.24.625-.24l-2.439 1.075z" fill="#CFB66C"/>
    <path fill-rule="evenodd" clip-rule="evenodd" d="M2.316 13.33c.105-.04.204-.09.305-.136l.3-.14.6-.289c.2-.095.395-.2.601-.29.105-.043.21-.08.316-.114l.16-.05c.054-.015.105-.031.16-.045-.2.095-.411.176-.611.269-.2.099-.405.18-.611.269l-.611.269c-.205.083-.405.172-.61.256zm.133.56s1.246-.73 1.675-.965c.224-.126.95-.486.95-.486L2.45 13.89z" fill="#CFB66C"/>
    <path fill-rule="evenodd" clip-rule="evenodd" d="m2.45 13.89.639-.395.32-.194c.109-.065.214-.125.325-.19.11-.065.215-.13.326-.19.053-.033.108-.061.166-.085l.17-.085c.224-.11.449-.22.685-.316-.214.136-.434.252-.655.37-.11.061-.22.116-.33.177-.109.06-.214.125-.325.184-.11.064-.215.125-.326.184l-.33.18-.665.36zm2.615-1.29s-.775.594-1.026.784c-.25.19-.989.724-.989.724L5.065 12.6z" fill="#CFB66C"/>
    <path fill-rule="evenodd" clip-rule="evenodd" d="m9.51 17.394-.396-.75.23-.939 1.645-.635-.7-1.436.346-1.45.65-1.299 2.006-.315 1.474-1.406 3.184.24.625 3.405-1.204 4.286-.685 2.219-2.78.105-1.29-.894-1.51-.631-1.595-.5z" fill="#E2CC85"/>
    <path fill-rule="evenodd" clip-rule="evenodd" d="M14.385 17.37s-.384.176-1.04.136c-.19-.255-1.518-.374-1.518-.374s-.166-.05-.46.07c-.295.12-.574.106-.835.17-.26.065-.52-.275-.72-.345-.2-.075-.465-.255-.465-.255l-.56-.055-1.125-.475-1.786-1.78-.486.76-.15.94.54 1.115 1.455 1.325 2.836.72 1.68-.495 2.106-.89.528-.567z" fill="#F1D789"/>
    <path fill-rule="evenodd" clip-rule="evenodd" d="m4.31 11.08.36-1.09.43-.704 1.38-.115-.414 1.21-1.155 2.055.48 1.834-.85.425-.261-.4-.21-.919-.015-1.031.255-1.265z" fill="#F4ECB4"/>
    <path fill-rule="evenodd" clip-rule="evenodd" d="m5.86 17.295-.265-.37s-.071-.176-.03-.33c.04-.155.034-.166.013-.224-.02-.059-.19-.261-.18-.435.01-.176-.014-.235.116-.374.135-.136.095-.37.095-.37l.176.109.04-.061s.064.05.064.13c.015-.11-.044-.615.09-.73.133-.116.37.54.37.54l-.146-.951-.374-.975-.666-.89-.04-.981v-.085s-.305.47-.39.84c-.06.255.085.564.054.93-.024.364-.054.336.035.48.089.145.305.441.22.656-.075.184-.33.054-.33.054s-.05.15-.119.205a.453.453 0 0 0-.099-.2c-.004.034-.014.08-.014.08s-.045-.14-.09-.315c-.06-.235-.124-.544-.183-.71-.024.095-.085.384-.085.384l.034.445.166.611.16.4.156.49.135.328.11.251.095.565.459.485.244.11.178-.092z" fill="#F3E19D"/>
    <path fill-rule="evenodd" clip-rule="evenodd" d="M4.551 10.19s-.33.56-.425 1.125c-.095.564-.18 1.16-.12 1.93.061.774.176 1.25.27 1.59.16.564.574 1.348.574 1.348l.014-.03a2.131 2.131 0 0 1-.166-.415c-.055-.214-.075-.469-.125-.584-.045-.115-.12-.215-.156-.356-.035-.136-.04-.35-.146-.51a1.033 1.033 0 0 1-.115-.404c-.02-.255.01-.54-.014-.775-.045-.39-.075-.655-.035-.86.04-.204.251-.784.38-1.246.086-.295.035-.544.19-.8.157-.255.252-.48.286-.636.04-.141-.413.623-.413.623h.001z" fill="#F2E8B0"/>
    <path fill-rule="evenodd" clip-rule="evenodd" d="M6.115 9.966s-.17.05-.251.14c-.081.084-.115.155-.225.299-.109.143-.115.26-.204.44-.089.177-.285.442-.31.537-.024.095-.064.54-.115.75-.044.21.05.47.05.47l.116-.025s0 .15.115.251c.116.099.136-.336.136-.336l.43-1.454.65-.441.07-.356-.463-.275z" fill="#F5EEC0"/>
    <path fill-rule="evenodd" clip-rule="evenodd" d="M6.43 10.624s-.305.02-.455.13c-.06.044-.085.08-.15.135-.119.1-.24.19-.299.32-.065.13-.136.326-.184.696-.02.156-.02.3-.034.425-.02.17-.051.305-.035.4.02.194.22.295.24.516l.415-.21.39-1.54.83-.52-.47-.526-.248.174z" fill="#E6DB9D"/>
    <path fill-rule="evenodd" clip-rule="evenodd" d="m4.242 20.99.006-.045c.06-.52.07-.914.115-1.161.065-.35.109-.48.099-.61-.014-.211-.03-.365-.01-.527.03-.214.24-.469.235-.645-.005-.14-.075-.23-.136-.316l-.11-.155s.415-.285.411-1.434a.112.112 0 0 1 .025.01l.204.58.14.17.536 1 .69.669 1.019.686.639.695.065 1.855-.836 1.084-.137.248a11.88 11.88 0 0 1-2.955-2.103z" fill="#E5CB7A"/>
    <path fill-rule="evenodd" clip-rule="evenodd" d="M6.794 22.765s.014-.23.204-.38c.03.05.051.1.045.135.034-.06.275-.448.82-.55.543-.099.675-.495.675-.495l1.155-1.05 1.32-1.215 1.606-.565.75-.184s.015.055-.013.176c.14-.01.449-.08.77-.194.13-.05.251-.07.316-.004.095.089.11.3.115.425.156-.035.336-.184.48-.17.23.024.435.295.67.295.31 0 .449-.19.665-.34.13-.089.316-.2.42-.275.252-.184 2.905-.995 2.905-.995l.93.06.15 1-.08 2.612-.03.029-4.23 2.209-5.864.899a11.762 11.762 0 0 1-3.748-1.29l-.03-.133z" fill="#D8C173"/>
    <path fill-rule="evenodd" clip-rule="evenodd" d="M4.598 21.323c.083-.174.158-.32.171-.372.01.105.03.336.068.58-.08-.068-.16-.137-.239-.208z" fill="#F1D789"/>
    <path fill-rule="evenodd" clip-rule="evenodd" d="m8.882 23.781.758-.21.065.02s.034.02.034.088c.095-.054.176-.044.235-.08.03.064.06.279.194.305.14.03.29-.06.44-.176.15-.12.32-.269.45-.33.047.087.089.177.125.27.17-.136.466-.686.886-.676.122-.288.325-.533.584-.706.39-.265.636-.285.94-.261a1.61 1.61 0 0 1 .442-.394c.05.02.19.105.364.024.176-.081.374-.395.635-.435.14-.02.284.01.405.085 0 0 .76-.755 1.284-1.005-.02-.061-.06-.29.554-.795.034.03.01.115.034.12.01 0 .16-.065.35-.21.235-.177.516-.36.686-.411.32-.095.66.099.66.099a.304.304 0 0 1 .095-.045c.08-.014.139-.024.183-.04-.003.105.055.285 0 .441.064.036.13.064.2.085-.034.075-.109.265-.234.356.105.05.12.11.269.16-.06.085-.16.23-.204.32-.045.095-.205.49-.275.64-.075.149-.176.424-.225.48-.049.054-.225.288-.36.404.12-.045.61-.195.82-.251-.063.09-.377.557-.68 1.005a11.867 11.867 0 0 1-9.715 1.125v-.002z" fill="#E0CD81"/>
    <path fill-rule="evenodd" clip-rule="evenodd" d="M6.48 10.57s-.176 0-.21.025c-.035.024.176.075.24.099a.553.553 0 0 1 .241.224c.034.086 1.264.58 1.264.58l.87-.044.3-.414-.57-.5.4-1.179-.53.085-1.275.76-.639.245-.091.12z" fill="#DFC57C"/>
    <path fill-rule="evenodd" clip-rule="evenodd" d="M8.39 10.96a.136.136 0 0 0 .12.066c.18 0 .346.044.415.135.115.146.434.611.434.611l.765.275.05-.9-.836-.58-.95.35v.044h.002z" fill="#E5CC7C"/>
    <path fill-rule="evenodd" clip-rule="evenodd" d="M8.24 11.295s.14.01.315-.055c.176-.065.466-.204.591-.15.176.075.14.31.33.52.115.13.325.126.445.266s.53.074.53.074l.155.84-.625.802-.204.995h-.845l-.772-.307-.38-.92.19-.93.27-1.135z" fill="#D2C281"/>
    <path fill-rule="evenodd" clip-rule="evenodd" d="M9.875 11.335c.02.006.042.01.064.01-.024.02-.075.065-.054.18.02.115.084.261.03.35a.437.437 0 0 1 .095.166c.034.1.045.19.269.204a.475.475 0 0 0-.089.071s.156.136.235.26c.08-.003.295-.07.295-.07l.044.031.096-.04s-.09-.034-.025-.25c.06-.19.116-.18.12-.195.005-.014.045-.214.045-.295.03-.105.054-.425.054-.425l-.064-.706-.364-.22-.296-.286-.28.526-.183.183-.015.455.023.051z" fill="#E2C270"/>
    <path fill-rule="evenodd" clip-rule="evenodd" d="M10.75 10.744s.065.184.09.326a.314.314 0 0 0 .014-.085s.05.28.06.395c.02-.005.04-.01.045.01.004.02.05.244.04.37.084-.14.2-.256.34-.34a.594.594 0 0 1 .275-.11c.155-.003.268.1.455.1.449 0 .855-.33 1.155-.431.22-.075.41-.13.544-.25.064-.055.18-.177.285-.357.14-.24.285-.449.43-.475a.903.903 0 0 1-.2.014s.045-.045.12-.105c.076-.06.167-.136.296-.136.23 0 .346.035.475.035.13-.004.205-.035.205-.035s.135.095.44.095c.306.004.51.03.67.045.16.014.696-.045.85-.04.1.004.198.028.289.07l-.496-1.44-1.78-1.555-1.06.75-1.63 1.63-1.578.585-.33.37v.564h-.004z" fill="#CCB360"/>
    <path fill-rule="evenodd" clip-rule="evenodd" d="M14.29 9.92s.045-.045.12-.105c.074-.061.165-.136.295-.136.23 0 .346.034.475.034a.644.644 0 0 0 .204-.034s.136.095.441.095c.306.004.51.03.67.044.16.015.696-.044.85-.04a.74.74 0 0 1 .289.071l-.225-.65-.26-.495-.745-.815-.9-.53c-.004-.004-.31-.085-.31-.085l-.809.49-.734 1.9-.014.4.475.224c.12-.2.251-.36.374-.38-.111.012-.196.012-.196.012z" fill="#D5B457"/>
    <path fill-rule="evenodd" clip-rule="evenodd" d="M14.28 10.055c-.07.004-.13-.01-.146-.061-.06-.17-.109-.194-.16-.194-.05 0-.119.109-.16.119-.04.01-.088-.125-.088-.125l-.045-.02s-.26.17-.445.37c-.184.2-.485.54-.62.6-.136.06-.602.081-.76.116a.984.984 0 0 0-.36.176c-.025.026.07.054.084.08.014.025-.156.014-.17.04-.01.02.04.136.065.194a.33.33 0 0 1 .14-.034c.155-.004.269.1.455.1.449 0 .855-.33 1.155-.432.22-.074.41-.13.544-.25a1.43 1.43 0 0 0 .285-.356c.077-.124.152-.24.226-.324z" fill="#D2B257"/>
    <path fill-rule="evenodd" clip-rule="evenodd" d="M7.84 20.064s-.04-.15-.41-.536c-.106-.109-.17-.2-.241-.265-.176-.166-.28-.21-.405-.305-.275-.204-.574-.204-.805-.455-.23-.25-.5-.73-.686-1.22-.184-.49-.234-.645-.234-.66 0-.013.05-.108.115-.094.065.014.065.14.08.17a1 1 0 0 0 .11.14c.095.108.23.24.3.434-.015-.166-.071-.35-.071-.35s.356.225.659.46c.305.234.43.315.52.464.09.15.3.545.4.66.1.115 1.48.55 1.48.55l.656.49.326.713-.255.4-.49.105-.795-.356-.254-.345z" fill="#D2B159"/>
    <path fill-rule="evenodd" clip-rule="evenodd" d="M6.074 17.606s.166.265.57.515c.365.221.94.421 1.455.54.295.071.59.126.855.13.714.01 1.206-.194 1.815-.26.33-.035.734-.062 1.155-.16.54-.13.86-.276 1.294-.48.316-.146.605-.256.84-.395.33-.194.57-.41.849-.476-.034.096-.07.265-.346.441.146-.004.346-.014.346-.014s-.194.116-.536.374c-.21.16-.49.431-.775.611-.184.116-.384.2-.515.27-.32.175-.45.264-.66.48.075-.005.081 0 .081 0s-.265.034-.455.135c-.04 0-.11-.014-.23.02-.096.03-.221.1-.35.136-.185.054-.245.03-.245.03l.03.06s-.24-.004-.32.005c.014.004.01.01.01.01a.125.125 0 0 0-.04.014.417.417 0 0 1-.125.054c-.024.004-.045.004-.075.01.01.025.089.16.125.24-.03.02-.485.365-.485.365a.354.354 0 0 1 .034.07c.014.045.02.11.035.14.034.06.054.07.054.07s-.054.01-.15.035c-.08.02-.18.055-.32.075a1.246 1.246 0 0 1-.129.01c.02.045.11.214-.055.41-.163.197-.214.225-.264.35a.54.54 0 0 0-.081-.05c-.055-.024-.13-.06-.156-.11a1.297 1.297 0 0 1-.06.19c-.051.136-.126.27-.14.371-.055-.06-.156-.18-.296-.156-.14.024-.25.215-.275.27 0-.035-.024-.061-.03-.021-.004.045-.08.51-.51.886-.004-.095-.004-.306-.014-.374-.04.04-.089.099-.38.224-.285.126-.24.251-.24.251s-.024-.2.13-.41c.155-.21.25-.31.25-.326a.09.09 0 0 0-.02-.045c-.02-.02-.06-.044-.06-.06.024-.01.264-.126.25-.364a.645.645 0 0 0-.17-.405c-.01-.01.095-.085.081-.11-.01-.013-.14-.108-.156-.16.004-.03.011-.06.02-.088.015-.045.025-.075.02-.105a.84.84 0 0 0-.08-.204c.014.003.115 0 .115 0s-.08-.13-.095-.19c-.014-.061-.044-.221-.06-.251.034.004.119.01.119 0 .004-.03-.075-.081-.04-.12.024.004.07.024.115.08-.024-.064-.065-.19-.15-.24a.368.368 0 0 1 .296.02c.119.07.16.17.16.17s.07.054.18.135c.125.1.285.24.54.34.054.03.194.03.295.01a.454.454 0 0 0 .125-.05.234.234 0 0 1 .045-.02.974.974 0 0 0-.075-.126c.035 0 .075.004.075.004s.024-.055-.085-.16c.024-.024.055-.04.055-.08-.035-.005-.095-.055-.11-.076.02-.014.051-.06.085-.074-.03-.025-.105-.126-.14-.136a.63.63 0 0 0 .096-.044s-.17-.045-.225-.081c-.054-.04-.135-.11-.184-.13-.05-.02-.14-.03-.176-.07.035.01.09 0 .13 0 .03 0 .044.003.054.003-.004-.014-.004-.044.075-.054a.368.368 0 0 0 .11-.034s-.075-.005-.16-.085c-.086-.081-.156-.146-.205-.156-.05-.01-.145.034-.204.03-.081-.01-.115-.05-.115-.05s-.27.024-.866-.34c-.516-.316-.74-.595-.74-.595a.885.885 0 0 1-.14-.065c-.194-.1-.463-.311-.455-.586l-.001.002z" fill="#C2A44D"/>
    <path fill-rule="evenodd" clip-rule="evenodd" d="M13.515 5.465a.262.262 0 0 1 .12.081c.095.11.156.316-.06.536.085.03.12.04.194.03-.075.09-.245.28-.255.445-.01.136.075.176.075.176s-.13.15-.136.4c.061-.069.128-.132.2-.19.15-.119.356-.254.496-.34a.286.286 0 0 0 .014.106s.26-.215.48-.12c.099.045.054.184.054.184s.136-.05.231.045.23.34.298.435c.03.045.11.13.19.261.11.184.203.379.276.58.004-.105.03-.268.33-.165.299.105.639.325.924.76.285.434.356.924.5 1.111.145.18.294.48.305.605.01.125-.045.53.255 1.624.084-.34.214-1.094.214-1.094l.07-.666.082-2.059-2.15-1.786-1.681-1.22-1.095.105.07.156z" fill="#CAA13E"/>
    <path fill-rule="evenodd" clip-rule="evenodd" d="M17.51 8.529s-.03-.2-.536-.54c-.506-.336-.9-.336-1.264-.621-.28-.225-.57-.74-.76-.91-.184-.168-.214-.654-.214-.654l.62-.52.924-1.335.78-.86.375.52.52.612.289 1.225.105 1.795-.84 1.288h.001z" fill="#B59544"/>
    <path fill-rule="evenodd" clip-rule="evenodd" d="M18.135 10.68a2.28 2.28 0 0 0-.1-.804 14.856 14.856 0 0 0-.56-1.427c-.054-.305-.013-.33.045-.364.06-.034.28-.16.4-.6.121-.441.496-.456.496-.456l.23-.17.35.876.306.791.095.605.07.516-.165 1.09-.82.74-.347-.796z" fill="#C89D3A"/>
    <path fill-rule="evenodd" clip-rule="evenodd" d="M6.705 22.832v-.022a.172.172 0 0 0 .045-.04c.014-.02.024-.044.034-.05a.38.38 0 0 1 .166-.03c.05.009.184.064.255.06.145-.004.315-.116.584-.065.405.075.5.35.735.506.16.109.325.06.35.06h.054c.01 0 .085-.085.125-.08.081.003.09.07.14.074.12.014.35-.06.465-.03a.222.222 0 0 1 .091.37c-.125.115-.244.225-.269.32.031.024.06.049.09.075-1.002-.255-1.965-.64-2.865-1.146v-.002z" fill="#CEB052"/>
    <path fill-rule="evenodd" clip-rule="evenodd" d="M17.476 18.79s.315-.42.425-.63c.109-.214-.346-2.934-.346-2.934l.914-2.995-.024-.975s.044-.9.15-1.29c.125.224.515.495.6.638.04-.275.176-.855.156-1.474.075.115.255 1.274.255 1.274l.18.78.234.83.261.876.156.605.089.145.075.255.07.275.205.646.12.53.095.96c.02.074.036.149.045.225.004.105-.015.166-.015.184 0 .018.035.23.02.39-.02.16-.02.285-.145.4-.125.115-.204.801-.204.801l-.225-.15s.045-.204-.06-.39a.395.395 0 0 0-.425-.194c-.116.024-.346.06-.421.126-.07.064-.245.264-.405.355-.2.12-.525.13-.7.17-.175.04-.37.16-.574.3-.16.103-.33.193-.505.266l-.001.001z" fill="#CCA847"/>
    <path fill-rule="evenodd" clip-rule="evenodd" d="m17.476 23.21.039.022a11.88 11.88 0 0 0 3.787-2.806c-.012-.41-.027-.83-.044-.985-.034-.33-.01-.665-.02-.86a12.48 12.48 0 0 0-.17-1.189c-.054-.204-.16-.305-.176-.305-.014.004-.099.384-.099.48 0 .096-.02.326-.02.384-.014-.004-.02-.04-.02-.054-.02.05-.045.14-.055.15-.01.01.014-.086 0-.106-.014-.02-.04-.01-.034-.06a.58.58 0 0 1 .014-.09s-.06.09-.105.316c-.045.225-.045.23-.06.25-.015.025-.096.106-.1.136-.004.055.075.11.08.14.005.05-.07.285-.094.4-.024.115-.014.34-.04.455-.02.105-.04.166-.11.21.051.01.1.024.1.024s.07.3-.11.555c-.064.089-.08.13-.15.21-.135.15-.24.32-.25.431a.722.722 0 0 1-.014-.1s-.21.246-.3.385c-.115.18-.275.17-.32.215-.044.044-.054.125-.04.19-.04.01-.115.024-.165.18a.38.38 0 0 1-.18.214c-.096.055-.21.07-.27.085.051.014.071.014.096.03-.03.05-.17.13-.326.231a.68.68 0 0 0-.27.326c-.04.085-.098.14-.193.15.04.024.099.08.13.098-.045.01-.12.01-.256.126-.141.117-.19.152-.255.162z" fill="#C39D3C"/>
    <path fill-rule="evenodd" clip-rule="evenodd" d="M14.661 24.148c.078-.054.162-.099.25-.132.316-.126.65-.15.78-.19.126-.04.225-.096.381-.126l-.011.1c-.46.145-.927.26-1.4.348z" fill="#D2BA6B"/>
    <path fill-rule="evenodd" clip-rule="evenodd" d="M20.48 15.85s-.065.35-.18.57c-.115.22-.24.526-.24.526 0-.069.009-.137.024-.204-.145.085-.5.289-.6.38-.095.085-.255.235-.295.305.095-.279.194-.53.21-.645-.145.105-.825.666-1.179 1.036l-1.102.892c-.127.069-.258.13-.393.184-.19.08-.414.15-.58.214a.92.92 0 0 1 .214-.326c.106-.099.421-.44.47-.6.044-.166.054-.265-.004-.404-.055.014-.18.02-.265.044-.085.024-.176.115-.176.115s.064-.37.204-.72a2.964 2.964 0 0 0-.285.035s.25-.421.68-.714c-.132.028-.26.068-.385.119-.25.105-.525.261-.73.346.115-.16.925-1.315 1.406-2.39.48-1.075.66-1.35.765-1.926.054-.286.04-.707.054-1.085.014-.374.06-.71.03-.934.126.156.595.595.611 1.576.014.98-.449 2.306-.94 3.02.12.034.43.074.75-.48.32-.556.316-.71.431-.941.014.115.01.156.01.156s.465-.565.686-1.275c.044.306.176.575-.03 1.135-.185.506-.425.63-.425.63s.12-.021.295-.126c.03.075.024.16.075.19.05.03.12.08.13.13.054-.082.139-.185.165-.262-.02.16-.034.86.04 1.216.156-.014.316-.024.425-.305a1.25 1.25 0 0 0-.024.675c.083-.056.158-.158.158-.158z" fill="#C0993A"/>
    <path fill-rule="evenodd" clip-rule="evenodd" d="M15.225 4.701s-.156.065-.421.065c-.23 0-.166-.09-.526-.09-.554 0-2.49.32-2.83.316-.22-.004.745.095.745.095l2.465.035.496-.04.184-.375-.113-.006z" fill="#A88F33"/>
    <path fill-rule="evenodd" clip-rule="evenodd" d="M8.831 9.521s-.316.241-.449.425-.204.306-.356.455a.312.312 0 0 0 .105-.014s0 .04-.024.05a.141.141 0 0 1 .115.04c-.044.025-.166.146-.07.29.07.11.22.12.22.12s-.035.098.11.088c.309-.014.654-.15.814-.115.16.04.251.055.364.251.12.194.225.224.225.224s.07-.18.054-.449c.059-.144.09-.298.095-.455l-.105-.774-.459-.58-.594.329-.045.115z" fill="#E3C571"/>
    <path fill-rule="evenodd" clip-rule="evenodd" d="M9.395 9.405s.045.106.23.116c-.02.044-.02.05-.013.085l.01.085a.188.188 0 0 0 .054-.04c.01.044-.01.115 0 .165.006.031.017.061.03.09a.179.179 0 0 1 .01-.02c.005-.01.04.108.14.2 0-.015.004-.029.01-.04a.14.14 0 0 0 .024.07.073.073 0 0 1-.02-.014s.01.32.065.485a.228.228 0 0 0 .024-.034c0-.01-.004.089-.014.16-.014.07-.004.17-.004.17a.531.531 0 0 1 .12-.071c.06-.024.16-.1.22-.265.035-.094.062-.19.08-.29.02.038.034.079.04.12.005.051.1.025.1.025l.02-.22.12-.5.11-.31.525-.819.95-.731.83.19.7-.951-1.206-.724-1.14.12-1.036 1.433-.83 1.3-.149.215z" fill="#D8B65B"/>
    <path fill-rule="evenodd" clip-rule="evenodd" d="M15.37 7.33s-.07.014-.275.12c-.204.106-.346.14-.425.295a.765.765 0 0 0-.085.28s.14-.061.22-.081c.086-.02.18-.014.17.02a.233.233 0 0 1-.04.065s.16-.004.156.075a.416.416 0 0 1-.06.204c-.03.04-.156.1-.17.146-.034.095.014.099-.004.175-.014.075-.08.221-.3.476-.224.255-.32.435-.32.435s-.108-.205-.165-.38c-.04.02-.255.139-.255.139l-.498-1.733.01-.116s.045-.054.055-.155c-.075-.025-.085-.045-.184-.14-.1-.095-.18-.21-.346-.29-.024-.044-.054-.104-.176-.129-.121-.024-.194-.044-.194-.044s.065-.025.095-.075c-.075.01-.135.034-.3.03-.165-.004-.183-.01-.274.004-.091.014-.2.055-.24-.085-.046-.034-.14-.004-.222.116-.08.119-.109.214-.264.26a.544.544 0 0 1-.071.195c-.045.075-.116.15-.21.26-.15.177-.126.466-.365.686-.24.22.04-.61.04-.61l.384-.92 1.095-1.07 1.699-.116.166.88.83.285.523.8V7.33z" fill="#D3AE4D"/>
    <path fill-rule="evenodd" clip-rule="evenodd" d="m15.64 7.524-.715-1.03-.5-.384s-.355-.655-.38-.675c-.02-.014-.356-.05-.57-.065l.04.1a.262.262 0 0 1 .12.08c.095.11.156.316-.06.536.084.03.12.04.194.03-.075.09-.245.28-.255.445-.01.136.075.176.075.176s-.13.15-.136.4c.061-.069.128-.132.2-.19.15-.12.356-.255.496-.34a.287.287 0 0 0 .014.106s.26-.215.48-.12c.099.045.054.184.054.184s.136-.05.23.045c.096.095.232.34.3.435.03.044.11.13.19.26.11.185.203.38.276.581.004-.08.02-.194.16-.194l-.213-.38z" fill="#CAA13E"/>
    <path fill-rule="evenodd" clip-rule="evenodd" d="M4.935 10.45s-.05-.126 0-.37c.051-.246.13-.36.156-.72.026-.36.261-.81.261-.81l.65-.295.458.125.136.615-.58.32s-.03.136-.195.245c-.164.109-.39.194-.445.305a.89.89 0 0 0-.07.215s-.166-.035-.265.075c-.106.11-.102.21-.106.295z" fill="#F4EFC8"/>
    <path fill-rule="evenodd" clip-rule="evenodd" d="M6.246 10.286s-.055.034-.095.12c-.04-.065-.136-.45-.14-.795-.004-.346-.024-.432.056-.55.08-.12.394-.246.349-.46-.045-.205-.23-.29-.46-.23-.16.04-.278.38-.444.55-.126.129-.275.108-.316.18-.054.094-.004.19-.02.25a1.21 1.21 0 0 1-.146.261c-.184.265-.495.64-.536.975.015-.19.005-.194.055-.405l-.03-.05.2-.655.13-.54.288-.905.51-.924.496-.554.515.034.061.775.295 1.454.621.765-.995.67-.394.034z" fill="#EBCC73"/>
    <path fill-rule="evenodd" clip-rule="evenodd" d="M6.556 10.56s-.085.02-.116.004c-.03-.016-.06-.034-.05-.055.01-.02.064-.054.064-.07a.057.057 0 0 0-.05-.061c-.047-.006-.06.024-.06.024s-.045-.034-.082-.04a.56.56 0 0 1 .065-.004.628.628 0 0 0-.176-.05c.05-.03.15-.12.214-.12.065 0 .106-.01.095-.044-.01-.035-.06-.085-.115-.105.02-.025.035-.061-.014-.16-.05-.1-.03-.166-.014-.19.014-.03.065-.085.089-.12.024-.034.044-.08.085-.105.02-.014.085-.04.15-.065.07-.024.13-.054.17-.024.044.03.024.07.024.07s.14-.05.265.015c.125.06.43.1.43.1l.11.22-.724.62-.3.15-.06.01z" fill="#E5C66B"/>
    <path fill-rule="evenodd" clip-rule="evenodd" d="M7.56 9.545s-.224.15-.274.204c.03.004.08.025.06.055-.024.03-.17.135-.25.234a1.55 1.55 0 0 0-.195.286c-.03.054-.26.214-.34.234.166 0 .5-.204.625-.204-.004.06.035.13.106.135.07.006.275.045.55-.125.275-.166.184-.29.299-.37.22-.146.31-.275.43-.356.122-.08.185-.1.185-.1s.004-.06.04-.054a.054.054 0 0 1 .044.035s.21-.15.48-.19a.028.028 0 0 1-.014-.015s.02-.01.025-.02c0 0 .014-.02.024-.01s.024.085.044.115c.045-.02.13-.21.13-.21l.204-.585V8.07l-.16.03-1.2.51-.728.755-.085.18z" fill="#E6BD62"/>
    <path fill-rule="evenodd" clip-rule="evenodd" d="M11.015 6.926a.678.678 0 0 0 .185-.075c-.024.065-.024.136-.13.29-.105.153-.109.175-.194.335-.085.166-.095.405-.176.51a.37.37 0 0 1 .116-.035s-.081.071-.116.146c-.034.075-.095.23-.244.326-.15.095-.34.155-.544.38-.205.22-.415.5-.52.6.054-.095.13-.285.15-.41.02-.126-.005-.276.03-.442.034-.165.034-.285.2-.574.165-.29.449-1.295.449-1.295l.61-.194.185.437z" fill="#B6933F"/>
    <path fill-rule="evenodd" clip-rule="evenodd" d="M10.574 6.555s-.184.265-.234.5c-.05.234-.004.214-.035.33a.43.43 0 0 0 0 .214.762.762 0 0 1 .255-.251c.174-.105.316-.18.4-.269.085-.095.156-.25.34-.37-.075-.01-.18-.045-.2-.04.075-.085.299-.214.526-.37.224-.16.21-.225.574-.384-.12.02-.176-.01-.275 0 .04-.085.18-.126.32-.265.14-.14-.089-.346-.089-.346l-1.067.645-.515.607z" fill="#C49937"/>
    <path fill-rule="evenodd" clip-rule="evenodd" d="m7.68 6.074.024-.194.306-.49.32-.859V3.356l-.025-.68.05-.445.04-.141.04-.055.26.136.36.49.035.944-.35 1.49-1 1.09-.06-.11z" fill="#DFC068"/>
    <path fill-rule="evenodd" clip-rule="evenodd" d="M8.475 1.98s-.16.005-.194.67c-.034.666-.05 1.016-.075 1.345-.024.33-.08.53-.11.724-.028.195-.044.46-.135.621-.04.075-.125.31-.325.486-.225.194-.56.33-.611.34-.09.02-.54.064-.724.166-.065.034-.176.074-.3.19a3.82 3.82 0 0 0-.805 1.09c-.36.71-.72 2.714-.72 2.714l.081-.135s.01-.18.19-.496c.176-.315.126-.67.37-1.274.095-.23.215-.53.36-.785.231-.415.51-.77.791-.965.46-.315.965-.384.965-.384l.544-.36s.095-.184.22-.394c.177-.296.4-.625.45-1.105.075-.71-.105-1.175-.095-1.596.01-.42.014-.73.099-.805.085-.075.024-.046.024-.046z" fill="#A88F33"/>
    <path fill-rule="evenodd" clip-rule="evenodd" d="M8.475 5.156s.24-.59.35-1.115c.02-.105.06-.21.07-.295.051-.495.065-.7 0-.97-.05-.2-.244-.381-.345-.52-.1-.147-.146-.2-.125-.231.02-.031.099-.081.175-.075a.602.602 0 0 1 .431.2c.156.18.28.79.28.79l.13.807.329 1.015-1.295.395v-.001z" fill="#C99E3D"/>
    <path fill-rule="evenodd" clip-rule="evenodd" d="M10.73 4.541s-.044.02-.125 0a.18.18 0 0 1-.081.17c-.085-.034-.88.034-.88.034s-.37-.064-.486-.554c-.08-.326.061-.775.015-1.07-.071-.435-.17-.52-.18-.655-.01-.136-.02-.17-.02-.255-.045-.01-.071-.024-.116-.024-.01-.04.01-.075-.034-.146.024.01.19.03.384.214.16.15.16.205.184.235.03.03.275.24.38.45.106.208.31.875.356.984a.73.73 0 0 0 .12.19c.118.146.29.387.484.427z" fill="#B58634"/>
    <path fill-rule="evenodd" clip-rule="evenodd" d="M9.42 2.5c.122.198.232.403.329.615.12.269.19.49.34.67-.081-.235-.225-.696-.31-.86a1.971 1.971 0 0 0-.36-.425z" fill="#A88F33"/>
    <path fill-rule="evenodd" clip-rule="evenodd" d="M8.044 5.825s-.204.05-.584.251c-.126.065-.245.12-.36.17-.3.135-.621.26-.876.33l.03.034s0 .1.055.156c-.03.03-.435.305-.316 1.225.081-.03.176-.07.19-.07.025.004.03.07.06.07.031 0 .13-.04.236-.176-.004.055-.065.605.26.975.061-.07.215-.305.215-.305l.004-.075s.014-.26.1-.5c.084-.238.25-.414.25-.414l.865-1.236-.13-.435h.001z" fill="#E6C367"/>
    <path fill-rule="evenodd" clip-rule="evenodd" d="M7.235 7.64a.478.478 0 0 1-.13.065.5.5 0 0 1 .086-.395c.14-.204.444-.469.53-.68.054-.135.03-.475.515-.91.486-.435.676-.584.676-.584l.785-.395.964.38-.479 1.88-.372.88-1.48-.28-1.095.04z" fill="#DCBA5A"/>
    <path fill-rule="evenodd" clip-rule="evenodd" d="m7.8 7.13.184-.23v-.164s.204-.055.425-.28c.22-.224.526-.655.795-.629.269.03.295.585.305.74.01.157.045.51.1.7.06.19-.656.91-.656.91l-.486.37L7.8 7.13z" fill="#E9CE77"/>
    <path fill-rule="evenodd" clip-rule="evenodd" d="M8.37 9.05s.15-.235.04-.286c.064-.145.184-.3.184-.3s.085-.21.36-.468c.275-.26.445-.431.49-.605.027-.114.042-.23.044-.346.03.024.061.046.095.065.044.02.255.194.224.544-.03.35-.16.495-.16.495s-.125.126-.214.19c-.095.065-.13.14-.29.146a.191.191 0 0 1 .055-.03s-.165-.02-.255.06c-.089.081-.278.33-.373.405-.095.06-.2.13-.2.13z" fill="#CDAE50"/>
    <path fill-rule="evenodd" clip-rule="evenodd" d="M15.095 5.115a2.436 2.436 0 0 0-.744-.146c-.425-.014-1.046.01-1.655.015-.655.004-1.25-.225-2.075-.265-.136-.081-.48-.435-1.556.315.065-.004.781-.166 1.03.146.25.31.18.835.146.96-.065.28-.276.686-.36.971-.085.286-.065.436-.126.636-.06.2-.194.299-.115.53.105-.065.16-.065.336-.46.175-.394.14-.675.43-1.009.286-.336.76-.795.941-.91.18-.116 1.614-.86 3.115-.15.362-.038.633-.633.633-.633z" fill="#D2A83E"/>
    <path fill-rule="evenodd" clip-rule="evenodd" d="M9.67 4.84a.186.186 0 0 0-.01-.044.325.325 0 0 0-.055-.08S9.25 4.65 9.07 4.67c-.315.034-.6.425-.734.625-.133.2-.3.51-.48.67a.067.067 0 0 0-.01-.045s.01.014-.01.034c-.02.02-.02.03-.01.04l.031.03c.01 0 .29-.125.67-.48.404-.37.713-.56.875-.625.087-.036.177-.063.27-.08z" fill="#C29637"/>
    <path fill-rule="evenodd" clip-rule="evenodd" d="M16.576 3.32s-.065.08-.146.17c-.18.19-.415.404-.615.624-.19.21-.404.374-.645.65-.241.275-.52.58-.59.669a.66.66 0 0 0-.116.31 2.816 2.816 0 0 0-.075-.051.509.509 0 0 0 .06.089c.051.07.13.16.17.214.05.07.086.148.106.23.024.005.18.035.374-.284.194-.32.449-.67.449-.67l.405-.6.254-.51.32-.57.05-.272h-.001z" fill="#AC8132"/>
    <path fill-rule="evenodd" clip-rule="evenodd" d="M16.99 2.911s-.244.2-.34.32c-.095.12-.32.435-.32.435l.082-.01.41-.364.16-.285.008-.095z" fill="#A88F33"/>
    <path fill-rule="evenodd" clip-rule="evenodd" d="M16.915 18.985s-.004-.166.09-.265c.095-.1.335-.245.57-.791.235-.546.26-.67.26-.67s-.42.36-.68.445c.061-.125.096-.214.126-.28-.034-.03-.18-.064-.194-.08.08-.08.125-.28.29-.41.21-.16.594-.436.893-.68.298-.246.885-.816.96-.982.045.065.055.105.055.105s-.295.385-.45.63c-.135.21-.125.33-.125.33l.28-.12s.08.299-.286.754c.16-.06.225-.024.316-.075-.15.095-.356.225-.55.58-.19.357-.45.771-.886 1.03a7.34 7.34 0 0 0-.67.477l.001.002z" fill="#A67A2E"/>
    <path fill-rule="evenodd" clip-rule="evenodd" d="M15.82 5.326s-.167.346-.19.615c-.005.065-.021.115-.021.19-.004.241.014.51-.04.635-.02-.05-.03-.085-.05-.105-.031.085-.086.35-.13.45a2.114 2.114 0 0 1-.06-.555c.003-.265.01-.316.01-.37-.01.08-.066.19-.086.255-.03-.055-.064-.126-.105-.184-.024.04-.054.099-.08.13a1.811 1.811 0 0 1-.021-.18c-.004-.106-.01-.241-.004-.27.01-.054.095-.269.275-.465.215-.235.435-.686.5-.825.064-.14.34-.72.34-.72h.21l-.306.695s-.184.38-.279.52c-.095.14-.295.54-.384.696.065-.085.12-.13.184-.21.063-.057.236-.301.236-.301z" fill="#8C6228"/>
    <path fill-rule="evenodd" clip-rule="evenodd" d="M16.994 2.885a.868.868 0 0 1-.16.29c-.125.149-.394.349-.525.509-.12.155-.36.58-.251 1.084.04-.11.115-.326.315-.57.2-.245.415-.526.52-.745.105-.22.12-.394.12-.394l.04-.05-.025-.116-.034-.008z" fill="#CBA94C"/>
    <path fill-rule="evenodd" clip-rule="evenodd" d="M21.09 16.3s-.08-.22-.105-.42c-.024-.2.04-.24-.034-.47-.045-.139-.126-.12-.146-.139-.02-.02-.034-.23-.03-.346a1.298 1.298 0 0 0-.025-.33c-.03-.024-.05-.044-.095-.194-.05-.15-.075-.224-.099-.268-.024-.045-.095-.085-.095-.13 0-.089.081-.135.081-.16-.004-.05-.065-.01-.081-.024-.02-.024.05-.17.024-.19-.01-.01-.08.075-.099.05-.02-.024-.044-.265-.08-.424-.035-.156-.072-.27-.076-.316a30.31 30.31 0 0 0-.345-1.02 4.825 4.825 0 0 1-.136-.489c-.02-.095-.034-.29-.044-.269-.01.02-.004.12-.02.116-.015-.005-.065-.35-.081-.405-.015-.055-.1-.24-.12-.374-.02-.136-.065-.49-.096-.73-.03-.241-.044-.34-.044-.4a2.492 2.492 0 0 0-.024-.441 4.112 4.112 0 0 0-.19-.745c-.136-.34-.496-1.21-.56-1.426 0-.054.07-.024.07-.024s.176.441.306.78c.125.34.244.64.275.67.024.03.214.364.3.91.084.547.114 1.05.165 1.386.024.16.045.33.095.5.055.184.14.374.251.665.095.245.166.45.204.625.045.225.045.394.071.506.024.095.06.285.146.56.085.275.21.629.295.85.166.44.24.808.265 1.005.022.202.097.902.077 1.112z" fill="#A88F33"/>
    <path fill-rule="evenodd" clip-rule="evenodd" d="m17.005 2.86-.01.025s.03.01.024.05c0 .056-.003.112-.01.167-.01.07-.03.125-.035.17 0 .095.014.204-.12.475-.04.075-.064.14-.085.184a.547.547 0 0 1-.105.176c.071-.04.326-.2.455-.176a.949.949 0 0 0-.31.279c.021.004.106.02.24 0 .225-.034.476-.115.697-.1.24.015.145-.288.145-.288l-.278-.611-.526-.37-.082.02z" fill="#BE9C44"/>
    <path fill-rule="evenodd" clip-rule="evenodd" d="M18.376 7.435s-.235-.235-.33-1.04c-.095-.81-.075-2-.075-2l-.19-.466s-.04-.31-.14-.424c-.099-.115-.294-.31-.384-.405-.089-.095-.19-.224-.25-.245.03-.05.165-.335.685-.34.52-.003.68.286.735.391.054.105.299.56.39 1.427.085.865.089.93.075 1.23-.01.165-.065.55-.16.96-.087.348-.182.737-.356.912z" fill="#A17C34"/>
    <path fill-rule="evenodd" clip-rule="evenodd" d="M17.64 8.125a.398.398 0 0 0 .225-.05c.074-.005.345.03.554-.235.014.06.05.224-.045.37.05-.05.126-.07.136-.085.004.075.075.305-.225.866.081-.09.176-.085.261-.095.004.105.06.459-.089.649-.099.13-.26.089-.26.089a.524.524 0 0 0 0-.085c-.005-.055-.025-.11-.01-.146a.724.724 0 0 1-.211-.145c-.176-.166-.405-.45-.42-.66-.021-.234.19-.285.19-.285a.226.226 0 0 1-.045-.055c-.01-.034-.02-.089-.061-.133z" fill="#8C6228"/>
    <path fill-rule="evenodd" clip-rule="evenodd" d="M16.08 5.58s-.01-.014-.065.05c.01-.064.02-.125.025-.184a.64.64 0 0 1 .099-.15c-.03.061-.05.116-.05.116s.074-.14.183-.225c.075-.06.17-.089.21-.145.045-.061.035-.071.045-.081 0 0 .1-.065.251-.255.02-.025.05-.05.07-.075a3.23 3.23 0 0 0 .211-.1c.1-.054.21-.129.28-.16.135-.06.279-.054.345-.149.05-.014.105-.166.095-.295.075.03.46.269.59.79.096.37-.074.941-.145 1.216-.07.275-.08.48-.18.605-.125.166-.53.4-.629.516-.085.095-.34.336-.33.51.01.129.17.2.205.224.034.024.034.055.099.04s.089-.045.115-.045c.03.004.03.01.045.01.01 0 .02-.001.03-.004 0 0-.01.185-.441.24-.03.005-.06.015-.1.02.052-.024.082-.024.136-.098-.06-.01-.234-.02-.279-.035a.54.54 0 0 1 .1-.12c.034-.03-.005-.04-.035-.023a1.618 1.618 0 0 0-.15.115c-.05.044-.095.105-.176.16a.394.394 0 0 1 .075-.346c-.024.004-.07.075-.115.06a.647.647 0 0 1 .014-.22c.024-.091.156-.25.156-.25l.635-1.136.135-.86-1.454.283z" fill="#92723A"/>
    <path fill-rule="evenodd" clip-rule="evenodd" d="M16.046 5.628s-.035.024.034.071c-.01.014-.034.065-.065.1-.034.04-.07.064-.085.098-.03.071-.054.12-.054.15s-.01.225-.095.35c-.03.044-.065.12-.09.17-.05.089-.094.16-.105.2-.02.07-.034.265-.034.265l.06-.075c-.024.05-.05.105-.088.145.024-.02.095-.07.214-.176.166-.139.425-.374.74-.56-.095.035-.175.035-.24.045.05-.05.506-.585.744-.635a.095.095 0 0 0 .02-.065l-.204-.02-.415.089-.06-.32-.277.168z" fill="#B18E3E"/>
    <path fill-rule="evenodd" clip-rule="evenodd" d="M16.705 7.45s-.054.054-.105.19a.64.64 0 0 1-.1-.136c-.074-.126-.19-.285-.458-.194-.004-.085-.01-.13 0-.19.044-.01.18-.12.315-.28a1.29 1.29 0 0 0 .245-.394c.04-.03.11-.08.2-.14.13-.089.285-.21.31-.345-.061.024-.19.084-.385.074.075-.034.19-.07.176-.22.03-.02.055-.034.055-.034a.2.2 0 0 0-.071-.01c-.004-.015-.01-.035-.045-.025-.034.01-.04.01-.044.024-.014.005-.06 0-.095.025-.035.024-.13.105-.166.119l.034-.06s-.099.01-.17.04c-.13.044-.279.125-.43.204.014-.025.02-.04.03-.045.01-.004.034-.01.034-.014s-.01-.04-.004-.054a1.86 1.86 0 0 1 .16-.276c.071-.095.085-.23.085-.23l.31-.156.87-.2.564.034-.071.39-.333.682-.286.621-.325.38-.3.22z" fill="#543E26"/>
    <path fill-rule="evenodd" clip-rule="evenodd" d="M18.115 5.76s-.34.42-.435.485c.06-.13.435-.9.57-1.115-.03-.024-.07-.024.024-.4-.08.19-.109.29-.175.34-.067.05-.075.035-.12.035a.085.085 0 0 0 .01-.05s-.286-.035-.48-.035c-.195 0-.58.105-.795.19-.17.07-.265.07-.326.115-.06.05-.095.105-.125.12-.025.013-.14.05-.166.088-.024.04-.065.085-.065.095 0 .01-.01.025.02.014.01-.004.085-.044.17-.095.115-.064.255-.14.356-.184.29-.115.38-.095.51-.119.135-.024.33-.08.459-.08.13-.005.374 0 .43.01-.023.02-.044.044-.034.129 0 .024-.02.05-.04.109a9.91 9.91 0 0 1-.24.58c-.088.19-.19.35-.24.45-.05.098-.16.36-.268.499-.11.14-.166.225-.2.255-.035.03-.28.21-.261.275.044-.014.325-.12.53-.35.204-.23.244-.37.404-.495.16-.126.285-.336.36-.51.063-.162.049-.212.127-.356z" fill="#806031"/>
    <path fill-rule="evenodd" clip-rule="evenodd" d="M10.791 8.9s-.045.184-.146.275c-.099.089-.275.166-.295.315-.024.15.176.225.176.225s-.11.18-.11.316c0 .14-.003.165.01.299a.133.133 0 0 0-.04.04s.01.13.11.21c.1.08.184.13.235.11a.49.49 0 0 1 .02.05s.075-.19.125-.356c.05-.17.095-.146.116-.374.02-.229.24-.621.24-.621l.15-.336-.245-.19-.346.037z" fill="#B6903C"/>
    <path fill-rule="evenodd" clip-rule="evenodd" d="M11.246 9.23c-.05.051-.097.107-.14.165-.064.09-.115.17-.21.205-.095.034-.155.034-.15.13.007.094.096.135.146.183.055.05.1.136.075.23.03-.013.085-.03.136-.139.05-.109.404-.774.404-.774h-.261z" fill="#685026"/>
    <path fill-rule="evenodd" clip-rule="evenodd" d="M12.64 7.694s.03-.081 0-.14c-.03-.06-.215-.08-.306-.15-.095-.07-.21-.12-.305-.088.014-.035.07-.11.024-.126-.044-.014-.21.06-.255.095-.044.035-.145.075-.165.1-.02.024-.055.07-.075.05-.02-.014-.03-.05-.065-.03-.034.02-.2.155-.23.234-.031.08-.1.255-.306.455s-.295.33-.235.405c.061.075.09.02.1.085a.545.545 0 0 1-.01.19c-.025.105-.065.204-.01.225.139.044.274-.04.305-.015.06.055-.035.251.109.29.146.04.29-.035.29-.035l.53-.285.509-.269.26-.516-.14-.43-.026-.045z" fill="#D4B968"/>
    <path fill-rule="evenodd" clip-rule="evenodd" d="M12.14 8.927s-.089-.136.02-.255c.11-.12.265-.17.326-.245a.093.093 0 0 0-.045-.03.402.402 0 0 1 .176-.166.168.168 0 0 0-.115-.055c-.099 0-.16.06-.25.06s-.1-.044-.1-.044.15-.014.136-.08c-.014-.071-.04-.071-.04-.071s.289-.12.34-.184c.05-.064.044-.14.054-.17.034 0 .235-.105.316-.06.08.044.024.165.024.165s.245-.184.37-.365c.109.01.16-.074.24-.074.099 0 .254.135.285.424.02.166.05.261.02.554-.014.166-.01.52.04.696.034.14.115.126.115.126a.227.227 0 0 1-.07.109c-.055.05-.061.184-.055.235.008.036.018.073.03.109 0 0-.065.075-.08.125s-.082.085-.13.085c-.049 0-.025-.004-.09 0-.064.004-.084.014-.125 0-.04-.014-.07-.03-.054-.16.014-.13-.5-.43-.5-.43l-.84-.3h.002z" fill="#CCA849"/>
    <path fill-rule="evenodd" clip-rule="evenodd" d="M11.175 10.204s.184.245.94.245c.36 0 .486-.035.56-.055.082-.02.385-.14.69-.5.276-.325.215-.459.215-.459l-.16-.024-.52.07-1.539.656-.186.067z" fill="#585136"/>
    <path fill-rule="evenodd" clip-rule="evenodd" d="M11.74 10.265s-.656.145-.656-.27c0-.404.405-.829.506-.903a1.9 1.9 0 0 1 .356-.16h.605l.115.305-.05.66-.876.368z" fill="#252211"/>
    <path fill-rule="evenodd" clip-rule="evenodd" d="M12.344 9.056s-.125-.115-.41.04c-.286.155-.516.48-.53.775-.015.26.214.455.57.465.265.01.425-.02.506-.04l-.126-.156-.01-1.084z" fill="#C3B378"/>
    <path fill-rule="evenodd" clip-rule="evenodd" d="M12.221 9.12s-.03-.024-.12.025c-.075.04-.184.145-.269.22-.055.045-.089.065-.12.1-.125.149-.23.394-.17.515.061.121.261.261.77.166L12.22 9.12h.001z" fill="#E6D89C"/>
    <path fill-rule="evenodd" clip-rule="evenodd" d="M12.055 9.37s-.081.126-.081.326c0 .205.115.53.54.554.326.02.544-.469.78-.659.18-.146.29-.15.29-.15s-.184-.2-.675-.459c-.486-.26-1.03-.295-1.325.106.14-.01.59-.126.59-.126l.22.07-.339.339z" fill="#252211"/>
    <path fill-rule="evenodd" clip-rule="evenodd" d="M12.69 9.636c-.014-.03-.024-.07.035-.08.058-.01.085-.005.105.04.02.043.04.08.01.099-.03.016-.11 0-.15-.06v.001zm-.095-.285s-.02.014-.01-.014c.004-.034.03-.095.095-.081.065.014.05.085.04.105-.01.02-.065.055-.105.04a.034.034 0 0 1-.025-.035c0-.006.002-.01.005-.015z" fill="#6F674D"/>
    <path fill-rule="evenodd" clip-rule="evenodd" d="M7.12 9.48s.16.12.346.116c.184-.004.42-.194.53-.316.064-.07.12-.145.18-.204.05-.05.085-.075.109-.11.034-.04.07-.114.089-.139-.045.035-.11.095-.176.136-.065.04-.204.115-.26.135-.055.02-.622.32-.622.32l-.196.062z" fill="#AC924C"/>
    <path fill-rule="evenodd" clip-rule="evenodd" d="M7.365 7.985s.089-.06.26-.099c.166-.04.5-.07.5-.07l.275.12.11.414-.2.431-.255.16-.29-.465-.4-.49z" fill="#9F8E57"/>
    <path fill-rule="evenodd" clip-rule="evenodd" d="m7.005 8.355-.096.071s.025-.044.045-.18c.02-.135.125-.465.28-.655.153-.19.149-.18.149-.18a.101.101 0 0 0-.081.02.968.968 0 0 1 .28-.285c.129-.08.18-.105.315-.04.135.066.17.1.269.096.099-.004.184-.11.184-.11s.02.065-.055.215-.37.455-.37.455l-.615.42-.305.174z" fill="#EAC970"/>
    <path fill-rule="evenodd" clip-rule="evenodd" d="M7.46 7.935s.445.061.58-.064c.004.014.02.014.02.024a.035.035 0 0 1-.01.02.327.327 0 0 1 .045-.004.263.263 0 0 0 .054.01c.015 0 .03-.002.045-.004a.076.076 0 0 1-.03.05c.02 0 .04.005.04.02 0 .017.004.066-.02.076a.092.092 0 0 1-.061-.004.25.25 0 0 0 .03.109c.04.075.125.16.24.135 0 0 .06.146-.194.47-.035.044-.071.105-.115.155a.59.59 0 0 0-.04.12s.43-.166.554-.544c.125-.38.15-.755.125-1.105a.568.568 0 0 0-.044-.22c-.061-.126-.23-.105-.3-.035-.099.1-.265.346-.495.516-.235.17-.245.2-.425.275z" fill="#D7BC6B"/>
    <path fill-rule="evenodd" clip-rule="evenodd" d="M6.926 8.481s-.085.051-.13.24c-.044.195.04.431.089.506.049.075.16.28.39.29a.428.428 0 0 0 .166-.035 1.05 1.05 0 0 0 .225-.14c.099-.074.18-.14.17-.145-.025-.01-.611-.496-.611-.496l-.22-.246-.08.027z" fill="#585136"/>
    <path fill-rule="evenodd" clip-rule="evenodd" d="M7.48 9.285s.12-.01.19-.054c.071-.045-.414-.526-.414-.526l.034.52.19.06z" fill="#453A25"/>
    <path fill-rule="evenodd" clip-rule="evenodd" d="M6.964 8.444s-.06.115-.06.146c-.01.099.02.41.044.51.024.105.156.264.326.264.105 0 .25-.064.25-.08 0-.02-.15-.04-.19-.116-.024-.04-.034-.14-.04-.24-.004-.064-.004-.135.02-.16.055-.06.065-.234.065-.234l.194-.361h-.255l-.305.19-.049.081z" fill="#84754B"/>
    <path fill-rule="evenodd" clip-rule="evenodd" d="M6.89 8.555s.2-.264.38-.325.26-.025.26-.025l-.105.27-.15.165.01.085s-.024.225.126.38c.15.156.26.15.326.15.064 0 .25-.054.345-.279.085-.21.156-.48-.014-.75a.611.611 0 0 0-.516-.28c-.056 0-.501.023-.663.61z" fill="#252211"/>
    <path fill-rule="evenodd" clip-rule="evenodd" d="M12.024 9.456c-.074-.035-.003-.245.071-.31a.527.527 0 0 1 .336-.15c.06-.004.12.035.11.075-.015.075-.12.18-.215.255-.132.103-.217.168-.302.13z" fill="#F7F7E7"/>
    <path fill-rule="evenodd" clip-rule="evenodd" d="M7.98 8.31c.054-.004.125.04.139.099.014.065-.034.194-.14.194-.084 0-.129-.105-.129-.135 0-.025.008-.05.02-.071.004-.006.014-.077.11-.087z" fill="#F8F6DE"/>
    <path fill-rule="evenodd" clip-rule="evenodd" d="M7.19 8.355s-.139.065-.204.2a.53.53 0 0 0-.04.32c.01.051.061.176.095.22.035.045.081.076.116.072.034-.004.105-.095.105-.15 0-.054.004-.285.07-.41.06-.126-.141-.251-.141-.251z" fill="#D4C38B"/>
    <path fill-rule="evenodd" clip-rule="evenodd" d="M7.21 8.345c-.023.015-.064.035-.054.061.01.024.095.04.126.1.034.06.034.125.024.155a.246.246 0 0 0 .07-.05c.045-.051.1-.12.146-.12.03 0 .061.014.09.014.044 0 .088-.014.094-.06.01-.061-.084-.116-.14-.106.011-.04.025-.099-.02-.14-.044-.04-.183.031-.214.051-.03.02-.121.096-.121.096z" fill="#E2D59D"/>
    <path fill-rule="evenodd" clip-rule="evenodd" d="m10.425 12.594.3-.088.084.06s.06.13.156.146c-.03.065-.11.12-.105.166a.14.14 0 0 0 .044.08s-.269.446.261.894c-.125.05-.285.12-.37.16.06.014.19.04.245.09.054.048.054.064.105.094.05.03.08.071.07.09-.034-.02-.15-.082-.17-.025-.02.057-.499.035-.499.035l-.809.155s.03-.08-.055-.155c-.099-.09-.22.004-.35-.096-.17-.13-.175-.279-.23-.335.055-.035.166-.085.43-.12-.01-.02-.044-.081-.023-.136.024-.07.125-.115.095-.2.044-.01.064-.01.176-.15.105-.14.17-.17.25-.18.081-.01.13 0 .28-.14.105-.098.07-.183.07-.183s.07-.022.045-.162z" fill="#CBAC5A"/>
    <path fill-rule="evenodd" clip-rule="evenodd" d="M9.54 12.64c.005-.02.021-.03.13-.02.11.01.801-.064.99-.074.19-.015.859-.005 1.185.064.325.069.655.15.815.19.16.045.21.06.204.081-.004.02-.04.04-.06.035-.02-.004-.55-.166-.715-.2-.163-.035-.73-.126-1.04-.12-.289.004-.404-.004-.649.024-.245.03-.65.07-.77.055-.12-.015-.096-.015-.09-.035z" fill="#D6BC6F"/>
    <path fill-rule="evenodd" clip-rule="evenodd" d="M11.169 14.225s.415.224.564.5c.11.204-.064.305-.064.305s.234 0 .204.13c-.014.08-.405.298-.665.414-.265.115-.255.11-.385.13-.125.02-.47-.04-.54.06-.07.1-.04.204-.02.22.02.015.184.035.184.035s-.034.095-.374.105c-.34.01-.425.034-.445.07-.02.035.064.015.22.04s.374.04.374.04-.07.061-.254.11c-.21.055-.54.105-.64.166a.59.59 0 0 0 .16.089 1.01 1.01 0 0 0-.224.08c.03.021.07.045.07.045s-.17.205-.268.255c-.1.05-.67.316-.866.265-.49-.13-.55-.665-.67-.706-.18-.06-.264.06-.424-.024.07-.05.109-.08.184-.115-.081-.04-.5-.306-.5-.306a3.109 3.109 0 0 0-.145-.279c-.081-.14-.2-.326-.29-.49-.194-.36-.204-.525-.38-.73.03-.04.135-.034.135-.034l1.475.486 2.615.075.68-.97.29.034h-.001z" fill="#DFC677"/>
    <path fill-rule="evenodd" clip-rule="evenodd" d="M7.296 15.706a.23.23 0 0 0 .054.045c.051.034.126.075.176.135.02-.03.071-.085.16 0 .09.085.2.025.27.045.07.024.074.034.074.034s.04-.034.13-.07c.054-.021.119-.035.19-.055.064-.014.135-.035.184-.035.044.03.204.2.845-.05.605-.235.745-.261.846-.225.01-.024.02-.07.176-.065 0-.064-.13-.285-.13-.285l-.714-.245h-.39l-1.171.215-.65.37-.05.187z" fill="#C4A859"/>
    <path fill-rule="evenodd" clip-rule="evenodd" d="M6.905 15.296s.015.11.176.225c.16.115.21.183.21.183s.031-.04.055-.08c.025-.045.045-.095.085-.11.081-.034.265.03.306.02.034-.01.024-.08.06-.08.085-.004.14.054.17.054s.105-.004.115-.02c.01-.016.015-.184.13-.265a.346.346 0 0 1 .32-.03c0 .03.004.105.085.11.08.003.089-.011.16.013.07.024.156-.004.194.115.034-.01.115-.02.095-.135.04-.03.075-.05.16-.17.02-.03.055-.064.081-.11.07 0 .156-.013.269.086-.034.024-.055.04-.065.064.03.03.057.062.081.096.03.04.05.089.09.099.084.024.224-.01.38 0 .15.01.274.064.33.099.02-.01.02-.014.07-.004s.089.014.034-.05c.03.013.065.044.095.013.03-.03.055-.074.14-.085.085-.01.115.005.15-.084.044-.11-.11-.11-.11-.11s.071-.064.15-.15c.095-.088.204-.204.23-.345.045-.261-.21-.295-.21-.295l-1.235.38-1.511-.075-1.289.641z" fill="#927D49"/>
    <path fill-rule="evenodd" clip-rule="evenodd" d="M5.795 11.725s-.04.05-.065.17c-.024.12-.014.105-.034.19-.02.085-.27.93-.176 1.216.093.285.255.39.356.62.02.051.04.082.05.126.035.15.005.265.045.415.014.05.05.11.105.17.12.125.316.244.4.33.12.125.29.38.506.404.115.014.28-.034.415-.115.12-.075.194-.18.32-.24.088-.045.184-.061.268-.081.176-.035.336-.04.431-.02.146.03.49.135.68.135a1.85 1.85 0 0 0 .441-.06c.29-.085.64-.231.87-.296.136-.04.245-.05.356-.075.19-.044.35-.105.441-.22-.06-.071-.136-.18-.54-.176-.46.01-.99.265-1.25.305-.261.04-.374.075-.666-.03-.285-.107-.295-.177-.295-.177s-.3-.21-.425-.744c-.125-.535 0-.924.326-1.295.085-.095.064-.18.064-.18s.215-.289.156-.56c-.065-.269-.48-.214-.48-.214l-2.299.402z" fill="#6E6342"/>
    <path fill-rule="evenodd" clip-rule="evenodd" d="M6.14 12.626a.21.21 0 0 0-.024.11c.004.054.02.124.184.284.14.14.11.296.11.296s.07.014.26-.075c.15-.071.2.054.2.054a.422.422 0 0 1 .14-.044.304.304 0 0 0 .126-.04s.176.18.33.265c.139.074.22.125.289.074.064-.044.064-.135.06-.176a.525.525 0 0 0-.06-.105c-.045-.064-.116-.14-.12-.2-.01-.14.105-.305.08-.346-.024-.04-.115-.05-.34.03-.232.078-1.235-.127-1.235-.127z" fill="#39331F"/>
    <path fill-rule="evenodd" clip-rule="evenodd" d="M6.67 13.529s-.115-.11-.074-.64c.049 0 .097.005.145.015 0 0 .063.41-.07.625z" fill="#292311"/>
    <path fill-rule="evenodd" clip-rule="evenodd" d="M5.85 11.321a.318.318 0 0 0 .044-.04c-.04.075-.225.374-.075.846.15.469.526.819.99.835.462.016.706-.21.984-.55.11-.136.235-.306.346-.42.166-.18.295-.231.295-.405 0-.356-.364-.516-.9-.676-.536-.16-1.02-.14-1.27-.03-.245.119-.35.244-.415.44z" fill="#252211"/>
    <path fill-rule="evenodd" clip-rule="evenodd" d="m7.571 13.69.04-.02s.01-.16.075-.156c.064.01.095.095.089.125-.004.03-.02.081-.085.075-.085.002-.12-.024-.12-.024h.001z" fill="#3F3824"/>
    <path fill-rule="evenodd" clip-rule="evenodd" d="M7.39 13.01s.04-.014.09.034c.04 0 .214-.02.269.014.054.035.07.065.07.065s-.204.045-.315 0c-.113-.038-.113-.113-.113-.113z" fill="#2D2815"/>
    <path fill-rule="evenodd" clip-rule="evenodd" d="M8.29 13.04a.5.5 0 0 0-.224-.11c-.02-.003-.024.01-.04.01-.01-.003-.014-.034-.014-.034l-.065.035s-.01.014.024.04c.03.024.08.044.095.085.014.04.014.054.02.06.004.004.075 0 .11-.02.034-.02.099-.053.094-.067z" fill="#82764F"/>
    <path fill-rule="evenodd" clip-rule="evenodd" d="M7.27 13.45s.02-.139.155-.145c.14-.01.166.126.166.126l-.08.08c0-.002-.062-.086-.24-.06h-.002z" fill="#2D2816"/>
    <path fill-rule="evenodd" clip-rule="evenodd" d="M8.15 12.85s-.075.081-.241.105c-.014-.02-.045-.06 0-.125.044-.065.095-.085.145-.065a.118.118 0 0 1 .095.085z" fill="#574F35"/>
    <path fill-rule="evenodd" clip-rule="evenodd" d="M8.455 12.949c.004-.02-.01-.024 0-.034.01-.01.064-.03.075-.02.004.004 0 .02 0 .04s0 .04-.01.054c-.015.02-.055.03-.075.024-.02-.006-.025-.034-.025-.04.01-.004.035-.014.035-.024zm.345-.218c0-.01.034-.03.055-.03.03 0 .03.024.034.03.01.004.01-.005.02.014.01.018.025.05.014.07-.01.02-.05.035-.06.03a.539.539 0 0 1-.063-.114z" fill="#82764F"/>
    <path fill-rule="evenodd" clip-rule="evenodd" d="M8.105 12.995s.045.01.105.06c-.02.015-.05.031-.05.031s-.004-.046-.055-.09z" fill="#6E6342"/>
    <path fill-rule="evenodd" clip-rule="evenodd" d="M8.006 12.55c-.01-.01.03-.034.054-.03.024.004.035.02.06.024.027.005.031-.01.04-.02.01-.01.045-.004.051 0l.01.014a.056.056 0 0 1 .02-.04.063.063 0 0 1 .055-.01c.004.014.025.065.02.075-.003.01-.064.024-.074.014.01.025.054.075.06.085.006.01-.044.034-.064.03a.825.825 0 0 1-.233-.141zm.265-.335a.047.047 0 0 0-.02-.024c-.015-.005-.061 0-.061.024s.04.16.085.23c.05.071.084.13.119.146a.047.047 0 0 0 .06-.02c.005-.01.015-.085.01-.261a2.4 2.4 0 0 0-.02-.356c-.01-.01-.05-.01-.064.01-.014.02-.105.22-.11.25z" fill="#585136"/>
    <path fill-rule="evenodd" clip-rule="evenodd" d="M8.09 13.251s-.07-.044-.139-.014c-.065.03-.06.15-.06.15a.095.095 0 0 0 .088-.01c.045-.03.102-.081.112-.126z" fill="#574F35"/>
    <path fill-rule="evenodd" clip-rule="evenodd" d="M8.224 13.41c-.004-.04-.04-.04-.04-.06a.046.046 0 0 1 .044-.035c.02 0 .04.025.065.04.025.014.061.04.065.071.004.031-.04.115-.089.115-.049 0-.034-.09-.045-.131zm.39-.054s-.08.024-.074 0c.006-.024.024-.03.05-.03a.08.08 0 0 1 .05-.025c.012 0 .023.003.031.01 0 0 .055-.024.07-.01.017.014.005.014.015.03a.142.142 0 0 1 .024.061c0 .016-.06.05-.109.045-.057-.012-.047-.071-.057-.081zm.472-.091s.024.014.004.03a.33.33 0 0 1-.146.045c-.06 0-.115.01-.115-.01s.05-.061.08-.071a.064.064 0 0 1 .051-.024c.025 0 .12-.01.146-.015.024-.004.044.01.03.03-.006.015-.05.015-.05.015zm.14-.625s-.031.065-.065.065c-.035-.004-.035-.014-.035-.024 0-.014.035-.05.03-.061-.01 0-.034 0-.03-.024 0-.02.035-.045.065-.04a.133.133 0 0 1 .08-.03c.035 0 .065.01.065.03 0 .02-.04.064-.054.075-.016.016-.037.026-.057.01zm-.462 1.195s-.04.005-.04.025c0 .01.01.01.024.004a.105.105 0 0 0 .025-.004c.004.004.004.024.034.024a.194.194 0 0 0 .07-.024c.025-.01.045-.02.045-.04-.01-.035-.03-.05-.06-.05a.08.08 0 0 0-.045.01s-.01-.021-.044 0c-.035.02-.03.02-.02.03.017.016.011.026.011.026zm-.228.21c0-.01.05-.03.064-.023.014.004.055.08.055.089 0 .01-.05.034-.071.034-.02 0-.055-.034-.055-.04 0-.004.025-.01.025-.014.006-.01-.018-.034-.018-.045zm-.16-.294c.01-.004.01-.014.024-.025a.035.035 0 0 1 .03-.004.05.05 0 0 1 .035-.024c.024-.004.044 0 .04.01 0 .03.02.05.02.075 0 .024-.014.055-.065.075a.358.358 0 0 1-.13.01c-.01-.004-.02-.045-.01-.065a.168.168 0 0 1 .055-.052z" fill="#82764F"/>
    <path fill-rule="evenodd" clip-rule="evenodd" d="M8.44 13.764s-.035.02-.035.03a.09.09 0 0 0-.004.03c0 .006.045-.004.051-.01.002-.004-.012-.04-.012-.05z" fill="#6E6342"/>
    <path fill-rule="evenodd" clip-rule="evenodd" d="M8.14 13.669c.02.004.054 0 .08.01.02.01.034.03.014.055-.02.024-.04.06-.085.054-.05-.004-.099-.03-.099-.05a.098.098 0 0 1 .024-.071c.02-.016.03-.006.065.002z" fill="#585136"/>
    <path fill-rule="evenodd" clip-rule="evenodd" d="M8.115 13.69s-.065.05-.081.074c-.02.025-.12.15-.15.176a.379.379 0 0 1 .035-.05.207.207 0 0 0-.085.109c-.025.075.135.115.24.146.105.03.146.04.146.04a1.135 1.135 0 0 1-.1-.184c-.04-.095-.06-.105-.034-.15.02-.045.051-.075.051-.11-.012-.031-.022-.051-.022-.051z" fill="#574F35"/>
    <path fill-rule="evenodd" clip-rule="evenodd" d="M5.81 13.849c.014.002.029.002.044 0 .03-.004.346-.12.675-.1.247.015.492.056.73.12.415.11.93.326 1.265.45.089.034.176.095.24.119.255.099.265.099.414.125.176.025.356-.034.544-.075.231-.05.625-.074.971-.125a1.98 1.98 0 0 0 .33-.075s-.275.275-.935.374c-.266.04-.537.044-.805.01-.21-.02-.35-.05-.455-.08-.119-.035-.364-.126-.665-.2-.21-.055-.445-.095-.714-.146-.664-.122-1.384-.261-1.64-.396v-.001z" fill="#252211"/>
    <path fill-rule="evenodd" clip-rule="evenodd" d="M5.065 12.599c-.16.135-.33.265-.496.39l-.5.384c-.17.125-.335.255-.505.38-.17.126-.34.245-.52.36.16-.135.33-.26.5-.384.17-.124.346-.244.51-.37l.499-.384c.172-.125.338-.255.512-.376zm-.884 1.415s.18-.15.404-.36c.28-.26.621-.594.73-.655l-1.134 1.016z" fill="#CFB66C"/>
    <path fill-rule="evenodd" clip-rule="evenodd" d="M4.18 14.015c.09-.09.185-.176.28-.261l.146-.126c.044-.04.095-.085.14-.13.088-.088.175-.183.264-.274.044-.046.09-.09.14-.13a.377.377 0 0 1 .08-.054c.025-.014.051-.04.085-.045-.02.03-.044.045-.064.07-.024.021-.045.046-.065.066-.044.044-.095.085-.14.125-.095.081-.194.16-.289.245-.095.084-.184.176-.279.26-.103.088-.198.173-.297.254zm1.21-.81s-.659.646-.795.75l.795-.75z" fill="#CFB66C"/>
    <path fill-rule="evenodd" clip-rule="evenodd" d="M5.39 13.206c-.059.069-.122.134-.19.194l-.2.19c-.065.065-.125.13-.194.194-.07.061-.135.12-.21.176l.194-.19c.065-.064.135-.119.204-.184l.194-.19a2.94 2.94 0 0 1 .203-.19zm.03.35c-.06.17-.132.335-.214.496-.17.34-.424.764-.536.98l.75-1.476z" fill="#CFB66C"/>
    <path fill-rule="evenodd" clip-rule="evenodd" d="M5.42 13.556c0 .075-.02.14-.044.204a2.005 2.005 0 0 1-.18.374c-.034.059-.075.12-.105.18l-.204.36c-.071.12-.14.24-.215.356.05-.13.12-.25.184-.37.071-.12.136-.24.2-.364.032-.062.06-.125.085-.19.03-.065.061-.126.085-.184.03-.065.055-.126.085-.184.035-.063.063-.124.11-.182z" fill="#CFB66C"/>
    <path fill-rule="evenodd" clip-rule="evenodd" d="M6.14 15.214s-.2.265-.18.6c.055-.175.124-.444.18-.6zm.191.265s-.07.72-.13 1.075c.083-.41.1-.375.13-1.074zm1.325 1.117s-.3.88-.306 1.125c.065-.252.19-.766.306-1.126v.001z" fill="#DEC270"/>
    <path fill-rule="evenodd" clip-rule="evenodd" d="M8.356 15.16s.485.801.85 1.485c-.1-.344-.326-.975-.85-1.485z" fill="#CBAF59"/>
    <path fill-rule="evenodd" clip-rule="evenodd" d="M9.66 16.339c.267.471.507.957.72 1.454-.04-.344-.15-.932-.72-1.454z" fill="#E3C677"/>
    <path fill-rule="evenodd" clip-rule="evenodd" d="M13.495 17.52c.081-.05.24-.326.38-.395.14-.07.245-.085.37-.224.126-.146.16-.235.435-.35.385-.166.12-.38.12-.38a1.24 1.24 0 0 1 .136-.116c.1-.074.214-.165.204-.325-.014-.27-.064-.66-.285-.886.214-.045.625-.075.88-.14.295-.075.43-.18.43-.18s-.169-.289.106-.58.5-.465.666-.791c-.19-.024-.48-.126-1.22.156.04.018.078.04.115.064 0 0-.455.126-.62.265-.29.245-.326.445-.64.595-.313.15-.629.11-.89.23-.26.122-.3.225-.394.27.02.024-.004.064.034.099-.024.034-.166.265-.31.265.015.054.136.095.136.095s-.089.064-.315.08c.115.12.224.251.525.441-.024.051-.125.126-.085.221.045.095.16.225.621.33-.234.01-.51.064-.88.014-.37-.045-.43-.07-.659-.014.024.024.089.024.146.089-.061.004-.441-.045-.57.125-.136.176-.195.465-.185.66-.07.034-.14.095-.105.22.034.125.214.166.33.245.115.085.125.115.235.095.115-.024.285-.14.384-.14.099 0 .17.075.17.075s.269-.13.295-.105c.024.024.004.18.03.204.027.018.33-.162.41-.212z" fill="#ECD592"/>
    <path fill-rule="evenodd" clip-rule="evenodd" d="M19.375 9.425c-1.264-3.265-4.39-3.87-4.39-3.87H6.07l.034 3.326H7.88v7.425H6.07v3.32h8.669c2.09 0 3.764-2.1 3.764-2.1 2.682-3.807.872-8.101.872-8.101zm-4.59 5.864s-.68.98-1.42.98h-1.48l-.034-7.38h1.899s.88.184 1.495 1.926c0 0 .815 2.493-.46 4.474z" fill="#fff" fill-opacity=".8"/>
</svg>
