<svg width="25" height="25" viewBox="0 0 25 25" fill="none" xmlns="http://www.w3.org/2000/svg">
    <circle cx="12.5" cy="12.5" r="12.5" fill="#E0E0E0"/>
    <path fill-rule="evenodd" clip-rule="evenodd" d="M11.761 10.384a.313.313 0 0 1-.186-.057.338.338 0 0 1-.027-.524 6.985 6.985 0 0 0 1.377-1.625c.265-.478.694-.724 1.141-.662a.315.315 0 0 1 .229.12.335.335 0 0 1 .026.382.328.328 0 0 1-.21.153.313.313 0 0 1-.131 0c-.262-.037-.437.222-.5.334a7.533 7.533 0 0 1-1.505 1.792.31.31 0 0 1-.214.087zm-5.4 5.586a.316.316 0 0 1-.182-.06.34.34 0 0 1-.025-.52 9.01 9.01 0 0 1 1.181-.811.311.311 0 0 1 .223.008c.07.03.128.085.163.155a.337.337 0 0 1-.1.417 8.553 8.553 0 0 0-1.055.728.316.316 0 0 1-.205.077" fill="#28646E"/>
    <path fill-rule="evenodd" clip-rule="evenodd" d="M14.416 12.841c.128.122.277.07.412-.064.929-.913 1.912-2.34 2.24-3.082a.291.291 0 0 1 .143-.172.274.274 0 0 1 .22-.012c.178.074.176.387.014.733a11.705 11.705 0 0 1-2.2 3.162.251.251 0 0 0-.08.187.258.258 0 0 0 .08.187c.104.094.273.089.429-.076a13.15 13.15 0 0 0 1.374-1.65.306.306 0 0 1 .13-.133.294.294 0 0 1 .179-.032c.154.031.178.184.131.368-.077.296-.887 1.391-1.209 1.759-.87 1-1.74 1.548-3.416 2.443-.58.31-1.017.614-1.29 1.084-.242.418-.314.555-.338.608a.433.433 0 0 0-.016.315.418.418 0 0 0 .202.238.384.384 0 0 0 .436-.065.406.406 0 0 0 .092-.128v-.022c0-.006-.011 0 .305-.541a2.29 2.29 0 0 1 .987-.896c1.68-.788 2.367-1.41 3.341-2.411.459-.535.869-1.112 1.224-1.724.468-.813.222-1.508-.201-1.626a.057.057 0 0 1-.038-.068v-.015c.247-.395.429-.83.54-1.285.083-.42-.034-.93-.592-1.054a.054.054 0 0 1-.034-.025.058.058 0 0 1-.008-.041c.036-.134.072-.302.094-.412a.96.96 0 0 0-.089-.694.916.916 0 0 0-.531-.436.914.914 0 0 0-.752.162.074.074 0 0 1-.098-.011.585.585 0 0 0-.42-.194c-.35 0-.695.105-.94.66-.187.387-.449.93-1.237 1.83a13.72 13.72 0 0 1-2.386 2.065c-.11.074-.265.056-.248-.095.03-.242.282-1.875.331-2.347.07-.774-.336-1.134-.793-1.196-.376-.052-.94.058-1.256.939-.36.885-.656 1.796-.888 2.726a8.62 8.62 0 0 0-.071 3.365.333.333 0 0 1-.04.224c-.303.468-.576.955-.818 1.46a.43.43 0 0 0-.014.297c.03.098.095.18.182.233.092.05.2.063.3.033.1-.03.185-.1.236-.194l.01-.023c.121-.262.377-.755.467-.968.123-.24.232-.486.327-.739a1.142 1.142 0 0 0 0-.648 6.913 6.913 0 0 1 .066-2.709c.258-1.027.572-2.04.94-3.03.096-.244.231-.32.376-.306.145.014.395.08.322.58-.134.889-.322 2.017-.376 2.398-.03.194-.064.621.269.82.261.155.549.07.864-.149a16.436 16.436 0 0 0 2.717-2.38c.81-.936 1.068-1.495 1.277-2a.366.366 0 0 1 .178-.177.352.352 0 0 1 .247-.017c.087.025.188.145.119.399-.188.617-.922 2.028-2.347 3.351a.286.286 0 0 0-.118.197.297.297 0 0 0 .062.223.265.265 0 0 0 .196.09.259.259 0 0 0 .197-.09 9.707 9.707 0 0 0 2.327-3.204c.11-.24.203-.487.28-.74a.328.328 0 0 1 .12-.194.311.311 0 0 1 .215-.065c.156.033.26.194.21.47-.08.346-.197.682-.349 1-.41.899-1.279 2.1-2.215 3.132a.271.271 0 0 0-.083.198.28.28 0 0 0 .083.198v.006zm-5.793-4.47c.049-.044.03-.102.017-.147a16.433 16.433 0 0 0-.564-1.366.146.146 0 0 0-.077-.082.137.137 0 0 0-.111 0 1.507 1.507 0 0 0-.376.283 1.49 1.49 0 0 0-.322.355.144.144 0 0 0 .055.193c.17.132 1.032.656 1.24.755.044.02.097.048.146 0l-.008.01zm-1.88.32c-.107 0-.152.046-.166.121-.012.163 0 .326.036.484.019.161.061.319.126.467a.142.142 0 0 0 .083.068c.035.01.073.007.105-.01.188-.082 1.08-.567 1.271-.699.04-.027.088-.06.077-.128l-1.532-.303zm8.987 8.078c-.065 0-.084.064-.101.108a16.725 16.725 0 0 0-.357 1.438.147.147 0 0 0 .05.157c.015.012.033.02.051.025.156.03.315.036.472.015a1.51 1.51 0 0 0 .464-.079.14.14 0 0 0 .078-.08.149.149 0 0 0-.002-.113 16.826 16.826 0 0 0-.54-1.376c-.023-.043-.049-.097-.115-.093v-.002zm.564-.462c-.032.06 0 .106.036.143.145.193.846.923 1.008 1.062a.14.14 0 0 0 .102.046.138.138 0 0 0 .103-.046c.105-.12.192-.258.256-.406.079-.14.135-.294.167-.453 0-.077-.019-.14-.122-.168a14.339 14.339 0 0 0-1.424-.238c-.047 0-.105 0-.135.05l.01.01zm-3.437 5.543c0 .073-.02.145-.06.206a.361.361 0 0 1-.16.137.35.35 0 0 1-.393-.08.373.373 0 0 1-.077-.403.367.367 0 0 1 .133-.166.353.353 0 0 1 .53.166.378.378 0 0 1 .027.14zm0-18.703a.378.378 0 0 1-.06.205.36.36 0 0 1-.162.137.35.35 0 0 1-.391-.081.373.373 0 0 1-.077-.404.368.368 0 0 1 .133-.165.352.352 0 0 1 .453.047.368.368 0 0 1 .104.26zm2.34 18.29a.378.378 0 0 1-.13.385.351.351 0 0 1-.537-.13.376.376 0 0 1 .052-.404.355.355 0 0 1 .316-.122.35.35 0 0 1 .237.141c.029.039.05.082.061.13zM10.495 3.368a.38.38 0 0 1-.127.39.355.355 0 0 1-.265.073.352.352 0 0 1-.238-.14.373.373 0 0 1-.027-.41.36.36 0 0 1 .217-.172.35.35 0 0 1 .272.036.368.368 0 0 1 .168.223zm6.859 17.044a.374.374 0 0 1-.127.508.351.351 0 0 1-.492-.14.377.377 0 0 1 .134-.496.348.348 0 0 1 .268-.038c.09.024.168.083.217.166zM8.265 4.215a.375.375 0 0 1-.124.504.349.349 0 0 1-.271.04.359.359 0 0 1-.219-.169.377.377 0 0 1-.031-.276.366.366 0 0 1 .165-.22.348.348 0 0 1 .268-.037c.09.024.168.083.217.166l-.004-.008zm10.91 14.644a.374.374 0 0 1 0 .52.352.352 0 0 1-.506 0 .373.373 0 0 1 0-.52.353.353 0 0 1 .506 0zM6.327 5.626a.374.374 0 0 1 0 .52.353.353 0 0 1-.505 0 .374.374 0 0 1 0-.52.353.353 0 0 1 .505 0zm14.22 11.222a.366.366 0 0 1 .17.222.377.377 0 0 1-.032.28.36.36 0 0 1-.215.174.349.349 0 0 1-.272-.033.378.378 0 0 1-.132-.503.36.36 0 0 1 .217-.172.349.349 0 0 1 .272.036l-.008-.004zM4.804 7.504a.36.36 0 0 1 .172.224.378.378 0 0 1-.128.391.353.353 0 0 1-.401.022.377.377 0 0 1-.124-.498.359.359 0 0 1 .213-.17.348.348 0 0 1 .268.031zm16.565 7.06a.359.359 0 0 1 .22.167.377.377 0 0 1-.122.505.35.35 0 0 1-.27.041h-.012a.354.354 0 0 1-.216-.172.375.375 0 0 1 .133-.502.35.35 0 0 1 .271-.036l-.004-.004zM3.82 9.73c.092.025.17.088.218.173a.38.38 0 0 1 .035.28.369.369 0 0 1-.168.225.35.35 0 0 1-.273.036.362.362 0 0 1-.202-.177.38.38 0 0 1 .129-.489.35.35 0 0 1 .261-.046V9.73zm17.768 2.395c.071 0 .14.022.199.062a.378.378 0 0 1 .054.566.354.354 0 0 1-.39.08.36.36 0 0 1-.16-.136.375.375 0 0 1 .16-.544.35.35 0 0 1 .137-.028zm-18.174 0a.35.35 0 0 1 .253.108.37.37 0 0 1 .104.26.377.377 0 0 1-.104.26.358.358 0 0 1-.253.107.352.352 0 0 1-.253-.107.373.373 0 0 1 0-.52.352.352 0 0 1 .253-.108zm17.772-2.409a.349.349 0 0 1 .26.045.367.367 0 0 1 .16.218.378.378 0 0 1-.03.27.36.36 0 0 1-.202.175h-.01a.35.35 0 0 1-.272-.035.368.368 0 0 1-.167-.224.379.379 0 0 1 .034-.28.36.36 0 0 1 .218-.173l.009.004zM3.62 14.55a.345.345 0 0 1 .281.024.36.36 0 0 1 .176.228.377.377 0 0 1-.137.396.354.354 0 0 1-.132.06.35.35 0 0 1-.272-.036A.367.367 0 0 1 3.37 15a.378.378 0 0 1 .034-.279.36.36 0 0 1 .217-.172v.002zm16.56-7.061a.351.351 0 0 1 .495.13.375.375 0 0 1-.137.507.348.348 0 0 1-.268.032.359.359 0 0 1-.214-.17.377.377 0 0 1 .125-.499zM4.45 16.854a.349.349 0 0 1 .4.024.378.378 0 0 1 .018.57.353.353 0 0 1-.397.05.362.362 0 0 1-.15-.148.38.38 0 0 1-.034-.277.369.369 0 0 1 .164-.223v.004zM18.674 5.628a.354.354 0 0 1 .39-.08.36.36 0 0 1 .16.136.375.375 0 0 1-.16.543.348.348 0 0 1-.39-.079.375.375 0 0 1 0-.52zM5.822 18.85a.354.354 0 0 1 .389-.08.359.359 0 0 1 .16.136.375.375 0 0 1-.16.544.348.348 0 0 1-.39-.08.366.366 0 0 1-.105-.26.375.375 0 0 1 .106-.26zM16.727 4.215a.361.361 0 0 1 .151-.146.349.349 0 0 1 .393.054.37.37 0 0 1 .104.394.368.368 0 0 1-.12.173.351.351 0 0 1-.563-.196.379.379 0 0 1 .035-.279zm-9.08 16.198a.365.365 0 0 1 .215-.186.35.35 0 0 1 .387.128.372.372 0 0 1 .02.418.358.358 0 0 1-.216.165.348.348 0 0 1-.268-.037.366.366 0 0 1-.165-.22.377.377 0 0 1 .031-.276l-.004.008zm6.86-17.044a.372.372 0 0 1 .16-.228.351.351 0 0 1 .492.12.372.372 0 0 1 .043.279v.021a.367.367 0 0 1-.168.223.349.349 0 0 1-.271.035.36.36 0 0 1-.216-.172.377.377 0 0 1-.035-.28l-.006.002zM9.81 21.434a.373.373 0 0 1 .164-.226.35.35 0 0 1 .49.127.375.375 0 0 1 .04.28.367.367 0 0 1-.167.222.348.348 0 0 1-.272.035.359.359 0 0 1-.216-.172.377.377 0 0 1-.035-.28" fill="#28646E"/>
</svg>
