<svg width="45" height="45" viewBox="0 0 45 45" fill="none" xmlns="http://www.w3.org/2000/svg">
    <path d="M22.5 45C34.926 45 45 34.926 45 22.5S34.926 0 22.5 0 0 10.074 0 22.5 10.074 45 22.5 45z" fill="#F0BE55"/>
    <path d="m18.367 25.42-1.955-.537.34 2.562c.48 3.623 2.529 6.588 5.29 7.656l.334.129c.965.364 2.506.77 2.506.77l-.164-1.718c-.419-4.375-2.968-7.931-6.35-8.861zM34.464 26.377l-.128-2.024-2.312 1.155c-3.27 1.634-5.406 4.537-5.517 7.495l-.013.357c-.03 1.032.087 2.621.087 2.621l1.572-.715c4-1.82 6.533-5.388 6.31-8.89zM32.874 18.134l-.109-1.722-1.966.983c-2.781 1.39-4.599 3.859-4.693 6.375l-.011.304c-.025.878.074 2.23.074 2.23l1.337-.609c3.402-1.548 5.557-4.583 5.368-7.561zM23.027 26.174l1.642.53-.194-2.19c-.274-3.097-1.905-5.693-4.212-6.703l-.278-.122c-.808-.345-2.102-.748-2.102-.748l.076 1.467c.194 3.733 2.228 6.85 5.068 7.766zM22.782 16.68l1.25.904.44-1.915c.623-2.708-.047-5.365-1.729-6.86l-.203-.18c-.59-.517-1.58-1.217-1.58-1.217l-.34 1.268c-.867 3.226.001 6.438 2.162 8zM25.87 16.492l.297 1.513 1.628-1.1c2.302-1.556 3.625-3.956 3.415-6.197l-.026-.27c-.08-.781-.326-1.967-.326-1.967l-1.113.695c-2.834 1.768-4.39 4.709-3.875 7.326z" fill="#000"/>
    <mask id="a" style="mask-type:alpha" maskUnits="userSpaceOnUse" x="0" y="0" width="45" height="45">
        <path d="M22.5 45C34.926 45 45 34.926 45 22.5S34.926 0 22.5 0 0 10.074 0 22.5 10.074 45 22.5 45z" fill="#F0BE55"/>
    </mask>
    <g mask="url(#a)">
        <path d="m17.146 34.497-2.323-.614.404 2.927c.57 4.142 3.003 7.53 6.282 8.75l.397.148c1.146.416 2.976.88 2.976.88l-.195-1.963c-.498-5-3.524-9.065-7.541-10.128zM36.096 34.696l-.029-2.402-2.713 1.171c-3.838 1.656-6.454 4.907-6.753 8.392l-.036.422c-.095 1.216-.053 3.103-.053 3.103l1.84-.713c4.685-1.815 7.793-5.818 7.744-9.973zM25.469 8.64l.75 1.348 1.208-1.55c1.71-2.19 2.225-4.882 1.333-6.948l-.108-.25c-.317-.717-.918-1.77-.918-1.77L26.89.477C24.741 3.034 24.17 6.31 25.47 8.64z" fill="#000"/>
        <path d="M20.912 4.765v3.97M30.706 5.823v3.97M32.559 13.765v3.97M18.265 13.765v3.97M16.85 22.235v3.97M34.147 21.706v3.97M35.82 30.177v3.97M15.3 31.235v3.97" stroke="#000" stroke-width=".5"/>
    </g>
</svg>
