<svg width="25" height="25" viewBox="0 0 25 25" fill="none" xmlns="http://www.w3.org/2000/svg">
    <path d="M12.5 25C19.404 25 25 19.404 25 12.5S19.404 0 12.5 0 0 5.596 0 12.5 5.596 25 12.5 25z" fill="#F0BE55"/>
    <path d="m10.204 14.122-1.086-.299.188 1.423c.267 2.013 1.406 3.66 2.94 4.254l.185.072c.536.202 1.393.428 1.393.428l-.092-.955c-.233-2.43-1.649-4.406-3.528-4.923zM19.146 14.654l-.07-1.125-1.285.642c-1.816.908-3.004 2.52-3.065 4.164l-.007.199c-.017.573.048 1.456.048 1.456l.873-.398c2.223-1.01 3.63-2.993 3.506-4.938zM18.264 10.075l-.061-.957-1.093.546c-1.545.772-2.554 2.144-2.606 3.542l-.007.169c-.014.487.042 1.238.042 1.238l.742-.338c1.89-.86 3.087-2.546 2.982-4.2zM12.793 14.541l.912.294-.108-1.216c-.152-1.72-1.058-3.163-2.34-3.724l-.154-.067c-.449-.192-1.168-.416-1.168-.416l.042.815c.108 2.074 1.238 3.806 2.816 4.314zM12.657 9.267l.694.502.244-1.063c.346-1.505-.026-2.981-.96-3.812l-.113-.1a13.794 13.794 0 0 0-.878-.676l-.189.704c-.481 1.793.001 3.577 1.202 4.445zM14.372 9.162l.166.84.904-.61c1.279-.865 2.014-2.198 1.897-3.443l-.014-.15c-.045-.434-.181-1.093-.181-1.093l-.619.386c-1.575.983-2.439 2.616-2.153 4.07z" fill="#000"/>
    <mask id="a" style="mask-type:alpha" maskUnits="userSpaceOnUse" x="0" y="0" width="25" height="25">
        <path d="M12.5 25C19.404 25 25 19.404 25 12.5S19.404 0 12.5 0 0 5.596 0 12.5 5.596 25 12.5 25z" fill="#F0BE55"/>
    </mask>
    <g mask="url(#a)">
        <path d="m9.526 19.165-1.29-.342.223 1.627c.317 2.3 1.67 4.183 3.49 4.86l.22.083c.638.23 1.655.49 1.655.49l-.109-1.092c-.276-2.778-1.958-5.036-4.19-5.626zM20.053 19.276l-.016-1.335-1.507.651c-2.132.92-3.585 2.726-3.752 4.663l-.02.233c-.052.676-.03 1.725-.03 1.725l1.023-.396c2.603-1.009 4.33-3.233 4.302-5.541zM14.15 4.8l.416.749.671-.86c.95-1.218 1.237-2.713.74-3.861l-.06-.139c-.175-.398-.51-.983-.51-.983l-.468.558c-1.194 1.422-1.51 3.242-.79 4.537z" fill="#000"/>
        <path d="M11.618 2.647v2.206M17.059 3.235v2.206M18.088 7.647v2.206M10.147 7.647v2.206M9.361 12.352v2.206M18.97 12.059v2.206M19.9 16.765v2.206M8.5 17.352v2.206" stroke="#000" stroke-width=".5"/>
    </g>
</svg>
