<svg width="25" height="25" viewBox="0 0 25 25" fill="none" xmlns="http://www.w3.org/2000/svg">
<circle cx="12.5" cy="12.5" r="12.5" fill="#F8F8F8"/>
<path fill-rule="evenodd" clip-rule="evenodd" d="M12.1972 9.07285C12.1973 9.07276 12.1973 9.07265 12.1974 9.07256C12.733 9.34744 13.3191 9.44163 13.8799 9.44C14.2058 9.73939 14.4769 10.091 14.7316 10.4521C14.8373 10.603 14.9325 10.7608 15.0168 10.9245C15.2116 11.2997 15.3548 11.6967 15.4998 12.0984C15.5423 12.2162 15.585 12.3344 15.6291 12.4526C15.6429 12.5032 15.6574 12.5538 15.6725 12.6044L15.6732 12.6042C15.8971 13.3723 16.224 14.1928 16.6621 14.8703L16.6617 14.8704C16.8065 15.093 16.9688 15.3037 17.1471 15.5006C17.1821 15.5386 17.218 15.5761 17.2539 15.6138L17.2539 15.6138L17.2539 15.6138L17.254 15.6138C17.4217 15.7897 17.5907 15.9667 17.6865 16.1883C17.8057 16.4643 17.7966 16.7819 17.7249 17.074C17.3864 18.451 16.0607 18.8129 14.7936 18.8462L14.7942 18.8447C14.3192 18.8541 13.8474 18.8187 13.429 18.7758C13.429 18.7758 11.4114 18.5669 9.70113 17.3163L9.64593 17.2752C9.64593 17.2752 9.64593 17.2752 9.64595 17.2752C9.44632 17.1264 9.25587 16.9657 9.07565 16.7938C8.59629 16.3362 8.16976 15.8171 7.8436 15.2473C7.84578 15.2451 7.84795 15.2429 7.85013 15.2407C7.81153 15.1712 7.77451 15.101 7.7391 15.0301C7.42356 14.3984 7.23126 13.7108 7.22255 12.9799C7.2077 11.7535 7.62716 10.4975 8.42447 9.58694C8.42417 9.58618 8.42389 9.58543 8.42361 9.58468C8.85531 9.11169 9.39489 8.74011 10.0336 8.52857C10.4341 8.39473 10.8545 8.33047 11.2766 8.33857C11.5335 8.64027 11.8461 8.88957 12.1972 9.07285ZM11.2144 17.0972C11.503 16.9918 11.7765 16.8501 12.0315 16.6754C11.7749 16.8489 11.501 16.9907 11.2144 17.0972Z" fill="url(#paint0_linear_223:488)"/>
<path fill-rule="evenodd" clip-rule="evenodd" d="M16.3851 8.07414C16.3853 8.07414 16.3855 8.07414 16.3857 8.07412L16.4031 8.0629C14.1536 4.22464 11.2122 7.24653 11.2122 7.24653L11.2164 7.25393C11.2162 7.25398 11.216 7.25402 11.2158 7.25406C12.9073 10.2203 16.1219 8.2433 16.3851 8.07414Z" fill="url(#paint1_linear_223:488)"/>
<path d="M13.5966 14.6851C12.9767 16.1673 11.7866 17.1487 10.3447 17.2974C10.3137 17.3015 9.91901 17.3326 9.70117 17.3165C11.4114 18.5672 13.4291 18.7761 13.4291 18.7761C13.8611 18.8204 14.35 18.8567 14.8408 18.8439C15.0136 18.3926 15.1108 17.8759 15.0829 17.2897C15.0182 15.9281 15.8074 15.2291 16.6621 14.8705C16.2241 14.1931 15.8972 13.3726 15.6733 12.6045C15.0059 12.7821 14.1583 13.3406 13.5966 14.6851Z" fill="url(#paint2_linear_223:488)"/>
<path d="M15.056 17.2799C15.084 17.8661 14.9665 18.395 14.7937 18.8463C16.0607 18.813 17.3865 18.4511 17.7249 17.0741C17.7967 16.7819 17.8058 16.4644 17.6866 16.1883C17.5703 15.9194 17.3461 15.7159 17.1471 15.5007C16.961 15.295 16.7922 15.0743 16.6425 14.8408C15.7886 15.1995 14.9912 15.9185 15.056 17.2799Z" fill="url(#paint3_linear_223:488)"/>
<path d="M15.6292 12.4523C15.4345 11.9312 15.2688 11.4095 15.0168 10.9242C14.9326 10.7605 14.8373 10.6027 14.7317 10.4518C14.477 10.0907 14.2059 9.73909 13.88 9.43971C13.3191 9.44133 12.7331 9.34714 12.1975 9.07227C11.655 9.84198 11.0342 11.1477 11.6024 12.6382C12.4414 14.8392 10.7387 16.3435 9.646 17.2749L9.70119 17.316C9.90607 17.3319 10.112 17.329 10.3163 17.3071C11.7581 17.1583 13.0172 16.1533 13.637 14.6712C14.1989 13.3267 15.0163 12.8159 15.6828 12.6382C15.664 12.5762 15.6461 12.5142 15.6292 12.4523Z" fill="url(#paint4_linear_223:488)"/>
<path d="M8.48309 9.52148C7.64775 10.4368 7.20735 11.7239 7.22255 12.9801C7.23126 13.7109 7.42356 14.3986 7.7391 15.0303C7.78644 15.125 7.83662 15.2185 7.88964 15.3108C9.64579 13.5475 9.01131 10.9202 8.48309 9.52148Z" fill="url(#paint5_linear_223:488)"/>
<path d="M11.632 12.6385C11.0638 11.1474 11.6707 9.85025 12.2125 9.08068C11.8552 8.8967 11.5373 8.6446 11.2768 8.33857C10.8546 8.33047 10.4342 8.39473 10.0338 8.52857C9.39504 8.74011 8.85546 9.11169 8.42377 9.58468C8.94032 10.9527 9.56108 13.5227 7.84375 15.2473C8.16992 15.8171 8.59644 16.3362 9.07581 16.7938C9.26488 16.9741 9.46522 17.1422 9.6756 17.2971C10.7683 16.3661 12.4711 14.8395 11.632 12.6385Z" fill="url(#paint6_linear_223:488)"/>
<path d="M13.7507 7.49099C14.9398 7.96029 15.7726 8.0874 16.3764 8.06924L16.3938 8.05802C14.1443 4.21976 11.2029 7.24165 11.2029 7.24165L11.2072 7.24918C11.8416 7.13669 12.7638 7.1017 13.7507 7.49099Z" fill="url(#paint7_linear_223:488)"/>
<path d="M13.7654 7.46452C12.7791 7.07582 11.8516 7.09058 11.2065 7.24928C12.898 10.2157 16.1128 8.23837 16.3758 8.06934C15.7716 8.0875 14.9545 7.93382 13.7654 7.46452Z" fill="url(#paint8_linear_223:488)"/>
<defs>
<linearGradient id="paint0_linear_223:488" x1="5.90637" y1="10.1389" x2="19.6634" y2="18.3806" gradientUnits="userSpaceOnUse">
<stop stop-color="#E54033"/>
<stop offset="0.489583" stop-color="#FECA1A"/>
<stop offset="1" stop-color="#AFD803"/>
</linearGradient>
<linearGradient id="paint1_linear_223:488" x1="3898.08" y1="466.021" x2="3036.74" y2="-419.761" gradientUnits="userSpaceOnUse">
<stop offset="0.15" stop-color="#6CBF00"/>
<stop offset="1" stop-color="#AFD803"/>
</linearGradient>
<linearGradient id="paint2_linear_223:488" x1="8.28153" y1="17.4205" x2="16.9009" y2="15.3252" gradientUnits="userSpaceOnUse">
<stop offset="0.21" stop-color="#E54033"/>
<stop offset="0.84" stop-color="#FECA1A"/>
</linearGradient>
<linearGradient id="paint3_linear_223:488" x1="15.0722" y1="16.8388" x2="17.7317" y2="16.8587" gradientUnits="userSpaceOnUse">
<stop stop-color="#FECA1A"/>
<stop offset="0.4" stop-color="#FECA1A"/>
<stop offset="1" stop-color="#AFD803"/>
</linearGradient>
<linearGradient id="paint4_linear_223:488" x1="9.05225" y1="17.4736" x2="14.5067" y2="10.0912" gradientUnits="userSpaceOnUse">
<stop offset="0.16" stop-color="#E54033"/>
<stop offset="0.84" stop-color="#FECA1A"/>
</linearGradient>
<linearGradient id="paint5_linear_223:488" x1="8.25817" y1="10.1374" x2="8.01659" y2="14.9066" gradientUnits="userSpaceOnUse">
<stop stop-color="#FECA1A"/>
<stop offset="0.76" stop-color="#E54033"/>
</linearGradient>
<linearGradient id="paint6_linear_223:488" x1="10.9257" y1="8.89881" x2="9.46872" y2="14.4297" gradientUnits="userSpaceOnUse">
<stop offset="0.16" stop-color="#FECA1A"/>
<stop offset="1" stop-color="#E54033"/>
</linearGradient>
<linearGradient id="paint7_linear_223:488" x1="11.4896" y1="6.25079" x2="16.8818" y2="8.23781" gradientUnits="userSpaceOnUse">
<stop offset="0.15" stop-color="#6CBF00"/>
<stop offset="1" stop-color="#AFD803"/>
</linearGradient>
<linearGradient id="paint8_linear_223:488" x1="3898.07" y1="466.016" x2="3036.73" y2="-419.766" gradientUnits="userSpaceOnUse">
<stop offset="0.15" stop-color="#6CBF00"/>
<stop offset="1" stop-color="#AFD803"/>
</linearGradient>
</defs>
</svg>
