<svg width="45" height="45" viewBox="0 0 45 45" fill="none" xmlns="http://www.w3.org/2000/svg">
<circle cx="22.5" cy="22.5" r="22.5" fill="#F8F8F8"/>
<path fill-rule="evenodd" clip-rule="evenodd" d="M21.9551 16.3307C21.9552 16.3306 21.9553 16.3304 21.9555 16.3302C22.9195 16.825 23.9744 16.9945 24.9839 16.9916C25.5705 17.5305 26.0585 18.1635 26.5171 18.8134C26.7072 19.0849 26.8787 19.369 27.0303 19.6638C27.3809 20.3391 27.6388 21.0537 27.8997 21.7767C27.9763 21.9888 28.0531 22.2016 28.1325 22.4143C28.1574 22.5053 28.1834 22.5964 28.2105 22.6875L28.2119 22.6872C28.6149 24.0697 29.2034 25.5466 29.9918 26.7661L29.9911 26.7664C30.2519 27.167 30.544 27.5463 30.8648 27.9007C30.9279 27.969 30.9925 28.0367 31.0571 28.1044L31.0571 28.1044L31.0572 28.1044L31.0572 28.1045C31.3592 28.421 31.6634 28.7397 31.8358 29.1385C32.0504 29.6354 32.034 30.2069 31.9048 30.7328C31.2957 33.2115 28.9093 33.8628 26.6286 33.9228L26.6297 33.92C25.7746 33.937 24.9254 33.8733 24.1724 33.7961C24.1724 33.7961 20.5406 33.4201 17.4621 31.1689L17.3628 31.095C17.3628 31.095 17.3628 31.095 17.3628 31.095C17.0035 30.8271 16.6607 30.5378 16.3363 30.2285C15.4734 29.4047 14.7057 28.4704 14.1186 27.4447C14.1225 27.4408 14.1264 27.4368 14.1303 27.4329C14.0608 27.3078 13.9942 27.1815 13.9305 27.0538C13.3625 25.9168 13.0164 24.6791 13.0007 23.3634C12.974 21.1559 13.729 18.8951 15.1641 17.2561C15.1636 17.2547 15.1631 17.2534 15.1626 17.252C15.9396 16.4006 16.9109 15.7318 18.0607 15.351C18.7815 15.1101 19.5382 14.9945 20.298 15.009C20.7604 15.5521 21.323 16.0008 21.9551 16.3307ZM20.186 30.7745C20.7056 30.5848 21.1978 30.3297 21.6568 30.0153C21.1949 30.3276 20.702 30.5829 20.186 30.7745Z" fill="url(#paint0_linear_219:56)"/>
<path fill-rule="evenodd" clip-rule="evenodd" d="M29.4931 14.5331C29.4935 14.5331 29.4939 14.5331 29.4942 14.533L29.5256 14.5128C25.4764 7.60397 20.1819 13.0434 20.1819 13.0434L20.1895 13.0567C20.1891 13.0568 20.1888 13.0568 20.1885 13.0569C23.2331 18.3962 29.0193 14.8376 29.4931 14.5331Z" fill="url(#paint1_linear_219:56)"/>
<path d="M24.4739 26.4326C23.3582 29.1005 21.2159 30.8671 18.6204 31.1347C18.5646 31.1421 17.8543 31.1982 17.4622 31.1692C20.5406 33.4204 24.1724 33.7964 24.1724 33.7964C24.95 33.8761 25.8301 33.9415 26.7134 33.9184C27.0245 33.1061 27.1996 32.176 27.1493 31.1208C27.0327 28.67 28.4535 27.4118 29.9919 26.7664C29.2034 25.547 28.615 24.0701 28.212 22.6875C27.0107 23.0072 25.485 24.0124 24.4739 26.4326Z" fill="url(#paint2_linear_219:56)"/>
<path d="M27.1007 31.1032C27.1512 32.1584 26.9397 33.1105 26.6287 33.9228C28.9093 33.8628 31.2957 33.2115 31.9049 30.7328C32.034 30.2069 32.0505 29.6353 31.8358 29.1384C31.6265 28.6543 31.2229 28.2881 30.8648 27.9007C30.5298 27.5305 30.226 27.1332 29.9565 26.7129C28.4195 27.3586 26.9841 28.6527 27.1007 31.1032Z" fill="url(#paint3_linear_219:56)"/>
<path d="M28.1325 22.4141C27.7821 21.4761 27.4838 20.537 27.0303 19.6636C26.8787 19.3689 26.7072 19.0848 26.5171 18.8133C26.0585 18.1633 25.5705 17.5304 24.984 16.9915C23.9745 16.9944 22.9195 16.8249 21.9555 16.3301C20.9789 17.7156 19.8616 20.0659 20.8843 22.7487C22.3946 26.7106 19.3297 29.4184 17.3628 31.0948L17.4621 31.1687C17.8309 31.1975 18.2016 31.1922 18.5694 31.1528C21.1646 30.8849 23.4309 29.0759 24.5467 26.4082C25.558 23.988 27.0293 23.0686 28.229 22.7487C28.1951 22.6371 28.163 22.5255 28.1325 22.4141Z" fill="url(#paint4_linear_219:56)"/>
<path d="M15.2697 17.1377C13.766 18.7852 12.9733 21.1021 13.0007 23.3631C13.0164 24.6787 13.3625 25.9165 13.9305 27.0535C14.0157 27.2241 14.106 27.3924 14.2015 27.5584C17.3625 24.3846 16.2205 19.6554 15.2697 17.1377Z" fill="url(#paint5_linear_219:56)"/>
<path d="M20.9375 22.7488C19.9148 20.065 21.0071 17.7301 21.9824 16.3448C21.3392 16.0137 20.7671 15.5599 20.2981 15.009C19.5383 14.9945 18.7815 15.1101 18.0607 15.351C16.911 15.7318 15.9397 16.4006 15.1627 17.252C16.0925 19.7145 17.2098 24.3405 14.1187 27.4447C14.7058 28.4704 15.4735 29.4047 16.3364 30.2285C16.6767 30.553 17.0373 30.8555 17.416 31.1343C19.3829 29.4587 22.4478 26.7108 20.9375 22.7488Z" fill="url(#paint6_linear_219:56)"/>
<path d="M24.7513 13.4834C26.8917 14.3281 28.3908 14.5569 29.4776 14.5242L29.509 14.504C25.4598 7.59518 20.1653 13.0346 20.1653 13.0346L20.173 13.0481C21.315 12.8457 22.9749 12.7827 24.7513 13.4834Z" fill="url(#paint7_linear_219:56)"/>
<path d="M24.7778 13.4354C23.0025 12.7357 21.3331 12.7623 20.1719 13.0479C23.2166 18.3874 29.0031 14.8283 29.4765 14.524C28.3889 14.5567 26.9182 14.2801 24.7778 13.4354Z" fill="url(#paint8_linear_219:56)"/>
<defs>
<linearGradient id="paint0_linear_219:56" x1="10.6316" y1="18.2496" x2="35.3942" y2="33.0847" gradientUnits="userSpaceOnUse">
<stop stop-color="#E54033"/>
<stop offset="0.489583" stop-color="#FECA1A"/>
<stop offset="1" stop-color="#AFD803"/>
</linearGradient>
<linearGradient id="paint1_linear_219:56" x1="7016.55" y1="838.837" x2="5466.14" y2="-755.571" gradientUnits="userSpaceOnUse">
<stop offset="0.15" stop-color="#6CBF00"/>
<stop offset="1" stop-color="#AFD803"/>
</linearGradient>
<linearGradient id="paint2_linear_219:56" x1="14.9068" y1="31.3563" x2="30.4216" y2="27.5848" gradientUnits="userSpaceOnUse">
<stop offset="0.21" stop-color="#E54033"/>
<stop offset="0.84" stop-color="#FECA1A"/>
</linearGradient>
<linearGradient id="paint3_linear_219:56" x1="27.13" y1="30.3092" x2="31.9171" y2="30.3451" gradientUnits="userSpaceOnUse">
<stop stop-color="#FECA1A"/>
<stop offset="0.4" stop-color="#FECA1A"/>
<stop offset="1" stop-color="#AFD803"/>
</linearGradient>
<linearGradient id="paint4_linear_219:56" x1="16.2941" y1="31.4525" x2="26.112" y2="18.1641" gradientUnits="userSpaceOnUse">
<stop offset="0.16" stop-color="#E54033"/>
<stop offset="0.84" stop-color="#FECA1A"/>
</linearGradient>
<linearGradient id="paint5_linear_219:56" x1="14.8648" y1="18.2463" x2="14.43" y2="26.8308" gradientUnits="userSpaceOnUse">
<stop stop-color="#FECA1A"/>
<stop offset="0.76" stop-color="#E54033"/>
</linearGradient>
<linearGradient id="paint6_linear_219:56" x1="19.6661" y1="16.0175" x2="17.0436" y2="25.9731" gradientUnits="userSpaceOnUse">
<stop offset="0.16" stop-color="#FECA1A"/>
<stop offset="1" stop-color="#E54033"/>
</linearGradient>
<linearGradient id="paint7_linear_219:56" x1="20.6815" y1="11.251" x2="30.3873" y2="14.8277" gradientUnits="userSpaceOnUse">
<stop offset="0.15" stop-color="#6CBF00"/>
<stop offset="1" stop-color="#AFD803"/>
</linearGradient>
<linearGradient id="paint8_linear_219:56" x1="7016.53" y1="838.828" x2="5466.11" y2="-755.58" gradientUnits="userSpaceOnUse">
<stop offset="0.15" stop-color="#6CBF00"/>
<stop offset="1" stop-color="#AFD803"/>
</linearGradient>
</defs>
</svg>
