<svg width="25" height="25" viewBox="0 0 25 25" fill="none" xmlns="http://www.w3.org/2000/svg">
    <path d="M25 12.5C25 19.404 19.404 25 12.5 25S0 19.404 0 12.5 5.596 0 12.5 0 25 5.596 25 12.5z" fill="#4CD960"/>
    <path d="M8.375 15.012a.102.102 0 0 0-.144 0l-1.673 1.672.108.514c.17.883 1.032 1.495 1.916 1.325l2.564-.493a.089.089 0 0 0 .047-.149l-2.818-2.87zM7.875 14.628a.108.108 0 0 0 0-.152l-1.903-1.938a.108.108 0 0 0-.183.096l.619 3.219c.016.085.12.117.182.056l1.285-1.28zM10.884 11.447a.13.13 0 0 0 .183.001l2.996-2.985a.101.101 0 0 0-.09-.171l-5.022.965a.101.101 0 0 0-.053.17l1.986 2.02zM16.671 12.022l1.927 1.939a.09.09 0 0 0 .154-.081l-.616-3.27a.09.09 0 0 0-.153-.048l-1.311 1.295a.117.117 0 0 0 0 .165zM14.073 9.37l2.061 2.108c.05.05.13.05.18.001l1.668-1.65-.105-.626a1.613 1.613 0 0 0-1.887-1.299l-.749.136-1.166 1.15c-.05.05-.051.13-.002.18zM8.399 14.065l2.1-2.053a.14.14 0 0 0 .002-.198L8.16 9.432l-1.276.223c-.834.16-1.401.893-1.32 1.722l2.638 2.686a.14.14 0 0 0 .198.002zM13.662 14.14l2.14-2.122a.092.092 0 0 0 0-.13L13.67 9.726a.092.092 0 0 0-.13 0l-2.13 2.128a.092.092 0 0 0 0 .13l2.121 2.157a.092.092 0 0 0 .13 0zM13.66 15.022a.103.103 0 0 0-.146 0l-2.134 2.127a.103.103 0 0 0 0 .145l.565.567 3.585-.69a.104.104 0 0 0 .055-.176l-1.926-1.973zM18.976 15.111l-2.667-2.706a.118.118 0 0 0-.167 0l-2.088 2.099a.118.118 0 0 0 0 .166l2.293 2.333 1.342-.257c.793-.153 1.305-.852 1.287-1.635zM10.945 13.972a.596.596 0 1 0 0 1.192.596.596 0 0 0 0-1.192zM9.234 8.893l.496-.108a.128.128 0 0 0 .1-.116l-.007-.226a.914.914 0 0 1 .22-.499c.137-.16.296-.286.497-.326l1.198-.246c.27-.054.657.072.867.3.136.15.211.31.247.403a.105.105 0 0 0 .117.066l.486-.09a.104.104 0 0 0 .084-.124c-.03-.128-.117-.369-.384-.711-.287-.386-1.006-.63-1.527-.524l-1.18.238c-.587.118-1.11.549-1.25 1.15-.079.24-.081.56-.076.726.002.058.056.1.112.087z" fill="#fff"/>
</svg>
