<svg width="45" height="45" fill="none" xmlns="http://www.w3.org/2000/svg">
    <path d="M45 22.5C45 34.926 34.926 45 22.5 45S0 34.926 0 22.5 10.074 0 22.5 0 45 10.074 45 22.5z" fill="#4CD960"/>
    <path d="M15.076 27.02a.183.183 0 0 0-.26 0l-3.012 3.01.195.925c.305 1.591 1.857 2.691 3.448 2.386l4.616-.887a.16.16 0 0 0 .084-.269l-5.071-5.164zM14.175 26.331a.194.194 0 0 0 .002-.273l-3.428-3.49a.194.194 0 0 0-.329.172l1.114 5.795c.03.153.217.211.327.101l2.314-2.305zM19.59 20.605c.091.092.24.093.331.001l5.393-5.373a.182.182 0 0 0-.163-.308l-9.04 1.737a.182.182 0 0 0-.095.307l3.575 3.636zM30.008 21.64l3.468 3.49a.164.164 0 0 0 .277-.146l-1.108-5.887a.164.164 0 0 0-.276-.086l-2.36 2.33a.21.21 0 0 0-.001.299zM25.331 16.864l3.71 3.796c.089.09.235.092.325.002l3.002-2.971-.19-1.127c-.305-1.59-1.805-2.642-3.396-2.337l-1.348.244-2.1 2.07a.229.229 0 0 0-.003.323zM15.117 25.317l3.782-3.695a.252.252 0 0 0 .004-.357l-4.217-4.289-2.297.401c-1.501.289-2.522 1.608-2.375 3.102l4.748 4.834c.097.099.256.1.355.004zM24.59 25.453l3.853-3.82a.165.165 0 0 0 .001-.234l-3.839-3.895a.165.165 0 0 0-.235 0l-3.83 3.83a.165.165 0 0 0-.002.233l3.818 3.884c.064.066.17.066.235.002zM24.587 27.04a.185.185 0 0 0-.263-.002l-3.84 3.83a.185.185 0 0 0 0 .261l1.016 1.02 6.454-1.242a.188.188 0 0 0 .099-.316l-3.466-3.551zM34.157 27.2l-4.8-4.87a.212.212 0 0 0-.302 0l-3.758 3.778a.212.212 0 0 0-.001.298l4.129 4.2 2.415-.464c1.428-.274 2.348-1.532 2.317-2.941zM19.701 25.15a1.073 1.073 0 1 0 0 2.145 1.073 1.073 0 0 0 0-2.146zM16.622 16.007l.892-.195a.23.23 0 0 0 .18-.208l-.012-.407c.024-.321.187-.652.396-.898.245-.288.531-.514.894-.588l2.156-.441c.487-.098 1.183.128 1.561.538.245.273.38.558.445.726a.19.19 0 0 0 .21.118l.875-.16a.188.188 0 0 0 .15-.224c-.052-.23-.21-.664-.69-1.28-.516-.694-1.81-1.133-2.75-.944l-2.123.429c-1.057.213-1.997.988-2.25 2.072-.142.432-.146 1.007-.136 1.305.003.104.1.18.201.157z" fill="#fff"/>
</svg>
