<svg width="45" height="45" viewBox="0 0 45 45" fill="none" xmlns="http://www.w3.org/2000/svg">
    <circle cx="22.5" cy="22.5" r="22.5" fill="#000"/>
    <path fill-rule="evenodd" clip-rule="evenodd" d="M29.422 20.892a1.503 1.503 0 1 1 2.125-2.126 1.503 1.503 0 0 1-2.125 2.126zm-5.05 5.049a1.127 1.127 0 1 1 1.595-1.595 1.127 1.127 0 0 1-1.595 1.595zm7.973-2.658a1.127 1.127 0 1 1 1.594-1.594 1.127 1.127 0 0 1-1.594 1.594zm-2.658 2.657a1.127 1.127 0 1 1 1.595-1.594 1.127 1.127 0 0 1-1.595 1.595zm5.58-.265a.752.752 0 1 1 1.064-1.063.752.752 0 0 1-1.063 1.063zm-2.657 2.657a.752.752 0 1 1 1.063-1.063.752.752 0 0 1-1.063 1.063zm-5.846-4.783a1.503 1.503 0 1 1 2.126-2.126 1.503 1.503 0 0 1-2.126 2.126zm0-5.315a1.503 1.503 0 1 1 2.126-2.126 1.503 1.503 0 0 1-2.126 2.126zm-2.657 2.657a1.503 1.503 0 1 1 2.125-2.125 1.503 1.503 0 0 1-2.125 2.126zm-5.34 0a1.503 1.503 0 1 1 2.126-2.125 1.503 1.503 0 0 1-2.126 2.126zm-5.049 5.05a1.127 1.127 0 1 1 1.595-1.595 1.127 1.127 0 0 1-1.595 1.595zm7.972-2.658a1.128 1.128 0 1 1 1.595-1.594 1.128 1.128 0 0 1-1.595 1.594zm-2.657 2.657a1.127 1.127 0 1 1 1.594-1.594 1.127 1.127 0 0 1-1.594 1.595zM8.67 25.675a.752.752 0 1 1 1.063-1.063.752.752 0 0 1-1.063 1.063zm2.658 2.657a.752.752 0 1 1 1.063-1.063.752.752 0 0 1-1.063 1.063zm10.63 0a.752.752 0 1 1 1.062-1.063.752.752 0 0 1-1.063 1.063zM11.06 23.283a1.127 1.127 0 1 1 1.594-1.594 1.127 1.127 0 0 1-1.594 1.594zm5.049.266a1.503 1.503 0 1 1 2.126-2.126 1.503 1.503 0 0 1-2.126 2.126zm0-5.315a1.503 1.503 0 1 1 2.125-2.126 1.503 1.503 0 0 1-2.125 2.126zm-2.657 2.657a1.503 1.503 0 1 1 2.126-2.125 1.503 1.503 0 0 1-2.126 2.126z" fill="#fff"/>
</svg>
