<svg width="25" height="25" viewBox="0 0 25 25" fill="none" xmlns="http://www.w3.org/2000/svg">
    <circle cx="12.5" cy="12.5" r="12.5" fill="#000"/>
    <path fill-rule="evenodd" clip-rule="evenodd" d="M16.345 11.606a.835.835 0 1 1 1.181-1.181.835.835 0 0 1-1.18 1.181zm-2.805 2.805a.626.626 0 1 1 .886-.886.626.626 0 0 1-.886.886zm4.43-1.476a.626.626 0 1 1 .885-.886.626.626 0 0 1-.886.886zm-1.477 1.476a.626.626 0 1 1 .886-.886.626.626 0 0 1-.886.886zm3.1-.148a.418.418 0 1 1 .591-.59.418.418 0 0 1-.59.59zm-1.476 1.477a.418.418 0 1 1 .59-.59.418.418 0 0 1-.59.59zm-3.248-2.658a.835.835 0 1 1 1.181-1.18.835.835 0 0 1-1.181 1.18zm0-2.952a.835.835 0 1 1 1.181-1.181.835.835 0 0 1-1.181 1.18zm-1.476 1.476a.835.835 0 1 1 1.181-1.181.835.835 0 0 1-1.181 1.181zm-2.967 0a.835.835 0 1 1 1.181-1.181.835.835 0 0 1-1.18 1.181zm-2.805 2.805a.626.626 0 1 1 .886-.886.626.626 0 0 1-.886.886zm4.43-1.476a.626.626 0 1 1 .885-.886.626.626 0 0 1-.886.886zm-1.477 1.476a.626.626 0 1 1 .886-.886.626.626 0 0 1-.886.886zm-5.758-.148a.418.418 0 1 1 .59-.59.418.418 0 0 1-.59.59zm1.477 1.477a.418.418 0 1 1 .59-.59.418.418 0 0 1-.59.59zm5.905 0a.417.417 0 1 1 .59-.59.417.417 0 0 1-.59.59zm-6.053-2.805a.626.626 0 1 1 .886-.886.626.626 0 0 1-.886.886zm2.805.147a.835.835 0 1 1 1.181-1.18.835.835 0 0 1-1.18 1.18zm0-2.952a.835.835 0 1 1 1.181-1.181.835.835 0 0 1-1.18 1.18zm-1.476 1.476a.835.835 0 1 1 1.18-1.181.835.835 0 0 1-1.18 1.181z" fill="#fff"/>
</svg>
