<svg width="45" height="45" viewBox="0 0 45 45" fill="none" xmlns="http://www.w3.org/2000/svg">
<circle cx="22.5" cy="22.5" r="22.5" fill="url(#paint0_linear_218:1102)"/>
<path d="M31.2108 19.84H31.2094L28.2922 16.92L31.2094 14H31.2108V19.84Z" fill="white"/>
<path d="M31.2252 25.9191L31.2238 25.9205L28.3066 22.9991L31.2238 20.0791L31.2252 20.0805V25.9191Z" fill="white"/>
<path d="M31.2252 32.0002H31.2238L28.3066 29.0802L31.2238 26.1602H31.2252V32.0002Z" fill="white"/>
<path d="M28.2004 28.9601H28.199V23.1215L28.2004 23.1201L31.119 26.0401L28.2004 28.9601Z" fill="white"/>
<path d="M28.2004 22.88L28.199 22.8786V17.04H28.2004L31.119 19.96L28.2004 22.88Z" fill="white"/>
<path d="M28.1989 28.9597L25.2817 26.0397L28.1989 23.1211V28.9597Z" fill="white"/>
<path d="M28.1989 22.8786L25.2817 19.96L28.1989 17.04V22.8786Z" fill="white"/>
<path d="M28.0872 22.9922L28.0901 22.9951L25.1715 25.9151L22.2529 22.9951L22.2544 22.9922H28.0872Z" fill="white"/>
<path d="M22.2544 22.9966L22.2529 22.9952L25.1715 20.0752L28.0901 22.9952L28.0872 22.9966H22.2544Z" fill="white"/>
<path d="M22.1384 28.9601V23.1201L25.057 26.0401L22.1384 28.9601Z" fill="white"/>
<path d="M22.1381 28.9601L19.2209 26.0401L22.1381 23.1201V28.9601Z" fill="white"/>
<path d="M22.0123 22.9922L22.0137 22.9951L19.0951 25.9151L16.178 22.9951L16.1794 22.9922H22.0123Z" fill="white"/>
<path d="M16.1794 22.9966L16.178 22.9952L19.0951 20.0752L22.0137 22.9952L22.0123 22.9966H16.1794Z" fill="white"/>
<path d="M16.0388 28.9597V23.1211L18.956 26.0397L16.0388 28.9597Z" fill="white"/>
<path d="M16.0388 22.8786V17.04L18.956 19.96L16.0388 22.8786Z" fill="white"/>
<path d="M16.0389 28.9601H16.0375L13.1204 26.0401L16.0375 23.1201L16.0389 23.1215V28.9601Z" fill="white"/>
<path d="M16.0389 22.8786L16.0375 22.88L13.1204 19.96L16.0375 17.04H16.0389V22.8786Z" fill="white"/>
<path d="M13 32.0002V26.1602L15.9186 29.0802L13 32.0002Z" fill="white"/>
<path d="M13 25.9205V25.9191V20.0805V20.0791L15.9186 22.9991L13 25.9205Z" fill="white"/>
<path d="M13 19.84V14L15.9186 16.92L13 19.84Z" fill="white"/>
<defs>
<linearGradient id="paint0_linear_218:1102" x1="22.5" y1="0" x2="22.5" y2="45" gradientUnits="userSpaceOnUse">
<stop stop-color="#2AB5E8"/>
<stop offset="1" stop-color="#EC2482"/>
</linearGradient>
</defs>
</svg>
