<svg width="25" height="25" viewBox="0 0 25 25" fill="none" xmlns="http://www.w3.org/2000/svg">
<circle cx="12.5" cy="12.5" r="12.5" fill="url(#paint0_linear_223:430)"/>
<path d="M17.3394 11.0218H17.3387L15.718 9.39957L17.3387 7.77734H17.3394V11.0218Z" fill="white"/>
<path d="M17.3473 14.3987L17.3465 14.3995L15.7258 12.7765L17.3465 11.1543L17.3473 11.1551V14.3987Z" fill="white"/>
<path d="M17.3473 17.7777H17.3465L15.7258 16.1554L17.3465 14.5332H17.3473V17.7777Z" fill="white"/>
<path d="M15.6668 16.0882H15.666V12.8445L15.6668 12.8438L17.2882 14.466L15.6668 16.0882Z" fill="white"/>
<path d="M15.6668 12.7112L15.666 12.7104V9.4668H15.6668L17.2882 11.089L15.6668 12.7112Z" fill="white"/>
<path d="M15.666 16.0884L14.0454 14.4662L15.666 12.8447V16.0884Z" fill="white"/>
<path d="M15.666 12.7105L14.0454 11.089L15.666 9.4668V12.7105Z" fill="white"/>
<path d="M15.6041 12.7734L15.6056 12.775L13.9842 14.3973L12.3628 12.775L12.3636 12.7734H15.6041Z" fill="white"/>
<path d="M12.3636 12.7754L12.3628 12.7746L13.9842 11.1523L15.6056 12.7746L15.6041 12.7754H12.3636Z" fill="white"/>
<path d="M12.2991 16.0882V12.8438L13.9205 14.466L12.2991 16.0882Z" fill="white"/>
<path d="M12.2989 16.0882L10.6782 14.466L12.2989 12.8438V16.0882Z" fill="white"/>
<path d="M12.2291 12.7734L12.2299 12.775L10.6084 14.3973L8.98779 12.775L8.98859 12.7734H12.2291Z" fill="white"/>
<path d="M8.98859 12.7754L8.98779 12.7746L10.6084 11.1523L12.2299 12.7746L12.2291 12.7754H8.98859Z" fill="white"/>
<path d="M8.9104 16.0884V12.8447L10.531 14.4662L8.9104 16.0884Z" fill="white"/>
<path d="M8.9104 12.7105V9.4668L10.531 11.089L8.9104 12.7105Z" fill="white"/>
<path d="M8.91049 16.0882H8.90969L7.28906 14.466L8.90969 12.8438L8.91049 12.8445V16.0882Z" fill="white"/>
<path d="M8.91049 12.7104L8.90969 12.7112L7.28906 11.089L8.90969 9.4668H8.91049V12.7104Z" fill="white"/>
<path d="M7.22217 17.7777V14.5332L8.8436 16.1554L7.22217 17.7777Z" fill="white"/>
<path d="M7.22217 14.3995V14.3987V11.1551V11.1543L8.8436 12.7765L7.22217 14.3995Z" fill="white"/>
<path d="M7.22217 11.0218V7.77734L8.8436 9.39957L7.22217 11.0218Z" fill="white"/>
<defs>
<linearGradient id="paint0_linear_223:430" x1="12.5" y1="0" x2="12.5" y2="25" gradientUnits="userSpaceOnUse">
<stop stop-color="#2AB5E8"/>
<stop offset="1" stop-color="#EC2482"/>
</linearGradient>
</defs>
</svg>
