<svg width="45" height="45" viewBox="0 0 45 45" fill="none" xmlns="http://www.w3.org/2000/svg">
<circle cx="22.5" cy="22.5" r="22.5" fill="url(#paint0_linear)"/>
<path fill-rule="evenodd" clip-rule="evenodd" d="M25.0607 6.84714C23.9713 5.69487 21.9371 5.72122 20.8812 6.90698C20.202 7.57202 20.0665 8.55718 20.0507 9.46328C20.159 9.27886 20.256 9.08716 20.3529 8.8955C20.5521 8.50168 20.7512 8.10802 21.0485 7.77789C21.9617 6.77506 23.674 6.68887 24.7088 7.55264C25.1098 7.884 25.3645 8.33374 25.6178 8.78106C25.719 8.9598 25.82 9.13815 25.93 9.30841C25.9054 8.42815 25.747 7.46985 25.0607 6.84714ZM20.5117 17.0743C19.5416 15.8422 18.5716 14.6101 17.5536 13.4182C17.6367 13.8777 17.7523 14.3296 17.8678 14.7814C17.9738 15.196 18.0798 15.6105 18.1607 16.0306C18.2727 16.4826 18.0501 16.8901 17.836 17.282C17.7776 17.3889 17.7199 17.4947 17.6697 17.5999C17.0479 18.7445 16.4348 19.8945 15.8217 21.0445C15.2724 22.0749 14.723 23.1053 14.1673 24.132C13.863 24.5895 13.972 25.1382 14.09 25.6362C13.9615 25.4532 13.8312 25.2703 13.701 25.0891C13.3358 25.6932 13.0084 26.3181 12.6809 26.9431C12.4466 27.3902 12.2123 27.8374 11.9641 28.277C11.7034 28.7673 11.264 29.1014 10.8309 29.4308C10.7432 29.4975 10.6558 29.564 10.5701 29.6315C10.4693 29.567 10.365 29.5045 10.26 29.4415C9.77486 29.1503 9.27497 28.8504 9.03738 28.3138C7.8178 25.7982 7.34978 22.9393 7.64014 20.1631C7.73161 19.5897 7.66479 18.9985 7.29521 18.5323C7.47031 18.594 7.64626 18.6537 7.82222 18.7119C8.17939 17.0722 8.797 15.5031 9.55215 14.0074C9.49685 13.9817 9.41305 13.9419 9.3306 13.9028C9.25566 13.8672 9.18184 13.8322 9.13156 13.8087C8.03336 15.4167 7.13762 17.1742 6.63255 19.0602C5.56443 22.8004 5.86176 26.903 7.42798 30.4603C8.8463 33.7167 11.3346 36.477 14.3929 38.273C15.6759 39.0489 17.0907 39.6733 18.6023 39.7877C18.305 39.3306 17.9058 38.965 17.5071 38.5999C17.0588 38.1894 16.6111 37.7794 16.3093 37.2403C15.9576 36.6971 15.7757 36.0797 15.5945 35.4647C15.5408 35.2827 15.4873 35.101 15.4294 34.9214C15.3473 34.6125 15.0839 34.4344 14.8281 34.2615C14.7446 34.205 14.6619 34.1491 14.5866 34.0893C14.8926 34.1209 15.1986 34.1473 15.5046 34.1719C15.1939 33.7087 14.8652 33.2572 14.5186 32.8173C14.5253 32.7176 14.5318 32.6177 14.5384 32.5176C14.5507 32.3301 14.563 32.142 14.5767 31.9536C14.9063 32.1611 15.2355 32.3687 15.5627 32.5799C16.28 30.5843 16.9598 28.576 17.6394 26.5679C18.269 24.7078 18.8985 22.8479 19.5577 20.9985C19.9797 21.6194 20.376 22.2577 20.7722 22.896C21.3358 23.8039 21.8994 24.7118 22.537 25.5692C22.5531 25.4275 22.5675 25.2855 22.582 25.1434C22.6172 24.797 22.6525 24.4503 22.7113 24.1072C22.7307 24.3617 22.7379 24.6174 22.7451 24.8732C22.76 25.4043 22.7749 25.9352 22.8996 26.454C23.7372 25.3667 24.4164 24.1721 25.0904 22.9794C25.2008 22.7863 25.3345 22.5999 25.4686 22.413C25.8281 21.9118 26.1907 21.4065 26.1164 20.7556C26.1557 20.8181 26.1955 20.8804 26.2353 20.9428C26.5016 21.3602 26.7695 21.7801 26.924 22.2545C27.9975 25.4968 29.0939 28.7303 30.2131 31.9551C30.667 33.2446 30.7232 34.6925 30.2552 35.9874C30.2246 36.0975 30.1853 36.207 30.1459 36.3168C30.0519 36.579 29.9572 36.8432 29.9771 37.1221C30.0816 37.6015 30.3109 38.0377 30.538 38.4701C30.5935 38.5756 30.6488 38.6808 30.7022 38.7864C31.7492 38.196 32.7857 37.5707 33.7149 36.802C36.6906 34.4006 38.8093 30.9681 39.6048 27.2281C40.4266 23.5723 39.9533 19.6479 38.3114 16.2819L38.2979 16.2535C37.8551 15.3243 37.3912 14.3509 36.5393 13.7238C36.6451 14.3719 36.9052 14.9686 37.1654 15.5656C37.2846 15.839 37.4039 16.1125 37.5083 16.391C38.895 20.0469 38.7315 24.2199 37.211 27.8088C36.957 28.3912 36.6568 29.0755 35.988 29.2655C35.2488 29.5399 34.4323 29.1054 34.1051 28.4193C33.2904 26.9079 32.4829 25.3922 31.6754 23.8764C30.5249 21.7169 29.3743 19.5572 28.2028 17.4096C28.1771 17.3579 28.1504 17.3058 28.1234 17.2533C27.9449 16.9058 27.757 16.54 27.8227 16.1413C27.9046 15.54 28.0597 14.9529 28.2148 14.3658C28.2974 14.0529 28.3801 13.74 28.4517 13.425C27.475 14.5909 26.5315 15.7832 25.588 16.9753C24.7362 18.0515 23.8846 19.1276 23.0088 20.1842C22.1569 19.1639 21.3343 18.1191 20.5117 17.0743ZM27.4155 18.1505C26.9886 18.3001 26.5762 18.4866 26.2066 18.7487C26.4601 18.2505 26.7345 17.7617 27.0179 17.2815C27.1498 17.5725 27.2817 17.8601 27.4155 18.1505ZM24.3196 19.7885C24.5959 20.149 24.9865 20.3835 25.4002 20.5555C25.1151 20.2055 24.7174 19.9838 24.3196 19.7885ZM23.1191 22.8531C22.8727 23.0923 23.2881 23.4705 23.5203 23.2349C23.7753 22.9969 23.346 22.6156 23.1191 22.8531ZM30.8183 29.6718C30.9841 29.5989 31.1504 29.5266 31.3169 29.4541C31.4314 29.4043 31.546 29.3544 31.6608 29.3043L31.3123 28.9303C31.1488 29.1781 30.9842 29.4253 30.8183 29.6718ZM11.8625 35.6708C11.8701 35.3629 11.8783 35.0551 11.8871 34.7472C12.151 35.2318 12.451 35.6958 12.7845 36.1353C12.4801 35.9734 12.1739 35.8185 11.8625 35.6708ZM14.4688 34.7583C14.4794 34.8535 14.5028 35.0469 14.5145 35.1413C14.7204 35.2239 14.9281 35.3084 15.134 35.3929C15.0672 35.2258 15.002 35.0586 14.9369 34.8897C14.7802 34.8461 14.6237 34.8021 14.4688 34.7583ZM27.4636 39.5178C27.4392 39.5386 27.4148 39.5594 27.3904 39.5802C27.4396 39.622 27.5126 39.6835 27.5868 39.746C27.669 39.8153 27.7528 39.8859 27.8072 39.9321C28.707 39.6171 29.5987 39.2829 30.4751 38.9099C30.2903 38.3734 29.9824 37.8879 29.4984 37.5764C28.8945 38.2975 28.1769 38.9095 27.4636 39.5178Z" fill="url(#paint1_linear)"/>
<defs>
<linearGradient id="paint0_linear" x1="22.5" y1="0" x2="22.5" y2="45" gradientUnits="userSpaceOnUse">
<stop stop-color="#F0F0F0"/>
<stop offset="0.9999" stop-color="#141414"/>
</linearGradient>
<linearGradient id="paint1_linear" x1="29" y1="9.5" x2="28.9327" y2="39.9321" gradientUnits="userSpaceOnUse">
<stop stop-color="#A9B0C2"/>
<stop offset="1"/>
</linearGradient>
</defs>
</svg>
