<svg width="25" height="25" viewBox="0 0 25 25" fill="none" xmlns="http://www.w3.org/2000/svg">
<circle cx="12.5" cy="12.5" r="12.5" fill="url(#paint0_linear_223:464)"/>
<path fill-rule="evenodd" clip-rule="evenodd" d="M13.9225 3.80364C13.3173 3.16349 12.1872 3.17813 11.6006 3.83688C11.2233 4.20635 11.148 4.75366 11.1392 5.25705C11.1994 5.15459 11.2532 5.0481 11.3071 4.94162C11.4177 4.72283 11.5283 4.50413 11.6935 4.32073C12.2009 3.76359 13.1521 3.71571 13.727 4.19559C13.9498 4.37968 14.0913 4.62953 14.232 4.87804C14.2883 4.97734 14.3444 5.07643 14.4055 5.17101C14.3918 4.68198 14.3038 4.14959 13.9225 3.80364ZM11.3953 9.48538C10.8564 8.8009 10.3175 8.11641 9.75191 7.45422C9.79811 7.70952 9.8623 7.96058 9.92647 8.21156C9.98537 8.44189 10.0442 8.67216 10.0892 8.90556C10.1514 9.15666 10.0278 9.38305 9.90883 9.60079C9.87639 9.66019 9.84429 9.71894 9.81642 9.77738C9.47096 10.4133 9.13035 11.0522 8.78974 11.6911C8.48456 12.2635 8.17937 12.836 7.87066 13.4063C7.7016 13.6605 7.76214 13.9654 7.82769 14.242C7.75629 14.1404 7.68394 14.0387 7.6116 13.9381C7.40872 14.2737 7.22679 14.6209 7.04485 14.9681C6.91469 15.2165 6.78451 15.4649 6.64665 15.7091C6.50182 15.9815 6.2577 16.1671 6.01708 16.3501C5.96836 16.3872 5.91978 16.4241 5.8722 16.4616C5.8162 16.4258 5.75826 16.391 5.69993 16.356C5.4304 16.1943 5.15268 16.0277 5.02069 15.7296C4.34314 14.332 4.08313 12.7437 4.24444 11.2014C4.29525 10.8829 4.25814 10.5544 4.05281 10.2954C4.15009 10.3297 4.24784 10.3628 4.34559 10.3951C4.54402 9.48422 4.88714 8.6125 5.30667 7.78157C5.27594 7.76727 5.22939 7.74517 5.18358 7.72343C5.14195 7.70367 5.10094 7.68421 5.07301 7.67116C4.46289 8.56452 3.96526 9.54089 3.68467 10.5887C3.09127 12.6666 3.25645 14.9458 4.12658 16.9221C4.91453 18.7311 6.29692 20.2647 7.99599 21.2625C8.70877 21.6935 9.49474 22.0404 10.3345 22.104C10.1693 21.85 9.94759 21.6469 9.7261 21.4441C9.47705 21.216 9.22833 20.9882 9.06067 20.6887C8.86527 20.387 8.76419 20.0439 8.6635 19.7023C8.63372 19.6012 8.60397 19.5002 8.57182 19.4005C8.52619 19.2288 8.37987 19.1299 8.23778 19.0338C8.19137 19.0024 8.14542 18.9714 8.10356 18.9382C8.27356 18.9557 8.44356 18.9704 8.61357 18.9841C8.44098 18.7267 8.25839 18.4759 8.06578 18.2315C8.06953 18.1761 8.07316 18.1206 8.0768 18.065C8.08361 17.9608 8.09045 17.8564 8.09808 17.7517C8.28121 17.867 8.46406 17.9823 8.64587 18.0996C9.04437 16.9909 9.42201 15.8752 9.7996 14.7596C10.1494 13.7262 10.4991 12.6929 10.8653 11.6655C11.0998 12.0105 11.3199 12.3651 11.54 12.7197C11.8532 13.2241 12.1663 13.7284 12.5205 14.2048C12.5294 14.126 12.5374 14.0472 12.5455 13.9682C12.5651 13.7758 12.5847 13.5832 12.6173 13.3925C12.6281 13.5339 12.6321 13.676 12.6361 13.8181C12.6444 14.1131 12.6526 14.4081 12.7219 14.6964C13.1873 14.0923 13.5646 13.4286 13.939 12.766C14.0004 12.6587 14.0747 12.5552 14.1492 12.4513C14.3489 12.1729 14.5503 11.8922 14.509 11.5306C14.5309 11.5653 14.553 11.5999 14.5751 11.6346C14.723 11.8664 14.8719 12.0997 14.9577 12.3633C15.5541 14.1645 16.1632 15.9609 16.785 17.7525C17.0371 18.4689 17.0684 19.2733 16.8084 19.9927C16.7913 20.0538 16.7695 20.1147 16.7477 20.1757C16.6954 20.3214 16.6428 20.4681 16.6539 20.6231C16.7119 20.8894 16.8393 21.1317 16.9655 21.3719C16.9963 21.4305 17.027 21.489 17.0567 21.5477C17.6384 21.2197 18.2142 20.8723 18.7304 20.4452C20.3836 19.1111 21.5607 17.2042 22.0026 15.1264C22.4591 13.0954 22.1962 10.9152 21.284 9.04515L21.2765 9.02941C21.0305 8.51317 20.7728 7.9724 20.2995 7.62404C20.3583 7.98408 20.5028 8.31555 20.6474 8.64722C20.7136 8.79911 20.7798 8.95105 20.8379 9.10578C21.6083 11.1368 21.5174 13.4552 20.6727 15.449C20.5316 15.7726 20.3648 16.1527 19.9932 16.2583C19.5826 16.4107 19.129 16.1693 18.9472 15.7881C18.4946 14.9485 18.046 14.1065 17.5974 13.2644C16.9582 12.0646 16.319 10.8648 15.6681 9.6717C15.6539 9.64295 15.639 9.61401 15.624 9.58483C15.5248 9.39177 15.4205 9.18856 15.457 8.96704C15.5025 8.63301 15.5886 8.30685 15.6748 7.9807C15.7207 7.80686 15.7666 7.63303 15.8064 7.458C15.2638 8.10576 14.7396 8.76812 14.2155 9.43042C13.7423 10.0283 13.2691 10.6261 12.7826 11.2131C12.3093 10.6463 11.8523 10.0658 11.3953 9.48538ZM15.2308 10.0833C14.9936 10.1664 14.7645 10.27 14.5592 10.4156C14.7 10.1388 14.8524 9.86729 15.0099 9.60049C15.0831 9.76218 15.1564 9.92198 15.2308 10.0833ZM13.5108 10.9933C13.6643 11.1936 13.8813 11.3238 14.1111 11.4194C13.9527 11.2249 13.7318 11.1018 13.5108 10.9933ZM12.8439 12.6958C12.707 12.8287 12.9377 13.0389 13.0667 12.908C13.2084 12.7757 12.9699 12.5639 12.8439 12.6958ZM17.1212 16.484C17.2133 16.4435 17.3057 16.4033 17.3982 16.3631C17.4618 16.3354 17.5255 16.3077 17.5892 16.2798L17.3956 16.072C17.3048 16.2097 17.2133 16.347 17.1212 16.484ZM6.59018 19.8168C6.59443 19.6458 6.59896 19.4747 6.60387 19.3037C6.75047 19.5729 6.91713 19.8307 7.10245 20.0748C6.93329 19.9849 6.7632 19.8989 6.59018 19.8168ZM8.03814 19.3098C8.04402 19.3627 8.05701 19.4702 8.06352 19.5226C8.17789 19.5685 8.2933 19.6154 8.40768 19.6624C8.37056 19.5695 8.33439 19.4767 8.29821 19.3828C8.21115 19.3586 8.12417 19.3342 8.03814 19.3098ZM15.2574 21.9541C15.2439 21.9657 15.2303 21.9772 15.2168 21.9888C15.2442 22.012 15.2847 22.0461 15.3259 22.0809C15.3716 22.1194 15.4181 22.1586 15.4484 22.1843C15.9483 22.0093 16.4436 21.8236 16.9305 21.6164C16.8278 21.3183 16.6568 21.0486 16.3879 20.8755C16.0524 21.2762 15.6537 21.6161 15.2574 21.9541Z" fill="url(#paint1_linear_223:464)"/>
<defs>
<linearGradient id="paint0_linear_223:464" x1="12.5" y1="0" x2="12.5" y2="25" gradientUnits="userSpaceOnUse">
<stop stop-color="#F0F0F0"/>
<stop offset="0.9999" stop-color="#141414"/>
</linearGradient>
<linearGradient id="paint1_linear_223:464" x1="16.111" y1="5.27745" x2="16.0736" y2="22.1842" gradientUnits="userSpaceOnUse">
<stop stop-color="#A9B0C2"/>
<stop offset="1"/>
</linearGradient>
</defs>
</svg>
