<svg width="31" height="30" viewBox="0 0 31 30" fill="none" xmlns="http://www.w3.org/2000/svg">
<path d="M29.5 15C29.5 22.725 23.2411 29 15.5 29C7.77505 29 1.5 22.7411 1.5 15C1.5 7.27505 7.75893 1 15.5 1C23.2411 1 29.5 7.27505 29.5 15Z" fill="#261D33" stroke="#1C1C1C" stroke-width="2"/>
<mask id="mask0_1803_132685" style="mask-type:luminance" maskUnits="userSpaceOnUse" x="4" y="4" width="23" height="22">
<path d="M26.5 4H4.5V26H26.5V4Z" fill="white"/>
</mask>
<g mask="url(#mask0_1803_132685)">
<mask id="mask1_1803_132685" style="mask-type:alpha" maskUnits="userSpaceOnUse" x="0" y="6" width="24" height="24">
<path fill-rule="evenodd" clip-rule="evenodd" d="M20.0918 19.3013C22.1064 18.1016 23.4553 15.9078 23.4553 13.4002C23.4553 9.60552 20.3662 6.5293 16.5557 6.5293C13.8662 6.5293 11.5361 8.0618 10.3979 10.2978L0.689453 19.966L10.0569 29.2947L20.0918 19.3013Z" fill="#795E5E"/>
</mask>
<g mask="url(#mask1_1803_132685)">
<path fill-rule="evenodd" clip-rule="evenodd" d="M16.4401 6.03101L16.4437 6.02734C15.3561 6.04764 14.3055 6.33945 13.4021 6.91014C12.7245 7.62757 12.0614 8.35946 11.4198 9.1114C10.7212 9.92823 10.0473 10.7673 9.40625 11.6342C9.16775 11.9598 8.9328 12.2902 8.71097 12.6336C9.05583 12.4127 9.38755 12.1787 9.71453 11.9412C10.1003 11.6575 10.4811 11.3677 10.8564 11.0725C12.6908 9.63117 14.4095 8.05306 16.0606 6.41584C16.1873 6.2882 16.3134 6.15991 16.4401 6.03101ZM15.6268 10.3188C16.8505 9.08631 18.0629 7.83901 19.241 6.56116C18.7492 6.36129 18.2442 6.21706 17.7387 6.12992C16.6483 7.14141 15.5788 8.17483 14.5209 9.21738C13.3036 10.4406 12.0984 11.6794 10.9274 12.9487C9.22944 14.787 7.60022 16.689 6.10233 18.7024C7.92882 17.3543 9.66502 15.9006 11.3435 14.3847C12.8064 13.0655 14.2268 11.7006 15.6268 10.3188ZM21.3414 7.83424C19.6143 9.73861 17.8233 11.5841 16.0107 13.4057C14.9234 14.4803 13.8277 15.5467 12.7161 16.5959C10.2879 18.8887 7.78422 21.1025 5.12695 23.1431C7.22281 20.4364 9.50095 17.8896 11.8597 15.4195C12.863 14.3694 13.8801 13.3331 14.9048 12.3044C16.6886 10.5444 18.4958 8.804 20.3572 7.12372C20.6975 7.33141 21.0268 7.56791 21.3414 7.83424ZM22.9665 9.69879C22.7556 9.36235 22.515 9.03741 22.2459 8.72725C20.3324 10.4483 18.4774 12.2337 16.647 14.04C15.5673 15.1235 14.4953 16.2158 13.4405 17.3241C11.1388 19.7415 8.91764 22.2344 6.86916 24.8787C9.58218 22.795 12.136 20.5313 14.6122 18.1865C15.6709 17.1832 16.7157 16.1661 17.753 15.1414C19.5244 13.3607 21.2757 11.5574 22.9665 9.69879ZM23.5394 10.8033C23.7441 11.2864 23.8937 11.7831 23.9872 12.2806C22.9608 13.3798 21.9098 14.4568 20.8508 15.5237C19.6105 16.748 18.3537 17.9595 17.0657 19.1376C15.2319 20.8165 13.334 22.4257 11.3264 23.9074C12.6735 22.0963 14.1267 20.3753 15.6423 18.7103C16.9722 17.2455 18.3501 15.8237 19.7449 14.4223C20.9891 13.1971 22.2482 11.9831 23.5394 10.8033ZM23.3576 16.4556C23.8555 15.5798 24.1034 14.5825 24.1069 13.5535C23.958 13.6976 23.8098 13.8425 23.6629 13.9873C22.0001 15.6501 20.3987 17.3812 18.9381 19.2308C18.6584 19.5852 18.384 19.9437 18.1146 20.3071C17.8755 20.6333 17.6411 20.963 17.4193 21.3065C17.7641 21.0856 18.0959 20.8516 18.4228 20.6141C19.2227 20.0268 20 19.4124 20.7579 18.7761C21.6488 18.0293 22.5132 17.2524 23.3576 16.4556Z" fill="url(#paint0_linear_1803_132685)"/>
</g>
</g>
<defs>
<linearGradient id="paint0_linear_1803_132685" x1="20.4157" y1="48.0628" x2="43.1047" y2="20.9156" gradientUnits="userSpaceOnUse">
<stop stop-color="#FF2189"/>
<stop offset="1" stop-color="#FF9D00"/>
</linearGradient>
</defs>
</svg>
