<svg width="40" height="40" viewBox="0 0 40 40" fill="none" xmlns="http://www.w3.org/2000/svg">
<circle cx="20" cy="20" r="20" fill="#CFEBE1"/>
<path d="M14.4044 23.9208C14.512 23.8123 14.6566 23.7512 14.8079 23.7512H28.8111C29.0666 23.7512 29.1944 24.0632 29.0128 24.2429L26.2458 27.0305C26.1382 27.1391 25.9937 27.2001 25.8424 27.2001H11.8425C11.587 27.2001 11.4592 26.8881 11.6408 26.7084L14.4044 23.9208Z" fill="#4C8B89"/>
<path d="M14.4044 13.5029C14.512 13.3944 14.6566 13.3334 14.8079 13.3334H28.8111C29.0666 13.3334 29.1944 13.6454 29.0128 13.8251L26.2458 16.6127C26.1382 16.7212 25.9937 16.7823 25.8424 16.7823H11.8425C11.587 16.7823 11.4592 16.4703 11.6408 16.2905L14.4044 13.5029Z" fill="#4C8B89"/>
<path d="M26.2458 18.6782C26.1382 18.5697 25.9937 18.5087 25.8424 18.5087H11.8425C11.587 18.5087 11.4592 18.8207 11.6408 19.0004L14.4078 21.788C14.5154 21.8965 14.66 21.9575 14.8113 21.9575H28.8145C29.07 21.9575 29.1978 21.6456 29.0162 21.4658L26.2458 18.6782Z" fill="#4C8B89"/>
</svg>
