<svg width="40" height="40" viewBox="0 0 40 40" fill="none" xmlns="http://www.w3.org/2000/svg">
<path d="M40 20C40 31.0457 31.0457 40 20 40C8.95431 40 0 31.0457 0 20C0 8.95431 8.95431 0 20 0C31.0457 0 40 8.95431 40 20Z" fill="#FFD15C"/>
<path d="M10.313 28.1956C10.4856 28.0784 10.6467 27.9028 10.7268 27.6536C10.8159 27.3766 10.7634 27.1328 10.7216 26.9979C10.7203 26.9934 10.7188 26.9889 10.7174 26.9844L10.7506 26.7902C10.8425 26.8419 10.9482 26.9113 11.0687 26.9961C11.0978 27.0165 11.1384 27.0455 11.1807 27.0756C11.2362 27.1153 11.2947 27.157 11.3337 27.1841C11.4006 27.2307 11.4958 27.2957 11.5965 27.3492C14.2636 29.0068 16.4693 29.6902 18.2211 29.6056C20.0324 29.518 21.3025 28.6068 21.9577 27.2772C22.591 25.9919 22.613 24.3993 22.1692 22.9239C21.7226 21.439 20.7832 19.9959 19.3831 18.9972C17.0237 17.3144 14.8618 14.7557 13.7686 12.58C13.2134 11.4751 12.9925 10.584 13.0508 10.0021C13.0779 9.73129 13.1609 9.56747 13.2601 9.46205C13.3595 9.35653 13.5404 9.24018 13.889 9.18277C14.6274 9.06113 15.4815 8.79518 16.3482 8.52533C16.6847 8.42054 17.023 8.31517 17.3573 8.21742C18.6065 7.85213 19.9289 7.54526 21.319 7.54787C24.0151 7.55293 27.1792 8.72349 30.5107 13.593C34.7903 19.8484 32.4408 26.8384 27.5106 30.5106C25.0519 32.342 21.9841 33.314 18.8318 32.9444C15.9934 32.6117 13.0205 31.1832 10.313 28.1956ZM10.8094 26.5766C10.8094 26.5768 10.8085 26.5786 10.8063 26.5818C10.8082 26.578 10.8093 26.5765 10.8094 26.5766ZM10.5414 26.6988C10.5413 26.6986 10.5441 26.6989 10.55 26.7003C10.5445 26.6997 10.5416 26.699 10.5414 26.6988Z" fill="white" stroke="black" stroke-width="1.61052"/>
<path d="M12.7628 9.50226C12.7628 9.50226 20.4082 7.46643 22.0821 7.46643C23.756 7.46643 30.4446 10.7145 32.3967 16.65C35.1639 25.0645 27.637 30.5818 26.787 30.0409C34.8848 23.3454 21.6297 10.9694 15.1153 11.8999C14.3009 12.0162 14.7533 12.7142 14.7533 12.7142L14.5724 14.5238L13.2152 12.2618L12.7628 9.50226Z" fill="black"/>
<path d="M31.2827 14.1189C33.697 18.369 33.1952 15.9357 32.6593 20.7942C33.6511 19.1897 35.202 20.3911 35.8424 21.0045C35.9572 21.1145 36.1467 21.0464 36.1413 20.8875C36.1169 20.1668 35.9104 18.6096 34.7174 16.9389C33.0816 14.648 31.2827 14.1189 31.2827 14.1189Z" fill="black"/>
<path d="M32.6593 20.7942C32.7516 20.5661 32.8957 20.2101 32.8957 20.2101M32.6593 20.7942C33.1952 15.9357 33.697 18.369 31.2827 14.1189C31.2827 14.1189 33.0816 14.648 34.7174 16.9389C35.9104 18.6096 36.1169 20.1668 36.1413 20.8875C36.1467 21.0464 35.9572 21.1145 35.8424 21.0045C35.202 20.3911 33.6511 19.1897 32.6593 20.7942Z" stroke="black" stroke-width="0.0904788"/>
<path d="M11.8584 20.146C10.8397 21.8707 8.74974 21.7413 8.78975 23.7983C10.6565 27.9458 10.6675 27.6483 10.6675 27.6483C14.1255 25.7058 12.7044 21.4166 12.1914 20.155C12.1333 20.0124 11.9367 20.0135 11.8584 20.146Z" fill="black"/>
<path d="M4.01999 23.9592C6.00613 24.2183 7.19092 22.4917 8.78719 23.7896C10.9062 27.8141 10.6649 27.6396 10.6649 27.6396C7.00535 29.1686 4.50024 25.4081 3.82204 24.2271C3.74537 24.0936 3.86734 23.9393 4.01999 23.9592Z" fill="black"/>
<path d="M20.6796 21.4003C20.6796 21.4003 22.6702 23.4363 21.6297 23.7528C20.3322 22.9542 18.0073 23.5748 16.8676 23.9592C16.5871 24.0538 16.312 23.8048 16.4131 23.5264C16.8006 22.4602 17.7575 20.4864 19.5939 20.2241C20.6796 19.9525 20.6796 21.4003 20.6796 21.4003Z" fill="black"/>
<path d="M21.9012 11.4475C21.6749 11.1308 21.2226 10.2712 22.625 10.2712C24.0275 10.2712 26.1703 11.8592 26.606 12.4466C26.4704 12.8046 25.5656 12.8847 25.1132 12.8499C24.6608 12.8151 23.8917 12.7407 23.3036 12.4466C22.7155 12.1526 22.1274 11.7642 21.9012 11.4475Z" fill="white"/>
</svg>
