<?xml version="1.0" standalone="yes"?>
<svg xmlns="http://www.w3.org/2000/svg" width="200" height="200">
<path style="fill:#020201; stroke:none;" d="M0 0L0 86L1 86C2.78212 45.124 45.132 2.78183 86 1L59 0L0 0z"/>
<path style="fill:#ffd15d; stroke:none;" d="M86 0.428238C71.9419 2.44221 57.8897 7.17911 46 15.0031C-25.2114 61.8637 -10.0201 176.468 75 197.625C87.1735 200.654 101.548 201.356 114 199.572C128.547 197.488 142.746 192.462 155 184.333C226.361 136.988 208.812 24.0783 125 2.62962C112.757 -0.50354 98.5546 -1.37035 86 0.428238z"/>
<path style="fill:#020201; stroke:none;" d="M114 0L114 1C154.357 2.75954 197.234 44.4927 199 85L200 85L200 0L114 0z"/>
<path style="fill:#a68f57; stroke:none;" d="M103 33L103 34L110 34L103 33M95.6667 34.3333L96.3333 34.6667L95.6667 34.3333z"/>
<path style="fill:#71623d; stroke:none;" d="M97.6667 34.3333L98.3333 34.6667L97.6667 34.3333z"/>
<path style="fill:#020201; stroke:none;" d="M98 100L98 101C90.2527 103.707 81.9525 111.072 83 120C88.978 118.101 99.8095 114.373 105.697 118.179C115.735 124.668 102.491 141.477 95 143.442C82.1518 146.813 71.3068 138.115 60 134C64.7303 122.467 64.8033 112.894 61 101C53.9215 104.296 45.2756 110.974 44 119C35.8445 115.076 27.5905 119.929 19 120C25.5418 133.767 35.0214 134.012 45.9853 141.563C54.8789 147.689 61.1542 156.29 71 161.511C94.2533 173.842 122.808 170.093 143 153.535C153.458 144.96 161.128 132.92 164.964 120C166.178 115.908 165.471 103.138 169.318 101.137C172.658 99.3985 177.829 103.951 181 105C178.813 88.0633 168.981 81.8546 158.76 69.8156C152.622 62.5866 148.061 54.6411 141 48.0903C124.139 32.447 103.949 32.1361 83 38.1412C77.5836 39.6938 68.5257 40.6602 64.3032 44.5131C59.1818 49.1864 62.3186 57.7185 64.6659 63C71.127 77.5375 83.6027 92.8283 98 100z"/>
<path style="fill:#71623d; stroke:none;" d="M113 34L113 35L116 35L113 34z"/>
<path style="fill:#a68f57; stroke:none;" d="M116 34L117 35L116 34M91 35L92 36L91 35z"/>
<path style="fill:#71623d; stroke:none;" d="M92 35L93 36L92 35M118.667 35.3333L119.333 35.6667L118.667 35.3333z"/>
<path style="fill:#a68f57; stroke:none;" d="M120 35L121 36L120 35M87 36L88 37L87 36z"/>
<path style="fill:#71623d; stroke:none;" d="M88 36L89 37L88 36M122 36L123 37L122 36M84.6667 37.3333L85.3333 37.6667L84.6667 37.3333M124 37L125 38L124 37z"/>
<path style="fill:#a68f57; stroke:none;" d="M125 37L126 38L125 37M80 38L81 39L80 38z"/>
<path style="fill:#71623d; stroke:none;" d="M81 38L82 39L81 38z"/>
<path style="fill:#a68f57; stroke:none;" d="M127 38L128 39L127 38M77 39L78 40L77 39z"/>
<path style="fill:#71623d; stroke:none;" d="M78 39L79 40L78 39z"/>
<path style="fill:#a68f57; stroke:none;" d="M129 39L130 40L129 39z"/>
<path style="fill:#71623d; stroke:none;" d="M74.6667 40.3333L75.3333 40.6667L74.6667 40.3333M130 40L131 41L130 40z"/>
<path style="fill:#a68f57; stroke:none;" d="M69.6667 41.3333L70.3333 41.6667L69.6667 41.3333z"/>
<path style="fill:#71623d; stroke:none;" d="M71 41L72 42L71 41M132 41L133 42L132 41M66.6667 42.3333L67.3333 42.6667L66.6667 42.3333z"/>
<path style="fill:#a68f57; stroke:none;" d="M64 43L65 44L64 43z"/>
<path style="fill:#71623d; stroke:none;" d="M135 43L136 44L135 43M63 44L64 45L63 44M136 44L137 45L136 44z"/>
<path style="fill:#a68f57; stroke:none;" d="M62 45L63 46L62 45M139 46L140 47L139 46M61 47L62 48L61 47M140 47L141 48L140 47z"/>
<path style="fill:#71623d; stroke:none;" d="M61.3333 48.6667L61.6667 49.3333L61.3333 48.6667M141 48L142 49L141 48M142 49L143 50L142 49M143 50L144 51L143 50M110 51L111 52L110 51z"/>
<path style="fill:#a68f57; stroke:none;" d="M111 51L111 52L115 52L111 51z"/>
<path style="fill:#71623d; stroke:none;" d="M115 51L116 52L115 51M144 51L145 52L144 51M61.3333 52.6667L61.6667 53.3333L61.3333 52.6667z"/>
<path style="fill:#fcfcfc; stroke:none;" d="M109 52C109.855 63.3152 123.992 65.1447 133 63C127.142 55.0651 118.532 52.0063 109 52z"/>
<path style="fill:#a68f57; stroke:none;" d="M118 52L119 53L118 52z"/>
<path style="fill:#71623d; stroke:none;" d="M145 52L146 53L145 52z"/>
<path style="fill:#ffd15d; stroke:none;" d="M108 53L109 54L108 53z"/>
<path style="fill:#a68f57; stroke:none;" d="M120 53L121 54L120 53M146 53L147 54L146 53M61.3333 54.6667L61.6667 55.3333L61.3333 54.6667M108.333 54.6667L108.667 55.3333L108.333 54.6667M122 54L123 55L122 54M147 54L148 55L147 54M124 55L125 56L124 55z"/>
<path style="fill:#71623d; stroke:none;" d="M126 56L127 57L126 56M62 57L63 58L62 57M109 57L110 58L109 57z"/>
<path style="fill:#a68f57; stroke:none;" d="M127 57L128 58L127 57z"/>
<path style="fill:#71623d; stroke:none;" d="M149 57L150 58L149 57z"/>
<path style="fill:#a68f57; stroke:none;" d="M62 58L63 59L62 58z"/>
<path style="fill:#71623d; stroke:none;" d="M110 58L111 59L110 58M150 58L151 59L150 58M74.6667 59.3333L75.3333 59.6667L74.6667 59.3333z"/>
<path style="fill:#a68f57; stroke:none;" d="M76.6667 59.3333L77.3333 59.6667L76.6667 59.3333z"/>
<path style="fill:#ffd15d; stroke:none;" d="M78 59L78 60L81 60L78 59z"/>
<path style="fill:#a68f57; stroke:none;" d="M81.6667 59.3333L82.3333 59.6667L81.6667 59.3333z"/>
<path style="fill:#71623d; stroke:none;" d="M83.6667 59.3333L84.3333 59.6667L83.6667 59.3333M130 59L131 60L130 59M151 59L152 60L151 59M63 60L64 61L63 60z"/>
<path style="fill:#a68f57; stroke:none;" d="M73 60L74 61L73 60z"/>
<path style="fill:#fcfcfc; stroke:none;" d="M74 60C74.8427 67.7587 80.8099 74.524 86.0394 80C95.2362 89.6305 107.606 96.3601 113.124 109C123.047 131.728 107.967 156.209 82 151.535C74.0768 150.109 67.319 146.047 60 143C79.1227 167.93 134.978 167.973 144.957 134C152.439 108.526 129.183 83.5332 110 70.6705C98.5286 62.9787 87.6573 60 74 60z"/>
<path style="fill:#ffd15d; stroke:none;" d="M87 60L88 61L87 60z"/>
<path style="fill:#71623d; stroke:none;" d="M88 60L89 61L88 60z"/>
<path style="fill:#a68f57; stroke:none;" d="M113 60L114 61L113 60M131 60L132 61L131 60M63 61L64 62L63 61z"/>
<path style="fill:#ffd15d; stroke:none;" d="M73.3333 61.6667L73.6667 62.3333L73.3333 61.6667z"/>
<path style="fill:#a68f57; stroke:none;" d="M91 61L92 62L91 61z"/>
<path style="fill:#71623d; stroke:none;" d="M92 61L93 62L92 61z"/>
<path style="fill:#a68f57; stroke:none;" d="M115 61L116 62L115 61z"/>
<path style="fill:#71623d; stroke:none;" d="M132 61L133 62L132 61M64 62L65 63L64 62z"/>
<path style="fill:#a68f57; stroke:none;" d="M94 62L95 63L94 62z"/>
<path style="fill:#71623d; stroke:none;" d="M116 62L117 63L116 62z"/>
<path style="fill:#a68f57; stroke:none;" d="M117 62L118 63L117 62z"/>
<path style="fill:#71623d; stroke:none;" d="M153 62L154 63L153 62z"/>
<path style="fill:#a68f57; stroke:none;" d="M64 63L65 64L64 63z"/>
<path style="fill:#71623d; stroke:none;" d="M73 63L74 64L73 63z"/>
<path style="fill:#ffd15d; stroke:none;" d="M96 63L97 64L96 63z"/>
<path style="fill:#71623d; stroke:none;" d="M97 63L98 64L97 63M119 63L120 64L119 63z"/>
<path style="fill:#a68f57; stroke:none;" d="M120 63L121 64L120 63z"/>
<path style="fill:#ffd15d; stroke:none;" d="M121 63L122 64L121 63z"/>
<path style="fill:#a68f57; stroke:none;" d="M131 63L132 64L131 63M154 63L155 64L154 63z"/>
<path style="fill:#ffd15d; stroke:none;" d="M74 64L75 65L74 64z"/>
<path style="fill:#71623d; stroke:none;" d="M99 64L100 65L99 64M125 64L125 65L128 65L125 64z"/>
<path style="fill:#a68f57; stroke:none;" d="M65 65L66 66L65 65z"/>
<path style="fill:#71623d; stroke:none;" d="M101 65L102 66L101 65M155 65L156 66L155 65M66 66L67 67L66 66z"/>
<path style="fill:#a68f57; stroke:none;" d="M75 66L76 67L75 66z"/>
<path style="fill:#71623d; stroke:none;" d="M103 66L104 67L103 66M156 66L157 67L156 66z"/>
<path style="fill:#a68f57; stroke:none;" d="M66 67L67 68L66 67z"/>
<path style="fill:#ffd15d; stroke:none;" d="M76 67L77 68L76 67z"/>
<path style="fill:#71623d; stroke:none;" d="M67 68L68 69L67 68z"/>
<path style="fill:#a68f57; stroke:none;" d="M106 68L107 69L106 68z"/>
<path style="fill:#71623d; stroke:none;" d="M157 68L158 69L157 68M77 69L78 70L77 69M108 69L109 70L108 69z"/>
<path style="fill:#a68f57; stroke:none;" d="M158 69L159 70L158 69z"/>
<path style="fill:#71623d; stroke:none;" d="M68 70L69 71L68 70z"/>
<path style="fill:#ffd15d; stroke:none;" d="M78 70L79 71L78 70M109 70L110 71L109 70z"/>
<path style="fill:#71623d; stroke:none;" d="M111 71L112 72L111 71M159 71L160 72L159 71z"/>
<path style="fill:#a68f57; stroke:none;" d="M69 72L70 73L69 72z"/>
<path style="fill:#71623d; stroke:none;" d="M79 72L80 73L79 72z"/>
<path style="fill:#a68f57; stroke:none;" d="M112 72L113 73L112 72z"/>
<path style="fill:#71623d; stroke:none;" d="M70 73L71 74L70 73z"/>
<path style="fill:#a68f57; stroke:none;" d="M80 73L81 74L80 73z"/>
<path style="fill:#71623d; stroke:none;" d="M114 73L115 74L114 73M162 73L163 74L162 73z"/>
<path style="fill:#ffd15d; stroke:none;" d="M81 74L82 75L81 74z"/>
<path style="fill:#a68f57; stroke:none;" d="M115 74L116 75L115 74M116 75L117 76L116 75z"/>
<path style="fill:#71623d; stroke:none;" d="M165 75L166 76L165 75M72 76L73 77L72 76M166 76L167 77L166 76M73 77L74 78L73 77M119 77L120 78L119 77M167 77L168 78L167 77M84 78L85 79L84 78z"/>
<path style="fill:#a68f57; stroke:none;" d="M120 78L121 79L120 78z"/>
<path style="fill:#71623d; stroke:none;" d="M168 78L169 79L168 78z"/>
<path style="fill:#a68f57; stroke:none;" d="M85 79L86 80L85 79M121 79L122 80L121 79z"/>
<path style="fill:#71623d; stroke:none;" d="M169 79L170 80L169 79z"/>
<path style="fill:#a68f57; stroke:none;" d="M75 80L76 81L75 80M86 80L87 81L86 80M122 80L123 81L122 80z"/>
<path style="fill:#71623d; stroke:none;" d="M170 80L171 81L170 80M76 81L77 82L76 81z"/>
<path style="fill:#a68f57; stroke:none;" d="M87 81L88 82L87 81M123 81L124 82L123 81z"/>
<path style="fill:#71623d; stroke:none;" d="M171 81L172 82L171 81M77 82L78 83L77 82z"/>
<path style="fill:#a68f57; stroke:none;" d="M88 82L89 83L88 82z"/>
<path style="fill:#ffd15d; stroke:none;" d="M124 82L125 83L124 82z"/>
<path style="fill:#a68f57; stroke:none;" d="M172 82L173 83L172 82z"/>
<path style="fill:#71623d; stroke:none;" d="M78 83L79 84L78 83z"/>
<path style="fill:#a68f57; stroke:none;" d="M89 83L90 84L89 83z"/>
<path style="fill:#ffd15d; stroke:none;" d="M125 83L126 84L125 83z"/>
<path style="fill:#71623d; stroke:none;" d="M79 84L80 85L79 84z"/>
<path style="fill:#a68f57; stroke:none;" d="M90 84L91 85L90 84z"/>
<path style="fill:#ffd15d; stroke:none;" d="M126 84L127 85L126 84z"/>
<path style="fill:#71623d; stroke:none;" d="M173 84L174 85L173 84z"/>
<path style="fill:#a68f57; stroke:none;" d="M91 85L92 86L91 85M127 85L128 86L127 85z"/>
<path style="fill:#71623d; stroke:none;" d="M174 85L175 86L174 85M92 86L93 87L92 86z"/>
<path style="fill:#a68f57; stroke:none;" d="M128 86L129 87L128 86M129 87L130 88L129 87z"/>
<path style="fill:#71623d; stroke:none;" d="M175 87L176 88L175 87M130 88L131 89L130 88z"/>
<path style="fill:#a68f57; stroke:none;" d="M176 88L177 89L176 88M96 89L97 90L96 89z"/>
<path style="fill:#71623d; stroke:none;" d="M131 89L132 90L131 89M176 89L177 90L176 89M97 90L98 91L97 90z"/>
<path style="fill:#a68f57; stroke:none;" d="M177 90L178 91L177 90z"/>
<path style="fill:#71623d; stroke:none;" d="M86 91L87 92L86 91M177 91L178 92L177 91M87 92L88 93L87 92z"/>
<path style="fill:#a68f57; stroke:none;" d="M100 92L101 93L100 92M133 92L134 93L133 92M178 92L179 93L178 92z"/>
<path style="fill:#71623d; stroke:none;" d="M88 93L89 94L88 93z"/>
<path style="fill:#a68f57; stroke:none;" d="M101 93L102 94L101 93z"/>
<path style="fill:#71623d; stroke:none;" d="M134 93L135 94L134 93M178 93L179 94L178 93M89 94L90 95L89 94M102 94L103 95L102 94z"/>
<path style="fill:#a68f57; stroke:none;" d="M179 95L180 96L179 95z"/>
<path style="fill:#71623d; stroke:none;" d="M92 96L93 97L92 96z"/>
<path style="fill:#a68f57; stroke:none;" d="M136 96L137 97L136 96z"/>
<path style="fill:#71623d; stroke:none;" d="M179 96L180 97L179 96M93 97L94 98L93 97M105 97L106 98L105 97M137 97L138 98L137 97M106 98L107 99L106 98M96 99L97 100L96 99z"/>
<path style="fill:#a68f57; stroke:none;" d="M107 99L108 100L107 99M138 99L139 100L138 99M180 99L181 100L180 99M59 100L60 101L59 100z"/>
<path style="fill:#71623d; stroke:none;" d="M60 100L61 101L60 100M97 100L98 101L97 100z"/>
<path style="fill:#ffd15d; stroke:none;" d="M108 100L109 101L108 100z"/>
<path style="fill:#a68f57; stroke:none;" d="M168 100L168 101L171 101L168 100z"/>
<path style="fill:#71623d; stroke:none;" d="M171.667 100.333L172.333 100.667L171.667 100.333M180.333 100.667L180.667 101.333L180.333 100.667z"/>
<path style="fill:#a68f57; stroke:none;" d="M61 101L62 102L61 101M95 101L96 102L95 101z"/>
<path style="fill:#71623d; stroke:none;" d="M96 101L97 102L96 101z"/>
<path style="fill:#ffd15d; stroke:none;" d="M139 101L140 102L139 101z"/>
<path style="fill:#71623d; stroke:none;" d="M167 101L167 109L168 109L167 101M174 101L175 102L174 101M61 102L62 103L61 102M93 102L94 103L93 102M109 102L110 103L109 102M140 102L141 103L140 102z"/>
<path style="fill:#a68f57; stroke:none;" d="M175 102L176 103L175 102M91 103L92 104L91 103z"/>
<path style="fill:#ffd15d; stroke:none;" d="M110 103L111 104L110 103M140 103L141 104L140 103z"/>
<path style="fill:#a68f57; stroke:none;" d="M62 104L63 105L62 104M90 104L91 105L90 104z"/>
<path style="fill:#71623d; stroke:none;" d="M110 104L111 105L110 104M141 104L142 105L141 104M178 104L179 105L178 104M62 105L63 106L62 105M89 105L90 106L89 105z"/>
<path style="fill:#a68f57; stroke:none;" d="M111 105L112 106L111 105z"/>
<path style="fill:#ffd15d; stroke:none;" d="M141 105L142 106L141 105z"/>
<path style="fill:#a68f57; stroke:none;" d="M179.667 105.333L180.333 105.667L179.667 105.333M53 106L54 107L53 106z"/>
<path style="fill:#71623d; stroke:none;" d="M88 106L89 107L88 106M142 106L143 107L142 106M52 107L53 108L52 107z"/>
<path style="fill:#a68f57; stroke:none;" d="M63 107L64 108L63 107z"/>
<path style="fill:#71623d; stroke:none;" d="M87 107L88 108L87 107z"/>
<path style="fill:#a68f57; stroke:none;" d="M112 107L113 108L112 107z"/>
<path style="fill:#ffd15d; stroke:none;" d="M142 107L143 108L142 107z"/>
<path style="fill:#a68f57; stroke:none;" d="M50 108L51 109L50 108z"/>
<path style="fill:#71623d; stroke:none;" d="M63.3333 108.667L63.6667 109.333L63.3333 108.667M49 109L50 110L49 109z"/>
<path style="fill:#ffd15d; stroke:none;" d="M113 109L114 110L113 109z"/>
<path style="fill:#a68f57; stroke:none;" d="M143 109L144 110L143 109M167.333 109.667L167.667 110.333L167.333 109.667M47 110L48 111L47 110z"/>
<path style="fill:#71623d; stroke:none;" d="M85 110L86 111L85 110M113 110L114 111L113 110z"/>
<path style="fill:#a68f57; stroke:none;" d="M46 111L47 112L46 111z"/>
<path style="fill:#71623d; stroke:none;" d="M144 111L145 112L144 111z"/>
<path style="fill:#a68f57; stroke:none;" d="M64.3333 112.667L64.6667 113.333L64.3333 112.667z"/>
<path style="fill:#71623d; stroke:none;" d="M84 112L85 113L84 112z"/>
<path style="fill:#a68f57; stroke:none;" d="M114 112L115 113L114 112M144 112L145 113L144 112z"/>
<path style="fill:#71623d; stroke:none;" d="M114 113L115 114L114 113M166.333 113.667L166.667 114.333L166.333 113.667z"/>
<path style="fill:#020201; stroke:none;" d="M0 114L0 200L85 200L85 199C53.6258 197.632 23.7905 171.975 10.2701 145C5.2975 135.079 4.41516 123.832 0 114z"/>
<path style="fill:#a68f57; stroke:none;" d="M44 114L45 115L44 114z"/>
<path style="fill:#71623d; stroke:none;" d="M64 114L64 121L65 121L64 114M83 114L84 115L83 114M145.333 114.667L145.667 115.333L145.333 114.667z"/>
<path style="fill:#020201; stroke:none;" d="M199 114C197.218 154.876 154.868 197.218 114 199L114 200L200 200L200 141L199 114z"/>
<path style="fill:#71623d; stroke:none;" d="M44 115L45 116L44 115z"/>
<path style="fill:#ffd15d; stroke:none;" d="M115 115L116 116L115 115z"/>
<path style="fill:#a68f57; stroke:none;" d="M166 115L167 116L166 115M35 116L36 117L35 116z"/>
<path style="fill:#71623d; stroke:none;" d="M36 116L36 117L39 117L36 116z"/>
<path style="fill:#a68f57; stroke:none;" d="M39 116L40 117L39 116z"/>
<path style="fill:#71623d; stroke:none;" d="M82 116L83 117L82 116z"/>
<path style="fill:#a68f57; stroke:none;" d="M115 116L116 117L115 116M145 116L146 117L145 116z"/>
<path style="fill:#71623d; stroke:none;" d="M32.6667 117.333L33.3333 117.667L32.6667 117.333M41 117L42 118L41 117M92.6667 117.333L93.3333 117.667L92.6667 117.333z"/>
<path style="fill:#a68f57; stroke:none;" d="M94 117L95 118L94 117M104 117L105 118L104 117z"/>
<path style="fill:#71623d; stroke:none;" d="M105 117L106 118L105 117M115 117L116 118L115 117M29.6667 118.333L30.3333 118.667L29.6667 118.333M43 118L44 119L43 118M87.6667 118.333L88.3333 118.667L87.6667 118.333z"/>
<path style="fill:#a68f57; stroke:none;" d="M89 118L90 119L89 118z"/>
<path style="fill:#71623d; stroke:none;" d="M107 118L108 119L107 118M165 118L166 119L165 118z"/>
<path style="fill:#a68f57; stroke:none;" d="M20 119L21 120L20 119M24.6667 119.333L25.3333 119.667L24.6667 119.333z"/>
<path style="fill:#71623d; stroke:none;" d="M26 119L27 120L26 119M82 119L83 120L82 119M84.6667 119.333L85.3333 119.667L84.6667 119.333M146.333 119.667L146.667 120.333L146.333 119.667z"/>
<path style="fill:#a68f57; stroke:none;" d="M165 119L166 120L165 119z"/>
<path style="fill:#71623d; stroke:none;" d="M19 121L20 122L19 121z"/>
<path style="fill:#a68f57; stroke:none;" d="M64.3333 121.667L64.6667 122.333L64.3333 121.667z"/>
<path style="fill:#ffd15d; stroke:none;" d="M116 121L117 122L116 121z"/>
<path style="fill:#a68f57; stroke:none;" d="M146 121L146 128L147 128L146 121z"/>
<path style="fill:#71623d; stroke:none;" d="M164 121L165 122L164 121M108 122L108 127L109 127L108 122z"/>
<path style="fill:#a68f57; stroke:none;" d="M116 122L116 127L117 127L116 122M164 122L165 123L164 122z"/>
<path style="fill:#71623d; stroke:none;" d="M20 123L21 124L20 123M21 124L22 125L21 124M163 124L164 125L163 124M63 125L64 126L63 125z"/>
<path style="fill:#a68f57; stroke:none;" d="M163 125L164 126L163 125M22 126L23 127L22 126M63 126L64 127L63 126z"/>
<path style="fill:#71623d; stroke:none;" d="M23 127L24 128L23 127z"/>
<path style="fill:#ffd15d; stroke:none;" d="M116.333 127.667L116.667 128.333L116.333 127.667z"/>
<path style="fill:#a68f57; stroke:none;" d="M162 127L163 128L162 127z"/>
<path style="fill:#71623d; stroke:none;" d="M24 128L25 129L24 128M62 128L63 129L62 128M146.333 128.667L146.667 129.333L146.333 128.667z"/>
<path style="fill:#a68f57; stroke:none;" d="M107.333 129.667L107.667 130.333L107.333 129.667z"/>
<path style="fill:#71623d; stroke:none;" d="M161 129L162 130L161 129M61 130L62 131L61 130M107 131L108 132L107 131M115 131L116 132L115 131M160 131L161 132L160 131z"/>
<path style="fill:#a68f57; stroke:none;" d="M115 132L116 133L115 132z"/>
<path style="fill:#ffd15d; stroke:none;" d="M145 132L146 133L145 132z"/>
<path style="fill:#71623d; stroke:none;" d="M60 133L61 134L60 133z"/>
<path style="fill:#a68f57; stroke:none;" d="M106 133L107 134L106 133z"/>
<path style="fill:#ffd15d; stroke:none;" d="M115 133L116 134L115 133z"/>
<path style="fill:#71623d; stroke:none;" d="M145 133L146 134L145 133M159 133L160 134L159 133M30 134L31 135L30 134z"/>
<path style="fill:#a68f57; stroke:none;" d="M62 134L63 135L62 134z"/>
<path style="fill:#71623d; stroke:none;" d="M106 134L107 135L106 134M31 135L32 136L31 135M63 135L64 136L63 135z"/>
<path style="fill:#a68f57; stroke:none;" d="M105 135L106 136L105 135z"/>
<path style="fill:#71623d; stroke:none;" d="M114 135L115 136L114 135z"/>
<path style="fill:#ffd15d; stroke:none;" d="M144 135L145 136L144 135z"/>
<path style="fill:#a68f57; stroke:none;" d="M158 135L159 136L158 135z"/>
<path style="fill:#71623d; stroke:none;" d="M33 136L34 137L33 136M65 136L66 137L65 136M144 136L145 137L144 136M157 136L158 137L157 136z"/>
<path style="fill:#a68f57; stroke:none;" d="M34 137L35 138L34 137z"/>
<path style="fill:#71623d; stroke:none;" d="M67 137L68 138L67 137M104 137L105 138L104 137M113 137L114 138L113 137z"/>
<path style="fill:#a68f57; stroke:none;" d="M36 138L37 139L36 138z"/>
<path style="fill:#71623d; stroke:none;" d="M37 138L38 139L37 138z"/>
<path style="fill:#a68f57; stroke:none;" d="M69 138L70 139L69 138z"/>
<path style="fill:#71623d; stroke:none;" d="M103 138L104 139L103 138z"/>
<path style="fill:#ffd15d; stroke:none;" d="M113 138L114 139L113 138z"/>
<path style="fill:#a68f57; stroke:none;" d="M143 138L144 139L143 138z"/>
<path style="fill:#71623d; stroke:none;" d="M156 138L157 139L156 138z"/>
<path style="fill:#a68f57; stroke:none;" d="M39 139L40 140L39 139z"/>
<path style="fill:#71623d; stroke:none;" d="M40.6667 139.333L41.3333 139.667L40.6667 139.333M71 139L72 140L71 139M102 139L103 140L102 139M112 139L113 140L112 139M155 139L156 140L155 139z"/>
<path style="fill:#a68f57; stroke:none;" d="M45 140L46 141L45 140z"/>
<path style="fill:#71623d; stroke:none;" d="M73 140L74 141L73 140z"/>
<path style="fill:#a68f57; stroke:none;" d="M74 140L75 141L74 140z"/>
<path style="fill:#71623d; stroke:none;" d="M101 140L102 141L101 140M142 140L143 141L142 140z"/>
<path style="fill:#a68f57; stroke:none;" d="M46 141L47 142L46 141z"/>
<path style="fill:#71623d; stroke:none;" d="M57 141L58 142L57 141M76 141L77 142L76 141z"/>
<path style="fill:#a68f57; stroke:none;" d="M77 141L78 142L77 141M99 141L100 142L99 141M111 141L112 142L111 141M154 141L155 142L154 141z"/>
<path style="fill:#71623d; stroke:none;" d="M47 142L48 143L47 142M58 142L60 144L58 142z"/>
<path style="fill:#a68f57; stroke:none;" d="M59 142L60 143L59 142z"/>
<path style="fill:#71623d; stroke:none;" d="M79 142L80 143L79 142z"/>
<path style="fill:#a68f57; stroke:none;" d="M80 142L81 143L80 142M97 142L98 143L97 142z"/>
<path style="fill:#71623d; stroke:none;" d="M98 142L99 143L98 142M110 142L111 143L110 142M153 142L154 143L153 142M48 143L49 144L48 143z"/>
<path style="fill:#a68f57; stroke:none;" d="M61 143L62 144L61 143z"/>
<path style="fill:#71623d; stroke:none;" d="M82 143L82 144L85 144L82 143z"/>
<path style="fill:#a68f57; stroke:none;" d="M85 143L86 144L85 143M93 143L94 144L93 143z"/>
<path style="fill:#71623d; stroke:none;" d="M94.6667 143.333L95.3333 143.667L94.6667 143.333M140 143L141 144L140 143M152 143L153 144L152 143M49 144L50 145L49 144M60 144L61 145L60 144z"/>
<path style="fill:#a68f57; stroke:none;" d="M63 144L64 145L63 144M139 144L140 145L139 144z"/>
<path style="fill:#71623d; stroke:none;" d="M50 145L51 146L50 145M65 145L66 146L65 145z"/>
<path style="fill:#ffd15d; stroke:none;" d="M138 145L139 146L138 145z"/>
<path style="fill:#a68f57; stroke:none;" d="M67 146L68 147L67 146z"/>
<path style="fill:#71623d; stroke:none;" d="M106 146L107 147L106 146z"/>
<path style="fill:#a68f57; stroke:none;" d="M150 146L151 147L150 146M64 147L65 148L64 147M69 147L70 148L69 147M105 147L106 148L105 147M149 147L150 148L149 147z"/>
<path style="fill:#71623d; stroke:none;" d="M53 148L54 149L53 148z"/>
<path style="fill:#a68f57; stroke:none;" d="M65 148L66 149L65 148z"/>
<path style="fill:#ffd15d; stroke:none;" d="M71 148L72 149L71 148z"/>
<path style="fill:#71623d; stroke:none;" d="M72 148L73 149L72 148M103 148L104 149L103 148z"/>
<path style="fill:#ffd15d; stroke:none;" d="M135 148L136 149L135 148z"/>
<path style="fill:#a68f57; stroke:none;" d="M148 148L149 149L148 148z"/>
<path style="fill:#71623d; stroke:none;" d="M54 149L55 150L54 149z"/>
<path style="fill:#a68f57; stroke:none;" d="M74 149L75 150L74 149z"/>
<path style="fill:#71623d; stroke:none;" d="M75 149L76 150L75 149M101 149L102 150L101 149z"/>
<path style="fill:#ffd15d; stroke:none;" d="M102 149L103 150L102 149M134 149L135 150L134 149z"/>
<path style="fill:#a68f57; stroke:none;" d="M147 149L148 150L147 149z"/>
<path style="fill:#71623d; stroke:none;" d="M55 150L56 151L55 150z"/>
<path style="fill:#a68f57; stroke:none;" d="M68 150L69 151L68 150z"/>
<path style="fill:#ffd15d; stroke:none;" d="M77 150L78 151L77 150z"/>
<path style="fill:#71623d; stroke:none;" d="M78.6667 150.333L79.3333 150.667L78.6667 150.333z"/>
<path style="fill:#a68f57; stroke:none;" d="M99 150L100 151L99 150M133 150L134 151L133 150M146 150L147 151L146 150z"/>
<path style="fill:#71623d; stroke:none;" d="M56 151L57 152L56 151M69 151L70 152L69 151z"/>
<path style="fill:#ffd15d; stroke:none;" d="M81 151L82 152L81 151z"/>
<path style="fill:#a68f57; stroke:none;" d="M82 151L83 152L82 151z"/>
<path style="fill:#71623d; stroke:none;" d="M83.6667 151.333L84.3333 151.667L83.6667 151.333M94.6667 151.333L95.3333 151.667L94.6667 151.333z"/>
<path style="fill:#a68f57; stroke:none;" d="M96 151L97 152L96 151z"/>
<path style="fill:#ffd15d; stroke:none;" d="M131 151L132 152L131 151z"/>
<path style="fill:#71623d; stroke:none;" d="M132 151L133 152L132 151z"/>
<path style="fill:#a68f57; stroke:none;" d="M145 151L146 152L145 151M57 152L58 153L57 152M71 152L72 153L71 152M130 152L131 153L130 152M73 153L74 154L73 153M128 153L129 154L128 153z"/>
<path style="fill:#71623d; stroke:none;" d="M60 154L61 155L60 154M74 154L75 155L74 154z"/>
<path style="fill:#ffd15d; stroke:none;" d="M126 154L127 155L126 154z"/>
<path style="fill:#71623d; stroke:none;" d="M127 154L128 155L127 154M141 154L142 155L141 154M61 155L62 156L61 155M76 155L77 156L76 155z"/>
<path style="fill:#ffd15d; stroke:none;" d="M77 155L78 156L77 155M124 155L125 156L124 155z"/>
<path style="fill:#71623d; stroke:none;" d="M125 155L126 156L125 155z"/>
<path style="fill:#a68f57; stroke:none;" d="M140 155L141 156L140 155M62 156L63 157L62 156z"/>
<path style="fill:#71623d; stroke:none;" d="M78 156L79 157L78 156z"/>
<path style="fill:#a68f57; stroke:none;" d="M79 156L80 157L79 156M122 156L123 157L122 156z"/>
<path style="fill:#71623d; stroke:none;" d="M123 156L124 157L123 156M64 157L65 158L64 157M81 157L82 158L81 157z"/>
<path style="fill:#ffd15d; stroke:none;" d="M119 157L120 158L119 157z"/>
<path style="fill:#71623d; stroke:none;" d="M120 157L121 158L120 157M137 157L138 158L137 157z"/>
<path style="fill:#a68f57; stroke:none;" d="M65 158L66 159L65 158M84 158L85 159L84 158z"/>
<path style="fill:#ffd15d; stroke:none;" d="M85 158L86 159L85 158M116 158L117 159L116 158z"/>
<path style="fill:#71623d; stroke:none;" d="M117 158L118 159L117 158z"/>
<path style="fill:#a68f57; stroke:none;" d="M136 158L137 159L136 158z"/>
<path style="fill:#71623d; stroke:none;" d="M67 159L68 160L67 159M87 159L88 160L87 159z"/>
<path style="fill:#a68f57; stroke:none;" d="M88 159L89 160L88 159z"/>
<path style="fill:#ffd15d; stroke:none;" d="M89 159L90 160L89 159M112 159L113 160L112 159z"/>
<path style="fill:#a68f57; stroke:none;" d="M113 159L114 160L113 159z"/>
<path style="fill:#71623d; stroke:none;" d="M114 159L115 160L114 159M134 159L135 160L134 159M69 160L70 161L69 160M91.6667 160.333L92.3333 160.667L91.6667 160.333z"/>
<path style="fill:#a68f57; stroke:none;" d="M93 160L94 161L93 160z"/>
<path style="fill:#ffd15d; stroke:none;" d="M94.6667 160.333L95.3333 160.667L94.6667 160.333M106 160L107 161L106 160z"/>
<path style="fill:#a68f57; stroke:none;" d="M107.667 160.333L108.333 160.667L107.667 160.333z"/>
<path style="fill:#71623d; stroke:none;" d="M109 160L110 161L109 160M132 160L133 161L132 160z"/>
<path style="fill:#a68f57; stroke:none;" d="M70 161L71 162L70 161z"/>
<path style="fill:#71623d; stroke:none;" d="M130 161L131 162L130 161z"/>
<path style="fill:#a68f57; stroke:none;" d="M131 161L132 162L131 161M72 162L73 163L72 162z"/>
<path style="fill:#71623d; stroke:none;" d="M128 162L129 163L128 162z"/>
<path style="fill:#a68f57; stroke:none;" d="M129 162L130 163L129 162M74 163L75 164L74 163z"/>
<path style="fill:#71623d; stroke:none;" d="M75 163L76 164L75 163M126 163L127 164L126 163z"/>
<path style="fill:#a68f57; stroke:none;" d="M127 163L128 164L127 163z"/>
<path style="fill:#71623d; stroke:none;" d="M77 164L78 165L77 164M124 164L125 165L124 164z"/>
<path style="fill:#a68f57; stroke:none;" d="M79 165L80 166L79 165z"/>
<path style="fill:#71623d; stroke:none;" d="M80 165L81 166L80 165M121 165L122 166L121 165z"/>
<path style="fill:#a68f57; stroke:none;" d="M122 165L123 166L122 165M82 166L83 167L82 166z"/>
<path style="fill:#71623d; stroke:none;" d="M83 166L84 167L83 166M118 166L119 167L118 166z"/>
<path style="fill:#a68f57; stroke:none;" d="M119 166L120 167L119 166M85 167L86 168L85 167z"/>
<path style="fill:#71623d; stroke:none;" d="M86.6667 167.333L87.3333 167.667L86.6667 167.333M114 167L115 168L114 167z"/>
<path style="fill:#a68f57; stroke:none;" d="M115 167L116 168L115 167M90 168L91 169L90 168z"/>
<path style="fill:#71623d; stroke:none;" d="M91 168L91 169L94 169L91 168M108.667 168.333L109.333 168.667L108.667 168.333z"/>
<path style="fill:#a68f57; stroke:none;" d="M110.667 168.333L111.333 168.667L110.667 168.333z"/>
</svg>
