<svg width="45" height="45" viewBox="0 0 45 45" fill="none" xmlns="http://www.w3.org/2000/svg">
<circle cx="22.5" cy="22.5" r="22.5" fill="#F8F8F8"/>
<path d="M22.4999 34.7998C23.4664 34.7998 24.2499 34.0163 24.2499 33.0498C24.2499 32.0833 23.4664 31.2998 22.4999 31.2998C21.5334 31.2998 20.7499 32.0833 20.7499 33.0498C20.7499 34.0163 21.5334 34.7998 22.4999 34.7998Z" fill="#2261F6"/>
<path d="M22.4999 14.5C23.4664 14.5 24.2499 13.7165 24.2499 12.75C24.2499 11.7835 23.4664 11 22.4999 11C21.5334 11 20.7499 11.7835 20.7499 12.75C20.7499 13.7165 21.5334 14.5 22.4999 14.5Z" fill="#2261F6"/>
<path d="M22.4999 19.2834C23.2731 19.2834 23.8999 18.6566 23.8999 17.8834C23.8999 17.1102 23.2731 16.4834 22.4999 16.4834C21.7267 16.4834 21.0999 17.1102 21.0999 17.8834C21.0999 18.6566 21.7267 19.2834 22.4999 19.2834Z" fill="#2261F6"/>
<path d="M17.6 16.717C18.3732 16.717 19 16.0902 19 15.317C19 14.5438 18.3732 13.917 17.6 13.917C16.8268 13.917 16.2 14.5438 16.2 15.317C16.2 16.0902 16.8268 16.717 17.6 16.717Z" fill="#2261F6"/>
<path d="M17.6 32.0002C18.3732 32.0002 19 31.3734 19 30.6002C19 29.827 18.3732 29.2002 17.6 29.2002C16.8268 29.2002 16.2 29.827 16.2 30.6002C16.2 31.3734 16.8268 32.0002 17.6 32.0002Z" fill="#2261F6"/>
<path d="M26.8749 21.9084C27.6481 21.9084 28.2749 21.2816 28.2749 20.5084C28.2749 19.7352 27.6481 19.1084 26.8749 19.1084C26.1017 19.1084 25.4749 19.7352 25.4749 20.5084C25.4749 21.2816 26.1017 21.9084 26.8749 21.9084Z" fill="#2261F6"/>
<path d="M26.8749 26.7502C27.6481 26.7502 28.2749 26.1234 28.2749 25.3502C28.2749 24.577 27.6481 23.9502 26.8749 23.9502C26.1017 23.9502 25.4749 24.577 25.4749 25.3502C25.4749 26.1234 26.1017 26.7502 26.8749 26.7502Z" fill="#2261F6"/>
<path d="M22.4999 29.3166C23.2731 29.3166 23.8999 28.6898 23.8999 27.9166C23.8999 27.1434 23.2731 26.5166 22.4999 26.5166C21.7267 26.5166 21.0999 27.1434 21.0999 27.9166C21.0999 28.6898 21.7267 29.3166 22.4999 29.3166Z" fill="#2261F6"/>
<path d="M22.5002 24.0077C23.1123 24.0077 23.6085 23.5115 23.6085 22.8993C23.6085 22.2872 23.1123 21.791 22.5002 21.791C21.8881 21.791 21.3918 22.2872 21.3918 22.8993C21.3918 23.5115 21.8881 24.0077 22.5002 24.0077Z" fill="#2261F6"/>
<path d="M17.6 26.5165C18.2121 26.5165 18.7084 26.0203 18.7084 25.4081C18.7084 24.796 18.2121 24.2998 17.6 24.2998C16.9879 24.2998 16.4917 24.796 16.4917 25.4081C16.4917 26.0203 16.9879 26.5165 17.6 26.5165Z" fill="#2261F6"/>
<path d="M17.6 21.6171C18.2121 21.6171 18.7084 21.1208 18.7084 20.5087C18.7084 19.8966 18.2121 19.4004 17.6 19.4004C16.9879 19.4004 16.4917 19.8966 16.4917 20.5087C16.4917 21.1208 16.9879 21.6171 17.6 21.6171Z" fill="#2261F6"/>
<path d="M12.8167 18.6997C13.2677 18.6997 13.6333 18.3341 13.6333 17.8831C13.6333 17.432 13.2677 17.0664 12.8167 17.0664C12.3656 17.0664 12 17.432 12 17.8831C12 18.3341 12.3656 18.6997 12.8167 18.6997Z" fill="#2261F6"/>
<path d="M12.8167 23.7163C13.2677 23.7163 13.6333 23.3507 13.6333 22.8997C13.6333 22.4486 13.2677 22.083 12.8167 22.083C12.3656 22.083 12 22.4486 12 22.8997C12 23.3507 12.3656 23.7163 12.8167 23.7163Z" fill="#2261F6"/>
<path d="M12.8167 28.7329C13.2677 28.7329 13.6333 28.3673 13.6333 27.9163C13.6333 27.4652 13.2677 27.0996 12.8167 27.0996C12.3656 27.0996 12 27.4652 12 27.9163C12 28.3673 12.3656 28.7329 12.8167 28.7329Z" fill="#2261F6"/>
<path d="M26.875 17.0664C27.8415 17.0664 28.625 16.2829 28.625 15.3164C28.625 14.3499 27.8415 13.5664 26.875 13.5664C25.9085 13.5664 25.125 14.3499 25.125 15.3164C25.125 16.2829 25.9085 17.0664 26.875 17.0664Z" fill="#2261F6"/>
<path d="M26.875 32.292C27.8415 32.292 28.625 31.5085 28.625 30.542C28.625 29.5755 27.8415 28.792 26.875 28.792C25.9085 28.792 25.125 29.5755 25.125 30.542C25.125 31.5085 25.9085 32.292 26.875 32.292Z" fill="#2261F6"/>
<path d="M31.2501 19.6338C32.2166 19.6338 33.0001 18.8503 33.0001 17.8838C33.0001 16.9173 32.2166 16.1338 31.2501 16.1338C30.2836 16.1338 29.5001 16.9173 29.5001 17.8838C29.5001 18.8503 30.2836 19.6338 31.2501 19.6338Z" fill="#2261F6"/>
<path d="M31.2501 29.667C32.2166 29.667 33.0001 28.8835 33.0001 27.917C33.0001 26.9505 32.2166 26.167 31.2501 26.167C30.2836 26.167 29.5001 26.9505 29.5001 27.917C29.5001 28.8835 30.2836 29.667 31.2501 29.667Z" fill="#2261F6"/>
<path d="M31.2501 24.6494C32.2166 24.6494 33.0001 23.8659 33.0001 22.8994C33.0001 21.9329 32.2166 21.1494 31.2501 21.1494C30.2836 21.1494 29.5001 21.9329 29.5001 22.8994C29.5001 23.8659 30.2836 24.6494 31.2501 24.6494Z" fill="#2261F6"/>
</svg>
