<svg width="25" height="25" viewBox="0 0 25 25" fill="none" xmlns="http://www.w3.org/2000/svg">
<circle cx="12.5" cy="12.5" r="12.5" fill="#F8F8F8"/>
<path d="M12.5001 19.3331C13.037 19.3331 13.4723 18.8978 13.4723 18.3609C13.4723 17.824 13.037 17.3887 12.5001 17.3887C11.9631 17.3887 11.5278 17.824 11.5278 18.3609C11.5278 18.8978 11.9631 19.3331 12.5001 19.3331Z" fill="#2261F6"/>
<path d="M12.5001 8.05577C13.037 8.05577 13.4723 7.6205 13.4723 7.08355C13.4723 6.54661 13.037 6.11133 12.5001 6.11133C11.9631 6.11133 11.5278 6.54661 11.5278 7.08355C11.5278 7.6205 11.9631 8.05577 12.5001 8.05577Z" fill="#2261F6"/>
<path d="M12.4999 10.7128C12.9295 10.7128 13.2777 10.3646 13.2777 9.93501C13.2777 9.50545 12.9295 9.15723 12.4999 9.15723C12.0704 9.15723 11.7222 9.50545 11.7222 9.93501C11.7222 10.3646 12.0704 10.7128 12.4999 10.7128Z" fill="#2261F6"/>
<path d="M9.77778 9.287C10.2073 9.287 10.5556 8.93878 10.5556 8.50923C10.5556 8.07967 10.2073 7.73145 9.77778 7.73145C9.34822 7.73145 9 8.07967 9 8.50923C9 8.93878 9.34822 9.287 9.77778 9.287Z" fill="#2261F6"/>
<path d="M9.77778 17.7782C10.2073 17.7782 10.5556 17.43 10.5556 17.0004C10.5556 16.5709 10.2073 16.2227 9.77778 16.2227C9.34822 16.2227 9 16.5709 9 17.0004C9 17.43 9.34822 17.7782 9.77778 17.7782Z" fill="#2261F6"/>
<path d="M14.9304 12.1718C15.3599 12.1718 15.7081 11.8235 15.7081 11.394C15.7081 10.9644 15.3599 10.6162 14.9304 10.6162C14.5008 10.6162 14.1526 10.9644 14.1526 11.394C14.1526 11.8235 14.5008 12.1718 14.9304 12.1718Z" fill="#2261F6"/>
<path d="M14.9304 14.8612C15.3599 14.8612 15.7081 14.513 15.7081 14.0834C15.7081 13.6539 15.3599 13.3057 14.9304 13.3057C14.5008 13.3057 14.1526 13.6539 14.1526 14.0834C14.1526 14.513 14.5008 14.8612 14.9304 14.8612Z" fill="#2261F6"/>
<path d="M12.4999 16.287C12.9295 16.287 13.2777 15.9388 13.2777 15.5092C13.2777 15.0797 12.9295 14.7314 12.4999 14.7314C12.0704 14.7314 11.7222 15.0797 11.7222 15.5092C11.7222 15.9388 12.0704 16.287 12.4999 16.287Z" fill="#2261F6"/>
<path d="M12.5 13.3379C12.8401 13.3379 13.1158 13.0623 13.1158 12.7222C13.1158 12.3821 12.8401 12.1064 12.5 12.1064C12.16 12.1064 11.8843 12.3821 11.8843 12.7222C11.8843 13.0623 12.16 13.3379 12.5 13.3379Z" fill="#2261F6"/>
<path d="M9.77785 14.7315C10.1179 14.7315 10.3936 14.4558 10.3936 14.1157C10.3936 13.7757 10.1179 13.5 9.77785 13.5C9.43779 13.5 9.16211 13.7757 9.16211 14.1157C9.16211 14.4558 9.43779 14.7315 9.77785 14.7315Z" fill="#2261F6"/>
<path d="M9.77785 12.0098C10.1179 12.0098 10.3936 11.7341 10.3936 11.3941C10.3936 11.054 10.1179 10.7783 9.77785 10.7783C9.43779 10.7783 9.16211 11.054 9.16211 11.3941C9.16211 11.7341 9.43779 12.0098 9.77785 12.0098Z" fill="#2261F6"/>
<path d="M7.12045 10.3889C7.37103 10.3889 7.57416 10.1857 7.57416 9.93515C7.57416 9.68458 7.37103 9.48145 7.12045 9.48145C6.86988 9.48145 6.66675 9.68458 6.66675 9.93515C6.66675 10.1857 6.86988 10.3889 7.12045 10.3889Z" fill="#2261F6"/>
<path d="M7.12045 13.176C7.37103 13.176 7.57416 12.9728 7.57416 12.7223C7.57416 12.4717 7.37103 12.2686 7.12045 12.2686C6.86988 12.2686 6.66675 12.4717 6.66675 12.7223C6.66675 12.9728 6.86988 13.176 7.12045 13.176Z" fill="#2261F6"/>
<path d="M7.12045 15.9631C7.37103 15.9631 7.57416 15.7599 7.57416 15.5094C7.57416 15.2588 7.37103 15.0557 7.12045 15.0557C6.86988 15.0557 6.66675 15.2588 6.66675 15.5094C6.66675 15.7599 6.86988 15.9631 7.12045 15.9631Z" fill="#2261F6"/>
<path d="M14.9305 9.48156C15.4674 9.48156 15.9027 9.04628 15.9027 8.50933C15.9027 7.97239 15.4674 7.53711 14.9305 7.53711C14.3935 7.53711 13.9583 7.97239 13.9583 8.50933C13.9583 9.04628 14.3935 9.48156 14.9305 9.48156Z" fill="#2261F6"/>
<path d="M14.9305 17.9405C15.4674 17.9405 15.9027 17.5053 15.9027 16.9683C15.9027 16.4314 15.4674 15.9961 14.9305 15.9961C14.3935 15.9961 13.9583 16.4314 13.9583 16.9683C13.9583 17.5053 14.3935 17.9405 14.9305 17.9405Z" fill="#2261F6"/>
<path d="M17.3611 10.9073C17.8981 10.9073 18.3334 10.4721 18.3334 9.93511C18.3334 9.39817 17.8981 8.96289 17.3611 8.96289C16.8242 8.96289 16.3889 9.39817 16.3889 9.93511C16.3889 10.4721 16.8242 10.9073 17.3611 10.9073Z" fill="#2261F6"/>
<path d="M17.3611 16.4816C17.8981 16.4816 18.3334 16.0463 18.3334 15.5093C18.3334 14.9724 17.8981 14.5371 17.3611 14.5371C16.8242 14.5371 16.3889 14.9724 16.3889 15.5093C16.3889 16.0463 16.8242 16.4816 17.3611 16.4816Z" fill="#2261F6"/>
<path d="M17.3611 13.6944C17.8981 13.6944 18.3334 13.2592 18.3334 12.7222C18.3334 12.1853 17.8981 11.75 17.3611 11.75C16.8242 11.75 16.3889 12.1853 16.3889 12.7222C16.3889 13.2592 16.8242 13.6944 17.3611 13.6944Z" fill="#2261F6"/>
</svg>
