<svg width="45" height="45" viewBox="0 0 45 45" fill="none" xmlns="http://www.w3.org/2000/svg">
    <circle cx="22.5" cy="22.5" r="22.5" fill="#000"/>
    <path fill-rule="evenodd" clip-rule="evenodd" d="M34.327 22.747h-2.834C31.493 16.81 26.682 12 20.747 12h-.471C14.6 12 10 16.6 10 22.276c0 6.394 5.252 11.542 11.645 11.414l.512-.01a15.758 15.758 0 0 0 13.652-8.485c.579-1.114-.227-2.448-1.482-2.448zm-15.902-2.02a1.505 1.505 0 0 1 3.01 0v2.149a1.505 1.505 0 1 1-3.01 0v-2.15zm-3.524-1.505c-.831 0-1.505.673-1.505 1.504v2.15a1.505 1.505 0 0 0 3.01 0v-2.15c0-.83-.674-1.504-1.505-1.504z" fill="url(#a)"/>
    <defs>
        <linearGradient id="a" x1="21.606" y1="13.72" x2="23" y2="33.693" gradientUnits="userSpaceOnUse">
            <stop stop-color="#fff"/>
            <stop offset="1" stop-color="#E1D6FD"/>
        </linearGradient>
    </defs>
</svg>
