<svg width="25" height="25" viewBox="0 0 25 25" fill="none" xmlns="http://www.w3.org/2000/svg">
<circle cx="12.5" cy="12.5" r="12.5" fill="black"/>
<path d="M13.1408 7.46246C13.1408 7.46246 11.4183 7.47091 10.4858 7.48688L10.7421 6.66699L7.22217 9.13605L9.58698 11.6436L9.80486 10.9524C9.84431 10.7918 9.97297 10.6819 10.1336 10.6819L12.5341 10.6885C12.6956 10.6885 12.8355 10.5767 12.8703 10.4189L13.0394 9.6554L15.4051 12.1592L11.8832 14.617L11.8851 14.6104L12.2777 13.4036H12.2767H9.95043C9.39445 13.4036 8.90233 13.7614 8.73046 14.2902L7.23626 18.8892H10.4942L11.0812 17.0823C11.13 16.933 11.269 16.8315 11.4259 16.8315H13.1408C15.7282 16.8315 17.8253 14.7344 17.8253 12.147C17.8253 9.55961 15.7282 7.46246 13.1408 7.46246Z" fill="url(#paint0_linear_223:543)"/>
<defs>
<linearGradient id="paint0_linear_223:543" x1="12.5238" y1="6.66699" x2="12.5238" y2="18.8892" gradientUnits="userSpaceOnUse">
<stop stop-color="#826DF9"/>
<stop offset="0.2826" stop-color="#7F6DF9"/>
<stop offset="0.5233" stop-color="#746FFA"/>
<stop offset="0.7488" stop-color="#6371FC"/>
<stop offset="0.9637" stop-color="#4A74FF"/>
<stop offset="1" stop-color="#4575FF"/>
</linearGradient>
</defs>
</svg>
