<svg width="40" height="40" viewBox="0 0 40 40" fill="none" xmlns="http://www.w3.org/2000/svg">
    <path d="M20 40c11.046 0 20-8.954 20-20S31.046 0 20 0 0 8.954 0 20s8.954 20 20 20z" fill="#282A3D"/>
    <path d="M26.428 27.555h-2.074c-3.668-6.308.18.237-3.457-6.027 3.517-6.058-.601 1.034 2.87-4.964.391.635.707 1.167 1.038 1.713-3.142 5.408 1.262-2.186-1.894 3.265 3.667 6.265-.196-.369 3.517 6.013zM21.918 13.328c.406.709.692 1.197 1.022 1.758-3.667 6.338.18-.31-3.517 6.043h-5.786c.346-.606.631-1.123.962-1.7h3.788c3.652-6.338-.21.34 3.531-6.101zM19.8 22.65c3.457 5.91-.646-1.107 2.856 4.876h-2.06c-3.11-5.319 1.293 2.216-1.848-3.176H11.73c.361-.636.647-1.153.962-1.7h7.11z" fill="#fff"/>
    <path d="M16.87 27.556h-6.102a.542.542 0 0 1-.48-.798l.51-.916h7.124c2.81 4.801-1.909-3.265 1.007 1.699-.797.015-1.413.015-2.059.015zM26.714 21.498c3.456 5.94.075.222 2.99 5.245.211.354-.06.798-.465.798h-1.067c-3.698-6.235.15.384-3.563-5.94 2.826-4.875-1.848 3.206 1.068-1.832.39.665.706 1.197 1.037 1.729zM16.494 16.194c3.502-6.028.12-.207 3.051-5.26a.547.547 0 0 1 .932-.014l.586.93c-3.682 6.353.15-.28-3.517 6.058h-2.044c.376-.635.677-1.152.992-1.714z" fill="#fff"/>
</svg>
