<svg width="45" height="45" viewBox="0 0 45 45" fill="none" xmlns="http://www.w3.org/2000/svg">
<circle cx="22.5" cy="22.5" r="22.5" fill="black"/>
<path d="M29.0153 27.3097C28.4646 27.3097 28.0229 26.8629 28.0229 26.3174V20.2072C28.0229 19.6565 28.4698 19.2148 29.0153 19.2148C29.5609 19.2148 30.0077 19.6617 30.0077 20.2072V26.3174C30.0129 26.8681 29.5661 27.3097 29.0153 27.3097Z" fill="url(#paint0_linear_218:1103)"/>
<path d="M23.0038 27.2107C19.1434 27.2107 16 24.0673 16 20.2069C16 16.3465 19.1434 13.2031 23.0038 13.2031C26.8642 13.2031 30.0076 16.3465 30.0076 20.2069C30.0076 24.0725 26.8694 27.2107 23.0038 27.2107ZM23.0038 15.1931C20.2397 15.1931 17.9899 17.4428 17.9899 20.2069C17.9899 22.971 20.2397 25.2208 23.0038 25.2208C25.7679 25.2208 28.0176 22.971 28.0176 20.2069C28.0228 17.4428 25.7731 15.1931 23.0038 15.1931Z" fill="#3BA7DB"/>
<path d="M29.5349 11.9304C30.3441 11.9304 31.0001 11.2744 31.0001 10.4652C31.0001 9.65599 30.3441 9 29.5349 9C28.7257 9 28.0697 9.65599 28.0697 10.4652C28.0697 11.2744 28.7257 11.9304 29.5349 11.9304Z" fill="#05FFFF"/>
<path d="M16.9977 34.2613C16.447 34.2613 16.0054 33.8144 16.0054 33.2689V20.2069C16.0054 16.3465 19.1488 13.2031 23.0092 13.2031C25.7837 13.2031 28.3036 14.845 29.4206 17.3857C29.6441 17.8896 29.4154 18.4767 28.9115 18.695C28.4075 18.9184 27.8204 18.6898 27.6021 18.1858C26.802 16.3673 24.9991 15.1879 23.0092 15.1879C20.2451 15.1879 17.9953 17.4376 17.9953 20.2017V33.2585C17.9901 33.8144 17.5485 34.2613 16.9977 34.2613Z" fill="url(#paint1_linear_218:1103)"/>
<path d="M23.0039 27.2109C21.7829 27.2109 20.5827 26.894 19.528 26.2861C18.5044 25.699 17.6419 24.8625 17.0288 23.8545C16.7431 23.3869 16.8885 22.7738 17.3562 22.4881C17.8238 22.2023 18.4369 22.3478 18.7226 22.8154C19.6423 24.3169 21.2425 25.2158 23.0039 25.2158C25.768 25.2158 28.0177 22.9661 28.0177 20.202C28.0177 19.5005 27.8774 18.8199 27.5969 18.186C27.3734 17.682 27.6021 17.0949 28.106 16.8767C28.61 16.6533 29.1971 16.8819 29.4154 17.3859C29.805 18.2744 30.0077 19.2252 30.0077 20.2071C30.0077 24.0727 26.8695 27.2109 23.0039 27.2109Z" fill="url(#paint2_linear_218:1103)"/>
<defs>
<linearGradient id="paint0_linear_218:1103" x1="29.0175" y1="27.3115" x2="29.0175" y2="19.2145" gradientUnits="userSpaceOnUse">
<stop stop-color="#0DF7FB"/>
<stop offset="0.9976" stop-color="#14D9EA"/>
</linearGradient>
<linearGradient id="paint1_linear_218:1103" x1="22.7529" y1="34.2601" x2="22.7529" y2="13.2053" gradientUnits="userSpaceOnUse">
<stop stop-color="#861DAF"/>
<stop offset="0.4943" stop-color="#4C8AD0"/>
<stop offset="0.8108" stop-color="#11F6FB"/>
<stop offset="1" stop-color="#0CFFFF"/>
</linearGradient>
<linearGradient id="paint2_linear_218:1103" x1="23.4459" y1="27.2121" x2="23.4459" y2="16.7954" gradientUnits="userSpaceOnUse">
<stop stop-color="#22D2EF"/>
<stop offset="1" stop-color="#10F7FC"/>
</linearGradient>
</defs>
</svg>
