<svg width="25" height="25" viewBox="0 0 25 25" fill="none" xmlns="http://www.w3.org/2000/svg">
<circle cx="12.5" cy="12.5" r="12.5" fill="black"/>
<path d="M16.1197 15.172C15.8137 15.172 15.5684 14.9237 15.5684 14.6206V11.2261C15.5684 10.9202 15.8166 10.6748 16.1197 10.6748C16.4228 10.6748 16.671 10.923 16.671 11.2261V14.6206C16.6739 14.9266 16.4256 15.172 16.1197 15.172Z" fill="url(#paint0_linear_223:534)"/>
<path d="M12.7799 15.1169C10.6352 15.1169 8.88892 13.3706 8.88892 11.226C8.88892 9.08129 10.6352 7.33496 12.7799 7.33496C14.9246 7.33496 16.6709 9.08129 16.6709 11.226C16.6709 13.3735 14.9275 15.1169 12.7799 15.1169ZM12.7799 8.44049C11.2443 8.44049 9.99444 9.69034 9.99444 11.226C9.99444 12.7616 11.2443 14.0114 12.7799 14.0114C14.3155 14.0114 15.5654 12.7616 15.5654 11.226C15.5683 9.69034 14.3184 8.44049 12.7799 8.44049Z" fill="#3BA7DB"/>
<path d="M16.4084 6.62798C16.8579 6.62798 17.2223 6.26355 17.2223 5.81399C17.2223 5.36444 16.8579 5 16.4084 5C15.9588 5 15.5944 5.36444 15.5944 5.81399C15.5944 6.26355 15.9588 6.62798 16.4084 6.62798Z" fill="#05FFFF"/>
<path d="M9.44317 19.0339C9.1372 19.0339 8.89185 18.7857 8.89185 18.4826V11.226C8.89185 9.08129 10.6382 7.33496 12.7828 7.33496C14.3242 7.33496 15.7242 8.24709 16.3448 9.65859C16.4689 9.93858 16.3419 10.2648 16.0619 10.386C15.7819 10.5101 15.4557 10.3831 15.3345 10.1031C14.89 9.09284 13.8884 8.4376 12.7828 8.4376C11.2472 8.4376 9.99737 9.68745 9.99737 11.2231V18.4768C9.99449 18.7857 9.74913 19.0339 9.44317 19.0339Z" fill="url(#paint1_linear_223:534)"/>
<path d="M12.7799 15.117C12.1015 15.117 11.4348 14.9409 10.8488 14.6032C10.2802 14.277 9.80101 13.8123 9.46041 13.2523C9.30165 12.9925 9.38247 12.6519 9.64226 12.4931C9.90204 12.3344 10.2426 12.4152 10.4014 12.675C10.9123 13.5092 11.8014 14.0086 12.7799 14.0086C14.3155 14.0086 15.5653 12.7587 15.5653 11.2231C15.5653 10.8334 15.4874 10.4553 15.3315 10.1031C15.2074 9.82314 15.3344 9.49697 15.6144 9.37573C15.8944 9.25162 16.2206 9.37862 16.3418 9.65861C16.5583 10.1522 16.6709 10.6804 16.6709 11.226C16.6709 13.3735 14.9274 15.117 12.7799 15.117Z" fill="url(#paint2_linear_223:534)"/>
<defs>
<linearGradient id="paint0_linear_223:534" x1="16.1209" y1="15.1729" x2="16.1209" y2="10.6746" gradientUnits="userSpaceOnUse">
<stop stop-color="#0DF7FB"/>
<stop offset="0.9976" stop-color="#14D9EA"/>
</linearGradient>
<linearGradient id="paint1_linear_223:534" x1="12.6405" y1="19.0333" x2="12.6405" y2="7.33617" gradientUnits="userSpaceOnUse">
<stop stop-color="#861DAF"/>
<stop offset="0.4943" stop-color="#4C8AD0"/>
<stop offset="0.8108" stop-color="#11F6FB"/>
<stop offset="1" stop-color="#0CFFFF"/>
</linearGradient>
<linearGradient id="paint2_linear_223:534" x1="13.0254" y1="15.1176" x2="13.0254" y2="9.33057" gradientUnits="userSpaceOnUse">
<stop stop-color="#22D2EF"/>
<stop offset="1" stop-color="#10F7FC"/>
</linearGradient>
</defs>
</svg>
