<svg width="25" height="25" viewBox="0 0 25 25" fill="none" xmlns="http://www.w3.org/2000/svg">
<circle cx="12.5" cy="12.5" r="12.5" fill="#0E0E0E"/>
<path d="M13.5501 8.0677L14.0561 6.21906C14.1923 5.69366 13.881 5.16826 13.3556 5.03205C12.8302 4.89583 12.3048 5.20718 12.1685 5.71312L11.6626 7.56175C12.3242 7.54229 12.9858 7.71743 13.5501 8.0677Z" fill="#0CF2A8"/>
<path d="M11.468 17.2139L10.962 19.0625C10.8258 19.5879 11.1177 20.1133 11.6431 20.269C12.1685 20.4052 12.6939 20.1133 12.8496 19.5879V19.5684L13.3555 17.7198C12.6939 17.7198 12.0323 17.5447 11.468 17.2139Z" fill="#649ACD"/>
<path d="M16.177 12.2782C15.9629 11.9085 15.671 11.5972 15.3208 11.3442L14.6786 14.2826C14.5424 15.022 13.8224 15.5085 13.0829 15.3528C12.3435 15.1971 11.857 14.4966 12.0127 13.7571C12.0127 13.7571 12.0127 13.7571 12.0127 13.7377L12.6159 11.4999C12.7521 10.9745 12.4408 10.4491 11.9348 10.2934H11.9154C11.39 10.1572 10.8646 10.488 10.7284 11.0134L10.0278 14.1269C10.1057 15.956 11.6624 17.3766 13.4916 17.2987C15.3208 17.2209 16.7413 15.6642 16.6634 13.835C16.644 13.3096 16.4883 12.7647 16.177 12.2782Z" fill="#0CF2A8"/>
<path d="M10.3198 11.006C10.4561 10.2665 11.1566 9.7606 11.896 9.89681C12.6355 10.033 13.1414 10.7336 13.0052 11.473C13.0052 11.4925 13.0052 11.4925 13.0052 11.5119L12.402 13.7498C12.2658 14.2752 12.5771 14.8006 13.0831 14.9562C13.0831 14.9562 13.0831 14.9562 13.1025 14.9562C13.6279 15.0924 14.1533 14.7616 14.2895 14.2362L14.9706 11.1227C14.8928 9.29357 13.3555 7.87305 11.5263 7.93142C9.69714 7.9898 8.27661 9.54655 8.33499 11.3757C8.37391 12.3681 8.86039 13.3022 9.65822 13.9054L10.3198 11.006Z" fill="#649ACD"/>
</svg>
