<svg width="45" height="45" viewBox="0 0 45 45" fill="none" xmlns="http://www.w3.org/2000/svg">
<circle cx="22.5" cy="22.5" r="22.5" fill="#0E0E0E"/>
<path d="M24.3903 14.5219L25.301 11.1943C25.5461 10.2486 24.9857 9.30287 24.04 9.05768C23.0943 8.8125 22.1486 9.37293 21.9034 10.2836L20.9927 13.6112C22.1836 13.5761 23.3745 13.8914 24.3903 14.5219Z" fill="#0CF2A8"/>
<path d="M20.6423 30.9844L19.7316 34.3119C19.4864 35.2576 20.0118 36.2034 20.9576 36.4836C21.9033 36.7288 22.849 36.2034 23.1292 35.2576V35.2226L24.0399 31.8951C22.849 31.8951 21.6581 31.5798 20.6423 30.9844Z" fill="#649ACD"/>
<path d="M29.1187 22.0997C28.7334 21.4342 28.208 20.8737 27.5776 20.4184L26.4217 25.7074C26.1765 27.0384 24.8805 27.9141 23.5495 27.6339C22.2185 27.3537 21.3428 26.0927 21.623 24.7617C21.623 24.7617 21.623 24.7617 21.623 24.7267L22.7088 20.6986C22.954 19.7529 22.3936 18.8072 21.4829 18.5269H21.4479C20.5022 18.2818 19.5564 18.8772 19.3113 19.8229L18.0503 25.4272C18.1904 28.7197 20.9925 31.2767 24.285 31.1366C27.5776 30.9965 30.1345 28.1943 29.9944 24.9018C29.9594 23.9561 29.6792 22.9753 29.1187 22.0997Z" fill="#0CF2A8"/>
<path d="M18.5759 19.8108C18.821 18.4798 20.082 17.5691 21.413 17.8143C22.744 18.0594 23.6547 19.3204 23.4095 20.6514C23.4095 20.6865 23.4095 20.6865 23.4095 20.7215L22.3237 24.7496C22.0785 25.6953 22.639 26.641 23.5496 26.9212C23.5496 26.9212 23.5496 26.9212 23.5847 26.9212C24.5304 27.1664 25.4761 26.5709 25.7213 25.6252L26.9472 20.0209C26.8071 16.7284 24.04 14.1715 20.7475 14.2766C17.455 14.3816 14.898 17.1838 15.0031 20.4763C15.0732 22.2627 15.9488 23.9439 17.3849 25.0298L18.5759 19.8108Z" fill="#649ACD"/>
</svg>
