<svg width="45" height="45" fill="none" xmlns="http://www.w3.org/2000/svg">
    <circle cx="22.5" cy="22.5" r="22.5" fill="#0E0E0E"/>
    <path d="m24.39 14.522.911-3.328a1.744 1.744 0 0 0-1.261-2.136 1.75 1.75 0 0 0-2.137 1.226l-.91 3.327a6.122 6.122 0 0 1 3.397.91z" fill="#0CF2A8"/>
    <path d="m20.642 30.984-.91 3.328a1.775 1.775 0 0 0 1.226 2.172 1.775 1.775 0 0 0 2.171-1.226v-.035l.91-3.328a6.764 6.764 0 0 1-3.397-.91z" fill="#649ACD"/>
    <path d="M29.119 22.1a5.432 5.432 0 0 0-1.541-1.681l-1.156 5.289a2.416 2.416 0 0 1-2.873 1.926c-1.33-.28-2.206-1.54-1.926-2.872v-.035l1.086-4.028a1.804 1.804 0 0 0-1.226-2.172h-.035c-.946-.245-1.892.35-2.137 1.296l-1.26 5.605c.14 3.292 2.942 5.85 6.234 5.709 3.293-.14 5.85-2.942 5.71-6.235a5.594 5.594 0 0 0-.876-2.802z" fill="#0CF2A8"/>
    <path d="M18.576 19.811c.245-1.331 1.506-2.242 2.837-1.997 1.331.246 2.242 1.507 1.997 2.838v.07l-1.086 4.028a1.804 1.804 0 0 0 1.226 2.172h.035c.945.245 1.891-.35 2.136-1.297l1.226-5.604a6.007 6.007 0 0 0-6.2-5.744c-3.292.105-5.849 2.907-5.744 6.2a6.022 6.022 0 0 0 2.382 4.553l1.19-5.219z" fill="#649ACD"/>
</svg>
