<svg width="25" height="25" viewBox="0 0 25 25" fill="none" xmlns="http://www.w3.org/2000/svg">
<circle cx="12.5" cy="12.5" r="12.5" fill="url(#paint0_linear_223:569)"/>
<path d="M7.10735 9.32401L7.42373 9.48221C7.42373 9.48221 7.83747 7.72769 8.2938 6.67428C8.57128 6.03373 8.9354 5.57011 9.21473 5.27697C9.45007 5.02999 9.82415 5.03122 10.0806 5.25624C10.387 5.52519 10.77 5.90237 10.9435 6.23925C11.1762 6.69089 11.3786 7.18841 11.3786 7.18841C11.3786 7.18841 11.5307 7.19145 11.6158 7.22796C11.6962 7.26237 11.774 7.3466 11.774 7.3466C11.774 7.3466 12.1799 7.18081 12.4859 7.14886C12.7946 7.11663 13.2768 7.22796 13.2768 7.22796C13.2768 7.22796 13.5842 6.47605 13.8701 6.00196C14.0322 5.73328 14.2843 5.39753 14.4819 5.14534C14.6344 4.95096 14.9242 4.95185 15.0765 5.14621C15.4666 5.64352 16.1416 6.54378 16.4803 7.22796C16.9226 8.12158 17.3503 9.5613 17.3503 9.5613L17.7063 9.28447C17.7063 9.28447 17.8236 9.65212 17.6272 10.115C17.5267 10.3516 17.2861 10.724 17.2134 10.8344C17.2687 10.7538 17.4276 10.5404 17.6272 10.4314C17.8507 10.3092 18.1017 10.4709 18.1017 10.4709C18.1017 10.4709 17.8519 10.6345 17.7458 10.7873C17.605 10.9901 17.6121 11.3609 17.6216 11.5117C17.6245 11.5553 17.6411 11.596 17.6674 11.6309C17.8575 11.8822 18.6654 12.9833 18.8927 13.8325C19.1083 14.6383 18.9323 15.889 18.9323 15.889L18.4972 14.8608C18.4972 14.8608 18.8182 15.6858 18.2995 16.6404C18.0561 17.0883 16.9249 18.0288 16.5198 18.4201C15.9527 18.9679 15.7684 19.8439 15.7684 19.8439C15.7684 19.8439 15.5991 19.5768 15.5311 19.3693C15.446 19.1092 15.5311 18.697 15.5311 18.697C15.5311 18.697 14.5473 20.1602 11.4181 20.1602C8.57063 20.1602 8.01696 18.5387 8.01696 18.5387C8.01696 18.5387 8.07344 18.7973 8.01696 18.9738C7.96604 19.1329 7.77967 19.3297 7.77967 19.3297C7.77967 19.3297 7.64861 18.6666 7.38419 18.2619C7.29849 18.1307 7.18584 17.9818 7.07128 17.8388C6.74251 17.4283 6.45005 16.982 6.32452 16.4714C6.25846 16.2027 6.20263 15.9047 6.19774 15.6518C6.18443 14.9624 6.55368 13.8721 6.55368 13.8721L6 14.5049C6 14.5049 6.0968 13.6066 6.31639 13.0811C6.4936 12.657 6.89965 12.1193 7.04999 11.9273C7.08721 11.8797 7.11116 11.8234 7.11607 11.7632C7.12725 11.6264 7.1414 11.3655 7.10735 11.1828C7.04529 10.8498 6.71187 10.5104 6.71187 10.5104C6.71187 10.5104 6.98915 10.406 7.1469 10.4709C7.28414 10.5274 7.4318 10.8049 7.45889 10.8577C7.42558 10.7915 7.21237 10.3602 7.1469 10.0359C7.07653 9.68735 7.10735 9.32401 7.10735 9.32401Z" fill="white"/>
<path d="M6 14.5049L6.55368 13.8721C6.55368 13.8721 6.18443 14.9624 6.19774 15.6518C6.20263 15.9048 6.25846 16.2027 6.32452 16.4714C6.45005 16.982 6.74251 17.4283 7.07128 17.8388C7.18584 17.9818 7.29849 18.1307 7.38419 18.2619C7.64861 18.6666 7.77967 19.3297 7.77967 19.3297C7.77967 19.3297 7.96604 19.1329 8.01696 18.9738C8.07344 18.7973 8.01696 18.5387 8.01696 18.5387C8.01696 18.5387 8.57063 20.1602 11.4181 20.1602C14.5473 20.1602 15.5311 18.697 15.5311 18.697C15.5311 18.697 15.446 19.1092 15.5311 19.3693C15.5991 19.5768 15.7684 19.8439 15.7684 19.8439C15.7684 19.8439 15.9527 18.9679 16.5198 18.4201C16.9249 18.0288 18.0561 17.0883 18.2995 16.6404C18.8182 15.6858 18.4972 14.8608 18.4972 14.8608L18.9323 15.889C18.9323 15.889 19.1083 14.6383 18.8927 13.8325C18.6654 12.9833 17.8575 11.8822 17.6674 11.6309C17.6411 11.596 17.6245 11.5553 17.6216 11.5117C17.6121 11.3609 17.605 10.9901 17.7458 10.7873C17.8519 10.6345 18.1017 10.4709 18.1017 10.4709C18.1017 10.4709 17.8507 10.3092 17.6272 10.4314C17.3781 10.5676 17.1921 10.8664 17.1921 10.8664C17.1921 10.8664 17.5081 10.3954 17.6272 10.115C17.8236 9.65212 17.7063 9.28447 17.7063 9.28447L17.3503 9.5613C17.3503 9.5613 16.9226 8.12158 16.4803 7.22796C16.1416 6.54378 15.4666 5.64352 15.0765 5.14621C14.9242 4.95185 14.6344 4.95096 14.4819 5.14534C14.2843 5.39753 14.0322 5.73328 13.8701 6.00196C13.5842 6.47605 13.2768 7.22796 13.2768 7.22796C13.2768 7.22796 12.7946 7.11663 12.4859 7.14886C12.1799 7.18081 11.774 7.3466 11.774 7.3466C11.774 7.3466 11.6962 7.26237 11.6158 7.22796C11.5307 7.19145 11.3786 7.18841 11.3786 7.18841C11.3786 7.18841 11.1762 6.69089 10.9435 6.23925C10.77 5.90237 10.387 5.52519 10.0806 5.25624C9.82415 5.03122 9.45007 5.02999 9.21473 5.27697C8.9354 5.57011 8.57128 6.03373 8.2938 6.67428C7.83747 7.72769 7.42373 9.48221 7.42373 9.48221L7.10735 9.32401C7.10735 9.32401 7.07653 9.68735 7.1469 10.0359C7.21799 10.388 7.46328 10.8664 7.46328 10.8664C7.46328 10.8664 7.29872 10.5334 7.1469 10.4709C6.98915 10.406 6.71187 10.5104 6.71187 10.5104C6.71187 10.5104 7.04529 10.8498 7.10735 11.1828C7.1414 11.3655 7.12725 11.6264 7.11607 11.7632C7.11116 11.8234 7.08721 11.8797 7.04999 11.9273C6.89965 12.1193 6.4936 12.657 6.31639 13.0811C6.0968 13.6066 6 14.5049 6 14.5049Z" stroke="black" stroke-width="0.15"/>
<path d="M12.9208 12.3622C13.2429 12.422 13.5396 12.2788 13.5834 12.0426C13.6271 11.8063 13.4015 11.5664 13.0794 11.5067C12.7572 11.447 12.4606 11.5901 12.4168 11.8263C12.373 12.0626 12.5987 12.3025 12.9208 12.3622Z" fill="black"/>
<path d="M12.9208 12.3622C13.2429 12.422 13.5396 12.2788 13.5834 12.0426C13.6271 11.8063 13.4015 11.5664 13.0794 11.5067C12.7572 11.447 12.4606 11.5901 12.4168 11.8263C12.373 12.0626 12.5987 12.3025 12.9208 12.3622Z" fill="black"/>
<path d="M12.9208 12.3622C13.2429 12.422 13.5396 12.2788 13.5834 12.0426C13.6271 11.8063 13.4015 11.5664 13.0794 11.5067C12.7572 11.447 12.4606 11.5901 12.4168 11.8263C12.373 12.0626 12.5987 12.3025 12.9208 12.3622Z" fill="#202020"/>
<path d="M9.44064 12.3691C9.72458 12.3691 9.95477 12.1743 9.95477 11.9341C9.95477 11.6938 9.72458 11.499 9.44064 11.499C9.15669 11.499 8.92651 11.6938 8.92651 11.9341C8.92651 12.1743 9.15669 12.3691 9.44064 12.3691Z" fill="black"/>
<path d="M9.44064 12.3691C9.72458 12.3691 9.95477 12.1743 9.95477 11.9341C9.95477 11.6938 9.72458 11.499 9.44064 11.499C9.15669 11.499 8.92651 11.6938 8.92651 11.9341C8.92651 12.1743 9.15669 12.3691 9.44064 12.3691Z" fill="black"/>
<path d="M9.44064 12.3691C9.72458 12.3691 9.95477 12.1743 9.95477 11.9341C9.95477 11.6938 9.72458 11.499 9.44064 11.499C9.15669 11.499 8.92651 11.6938 8.92651 11.9341C8.92651 12.1743 9.15669 12.3691 9.44064 12.3691Z" fill="black"/>
<path d="M9.22313 11.9341C9.34326 11.9341 9.44065 11.8367 9.44065 11.7165C9.44065 11.5964 9.34326 11.499 9.22313 11.499C9.103 11.499 9.00562 11.5964 9.00562 11.7165C9.00562 11.8367 9.103 11.9341 9.22313 11.9341Z" fill="white"/>
<path d="M13.2571 11.9341C13.3772 11.9341 13.4746 11.8367 13.4746 11.7165C13.4746 11.5964 13.3772 11.499 13.2571 11.499C13.1369 11.499 13.0396 11.5964 13.0396 11.7165C13.0396 11.8367 13.1369 11.9341 13.2571 11.9341Z" fill="white"/>
<path d="M9.65073 15.6893L9.44067 15.5727L9.73892 16.0896C9.9259 16.4137 10.2467 16.6385 10.6152 16.7035L11.3965 16.8414C11.8191 16.9159 12.2587 16.8442 12.6042 16.5897C12.8454 16.412 13.1105 16.1895 13.2769 15.9681C13.6938 15.4132 13.8305 14.4258 13.8305 14.4258C13.8305 14.4258 13.4322 15.1216 13.0791 15.454C12.9623 15.564 12.807 15.6795 12.6578 15.7812C12.3621 15.9829 11.9787 15.9808 11.6658 15.8069L10.7458 15.2958L9.94587 15.6957C9.85246 15.7425 9.74202 15.7401 9.65073 15.6893Z" fill="#35201F" stroke="black" stroke-width="0.15"/>
<path d="M10.0788 15.6518L10.7511 15.2959C10.7511 15.2959 11.5581 15.7938 11.9375 15.9286C12.1317 15.9976 12.2144 15.9682 12.2144 15.9682C12.2144 15.9682 11.9733 16.7934 12.0562 17.3128C12.0671 17.3809 12.0838 17.4538 12.1041 17.5283C12.2105 17.9181 11.9461 18.3411 11.5421 18.3411H10.9939C10.5121 18.3411 10.0682 18.0511 9.95903 17.5819C9.90142 17.3343 9.86134 17.0651 9.88107 16.8382C9.96017 15.9286 10.0788 15.6518 10.0788 15.6518Z" fill="#F78C92" stroke="black" stroke-width="0.15"/>
<path d="M10.7066 16.6904C10.6614 16.996 10.7066 17.4814 10.7066 17.4814C10.7066 17.4814 10.5806 17.0269 10.588 16.7299C10.5953 16.4302 10.6519 16.2632 10.7461 15.9785C10.8092 15.788 10.8648 15.7017 10.9834 15.583C11.038 15.5284 11.1208 15.5477 11.1021 15.6226C11.0625 15.7809 10.9396 15.9039 10.8648 16.0972C10.7782 16.3208 10.7417 16.4533 10.7066 16.6904Z" fill="black"/>
<path d="M11.6554 12.6465C11.6554 12.6465 11.1961 12.4396 10.8249 12.4485C10.5365 12.4555 10.3353 12.4858 10.0735 12.6069C9.80132 12.7329 9.64395 12.8215 9.4407 13.0419C9.22516 13.2758 9.14865 13.4926 9.04521 13.7934C8.97578 13.9952 8.9857 14.3795 9.00696 14.6719C9.02541 14.9258 9.12817 15.1643 9.28546 15.3646L9.48023 15.6125" stroke="black" stroke-width="0.15"/>
<path d="M13.6726 13.9907L13.198 13.4766L13.2621 13.6367C13.3244 13.7924 13.4136 13.9358 13.5258 14.0604L13.7122 14.2675L13.7517 14.4257L13.9099 14.4653C13.9099 14.4653 13.9586 14.6825 13.9495 14.8212C13.9413 14.9455 13.8703 15.1376 13.8703 15.1376C13.8703 15.1376 14.0681 14.9398 14.0681 14.7816C14.0681 14.6729 14.0567 14.5999 14.0446 14.5147C14.0327 14.4314 13.9982 14.3524 13.9418 14.2899L13.6726 13.9907Z" fill="#101010"/>
<mask id="mask0_223:569" style="mask-type:alpha" maskUnits="userSpaceOnUse" x="7" y="5" width="4" height="5">
<path d="M10.245 7.11533C10.2248 5.68997 9.67247 5.51678 9.29315 5.84133C9.26749 5.8633 9.24545 5.8884 9.2251 5.91537C9.10306 6.07706 8.64193 6.71527 8.32254 7.52967C8.05467 8.2127 7.88236 9.48959 7.83142 9.90476C7.82404 9.96497 7.88476 10.009 7.94043 9.9849L8.34549 9.80957C8.7051 9.65392 9.02995 9.3599 9.04102 8.96821C9.04142 8.95372 9.04144 8.93953 9.04104 8.92572C9.03549 8.73803 8.94531 8.45448 8.94531 8.45448C8.94531 8.45448 9.12841 8.50611 9.1856 8.52518C9.21044 8.53349 9.28444 8.51756 9.28772 8.49157C9.29779 8.41174 9.31386 8.31568 9.33833 8.24302C9.39551 8.0732 9.56217 7.84232 9.56217 7.84232C9.56217 7.84232 9.61955 7.97234 9.68368 8.03322C9.72623 8.07362 9.79844 8.10888 9.84513 8.12912C9.87129 8.14045 9.90124 8.13097 9.91756 8.1076C10.1217 7.81532 10.25 7.4718 10.245 7.11533Z" fill="#DEC0C0"/>
</mask>
<g mask="url(#mask0_223:569)">
<path d="M10.245 7.11533C10.2248 5.68997 9.67247 5.51678 9.29315 5.84133C9.26749 5.8633 9.24545 5.8884 9.2251 5.91537C9.10306 6.07706 8.64193 6.71527 8.32254 7.52967C8.05467 8.2127 7.88236 9.48959 7.83142 9.90476C7.82404 9.96497 7.88476 10.009 7.94043 9.9849L8.34549 9.80957C8.7051 9.65392 9.02995 9.3599 9.04102 8.96821C9.04142 8.95372 9.04144 8.93953 9.04104 8.92572C9.03549 8.73803 8.94531 8.45448 8.94531 8.45448C8.94531 8.45448 9.12841 8.50611 9.1856 8.52518C9.21044 8.53349 9.28444 8.51756 9.28772 8.49157C9.29779 8.41174 9.31386 8.31568 9.33833 8.24302C9.39551 8.0732 9.56217 7.84232 9.56217 7.84232C9.56217 7.84232 9.61955 7.97234 9.68368 8.03322C9.72623 8.07362 9.79844 8.10888 9.84513 8.12912C9.87129 8.14045 9.90124 8.13097 9.91756 8.1076C10.1217 7.81532 10.25 7.4718 10.245 7.11533Z" fill="#DEC0C0"/>
<path d="M9.0792 10.4885C9.70583 10.6801 10.5092 9.86925 10.8736 8.67743C11.238 7.4856 11.0254 6.36414 10.3987 6.17256C9.77211 5.98098 8.96874 6.79184 8.60436 7.98367C8.23999 9.17549 8.45258 10.297 9.0792 10.4885Z" fill="#D2B0AF"/>
</g>
<mask id="mask1_223:569" style="mask-type:alpha" maskUnits="userSpaceOnUse" x="14" y="5" width="3" height="5">
<path d="M14.1656 7.00591C14.184 5.57577 14.725 5.40125 15.0966 5.72571C15.1221 5.74793 15.1438 5.77326 15.1639 5.80045C15.2837 5.96265 15.7344 6.60056 16.0467 7.41444C16.3087 8.09705 16.4772 9.37281 16.5272 9.78877C16.5344 9.84917 16.4733 9.89297 16.4177 9.86835L16.0348 9.69897C15.6762 9.54037 15.3541 9.24379 15.3437 8.85204C15.3434 8.83786 15.3434 8.824 15.3437 8.81049C15.3492 8.62279 15.4374 8.33925 15.4374 8.33925C15.4374 8.33925 15.2583 8.39088 15.2022 8.40996C15.1782 8.41819 15.1056 8.40272 15.1025 8.37738C15.0927 8.29735 15.0769 8.20075 15.0529 8.12778C14.9969 7.95796 14.8338 7.72709 14.8338 7.72709C14.8338 7.72709 14.7777 7.85711 14.7149 7.91798C14.6739 7.95783 14.6046 7.99268 14.5588 8.01304C14.5323 8.02486 14.5017 8.01511 14.4853 7.99109C14.286 7.69946 14.1611 7.35883 14.1656 7.00591Z" fill="#DEC0C0"/>
</mask>
<g mask="url(#mask1_223:569)">
<path d="M14.1656 7.00591C14.184 5.57577 14.725 5.40125 15.0966 5.72571C15.1221 5.74793 15.1438 5.77326 15.1639 5.80045C15.2837 5.96265 15.7344 6.60056 16.0467 7.41444C16.3087 8.09705 16.4772 9.37281 16.5272 9.78877C16.5344 9.84917 16.4733 9.89297 16.4177 9.86835L16.0348 9.69897C15.6762 9.54037 15.3541 9.24379 15.3437 8.85204C15.3434 8.83786 15.3434 8.824 15.3437 8.81049C15.3492 8.62279 15.4374 8.33925 15.4374 8.33925C15.4374 8.33925 15.2583 8.39088 15.2022 8.40996C15.1782 8.41819 15.1056 8.40272 15.1025 8.37738C15.0927 8.29735 15.0769 8.20075 15.0529 8.12778C14.9969 7.95796 14.8338 7.72709 14.8338 7.72709C14.8338 7.72709 14.7777 7.85711 14.7149 7.91798C14.6739 7.95783 14.6046 7.99268 14.5588 8.01304C14.5323 8.02486 14.5017 8.01511 14.4853 7.99109C14.286 7.69946 14.1611 7.35883 14.1656 7.00591Z" fill="#DEC0C0"/>
<path d="M15.3061 10.3743C14.693 10.5659 13.907 9.75499 13.5505 8.56317C13.194 7.37135 13.402 6.24988 14.015 6.0583C14.6282 5.86672 15.4142 6.67758 15.7708 7.8694C16.1273 9.06123 15.9193 10.1827 15.3061 10.3743Z" fill="#D2B0AF"/>
</g>
<mask id="mask2_223:569" style="mask-type:alpha" maskUnits="userSpaceOnUse" x="8" y="12" width="5" height="4">
<path d="M11.774 13.6743C11.774 13.8868 11.6565 14.1147 11.4725 14.2918C11.2889 14.4687 11.0505 14.5839 10.8249 14.5839C10.5981 14.5839 10.339 14.4677 10.1349 14.2892C9.92997 14.1102 9.79663 13.8828 9.79663 13.6743C9.79663 13.4719 9.92304 13.3058 10.1234 13.1862C10.3237 13.0667 10.5862 13.002 10.8249 13.002C11.0633 13.002 11.3046 13.0665 11.4839 13.1844C11.6619 13.3016 11.774 13.4671 11.774 13.6743Z" fill="#C4C4C4" stroke="black" stroke-width="2"/>
</mask>
<g mask="url(#mask2_223:569)">
<path d="M11.774 13.6742C11.774 13.8868 11.6565 14.1147 11.4725 14.2918C11.2889 14.4687 11.0505 14.5838 10.8249 14.5838C10.5981 14.5838 10.339 14.4676 10.1349 14.2892C9.92997 14.1102 9.79663 13.8828 9.79663 13.6742C9.79663 13.4719 9.92304 13.3058 10.1234 13.1862C10.3237 13.0667 10.5862 13.002 10.8249 13.002C11.0633 13.002 11.3046 13.0665 11.4839 13.1844C11.6619 13.3015 11.774 13.467 11.774 13.6742Z" fill="#616161" stroke="black" stroke-width="0.15"/>
<path d="M11.695 13.7534C11.695 14.1028 11.2399 14.5048 10.8249 14.5048C10.4099 14.5048 9.87573 14.1028 9.87573 13.7534C9.87573 13.404 10.274 13.2393 10.689 13.2393C11.104 13.2393 11.695 13.404 11.695 13.7534Z" fill="#3B3B3B"/>
<path d="M11.1019 14.1887C11.1817 14.3066 11.2364 14.3838 11.3787 14.3864C11.4823 14.3883 11.4906 14.3605 11.5369 14.2677C11.5714 14.1987 11.616 14.07 11.616 14.07C11.616 14.07 11.4804 14.1679 11.4183 14.1887C11.32 14.2214 11.2555 14.1419 11.181 14.07C11.1162 14.0075 11.0692 13.962 11.0623 13.8723C11.0574 13.8087 11.0423 13.697 11.1019 13.6745C11.1476 13.6573 11.2205 13.7536 11.2205 13.7536C11.2205 13.7536 11.2465 13.6391 11.181 13.5954C11.1296 13.5612 11.0794 13.5313 11.0228 13.5559C10.9402 13.5918 10.9263 13.6664 10.9041 13.7536C10.8644 13.9099 11.0115 14.0551 11.1019 14.1887Z" fill="black"/>
<path d="M10.3756 14.0748C10.3082 14.16 10.2621 14.2158 10.1419 14.2176C10.0545 14.219 10.0475 14.1988 10.0084 14.132C9.97926 14.0821 9.94165 13.9891 9.94165 13.9891C9.94165 13.9891 10.0561 14.0599 10.1085 14.0748C10.1915 14.0985 10.2459 14.0411 10.3088 13.9891C10.3635 13.944 10.4031 13.9112 10.4089 13.8463C10.413 13.8005 10.4258 13.7198 10.3756 13.7035C10.337 13.6911 10.2754 13.7607 10.2754 13.7607C10.2754 13.7607 10.2535 13.678 10.3088 13.6464C10.3522 13.6217 10.3945 13.6001 10.4423 13.6178C10.512 13.6438 10.5237 13.6976 10.5424 13.7607C10.576 13.8735 10.4518 13.9784 10.3756 14.0748Z" fill="black"/>
</g>
<defs>
<linearGradient id="paint0_linear_223:569" x1="12.5" y1="0" x2="12.5" y2="25" gradientUnits="userSpaceOnUse">
<stop stop-color="#42E9CD"/>
<stop offset="1" stop-color="#9531DF"/>
</linearGradient>
</defs>
</svg>
