<svg width="40" height="40" viewBox="0 0 40 40" fill="none" xmlns="http://www.w3.org/2000/svg">
    <path d="M38.667 20c0 10.31-8.358 18.667-18.667 18.667C9.69 38.667 1.333 30.309 1.333 20 1.333 9.69 9.691 1.333 20 1.333c10.31 0 18.667 8.358 18.667 18.667z" fill="#131419" stroke="#6764FB" stroke-width="2.667"/>
    <path d="M13.778 18.667h9.333l-4.444-3.111h8.444c.736 0 1.333-.597 1.333-1.334v-.889c0-.736-.596-1.333-1.333-1.333H13.778c-.982 0-1.778.796-1.778 1.778v3.11c0 .983.796 1.779 1.778 1.779zM26.667 21.778h-9.334l4.445 3.11h-8.445c-.736 0-1.333.598-1.333 1.334v.89c0 .736.597 1.333 1.333 1.333h13.334c.981 0 1.777-.797 1.777-1.778v-3.111c0-.982-.796-1.778-1.777-1.778z" fill="#6764FB"/>
</svg>
