<svg width="25" height="25" viewBox="0 0 25 25" fill="none" xmlns="http://www.w3.org/2000/svg">
<circle cx="12.5" cy="12.5" r="12.5" fill="black"/>
<path d="M12.5 16.9823C10.4967 16.9823 8.86987 15.3555 8.86987 13.3521C8.86987 11.4046 12.1561 7.96501 12.2955 7.82092L12.4675 7.63965L12.6441 7.81628C12.7882 7.96037 16.1302 11.3999 16.1302 13.3475C16.1302 15.3555 14.5033 16.9823 12.5 16.9823ZM12.4721 8.34151C12.1839 8.65293 11.5797 9.3269 10.9801 10.1171C9.91569 11.5208 9.35327 12.6363 9.35327 13.3475C9.35327 15.0812 10.7663 16.4942 12.5 16.4942C14.2338 16.4942 15.6468 15.0812 15.6468 13.3475C15.6468 12.6363 15.0751 11.5208 13.9921 10.1171C13.3832 9.33155 12.765 8.65293 12.4721 8.34151Z" fill="url(#paint0_linear_223:595)"/>
<path d="M12.4999 18.1449C9.85517 18.1449 7.70776 15.9929 7.70776 13.3527C7.70776 10.7684 11.3147 7.16151 11.4681 7.01277C11.561 6.91981 11.7191 6.91981 11.812 7.01277C11.905 7.10573 11.905 7.26377 11.812 7.35673C11.7748 7.39392 8.19581 10.9729 8.19581 13.3527C8.19581 15.7279 10.1294 17.6615 12.5046 17.6615C14.8797 17.6615 16.8133 15.7279 16.8133 13.3527C16.8133 12.3767 16.1812 11.0287 14.982 9.44372C14.0617 8.23057 13.1367 7.31025 13.1274 7.30095C13.0298 7.20799 13.0298 7.05461 13.1274 6.957C13.2204 6.85939 13.3738 6.85939 13.4714 6.957C13.6294 7.11038 17.3014 10.7638 17.3014 13.3527C17.2921 15.9929 15.1447 18.1449 12.4999 18.1449Z" fill="url(#paint1_linear_223:595)"/>
<path d="M12.5001 19.3066C9.28361 19.3066 6.66675 16.6898 6.66675 13.4733C6.66675 12.144 7.33607 10.5078 8.65148 8.61607C9.62292 7.22165 10.5758 6.22696 10.6176 6.18513C10.7106 6.08752 10.864 6.08752 10.9616 6.18048C11.0592 6.27344 11.0592 6.42683 10.9662 6.52444C10.9569 6.53373 9.99477 7.53772 9.04656 8.8996C7.80553 10.6798 7.15015 12.2602 7.15015 13.4733C7.15015 16.4202 9.54855 18.8232 12.5001 18.8232C15.4516 18.8232 17.85 16.4248 17.85 13.4733C17.85 12.2602 17.19 10.6798 15.9397 8.8996C14.9822 7.53772 14.0107 6.53373 14.0014 6.52444C13.9084 6.42683 13.9084 6.27344 14.0061 6.18048C14.1037 6.08752 14.2571 6.08752 14.35 6.18513C14.5127 6.35246 18.3334 10.3219 18.3334 13.4733C18.3334 16.6898 15.7165 19.3066 12.5001 19.3066Z" fill="url(#paint2_linear_223:595)"/>
<defs>
<linearGradient id="paint0_linear_223:595" x1="12.5" y1="16.9817" x2="12.5" y2="7.63908" gradientUnits="userSpaceOnUse">
<stop stop-color="#05AAC5"/>
<stop offset="1" stop-color="#71E0EC"/>
</linearGradient>
<linearGradient id="paint1_linear_223:595" x1="12.5046" y1="18.1443" x2="12.5046" y2="6.88322" gradientUnits="userSpaceOnUse">
<stop stop-color="#05AAC5"/>
<stop offset="1" stop-color="#71E0EC"/>
</linearGradient>
<linearGradient id="paint2_linear_223:595" x1="12.5001" y1="19.3061" x2="12.5001" y2="6.11076" gradientUnits="userSpaceOnUse">
<stop stop-color="#05AAC5"/>
<stop offset="1" stop-color="#71E0EC"/>
</linearGradient>
</defs>
</svg>
