<svg width="45" height="45" viewBox="0 0 45 45" fill="none" xmlns="http://www.w3.org/2000/svg">
<circle cx="22.5" cy="22.5" r="22.5" fill="black"/>
<path d="M22.5001 30.5687C18.8941 30.5687 15.9658 27.6404 15.9658 24.0344C15.9658 20.5288 21.881 14.3376 22.132 14.0782L22.4415 13.752L22.7594 14.0699C23.0188 14.3292 29.0343 20.5205 29.0343 24.0261C29.0343 27.6404 26.1061 30.5687 22.5001 30.5687ZM22.4499 15.0153C21.9312 15.5759 20.8435 16.789 19.7642 18.2113C17.8483 20.738 16.8359 22.746 16.8359 24.0261C16.8359 27.1468 19.3794 29.6902 22.5001 29.6902C25.6208 29.6902 28.1642 27.1468 28.1642 24.0261C28.1642 22.746 27.1351 20.738 25.1857 18.2113C24.0897 16.7974 22.977 15.5759 22.4499 15.0153Z" fill="url(#paint0_linear_219:57)"/>
<path d="M22.4999 32.6597C17.7394 32.6597 13.874 28.786 13.874 24.0338C13.874 19.382 20.3665 12.8895 20.6425 12.6218C20.8099 12.4545 21.0943 12.4545 21.2617 12.6218C21.429 12.7892 21.429 13.0736 21.2617 13.2409C21.1947 13.3079 14.7525 19.7501 14.7525 24.0338C14.7525 28.3091 18.233 31.7895 22.5083 31.7895C26.7836 31.7895 30.2641 28.3091 30.2641 24.0338C30.2641 22.2768 29.1262 19.8505 26.9676 16.9975C25.3111 14.8139 23.6461 13.1573 23.6294 13.1405C23.4537 12.9732 23.4537 12.6971 23.6294 12.5214C23.7967 12.3457 24.0728 12.3457 24.2485 12.5214C24.533 12.7975 31.1425 19.3736 31.1425 24.0338C31.1258 28.786 27.2605 32.6597 22.4999 32.6597Z" fill="url(#paint1_linear_219:57)"/>
<path d="M22.5 34.7516C16.7104 34.7516 12 30.0412 12 24.2516C12 21.8587 13.2048 18.9137 15.5725 15.5085C17.3211 12.9986 19.0363 11.2081 19.1116 11.1328C19.2789 10.9571 19.555 10.9571 19.7307 11.1245C19.9064 11.2918 19.9064 11.5679 19.739 11.7436C19.7223 11.7603 17.9904 13.5675 16.2837 16.0189C14.0498 19.2233 12.8701 22.0679 12.8701 24.2516C12.8701 29.5559 17.1873 33.8814 22.5 33.8814C27.8127 33.8814 32.1299 29.5643 32.1299 24.2516C32.1299 22.0679 30.9418 19.2233 28.6912 16.0189C26.9677 13.5675 25.2191 11.7603 25.2024 11.7436C25.0351 11.5679 25.0351 11.2918 25.2108 11.1245C25.3865 10.9571 25.6626 10.9571 25.8299 11.1328C26.1227 11.434 33 18.5791 33 24.2516C33 30.0412 28.2896 34.7516 22.5 34.7516Z" fill="url(#paint2_linear_219:57)"/>
<defs>
<linearGradient id="paint0_linear_219:57" x1="22.5001" y1="30.5677" x2="22.5001" y2="13.7509" gradientUnits="userSpaceOnUse">
<stop stop-color="#05AAC5"/>
<stop offset="1" stop-color="#71E0EC"/>
</linearGradient>
<linearGradient id="paint1_linear_219:57" x1="22.5083" y1="32.6586" x2="22.5083" y2="12.3886" gradientUnits="userSpaceOnUse">
<stop stop-color="#05AAC5"/>
<stop offset="1" stop-color="#71E0EC"/>
</linearGradient>
<linearGradient id="paint2_linear_219:57" x1="22.5" y1="34.7505" x2="22.5" y2="10.999" gradientUnits="userSpaceOnUse">
<stop stop-color="#05AAC5"/>
<stop offset="1" stop-color="#71E0EC"/>
</linearGradient>
</defs>
</svg>
