<svg width="25" height="25" viewBox="0 0 25 25" fill="none" xmlns="http://www.w3.org/2000/svg">
    <circle cx="12.5" cy="12.5" r="12.5" fill="#000"/>
    <path d="M12.5 16.982a3.632 3.632 0 0 1-3.63-3.63c0-1.947 3.286-5.387 3.426-5.531l.171-.181.177.176c.144.144 3.486 3.584 3.486 5.532a3.633 3.633 0 0 1-3.63 3.634zm-.028-8.64c-.288.31-.892.985-1.492 1.775-1.064 1.404-1.627 2.52-1.627 3.23a3.152 3.152 0 0 0 3.147 3.147 3.152 3.152 0 0 0 3.147-3.146c0-.712-.572-1.827-1.655-3.23a25.805 25.805 0 0 0-1.52-1.776z" fill="url(#a)"/>
    <path d="M12.5 18.145a4.798 4.798 0 0 1-4.792-4.792c0-2.585 3.607-6.191 3.76-6.34a.247.247 0 0 1 .344 0 .247.247 0 0 1 0 .344c-.037.037-3.616 3.616-3.616 5.996a4.315 4.315 0 0 0 4.309 4.309 4.315 4.315 0 0 0 4.308-4.31c0-.975-.632-2.323-1.831-3.908-.92-1.213-1.845-2.134-1.855-2.143a.239.239 0 0 1 0-.344.239.239 0 0 1 .344 0c.158.153 3.83 3.807 3.83 6.396a4.811 4.811 0 0 1-4.801 4.792z" fill="url(#b)"/>
    <path d="M12.5 19.307a5.84 5.84 0 0 1-5.833-5.834c0-1.329.67-2.965 1.984-4.857a21.606 21.606 0 0 1 1.967-2.43.243.243 0 1 1 .348.338c-.01.01-.971 1.014-1.92 2.376-1.24 1.78-1.896 3.36-1.896 4.573a5.357 5.357 0 0 0 5.35 5.35 5.354 5.354 0 0 0 5.35-5.35c0-1.213-.66-2.793-1.91-4.573A21.796 21.796 0 0 0 14 6.524a.243.243 0 0 1 .005-.344.243.243 0 0 1 .344.005c.163.167 3.983 4.137 3.983 7.288a5.84 5.84 0 0 1-5.833 5.834z" fill="url(#c)"/>
    <defs>
        <linearGradient id="a" x1="12.5" y1="16.982" x2="12.5" y2="7.639" gradientUnits="userSpaceOnUse">
            <stop stop-color="#05AAC5"/>
            <stop offset="1" stop-color="#71E0EC"/>
        </linearGradient>
        <linearGradient id="b" x1="12.505" y1="18.144" x2="12.505" y2="6.883" gradientUnits="userSpaceOnUse">
            <stop stop-color="#05AAC5"/>
            <stop offset="1" stop-color="#71E0EC"/>
        </linearGradient>
        <linearGradient id="c" x1="12.5" y1="19.306" x2="12.5" y2="6.111" gradientUnits="userSpaceOnUse">
            <stop stop-color="#05AAC5"/>
            <stop offset="1" stop-color="#71E0EC"/>
        </linearGradient>
    </defs>
</svg>
