<svg width="40" height="40" viewBox="0 0 40 40" fill="none" xmlns="http://www.w3.org/2000/svg">
    <path d="M20 40c11.046 0 20-8.954 20-20S31.046 0 20 0 0 8.954 0 20s8.954 20 20 20z" fill="#000"/>
    <path fill-rule="evenodd" clip-rule="evenodd" d="M15.158 12.035c.459.408.5 1.11.093 1.569l-2.118 2.382a3.27 3.27 0 0 0 4.695 4.543l2.622-2.49a5.59 5.59 0 0 1 8.245.598l.113.145a5.756 5.756 0 0 1-.456 7.627l-1.749 1.748a1.111 1.111 0 0 1-1.57-1.571l1.748-1.749a3.534 3.534 0 0 0 .28-4.682l-.114-.145a3.367 3.367 0 0 0-4.967-.36l-2.621 2.49c-2.631 2.5-6.92 1.805-8.628-1.397a5.492 5.492 0 0 1 .74-6.233l2.119-2.383c.407-.459 1.11-.5 1.568-.092zm7.547 1.246c.228.57-.05 1.217-.62 1.445l-1.02.408a7.777 7.777 0 0 0-3.086 2.242l-1.151 1.381a1.111 1.111 0 1 1-1.707-1.422l1.15-1.381a10 10 0 0 1 3.969-2.883l1.02-.409c.57-.227 1.217.05 1.445.62zm-4.76 12.54a1.111 1.111 0 0 0 .825 2.064l1.02-.408a10 10 0 0 0 3.97-2.883l1.15-1.381a1.111 1.111 0 1 0-1.707-1.423l-1.151 1.381a7.777 7.777 0 0 1-3.087 2.242l-1.02.409z" fill="url(#5q97d4i4da)"/>
    <defs>
        <linearGradient id="5q97d4i4da" x1="32.941" y1="9.763" x2="6.214" y2="25.413" gradientUnits="userSpaceOnUse">
            <stop stop-color="#FF8A4B"/>
            <stop offset="1" stop-color="#FF602B"/>
        </linearGradient>
    </defs>
</svg>
