<svg width="40" height="40" viewBox="0 0 40 40" fill="none" xmlns="http://www.w3.org/2000/svg">
    <path d="M20 40c11.046 0 20-8.954 20-20S31.046 0 20 0 0 8.954 0 20s8.954 20 20 20z" fill="#000"/>
    <path fill-rule="evenodd" clip-rule="evenodd" d="m10.809 13.653 8.424-5.127a1.778 1.778 0 0 1 1.878.019l8.021 5.104c.513.326.823.892.823 1.5v2.54H32v1.778h-2.044v1.689H32v1.777h-2.044v2.225c0 .629-.333 1.211-.874 1.53l-8.02 4.74a1.778 1.778 0 0 1-1.779.017l-8.425-4.762a1.778 1.778 0 0 1-.902-1.547v-2.203H8v-1.777h1.956v-1.69H8V17.69h1.956v-2.517c0-.62.323-1.196.853-1.519zm8.211-1.904a1.778 1.778 0 0 1 1.974.034l5.074 3.513a1.333 1.333 0 1 1-1.18 1.346l-4.906-3.398-5.315 3.417v1.696l4.977 3.2a1.333 1.333 0 1 1-.961 1.496l-4.978-3.2a1.778 1.778 0 0 1-.816-1.496v-1.696c0-.605.308-1.168.816-1.495l5.315-3.417zm6.313 10.246-4.977-3.2a1.334 1.334 0 1 1 .96-1.496l4.979 3.2c.508.327.816.89.816 1.496v1.665c0 .638-.342 1.227-.896 1.544l-5.306 3.032a1.778 1.778 0 0 1-1.843-.048l-4.932-3.171a1.333 1.333 0 1 1 .961-1.496l4.932 3.171 5.306-3.032v-1.665z" fill="url(#vkhlsxpmda)"/>
    <defs>
        <linearGradient id="vkhlsxpmda" x1="32" y1="19.822" x2="6.667" y2="20.711" gradientUnits="userSpaceOnUse">
            <stop stop-color="#04CE8F"/>
            <stop offset="1" stop-color="#9548FC"/>
        </linearGradient>
    </defs>
</svg>
