<svg width="45" height="45" viewBox="0 0 45 45" fill="none" xmlns="http://www.w3.org/2000/svg">
    <circle cx="22.5" cy="22.5" r="22.5" fill="#000"/>
    <path d="M15.666 27.271a.647.647 0 0 1 .467-.202h16.161c.294 0 .442.372.234.59l-3.194 3.332a.646.646 0 0 1-.467.203H12.706c-.294 0-.442-.372-.233-.59l3.193-3.333zM15.666 14.827a.646.646 0 0 1 .467-.202h16.161c.294 0 .442.372.234.59l-3.194 3.332a.647.647 0 0 1-.467.202H12.706c-.294 0-.442-.372-.233-.589l3.193-3.333zM29.334 21.034a.647.647 0 0 0-.467-.202H12.706c-.294 0-.442.372-.233.59l3.193 3.332c.124.13.292.202.467.202h16.161c.294 0 .442-.372.234-.59l-3.194-3.332z" fill="#00FFA3"/>
</svg>
