<svg width="45" height="45" viewBox="0 0 45 45" fill="none" xmlns="http://www.w3.org/2000/svg">
    <circle cx="22.5" cy="22.5" r="22.5" fill="#000"/>
    <path d="M17.463 20.113H15.28l.447-1.171a3.983 3.983 0 0 0-.208-3.292 4.314 4.314 0 0 1-.04-3.985l.074-.145h2.183l-.038.059a4.244 4.244 0 0 0-.162 4.272c.478.897.59 1.943.31 2.92l-.383 1.342zM27.011 20.113H24.83l.446-1.171a3.983 3.983 0 0 0-.208-3.292 4.315 4.315 0 0 1-.04-3.985l.075-.145h2.182l-.038.059a4.244 4.244 0 0 0-.162 4.272c.478.897.59 1.943.31 2.92l-.383 1.342z" fill="#00FFBD"/>
    <path d="M22.237 20.113h-2.182l.446-1.171a3.983 3.983 0 0 0-.208-3.292 4.314 4.314 0 0 1-.04-3.985l.074-.145h2.183l-.038.059a4.244 4.244 0 0 0-.162 4.272c.478.897.59 1.943.31 2.92l-.383 1.342z" fill="#FF4BEF"/>
    <path d="M25.064 23.258H14.84v2.65a7.152 7.152 0 0 0 7.56 7.141l1.016-.058a6.365 6.365 0 0 0 5.812-4.81" stroke="#00FFBD" stroke-width="2"/>
    <path fill-rule="evenodd" clip-rule="evenodd" d="M30.592 29.316a3.408 3.408 0 1 0 0-6.816 3.408 3.408 0 0 0 0 6.816zm.007-1.85a1.432 1.432 0 1 0 0-2.865 1.432 1.432 0 0 0 0 2.864z" fill="#00FFBD"/>
</svg>
