<svg width="45" height="45" viewBox="0 0 45 45" fill="none" xmlns="http://www.w3.org/2000/svg">
<circle cx="22.5" cy="22.5" r="22.5" fill="black"/>
<path fill-rule="evenodd" clip-rule="evenodd" d="M32.9919 29.1761L32.9914 17.07L22.4974 11.0107L22.4979 23.1217L12.0066 29.1782L22.5011 35.2367L32.9855 29.1841L32.9919 29.1877V29.1804L32.9956 29.1782L32.9919 29.1761Z" fill="#64C557"/>
<path d="M12.0095 17.07L22.5035 11.0107L22.5031 23.1285L12.009 29.1878L12.0095 17.07Z" fill="#118AB2"/>
<path d="M22.5055 11L33.0001 17.0585L29.5019 19.078L19.0073 13.0195L22.5055 11Z" fill="#00F8B7"/>
<path d="M29.4943 19.0749L29.4945 23.1141L19.0004 17.0549L19.0002 13.0156L29.4943 19.0749Z" fill="#09BD8E"/>
<path d="M18.9933 17.0605L29.4878 23.119L25.9897 25.1385L15.4951 19.08L18.9933 17.0605Z" fill="#FFE3A3"/>
<path d="M26.0311 25.1599L26.0313 29.1992L15.5372 23.1398L15.5371 19.1006L26.0311 25.1599Z" fill="#FFBB1D"/>
<path d="M15.5053 23.1201L25.9997 29.1786L22.5016 31.1981L12.0071 25.1396L15.5053 23.1201Z" fill="#FF965E"/>
<path d="M22.4941 31.1951L22.4942 35.2343L12.0002 29.175L12 25.1357L22.4941 31.1951Z" fill="#D94C00"/>
<path d="M29.4985 19.0755L32.9965 17.0557L32.996 29.1735L29.498 31.1932L29.4985 19.0755Z" fill="#06D6A0"/>
<path d="M25.9937 25.136L29.4917 23.1162L29.4914 31.1947L25.9934 33.2145L25.9937 25.136Z" fill="#FFD166"/>
<path d="M22.4882 31.1965L25.9862 29.1768L25.9861 33.216L22.488 35.2358L22.4882 31.1965Z" fill="#F3722C"/>
</svg>
