<svg width="25" height="25" viewBox="0 0 25 25" fill="none" xmlns="http://www.w3.org/2000/svg">
<circle cx="12.5" cy="12.5" r="12.5" fill="black"/>
<path fill-rule="evenodd" clip-rule="evenodd" d="M18.3289 16.209L18.3287 9.48344L12.4986 6.11719L12.4989 12.8455L6.67041 16.2102L12.5007 19.5761L18.3254 16.2135L18.3289 16.2155V16.2114L18.331 16.2102L18.3289 16.209Z" fill="#64C557"/>
<path d="M6.67188 9.48344L12.5019 6.11719L12.5017 12.8493L6.67163 16.2156L6.67188 9.48344Z" fill="#118AB2"/>
<path d="M12.503 6.11133L18.3333 9.47715L16.3899 10.5991L10.5596 7.23327L12.503 6.11133Z" fill="#00F8B7"/>
<path d="M16.3857 10.5967L16.3858 12.8408L10.5557 9.4745L10.5557 7.23047L16.3857 10.5967Z" fill="#09BD8E"/>
<path d="M10.5518 9.47852L16.3821 12.8443L14.4387 13.9663L8.6084 10.6005L10.5518 9.47852Z" fill="#FFE3A3"/>
<path d="M14.4619 13.9776L14.4619 16.2216L8.63191 12.8554L8.63184 10.6113L14.4619 13.9776Z" fill="#FFBB1D"/>
<path d="M8.61409 12.8447L14.4444 16.2106L12.501 17.3325L6.67065 13.9667L8.61409 12.8447Z" fill="#FF965E"/>
<path d="M12.4968 17.3302L12.4969 19.5742L6.66683 16.2079L6.66675 13.9639L12.4968 17.3302Z" fill="#D94C00"/>
<path d="M16.3879 10.5977L18.3313 9.47559L18.331 16.2077L16.3877 17.3298L16.3879 10.5977Z" fill="#06D6A0"/>
<path d="M14.4409 13.9649L16.3842 12.8428L16.384 17.3308L14.4407 18.4529L14.4409 13.9649Z" fill="#FFD166"/>
<path d="M12.4935 17.332L14.4368 16.21L14.4368 18.454L12.4934 19.5761L12.4935 17.332Z" fill="#F3722C"/>
</svg>
