<svg width="40" height="40" viewBox="0 0 40 40" fill="none" xmlns="http://www.w3.org/2000/svg">
    <circle cx="20" cy="20" r="20" fill="#fff"/>
    <path fill-rule="evenodd" clip-rule="evenodd" d="M14.077 13.177a.623.623 0 0 1 .436-.177h15.124c.276 0 .413.326.217.514l-2.988 2.913a.623.623 0 0 1-.436.177H11.31c-.276 0-.414-.326-.218-.514l2.985-2.913zm0 10.887a.623.623 0 0 1 .436-.177h15.123c.276 0 .414.326.218.514l-2.988 2.913a.623.623 0 0 1-.436.177H11.31c-.276 0-.414-.326-.218-.514l2.985-2.913zm12.353-5.656c.163 0 .32.064.436.177l2.992 2.913c.196.188.058.514-.218.514H14.516a.623.623 0 0 1-.435-.177l-2.989-2.913c-.196-.188-.058-.514.218-.514h15.12z" fill="url(#th757070ha)"/>
    <defs>
        <linearGradient id="th757070ha" x1="25.89" y1="10.086" x2="15.818" y2="29.852" gradientUnits="userSpaceOnUse">
            <stop stop-color="#01A4FF"/>
            <stop offset="1" stop-color="#37D8FF"/>
        </linearGradient>
    </defs>
</svg>
