<svg width="25" height="25" viewBox="0 0 25 25" fill="none" xmlns="http://www.w3.org/2000/svg">
    <circle cx="12.5" cy="12.5" r="12.5" fill="#000"/>
    <path d="m8.578 7.37 10.333 7.055-2.555 3.777-10.334-7.11 2.556-3.723z" fill="url(#a)"/>
    <path d="M18.911 14.425c-.889 1.278-3.889.778-6.722-1.222C9.3 11.258 7.745 8.647 8.578 7.369c.889-1.278 3.889-.778 6.722 1.222 2.89 1.89 4.445 4.556 3.611 5.834z" fill="url(#b)"/>
    <path d="M16.356 18.147c-.89 1.278-3.89.778-6.722-1.222-2.834-2-4.445-4.555-3.556-5.889.889-1.278 3.889-.777 6.722 1.223 2.834 2 4.39 4.61 3.556 5.888z" fill="url(#c)"/>
    <path d="m18.912 14.424-2.556 3.778c-.889 1.278-3.889.722-6.722-1.222a16.73 16.73 0 0 1-1.556-1.222c.389-.056.889-.278 1.389-.834.889-.944 1.333-1.166 1.722-1.11.39 0 .834.388 1.556 1.333.722.944 1.722 1.222 2.333.722.056-.056.111-.056.167-.111.5-.39.667-.556 1.61-2.334.223-.444 1-1.166 2.056-.833.278.722.278 1.333 0 1.833z" fill="#1D204E"/>
    <path fill-rule="evenodd" clip-rule="evenodd" d="M18.522 14.203c-.777 1.11-3.5.555-6.11-1.278-2.667-1.834-4.223-4.167-3.445-5.278.778-1.111 3.5-.556 6.111 1.278 2.611 1.833 4.167 4.166 3.444 5.278zm-2.444-1.667c-.389.556-1.722.278-3.056-.611-1.277-.89-2.055-2.056-1.666-2.611.389-.556 1.722-.278 3.055.61 1.278.89 2.056 2.056 1.667 2.612z" fill="#fff"/>
    <path d="M8.356 8.647c0-.056-.056-.111-.111-.056-.056.056-.111.056-.111.111.055.167.11.278.11.39 0 .055.056.11.112.055.056 0 .111-.056.056-.111 0-.111 0-.222-.056-.39zM8.634 9.536c0-.056-.056-.112-.111-.056-.056.056-.056.056-.056.111.611 1.389 1.889 2.889 3.556 4 .055.056.11 0 .166 0 .056-.055 0-.111 0-.166-1.722-1.112-2.944-2.556-3.555-3.89zM15.356 14.98c-.056 0-.111 0-.111.056s0 .111.055.111c.167.056.39.111.556.167.056 0 .111 0 .111-.056 0-.055 0-.11-.056-.11-.166-.056-.388-.112-.555-.168zM16.356 15.202a.12.12 0 0 0-.111.111.12.12 0 0 0 .11.111c.445.056.945.112 1.334.056a.12.12 0 0 0 .111-.111.12.12 0 0 0-.11-.111c-.445.055-.89 0-1.334-.056z" fill="#fff"/>
    <defs>
        <linearGradient id="a" x1="10.603" y1="6.366" x2="12.652" y2="13.403" gradientUnits="userSpaceOnUse">
            <stop stop-color="#03B8FF"/>
            <stop offset="1" stop-color="#FA52A0"/>
        </linearGradient>
        <linearGradient id="b" x1="12.29" y1="5.875" x2="14.339" y2="12.911" gradientUnits="userSpaceOnUse">
            <stop stop-color="#03B8FF"/>
            <stop offset="1" stop-color="#FA52A0"/>
        </linearGradient>
        <linearGradient id="c" x1="8.92" y1="6.856" x2="10.97" y2="13.893" gradientUnits="userSpaceOnUse">
            <stop stop-color="#03B8FF"/>
            <stop offset="1" stop-color="#FA52A0"/>
        </linearGradient>
    </defs>
</svg>
