<svg width="45" height="45" fill="none" xmlns="http://www.w3.org/2000/svg">
    <circle cx="22.5" cy="22.5" r="22.5" fill="#000"/>
    <path d="m15.44 13.264 18.6 12.7-4.6 6.8-18.6-12.8 4.6-6.7z" fill="url(#a)"/>
    <path d="M34.04 25.964c-1.6 2.3-7 1.4-12.1-2.2-5.2-3.5-8-8.2-6.5-10.5 1.6-2.3 7-1.4 12.1 2.2 5.2 3.4 8 8.2 6.5 10.5z" fill="url(#b)"/>
    <path d="M29.44 32.664c-1.6 2.3-7 1.4-12.1-2.2s-8-8.2-6.4-10.6c1.6-2.3 7-1.4 12.1 2.2s7.9 8.3 6.4 10.6z" fill="url(#c)"/>
    <path d="m34.04 25.964-4.6 6.8c-1.6 2.3-7 1.3-12.1-2.2-1-.7-1.9-1.4-2.8-2.2.7-.1 1.6-.5 2.5-1.5 1.6-1.7 2.4-2.1 3.1-2 .7 0 1.5.7 2.8 2.4 1.3 1.7 3.1 2.2 4.2 1.3.1-.1.2-.1.3-.2.9-.7 1.2-1 2.9-4.2.4-.8 1.8-2.1 3.7-1.5.5 1.3.5 2.4 0 3.3z" fill="#1D204E"/>
    <path fill-rule="evenodd" clip-rule="evenodd" d="M33.34 25.564c-1.4 2-6.3 1-11-2.3-4.8-3.3-7.6-7.5-6.2-9.5 1.4-2 6.3-1 11 2.3s7.5 7.5 6.2 9.5zm-4.4-3c-.7 1-3.1.5-5.5-1.1-2.3-1.6-3.7-3.7-3-4.7.7-1 3.1-.5 5.5 1.1 2.3 1.6 3.7 3.7 3 4.7z" fill="#fff"/>
    <path d="M15.04 15.564c0-.1-.1-.2-.2-.1s-.2.1-.2.2c.1.3.2.5.2.7 0 .1.1.2.2.1.1 0 .2-.1.1-.2 0-.2 0-.4-.1-.7zM15.54 17.164c0-.1-.1-.2-.2-.1s-.1.1-.1.2c1.1 2.5 3.4 5.2 6.4 7.2.1.1.2 0 .3 0 .1-.1 0-.2 0-.3-3.1-2-5.3-4.6-6.4-7zM27.64 26.964c-.1 0-.2 0-.2.1s0 .2.1.2c.3.1.7.2 1 .3.1 0 .2 0 .2-.1s0-.2-.1-.2c-.3-.1-.7-.2-1-.3zM29.44 27.364c-.1 0-.2.1-.2.2s.1.2.2.2c.8.1 1.7.2 2.4.1.1 0 .2-.1.2-.2s-.1-.2-.2-.2c-.8.1-1.6 0-2.4-.1z" fill="#fff"/>
    <defs>
        <linearGradient id="a" x1="19.085" y1="11.459" x2="22.773" y2="24.125" gradientUnits="userSpaceOnUse">
            <stop stop-color="#03B8FF"/>
            <stop offset="1" stop-color="#FA52A0"/>
        </linearGradient>
        <linearGradient id="b" x1="22.122" y1="10.574" x2="25.811" y2="23.24" gradientUnits="userSpaceOnUse">
            <stop stop-color="#03B8FF"/>
            <stop offset="1" stop-color="#FA52A0"/>
        </linearGradient>
        <linearGradient id="c" x1="16.057" y1="12.34" x2="19.745" y2="25.007" gradientUnits="userSpaceOnUse">
            <stop stop-color="#03B8FF"/>
            <stop offset="1" stop-color="#FA52A0"/>
        </linearGradient>
    </defs>
</svg>
