<svg width="40" height="40" viewBox="0 0 40 40" fill="none" xmlns="http://www.w3.org/2000/svg">
    <circle cx="20" cy="20" r="20" fill="#000"/>
    <path fill-rule="evenodd" clip-rule="evenodd" d="m20.001 30.4.426-.635v-.002l8.906-13.319-4.99-4.888H15.66l-4.993 4.888 8.906 13.319s0 .002.003.002L20 30.4z" fill="#00D2BE"/>
    <path fill-rule="evenodd" clip-rule="evenodd" d="m16.741 17.273 2.137 8.552-5.72-8.552h3.583zm5.691-.892h-4.993l-.713-2.855h6.42l-.713 2.855h-.001zm-2.496 9.983-2.273-9.091h4.546l-2.273 9.091zm3.193-9.091h3.58l-5.718 8.552 2.139-8.552zm3.324-.892h-3.1l.609-2.435 2.492 2.435zm-10.545-2.438.607 2.435h-3.097l2.49-2.435zm4.028 15.068.373-.557v-.003l7.814-11.685-4.222-4.132h-7.93l-4.225 4.132L19.56 28.45s0 .002.002.002l.374.558z" fill="#232323"/>
</svg>
