<svg width="25" height="25" viewBox="0 0 25 25" fill="none" xmlns="http://www.w3.org/2000/svg">
<circle cx="12.5" cy="12.5" r="12.5" fill="black"/>
<path fill-rule="evenodd" clip-rule="evenodd" d="M12.5009 19.0009L12.7669 18.6034V18.6021L18.3334 10.278L15.2141 7.22266H9.78779L6.66675 10.278L12.2333 18.6021C12.2333 18.6021 12.2333 18.6034 12.2349 18.6034L12.5009 19.0009Z" fill="#00D2BE"/>
<path fill-rule="evenodd" clip-rule="evenodd" d="M10.4632 10.7954L11.7989 16.1404L8.22373 10.7954H10.4632ZM14.0198 10.2378H10.8991L10.4534 8.45374H14.4655L14.0202 10.2378H14.0198ZM12.4596 16.4775L11.039 10.7954H13.8802L12.4596 16.4775ZM14.4557 10.7954H16.6935L13.119 16.1404L14.456 10.7954H14.4557ZM16.533 10.2378H14.5956L14.9759 8.71602L16.5334 10.2378H16.533ZM9.94237 8.71433L10.322 10.2364H8.38589L9.94237 8.71433ZM12.4596 18.1321L12.6929 17.7835V17.7822L17.5768 10.4788L14.9378 7.89648H9.98147L7.34082 10.4785L12.2247 17.7818C12.2247 17.7818 12.2247 17.7832 12.2263 17.7832L12.4596 18.1317V18.1321Z" fill="#232323"/>
</svg>
