<svg width="45" height="45" viewBox="0 0 45 45" fill="none" xmlns="http://www.w3.org/2000/svg">
<circle cx="22.5" cy="22.5" r="22.5" fill="black"/>
<path fill-rule="evenodd" clip-rule="evenodd" d="M22.5015 34.2009L22.9803 33.4854V33.483L33 18.4996L27.3852 13H17.6179L12 18.4996L22.0197 33.483C22.0197 33.483 22.0197 33.4854 22.0227 33.4854L22.5015 34.2009Z" fill="#00D2BE"/>
<path fill-rule="evenodd" clip-rule="evenodd" d="M18.8339 19.4319L21.2381 29.0529L14.8029 19.4319H18.8339ZM25.2358 18.4282H19.6185L18.8163 15.2169H26.038L25.2364 18.4282H25.2358ZM22.4275 29.6597L19.8704 19.4319H24.9846L22.4275 29.6597ZM26.0204 19.4319H30.0485L23.6144 29.0529L26.021 19.4319H26.0204ZM29.7596 18.4282H26.2723L26.9567 15.689L29.7602 18.4282H29.7596ZM17.8964 15.686L18.5797 18.4258H15.0947L17.8964 15.686ZM22.4275 32.6379L22.8474 32.0105V32.0081L31.6383 18.8621L26.8882 14.2139H17.9668L13.2136 18.8615L22.0045 32.0075C22.0045 32.0075 22.0045 32.0099 22.0076 32.0099L22.4275 32.6373V32.6379Z" fill="#232323"/>
</svg>
