<svg width="45" height="45" viewBox="0 0 45 45" fill="none" xmlns="http://www.w3.org/2000/svg">
    <path d="M22.5 45C34.926 45 45 34.926 45 22.5S34.926 0 22.5 0 0 10.074 0 22.5 10.074 45 22.5 45z" fill="url(#a)"/>
    <path fill-rule="evenodd" clip-rule="evenodd" d="M21.717 11.044a4.527 4.527 0 0 0-2.709 1.313c-.543.532-1.057 1.077-1.608 1.614-.275.28-.553.551-.832.827-.278.275-.586.568-.875.858-.289.289-.53.543-.797.812-.418.413-.836.826-1.255 1.244-.32.327-.634.666-.951.993-.187.195-.389.376-.565.582a4.871 4.871 0 0 0-1.12 3.311c.014.651.187 1.29.503 1.86.18.346.39.676.624.987.156.216.268.213.473.046.039-.032.075-.067.11-.105.2-.21.398-.418.603-.628.289-.3.585-.599.874-.902.29-.304.603-.638.907-.952.144-.153.299-.295.444-.446.31-.324.614-.658.924-.979.31-.32.625-.62.928-.934.303-.314.677-.697 1.019-1.046.341-.348.631-.64.949-.961.412-.423.814-.855 1.223-1.276.254-.258.515-.506.77-.76.352-.349.68-.697 1.026-1.045.346-.349.603-.583.899-.883.662-.66 1.324-1.326 1.984-1.995.043-.042.083-.086.12-.132.162-.203.176-.248-.025-.39a6.32 6.32 0 0 0-.98-.628A4.652 4.652 0 0 0 22.428 11h-.034c-.225 0-.45.014-.674.042l-.003-.004v.006zm5.837 4.29h-.042a2.012 2.012 0 0 0-1.52.697 1.47 1.47 0 0 1-.106.105l-1.08 1.045-1.103 1.095c-.307.303-.614.6-.917.903-.303.303-.628.641-.956.958-.328.317-.677.65-1.015.976l-1.203 1.199-2.236 2.21-2.96 2.934c-.19.185-.193.21 0 .408.473.472.953.94 1.411 1.417.284.297.658.494 1.065.56.385.077.782.064 1.16-.038.284-.07.546-.207.763-.4l1.17-1.118c.276-.261.555-.52.826-.785.543-.531 1.079-1.066 1.622-1.594.441-.428.893-.854 1.34-1.282l1.836-1.769c.572-.554 1.146-1.111 1.725-1.666a.377.377 0 0 1 .355-.162.38.38 0 0 1 .31.236 2.529 2.529 0 0 1 .438 1.704 2.39 2.39 0 0 1-.617 1.394c-.424.45-.875.875-1.314 1.307-.314.307-.635.607-.95.917-.405.397-.803.802-1.21 1.199-.059.066-.115.136-.178.198l-.399.408c-.299.296-.603.582-.896.878-.294.296-.63.642-.944.965-.028.031-.06.052-.088.08-.353.324-.678.65-1.013.976-.158.153-.31.31-.465.463-.268.269-.543.532-.8.806-.16.163-.16.264.028.393.307.233.634.44.977.617a4.977 4.977 0 0 0 2.726.383 4.48 4.48 0 0 0 2.469-1.112c.521-.453.988-.962 1.474-1.45.353-.348.706-.72 1.083-1.08l1.019-1.014c.31-.31.617-.62.931-.927.315-.307.706-.673 1.058-1.018.352-.346.706-.697 1.058-1.067.281-.282.54-.585.777-.906.44-.657.715-1.408.801-2.191a4.802 4.802 0 0 0 0-1.172 4.862 4.862 0 0 0-.744-1.941 5.65 5.65 0 0 0-.987-1.122 186.3 186.3 0 0 1-2.907-2.903 2.22 2.22 0 0 0-1.652-.729h-.013l-.106.014z" fill="#fff"/>
    <defs>
        <linearGradient id="a" x1="3.066" y1="9.441" x2="39.177" y2="34.148" gradientUnits="userSpaceOnUse">
            <stop stop-color="#FF3B3B"/>
            <stop offset="1" stop-color="#FF9914"/>
        </linearGradient>
    </defs>
</svg>
