<svg width="25" height="25" viewBox="0 0 25 25" fill="none" xmlns="http://www.w3.org/2000/svg">
    <path d="M12.5 25C19.404 25 25 19.404 25 12.5S19.404 0 12.5 0 0 5.596 0 12.5 5.596 25 12.5 25z" fill="url(#a)"/>
    <path fill-rule="evenodd" clip-rule="evenodd" d="M12.065 6.136a2.515 2.515 0 0 0-1.505.73c-.302.295-.587.598-.893.896-.153.155-.308.306-.463.46-.154.152-.325.315-.486.476-.16.16-.294.302-.442.45-.233.23-.465.46-.697.692-.179.182-.353.37-.53.552-.103.108-.215.209-.313.323a2.706 2.706 0 0 0-.623 1.84c.009.361.105.716.28 1.033.1.192.217.375.347.548.086.12.15.119.263.026a.572.572 0 0 0 .06-.058c.112-.117.222-.233.336-.35.16-.166.325-.332.486-.5.16-.17.335-.355.503-.53.08-.084.166-.163.247-.247.172-.18.341-.366.513-.544.173-.178.347-.345.516-.519.168-.174.376-.387.566-.58.19-.194.35-.357.527-.535.23-.235.453-.475.68-.709.14-.143.286-.28.427-.422.196-.194.378-.387.57-.58.192-.194.335-.324.5-.49.368-.368.735-.738 1.102-1.11a.772.772 0 0 0 .067-.073c.09-.113.098-.137-.014-.217a3.521 3.521 0 0 0-.545-.349 2.585 2.585 0 0 0-1.084-.238h-.019c-.125 0-.25.008-.374.024l-.002-.002v.003zm3.243 2.383h-.024a1.118 1.118 0 0 0-.844.387.792.792 0 0 1-.059.058l-.6.581-.613.608c-.17.169-.34.333-.509.502-.168.169-.349.356-.531.533l-.564.542-.669.666-1.242 1.227-1.644 1.63c-.105.103-.107.117 0 .227.263.262.53.523.784.787.157.165.365.275.592.312.213.042.434.035.644-.021a.985.985 0 0 0 .424-.223l.65-.621c.153-.145.308-.289.459-.436.301-.295.6-.592.9-.885.246-.239.497-.475.745-.713l1.02-.982c.318-.308.637-.618.958-.926a.208.208 0 0 1 .198-.09.211.211 0 0 1 .172.131 1.404 1.404 0 0 1 .243.947c-.026.288-.146.56-.342.774-.236.25-.486.486-.73.726-.175.17-.353.337-.528.51-.225.22-.447.445-.672.666-.033.036-.064.075-.1.11l-.221.227c-.166.164-.335.323-.498.487-.163.165-.35.357-.524.536-.016.018-.034.03-.05.045-.195.18-.376.36-.562.542-.088.085-.172.172-.258.257-.15.15-.302.296-.445.448-.088.09-.088.147.016.218.17.13.352.244.543.343.473.212.999.286 1.514.213a2.49 2.49 0 0 0 1.372-.618c.29-.251.548-.534.819-.805.196-.194.392-.4.601-.6l.566-.564c.173-.172.343-.345.518-.515.174-.17.392-.373.587-.565.196-.192.392-.388.588-.593.156-.157.3-.325.432-.503.244-.365.397-.783.445-1.218a2.664 2.664 0 0 0 0-.65 2.7 2.7 0 0 0-.414-1.08 3.14 3.14 0 0 0-.548-.623 103.645 103.645 0 0 1-1.615-1.612 1.234 1.234 0 0 0-.917-.405h-.008l-.059.008z" fill="#fff"/>
    <defs>
        <linearGradient id="a" x1="1.703" y1="5.245" x2="21.765" y2="18.971" gradientUnits="userSpaceOnUse">
            <stop stop-color="#FF3B3B"/>
            <stop offset="1" stop-color="#FF9914"/>
        </linearGradient>
    </defs>
</svg>
