<svg width="40" height="40" viewBox="0 0 40 40" fill="none" xmlns="http://www.w3.org/2000/svg">
    <path d="M20 40c11.046 0 20-8.954 20-20S31.046 0 20 0 0 8.954 0 20s8.954 20 20 20z" fill="url(#zqzg1755fa)"/>
    <path fill-rule="evenodd" clip-rule="evenodd" d="M19.304 9.817a4.024 4.024 0 0 0-2.408 1.167c-.483.473-.94.958-1.429 1.435-.245.248-.492.49-.74.734-.247.246-.52.506-.777.763s-.47.483-.709.722c-.372.367-.743.735-1.115 1.106-.285.29-.564.592-.846.882-.166.174-.345.335-.502.518a4.33 4.33 0 0 0-1 2.764c0 .06 0 .12.004.18.013.578.166 1.145.448 1.653.16.307.345.6.554.877.138.192.239.189.42.04a.898.898 0 0 0 .098-.093c.179-.186.354-.372.536-.558.257-.266.52-.532.778-.802.257-.27.535-.567.805-.845.129-.137.266-.263.395-.397.276-.288.546-.585.821-.87.276-.285.556-.552.825-.83.27-.28.602-.62.906-.93.304-.31.561-.57.843-.855.367-.375.725-.76 1.088-1.134.226-.23.458-.45.684-.676.313-.31.604-.62.912-.929.307-.31.536-.517.8-.784.588-.588 1.176-1.179 1.763-1.774.038-.037.073-.076.106-.117.145-.18.157-.22-.021-.347a5.635 5.635 0 0 0-.872-.558 4.136 4.136 0 0 0-1.735-.381h-.03c-.2 0-.4.012-.599.037l-.003-.003v.005zm5.189 3.813h-.038a1.79 1.79 0 0 0-1.351.62c-.03.032-.061.063-.094.093l-.96.93-.98.972c-.273.27-.546.533-.816.803-.269.27-.558.57-.85.852-.29.281-.601.577-.902.867l-1.07 1.066-1.987 1.964-2.63 2.608c-.17.165-.172.186 0 .363.42.42.846.836 1.254 1.26.252.263.584.438.947.498a2.27 2.27 0 0 0 1.031-.034c.252-.062.485-.184.677-.357l1.041-.993c.244-.232.492-.462.734-.697.482-.473.959-.948 1.442-1.417.392-.381.793-.76 1.19-1.14l1.633-1.572c.508-.493 1.019-.988 1.533-1.481a.333.333 0 0 1 .316-.145.338.338 0 0 1 .275.21 2.247 2.247 0 0 1 .39 1.515c-.043.46-.235.896-.549 1.24-.377.4-.777.777-1.168 1.161-.28.273-.564.54-.844.815-.36.353-.715.712-1.075 1.066-.053.059-.103.12-.16.176l-.354.363c-.265.262-.536.517-.797.78-.26.263-.56.57-.839.858-.025.028-.053.046-.078.07-.314.289-.602.578-.9.868-.14.137-.276.276-.414.412-.238.239-.483.473-.711.716-.141.145-.141.235.025.35.273.207.564.39.868.548a4.424 4.424 0 0 0 2.423.34 3.983 3.983 0 0 0 2.195-.988c.464-.402.878-.855 1.31-1.288.314-.31.628-.641.963-.96l.906-.902c.276-.276.549-.552.828-.824.28-.273.627-.598.94-.905.313-.307.627-.62.94-.948.25-.251.481-.52.691-.805a4.362 4.362 0 0 0 .712-1.949 4.267 4.267 0 0 0 0-1.04 4.322 4.322 0 0 0-.661-1.727 5.024 5.024 0 0 0-.878-.997c-.868-.852-1.734-1.71-2.583-2.58a1.975 1.975 0 0 0-1.469-.648h-.011l-.094.012-.001.001z" fill="#fff"/>
    <defs>
        <linearGradient id="zqzg1755fa" x1="2.725" y1="8.392" x2="34.824" y2="30.354" gradientUnits="userSpaceOnUse">
            <stop stop-color="#FF3B3B"/>
            <stop offset="1" stop-color="#FF9914"/>
        </linearGradient>
    </defs>
</svg>
