<svg width="45" height="45" viewBox="0 0 45 45" fill="none" xmlns="http://www.w3.org/2000/svg">
<circle cx="22.5" cy="22.5" r="22.5" fill="black"/>
<path fill-rule="evenodd" clip-rule="evenodd" d="M31.9998 25.4722C31.6994 25.7997 31.3767 26.0616 31.023 26.271C30.0625 26.8415 28.8544 27.0263 27.138 27.0438H26.7019H26.7034H17.2264L11 31H25.9814C28.4138 30.9912 30.5796 29.4081 31.4017 27.1469C31.6048 26.5899 31.8042 26.0316 32 25.4721L31.9998 25.4722ZM17.115 20.5685H28.7631C29.1123 20.5671 29.4567 20.6482 29.7676 20.8052C30.0785 20.9621 30.3469 21.1904 30.5502 21.4708C30.7529 21.7514 30.8848 22.0759 30.9347 22.4171C30.9847 22.7583 30.9513 23.1063 30.8374 23.4322C30.5517 24.2514 29.7723 24.8509 28.8942 24.8538H15.11C14.8327 24.8451 14.5614 24.7724 14.3176 24.6417C14.0738 24.511 13.8642 24.3258 13.7058 24.1009C13.5473 23.876 13.4442 23.6176 13.4048 23.3464C13.3653 23.0752 13.3906 22.7986 13.4786 22.5388L14.6919 18.9564C15.2946 20.0637 16.5079 20.5554 17.115 20.5685ZM27.4282 18.434L31.4429 15H18.5133C17.9357 15.0015 17.4218 15.4117 17.233 15.9516C17.1342 16.234 17.1053 16.5357 17.1487 16.8314C17.1921 17.1272 17.3066 17.4083 17.4826 17.6514C17.6586 17.8944 17.8909 18.0923 18.1602 18.2285C18.4295 18.3647 18.7279 18.4352 19.0305 18.4341C22.609 18.4207 24.3593 18.4325 27.4282 18.434Z" fill="#00F9BB"/>
</svg>
