<svg width="25" height="25" viewBox="0 0 25 25" fill="none" xmlns="http://www.w3.org/2000/svg">
<circle cx="12.5" cy="12.5" r="12.5" fill="black"/>
<path fill-rule="evenodd" clip-rule="evenodd" d="M17.7777 14.1509C17.6107 14.3328 17.4315 14.4784 17.235 14.5947C16.7014 14.9116 16.0302 15.0143 15.0766 15.024H14.8344H14.8352H9.57019L6.11108 17.2219H14.4341C15.7854 17.217 16.9886 16.3375 17.4454 15.0813C17.5582 14.7718 17.669 14.4617 17.7778 14.1508L17.7777 14.1509ZM9.50832 11.4266H15.9795C16.1735 11.4258 16.3648 11.4709 16.5375 11.5581C16.7103 11.6453 16.8593 11.7721 16.9723 11.9279C17.0849 12.0838 17.1582 12.264 17.1859 12.4536C17.2137 12.6432 17.1952 12.8365 17.1319 13.0176C16.9731 13.4727 16.5401 13.8057 16.0523 13.8074H8.39444C8.24039 13.8025 8.08963 13.7621 7.95417 13.6895C7.81872 13.6169 7.70233 13.514 7.61429 13.389C7.52624 13.2641 7.46898 13.1206 7.44707 12.9699C7.42516 12.8192 7.43921 12.6656 7.48809 12.5212L8.16212 10.531C8.49699 11.1462 9.17102 11.4194 9.50832 11.4266ZM15.2379 10.2408L17.4682 8.33301H10.2851C9.96425 8.33383 9.67877 8.56171 9.57387 8.86169C9.51897 9.01859 9.5029 9.18619 9.52702 9.35048C9.55115 9.51477 9.61475 9.67096 9.71252 9.80599C9.8103 9.94102 9.93939 10.051 10.089 10.1266C10.2386 10.2023 10.4044 10.2415 10.5725 10.2409C12.5605 10.2334 13.5329 10.24 15.2379 10.2408Z" fill="#00F9BB"/>
</svg>
