<svg width="25" height="25" viewBox="0 0 25 25" fill="none" xmlns="http://www.w3.org/2000/svg">
<circle cx="12.5" cy="12.5" r="12.5" fill="#44C4A0"/>
<path fill-rule="evenodd" clip-rule="evenodd" d="M4.73366 13.1585L7.52839 7.28814C7.53754 7.26837 7.55221 7.25167 7.57064 7.24005C7.58907 7.22843 7.61047 7.22239 7.63225 7.22266H17.1399C17.1616 7.22261 17.1829 7.22879 17.2011 7.24049C17.2194 7.25218 17.2339 7.26888 17.2429 7.28859L20.0376 13.1589C20.0483 13.1808 20.0516 13.2054 20.0472 13.2293C20.0429 13.2532 20.0309 13.2751 20.0132 13.2917L12.4653 20.5239C12.4439 20.5445 12.4154 20.556 12.3856 20.556C12.3559 20.556 12.3274 20.5445 12.3059 20.5239L4.75804 13.2912C4.74034 13.2746 4.72843 13.2528 4.72404 13.2289C4.71965 13.205 4.72302 13.1803 4.73366 13.1585ZM12.3968 13.782C13.0213 13.782 13.3012 13.7653 13.3554 13.7613L13.3536 13.7608C15.2696 13.6759 16.6988 13.3418 16.6988 12.9426C16.6988 12.5434 15.2692 12.2092 13.3536 12.1239V13.4289C13.2999 13.4339 13.0014 13.4587 12.4053 13.4587C11.9086 13.4587 11.5492 13.4375 11.4236 13.4285V12.123C9.50403 12.2088 8.07122 12.5425 8.07122 12.9426C8.07122 13.3427 9.50403 13.6768 11.4236 13.7613C11.5474 13.7671 11.9 13.782 12.3968 13.782ZM13.3554 11.9884V11.9889L13.355 11.9884C13.3551 11.9884 13.3553 11.9884 13.3554 11.9884ZM13.3554 10.8207V11.9884C15.5241 12.0887 17.1535 12.5186 17.1535 13.0338C17.1535 13.549 15.5225 13.9789 13.355 14.0787V17.8235H11.4232V14.0801C9.2507 13.9798 7.61694 13.5499 7.61694 13.0342C7.61694 12.5186 9.2507 12.0882 11.4232 11.9884V10.8207H8.75037V9.03925H16.0287V10.8207H13.3554Z" fill="white"/>
</svg>
