<svg width="45" height="45" viewBox="0 0 45 45" fill="none" xmlns="http://www.w3.org/2000/svg">
    <circle cx="22.5" cy="22.5" r="22.5" fill="#44C4A0"/>
    <path fill-rule="evenodd" clip-rule="evenodd" d="m8.52 23.684 5.031-10.566a.203.203 0 0 1 .187-.118h17.114a.203.203 0 0 1 .185.119l5.03 10.566a.204.204 0 0 1-.043.24L22.438 36.941a.207.207 0 0 1-.287 0L8.565 23.924a.205.205 0 0 1-.044-.24zm13.794 1.123c1.124 0 1.628-.03 1.726-.037l-.003-.001c3.448-.153 6.02-.755 6.02-1.473 0-.719-2.572-1.32-6.02-1.474v2.35c-.097.008-.634.053-1.707.053a25.99 25.99 0 0 1-1.767-.055v-2.35c-3.456.155-6.035.756-6.035 1.476s2.58 1.322 6.035 1.474c.222.01.857.037 1.751.037zm1.726-3.229v.001h-.001zm0-2.102v2.102c3.903.18 6.836.955 6.836 1.882 0 .927-2.936 1.701-6.837 1.88v6.742h-3.477v-6.739c-3.91-.18-6.851-.954-6.851-1.882 0-.928 2.94-1.703 6.85-1.883v-2.102h-4.81V16.27h13.1v3.206H24.04z" fill="#fff"/>
</svg>
