<svg width="45" height="45" viewBox="0 0 45 45" fill="none" xmlns="http://www.w3.org/2000/svg">
    <circle cx="22.5" cy="22.5" r="22.5" fill="#000"/>
    <path d="M15.021 14.179a1.851 1.851 0 0 0-.923 1.133c-.13.49-.13 2.513 0 3.003.291 1.052.923 1.307 3.232 1.307h1.587v12.02l.23.439c.161.306.372.52.673.684.392.215.562.235 1.827.235.944 0 1.496-.04 1.717-.143.432-.174.954-.797 1.024-1.205.03-.184.05-3.973.03-8.425l-.03-8.078-.311-.398c-.593-.756-.522-.746-4.86-.746-3.352 0-3.904.03-4.195.174zM27.68 14.168c-.571.215-1.264.858-1.545 1.44-.352.746-.321 1.747.06 2.462.542 1.02 1.325 1.49 2.46 1.49 1.154 0 1.977-.51 2.47-1.541 1.084-2.247-1.105-4.688-3.444-3.85z" fill="#fff"/>
</svg>
