<svg width="45" height="45" viewBox="0 0 45 45" fill="none" xmlns="http://www.w3.org/2000/svg">
<circle cx="22.5" cy="22.5" r="22.5" fill="black"/>
<path d="M22.5 35C29.4036 35 35 29.4036 35 22.5C35 15.5964 29.4036 10 22.5 10C15.5964 10 10 15.5964 10 22.5C10 29.4036 15.5964 35 22.5 35Z" fill="white"/>
<path d="M11.625 23.6977C11.625 22.3551 12.9232 21.3819 14.2251 21.71C16.592 22.3066 20.1016 23.0626 22.6875 23.0626C25.222 23.0626 28.5559 22.3364 30.8479 21.7458C32.1288 21.4158 33.3994 22.4292 33.3065 23.7486L33.2414 24.6732C33.2069 25.1631 32.9826 25.623 32.6064 25.9386C29.0171 28.9498 25.6962 30.1952 22.6875 30.2501C19.5696 30.307 15.9514 28.731 12.3811 26.0275C11.8978 25.6616 11.625 25.085 11.625 24.4788V23.6977Z" fill="#1B636F"/>
<path d="M11.625 23.3225C11.625 21.9799 12.9232 21.0067 14.2251 21.3348C16.592 21.9314 20.1016 22.6874 22.6875 22.6874C25.222 22.6874 28.5559 21.9611 30.8479 21.3706C32.1288 21.0405 33.3994 22.0539 33.3065 23.3734L33.2414 24.298C33.2069 24.7879 32.9826 25.2477 32.6064 25.5634C29.0171 28.5746 25.6962 29.82 22.6875 29.8749C19.5696 29.9317 15.9514 28.3557 12.3811 25.6522C11.8978 25.2864 11.625 24.7097 11.625 24.1036V23.3225Z" fill="#01A9BD"/>
<path d="M19.125 24H17V27H19.125V24Z" fill="#3BDDD7"/>
<path d="M18.75 24.375H17.375V24.875H18.75V24.375Z" fill="white"/>
<path d="M18.75 25.25H17.375V25.75H18.75V25.25Z" fill="white"/>
<path d="M18.75 26.125H17.375V26.625H18.75V26.125Z" fill="white"/>
<path d="M27.5 24H25.375V27H27.5V24Z" fill="#3BDDD7"/>
<path d="M27.125 24.375H25.75V24.875H27.125V24.375Z" fill="white"/>
<path d="M27.125 25.25H25.75V25.75H27.125V25.25Z" fill="white"/>
<path d="M27.125 26.125H25.75V26.625H27.125V26.125Z" fill="white"/>
</svg>
