<svg width="25" height="25" viewBox="0 0 25 25" fill="none" xmlns="http://www.w3.org/2000/svg">
    <circle cx="12.5" cy="12.5" r="12.5" fill="#FDF2F7"/>
    <path d="M10.106 7.787c-.162-.024-.17-.031-.093-.039.147-.023.488.008.727.062.557.131 1.06.472 1.594 1.067l.14.163.2-.031c.859-.14 1.74-.031 2.476.31.2.092.518.278.557.324a.745.745 0 0 1 .054.217c.054.364.03.634-.085.843-.062.116-.062.147-.023.248.03.077.123.131.208.131.186 0 .38-.294.472-.704l.04-.162.069.077c.394.441.704 1.052.75 1.486l.016.116-.07-.101a1.306 1.306 0 0 0-.371-.395c-.263-.177-.542-.232-1.277-.27-.665-.039-1.044-.093-1.415-.217-.635-.209-.96-.48-1.71-1.478-.333-.44-.542-.68-.75-.881-.457-.441-.913-.673-1.509-.766z" fill="#FE007A"/>
    <path d="M15.87 8.77c.015-.295.053-.488.139-.666a.537.537 0 0 1 .07-.131c.007 0-.009.054-.032.116-.062.17-.07.41-.03.68.053.349.077.395.448.774.17.178.371.402.449.495l.131.17-.131-.123c-.163-.155-.534-.45-.62-.488-.053-.03-.061-.03-.1.008-.03.03-.038.077-.038.302-.008.348-.055.564-.17.789-.063.116-.07.093-.016-.039.039-.1.046-.147.046-.48 0-.673-.077-.835-.549-1.106a5.777 5.777 0 0 0-.433-.224 1.716 1.716 0 0 1-.21-.1c.016-.016.473.115.65.193.271.108.318.116.349.108.023-.023.038-.085.046-.279zM10.423 9.921c-.325-.448-.534-1.145-.487-1.663l.015-.162.078.015c.139.023.379.116.495.186.31.185.449.44.58 1.075.039.186.093.402.116.472.039.116.186.387.31.557.085.124.03.186-.163.17-.294-.03-.689-.301-.944-.65zM15.475 13.287c-1.532-.619-2.074-1.153-2.074-2.058 0-.131.008-.24.008-.24.008 0 .062.047.132.1.31.248.657.357 1.624.496.565.085.89.147 1.184.247.936.31 1.516.944 1.655 1.803.039.248.016.72-.046.967-.054.193-.209.55-.248.557-.007 0-.023-.039-.023-.1-.015-.325-.178-.635-.449-.875-.325-.278-.742-.487-1.763-.897zM14.392 13.543a1.836 1.836 0 0 0-.078-.325l-.038-.116.07.085c.1.116.177.255.247.448.054.147.054.194.054.434 0 .232-.008.286-.054.417a1.4 1.4 0 0 1-.325.519c-.279.286-.642.44-1.16.51-.093.008-.356.031-.588.047-.58.03-.967.092-1.315.216-.047.016-.093.031-.101.023-.015-.015.224-.154.418-.247.27-.132.549-.201 1.16-.31.302-.046.611-.108.689-.139.765-.24 1.144-.835 1.02-1.563z" fill="#FE007A"/>
    <path d="M15.096 14.788c-.201-.441-.248-.86-.14-1.254.016-.038.032-.077.047-.077s.062.023.108.054c.093.062.287.17.782.441.626.34.982.604 1.23.905.216.263.348.565.41.936.038.21.015.712-.04.92-.17.658-.556 1.184-1.12 1.486a1.07 1.07 0 0 1-.163.077.616.616 0 0 1 .07-.17c.185-.394.208-.773.069-1.199-.085-.263-.263-.58-.619-1.114-.425-.619-.526-.781-.634-1.005zM9.333 17.155c.572-.48 1.276-.82 1.926-.928.278-.047.742-.031.998.038.41.109.781.34.975.627.185.279.27.518.355 1.052.031.209.07.426.078.472.062.279.185.495.34.611.24.178.658.186 1.068.031.07-.023.131-.046.131-.039.016.016-.193.155-.332.225-.194.1-.349.131-.557.131-.372 0-.689-.193-.944-.58a4.338 4.338 0 0 1-.255-.51c-.271-.627-.41-.813-.728-1.022-.278-.178-.634-.216-.905-.085-.356.17-.449.627-.2.905a.79.79 0 0 0 .44.232.472.472 0 0 0 .534-.472c0-.185-.07-.293-.255-.378-.248-.109-.519.015-.511.255 0 .1.046.162.147.209.062.03.062.03.015.023-.224-.047-.278-.325-.1-.503.216-.217.673-.124.828.178.062.124.07.371.015.526-.132.34-.503.518-.882.418-.255-.07-.363-.14-.673-.457-.541-.557-.75-.665-1.524-.781l-.147-.023.163-.155z" fill="#FE007A"/>
    <path fill-rule="evenodd" clip-rule="evenodd" d="M5.263 4.708c1.803 2.189 4.58 5.593 4.72 5.778.115.155.069.302-.124.41a1.184 1.184 0 0 1-.441.124.558.558 0 0 1-.372-.162c-.07-.07-.371-.51-1.052-1.57-.518-.813-.96-1.486-.967-1.494-.03-.015-.03-.015.913 1.671.596 1.06.79 1.44.79 1.486 0 .1-.032.154-.156.293-.209.233-.301.496-.371 1.045-.077.611-.286 1.044-.882 1.78-.348.432-.402.51-.487.688-.109.216-.14.34-.155.619-.015.293.016.48.1.758.078.247.163.41.372.727.178.278.286.487.286.564 0 .062.016.062.294 0 .665-.154 1.215-.417 1.516-.742.186-.201.232-.31.232-.588 0-.178-.007-.217-.054-.325-.077-.17-.224-.31-.541-.526-.418-.286-.596-.518-.642-.828-.039-.263.007-.44.24-.928.24-.503.301-.712.34-1.222.023-.325.062-.457.155-.557.1-.109.185-.147.425-.178.395-.054.65-.155.851-.348a.727.727 0 0 0 .263-.565l.008-.178-.1-.108C10.06 9.914 5.023 4.375 5 4.375c-.007 0 .116.147.263.333zm2.375 11a.32.32 0 0 0-.1-.425c-.132-.085-.333-.047-.333.07 0 .03.016.061.062.077.07.038.077.077.023.162s-.054.163.016.217c.108.085.255.038.332-.1zM10.771 11.639c-.185.054-.363.255-.417.456-.031.124-.016.349.038.418.085.108.163.14.38.14.425 0 .788-.186.827-.41.039-.186-.124-.441-.348-.558a.787.787 0 0 0-.48-.046zm.495.387c.062-.093.04-.194-.077-.263-.209-.132-.526-.023-.526.178 0 .1.163.209.317.209.1 0 .24-.062.287-.124z" fill="#FE007A"/>
</svg>
