<svg width="45" height="45" viewBox="0 0 45 45" fill="none" xmlns="http://www.w3.org/2000/svg">
    <circle cx="22.5" cy="22.5" r="22.5" fill="#FDF2F7"/>
    <path d="M18.19 14.016c-.292-.041-.305-.055-.166-.07.264-.041.877.015 1.309.112 1.002.237 1.907.85 2.868 1.922l.25.292.363-.056c1.546-.25 3.133-.055 4.456.557.362.168.933.502 1.002.585.028.028.07.21.098.39.097.655.056 1.142-.153 1.518-.112.209-.112.265-.042.446.056.139.223.236.376.236.334 0 .682-.529.85-1.267l.069-.292.125.139c.71.794 1.267 1.894 1.351 2.673l.028.21-.125-.182c-.21-.32-.404-.529-.669-.71-.473-.32-.975-.418-2.297-.487-1.198-.07-1.88-.167-2.549-.39-1.142-.376-1.726-.863-3.077-2.66-.599-.793-.975-1.225-1.35-1.587-.822-.794-1.644-1.212-2.716-1.379z" fill="#FE007A"/>
    <path d="M28.565 15.784c.028-.53.097-.877.25-1.198.056-.125.112-.236.126-.236.014 0-.014.097-.056.209-.111.306-.125.738-.056 1.225.098.626.14.71.808 1.392.306.32.668.724.808.892l.236.306-.236-.223c-.293-.278-.961-.808-1.114-.877-.098-.056-.112-.056-.181.014-.056.055-.07.139-.07.543-.014.626-.097 1.016-.306 1.42-.112.209-.126.167-.028-.07.07-.18.083-.264.083-.863 0-1.211-.139-1.504-.988-1.991-.21-.125-.571-.306-.78-.404a3.095 3.095 0 0 1-.376-.18c.028-.029.85.208 1.17.347.487.195.57.21.626.195.042-.042.07-.153.084-.501zM18.762 17.86c-.585-.808-.96-2.061-.877-2.994l.027-.293.14.028c.25.042.682.209.89.334.558.335.808.794 1.045 1.936.07.334.167.724.21.85.069.208.333.695.556 1.002.153.223.056.334-.292.306-.53-.055-1.24-.543-1.7-1.17zM27.854 23.916c-2.757-1.114-3.731-2.075-3.731-3.704 0-.237.014-.432.014-.432.013 0 .11.084.236.181.557.446 1.184.64 2.924.892 1.017.153 1.602.264 2.13.445 1.686.557 2.73 1.699 2.98 3.245.07.445.029 1.294-.083 1.74-.097.348-.376.989-.445 1.003-.014 0-.042-.07-.042-.181-.028-.585-.32-1.142-.808-1.574-.585-.501-1.337-.877-3.175-1.615zM25.905 24.376a3.301 3.301 0 0 0-.139-.585l-.07-.209.126.153c.18.21.32.46.445.808.098.264.098.348.098.78 0 .417-.014.515-.098.752a2.52 2.52 0 0 1-.584.933c-.502.515-1.156.793-2.09.919-.166.014-.64.055-1.057.083-1.045.056-1.741.167-2.368.39-.083.028-.167.056-.18.042-.029-.028.403-.279.751-.446.488-.237.989-.362 2.089-.557.543-.083 1.1-.195 1.24-.25 1.378-.432 2.06-1.504 1.837-2.813z" fill="#FE007A"/>
    <path d="M27.173 26.618c-.362-.794-.446-1.546-.251-2.256.028-.07.056-.14.084-.14.027 0 .11.042.194.098.168.111.516.306 1.407.794 1.128.613 1.768 1.086 2.214 1.629.39.474.627 1.017.738 1.685.07.376.028 1.281-.07 1.657-.306 1.184-1.002 2.13-2.019 2.673a1.92 1.92 0 0 1-.292.14c-.014 0 .041-.14.125-.307.334-.71.376-1.392.125-2.158-.153-.473-.473-1.044-1.114-2.005-.765-1.114-.947-1.407-1.141-1.81zM16.799 30.879c1.03-.864 2.297-1.476 3.467-1.671.501-.084 1.337-.056 1.796.07.738.195 1.406.612 1.755 1.127.334.502.487.933.64 1.894.056.376.125.766.14.85.11.5.334.89.612 1.1.432.32 1.184.334 1.922.055.125-.041.236-.083.236-.07.028.029-.348.28-.598.405a1.972 1.972 0 0 1-1.003.236c-.668 0-1.24-.348-1.699-1.044-.097-.14-.292-.543-.46-.92-.487-1.127-.737-1.461-1.308-1.837-.502-.32-1.142-.39-1.63-.153-.64.306-.807 1.128-.361 1.629.18.209.515.376.793.418a.85.85 0 0 0 .961-.85c0-.334-.125-.529-.46-.682-.445-.195-.932.028-.919.46 0 .18.084.292.265.375.111.056.111.056.028.042-.404-.083-.501-.585-.181-.905.39-.39 1.211-.223 1.49.32.111.223.125.669.028.947-.237.613-.905.933-1.588.752-.46-.125-.654-.25-1.211-.822-.975-1.002-1.35-1.197-2.743-1.406l-.265-.042.293-.278z" fill="#FE007A"/>
    <path fill-rule="evenodd" clip-rule="evenodd" d="M9.474 8.474c3.245 3.94 8.244 10.067 8.494 10.401.209.279.125.544-.223.738-.195.112-.598.223-.793.223-.223 0-.488-.111-.669-.292-.125-.125-.668-.92-1.894-2.827a181.154 181.154 0 0 0-1.74-2.687c-.056-.028-.056-.028 1.643 3.008 1.072 1.907 1.42 2.59 1.42 2.673 0 .181-.055.279-.278.53-.376.417-.543.89-.668 1.879-.14 1.1-.516 1.88-1.588 3.203-.627.78-.724.919-.877 1.239-.195.39-.25.613-.279 1.114-.028.53.028.863.181 1.365.14.445.293.738.669 1.308.32.502.515.878.515 1.017 0 .111.028.111.529 0 1.198-.279 2.186-.752 2.73-1.337.334-.362.417-.557.417-1.058 0-.32-.014-.39-.097-.585-.14-.306-.404-.557-.975-.947-.752-.515-1.072-.933-1.156-1.49-.07-.473.014-.793.432-1.67.431-.906.543-1.282.612-2.2.042-.586.112-.822.279-1.003.18-.195.334-.265.766-.32.71-.098 1.17-.28 1.532-.627.32-.293.459-.585.473-1.017l.014-.32-.181-.195C18.107 17.845 9.042 7.875 9 7.875c-.014 0 .208.265.473.599zm4.275 19.8a.575.575 0 0 0-.181-.765c-.237-.153-.599-.084-.599.125 0 .056.028.112.112.14.125.069.139.139.041.292-.097.153-.097.292.028.39.195.153.46.07.599-.181zM19.389 20.95c-.335.098-.655.46-.752.822-.056.222-.028.626.07.752.152.194.292.25.681.25.766 0 1.42-.334 1.49-.738.07-.334-.222-.794-.626-1.002-.21-.112-.64-.154-.863-.084zm.89.696c.112-.167.07-.348-.139-.473-.376-.237-.947-.042-.947.32 0 .181.293.376.571.376.181 0 .432-.111.516-.223z" fill="#FE007A"/>
</svg>
