<?xml version="1.0" standalone="no"?>
<!DOCTYPE svg PUBLIC "-//W3C//DTD SVG 20010904//EN"
 "http://www.w3.org/TR/2001/REC-SVG-20010904/DTD/svg10.dtd">
<svg version="1.0" xmlns="http://www.w3.org/2000/svg"
 width="900.000000pt" height="520.000000pt" viewBox="0 0 900.000000 520.000000"
 preserveAspectRatio="xMidYMid meet">

<g transform="translate(0.000000,520.000000) scale(0.100000,-0.100000)"
fill="#000000" stroke="none">
<path d="M4300 5194 c-266 -30 -430 -64 -611 -124 -761 -255 -1364 -858 -1618
-1618 -49 -146 -85 -300 -108 -462 -24 -172 -24 -538 0 -705 100 -687 459
-1290 1012 -1702 539 -400 1202 -569 1880 -478 1067 143 1939 963 2155 2025
35 173 44 282 44 510 0 319 -34 540 -124 811 -308 920 -1112 1590 -2070 1724
-108 15 -482 28 -560 19z m483 -870 c123 -22 213 -52 342 -115 245 -118 450
-315 561 -539 147 -294 118 -643 -75 -903 -56 -75 -208 -199 -351 -284 -153
-91 -214 -142 -269 -224 -39 -58 -47 -78 -71 -177 -8 -31 -20 -48 -43 -62 -30
-19 -53 -20 -377 -20 -324 0 -347 1 -377 20 -45 27 -57 78 -49 206 11 192 64
301 226 465 119 120 175 160 347 248 206 106 275 189 276 332 1 82 -30 141
-106 198 -117 88 -256 119 -413 90 -132 -24 -231 -98 -398 -299 -90 -109 -118
-127 -174 -111 -31 9 -440 316 -489 367 -18 18 -33 43 -33 54 0 91 256 400
437 529 286 204 680 289 1036 225z m94 -2554 c47 -31 48 -42 48 -410 0 -374
-1 -384 -53 -411 -36 -20 -707 -20 -743 -1 -53 28 -54 33 -57 377 -2 176 -1
339 3 362 7 48 43 90 83 96 15 3 178 4 362 3 275 -1 339 -4 357 -16z"/>
</g>
</svg>
