<svg width="45" height="45" viewBox="0 0 45 45" fill="none" xmlns="http://www.w3.org/2000/svg">
<circle cx="22.5" cy="22.5" r="22.5" fill="black"/>
<path d="M22.5 35C29.4036 35 35 29.4036 35 22.5C35 15.5964 29.4036 10 22.5 10C15.5964 10 10 15.5964 10 22.5C10 29.4036 15.5964 35 22.5 35Z" fill="white"/>
<path d="M11.625 23.6972C11.625 22.3547 12.9232 21.3814 14.2251 21.7096C16.592 22.3061 20.1016 23.0621 22.6875 23.0621C25.222 23.0621 28.5559 22.3359 30.8479 21.7453C32.1287 21.4153 33.3994 22.4287 33.3065 23.7481L33.2414 24.6727C33.2069 25.1626 32.9826 25.6225 32.6064 25.9381C29.0171 28.9494 25.6962 30.1947 22.6875 30.2496C19.5696 30.3065 15.9514 28.7305 12.3811 26.027C11.8978 25.6611 11.625 25.0845 11.625 24.4784V23.6972Z" fill="#1B636F"/>
<path d="M11.625 23.3222C11.625 21.9797 12.9232 21.0064 14.2251 21.3346C16.592 21.9311 20.1016 22.6871 22.6875 22.6871C25.222 22.6871 28.5559 21.9609 30.8479 21.3703C32.1287 21.0403 33.3994 22.0537 33.3065 23.3731L33.2414 24.2977C33.2069 24.7876 32.9826 25.2475 32.6064 25.5631C29.0171 28.5744 25.6962 29.8197 22.6875 29.8746C19.5696 29.9315 15.9514 28.3555 12.3811 25.652C11.8978 25.2861 11.625 24.7095 11.625 24.1034V23.3222Z" fill="#01A9BD"/>
<path d="M19.125 24H17V27H19.125V24Z" fill="#3BDDD7"/>
<path d="M18.75 24.375H17.375V24.875H18.75V24.375Z" fill="white"/>
<path d="M18.75 25.25H17.375V25.75H18.75V25.25Z" fill="white"/>
<path d="M18.75 26.125H17.375V26.625H18.75V26.125Z" fill="white"/>
<path d="M27.5 24H25.375V27H27.5V24Z" fill="#3BDDD7"/>
<path d="M27.125 24.375H25.75V24.875H27.125V24.375Z" fill="white"/>
<path d="M27.125 25.25H25.75V25.75H27.125V25.25Z" fill="white"/>
<path d="M27.125 26.125H25.75V26.625H27.125V26.125Z" fill="white"/>
</svg>
