<svg width="25" height="25" viewBox="0 0 25 25" fill="none" xmlns="http://www.w3.org/2000/svg">
    <circle cx="12.5" cy="12.5" r="12.5" fill="#000"/>
    <path d="M12.5 19.445a6.945 6.945 0 1 0 0-13.89 6.945 6.945 0 0 0 0 13.89z" fill="#fff"/>
    <path d="M6.458 13.165c0-.746.721-1.286 1.445-1.104 1.315.331 3.265.751 4.701.751 1.408 0 3.26-.403 4.534-.731.711-.183 1.417.38 1.365 1.113l-.036.513c-.019.272-.143.528-.352.703-1.994 1.673-3.84 2.365-5.51 2.395-1.733.032-3.743-.844-5.727-2.345a1.075 1.075 0 0 1-.42-.86v-.435z" fill="#1B636F"/>
    <path d="M6.458 12.957c0-.746.721-1.286 1.445-1.104 1.315.331 3.265.751 4.701.751 1.408 0 3.26-.403 4.534-.731.711-.183 1.417.38 1.365 1.113l-.036.513c-.019.272-.143.528-.352.703-1.994 1.673-3.84 2.365-5.51 2.395-1.733.032-3.743-.844-5.727-2.346a1.075 1.075 0 0 1-.42-.86v-.434z" fill="#01A9BD"/>
    <path d="M10.625 13.333h-1.18V15h1.18v-1.667z" fill="#3BDDD7"/>
    <path d="M10.417 13.542h-.764v.278h.764v-.278zM10.417 14.027h-.764v.278h.764v-.278zM10.417 14.514h-.764v.277h.764v-.277z" fill="#fff"/>
    <path d="M15.278 13.333h-1.18V15h1.18v-1.667z" fill="#3BDDD7"/>
    <path d="M15.07 13.542h-.764v.278h.764v-.278zM15.07 14.027h-.764v.278h.764v-.278zM15.07 14.514h-.764v.277h.764v-.277z" fill="#fff"/>
</svg>
