<svg width="25" height="25" viewBox="0 0 25 25" fill="none" xmlns="http://www.w3.org/2000/svg">
<circle cx="12.5" cy="12.5" r="12.5" fill="#2270C5"/>
<path d="M15.7838 14.1607C15.7838 12.6449 14.7503 12.1251 12.6832 11.9079C11.2067 11.7343 10.9114 11.3881 10.9114 10.782C10.9114 10.1759 11.404 9.78606 12.3879 9.78606C13.2738 9.78606 13.7664 10.046 14.0121 10.6957C14.0617 10.8256 14.2093 10.9119 14.357 10.9119H15.1448C15.3421 10.9119 15.4897 10.782 15.4897 10.6084V10.5647C15.2925 9.61141 14.4066 8.87538 13.275 8.78909V7.7495C13.275 7.57589 13.1273 7.44594 12.8817 7.40332H12.1434C11.9461 7.40332 11.7985 7.53327 11.7501 7.7495V8.74543C10.2736 8.91904 9.33808 9.78502 9.33808 10.8683C9.33808 12.2977 10.322 12.8612 12.3891 13.0774C13.7675 13.2936 14.2105 13.5535 14.2105 14.2469C14.2105 14.9403 13.5219 15.4165 12.5864 15.4165C11.3071 15.4165 10.8642 14.9403 10.7165 14.2906C10.6669 14.117 10.5193 14.0307 10.3716 14.0307H9.53534C9.33808 14.0307 9.19043 14.1607 9.19043 14.3343V14.3779C9.38769 15.4612 10.1744 16.2409 11.7985 16.4571V17.4967C11.7985 17.6703 11.9461 17.8003 12.1918 17.8429H12.9301C13.1273 17.8429 13.275 17.7129 13.3234 17.4967V16.4571C14.7987 16.2398 15.7838 15.3302 15.7838 14.1607Z" fill="white"/>
<path d="M10.1587 18.5735C6.59687 17.3281 4.76991 13.4595 6.09492 10.036C6.7799 8.16837 8.28685 6.74581 10.1587 6.07881C10.3418 5.99024 10.4327 5.85684 10.4327 5.6338V5.01162C10.4327 4.8334 10.3418 4.7 10.1587 4.65625C10.1127 4.65625 10.0218 4.65625 9.97573 4.70107C5.63791 6.03506 3.26296 10.5258 4.63291 14.7508C5.45488 17.2406 7.41885 19.153 9.97573 19.9534C10.1588 20.0419 10.3407 19.9534 10.3867 19.7751C10.4327 19.7303 10.4327 19.6866 10.4327 19.5969V18.9747C10.4327 18.8403 10.2957 18.6631 10.1587 18.5735ZM14.9985 4.7C14.8155 4.61143 14.6336 4.7 14.5875 4.87823C14.5415 4.92305 14.5415 4.9668 14.5415 5.05645V5.67862C14.5415 5.85684 14.6785 6.03399 14.8155 6.12364C18.3774 7.36905 20.2043 11.2376 18.8793 14.6612C18.1943 16.5287 16.6874 17.9513 14.8155 18.6183C14.6325 18.7069 14.5415 18.8403 14.5415 19.0633V19.6855C14.5415 19.8637 14.6325 19.9971 14.8155 20.0409C14.8615 20.0409 14.9525 20.0409 14.9985 19.996C19.3363 18.6621 21.7113 14.1713 20.3413 9.94631C19.5194 7.4128 17.5105 5.5004 14.9985 4.7Z" fill="white"/>
</svg>
