<svg width="45" height="45" viewBox="0 0 45 45" fill="none" xmlns="http://www.w3.org/2000/svg">
<circle cx="22.5" cy="22.5" r="22.5" fill="#2270C5"/>
<path d="M28.4111 25.4903C28.4111 22.762 26.5507 21.8264 22.83 21.4353C20.1723 21.1228 19.6408 20.4997 19.6408 19.4087C19.6408 18.3178 20.5274 17.6161 22.2984 17.6161C23.893 17.6161 24.7796 18.0839 25.2219 19.2534C25.3112 19.4873 25.577 19.6427 25.8427 19.6427H27.2609C27.6159 19.6427 27.8817 19.4087 27.8817 19.0962V19.0177C27.5266 17.3017 25.932 15.9769 23.8952 15.8215V13.9503C23.8952 13.6378 23.6294 13.4039 23.1872 13.3271H21.8583C21.5033 13.3271 21.2375 13.5611 21.1503 13.9503V15.7429C18.4926 16.0554 16.8087 17.6142 16.8087 19.5641C16.8087 22.137 18.5798 23.1513 22.3006 23.5405C24.7818 23.9297 25.5791 24.3975 25.5791 25.6457C25.5791 26.8938 24.3395 27.7508 22.6556 27.7508C20.353 27.7508 19.5557 26.8938 19.2899 25.7243C19.2006 25.4118 18.9349 25.2564 18.6691 25.2564H17.1638C16.8087 25.2564 16.543 25.4903 16.543 25.8028V25.8814C16.898 27.8313 18.314 29.2347 21.2375 29.624V31.4952C21.2375 31.8077 21.5033 32.0416 21.9455 32.1184H23.2743C23.6294 32.1184 23.8952 31.8844 23.9823 31.4952V29.624C26.6379 29.2329 28.4111 27.5955 28.4111 25.4903Z" fill="white"/>
<path d="M18.2857 33.4328C11.8743 31.1911 8.58578 24.2277 10.9708 18.0653C12.2038 14.7037 14.9163 12.143 18.2857 10.9425C18.6151 10.783 18.7789 10.5429 18.7789 10.1414V9.02151C18.7789 8.70071 18.6151 8.46059 18.2857 8.38184C18.2028 8.38184 18.0391 8.38184 17.9563 8.46252C10.1482 10.8637 5.87328 18.947 8.33919 26.552C9.81874 31.0336 13.3539 34.4759 17.9563 35.9166C18.2857 36.0761 18.6132 35.9166 18.696 35.5958C18.7789 35.5151 18.7789 35.4364 18.7789 35.275V34.1551C18.7789 33.9131 18.5323 33.5942 18.2857 33.4328ZM26.9973 8.46059C26.6678 8.30116 26.3404 8.46059 26.2575 8.78139C26.1747 8.86207 26.1747 8.94083 26.1747 9.10219V10.2221C26.1747 10.5429 26.4212 10.8618 26.6678 11.0231C33.0792 13.2649 36.3678 20.2283 33.9827 26.3907C32.7498 29.7523 30.0373 32.3129 26.6678 33.5135C26.3384 33.673 26.1747 33.9131 26.1747 34.3146V35.4345C26.1747 35.7553 26.3384 35.9954 26.6678 36.0741C26.7507 36.0741 26.9144 36.0741 26.9973 35.9935C34.8053 33.5923 39.0803 25.509 36.6143 17.9039C35.1348 13.3436 31.5188 9.9013 26.9973 8.46059Z" fill="white"/>
</svg>
