<svg width="45" height="45" viewBox="0 0 45 45" fill="none" xmlns="http://www.w3.org/2000/svg">
<circle cx="22.5" cy="22.5" r="22.5" fill="#44C4A0"/>
<path fill-rule="evenodd" clip-rule="evenodd" d="M8.52068 23.6845L13.5512 13.1179C13.5677 13.0823 13.5941 13.0522 13.6273 13.0313C13.6604 13.0104 13.6989 12.9995 13.7381 13H30.852C30.891 12.9999 30.9292 13.011 30.9621 13.0321C30.995 13.0531 31.0211 13.0832 31.0373 13.1187L36.0678 23.6853C36.087 23.7246 36.093 23.769 36.0851 23.812C36.0772 23.855 36.0558 23.8943 36.0239 23.9243L22.4377 36.9423C22.3991 36.9793 22.3477 37 22.2943 37C22.2408 37 22.1894 36.9793 22.1508 36.9423L8.56457 23.9235C8.53271 23.8935 8.51127 23.8542 8.50337 23.8112C8.49547 23.7682 8.50154 23.7238 8.52068 23.6845ZM22.3142 24.8069C23.4384 24.8069 23.9423 24.7768 24.0398 24.7695L24.0366 24.7687C27.4854 24.6158 30.0579 24.0144 30.0579 23.2958C30.0579 22.5773 27.4845 21.9758 24.0366 21.8222V24.1712C23.9399 24.1802 23.4026 24.2249 22.3297 24.2249C21.4356 24.2249 20.7886 24.1867 20.5626 24.1704V21.8206C17.1073 21.975 14.5283 22.5757 14.5283 23.2958C14.5283 24.016 17.1073 24.6175 20.5626 24.7695C20.7853 24.78 21.4201 24.8069 22.3142 24.8069ZM24.0398 21.5784V21.5792L24.039 21.5784C24.0393 21.5784 24.0396 21.5784 24.0398 21.5784ZM24.0398 19.4764V21.5784C27.9434 21.7589 30.8764 22.5327 30.8764 23.46C30.8764 24.3874 27.9405 25.1612 24.039 25.3409V32.0816H20.5618V25.3433C16.6513 25.1629 13.7106 24.3891 13.7106 23.4608C13.7106 22.5326 16.6513 21.758 20.5618 21.5784V19.4764H15.7507V16.2699H28.8517V19.4764H24.0398Z" fill="white"/>
</svg>
