<svg width="40" height="40" viewBox="0 0 40 40" fill="none" xmlns="http://www.w3.org/2000/svg">
    <path d="M20 40c11.046 0 20-8.954 20-20S31.046 0 20 0 0 8.954 0 20s8.954 20 20 20z" fill="#131313"/>
    <path fill-rule="evenodd" clip-rule="evenodd" d="M21.521 31.5h-2.347l1.722-3.05c.238-.422.23-.94-.022-1.353l-2.274-3.74a1.337 1.337 0 0 0-1.143-.643H13.19c-.459 0-.886.235-1.13.623l-1.82 2.882-1.135-2.055 4.105-7.216h8.256l4.282 7.12-4.226 7.432zm1.538 0 3.85-6.77c.24-.42.233-.937-.016-1.35l-4.282-7.121a1.337 1.337 0 0 0-1.146-.648h-8.256c-.48 0-.924.258-1.162.676l-3.7 6.505-1.185-2.146a1.337 1.337 0 0 1 0-1.292L12.773 9.19c.236-.426.684-.691 1.17-.691h11.81c.476 0 .916.253 1.155.665l5.907 10.163c.241.416.241.928 0 1.344l-5.907 10.163c-.239.412-.68.665-1.156.665H23.06zm-3.327-3.708L17.638 31.5h-3.694c-.487 0-.935-.265-1.17-.69l-1.797-3.255 2.212-3.504h4.268l2.275 3.741z" fill="url(#y682u0lgfa)"/>
    <defs>
        <linearGradient id="y682u0lgfa" x1="25.855" y1="8.162" x2="12.246" y2="31.701" gradientUnits="userSpaceOnUse">
            <stop stop-color="#FF01F9"/>
            <stop offset="1" stop-color="#FFDB00"/>
        </linearGradient>
    </defs>
</svg>
