<svg width="45" height="45" fill="none" xmlns="http://www.w3.org/2000/svg">
    <circle cx="22.5" cy="22.5" r="22.5" fill="#0B233C"/>
    <path d="M12.024 16.003c1.072 0 2.153-.013 3.234.017.103.004.245.244.292.399.87 2.87 1.733 5.744 2.625 8.716.584-1.33 1.158-2.573 1.673-3.839.49-1.21 1.304-1.969 2.638-1.96 1.334.008 2.136.793 2.608 2.003.49 1.244 1.03 2.467 1.592 3.796.206-.665.369-1.24.562-1.806.038-.111.184-.261.283-.265 1.06-.018 2.119-.013 3.251-.013-.236.785-.454 1.527-.682 2.265-.403 1.312-.81 2.625-1.21 3.942-.201.66-.617 1.004-1.334.995-2.947-.03-2.488.339-3.62-2.398-.48-1.163-.96-2.33-1.48-3.599-.523 1.287-1.012 2.475-1.488 3.672-1.12 2.814-.717 2.295-3.891 2.278-.33 0-.85-.43-.952-.76-1.412-4.427-2.763-8.88-4.123-13.327-.008-.022.009-.048.022-.116zM27.857 21.317c.536-1.762 1.055-3.47 1.583-5.173.017-.06.124-.133.193-.133 1.106-.008 2.209-.004 3.367-.004-.55 1.754-1.081 3.457-1.626 5.156-.021.064-.12.15-.18.15-1.09.009-2.183.005-3.337.005z" fill="#fff"/>
</svg>
