<svg width="45" height="45" viewBox="0 0 45 45" fill="none" xmlns="http://www.w3.org/2000/svg">
<circle cx="22.5" cy="22.5" r="22.5" fill="#F8F8F8"/>
<path d="M29.9237 14H32.9589L26.6425 20.2541C24.355 22.5177 20.6464 22.5177 18.3573 20.2541L12.0385 14H15.0761L19.8749 18.7508C20.5741 19.4399 21.5164 19.8262 22.4981 19.8262C23.4797 19.8262 24.422 19.4399 25.1212 18.7508L29.9237 14Z" fill="#22282E"/>
<path d="M15.0372 31.3907H12L18.3574 25.0981C20.6449 22.8345 24.3535 22.8345 26.6426 25.0981L33 31.3907H29.9648L25.125 26.6014C24.4258 25.9122 23.4835 25.5259 22.5018 25.5259C21.5201 25.5259 20.5779 25.9122 19.8787 26.6014L15.0372 31.3907Z" fill="#22282E"/>
</svg>
