<svg width="25" height="25" viewBox="0 0 25 25" fill="none" xmlns="http://www.w3.org/2000/svg">
<circle cx="12.5" cy="12.5" r="12.5" fill="#F8F8F8"/>
<path d="M16.6243 7.77734H18.3104L14.8013 11.2518C13.5305 12.5094 11.4702 12.5094 10.1985 11.2518L6.68799 7.77734H8.37555L11.0416 10.4167C11.43 10.7995 11.9535 11.0141 12.4989 11.0141C13.0443 11.0141 13.5677 10.7995 13.9562 10.4167L16.6243 7.77734Z" fill="#22282E"/>
<path d="M8.35409 17.4391H6.66675L10.1986 13.9432C11.4694 12.6856 13.5298 12.6856 14.8015 13.9432L18.3334 17.4391H16.6472L13.9584 14.7783C13.57 14.3955 13.0465 14.1809 12.5011 14.1809C11.9557 14.1809 11.4322 14.3955 11.0438 14.7783L8.35409 17.4391Z" fill="#22282E"/>
</svg>
