<svg width="45" height="45" viewBox="0 0 45 45" fill="none" xmlns="http://www.w3.org/2000/svg">
    <path fill-rule="evenodd" clip-rule="evenodd" d="M22.5 0C34.925 0 45 10.075 45 22.5S34.925 45 22.5 45 0 34.925 0 22.5 10.075 0 22.5 0z" fill="#006AE3"/>
    <path d="M21.573 31.986v-18.72h2.038v18.72h-2.038z" fill="#fff"/>
    <path d="m31.95 19.503-6.296 1.67-1.404-6.534 1.872-.423.738 3.096s1.701-2.79-.566-5.679c-1.337-1.485-1.971-1.548-3.47-1.782-1.319-.189-4.383.256-5.297 3.834-.387 2.304.05 4.01 3.02 6.242l-.166 2.483s-3.317-2.335-4.172-3.973c-.662-1.296-1.795-3.857.252-7.42 1.103-1.783 3.276-3.493 7.106-3.313 1.925.081 6.628 2.435 5.899 7.934-.126 1.03-.662 2.403-.662 2.403l2.584-.576.562 2.038zM28.355 34.15c-1.152 1.751-3.371 3.403-7.192 3.124-1.925-.13-6.56-2.61-5.688-8.087.154-1.026.725-2.38.725-2.38l-2.596.504-.509-2.048 6.34-1.503 1.234 6.57-1.886.374-.657-3.119s-1.773 2.74.414 5.693c1.296 1.52 1.926 1.597 3.425 1.872 1.309.225 4.387-.144 5.395-3.695.445-2.29.054-4.01-2.853-6.322l.234-2.48s3.253 2.421 4.064 4.082c.62 1.318 1.687 3.91-.45 7.416z" fill="#fff"/>
</svg>
