<svg width="25" height="25" viewBox="0 0 25 25" fill="none" xmlns="http://www.w3.org/2000/svg">
    <path fill-rule="evenodd" clip-rule="evenodd" d="M12.5 0C19.402 0 25 5.598 25 12.5S19.402 25 12.5 25 0 19.402 0 12.5 5.598 0 12.5 0z" fill="#006AE3"/>
    <path d="M11.985 17.77V7.37h1.133v10.4h-1.133z" fill="#fff"/>
    <path d="m17.75 10.835-3.498.927-.78-3.63 1.04-.235.41 1.72s.945-1.55-.315-3.155c-.742-.825-1.095-.86-1.927-.99-.732-.105-2.435.143-2.943 2.13-.215 1.28.028 2.228 1.678 3.468l-.092 1.38s-1.843-1.298-2.318-2.208c-.368-.72-.998-2.142.14-4.122.612-.99 1.82-1.94 3.947-1.84 1.07.045 3.683 1.352 3.278 4.407-.07.573-.367 1.335-.367 1.335l1.434-.32.313 1.133zM15.752 18.973c-.64.972-1.872 1.89-3.995 1.735-1.07-.073-3.645-1.45-3.16-4.493.085-.57.403-1.322.403-1.322l-1.443.28-.282-1.138 3.522-.835.685 3.65-1.047.207-.365-1.732s-.985 1.523.23 3.163c.72.845 1.07.887 1.902 1.04.728.125 2.438-.08 2.998-2.053.247-1.273.03-2.228-1.585-3.513l.13-1.377s1.807 1.345 2.257 2.267c.345.733.938 2.173-.25 4.12z" fill="#fff"/>
</svg>
