<svg width="80" height="80" viewBox="0 0 80 80" fill="none" xmlns="http://www.w3.org/2000/svg">
<path fill-rule="evenodd" clip-rule="evenodd" d="M78.4965 35.3047C77.8511 36.9251 77.1831 38.6022 77.1831 39.9992C77.1831 41.3988 77.8503 43.0781 78.5003 44.7047L78.5035 44.7127C79.5041 47.2283 80.5386 49.829 79.6802 52.3641C78.7833 55.0087 76.1764 56.6271 73.8765 58.0531C72.3364 59.007 70.882 59.9083 70.0845 60.9609C69.2699 62.0349 68.8154 63.6549 68.3369 65.3704L68.3353 65.3758C67.5966 68.0172 66.8329 70.748 64.5209 72.362C62.7492 73.5988 60.5677 73.7584 58.868 73.7584H58.8663C58.0842 73.7584 57.2817 73.7192 56.4758 73.6799L56.4652 73.6794C55.7106 73.6416 54.9577 73.6054 54.2237 73.6054C53.0523 73.6054 52.1845 73.7057 51.4916 73.9212C50.2413 74.311 48.9173 75.3422 47.5195 76.4359C45.3791 78.1069 42.9523 80 39.999 80C37.044 80 34.6189 78.1069 32.4802 76.4359L32.4641 76.4233C31.0688 75.3359 29.7519 74.3095 28.5047 73.9212C27.8118 73.7074 26.9457 73.6054 25.7743 73.6054C25.0701 73.6054 24.3501 73.6401 23.6295 73.6748L23.5328 73.6794C22.725 73.7205 21.9172 73.7584 21.1317 73.7584C19.4304 73.7584 17.2505 73.5988 15.4789 72.362C13.1675 70.7501 12.4035 68.0202 11.665 65.3811L11.6629 65.3737C11.1844 63.6566 10.7299 62.0349 9.91524 60.9626C9.11774 59.91 7.66165 59.007 6.12325 58.0531L6.12254 58.0527C3.82111 56.6252 1.21467 55.0085 0.319507 52.3624C-0.538819 49.8273 0.49566 47.2266 1.49626 44.7111L1.49946 44.703L1.49954 44.7028C2.14609 43.0796 2.81491 41.4004 2.81491 40.0008C2.81491 38.6029 2.14772 36.9262 1.5019 35.3031L1.49946 35.297L1.49626 35.2889C0.49566 32.7734 -0.538819 30.1727 0.319507 27.6376C1.21477 24.9929 3.82165 23.3762 6.12154 21.9502L6.13036 21.9447C7.66721 20.9912 9.11755 20.0913 9.91352 19.0407C10.727 17.9683 11.1796 16.3499 11.659 14.6356L11.6612 14.628L11.6627 14.6225C12.4014 11.9812 13.1651 9.25034 15.4772 7.638C17.2505 6.39954 19.4321 6.24165 21.1351 6.24165C21.8852 6.24165 22.6557 6.2778 23.4286 6.31407L23.5328 6.31895C24.2857 6.35678 25.0369 6.39296 25.7709 6.39296C26.944 6.39296 27.8135 6.29263 28.5064 6.07718C29.7601 5.68738 31.0824 4.65615 32.4819 3.56243L32.4865 3.55889C34.6257 1.89038 37.0495 0 40.0007 0C42.9539 0 45.3789 1.89287 47.5175 3.56218L47.5178 3.56243C48.9156 4.65451 50.2396 5.68738 51.4916 6.07718C52.1862 6.29263 53.054 6.39296 54.2271 6.39296C54.9314 6.39296 55.653 6.35814 56.3738 6.32336L56.4652 6.31895C57.2713 6.27948 58.0791 6.24165 58.8629 6.24165C60.5642 6.24165 62.7458 6.39954 64.5174 7.63636C66.8317 9.25074 67.5953 11.9809 68.3342 14.6228L68.3351 14.6263L68.3373 14.6339C68.8167 16.3482 69.2693 17.9667 70.0845 19.0391C70.8784 20.0848 72.3189 20.9795 73.8461 21.928L73.8765 21.9469L73.8785 21.9482C76.1779 23.3738 78.7852 24.9904 79.6802 27.6359C80.5395 30.1737 79.5036 32.7773 78.5003 35.2953L78.4965 35.3047Z" fill="url(#paint0_linear_11108_43721)"/>
<path d="M28.5 41.5L33.8802 47.2941C34.5026 47.9643 35.5464 48.0143 36.23 47.4067L53 32.5" stroke="white" stroke-width="5" stroke-linecap="round"/>
<defs>
<linearGradient id="paint0_linear_11108_43721" x1="40" y1="0" x2="40" y2="80" gradientUnits="userSpaceOnUse">
<stop stop-color="#50BB35"/>
<stop offset="1" stop-color="#265A19" stop-opacity="0.98"/>
</linearGradient>
</defs>
</svg>
