<svg width="16" height="10" viewBox="0 0 16 10" fill="none" xmlns="http://www.w3.org/2000/svg">
<path d="M15.8127 0.667109C15.8959 0.370633 15.627 0.0952417 15.3286 0.171427L11.3294 1.1926C11.0292 1.26926 10.9264 1.64345 11.1453 1.86275L11.9401 2.65895L7.07592 7.37453L4.85249 5.33438C4.49548 5.00636 3.9408 5.00922 3.58688 5.34065L0.287705 8.42969C-0.0823828 8.77598 -0.0974625 9.352 0.254275 9.71656C0.435777 9.9051 0.679595 10 0.92414 10C1.15252 10 1.38144 9.91692 1.56003 9.7495L4.22968 7.25026L6.4642 9.30061C6.82629 9.63312 7.38932 9.62524 7.74143 9.28342L13.2357 3.95692L14.0429 4.76554C14.259 4.98208 14.6284 4.88564 14.7111 4.59106L15.8127 0.667109Z" fill="#6EAD57"/>
</svg>
