<svg width="16" height="10" viewBox="0 0 16 10" fill="none" xmlns="http://www.w3.org/2000/svg">
<path d="M15.8127 9.33289C15.8959 9.62937 15.627 9.90476 15.3286 9.82857L11.3294 8.8074C11.0292 8.73074 10.9264 8.35655 11.1453 8.13725L11.9401 7.34105L7.07592 2.62547L4.85249 4.66562C4.49548 4.99364 3.9408 4.99078 3.58688 4.65935L0.287705 1.57031C-0.0823828 1.22402 -0.0974625 0.647997 0.254275 0.283443C0.435777 0.0948989 0.679595 -3.04338e-07 0.92414 -3.04338e-07C1.15252 -3.04338e-07 1.38144 0.0830818 1.56003 0.250497L4.22968 2.74974L6.4642 0.699387C6.82629 0.366884 7.38932 0.374761 7.74143 0.716576L13.2357 6.04308L14.0429 5.23446C14.259 5.01792 14.6284 5.11436 14.7111 5.40894L15.8127 9.33289Z" fill="#F06565"/>
</svg>
