<svg width="15" height="15" viewBox="0 0 15 15" fill="none" xmlns="http://www.w3.org/2000/svg">
<g id="Frame">
<path id="Vector" d="M5 4.375C5 5.03804 5.26339 5.67393 5.73223 6.14277C6.20107 6.61161 6.83696 6.875 7.5 6.875C8.16304 6.875 8.79893 6.61161 9.26777 6.14277C9.73661 5.67393 10 5.03804 10 4.375C10 3.71196 9.73661 3.07607 9.26777 2.60723C8.79893 2.13839 8.16304 1.875 7.5 1.875C6.83696 1.875 6.20107 2.13839 5.73223 2.60723C5.26339 3.07607 5 3.71196 5 4.375Z" stroke="white" stroke-width="1.5" stroke-linecap="round" stroke-linejoin="round"/>
<path id="Vector_2" d="M1.5625 10.625C1.5625 11.288 1.82589 11.9239 2.29473 12.3928C2.76357 12.8616 3.39946 13.125 4.0625 13.125C4.72554 13.125 5.36143 12.8616 5.83027 12.3928C6.29911 11.9239 6.5625 11.288 6.5625 10.625C6.5625 9.96196 6.29911 9.32607 5.83027 8.85723C5.36143 8.38839 4.72554 8.125 4.0625 8.125C3.39946 8.125 2.76357 8.38839 2.29473 8.85723C1.82589 9.32607 1.5625 9.96196 1.5625 10.625Z" stroke="white" stroke-width="1.5" stroke-linecap="round" stroke-linejoin="round"/>
<path id="Vector_3" d="M8.4375 10.625C8.4375 11.288 8.70089 11.9239 9.16973 12.3928C9.63857 12.8616 10.2745 13.125 10.9375 13.125C11.6005 13.125 12.2364 12.8616 12.7053 12.3928C13.1741 11.9239 13.4375 11.288 13.4375 10.625C13.4375 9.96196 13.1741 9.32607 12.7053 8.85723C12.2364 8.38839 11.6005 8.125 10.9375 8.125C10.2745 8.125 9.63857 8.38839 9.16973 8.85723C8.70089 9.32607 8.4375 9.96196 8.4375 10.625Z" stroke="white" stroke-width="1.5" stroke-linecap="round" stroke-linejoin="round"/>
</g>
</svg>
