<svg width="15" height="15" viewBox="0 0 15 15" fill="none" xmlns="http://www.w3.org/2000/svg">
<g id="Frame" clip-path="url(#clip0_859_1785)">
<path id="Vector" d="M1.875 11.8749C2.73011 11.3812 3.70011 11.1213 4.6875 11.1213C5.67489 11.1213 6.64489 11.3812 7.5 11.8749C8.35511 11.3812 9.32511 11.1213 10.3125 11.1213C11.2999 11.1213 12.2699 11.3812 13.125 11.8749" stroke="#EEEEEE" stroke-width="1.5" stroke-linecap="round" stroke-linejoin="round"/>
<path id="Vector_2" d="M1.875 3.74995C2.73011 3.25625 3.70011 2.99634 4.6875 2.99634C5.67489 2.99634 6.64489 3.25625 7.5 3.74995C8.35511 3.25625 9.32511 2.99634 10.3125 2.99634C11.2999 2.99634 12.2699 3.25625 13.125 3.74995" stroke="#EEEEEE" stroke-width="1.5" stroke-linecap="round" stroke-linejoin="round"/>
<path id="Vector_3" d="M1.875 3.75V11.875" stroke="#EEEEEE" stroke-width="1.5" stroke-linecap="round" stroke-linejoin="round"/>
<path id="Vector_4" d="M7.5 3.75V11.875" stroke="#EEEEEE" stroke-width="1.5" stroke-linecap="round" stroke-linejoin="round"/>
<path id="Vector_5" d="M13.125 3.75V11.875" stroke="#EEEEEE" stroke-width="1.5" stroke-linecap="round" stroke-linejoin="round"/>
</g>
<defs>
<clipPath id="clip0_859_1785">
<rect width="15" height="15" fill="white"/>
</clipPath>
</defs>
</svg>
