<svg width="130" height="87" viewBox="0 0 130 87" fill="none" xmlns="http://www.w3.org/2000/svg">
<path d="M62.8032 46.2573L62.8031 46.2575C58.88 52.4588 53.6557 59.1827 36.6547 69.5475C35.2798 70.3857 33.5415 70.3857 32.1666 69.5475C15.1662 59.1828 9.94126 52.4593 6.01754 46.2574C3.987 43.0479 1.73832 37.5141 1.75005 31.7533C1.76155 26.1028 3.93138 20.2174 10.8003 15.9034C17.4496 11.7276 22.7806 12.6494 26.5454 14.585C30.4332 16.5838 32.7524 19.7345 32.9622 20.0283C33.2719 20.4621 33.7946 20.7748 34.4107 20.7748C35.0268 20.7747 35.5494 20.4621 35.8591 20.0283C36.0689 19.7345 38.3881 16.5838 42.2759 14.585C46.0408 12.6494 51.3717 11.7276 58.021 15.9034C64.8899 20.2174 67.0598 26.1028 67.0712 31.7533C67.0828 37.5141 64.834 43.0478 62.8032 46.2573Z" fill="url(#paint0_linear_18695_513)" stroke="#3C3C3C" stroke-width="3.5"/>
<path d="M127 51.1L104.417 73.4486C103.594 74.2629 103.183 74.6701 102.708 74.8226C102.291 74.9568 101.842 74.9568 101.424 74.8226C100.95 74.6701 100.538 74.2629 99.7155 73.4486L91.9502 65.7639C91.1274 64.9495 90.7159 64.5424 90.2415 64.3898C89.8242 64.2557 89.3747 64.2557 88.9573 64.3898C88.4829 64.5424 88.0715 64.9495 87.2486 65.7639L68.8213 84M127 51.1H110.378M127 51.1V67.55" stroke="#6EAD57" stroke-width="5.67598" stroke-linecap="round" stroke-linejoin="round"/>
<ellipse cx="97.9105" cy="17.4569" rx="17.7374" ry="17.4569" fill="black"/>
<path d="M92.9477 20.8791C93.0432 20.7844 93.1714 20.7311 93.3056 20.7311H105.725C105.951 20.7311 106.065 21.0034 105.904 21.1603L103.45 23.5934C103.354 23.6881 103.226 23.7414 103.092 23.7414H90.6756C90.449 23.7414 90.3357 23.4691 90.4967 23.3122L92.9477 20.8791Z" fill="url(#paint1_linear_18695_513)"/>
<path d="M92.948 11.7859C93.0434 11.6912 93.1716 11.6379 93.3058 11.6379H105.725C105.951 11.6379 106.065 11.9103 105.904 12.0671L103.45 14.5003C103.354 14.595 103.226 14.6483 103.092 14.6483H90.6759C90.4493 14.6483 90.336 14.376 90.497 14.2191L92.948 11.7859Z" fill="url(#paint2_linear_18695_513)"/>
<path d="M103.45 16.3032C103.354 16.2084 103.226 16.1552 103.092 16.1552H90.6756C90.449 16.1552 90.3357 16.4275 90.4967 16.5844L92.9507 19.0175C93.0461 19.1122 93.1744 19.1655 93.3085 19.1655H105.728C105.954 19.1655 106.068 18.8932 105.907 18.7363L103.45 16.3032Z" fill="url(#paint3_linear_18695_513)"/>
<defs>
<linearGradient id="paint0_linear_18695_513" x1="-1.23477e-06" y1="42.4446" x2="62.6777" y2="62.0677" gradientUnits="userSpaceOnUse">
<stop stop-color="#F7931A"/>
<stop offset="1" stop-color="#C31AE3"/>
</linearGradient>
<linearGradient id="paint1_linear_18695_513" x1="104.539" y1="10.184" x2="96.0431" y2="26.5764" gradientUnits="userSpaceOnUse">
<stop stop-color="#00FFA3"/>
<stop offset="1" stop-color="#DC1FFF"/>
</linearGradient>
<linearGradient id="paint2_linear_18695_513" x1="100.781" y1="8.23646" x2="92.2855" y2="24.6288" gradientUnits="userSpaceOnUse">
<stop stop-color="#00FFA3"/>
<stop offset="1" stop-color="#DC1FFF"/>
</linearGradient>
<linearGradient id="paint3_linear_18695_513" x1="102.648" y1="9.20429" x2="94.1522" y2="25.5966" gradientUnits="userSpaceOnUse">
<stop stop-color="#00FFA3"/>
<stop offset="1" stop-color="#DC1FFF"/>
</linearGradient>
</defs>
</svg>
