<svg width="65" height="70" viewBox="0 0 65 70" fill="none" xmlns="http://www.w3.org/2000/svg">
<path d="M41.3958 8.27812C39.7852 7.63148 37.977 7.67028 36.3965 8.38479C34.8155 9.09909 33.6008 10.4263 33.0371 12.0548L32.0075 15.018C28.0786 15.0498 24.2571 16.2904 21.0695 18.5665C17.8826 20.8429 15.4865 24.044 14.2137 27.7271L12.4978 32.6653C11.4064 35.8062 9.10124 38.3896 6.08931 39.847L4.97714 40.3845C3.87403 40.9205 2.96349 41.7797 2.36904 42.8459C1.77548 43.9118 1.52684 45.1332 1.65803 46.3447C1.80122 47.4947 2.27241 48.5804 3.01643 49.4738C3.76044 50.3672 4.74552 51.0325 5.85764 51.3903L42.1969 63.7898C43.693 64.3003 45.3327 64.2009 46.7551 63.5133C48.1773 62.8265 49.2651 61.6071 49.7803 60.1246L49.8662 59.8773C50.3294 58.5442 50.2969 57.0913 49.7739 55.7809L48.7159 53.2106C47.5986 50.415 47.5323 47.3137 48.5296 44.4745L50.0947 39.9703C51.3799 36.2915 51.4805 32.307 50.3835 28.569C49.2858 24.8306 47.0451 21.5216 43.9688 19.0995L44.8816 16.4725C45.4572 14.9234 45.4179 13.2148 44.7706 11.6938C44.1242 10.1725 42.9176 8.9517 41.3962 8.27911L41.3958 8.27812Z" fill="#1C1C1C"/>
<path d="M15.7121 57.7723C15.0583 59.7662 15.2018 61.9266 16.1111 63.7781C17.0204 65.6296 18.6209 67.0207 20.5605 67.6452C22.5002 68.2697 24.6201 68.0766 26.454 67.1083C28.2878 66.14 29.6853 64.4758 30.3391 62.4819L23.0256 60.1271L15.7121 57.7723Z" fill="#1C1C1C"/>
</svg>
