<svg width="52" height="58" viewBox="0 0 52 58" fill="none" xmlns="http://www.w3.org/2000/svg">
<path d="M51.1333 40.1871V18.1826C51.1323 17.2179 50.8752 16.2704 50.3876 15.4352C49.9001 14.6 49.1993 13.9064 48.3556 13.4241L28.9111 2.42183C28.0666 1.939 27.1085 1.68481 26.1333 1.68481C25.1581 1.68481 24.2001 1.939 23.3556 2.42183L3.91111 13.4241C3.06739 13.9064 2.36661 14.6 1.87906 15.4352C1.39151 16.2704 1.13433 17.2179 1.13333 18.1826V40.1871C1.13433 41.1518 1.39151 42.0992 1.87906 42.9344C2.36661 43.7696 3.06739 44.4632 3.91111 44.9455L23.3556 55.9478C24.2001 56.4306 25.1581 56.6848 26.1333 56.6848C27.1085 56.6848 28.0666 56.4306 28.9111 55.9478L48.3556 44.9455C49.1993 44.4632 49.9001 43.7696 50.3876 42.9344C50.8752 42.0992 51.1323 41.1518 51.1333 40.1871Z" fill="url(#paint0_linear_1309_37175)" stroke="white" stroke-width="1.5" stroke-linecap="round" stroke-linejoin="round"/>
<path d="M30.8012 32.2475L26.962 25.6162C26.5932 24.9792 25.6734 24.9792 25.3046 25.6162L21.4655 32.2475C21.0959 32.8858 21.5565 33.6848 22.2942 33.6848H29.9725C30.7101 33.6848 31.1708 32.8858 30.8012 32.2475Z" fill="white"/>
<path d="M39.8012 26.1222L35.962 32.7534C35.5932 33.3905 34.6734 33.3905 34.3046 32.7534L30.4655 26.1222C30.0959 25.4838 30.5565 24.6848 31.2942 24.6848H38.9725C39.7101 24.6848 40.1708 25.4838 39.8012 26.1222Z" fill="white"/>
<path d="M21.8012 26.1222L17.962 32.7534C17.5932 33.3905 16.6734 33.3905 16.3046 32.7534L12.4655 26.1222C12.0959 25.4838 12.5565 24.6848 13.2942 24.6848H20.9725C21.7101 24.6848 22.1708 25.4838 21.8012 26.1222Z" fill="white"/>
<defs>
<linearGradient id="paint0_linear_1309_37175" x1="51.1333" y1="28.6848" x2="1.13333" y2="28.6848" gradientUnits="userSpaceOnUse">
<stop stop-color="#DA22FF"/>
<stop offset="1" stop-color="#5E199B"/>
</linearGradient>
</defs>
</svg>
