<svg width="50" height="55" viewBox="0 0 50 55" fill="none" xmlns="http://www.w3.org/2000/svg">
<path d="M50 38.5023V16.4977C49.999 15.533 49.7418 14.5856 49.2543 13.7504C48.7667 12.9152 48.0659 12.2216 47.2222 11.7393L27.7778 0.737011C26.9332 0.254186 25.9752 0 25 0C24.0248 0 23.0668 0.254186 22.2222 0.737011L2.77778 11.7393C1.93406 12.2216 1.23328 12.9152 0.745726 13.7504C0.258174 14.5856 0.000999283 15.533 0 16.4977V38.5023C0.000999283 39.4669 0.258174 40.4144 0.745726 41.2496C1.23328 42.0848 1.93406 42.7784 2.77778 43.2607L22.2222 54.263C23.0668 54.7458 24.0248 55 25 55C25.9752 55 26.9332 54.7458 27.7778 54.263L47.2222 43.2607C48.0659 42.7784 48.7667 42.0848 49.2543 41.2496C49.7418 40.4144 49.999 39.4669 50 38.5023Z" fill="url(#paint0_linear_1309_35618)"/>
<path d="M29.6678 30.5626L25.8287 23.9314C25.4599 23.2943 24.5401 23.2943 24.1713 23.9314L20.3322 30.5626C19.9626 31.201 20.4232 32 21.1609 32H28.8391C29.5768 32 30.0374 31.201 29.6678 30.5626Z" fill="white"/>
<path d="M38.6678 24.4374L34.8287 31.0686C34.4599 31.7057 33.5401 31.7057 33.1713 31.0686L29.3322 24.4374C28.9626 23.799 29.4232 23 30.1609 23H37.8391C38.5768 23 39.0374 23.799 38.6678 24.4374Z" fill="white"/>
<path d="M20.6678 24.4374L16.8287 31.0686C16.4599 31.7057 15.5401 31.7057 15.1713 31.0686L11.3322 24.4374C10.9626 23.799 11.4232 23 12.1609 23H19.8391C20.5768 23 21.0374 23.799 20.6678 24.4374Z" fill="white"/>
<defs>
<linearGradient id="paint0_linear_1309_35618" x1="50" y1="27" x2="1.47765e-07" y2="27" gradientUnits="userSpaceOnUse">
<stop stop-color="#DA22FF"/>
<stop offset="1" stop-color="#5E199B"/>
</linearGradient>
</defs>
</svg>
