<svg width="52" height="57" viewBox="0 0 52 57" fill="none" xmlns="http://www.w3.org/2000/svg">
<path d="M51 39.5023V17.4977C50.999 16.533 50.7418 15.5856 50.2543 14.7504C49.7667 13.9152 49.0659 13.2216 48.2222 12.7393L28.7778 1.73701C27.9332 1.25419 26.9752 1 26 1C25.0248 1 24.0668 1.25419 23.2222 1.73701L3.77778 12.7393C2.93406 13.2216 2.23328 13.9152 1.74573 14.7504C1.25817 15.5856 1.001 16.533 1 17.4977V39.5023C1.001 40.4669 1.25817 41.4144 1.74573 42.2496C2.23328 43.0848 2.93406 43.7784 3.77778 44.2607L23.2222 55.263C24.0668 55.7458 25.0248 56 26 56C26.9752 56 27.9332 55.7458 28.7778 55.263L48.2222 44.2607C49.0659 43.7784 49.7667 43.0848 50.2543 42.2496C50.7418 41.4144 50.999 40.4669 51 39.5023Z" fill="url(#paint0_linear_1747_31585)" stroke="#3C3C3C" stroke-width="1.5" stroke-linecap="round" stroke-linejoin="round"/>
<path d="M30.6678 31.5626L26.8287 24.9314C26.4599 24.2943 25.5401 24.2943 25.1713 24.9314L21.3322 31.5626C20.9626 32.201 21.4232 33 22.1609 33H29.8391C30.5768 33 31.0374 32.201 30.6678 31.5626Z" fill="white"/>
<path d="M39.6678 25.4374L35.8287 32.0686C35.4599 32.7057 34.5401 32.7057 34.1713 32.0686L30.3322 25.4374C29.9626 24.799 30.4232 24 31.1609 24H38.8391C39.5768 24 40.0374 24.799 39.6678 25.4374Z" fill="white"/>
<path d="M21.6678 25.4374L17.8287 32.0686C17.4599 32.7057 16.5401 32.7057 16.1713 32.0686L12.3322 25.4374C11.9626 24.799 12.4232 24 13.1609 24H20.8391C21.5768 24 22.0374 24.799 21.6678 25.4374Z" fill="white"/>
<defs>
<linearGradient id="paint0_linear_1747_31585" x1="51" y1="28" x2="1" y2="28" gradientUnits="userSpaceOnUse">
<stop stop-color="#DA22FF"/>
<stop offset="1" stop-color="#5E199B"/>
</linearGradient>
</defs>
</svg>
