<svg width="60" height="67" viewBox="0 0 60 67" fill="none" xmlns="http://www.w3.org/2000/svg">
<path d="M60 46.9027V20.0972C59.9988 18.9221 59.6902 17.7679 59.1051 16.7505C58.5201 15.733 57.6791 14.8881 56.6667 14.3006L33.3333 0.897814C32.3199 0.309645 31.1702 0 30 0C28.8298 0 27.6801 0.309645 26.6667 0.897814L3.33333 14.3006C2.32087 14.8881 1.47993 15.733 0.894872 16.7505C0.309809 17.7679 0.00119914 18.9221 0 20.0972V46.9027C0.00119914 48.0779 0.309809 49.2321 0.894872 50.2495C1.47993 51.267 2.32087 52.1119 3.33333 52.6994L26.6667 66.1022C27.6801 66.6903 28.8298 67 30 67C31.1702 67 32.3199 66.6903 33.3333 66.1022L56.6667 52.6994C57.6791 52.1119 58.5201 51.267 59.1051 50.2495C59.6902 49.2321 59.9988 48.0779 60 46.9027Z" fill="url(#paint0_linear_140_10793)"/>
<path d="M38.9543 37.6125C39.2441 34.8161 38.0916 32.445 37.2844 31.1673C37.02 30.7488 36.4397 30.9004 36.3638 31.3896L36.2784 31.9398C36.0865 33.1762 35.3244 34.2504 34.221 34.8401C33.7456 35.0941 33.1739 34.5883 33.3315 34.0729C33.6086 33.1665 33.8861 31.9889 33.8861 30.908C33.8861 26.5286 30.2918 21.3775 26.2153 21.0022C25.9456 20.971 25.7957 21.2836 25.9456 21.5027C27.4144 23.5046 27.2645 26.4139 25.4961 28.2594L23.4878 30.3553C21.9593 31.9505 21 34.1716 21 36.6115C21 41.8981 25.1964 46.1523 30.2919 45.9958C34.7581 45.8707 38.4747 42.242 38.9543 37.6125Z" fill="white"/>
<defs>
<linearGradient id="paint0_linear_140_10793" x1="-1.19087e-07" y1="19.5" x2="63.5856" y2="31.4991" gradientUnits="userSpaceOnUse">
<stop stop-color="#F7931A"/>
<stop offset="1" stop-color="#C83D56"/>
</linearGradient>
</defs>
</svg>
