<svg width="18" height="19" viewBox="0 0 18 19" fill="none" xmlns="http://www.w3.org/2000/svg">
<path d="M12.0173 6.88364V10.8067C12.0173 10.9801 11.9484 11.1464 11.8258 11.2691C11.7032 11.3917 11.5368 11.4606 11.3634 11.4606C11.19 11.4606 11.0237 11.3917 10.9011 11.2691C10.7785 11.1464 10.7096 10.9801 10.7096 10.8067V8.46186L6.59526 12.577C6.53451 12.6378 6.46239 12.6859 6.38302 12.7188C6.30365 12.7517 6.21858 12.7686 6.13267 12.7686C6.04675 12.7686 5.96168 12.7517 5.88231 12.7188C5.80294 12.6859 5.73082 12.6378 5.67007 12.577C5.60932 12.5163 5.56113 12.4441 5.52825 12.3648C5.49538 12.2854 5.47846 12.2003 5.47846 12.1144C5.47846 12.0285 5.49538 11.9434 5.52825 11.864C5.56113 11.7847 5.60932 11.7126 5.67007 11.6518L9.78521 7.53748H7.44036C7.26695 7.53748 7.10064 7.4686 6.97802 7.34598C6.8554 7.22336 6.78651 7.05705 6.78651 6.88364C6.78651 6.71023 6.8554 6.54392 6.97802 6.4213C7.10064 6.29868 7.26695 6.22979 7.44036 6.22979H11.3634C11.5368 6.22979 11.7032 6.29868 11.8258 6.4213C11.9484 6.54392 12.0173 6.71023 12.0173 6.88364ZM17.248 9.49902C17.248 11.1802 16.7495 12.8236 15.8155 14.2214C14.8815 15.6192 13.554 16.7087 12.0009 17.352C10.4477 17.9953 8.73862 18.1637 7.08978 17.8357C5.44094 17.5077 3.92639 16.6982 2.73764 15.5094C1.5489 14.3207 0.73935 12.8061 0.411376 11.1573C0.0834015 9.50845 0.25173 7.79939 0.895075 6.24621C1.53842 4.69304 2.62789 3.36552 4.0257 2.43153C5.42352 1.49754 7.06691 0.999023 8.74805 0.999023C11.0017 1.0014 13.1623 1.8977 14.7558 3.49124C16.3494 5.08479 17.2457 7.24541 17.248 9.49902ZM15.9404 9.49902C15.9404 8.07652 15.5185 6.68596 14.7282 5.50319C13.9379 4.32042 12.8146 3.39857 11.5004 2.8542C10.1862 2.30983 8.74007 2.1674 7.3449 2.44491C5.94973 2.72243 4.66818 3.40743 3.66232 4.41329C2.65646 5.41916 1.97146 6.7007 1.69394 8.09587C1.41642 9.49104 1.55886 10.9372 2.10322 12.2514C2.64759 13.5656 3.56945 14.6889 4.75222 15.4792C5.93499 16.2695 7.32555 16.6913 8.74805 16.6913C10.6549 16.6892 12.483 15.9307 13.8314 14.5824C15.1797 13.234 15.9382 11.4059 15.9404 9.49902Z" fill="white"/>
</svg>
