<svg width="18" height="19" viewBox="0 0 18 19" fill="none" xmlns="http://www.w3.org/2000/svg">
<g id="ArrowCircleUpRight">
<path id="Vector" d="M12.017 6.88364V10.8067C12.017 10.9801 11.9481 11.1464 11.8255 11.2691C11.7029 11.3917 11.5366 11.4606 11.3632 11.4606C11.1898 11.4606 11.0235 11.3917 10.9008 11.2691C10.7782 11.1464 10.7093 10.9801 10.7093 10.8067V8.46186L6.59502 12.577C6.53427 12.6378 6.46215 12.6859 6.38278 12.7188C6.3034 12.7517 6.21833 12.7686 6.13242 12.7686C6.04651 12.7686 5.96144 12.7517 5.88207 12.7188C5.80269 12.6859 5.73057 12.6378 5.66982 12.577C5.60908 12.5163 5.56089 12.4441 5.52801 12.3648C5.49513 12.2854 5.47821 12.2003 5.47821 12.1144C5.47821 12.0285 5.49513 11.9434 5.52801 11.864C5.56089 11.7847 5.60908 11.7126 5.66982 11.6518L9.78497 7.53748H7.44011C7.2667 7.53748 7.10039 7.4686 6.97777 7.34598C6.85515 7.22336 6.78627 7.05705 6.78627 6.88364C6.78627 6.71023 6.85515 6.54392 6.97777 6.4213C7.10039 6.29868 7.2667 6.22979 7.44011 6.22979H11.3632C11.5366 6.22979 11.7029 6.29868 11.8255 6.4213C11.9481 6.54392 12.017 6.71023 12.017 6.88364ZM17.2478 9.49902C17.2478 11.1802 16.7493 12.8236 15.8153 14.2214C14.8813 15.6192 13.5538 16.7087 12.0006 17.352C10.4474 17.9953 8.73838 18.1637 7.08954 17.8357C5.4407 17.5077 3.92614 16.6982 2.7374 15.5094C1.54865 14.3207 0.739106 12.8061 0.411132 11.1573C0.0831573 9.50845 0.251486 7.79939 0.89483 6.24621C1.53818 4.69304 2.62764 3.36552 4.02546 2.43153C5.42328 1.49754 7.06666 0.999023 8.74781 0.999023C11.0014 1.0014 13.162 1.8977 14.7556 3.49124C16.3491 5.08479 17.2454 7.24541 17.2478 9.49902ZM15.9401 9.49902C15.9401 8.07652 15.5183 6.68596 14.728 5.50319C13.9377 4.32042 12.8144 3.39857 11.5002 2.8542C10.186 2.30983 8.73983 2.1674 7.34466 2.44491C5.94948 2.72243 4.66794 3.40743 3.66208 4.41329C2.65621 5.41916 1.97121 6.7007 1.6937 8.09587C1.41618 9.49104 1.55861 10.9372 2.10298 12.2514C2.64735 13.5656 3.5692 14.6889 4.75197 15.4792C5.93474 16.2695 7.3253 16.6913 8.74781 16.6913C10.6547 16.6892 12.4828 15.9307 13.8311 14.5824C15.1795 13.234 15.9379 11.4059 15.9401 9.49902Z" fill="#3C3C3C"/>
</g>
</svg>
