<svg width="126" height="126" viewBox="0 0 126 126" fill="none" xmlns="http://www.w3.org/2000/svg">
<path fill-rule="evenodd" clip-rule="evenodd" d="M47.3922 19.4046C44.3175 17.2788 40.1926 17.5935 37.4658 20.1618L19.5335 37.0516C16.6107 39.8046 16.1596 44.3178 18.479 47.6016L58.7618 104.633C61.5533 108.585 67.1521 109.152 70.6699 105.839L106.469 72.1208C110.198 68.609 109.746 62.5144 105.542 59.6077L47.3922 19.4046ZM35.5336 42.7527C38.7691 42.7527 41.392 40.0892 41.392 36.8036C41.392 33.518 38.7691 30.8545 35.5336 30.8545C32.2981 30.8545 29.6752 33.518 29.6752 36.8036C29.6752 40.0892 32.2981 42.7527 35.5336 42.7527Z" fill="#1C1C1C"/>
</svg>
