<svg xmlns="http://www.w3.org/2000/svg" width="40" height="40" fill="none" viewBox="0 0 40 40">
    <path fill="#000" fill-rule="evenodd" d="M20 40c11.046 0 20-8.954 20-20S31.046 0 20 0 0 8.954 0 20s8.954 20 20 20zm-1.733-27.167l-3.434-.866-.433 1.766c1.261.293 2.035 1.566 1.713 2.82l-1.239 4.831c-.265 1.033-1.298 1.673-2.34 1.45l-.9 1.933 3.366.866-.8 2.967 1.8.433.7-2.866 1.367.366-.734 2.834 1.834.5.733-2.9s4.533 1.166 5.967-1.9c1.309-2.802-.97-4.351-1.374-4.599.378-.018 2.399-1.131 2.14-3.368-.287-2.488-3.7-3.033-3.7-3.033l.734-2.834L22 10.767l-.7 2.766-1.333-.333.7-2.867-1.634-.366-.766 2.866zm1.333 2.634l-.9 3.5s3.933 1.333 4.433-.767-3.533-2.733-3.533-2.733zm-2.267 8.952l.898-3.752s4.901.748 4.402 3c-.499 2.251-5.3.752-5.3.752z" clip-rule="evenodd"/>
</svg>
