<svg width="45" height="45" viewBox="0 0 45 45" fill="none" xmlns="http://www.w3.org/2000/svg">
<path d="M44.3268 27.9429C41.3214 39.9966 29.1116 47.3322 17.0551 44.3264C5.00369 41.3214 -2.33278 29.1121 0.673918 17.0594C3.67797 5.00443 15.8878 -2.33176 27.9405 0.673277C39.9961 3.67831 47.3322 15.8888 44.3265 27.9431L44.3267 27.9429H44.3268Z" fill="#F7931A"/>
<path d="M30.953 19.6482C31.3274 17.1264 29.4213 15.7708 26.8149 14.8665L27.6604 11.4504L25.596 10.9323L24.7728 14.2584C24.2301 14.1221 23.6727 13.9936 23.1188 13.8662L23.9479 10.5182L21.8847 10L21.0387 13.4149C20.5896 13.3119 20.1485 13.2101 19.7205 13.1029L19.7229 13.0921L16.8759 12.376L16.3268 14.597C16.3268 14.597 17.8584 14.9507 17.8261 14.9725C18.6621 15.1826 18.8133 15.74 18.7882 16.1819L17.825 20.0736C17.8826 20.0883 17.9573 20.1096 18.0397 20.1429C17.9708 20.1257 17.8975 20.1069 17.8215 20.0886L16.4714 25.5403C16.3693 25.7961 16.1099 26.18 15.5254 26.0343C15.5461 26.0644 14.025 25.6571 14.025 25.6571L13 28.0374L15.6866 28.712C16.1863 28.8382 16.6761 28.9703 17.1584 29.0945L16.3041 32.5498L18.3662 33.0679L19.2122 29.6494C19.7756 29.8034 20.3223 29.9455 20.8574 30.0794L20.0143 33.4819L22.0788 34L22.933 30.5513C26.4534 31.2223 29.1004 30.9518 30.2146 27.7445C31.1123 25.1623 30.1699 23.6728 28.3178 22.7016C29.6668 22.3882 30.6828 21.4945 30.9537 19.6485L30.9531 19.648L30.953 19.6482ZM26.2362 26.3105C25.5982 28.8927 21.2818 27.4968 19.8824 27.1468L21.0161 22.5692C22.4154 22.9211 26.903 23.6174 26.2363 26.3105H26.2362ZM26.8746 19.6108C26.2926 21.9596 22.7001 20.7663 21.5347 20.4737L22.5625 16.3221C23.7279 16.6147 27.4809 17.1608 26.8748 19.6108H26.8746Z" fill="white"/>
</svg>
