<svg xmlns="http://www.w3.org/2000/svg" width="164" height="66" fill="none" viewBox="0 0 164 66">
    <path fill="#151515" d="M0 25.816h4.692c.453 0 .901.057 1.343.17.442.102.833.278 1.173.527.351.238.635.55.85.935.215.385.323.85.323 1.394 0 .68-.193 1.241-.578 1.683-.385.442-.89.76-1.513.952v.034c.374.045.72.153 1.037.323.329.159.606.368.833.629.227.25.402.544.527.884.136.329.204.686.204 1.071 0 .657-.13 1.207-.391 1.649-.26.43-.606.782-1.037 1.054-.42.26-.907.448-1.462.561-.544.113-1.1.17-1.666.17H0V25.816zm2.142 4.896h1.955c.714 0 1.247-.136 1.598-.408.363-.283.544-.652.544-1.105 0-.521-.187-.907-.561-1.156-.363-.26-.952-.391-1.768-.391H2.142v3.06zm0 5.304h1.972c.272 0 .561-.017.867-.051.317-.034.606-.113.867-.238.26-.125.476-.3.646-.527.17-.238.255-.555.255-.952 0-.635-.21-1.077-.629-1.326-.408-.25-1.048-.374-1.921-.374H2.142v3.468zM18.282 37.852h-1.938v-1.309h-.034c-.192.408-.487.765-.884 1.071-.396.295-.935.442-1.615.442-.544 0-1.008-.085-1.394-.255-.374-.181-.68-.42-.918-.714-.238-.306-.408-.652-.51-1.037-.102-.385-.153-.788-.153-1.207v-5.151h2.04v4.131c0 .227.012.482.034.765.023.272.08.533.17.782.102.238.25.442.442.612.204.159.488.238.85.238.34 0 .624-.057.85-.17.238-.113.431-.266.578-.459.16-.193.272-.414.34-.663.068-.25.102-.51.102-.782v-4.454h2.04v8.16zM20.632 29.692h2.04v8.16h-2.04v-8.16zm-.289-2.771c0-.329.12-.612.357-.85.25-.25.561-.374.935-.374s.686.119.935.357c.26.227.391.516.391.867s-.13.646-.39.884c-.25.227-.562.34-.936.34s-.686-.119-.935-.357c-.238-.25-.357-.538-.357-.867zM25.048 25h2.04v12.852h-2.04V25zM28.495 31.426v-1.734h1.683v-2.363h2.04v2.363h2.244v1.734h-2.244v3.57c0 .408.073.731.22.969.16.238.465.357.919.357.181 0 .38-.017.595-.051.215-.045.385-.113.51-.204v1.717c-.216.102-.482.17-.8.204-.305.045-.577.068-.815.068-.544 0-.992-.062-1.343-.187-.34-.113-.612-.289-.816-.527-.193-.25-.329-.555-.408-.918-.068-.363-.102-.782-.102-1.258v-3.74h-1.683zM40.676 33.772c0-.646.114-1.23.34-1.751.239-.533.556-.986.953-1.36.396-.374.867-.663 1.41-.867.544-.204 1.123-.306 1.735-.306.611 0 1.19.102 1.733.306.544.204 1.015.493 1.411.867.397.374.709.827.935 1.36.239.521.358 1.105.358 1.751 0 .646-.12 1.235-.358 1.768-.226.521-.538.969-.934 1.343-.397.374-.867.663-1.412.867-.544.204-1.122.306-1.733.306-.612 0-1.19-.102-1.734-.306-.544-.204-1.015-.493-1.412-.867-.396-.374-.714-.822-.952-1.343-.226-.533-.34-1.122-.34-1.768zm2.04 0c0 .317.051.623.154.918.113.295.272.555.476.782.215.227.47.408.765.544.294.136.629.204 1.003.204.373 0 .708-.068 1.003-.204.294-.136.544-.317.748-.544.215-.227.373-.487.475-.782.114-.295.17-.6.17-.918 0-.317-.056-.623-.17-.918-.102-.295-.26-.555-.476-.782-.203-.227-.453-.408-.747-.544-.295-.136-.63-.204-1.003-.204-.374 0-.709.068-1.003.204-.295.136-.55.317-.765.544-.204.227-.363.487-.476.782-.102.295-.153.6-.153.918zM51.46 29.692h1.938v1.309h.034c.193-.408.488-.76.884-1.054.397-.306.935-.459 1.615-.459.544 0 1.004.09 1.378.272.385.181.697.42.934.714.238.295.408.635.51 1.02.102.385.154.788.154 1.207v5.151h-2.04v-4.131c0-.227-.012-.476-.034-.748-.023-.283-.085-.544-.188-.782-.09-.25-.238-.453-.442-.612-.204-.17-.481-.255-.833-.255-.34 0-.628.057-.866.17-.227.113-.42.266-.578.459-.148.193-.256.414-.324.663-.067.25-.101.51-.101.782v4.454h-2.04v-8.16zM98.27 34.775h3.242c.456 0 .825.377.825.838 0 .46-.369.838-.825.838h-3.91c-.063 0-.122.024-.165.063l-1.179 1.03c-.18.158-.07.456.166.456h4.891s.004 0 .004-.004.004-.004.004-.004c.063.004.122.008.189.008 1.297 0 2.35-1.069 2.35-2.387 0-1.252-.947-2.28-2.158-2.38 0 0-.004 0-.004-.004s0-.004-.003-.004h-3.49c-.455 0-.825-.377-.825-.838 0-.465.37-.838.825-.838h3.902c.063 0 .126-.024.173-.067l1.096-1.03c.173-.158.059-.452-.173-.452h-4.994c-1.296 0-2.35 1.069-2.35 2.387 0 1.32 1.054 2.388 2.35 2.388h.06zM117.11 30c-.137 0-.248.115-.248.262v7.476c0 .143.111.262.248.262h5.777c.069 0 .134-.032.183-.083l.723-.806c.15-.167.039-.436-.183-.436h-5.042c-.138 0-.249-.115-.249-.262v-6.151c0-.143-.111-.262-.249-.262h-.96z"/>
    <path fill="#151515" fill-rule="evenodd" d="M107.403 30c0 .004-.004.004 0 0-.833.036-1.503.652-1.541 1.419v5.099c0 .798.682 1.45 1.541 1.482h5.917c.855-.036 1.542-.688 1.542-1.482v-5.095c-.035-.767-.704-1.387-1.538-1.419h-5.921V30zm1.102 1.423c-.523.02-.942.41-.963.894v3.207c0 .5.427.914.963.934h3.709c.536-.02.963-.433.963-.934v-3.207c-.021-.485-.44-.87-.963-.894h-3.709zM133.169 37.734c0 .143.128.262.285.262h1.123c.157 0 .285-.115.285-.262v-6.19-.063c0-.798-.689-1.45-1.548-1.481h-5.835c-.894 0-1.617.663-1.617 1.485v6.253c0 .143.127.262.285.262h1.122c.158 0 .285-.115.285-.262v-2.577c0-.143.127-.262.285-.262h5.059c.157 0 .285.115.285.262v2.573h-.014zm-5.628-4.26v-1.286c0-.5.442-.906.986-.906h3.656c.544 0 .986.405.986.906v1.286c0 .143-.127.262-.285.262h-5.058c-.158 0-.285-.115-.285-.262zM154.605 38c-.138 0-.25-.115-.25-.262v-2.577c0-.143-.112-.262-.251-.262h-4.497c-.138 0-.25.115-.25.262v2.577c0 .143-.112.262-.251.262h-.994c-.139 0-.25-.115-.25-.262v-6.19-.063c0-.818.643-1.485 1.437-1.485h5.187c.763.036 1.376.687 1.376 1.48V37.735c0 .143-.112.262-.251.262h-1.006V38zm-5.252-5.808v1.286c0 .143.112.262.25.262h4.497c.139 0 .251-.115.251-.262v-1.286c0-.5-.393-.906-.875-.906h-3.248c-.482 0-.875.405-.875.906z" clip-rule="evenodd"/>
    <path fill="#151515" d="M138.258 30c.074 0 .144.032.191.091l4.467 5.43c.152.182.444.072.444-.17v-5.09c0-.142.112-.261.253-.261h.996c.14 0 .253.115.253.262v7.472c0 .143-.113.262-.253.262h-1.238c-.004 0-.007-.004-.007-.008s0-.004-.004-.008l-4.545-5.39c-.152-.183-.444-.067-.444.17v4.978c0 .143-.113.262-.253.262h-1.004c-.14 0-.252-.115-.252-.262v-7.476c0-.143.112-.262.252-.262h1.144z"/>
    <path fill="url(#paint0_linear)" d="M71.398 37.032c.119-.12.278-.187.445-.187h15.459c.282 0 .423.344.222.543l-3.054 3.077c-.12.12-.279.187-.446.187H68.57c-.282 0-.423-.345-.223-.543l3.05-3.077z"/>
    <path fill="url(#paint1_linear)" d="M71.398 25.532c.119-.12.278-.188.445-.188h15.459c.282 0 .423.345.222.543l-3.054 3.077c-.12.12-.279.188-.446.188H68.57c-.282 0-.423-.345-.223-.543l3.05-3.078z"/>
    <path fill="url(#paint2_linear)" d="M84.47 31.244c-.12-.12-.279-.187-.446-.187H68.57c-.282 0-.423.345-.223.543l3.055 3.077c.118.12.278.187.445.187h15.458c.282 0 .423-.344.223-.542l-3.058-3.078z"/>
    <defs>
        <linearGradient id="paint0_linear" x1="85.826" x2="74.983" y1="23.506" y2="44.096" gradientUnits="userSpaceOnUse">
            <stop stop-color="#00FFA3"/>
            <stop offset="1" stop-color="#DC1FFF"/>
        </linearGradient>
        <linearGradient id="paint1_linear" x1="81.148" x2="70.305" y1="21.042" y2="41.633" gradientUnits="userSpaceOnUse">
            <stop stop-color="#00FFA3"/>
            <stop offset="1" stop-color="#DC1FFF"/>
        </linearGradient>
        <linearGradient id="paint2_linear" x1="83.472" x2="72.629" y1="22.266" y2="42.857" gradientUnits="userSpaceOnUse">
            <stop stop-color="#00FFA3"/>
            <stop offset="1" stop-color="#DC1FFF"/>
        </linearGradient>
    </defs>
</svg>
