<svg width="51" height="22" viewBox="0 0 51 22" fill="none" xmlns="http://www.w3.org/2000/svg">
    <path d="M11.479 13.59a3.624 3.624 0 0 1-1.737-.413 3.142 3.142 0 0 1-1.215-1.161 3.214 3.214 0 0 1-.441-1.665c0-.612.147-1.164.44-1.656a3.058 3.058 0 0 1 1.216-1.161 3.562 3.562 0 0 1 1.737-.423c.642 0 1.22.14 1.737.423.516.276.92.66 1.215 1.152.294.492.44 1.047.44 1.665 0 .618-.146 1.173-.44 1.665a3.142 3.142 0 0 1-1.215 1.16 3.624 3.624 0 0 1-1.737.415zm0-1.025c.42 0 .798-.093 1.134-.28.336-.191.6-.455.792-.791.192-.342.288-.723.288-1.143 0-.42-.096-.798-.288-1.134a2.011 2.011 0 0 0-.792-.792 2.245 2.245 0 0 0-1.134-.288c-.42 0-.798.096-1.134.288-.336.186-.6.45-.792.792a2.245 2.245 0 0 0-.288 1.134c0 .42.096.8.288 1.143.192.336.456.6.792.792.336.186.714.279 1.134.279zM18.668 8.64c.468 0 .885.103 1.251.307.372.204.663.492.873.864.21.372.315.8.315 1.287 0 .486-.105.918-.315 1.296-.21.372-.5.66-.873.864a2.526 2.526 0 0 1-1.25.306c-.649 0-1.162-.216-1.54-.648v2.33h-1.125V8.696h1.071v.63c.186-.228.414-.4.684-.513.276-.114.58-.171.91-.171zm-.126 3.96c.414 0 .753-.137 1.017-.413.27-.276.405-.64.405-1.09 0-.45-.135-.812-.405-1.088-.264-.276-.603-.414-1.017-.414-.27 0-.513.063-.729.189-.216.12-.387.294-.513.522a1.61 1.61 0 0 0-.189.792c0 .3.063.564.19.792.125.228.296.405.512.53.216.12.46.18.73.18zM26.692 11.125c0 .078-.006.189-.018.333h-3.771c.066.354.237.636.513.846.282.204.63.306 1.044.306.528 0 .963-.174 1.305-.522l.603.693a2.032 2.032 0 0 1-.819.585c-.33.132-.702.198-1.116.198-.528 0-.993-.105-1.395-.315a2.309 2.309 0 0 1-.936-.873 2.53 2.53 0 0 1-.324-1.278c0-.468.105-.888.315-1.26.216-.378.513-.672.891-.882.378-.21.804-.315 1.278-.315.468 0 .885.105 1.251.315.372.204.66.495.864.873.21.372.315.804.315 1.296zm-2.43-1.584c-.36 0-.666.108-.918.324-.246.21-.396.492-.45.846h2.727a1.326 1.326 0 0 0-.441-.846c-.246-.216-.552-.324-.918-.324zM30.5 8.64c.606 0 1.092.178 1.458.532.366.354.549.879.549 1.575V13.5h-1.125v-2.61c0-.42-.1-.735-.297-.945-.198-.216-.48-.324-.846-.324-.414 0-.741.126-.981.378-.24.246-.36.603-.36 1.07v2.43h-1.125V8.696h1.07v.62c.187-.221.42-.39.703-.503.282-.114.6-.171.954-.171zM40.993 10.225c.348.114.624.306.828.576.204.264.306.594.306.99 0 .546-.21.969-.63 1.269-.42.294-1.032.44-1.836.44H36.53V7.2h2.952c.744 0 1.317.148 1.72.442.401.288.602.687.602 1.197 0 .312-.072.588-.216.828-.144.24-.342.426-.594.558zM37.7 8.119v1.737h1.656c.408 0 .72-.072.936-.216a.735.735 0 0 0 .333-.648c0-.288-.11-.504-.333-.648-.216-.15-.528-.225-.936-.225H37.7zm1.89 4.464c.906 0 1.36-.303 1.36-.91 0-.605-.454-.908-1.36-.908H37.7v1.818h1.89zM43.268 8.695h1.125V13.5h-1.125V8.695zm.567-.792a.732.732 0 0 1-.513-.19.646.646 0 0 1-.207-.485c0-.192.069-.351.207-.477a.713.713 0 0 1 .513-.198c.204 0 .375.063.513.189.138.12.207.273.207.459a.694.694 0 0 1-.72.702zM50.576 6.823V13.5h-1.08v-.621a1.734 1.734 0 0 1-.693.513c-.27.114-.57.17-.9.17-.462 0-.879-.101-1.25-.305a2.215 2.215 0 0 1-.865-.864 2.624 2.624 0 0 1-.315-1.296c0-.486.105-.915.315-1.287.21-.372.498-.66.864-.864a2.558 2.558 0 0 1 1.251-.306c.318 0 .61.054.873.162.264.108.49.27.675.486V6.823h1.125zM48.038 12.6c.27 0 .513-.06.73-.18.215-.126.386-.303.512-.531a1.61 1.61 0 0 0 .19-.792c0-.3-.064-.564-.19-.792a1.302 1.302 0 0 0-.513-.522 1.42 1.42 0 0 0-.729-.19c-.27 0-.513.064-.729.19-.216.12-.387.294-.513.522a1.61 1.61 0 0 0-.189.792c0 .3.063.564.19.792.125.228.296.405.512.53.216.12.46.18.73.18z" fill="#fff"/>
    <path d="M19 6.227V4a3 3 0 0 0-3-3H4a3 3 0 0 0-3 3v14a3 3 0 0 0 3 3h12a3 3 0 0 0 3-3v-2" stroke="#fff" stroke-width="2" stroke-linecap="round"/>
</svg>
