<svg width="170" height="119" viewBox="0 0 170 119" fill="none" xmlns="http://www.w3.org/2000/svg">
<path d="M89.2 61.5441C89.2 83.1222 71.6943 100.615 50.1 100.615C28.5057 100.615 11 83.1222 11 61.5441C11 39.9661 28.5057 22.4736 50.1 22.4736C71.6943 22.4736 89.2 39.9661 89.2 61.5441Z" fill="#A934FF"/>
<path d="M47.6046 66.1873C47.6046 65.299 47.7522 64.5188 48.0474 63.8465C48.3426 63.1743 48.7239 62.5741 49.1912 62.0459C49.6586 61.5178 50.1506 61.0256 50.6672 60.5695C51.2084 60.1133 51.7127 59.6692 52.1801 59.237C52.6475 58.8049 53.0288 58.3487 53.324 57.8686C53.6192 57.3884 53.7667 56.8482 53.7667 56.248C53.7667 55.2397 53.3486 54.4234 52.5122 53.7992C51.6758 53.175 50.5565 52.8629 49.1543 52.8629C47.8014 52.8629 46.6206 53.103 45.612 53.5832C44.628 54.0633 43.804 54.7475 43.1398 55.6358L39.5605 53.3671C40.5937 51.9986 41.9467 50.9303 43.6195 50.162C45.2922 49.3698 47.2725 48.9736 49.5602 48.9736C51.356 48.9736 52.9304 49.2377 54.2833 49.7659C55.6363 50.2701 56.6941 51.0143 57.4567 51.9986C58.2193 52.9589 58.6005 54.1353 58.6005 55.5278C58.6005 56.4881 58.4406 57.3284 58.1209 58.0486C57.8257 58.7689 57.4321 59.4051 56.9401 59.9573C56.4727 60.4854 55.9684 60.9896 55.4272 61.4698C54.886 61.9259 54.3694 62.3821 53.8774 62.8382C53.4101 63.2944 53.0288 63.7865 52.7336 64.3147C52.4384 64.8429 52.2908 65.4671 52.2908 66.1873H47.6046ZM49.9661 74.7941C49.1051 74.7941 48.3918 74.5181 47.826 73.9659C47.2848 73.4137 47.0142 72.7535 47.0142 71.9852C47.0142 71.217 47.2848 70.5688 47.826 70.0406C48.3918 69.4884 49.1051 69.2123 49.9661 69.2123C50.8271 69.2123 51.5282 69.4884 52.0694 70.0406C52.6106 70.5688 52.8812 71.217 52.8812 71.9852C52.8812 72.7535 52.6106 73.4137 52.0694 73.9659C51.5282 74.5181 50.8271 74.7941 49.9661 74.7941Z" fill="white"/>
<path d="M131.482 106.602V91.3984C131.482 90.7319 131.307 90.0773 130.975 89.5003C130.644 88.9232 130.167 88.444 129.594 88.1108L116.371 80.5092C115.797 80.1756 115.146 80 114.482 80C113.819 80 113.168 80.1756 112.594 80.5092L99.3713 88.1108C98.7976 88.444 98.3211 88.9232 97.9895 89.5003C97.658 90.0773 97.4831 90.7319 97.4824 91.3984V106.602C97.4831 107.268 97.658 107.923 97.9895 108.5C98.3211 109.077 98.7976 109.556 99.3713 109.889L112.594 117.491C113.168 117.824 113.819 118 114.482 118C115.146 118 115.797 117.824 116.371 117.491L129.594 109.889C130.167 109.556 130.644 109.077 130.975 108.5C131.307 107.923 131.482 107.268 131.482 106.602Z" fill="url(#paint0_linear_2009_28487)" stroke="white" stroke-width="1.04872" stroke-linecap="round" stroke-linejoin="round"/>
<g clip-path="url(#clip0_2009_28487)">
<path d="M118.437 100.705C118.567 99.5457 118.052 98.5628 117.692 98.0332C117.574 97.8597 117.315 97.9225 117.281 98.1253L117.243 98.3534C117.157 98.8659 116.817 99.3112 116.325 99.5557C116.113 99.661 115.857 99.4513 115.928 99.2377C116.051 98.8619 116.175 98.3738 116.175 97.9257C116.175 96.1102 114.571 93.9748 112.752 93.8193C112.631 93.8063 112.564 93.9359 112.631 94.0268C113.287 94.8567 113.22 96.0627 112.431 96.8277L111.534 97.6965C110.852 98.3579 110.424 99.2786 110.424 100.29C110.424 102.482 112.297 104.245 114.571 104.18C116.564 104.128 118.223 102.624 118.437 100.705Z" fill="white"/>
</g>
<path d="M131.482 27.6016V12.3984C131.482 11.7319 131.307 11.0773 130.975 10.5003C130.644 9.92321 130.167 9.44402 129.594 9.11077L116.371 1.50921C115.797 1.17562 115.146 1 114.482 1C113.819 1 113.168 1.17562 112.594 1.50921L99.3713 9.11077C98.7976 9.44402 98.3211 9.92321 97.9895 10.5003C97.658 11.0773 97.4831 11.7319 97.4824 12.3984V27.6016C97.4831 28.2681 97.658 28.9227 97.9895 29.4997C98.3211 30.0768 98.7976 30.556 99.3713 30.8892L112.594 38.4908C113.168 38.8244 113.819 39 114.482 39C115.146 39 115.797 38.8244 116.371 38.4908L129.594 30.8892C130.167 30.556 130.644 30.0768 130.975 29.4997C131.307 28.9227 131.482 28.2681 131.482 27.6016Z" fill="url(#paint1_linear_2009_28487)" stroke="white" stroke-width="1.04872" stroke-linecap="round" stroke-linejoin="round"/>
<g clip-path="url(#clip1_2009_28487)">
<path d="M114.196 15.1143C114.334 14.9881 114.549 14.9881 114.687 15.1143C115.711 16.0469 116.977 16.5559 118.283 16.5582C118.443 16.5584 118.587 16.6623 118.62 16.8183C118.789 17.5978 118.835 18.4067 118.755 19.2063C118.666 20.0977 118.422 20.9593 118.038 21.74C117.654 22.5207 117.138 23.2044 116.52 23.7507C115.902 24.2969 115.195 24.6945 114.442 24.9198C113.688 24.6945 112.981 24.2969 112.363 23.7507C111.745 23.2044 111.229 22.5207 110.845 21.74C110.461 20.9593 110.217 20.0977 110.128 19.2063C110.048 18.4067 110.094 17.5978 110.263 16.8183C110.297 16.6623 110.441 16.5584 110.6 16.5582C111.906 16.5559 113.173 16.0469 114.196 15.1143Z" fill="white"/>
</g>
<path d="M157.965 66.7187V51.5156C157.964 50.8491 157.789 50.1945 157.458 49.6174C157.126 49.0404 156.65 48.5612 156.076 48.228L142.854 40.6264C142.279 40.2928 141.628 40.1172 140.965 40.1172C140.302 40.1172 139.65 40.2928 139.076 40.6264L125.854 48.228C125.28 48.5612 124.803 49.0404 124.472 49.6174C124.14 50.1945 123.966 50.8491 123.965 51.5156V66.7187C123.966 67.3853 124.14 68.0399 124.472 68.6169C124.803 69.194 125.28 69.6732 125.854 70.0064L139.076 77.608C139.65 77.9416 140.302 78.1172 140.965 78.1172C141.628 78.1172 142.279 77.9416 142.854 77.608L156.076 70.0064C156.65 69.6732 157.126 69.194 157.458 68.6169C157.789 68.0399 157.964 67.3853 157.965 66.7187Z" fill="url(#paint2_linear_2009_28487)" stroke="white" stroke-width="1.36255" stroke-linecap="round" stroke-linejoin="round"/>
<g clip-path="url(#clip2_2009_28487)">
<path d="M141.18 62.3033C141.048 62.2288 140.886 62.2287 140.754 62.3031L138.6 63.5129C138.283 63.6911 137.9 63.4241 137.957 63.0648L138.382 60.4178C138.404 60.283 138.361 60.1458 138.267 60.0474L136.443 58.1512C136.199 57.8973 136.342 57.4738 136.69 57.4199L139.157 57.038C139.301 57.0157 139.424 56.9228 139.485 56.7906L140.568 54.4451C140.724 54.1084 141.203 54.1084 141.358 54.4451L142.442 56.7906C142.503 56.9228 142.626 57.0157 142.77 57.038L145.236 57.4199C145.584 57.4738 145.727 57.8973 145.483 58.1512L143.66 60.0474C143.565 60.1458 143.522 60.283 143.544 60.4178L143.969 63.0637C144.027 63.4232 143.643 63.6902 143.326 63.5116L141.18 62.3033Z" fill="white"/>
</g>
<defs>
<linearGradient id="paint0_linear_2009_28487" x1="131.482" y1="98.6545" x2="97.4824" y2="98.6545" gradientUnits="userSpaceOnUse">
<stop stop-color="#FF8C15"/>
<stop offset="1" stop-color="#C5374E"/>
</linearGradient>
<linearGradient id="paint1_linear_2009_28487" x1="131.482" y1="19.6545" x2="97.4824" y2="19.6545" gradientUnits="userSpaceOnUse">
<stop stop-color="#08B197"/>
<stop offset="1" stop-color="#107839"/>
</linearGradient>
<linearGradient id="paint2_linear_2009_28487" x1="157.965" y1="58.7717" x2="123.965" y2="58.7717" gradientUnits="userSpaceOnUse">
<stop stop-color="#FFD71B"/>
<stop offset="1" stop-color="#B65610"/>
</linearGradient>
<clipPath id="clip0_2009_28487">
<rect width="13.3898" height="13.8182" fill="white" transform="translate(107.746 92.0908)"/>
</clipPath>
<clipPath id="clip1_2009_28487">
<rect width="13.3898" height="13.3898" fill="white" transform="translate(107.746 13.2036)"/>
</clipPath>
<clipPath id="clip2_2009_28487">
<rect width="13.6" height="13.8182" fill="white" transform="translate(134.164 51.8628)"/>
</clipPath>
</defs>
</svg>
