<svg width="194" height="171" viewBox="0 0 194 171" fill="none" xmlns="http://www.w3.org/2000/svg">
<path d="M162.96 31.8698V13.6558C162.959 12.8573 162.749 12.073 162.352 11.3817C161.954 10.6904 161.382 10.1163 160.693 9.71705L144.827 0.610053C144.138 0.2104 143.356 0 142.56 0C141.764 0 140.983 0.2104 140.293 0.610053L124.427 9.71705C123.738 10.1163 123.167 10.6904 122.769 11.3817C122.371 12.073 122.161 12.8573 122.16 13.6558V31.8698C122.161 32.6683 122.371 33.4526 122.769 34.1439C123.167 34.8352 123.738 35.4093 124.427 35.8086L140.293 44.9156C140.983 45.3152 141.764 45.5256 142.56 45.5256C143.356 45.5256 144.138 45.3152 144.827 44.9156L160.693 35.8086C161.382 35.4093 161.954 34.8352 162.352 34.1439C162.749 33.4526 162.959 32.6683 162.96 31.8698Z" fill="url(#paint0_linear_448_46870)"/>
<path d="M141.977 29.5818C142.34 29.7906 142.779 29.7906 143.142 29.5818C144.671 28.7031 148.679 26.0527 148.679 22.4231V17.6657C148.679 17.3806 148.501 17.1258 148.234 17.0277L143.027 15.12C142.725 15.0094 142.394 15.0094 142.092 15.12L136.885 17.0277C136.617 17.1258 136.439 17.3806 136.439 17.6657V22.4231C136.439 26.0527 140.448 28.7031 141.977 29.5818Z" fill="white"/>
<path d="M163.64 97.78V79.566C163.639 78.7675 163.429 77.9832 163.031 77.2919C162.633 76.6005 162.062 76.0265 161.373 75.6272L145.507 66.5202C144.817 66.1206 144.036 65.9102 143.24 65.9102C142.444 65.9102 141.662 66.1206 140.973 66.5202L125.107 75.6272C124.418 76.0265 123.846 76.6005 123.448 77.2919C123.051 77.9832 122.841 78.7675 122.84 79.566V97.78C122.841 98.5785 123.051 99.3627 123.448 100.054C123.846 100.745 124.418 101.319 125.107 101.719L140.973 110.826C141.662 111.225 142.444 111.436 143.24 111.436C144.036 111.436 144.817 111.225 145.507 110.826L161.373 101.719C162.062 101.319 162.633 100.745 163.031 100.054C163.429 99.3627 163.639 98.5785 163.64 97.78Z" fill="url(#paint1_linear_448_46870)"/>
<path d="M149.328 91.4672C149.525 89.567 148.741 87.9559 148.193 87.0877C148.013 86.8034 147.618 86.9064 147.567 87.2388L147.508 87.6127C147.378 88.4528 146.86 89.1826 146.109 89.5834C145.786 89.756 145.397 89.4123 145.505 89.0621C145.693 88.4462 145.882 87.646 145.882 86.9116C145.882 83.9358 143.438 80.4357 140.666 80.1807C140.482 80.1595 140.38 80.3719 140.482 80.5208C141.481 81.8811 141.379 83.8579 140.176 85.1119L138.811 86.536C137.771 87.62 137.119 89.1291 137.119 90.787C137.119 94.3792 139.973 97.2698 143.438 97.1635C146.475 97.0785 149.002 94.6129 149.328 91.4672Z" fill="white"/>
<g filter="url(#filter0_f_448_46870)">
<ellipse cx="97" cy="155.263" rx="85" ry="3.73718" fill="black" fill-opacity="0.3"/>
</g>
<path d="M104.479 56.7375C104.479 78.3156 86.9736 95.808 65.3793 95.808C43.785 95.808 26.2793 78.3156 26.2793 56.7375C26.2793 35.1595 43.785 17.667 65.3793 17.667C86.9736 17.667 104.479 35.1595 104.479 56.7375Z" fill="url(#paint2_linear_448_46870)"/>
<path d="M62.8839 61.3807C62.8839 60.4924 63.0315 59.7121 63.3267 59.0399C63.6219 58.3677 64.0032 57.7675 64.4705 57.2393C64.9379 56.7111 65.4299 56.219 65.9465 55.7628C66.4877 55.3067 66.992 54.8625 67.4594 54.4304C67.9268 53.9982 68.3081 53.5421 68.6033 53.0619C68.8984 52.5818 69.046 52.0416 69.046 51.4414C69.046 50.4331 68.6279 49.6168 67.7915 48.9926C66.9551 48.3684 65.8358 48.0563 64.4336 48.0563C63.0807 48.0563 61.8999 48.2964 60.8913 48.7765C59.9073 49.2567 59.0833 49.9409 58.4191 50.8292L54.8398 48.5604C55.873 47.192 57.226 46.1236 58.8988 45.3554C60.5715 44.5631 62.5518 44.167 64.8395 44.167C66.6353 44.167 68.2097 44.4311 69.5626 44.9593C70.9156 45.4634 71.9734 46.2077 72.736 47.192C73.4985 48.1523 73.8798 49.3287 73.8798 50.7212C73.8798 51.6815 73.7199 52.5217 73.4002 53.242C73.105 53.9622 72.7114 54.5984 72.2194 55.1506C71.752 55.6788 71.2477 56.183 70.7065 56.6631C70.1653 57.1193 69.6487 57.5754 69.1567 58.0316C68.6894 58.4877 68.3081 58.9799 68.0129 59.5081C67.7177 60.0362 67.5701 60.6604 67.5701 61.3807H62.8839ZM65.2454 69.9875C64.3844 69.9875 63.6711 69.7114 63.1053 69.1592C62.5641 68.6071 62.2935 67.9468 62.2935 67.1786C62.2935 66.4103 62.5641 65.7621 63.1053 65.2339C63.6711 64.6818 64.3844 64.4057 65.2454 64.4057C66.1064 64.4057 66.8075 64.6818 67.3487 65.2339C67.8899 65.7621 68.1605 66.4103 68.1605 67.1786C68.1605 67.9468 67.8899 68.6071 67.3487 69.1592C66.8075 69.7114 66.1064 69.9875 65.2454 69.9875Z" fill="white"/>
<defs>
<filter id="filter0_f_448_46870" x="0.00279713" y="139.529" width="193.994" height="31.4685" filterUnits="userSpaceOnUse" color-interpolation-filters="sRGB">
<feFlood flood-opacity="0" result="BackgroundImageFix"/>
<feBlend mode="normal" in="SourceGraphic" in2="BackgroundImageFix" result="shape"/>
<feGaussianBlur stdDeviation="5.9986" result="effect1_foregroundBlur_448_46870"/>
</filter>
<linearGradient id="paint0_linear_448_46870" x1="163.64" y1="36.0128" x2="121.498" y2="10.164" gradientUnits="userSpaceOnUse">
<stop stop-color="#00B09B"/>
<stop offset="1" stop-color="#96C93D"/>
</linearGradient>
<linearGradient id="paint1_linear_448_46870" x1="122.84" y1="79.1602" x2="166.076" y2="87.3253" gradientUnits="userSpaceOnUse">
<stop stop-color="#F7931A"/>
<stop offset="1" stop-color="#C83D56"/>
</linearGradient>
<linearGradient id="paint2_linear_448_46870" x1="26.2793" y1="48.9234" x2="106.827" y2="58.5177" gradientUnits="userSpaceOnUse">
<stop stop-color="#5855FF"/>
<stop offset="1" stop-color="#DC1FFF"/>
</linearGradient>
</defs>
</svg>
