<svg width="151" height="121" viewBox="0 0 151 121" fill="none" xmlns="http://www.w3.org/2000/svg">
<path d="M78.2352 60.427C78.2352 82.005 60.7295 99.4975 39.1352 99.4975C17.5408 99.4975 0.0351562 82.005 0.0351562 60.427C0.0351562 38.8489 17.5408 21.3564 39.1352 21.3564C60.7295 21.3564 78.2352 38.8489 78.2352 60.427Z" fill="#A934FF"/>
<path d="M36.6397 65.0701C36.6397 64.1818 36.7873 63.4016 37.0825 62.7293C37.3777 62.0571 37.759 61.4569 38.2264 60.9288C38.6938 60.4006 39.1858 59.9084 39.7024 59.4523C40.2436 58.9961 40.7478 58.552 41.2152 58.1198C41.6826 57.6877 42.0639 57.2315 42.3591 56.7514C42.6543 56.2712 42.8019 55.731 42.8019 55.1308C42.8019 54.1225 42.3837 53.3062 41.5473 52.682C40.7109 52.0578 39.5917 51.7457 38.1895 51.7457C36.8365 51.7457 35.6558 51.9858 34.6472 52.466C33.6632 52.9461 32.8391 53.6303 32.1749 54.5186L28.5957 52.2499C29.6289 50.8814 30.9819 49.8131 32.6546 49.0448C34.3274 48.2526 36.3076 47.8564 38.5954 47.8564C40.3912 47.8564 41.9655 48.1205 43.3185 48.6487C44.6715 49.1529 45.7292 49.8971 46.4918 50.8814C47.2544 51.8418 47.6357 53.0181 47.6357 54.4106C47.6357 55.3709 47.4758 56.2112 47.156 56.9314C46.8608 57.6517 46.4672 58.2879 45.9752 58.8401C45.5078 59.3682 45.0036 59.8724 44.4624 60.3526C43.9212 60.8087 43.4046 61.2649 42.9126 61.721C42.4452 62.1772 42.0639 62.6693 41.7687 63.1975C41.4735 63.7257 41.3259 64.3499 41.3259 65.0701H36.6397ZM39.0013 73.677C38.1403 73.677 37.4269 73.4009 36.8611 72.8487C36.3199 72.2965 36.0493 71.6363 36.0493 70.868C36.0493 70.0998 36.3199 69.4516 36.8611 68.9234C37.4269 68.3712 38.1403 68.0951 39.0013 68.0951C39.8623 68.0951 40.5633 68.3712 41.1045 68.9234C41.6457 69.4516 41.9163 70.0998 41.9163 70.868C41.9163 71.6363 41.6457 72.2965 41.1045 72.8487C40.5633 73.4009 39.8623 73.677 39.0013 73.677Z" fill="white"/>
<path d="M120.963 107.793V91.5411C120.963 90.8286 120.773 90.1288 120.412 89.512C120.052 88.8951 119.535 88.3829 118.912 88.0266L104.551 79.9008C103.927 79.5442 103.219 79.3564 102.499 79.3564C101.779 79.3564 101.071 79.5442 100.448 79.9008L86.0867 88.0266C85.4636 88.3829 84.946 88.8951 84.5859 89.512C84.2258 90.1288 84.0359 90.8286 84.0352 91.5411V107.793C84.0359 108.505 84.2258 109.205 84.5859 109.822C84.946 110.439 85.4636 110.951 86.0867 111.307L100.448 119.433C101.071 119.79 101.779 119.977 102.499 119.977C103.219 119.977 103.927 119.79 104.551 119.433L118.912 111.307C119.535 110.951 120.052 110.439 120.412 109.822C120.773 109.205 120.963 108.505 120.963 107.793Z" fill="url(#paint0_linear_2009_10812)" stroke="#3C3C3C" stroke-width="1.10784" stroke-linecap="round" stroke-linejoin="round"/>
<g clip-path="url(#clip0_2009_10812)">
<path d="M106.715 101.207C106.85 99.9487 106.312 98.8817 105.935 98.3067C105.812 98.1184 105.541 98.1866 105.506 98.4068L105.466 98.6544C105.376 99.2107 105.021 99.6941 104.506 99.9595C104.284 100.074 104.017 99.8462 104.091 99.6142C104.22 99.2064 104.349 98.6765 104.349 98.1901C104.349 96.2193 102.672 93.9013 100.77 93.7324C100.644 93.7184 100.574 93.8591 100.644 93.9577C101.329 94.8585 101.259 96.1677 100.434 96.9982L99.4969 97.9413C98.7836 98.6592 98.3359 99.6586 98.3359 100.757C98.3359 103.136 100.294 105.05 102.672 104.98C104.756 104.923 106.491 103.29 106.715 101.207Z" fill="white"/>
</g>
<path d="M120.963 29.4593V13.2076C120.963 12.4951 120.773 11.7953 120.412 11.1785C120.052 10.5616 119.535 10.0494 118.912 9.69313L104.551 1.56728C103.927 1.21068 103.219 1.02295 102.499 1.02295C101.779 1.02295 101.071 1.21068 100.448 1.56728L86.0867 9.69313C85.4636 10.0494 84.946 10.5616 84.5859 11.1785C84.2258 11.7953 84.0359 12.4951 84.0352 13.2076V29.4593C84.0359 30.1717 84.2258 30.8715 84.5859 31.4884C84.946 32.1052 85.4636 32.6174 86.0867 32.9737L100.448 41.0995C101.071 41.4561 101.779 41.6439 102.499 41.6439C103.219 41.6439 103.927 41.4561 104.551 41.0995L118.912 32.9737C119.535 32.6174 120.052 32.1052 120.412 31.4884C120.773 30.8715 120.963 30.1717 120.963 29.4593Z" fill="url(#paint1_linear_2009_10812)" stroke="#3C3C3C" stroke-width="1.10784" stroke-linecap="round" stroke-linejoin="round"/>
<g clip-path="url(#clip1_2009_10812)">
<path d="M101.775 16.0231C101.921 15.8898 102.148 15.8898 102.294 16.0231C103.363 16.9959 104.685 17.5272 106.048 17.5303C106.216 17.5306 106.369 17.6404 106.404 17.8052C106.58 18.6193 106.628 19.4641 106.544 20.2991C106.451 21.2311 106.196 22.132 105.795 22.9483C105.393 23.7645 104.854 24.4794 104.208 25.0506C103.562 25.6217 102.823 26.0374 102.034 26.2729C101.246 26.0374 100.507 25.6217 99.8612 25.0506C99.2152 24.4794 98.6755 23.7645 98.274 22.9483C97.8726 22.132 97.6177 21.2311 97.5244 20.2991C97.4408 19.4641 97.4885 18.6193 97.6645 17.8052C97.7001 17.6404 97.8523 17.5306 98.0209 17.5303C99.3837 17.5272 100.706 16.9959 101.775 16.0231Z" fill="white"/>
</g>
<path d="M149.963 68.7928V52.5411C149.963 51.8286 149.773 51.1288 149.412 50.512C149.052 49.8951 148.535 49.3829 147.912 49.0266L133.551 40.9008C132.927 40.5442 132.219 40.3564 131.499 40.3564C130.779 40.3564 130.071 40.5442 129.448 40.9008L115.087 49.0266C114.464 49.3829 113.946 49.8951 113.586 50.512C113.226 51.1288 113.036 51.8286 113.035 52.5411V68.7928C113.036 69.5052 113.226 70.205 113.586 70.8218C113.946 71.4387 114.464 71.9509 115.087 72.3072L129.448 80.433C130.071 80.7896 130.779 80.9774 131.499 80.9774C132.219 80.9774 132.927 80.7896 133.551 80.433L147.912 72.3072C148.535 71.9509 149.052 71.4387 149.412 70.8218C149.773 70.205 149.963 69.5052 149.963 68.7928Z" fill="url(#paint2_linear_2009_10812)" stroke="#3C3C3C" stroke-width="1.10784" stroke-linecap="round" stroke-linejoin="round"/>
<g clip-path="url(#clip2_2009_10812)">
<path d="M131.71 64.1542C131.604 64.0952 131.474 64.0951 131.368 64.1541L128.7 65.6291C128.441 65.7719 128.132 65.554 128.18 65.2627L128.698 62.0867C128.716 61.9758 128.68 61.863 128.602 61.7826L126.392 59.5204C126.19 59.3145 126.307 58.9671 126.591 58.9238L129.61 58.4637C129.727 58.4459 129.827 58.3711 129.877 58.2643L131.215 55.4135C131.342 55.1423 131.728 55.1423 131.855 55.4135L133.193 58.2643C133.243 58.3711 133.343 58.4459 133.46 58.4637L136.479 58.9238C136.764 58.9671 136.88 59.3145 136.679 59.5204L134.469 61.7826C134.39 61.863 134.354 61.9758 134.372 62.0867L134.89 65.2618C134.938 65.5533 134.628 65.7712 134.37 65.628L131.71 64.1542Z" fill="white"/>
</g>
<defs>
<linearGradient id="paint0_linear_2009_10812" x1="120.963" y1="99.2976" x2="84.0352" y2="99.2976" gradientUnits="userSpaceOnUse">
<stop stop-color="#FF8C15"/>
<stop offset="1" stop-color="#C5374E"/>
</linearGradient>
<linearGradient id="paint1_linear_2009_10812" x1="120.963" y1="20.9641" x2="84.0352" y2="20.9641" gradientUnits="userSpaceOnUse">
<stop stop-color="#08B197"/>
<stop offset="1" stop-color="#107839"/>
</linearGradient>
<linearGradient id="paint2_linear_2009_10812" x1="149.963" y1="60.2976" x2="113.035" y2="60.2976" gradientUnits="userSpaceOnUse">
<stop stop-color="#FFD71B"/>
<stop offset="1" stop-color="#B65610"/>
</linearGradient>
<clipPath id="clip0_2009_10812">
<rect width="14" height="15" fill="white" transform="translate(95.5352 91.8564)"/>
</clipPath>
<clipPath id="clip1_2009_10812">
<rect width="14" height="14" fill="white" transform="translate(95.0352 14.0229)"/>
</clipPath>
<clipPath id="clip2_2009_10812">
<rect width="15" height="15" fill="white" transform="translate(124.035 52.8564)"/>
</clipPath>
</defs>
</svg>
