<svg width="30" height="30" viewBox="0 0 30 30" fill="none" xmlns="http://www.w3.org/2000/svg">
<path fill-rule="evenodd" clip-rule="evenodd" d="M18.8707 24.2213C22.6037 22.6584 25.0126 19.0032 24.9999 14.9573C24.9747 9.43668 20.485 4.98742 14.9485 5.00003C10.9128 5.02523 7.26802 7.47044 5.74201 11.2139C4.216 14.9573 5.08621 19.2553 7.96165 22.1038C10.8371 24.9524 15.1377 25.7842 18.8707 24.2213ZM18.5804 23.5281C22.036 22.0786 24.2683 18.7007 24.2557 14.9573C24.2304 9.85262 20.0686 5.74368 14.9483 5.76889C11.2152 5.7941 7.84794 8.05024 6.43544 11.5164C5.02294 14.9699 5.83008 18.9402 8.49114 21.5745C11.1522 24.1961 15.1248 24.9776 18.5804 23.5281Z" fill="#3C3C3C"/>
<path d="M15.0366 10.067C15.5033 10.1048 17.1932 10.6468 17.622 10.9493C17.2563 9.90311 16.0456 9.76446 15.0366 10.067Z" fill="#3C3C3C"/>
<path fill-rule="evenodd" clip-rule="evenodd" d="M17.7482 10.9986C18.411 11.2591 19.0619 11.515 19.6906 11.6928C24.4956 13.0036 22.1498 16.1042 18.8834 17.768C14.8603 19.8224 16.6385 24.0952 16.6385 24.0952C11.4299 25.2044 7.82302 21.0703 7.49512 20.3644C8.3666 18.7583 8.41474 17.1574 8.45889 15.689C8.53357 13.205 8.59685 11.1002 12.6154 9.99123C13.3974 9.80216 14.2171 9.87779 15.0369 10.0669C15.781 9.89039 16.6512 9.87779 17.1052 10.2811C17.4205 10.5584 17.5844 10.7727 17.6222 10.9491C17.6643 10.9656 17.7063 10.9821 17.7482 10.9986ZM19.8292 14.7807C20.0688 15.0202 20.485 14.8437 20.485 14.5034C20.485 14.2891 20.3084 14.1253 20.094 14.1127C19.7535 14.1253 19.5896 14.5412 19.8292 14.7807ZM14.3684 14.3773C15.0368 14.1001 15.4782 13.4446 15.4782 12.7262C15.4782 12.2473 15.289 11.7935 14.9359 11.4406C14.608 11.1129 14.154 10.9238 13.6747 10.9238C12.9559 10.9238 12.3001 11.365 12.0226 12.033C11.7451 12.701 11.8965 13.4699 12.4136 13.9866C12.9306 14.5034 13.7 14.6546 14.3684 14.3773Z" fill="#3C3C3C"/>
<path d="M14.9484 12.739C14.9484 13.2431 14.6457 13.7095 14.1664 13.8985C13.6998 14.0876 13.1575 13.9868 12.7918 13.6212C12.426 13.2557 12.3251 12.7264 12.5143 12.2474C12.7035 11.781 13.1701 11.4659 13.6746 11.4659C14.3808 11.4785 14.9484 12.0457 14.9484 12.739Z" fill="#3C3C3C"/>
<path d="M21.9352 15.2975C20.4849 16.3184 18.8328 17.0873 16.4996 17.0873C15.4024 17.0873 15.188 15.9277 14.4565 16.4949C14.0782 16.7848 12.7666 17.4402 11.7198 17.4024C10.6731 17.352 8.98311 16.7344 8.51648 14.5161C8.3273 16.747 8.23902 18.3855 7.39404 20.2635C9.05878 22.9356 13.0314 24.9901 16.6384 24.1078C16.2474 21.3979 18.6184 18.751 19.9426 17.4024C20.4597 16.873 21.4308 16.0412 21.9352 15.2975Z" fill="#3C3C3C"/>
<path d="M21.8722 15.3606C21.4182 15.7765 20.8885 16.079 20.3462 16.3437C19.7913 16.6084 19.2238 16.8101 18.631 16.9739C18.0383 17.1252 17.4203 17.2386 16.8023 17.1882C16.1718 17.1378 15.5412 16.9235 15.125 16.4572L15.1502 16.4319C15.6547 16.7597 16.2474 16.8731 16.8276 16.8983C17.4203 16.9109 18.0131 16.8731 18.5932 16.7597C19.1733 16.6336 19.7535 16.4572 20.3084 16.2303C20.8633 16.0034 21.4056 15.7387 21.8848 15.3606H21.8722Z" fill="#3C3C3C"/>
</svg>
