<svg width="200" height="58" viewBox="0 0 200 58" fill="none" xmlns="http://www.w3.org/2000/svg">
<path d="M27.9459 35.18C26.6739 35.18 25.5219 34.904 24.4899 34.352C23.4699 33.788 22.6659 33.014 22.0779 32.03C21.5019 31.046 21.2139 29.936 21.2139 28.7C21.2139 27.464 21.5079 26.354 22.0959 25.37C22.6839 24.386 23.4879 23.618 24.5079 23.066C25.5399 22.502 26.6919 22.22 27.9639 22.22C28.9959 22.22 29.9379 22.4 30.7899 22.76C31.6419 23.12 32.3619 23.642 32.9499 24.326L31.4379 25.748C30.5259 24.764 29.4039 24.272 28.0719 24.272C27.2079 24.272 26.4339 24.464 25.7499 24.848C25.0659 25.22 24.5319 25.742 24.1479 26.414C23.7639 27.086 23.5719 27.848 23.5719 28.7C23.5719 29.552 23.7639 30.314 24.1479 30.986C24.5319 31.658 25.0659 32.186 25.7499 32.57C26.4339 32.942 27.2079 33.128 28.0719 33.128C29.4039 33.128 30.5259 32.63 31.4379 31.634L32.9499 33.074C32.3619 33.758 31.6359 34.28 30.7719 34.64C29.9199 35 28.9779 35.18 27.9459 35.18ZM38.9444 35.126C37.9724 35.126 37.0964 34.916 36.3164 34.496C35.5364 34.076 34.9244 33.494 34.4804 32.75C34.0484 31.994 33.8324 31.142 33.8324 30.194C33.8324 29.246 34.0484 28.4 34.4804 27.656C34.9244 26.912 35.5364 26.33 36.3164 25.91C37.0964 25.49 37.9724 25.28 38.9444 25.28C39.9284 25.28 40.8104 25.49 41.5904 25.91C42.3704 26.33 42.9764 26.912 43.4084 27.656C43.8524 28.4 44.0744 29.246 44.0744 30.194C44.0744 31.142 43.8524 31.994 43.4084 32.75C42.9764 33.494 42.3704 34.076 41.5904 34.496C40.8104 34.916 39.9284 35.126 38.9444 35.126ZM38.9444 33.2C39.7724 33.2 40.4564 32.924 40.9964 32.372C41.5364 31.82 41.8064 31.094 41.8064 30.194C41.8064 29.294 41.5364 28.568 40.9964 28.016C40.4564 27.464 39.7724 27.188 38.9444 27.188C38.1164 27.188 37.4324 27.464 36.8924 28.016C36.3644 28.568 36.1004 29.294 36.1004 30.194C36.1004 31.094 36.3644 31.82 36.8924 32.372C37.4324 32.924 38.1164 33.2 38.9444 33.2ZM46.226 21.644H48.476V35H46.226V21.644ZM51.4291 21.644H53.6791V35H51.4291V21.644ZM65.6683 30.248C65.6683 30.404 65.6563 30.626 65.6323 30.914H58.0903C58.2223 31.622 58.5643 32.186 59.1163 32.606C59.6803 33.014 60.3763 33.218 61.2043 33.218C62.2603 33.218 63.1303 32.87 63.8143 32.174L65.0203 33.56C64.5883 34.076 64.0423 34.466 63.3823 34.73C62.7223 34.994 61.9783 35.126 61.1503 35.126C60.0943 35.126 59.1643 34.916 58.3603 34.496C57.5563 34.076 56.9323 33.494 56.4883 32.75C56.0563 31.994 55.8403 31.142 55.8403 30.194C55.8403 29.258 56.0503 28.418 56.4703 27.674C56.9023 26.918 57.4963 26.33 58.2523 25.91C59.0083 25.49 59.8603 25.28 60.8083 25.28C61.7443 25.28 62.5783 25.49 63.3103 25.91C64.0543 26.318 64.6303 26.9 65.0383 27.656C65.4583 28.4 65.6683 29.264 65.6683 30.248ZM60.8083 27.08C60.0883 27.08 59.4763 27.296 58.9723 27.728C58.4803 28.148 58.1803 28.712 58.0723 29.42H63.5263C63.4303 28.724 63.1363 28.16 62.6443 27.728C62.1523 27.296 61.5403 27.08 60.8083 27.08ZM72.2395 35.126C71.2435 35.126 70.3495 34.916 69.5575 34.496C68.7655 34.076 68.1475 33.494 67.7035 32.75C67.2595 31.994 67.0375 31.142 67.0375 30.194C67.0375 29.246 67.2595 28.4 67.7035 27.656C68.1475 26.912 68.7595 26.33 69.5395 25.91C70.3315 25.49 71.2315 25.28 72.2395 25.28C73.1875 25.28 74.0155 25.472 74.7235 25.856C75.4435 26.24 75.9835 26.792 76.3435 27.512L74.6155 28.52C74.3395 28.076 73.9915 27.746 73.5715 27.53C73.1635 27.302 72.7135 27.188 72.2215 27.188C71.3815 27.188 70.6855 27.464 70.1335 28.016C69.5815 28.556 69.3055 29.282 69.3055 30.194C69.3055 31.106 69.5755 31.838 70.1155 32.39C70.6675 32.93 71.3695 33.2 72.2215 33.2C72.7135 33.2 73.1635 33.092 73.5715 32.876C73.9915 32.648 74.3395 32.312 74.6155 31.868L76.3435 32.876C75.9715 33.596 75.4255 34.154 74.7055 34.55C73.9975 34.934 73.1755 35.126 72.2395 35.126ZM84.1895 34.478C83.9255 34.694 83.6015 34.856 83.2175 34.964C82.8455 35.072 82.4495 35.126 82.0295 35.126C80.9735 35.126 80.1575 34.85 79.5815 34.298C79.0055 33.746 78.7175 32.942 78.7175 31.886V27.26H77.1335V25.46H78.7175V23.264H80.9675V25.46H83.5415V27.26H80.9675V31.832C80.9675 32.3 81.0815 32.66 81.3095 32.912C81.5375 33.152 81.8675 33.272 82.2995 33.272C82.8035 33.272 83.2235 33.14 83.5595 32.876L84.1895 34.478ZM86.0405 25.388H88.2905V35H86.0405V25.388ZM87.1745 23.804C86.7665 23.804 86.4245 23.678 86.1485 23.426C85.8725 23.162 85.7345 22.838 85.7345 22.454C85.7345 22.07 85.8725 21.752 86.1485 21.5C86.4245 21.236 86.7665 21.104 87.1745 21.104C87.5825 21.104 87.9245 21.23 88.2005 21.482C88.4765 21.722 88.6145 22.028 88.6145 22.4C88.6145 22.796 88.4765 23.132 88.2005 23.408C87.9365 23.672 87.5945 23.804 87.1745 23.804ZM95.5636 35.126C94.5916 35.126 93.7156 34.916 92.9356 34.496C92.1556 34.076 91.5436 33.494 91.0996 32.75C90.6676 31.994 90.4516 31.142 90.4516 30.194C90.4516 29.246 90.6676 28.4 91.0996 27.656C91.5436 26.912 92.1556 26.33 92.9356 25.91C93.7156 25.49 94.5916 25.28 95.5636 25.28C96.5476 25.28 97.4296 25.49 98.2096 25.91C98.9896 26.33 99.5956 26.912 100.028 27.656C100.472 28.4 100.694 29.246 100.694 30.194C100.694 31.142 100.472 31.994 100.028 32.75C99.5956 33.494 98.9896 34.076 98.2096 34.496C97.4296 34.916 96.5476 35.126 95.5636 35.126ZM95.5636 33.2C96.3916 33.2 97.0756 32.924 97.6156 32.372C98.1556 31.82 98.4256 31.094 98.4256 30.194C98.4256 29.294 98.1556 28.568 97.6156 28.016C97.0756 27.464 96.3916 27.188 95.5636 27.188C94.7356 27.188 94.0516 27.464 93.5116 28.016C92.9836 28.568 92.7196 29.294 92.7196 30.194C92.7196 31.094 92.9836 31.82 93.5116 32.372C94.0516 32.924 94.7356 33.2 95.5636 33.2ZM108.299 25.28C109.511 25.28 110.483 25.634 111.215 26.342C111.947 27.05 112.313 28.1 112.313 29.492V35H110.063V29.78C110.063 28.94 109.865 28.31 109.469 27.89C109.073 27.458 108.509 27.242 107.777 27.242C106.949 27.242 106.295 27.494 105.815 27.998C105.335 28.49 105.095 29.204 105.095 30.14V35H102.845V25.388H104.987V26.63C105.359 26.186 105.827 25.85 106.391 25.622C106.955 25.394 107.591 25.28 108.299 25.28ZM124.264 35.18C123.292 35.18 122.35 35.042 121.438 34.766C120.538 34.49 119.824 34.124 119.296 33.668L120.106 31.85C120.622 32.258 121.252 32.594 121.996 32.858C122.752 33.11 123.508 33.236 124.264 33.236C125.2 33.236 125.896 33.086 126.352 32.786C126.82 32.486 127.054 32.09 127.054 31.598C127.054 31.238 126.922 30.944 126.658 30.716C126.406 30.476 126.082 30.29 125.686 30.158C125.29 30.026 124.75 29.876 124.066 29.708C123.106 29.48 122.326 29.252 121.726 29.024C121.138 28.796 120.628 28.442 120.196 27.962C119.776 27.47 119.566 26.81 119.566 25.982C119.566 25.286 119.752 24.656 120.124 24.092C120.508 23.516 121.078 23.06 121.834 22.724C122.602 22.388 123.538 22.22 124.642 22.22C125.41 22.22 126.166 22.316 126.91 22.508C127.654 22.7 128.296 22.976 128.836 23.336L128.098 25.154C127.546 24.83 126.97 24.584 126.37 24.416C125.77 24.248 125.188 24.164 124.624 24.164C123.7 24.164 123.01 24.32 122.554 24.632C122.11 24.944 121.888 25.358 121.888 25.874C121.888 26.234 122.014 26.528 122.266 26.756C122.53 26.984 122.86 27.164 123.256 27.296C123.652 27.428 124.192 27.578 124.876 27.746C125.812 27.962 126.58 28.19 127.18 28.43C127.78 28.658 128.29 29.012 128.71 29.492C129.142 29.972 129.358 30.62 129.358 31.436C129.358 32.132 129.166 32.762 128.782 33.326C128.41 33.89 127.84 34.34 127.072 34.676C126.304 35.012 125.368 35.18 124.264 35.18ZM146.281 25.388L142.735 35H140.575L138.091 28.376L135.571 35H133.411L129.883 25.388H132.007L134.545 32.48L137.191 25.388H139.081L141.673 32.516L144.283 25.388H146.281ZM156.6 30.248C156.6 30.404 156.588 30.626 156.564 30.914H149.022C149.154 31.622 149.496 32.186 150.048 32.606C150.612 33.014 151.308 33.218 152.136 33.218C153.192 33.218 154.062 32.87 154.746 32.174L155.952 33.56C155.52 34.076 154.974 34.466 154.314 34.73C153.654 34.994 152.91 35.126 152.082 35.126C151.026 35.126 150.096 34.916 149.292 34.496C148.488 34.076 147.864 33.494 147.42 32.75C146.988 31.994 146.772 31.142 146.772 30.194C146.772 29.258 146.982 28.418 147.402 27.674C147.834 26.918 148.428 26.33 149.184 25.91C149.94 25.49 150.792 25.28 151.74 25.28C152.676 25.28 153.51 25.49 154.242 25.91C154.986 26.318 155.562 26.9 155.97 27.656C156.39 28.4 156.6 29.264 156.6 30.248ZM151.74 27.08C151.02 27.08 150.408 27.296 149.904 27.728C149.412 28.148 149.112 28.712 149.004 29.42H154.458C154.362 28.724 154.068 28.16 153.576 27.728C153.084 27.296 152.472 27.08 151.74 27.08ZM167.797 30.248C167.797 30.404 167.785 30.626 167.761 30.914H160.219C160.351 31.622 160.693 32.186 161.245 32.606C161.809 33.014 162.505 33.218 163.333 33.218C164.389 33.218 165.259 32.87 165.943 32.174L167.149 33.56C166.717 34.076 166.171 34.466 165.511 34.73C164.851 34.994 164.107 35.126 163.279 35.126C162.223 35.126 161.293 34.916 160.489 34.496C159.685 34.076 159.061 33.494 158.617 32.75C158.185 31.994 157.969 31.142 157.969 30.194C157.969 29.258 158.179 28.418 158.599 27.674C159.031 26.918 159.625 26.33 160.381 25.91C161.137 25.49 161.989 25.28 162.937 25.28C163.873 25.28 164.707 25.49 165.439 25.91C166.183 26.318 166.759 26.9 167.167 27.656C167.587 28.4 167.797 29.264 167.797 30.248ZM162.937 27.08C162.217 27.08 161.605 27.296 161.101 27.728C160.609 28.148 160.309 28.712 160.201 29.42H165.655C165.559 28.724 165.265 28.16 164.773 27.728C164.281 27.296 163.669 27.08 162.937 27.08ZM175.286 25.28C176.222 25.28 177.056 25.484 177.788 25.892C178.532 26.3 179.114 26.876 179.534 27.62C179.954 28.364 180.164 29.222 180.164 30.194C180.164 31.166 179.954 32.03 179.534 32.786C179.114 33.53 178.532 34.106 177.788 34.514C177.056 34.922 176.222 35.126 175.286 35.126C173.99 35.126 172.964 34.694 172.208 33.83V38.492H169.958V25.388H172.1V26.648C172.472 26.192 172.928 25.85 173.468 25.622C174.02 25.394 174.626 25.28 175.286 25.28ZM175.034 33.2C175.862 33.2 176.54 32.924 177.068 32.372C177.608 31.82 177.878 31.094 177.878 30.194C177.878 29.294 177.608 28.568 177.068 28.016C176.54 27.464 175.862 27.188 175.034 27.188C174.494 27.188 174.008 27.314 173.576 27.566C173.144 27.806 172.802 28.154 172.55 28.61C172.298 29.066 172.172 29.594 172.172 30.194C172.172 30.794 172.298 31.322 172.55 31.778C172.802 32.234 173.144 32.588 173.576 32.84C174.008 33.08 174.494 33.2 175.034 33.2ZM191.334 30.248C191.334 30.404 191.322 30.626 191.298 30.914H183.756C183.888 31.622 184.23 32.186 184.782 32.606C185.346 33.014 186.042 33.218 186.87 33.218C187.926 33.218 188.796 32.87 189.48 32.174L190.686 33.56C190.254 34.076 189.708 34.466 189.048 34.73C188.388 34.994 187.644 35.126 186.816 35.126C185.76 35.126 184.83 34.916 184.026 34.496C183.222 34.076 182.598 33.494 182.154 32.75C181.722 31.994 181.506 31.142 181.506 30.194C181.506 29.258 181.716 28.418 182.136 27.674C182.568 26.918 183.162 26.33 183.918 25.91C184.674 25.49 185.526 25.28 186.474 25.28C187.41 25.28 188.244 25.49 188.976 25.91C189.72 26.318 190.296 26.9 190.704 27.656C191.124 28.4 191.334 29.264 191.334 30.248ZM186.474 27.08C185.754 27.08 185.142 27.296 184.638 27.728C184.146 28.148 183.846 28.712 183.738 29.42H189.192C189.096 28.724 188.802 28.16 188.31 27.728C187.818 27.296 187.206 27.08 186.474 27.08ZM195.638 26.792C196.286 25.784 197.426 25.28 199.058 25.28V27.422C198.866 27.386 198.692 27.368 198.536 27.368C197.66 27.368 196.976 27.626 196.484 28.142C195.992 28.646 195.746 29.378 195.746 30.338V35H193.496V25.388H195.638V26.792Z" fill="white"/>
<path d="M54 16.1136V12C54 6.47715 49.5228 2 44 2H12C6.47715 2 2 6.47715 2 12V46C2 51.5228 6.47715 56 12 56H44C49.5228 56 54 51.5228 54 46V42.5" stroke="white" stroke-width="4" stroke-linecap="round"/>
</svg>
