<svg width="498" height="319" viewBox="0 0 498 319" fill="none" xmlns="http://www.w3.org/2000/svg">
<g filter="url(#filter0_f_290_13293)">
<ellipse cx="248.554" cy="305.27" rx="241.554" ry="6.72941" fill="#111111" fill-opacity="0.15"/>
</g>
<rect x="167.721" y="64.1235" width="162.89" height="58.9529" rx="7.5" fill="white" stroke="#636363"/>
<path d="M226.585 101.753V87.7529H232.345C233.585 87.7529 234.645 87.9529 235.525 88.3529C236.418 88.7529 237.105 89.3263 237.585 90.0729C238.065 90.8196 238.305 91.7063 238.305 92.7329C238.305 93.7596 238.065 94.6463 237.585 95.3929C237.105 96.1396 236.418 96.7129 235.525 97.1129C234.645 97.5129 233.585 97.7129 232.345 97.7129H228.025L229.185 96.4929V101.753H226.585ZM229.185 96.7729L228.025 95.5129H232.225C233.372 95.5129 234.232 95.2729 234.805 94.7929C235.392 94.2996 235.685 93.6129 235.685 92.7329C235.685 91.8396 235.392 91.1529 234.805 90.6729C234.232 90.1929 233.372 89.9529 232.225 89.9529H228.025L229.185 88.6729V96.7729ZM240.564 101.753V91.0729H242.944V94.0129L242.664 93.1529C242.984 92.4329 243.484 91.8863 244.164 91.5129C244.857 91.1396 245.717 90.9529 246.744 90.9529V93.3329C246.637 93.3063 246.537 93.2929 246.444 93.2929C246.35 93.2796 246.257 93.2729 246.164 93.2729C245.217 93.2729 244.464 93.5529 243.904 94.1129C243.344 94.6596 243.064 95.4796 243.064 96.5729V101.753H240.564ZM248.865 101.753V91.0729H251.365V101.753H248.865ZM250.125 89.3129C249.658 89.3129 249.271 89.1663 248.965 88.8729C248.671 88.5796 248.525 88.2263 248.525 87.8129C248.525 87.3863 248.671 87.0329 248.965 86.7529C249.271 86.4596 249.658 86.3129 250.125 86.3129C250.591 86.3129 250.971 86.4529 251.265 86.7329C251.571 86.9996 251.725 87.3396 251.725 87.7529C251.725 88.1929 251.578 88.5663 251.285 88.8729C250.991 89.1663 250.605 89.3129 250.125 89.3129ZM268.126 90.9529C268.979 90.9529 269.733 91.1196 270.386 91.4529C271.053 91.7863 271.573 92.2996 271.946 92.9929C272.319 93.6729 272.506 94.5529 272.506 95.6329V101.753H270.006V95.9529C270.006 95.0063 269.799 94.2996 269.386 93.8329C268.973 93.3663 268.379 93.1329 267.606 93.1329C267.059 93.1329 266.573 93.2529 266.146 93.4929C265.733 93.7329 265.406 94.0863 265.166 94.5529C264.939 95.0196 264.826 95.6129 264.826 96.3329V101.753H262.326V95.9529C262.326 95.0063 262.119 94.2996 261.706 93.8329C261.293 93.3663 260.699 93.1329 259.926 93.1329C259.379 93.1329 258.893 93.2529 258.466 93.4929C258.053 93.7329 257.726 94.0863 257.486 94.5529C257.259 95.0196 257.146 95.6129 257.146 96.3329V101.753H254.646V91.0729H257.026V93.9129L256.606 93.0729C256.966 92.3796 257.486 91.8529 258.166 91.4929C258.859 91.1329 259.646 90.9529 260.526 90.9529C261.526 90.9529 262.393 91.1996 263.126 91.6929C263.873 92.1863 264.366 92.9329 264.606 93.9329L263.626 93.5929C263.973 92.7929 264.546 92.1529 265.346 91.6729C266.146 91.1929 267.073 90.9529 268.126 90.9529ZM282.281 101.753V99.5929L282.141 99.1329V95.3529C282.141 94.6196 281.921 94.0529 281.481 93.6529C281.041 93.2396 280.374 93.0329 279.481 93.0329C278.881 93.0329 278.287 93.1263 277.701 93.3129C277.127 93.4996 276.641 93.7596 276.241 94.0929L275.261 92.2729C275.834 91.8329 276.514 91.5063 277.301 91.2929C278.101 91.0663 278.927 90.9529 279.781 90.9529C281.327 90.9529 282.521 91.3263 283.361 92.0729C284.214 92.8063 284.641 93.9463 284.641 95.4929V101.753H282.281ZM278.921 101.893C278.121 101.893 277.421 101.76 276.821 101.493C276.221 101.213 275.754 100.833 275.421 100.353C275.101 99.8596 274.941 99.3063 274.941 98.6929C274.941 98.0929 275.081 97.5529 275.361 97.0729C275.654 96.5929 276.127 96.2129 276.781 95.9329C277.434 95.6529 278.301 95.5129 279.381 95.5129H282.481V97.1729H279.561C278.707 97.1729 278.134 97.3129 277.841 97.5929C277.547 97.8596 277.401 98.1929 277.401 98.5929C277.401 99.0463 277.581 99.4063 277.941 99.6729C278.301 99.9396 278.801 100.073 279.441 100.073C280.054 100.073 280.601 99.9329 281.081 99.6529C281.574 99.3729 281.927 98.9596 282.141 98.4129L282.561 99.9129C282.321 100.54 281.887 101.026 281.261 101.373C280.647 101.72 279.867 101.893 278.921 101.893ZM287.849 101.753V91.0729H290.229V94.0129L289.949 93.1529C290.269 92.4329 290.769 91.8863 291.449 91.5129C292.142 91.1396 293.002 90.9529 294.029 90.9529V93.3329C293.922 93.3063 293.822 93.2929 293.729 93.2929C293.636 93.2796 293.542 93.2729 293.449 93.2729C292.502 93.2729 291.749 93.5529 291.189 94.1129C290.629 94.6596 290.349 95.4796 290.349 96.5729V101.753H287.849ZM297.42 105.773C296.9 105.773 296.38 105.686 295.86 105.513C295.34 105.34 294.907 105.1 294.56 104.793L295.56 102.953C295.814 103.18 296.1 103.36 296.42 103.493C296.74 103.626 297.067 103.693 297.4 103.693C297.854 103.693 298.22 103.58 298.5 103.353C298.78 103.126 299.04 102.746 299.28 102.213L299.9 100.813L300.1 100.513L304.14 91.0729H306.54L301.54 102.613C301.207 103.413 300.834 104.046 300.42 104.513C300.02 104.98 299.567 105.306 299.06 105.493C298.567 105.68 298.02 105.773 297.42 105.773ZM299.62 102.133L294.8 91.0729H297.4L301.32 100.293L299.62 102.133Z" fill="#3C3C3C"/>
<rect x="167.721" y="181.583" width="162.89" height="58.9529" rx="7.5" fill="white" stroke="#3C3C3C"/>
<path d="M225.417 203.212H228.017V217.212H225.417V203.212ZM218.177 217.212H215.577V203.212H218.177V217.212ZM225.617 211.212H217.957V208.992H225.617V211.212ZM232.409 221.232C231.889 221.232 231.369 221.145 230.849 220.972C230.329 220.799 229.895 220.559 229.549 220.252L230.549 218.412C230.802 218.639 231.089 218.819 231.409 218.952C231.729 219.085 232.055 219.152 232.389 219.152C232.842 219.152 233.209 219.039 233.489 218.812C233.769 218.585 234.029 218.205 234.269 217.672L234.889 216.272L235.089 215.972L239.129 206.532H241.529L236.529 218.072C236.195 218.872 235.822 219.505 235.409 219.972C235.009 220.439 234.555 220.765 234.049 220.952C233.555 221.139 233.009 221.232 232.409 221.232ZM234.609 217.592L229.789 206.532H232.389L236.309 215.752L234.609 217.592ZM249.011 217.352C248.145 217.352 247.351 217.152 246.631 216.752C245.925 216.352 245.358 215.752 244.931 214.952C244.518 214.139 244.311 213.112 244.311 211.872C244.311 210.619 244.511 209.592 244.911 208.792C245.325 207.992 245.885 207.399 246.591 207.012C247.298 206.612 248.105 206.412 249.011 206.412C250.065 206.412 250.991 206.639 251.791 207.092C252.605 207.545 253.245 208.179 253.711 208.992C254.191 209.805 254.431 210.765 254.431 211.872C254.431 212.979 254.191 213.945 253.711 214.772C253.245 215.585 252.605 216.219 251.791 216.672C250.991 217.125 250.065 217.352 249.011 217.352ZM243.091 221.092V206.532H245.471V209.052L245.391 211.892L245.591 214.732V221.092H243.091ZM248.731 215.212C249.331 215.212 249.865 215.079 250.331 214.812C250.811 214.545 251.191 214.159 251.471 213.652C251.751 213.145 251.891 212.552 251.891 211.872C251.891 211.179 251.751 210.585 251.471 210.092C251.191 209.585 250.811 209.199 250.331 208.932C249.865 208.665 249.331 208.532 248.731 208.532C248.131 208.532 247.591 208.665 247.111 208.932C246.631 209.199 246.251 209.585 245.971 210.092C245.691 210.585 245.551 211.179 245.551 211.872C245.551 212.552 245.691 213.145 245.971 213.652C246.251 214.159 246.631 214.545 247.111 214.812C247.591 215.079 248.131 215.212 248.731 215.212ZM261.822 217.352C260.635 217.352 259.595 217.119 258.702 216.652C257.822 216.172 257.135 215.519 256.642 214.692C256.162 213.865 255.922 212.925 255.922 211.872C255.922 210.805 256.155 209.865 256.622 209.052C257.102 208.225 257.755 207.579 258.582 207.112C259.422 206.645 260.375 206.412 261.442 206.412C262.482 206.412 263.409 206.639 264.222 207.092C265.035 207.545 265.675 208.185 266.142 209.012C266.609 209.839 266.842 210.812 266.842 211.932C266.842 212.039 266.835 212.159 266.822 212.292C266.822 212.425 266.815 212.552 266.802 212.672H257.902V211.012H265.482L264.502 211.532C264.515 210.919 264.389 210.379 264.122 209.912C263.855 209.445 263.489 209.079 263.022 208.812C262.569 208.545 262.042 208.412 261.442 208.412C260.829 208.412 260.289 208.545 259.822 208.812C259.369 209.079 259.009 209.452 258.742 209.932C258.489 210.399 258.362 210.952 258.362 211.592V211.992C258.362 212.632 258.509 213.199 258.802 213.692C259.095 214.185 259.509 214.565 260.042 214.832C260.575 215.099 261.189 215.232 261.882 215.232C262.482 215.232 263.022 215.139 263.502 214.952C263.982 214.765 264.409 214.472 264.782 214.072L266.122 215.612C265.642 216.172 265.035 216.605 264.302 216.912C263.582 217.205 262.755 217.352 261.822 217.352ZM269.244 217.212V206.532H271.624V209.472L271.344 208.612C271.664 207.892 272.164 207.345 272.844 206.972C273.537 206.599 274.397 206.412 275.424 206.412V208.792C275.317 208.765 275.217 208.752 275.124 208.752C275.03 208.739 274.937 208.732 274.844 208.732C273.897 208.732 273.144 209.012 272.584 209.572C272.024 210.119 271.744 210.939 271.744 212.032V217.212H269.244Z" fill="#3C3C3C"/>
<path d="M214.919 109.509V77.691C214.917 76.2961 214.54 74.926 213.824 73.7183C213.109 72.5107 212.08 71.5078 210.842 70.8103L182.304 54.9012C181.064 54.203 179.658 53.8354 178.227 53.8354C176.796 53.8354 175.39 54.203 174.15 54.9012L145.612 70.8103C144.374 71.5078 143.345 72.5107 142.63 73.7183C141.914 74.926 141.537 76.2961 141.535 77.691V109.509C141.537 110.904 141.914 112.274 142.63 113.482C143.345 114.69 144.374 115.693 145.612 116.39L174.15 132.299C175.39 132.997 176.796 133.365 178.227 133.365C179.658 133.365 181.064 132.997 182.304 132.299L210.842 116.39C212.08 115.693 213.109 114.69 213.824 113.482C214.54 112.274 214.917 110.904 214.919 109.509Z" fill="url(#paint0_linear_290_13293)"/>
<path d="M177.777 79.2269C177.959 78.8526 178.493 78.8526 178.675 79.2269L182.908 87.9C183.052 88.1964 183.334 88.4024 183.66 88.4506L193.133 89.8511C193.541 89.9115 193.705 90.4124 193.411 90.702L186.547 97.4641C186.314 97.6933 186.208 98.0217 186.263 98.3437L187.882 107.892C187.951 108.301 187.521 108.612 187.154 108.417L178.696 103.917C178.402 103.761 178.05 103.761 177.756 103.917L169.298 108.417C168.931 108.612 168.5 108.301 168.57 107.892L170.189 98.3437C170.244 98.0217 170.137 97.6933 169.905 97.4641L163.041 90.702C162.747 90.4124 162.91 89.9115 163.319 89.8511L172.792 88.4506C173.118 88.4024 173.399 88.1964 173.544 87.9L177.777 79.2269Z" fill="white"/>
<path d="M378.809 226.968V195.15C378.808 193.755 378.43 192.385 377.715 191.177C376.999 189.969 375.971 188.966 374.732 188.269L346.194 172.36C344.955 171.661 343.549 171.294 342.118 171.294C340.686 171.294 339.28 171.661 338.041 172.36L309.503 188.269C308.264 188.966 307.236 189.969 306.52 191.177C305.805 192.385 305.427 193.755 305.426 195.15V226.968C305.427 228.363 305.805 229.733 306.52 230.94C307.236 232.148 308.264 233.151 309.503 233.848L338.041 249.758C339.28 250.456 340.686 250.823 342.118 250.823C343.549 250.823 344.955 250.456 346.194 249.758L374.732 233.848C375.971 233.151 376.999 232.148 377.715 230.94C378.43 229.733 378.808 228.363 378.809 226.968Z" fill="url(#paint1_linear_290_13293)"/>
<path d="M353.069 216.091C353.423 212.669 352.013 209.768 351.026 208.205C350.703 207.693 349.993 207.878 349.9 208.477L349.796 209.15C349.561 210.663 348.629 211.977 347.279 212.698C346.698 213.009 345.999 212.39 346.192 211.76C346.53 210.651 346.87 209.21 346.87 207.887C346.87 202.529 342.474 196.226 337.488 195.767C337.158 195.729 336.975 196.112 337.158 196.38C338.955 198.829 338.771 202.389 336.608 204.647L334.152 207.211C332.283 209.163 331.109 211.88 331.109 214.866C331.109 221.334 336.242 226.539 342.474 226.348C347.936 226.195 352.482 221.755 353.069 216.091Z" fill="white"/>
<ellipse cx="451.583" cy="43.4353" rx="43.4185" ry="43.4353" fill="black"/>
<path d="M439.435 51.9503C439.668 51.7146 439.982 51.582 440.311 51.582H470.711C471.265 51.582 471.543 52.2596 471.149 52.6499L465.142 58.7039C464.908 58.9396 464.594 59.0722 464.266 59.0722H433.873C433.318 59.0722 433.041 58.3946 433.435 58.0043L439.435 51.9503Z" fill="url(#paint2_linear_290_13293)"/>
<path d="M439.435 29.3253C439.668 29.0896 439.982 28.957 440.311 28.957H470.711C471.265 28.957 471.543 29.6346 471.149 30.0249L465.142 36.0789C464.908 36.3146 464.594 36.4472 464.266 36.4472H433.873C433.318 36.4472 433.041 35.7696 433.435 35.3793L439.435 29.3253Z" fill="url(#paint3_linear_290_13293)"/>
<path d="M465.142 40.565C464.908 40.3293 464.594 40.1968 464.266 40.1968H433.873C433.318 40.1968 433.041 40.8744 433.435 41.2647L439.442 47.3187C439.676 47.5544 439.989 47.6869 440.318 47.6869H470.718C471.273 47.6869 471.55 47.0094 471.156 46.619L465.142 40.565Z" fill="url(#paint4_linear_290_13293)"/>
<g clip-path="url(#clip0_290_13293)">
<path d="M40.6341 198.212C59.2097 198.212 74.2682 183.147 74.2682 164.565C74.2682 145.982 59.2097 130.917 40.6341 130.917C22.0585 130.917 7 145.982 7 164.565C7 183.147 22.0585 198.212 40.6341 198.212Z" fill="#FDDE00"/>
<path d="M24.2622 154.706C24.2622 154.706 22.5231 156.897 23.1028 166.82C23.1028 166.82 19.3025 176.55 20.5907 181.512C21.879 186.474 26.9031 186.216 26.9031 186.216C26.9031 186.216 34.9546 193.304 41.1381 187.054C47.3216 180.803 35.9852 156.575 35.9852 156.575L34.5681 148.198C34.5681 148.198 33.0222 149.423 33.2155 157.477C33.4087 165.532 30.0593 159.861 30.0593 159.861L24.2622 154.706Z" fill="#3C2D0C"/>
<path d="M24.907 163.47L22.7814 169.462L22.0084 173.651C22.0084 173.651 19.3675 182.994 30.2531 182.865C30.2531 182.865 38.7555 190.469 44.2949 185.378L45.7764 183.767L48.3529 179.772L52.604 167.078C52.604 167.078 51.2514 158.379 42.6846 154.771C42.6846 154.771 41.9761 154.384 40.6879 154.9C40.6879 154.9 37.1452 146.909 34.8908 147.876C34.8908 147.876 32.9584 148.907 34.6331 156.768L31.6058 158.121C31.6058 158.121 28.2945 151.841 25.229 153.095C22.3949 154.255 24.907 163.47 24.907 163.47Z" fill="#E78C19"/>
<path d="M35.9213 151.807L36.1789 155.287C36.1789 155.287 36.3721 157.284 38.4977 156.575C39.0985 156.375 39.6261 155.956 39.5706 155.269C39.529 154.755 39.1699 154.289 38.9363 153.845C38.4989 153.014 38.1486 152.133 37.6399 151.341C37.3796 150.935 36.8439 150.026 36.2433 150.132C36.2433 150.132 35.8005 150.003 35.9213 151.807Z" fill="#EFB99D"/>
<path d="M26.6085 155.713C26.6492 155.687 27.5145 154.59 29.3138 157.248C31.1133 159.906 30.9322 159.555 30.9322 159.555C30.9322 159.555 31.8983 160.619 29.9177 161.984C29.486 162.304 29.015 162.567 28.5163 162.767C28.2065 162.892 27.8756 162.955 27.5417 162.954C27.1657 162.936 26.9964 162.744 26.9035 162.39C26.5992 161.23 26.2563 160.076 26.0825 158.888C25.9516 157.992 25.6899 156.315 26.6085 155.713Z" fill="#EFB99D"/>
<path d="M47.5278 161.069C47.5278 161.7 46.6048 162.212 45.4661 162.212C44.3274 162.212 43.4043 161.7 43.4043 161.069C43.4043 160.437 44.3469 159.507 45.4856 159.507C46.6243 159.507 47.5278 160.437 47.5278 161.069Z" fill="#FBFBFB"/>
<path d="M35.6379 166.002C36.2505 164.919 36.1864 163.723 35.4947 163.332C34.8029 162.94 33.7455 163.5 33.1328 164.583C32.5201 165.666 32.5842 166.862 33.276 167.254C33.9677 167.645 35.0252 167.085 35.6379 166.002Z" fill="#FBFBFB"/>
<path d="M38.5609 171.235L44.1969 168.303C44.1969 168.303 51.2178 164.63 52.9247 167.465C54.6316 170.3 52.9247 174.617 52.9247 174.617C52.9247 174.617 52.1839 179.676 47.031 180.127L44.2613 180.513L40.7186 180.61C40.7186 180.61 35.0182 180.932 30.8314 177.839L29.511 176.228C29.511 176.228 26.8379 172.556 28.7058 169.914C30.5738 167.272 36.9506 171.363 36.9506 171.363C36.9506 171.363 37.8201 171.814 38.5609 171.235Z" fill="#FBFBFB"/>
<path d="M51.3468 156.607C52.0938 156.607 52.6994 156.001 52.6994 155.254C52.6994 154.507 52.0938 153.901 51.3468 153.901C50.5997 153.901 49.9941 154.507 49.9941 155.254C49.9941 156.001 50.5997 156.607 51.3468 156.607Z" fill="#E72D36"/>
<path d="M48.3527 153.289C49.0997 153.289 49.7053 152.683 49.7053 151.936C49.7053 151.188 49.0997 150.583 48.3527 150.583C47.6056 150.583 47 151.188 47 151.936C47 152.683 47.6056 153.289 48.3527 153.289Z" fill="#E72D36"/>
<path d="M43.5538 152.225C44.3009 152.225 44.9065 151.62 44.9065 150.872C44.9065 150.125 44.3009 149.519 43.5538 149.519C42.8068 149.519 42.2012 150.125 42.2012 150.872C42.2012 151.62 42.8068 152.225 43.5538 152.225Z" fill="#E72D36"/>
<path d="M44.6159 141.272C44.9058 145.267 44.3293 148.875 43.3599 148.875C42.3905 148.875 41.1055 144.977 41.1055 141.272C41.1055 139.741 41.9074 139.5 42.8768 139.5C43.8462 139.5 44.5052 139.745 44.6159 141.272Z" fill="#E72D36"/>
<path d="M53.5771 143.765C52.1042 147.489 50.0187 150.489 49.1454 150.068C48.2721 149.647 48.8065 145.578 50.4145 142.24C51.0787 140.862 51.9061 140.992 52.7794 141.413C53.6527 141.834 54.1397 142.342 53.5771 143.765Z" fill="#E72D36"/>
<path d="M59.9815 151.009C56.7396 153.362 53.3695 154.774 52.8586 153.95C52.3477 153.126 54.9831 149.978 58.1314 148.024C59.4317 147.217 60.0598 147.771 60.5707 148.595C61.0816 149.42 61.22 150.11 59.9815 151.009Z" fill="#E72D36"/>
<path d="M38.295 167.303C38.1735 167.312 38.0554 167.328 37.9413 167.348C37.9555 167.388 37.9631 167.431 37.9637 167.475C37.9637 167.887 37.3228 168.223 36.5159 168.246C36.5101 168.28 36.5084 168.315 36.5108 168.351C36.5495 168.849 37.4111 169.189 38.4352 169.11C39.4593 169.03 40.2581 168.561 40.2194 168.062C40.1807 167.564 39.3191 167.223 38.295 167.303Z" fill="black"/>
<path d="M45.42 165.539C45.2985 165.549 45.1804 165.564 45.0663 165.584C45.0805 165.625 45.0881 165.668 45.0887 165.711C45.0887 166.123 44.4478 166.459 43.6409 166.482C43.6351 166.517 43.6334 166.552 43.6358 166.587C43.6745 167.086 44.5361 167.426 45.5602 167.346C46.5843 167.267 47.3831 166.798 47.3444 166.299C47.3057 165.8 46.4441 165.46 45.42 165.539Z" fill="black"/>
<path d="M47.7561 167.626C47.7561 167.626 44.93 168.447 45.0991 170.042C45.2682 171.637 48.6739 172.459 48.6739 172.459C48.6739 172.459 49.5918 172.821 50.1232 171.951C50.6546 171.081 51.4276 169.897 51.2102 168.206C51.2102 168.206 51.1377 166.949 47.7561 167.626Z" fill="black"/>
</g>
<ellipse cx="466.258" cy="219.623" rx="23.8496" ry="23.8588" fill="#2270C5"/>
<path d="M472.523 222.794C472.523 219.901 470.551 218.909 466.607 218.494C463.79 218.163 463.227 217.502 463.227 216.345C463.227 215.189 464.167 214.444 466.044 214.444C467.734 214.444 468.674 214.941 469.143 216.181C469.238 216.429 469.519 216.593 469.801 216.593H471.304C471.681 216.593 471.962 216.345 471.962 216.014V215.931C471.586 214.111 469.896 212.706 467.737 212.542V210.557C467.737 210.226 467.455 209.978 466.986 209.896H465.578C465.201 209.896 464.919 210.145 464.827 210.557V212.458C462.01 212.79 460.225 214.442 460.225 216.51C460.225 219.238 462.102 220.314 466.046 220.727C468.676 221.139 469.521 221.635 469.521 222.959C469.521 224.282 468.208 225.191 466.423 225.191C463.982 225.191 463.137 224.282 462.855 223.042C462.76 222.711 462.479 222.546 462.197 222.546H460.601C460.225 222.546 459.943 222.794 459.943 223.126V223.209C460.32 225.277 461.821 226.765 464.919 227.178V229.162C464.919 229.493 465.201 229.741 465.67 229.823H467.078C467.455 229.823 467.737 229.575 467.829 229.162V227.178C470.644 226.763 472.523 225.027 472.523 222.794Z" fill="white"/>
<path d="M461.79 231.216C454.994 228.839 451.509 221.455 454.037 214.921C455.344 211.356 458.219 208.641 461.79 207.368C462.14 207.199 462.313 206.944 462.313 206.518V205.331C462.313 204.99 462.14 204.736 461.79 204.652C461.703 204.652 461.529 204.652 461.441 204.738C453.165 207.284 448.633 215.856 451.247 223.92C452.816 228.672 456.563 232.322 461.441 233.85C461.79 234.019 462.137 233.85 462.225 233.51C462.313 233.424 462.313 233.341 462.313 233.17V231.982C462.313 231.725 462.052 231.387 461.79 231.216ZM471.025 204.736C470.675 204.567 470.328 204.736 470.24 205.076C470.153 205.162 470.153 205.245 470.153 205.416V206.604C470.153 206.944 470.414 207.282 470.675 207.453C477.471 209.83 480.957 217.214 478.429 223.749C477.122 227.313 474.247 230.029 470.675 231.302C470.326 231.471 470.153 231.725 470.153 232.151V233.339C470.153 233.679 470.326 233.934 470.675 234.017C470.763 234.017 470.937 234.017 471.025 233.931C479.301 231.385 483.832 222.814 481.218 214.75C479.65 209.914 475.817 206.264 471.025 204.736Z" fill="white"/>
<rect x="290.748" y="50.165" width="88.0602" height="30.5882" rx="15.2941" fill="url(#paint5_linear_290_13293)"/>
<path d="M309.855 70.4322C308.985 70.4322 308.23 70.3022 307.59 70.0422C306.95 69.7822 306.455 69.4172 306.105 68.9472C305.755 68.4672 305.58 67.9072 305.58 67.2672C305.58 66.6272 305.75 66.0872 306.09 65.6472C306.43 65.2072 306.92 64.8722 307.56 64.6422C308.2 64.4122 308.965 64.2972 309.855 64.2972C310.745 64.2972 311.51 64.4122 312.15 64.6422C312.8 64.8722 313.295 65.2122 313.635 65.6622C313.985 66.1022 314.16 66.6372 314.16 67.2672C314.16 67.9072 313.98 68.4672 313.62 68.9472C313.27 69.4172 312.77 69.7822 312.12 70.0422C311.48 70.3022 310.725 70.4322 309.855 70.4322ZM309.855 68.9022C310.575 68.9022 311.145 68.7522 311.565 68.4522C311.985 68.1522 312.195 67.7372 312.195 67.2072C312.195 66.6872 311.985 66.2772 311.565 65.9772C311.145 65.6772 310.575 65.5272 309.855 65.5272C309.135 65.5272 308.57 65.6772 308.16 65.9772C307.75 66.2772 307.545 66.6872 307.545 67.2072C307.545 67.7372 307.75 68.1522 308.16 68.4522C308.57 68.7522 309.135 68.9022 309.855 68.9022ZM309.855 65.3172C309.045 65.3172 308.35 65.2122 307.77 65.0022C307.19 64.7822 306.74 64.4672 306.42 64.0572C306.11 63.6372 305.955 63.1372 305.955 62.5572C305.955 61.9572 306.115 61.4422 306.435 61.0122C306.765 60.5722 307.225 60.2322 307.815 59.9922C308.405 59.7522 309.085 59.6322 309.855 59.6322C310.635 59.6322 311.32 59.7522 311.91 59.9922C312.5 60.2322 312.96 60.5722 313.29 61.0122C313.62 61.4422 313.785 61.9572 313.785 62.5572C313.785 63.1372 313.625 63.6372 313.305 64.0572C312.995 64.4672 312.545 64.7822 311.955 65.0022C311.365 65.2122 310.665 65.3172 309.855 65.3172ZM309.855 64.1172C310.475 64.1172 310.965 63.9872 311.325 63.7272C311.685 63.4572 311.865 63.0972 311.865 62.6472C311.865 62.1772 311.68 61.8122 311.31 61.5522C310.94 61.2922 310.455 61.1622 309.855 61.1622C309.255 61.1622 308.775 61.2922 308.415 61.5522C308.055 61.8122 307.875 62.1772 307.875 62.6472C307.875 63.0972 308.05 63.4572 308.4 63.7272C308.76 63.9872 309.245 64.1172 309.855 64.1172ZM316.749 70.2822L323.919 59.7822H325.389L318.219 70.2822H316.749ZM317.619 65.4372C317.129 65.4372 316.694 65.3172 316.314 65.0772C315.934 64.8372 315.639 64.5022 315.429 64.0722C315.219 63.6422 315.114 63.1372 315.114 62.5572C315.114 61.9772 315.219 61.4722 315.429 61.0422C315.639 60.6122 315.934 60.2772 316.314 60.0372C316.694 59.7972 317.129 59.6772 317.619 59.6772C318.129 59.6772 318.569 59.7972 318.939 60.0372C319.319 60.2772 319.614 60.6122 319.824 61.0422C320.034 61.4722 320.139 61.9772 320.139 62.5572C320.139 63.1372 320.034 63.6422 319.824 64.0722C319.614 64.5022 319.319 64.8372 318.939 65.0772C318.569 65.3172 318.129 65.4372 317.619 65.4372ZM317.634 64.3872C318.034 64.3872 318.344 64.2322 318.564 63.9222C318.794 63.6022 318.909 63.1472 318.909 62.5572C318.909 61.9672 318.794 61.5172 318.564 61.2072C318.344 60.8872 318.034 60.7272 317.634 60.7272C317.234 60.7272 316.914 60.8872 316.674 61.2072C316.444 61.5272 316.329 61.9772 316.329 62.5572C316.329 63.1372 316.444 63.5872 316.674 63.9072C316.914 64.2272 317.234 64.3872 317.634 64.3872ZM324.504 70.3872C324.014 70.3872 323.579 70.2672 323.199 70.0272C322.819 69.7872 322.524 69.4522 322.314 69.0222C322.104 68.5922 321.999 68.0872 321.999 67.5072C321.999 66.9272 322.104 66.4222 322.314 65.9922C322.524 65.5622 322.819 65.2272 323.199 64.9872C323.579 64.7472 324.014 64.6272 324.504 64.6272C325.014 64.6272 325.454 64.7472 325.824 64.9872C326.204 65.2272 326.499 65.5622 326.709 65.9922C326.919 66.4222 327.024 66.9272 327.024 67.5072C327.024 68.0872 326.919 68.5922 326.709 69.0222C326.499 69.4522 326.204 69.7872 325.824 70.0272C325.454 70.2672 325.014 70.3872 324.504 70.3872ZM324.504 69.3372C324.904 69.3372 325.219 69.1772 325.449 68.8572C325.679 68.5372 325.794 68.0872 325.794 67.5072C325.794 66.9272 325.679 66.4772 325.449 66.1572C325.219 65.8372 324.904 65.6772 324.504 65.6772C324.114 65.6772 323.799 65.8372 323.559 66.1572C323.329 66.4672 323.214 66.9172 323.214 67.5072C323.214 68.0972 323.329 68.5522 323.559 68.8722C323.799 69.1822 324.114 69.3372 324.504 69.3372ZM331.595 70.2822L336.32 59.7822H338.24L342.98 70.2822H340.94L336.875 60.8172H337.655L333.605 70.2822H331.595ZM333.77 67.8522L334.295 66.3222H339.965L340.49 67.8522H333.77ZM344.315 70.2822V59.7822H348.635C349.565 59.7822 350.36 59.9322 351.02 60.2322C351.69 60.5322 352.205 60.9622 352.565 61.5222C352.925 62.0822 353.105 62.7472 353.105 63.5172C353.105 64.2872 352.925 64.9522 352.565 65.5122C352.205 66.0722 351.69 66.5022 351.02 66.8022C350.36 67.1022 349.565 67.2522 348.635 67.2522H345.395L346.265 66.3372V70.2822H344.315ZM346.265 66.5472L345.395 65.6022H348.545C349.405 65.6022 350.05 65.4222 350.48 65.0622C350.92 64.6922 351.14 64.1772 351.14 63.5172C351.14 62.8472 350.92 62.3322 350.48 61.9722C350.05 61.6122 349.405 61.4322 348.545 61.4322H345.395L346.265 60.4722V66.5472ZM357.633 70.2822V66.1272L358.068 67.3272L353.508 59.7822H355.593L359.253 65.8572H358.083L361.773 59.7822H363.693L359.133 67.3272L359.583 66.1272V70.2822H357.633Z" fill="white"/>
<rect x="118.297" y="167.624" width="88.0602" height="30.5882" rx="15.2941" fill="url(#paint6_linear_290_13293)"/>
<path d="M132.422 187.741V177.991L133.277 178.876H130.202V177.241H134.372V187.741H132.422ZM139.935 187.891C139.195 187.891 138.47 187.786 137.76 187.576C137.06 187.356 136.47 187.056 135.99 186.676L136.815 185.161C137.195 185.471 137.655 185.721 138.195 185.911C138.745 186.101 139.315 186.196 139.905 186.196C140.595 186.196 141.135 186.051 141.525 185.761C141.925 185.471 142.125 185.081 142.125 184.591C142.125 184.261 142.04 183.971 141.87 183.721C141.71 183.471 141.42 183.281 141 183.151C140.59 183.021 140.025 182.956 139.305 182.956H136.77L137.31 177.241H143.475V178.876H138.03L139.05 177.946L138.645 182.221L137.625 181.306H139.74C140.78 181.306 141.615 181.446 142.245 181.726C142.885 181.996 143.35 182.376 143.64 182.866C143.94 183.346 144.09 183.896 144.09 184.516C144.09 185.126 143.94 185.686 143.64 186.196C143.34 186.706 142.88 187.116 142.26 187.426C141.65 187.736 140.875 187.891 139.935 187.891ZM146.538 187.741L153.708 177.241H155.178L148.008 187.741H146.538ZM147.408 182.896C146.918 182.896 146.483 182.776 146.103 182.536C145.723 182.296 145.428 181.961 145.218 181.531C145.008 181.101 144.903 180.596 144.903 180.016C144.903 179.436 145.008 178.931 145.218 178.501C145.428 178.071 145.723 177.736 146.103 177.496C146.483 177.256 146.918 177.136 147.408 177.136C147.918 177.136 148.358 177.256 148.728 177.496C149.108 177.736 149.403 178.071 149.613 178.501C149.823 178.931 149.928 179.436 149.928 180.016C149.928 180.596 149.823 181.101 149.613 181.531C149.403 181.961 149.108 182.296 148.728 182.536C148.358 182.776 147.918 182.896 147.408 182.896ZM147.423 181.846C147.823 181.846 148.133 181.691 148.353 181.381C148.583 181.061 148.698 180.606 148.698 180.016C148.698 179.426 148.583 178.976 148.353 178.666C148.133 178.346 147.823 178.186 147.423 178.186C147.023 178.186 146.703 178.346 146.463 178.666C146.233 178.986 146.118 179.436 146.118 180.016C146.118 180.596 146.233 181.046 146.463 181.366C146.703 181.686 147.023 181.846 147.423 181.846ZM154.293 187.846C153.803 187.846 153.368 187.726 152.988 187.486C152.608 187.246 152.313 186.911 152.103 186.481C151.893 186.051 151.788 185.546 151.788 184.966C151.788 184.386 151.893 183.881 152.103 183.451C152.313 183.021 152.608 182.686 152.988 182.446C153.368 182.206 153.803 182.086 154.293 182.086C154.803 182.086 155.243 182.206 155.613 182.446C155.993 182.686 156.288 183.021 156.498 183.451C156.708 183.881 156.813 184.386 156.813 184.966C156.813 185.546 156.708 186.051 156.498 186.481C156.288 186.911 155.993 187.246 155.613 187.486C155.243 187.726 154.803 187.846 154.293 187.846ZM154.293 186.796C154.693 186.796 155.008 186.636 155.238 186.316C155.468 185.996 155.583 185.546 155.583 184.966C155.583 184.386 155.468 183.936 155.238 183.616C155.008 183.296 154.693 183.136 154.293 183.136C153.903 183.136 153.588 183.296 153.348 183.616C153.118 183.926 153.003 184.376 153.003 184.966C153.003 185.556 153.118 186.011 153.348 186.331C153.588 186.641 153.903 186.796 154.293 186.796ZM161.384 187.741L166.109 177.241H168.029L172.769 187.741H170.729L166.664 178.276H167.444L163.394 187.741H161.384ZM163.559 185.311L164.084 183.781H169.754L170.279 185.311H163.559ZM174.104 187.741V177.241H178.424C179.354 177.241 180.149 177.391 180.809 177.691C181.479 177.991 181.994 178.421 182.354 178.981C182.714 179.541 182.894 180.206 182.894 180.976C182.894 181.746 182.714 182.411 182.354 182.971C181.994 183.531 181.479 183.961 180.809 184.261C180.149 184.561 179.354 184.711 178.424 184.711H175.184L176.054 183.796V187.741H174.104ZM176.054 184.006L175.184 183.061H178.334C179.194 183.061 179.839 182.881 180.269 182.521C180.709 182.151 180.929 181.636 180.929 180.976C180.929 180.306 180.709 179.791 180.269 179.431C179.839 179.071 179.194 178.891 178.334 178.891H175.184L176.054 177.931V184.006ZM187.422 187.741V183.586L187.857 184.786L183.297 177.241H185.382L189.042 183.316H187.872L191.562 177.241H193.482L188.922 184.786L189.372 183.586V187.741H187.422Z" fill="white"/>
<defs>
<filter id="filter0_f_290_13293" x="0" y="291.541" width="497.107" height="27.459" filterUnits="userSpaceOnUse" color-interpolation-filters="sRGB">
<feFlood flood-opacity="0" result="BackgroundImageFix"/>
<feBlend mode="normal" in="SourceGraphic" in2="BackgroundImageFix" result="shape"/>
<feGaussianBlur stdDeviation="3.5" result="effect1_foregroundBlur_290_13293"/>
</filter>
<linearGradient id="paint0_linear_290_13293" x1="141.535" y1="85.6472" x2="217.28" y2="93.966" gradientUnits="userSpaceOnUse">
<stop stop-color="#FD9211"/>
<stop offset="1" stop-color="#FFE074"/>
</linearGradient>
<linearGradient id="paint1_linear_290_13293" x1="305.426" y1="203.106" x2="381.171" y2="211.425" gradientUnits="userSpaceOnUse">
<stop stop-color="#F7931A"/>
<stop offset="1" stop-color="#C83D56"/>
</linearGradient>
<linearGradient id="paint2_linear_290_13293" x1="467.808" y1="25.3395" x2="446.471" y2="65.8413" gradientUnits="userSpaceOnUse">
<stop stop-color="#00FFA3"/>
<stop offset="1" stop-color="#DC1FFF"/>
</linearGradient>
<linearGradient id="paint3_linear_290_13293" x1="458.609" y1="20.4936" x2="437.273" y2="60.9955" gradientUnits="userSpaceOnUse">
<stop stop-color="#00FFA3"/>
<stop offset="1" stop-color="#DC1FFF"/>
</linearGradient>
<linearGradient id="paint4_linear_290_13293" x1="463.179" y1="22.902" x2="441.843" y2="63.4039" gradientUnits="userSpaceOnUse">
<stop stop-color="#00FFA3"/>
<stop offset="1" stop-color="#DC1FFF"/>
</linearGradient>
<linearGradient id="paint5_linear_290_13293" x1="290.748" y1="62.4003" x2="373.073" y2="90.6094" gradientUnits="userSpaceOnUse">
<stop stop-color="#F7931A"/>
<stop offset="1" stop-color="#AC1CC7"/>
</linearGradient>
<linearGradient id="paint6_linear_290_13293" x1="118.297" y1="179.859" x2="200.621" y2="208.068" gradientUnits="userSpaceOnUse">
<stop stop-color="#F7931A"/>
<stop offset="1" stop-color="#AC1CC7"/>
</linearGradient>
<clipPath id="clip0_290_13293">
<rect width="67.2682" height="67.2941" fill="white" transform="translate(7 130.917)"/>
</clipPath>
</defs>
</svg>
