<svg width="24" height="25" viewBox="0 0 24 25" fill="none" xmlns="http://www.w3.org/2000/svg">
<path fill-rule="evenodd" clip-rule="evenodd" d="M20 10C20 10.193 19.9945 10.3847 19.9837 10.575C19.0617 10.2041 18.0547 10 17 10C12.5817 10 9 13.5817 9 18C9 18.6805 9.08497 19.3411 9.24486 19.9719C4.07475 19.5859 0 15.2688 0 10C0 4.47715 4.47715 0 10 0C15.5228 0 20 4.47715 20 10ZM10.2895 5.76414C11.2492 6.07195 11.951 6.53337 11.8131 7.39176C11.7134 8.02012 11.3396 8.3244 10.8429 8.43106C11.5248 8.76167 11.8718 9.26865 11.5412 10.1476C11.131 11.2393 10.1564 11.3314 8.8603 11.103L8.64336 11.9127C8.58895 12.1158 8.38337 12.2392 8.1786 12.1917C7.96378 12.1418 7.83301 11.9239 7.89011 11.7109L8.09611 10.9424C7.89906 10.8968 7.69778 10.8484 7.49037 10.796L7.27631 11.5956C7.22198 11.7986 7.01651 11.9219 6.81186 11.8743C6.59738 11.8245 6.4668 11.607 6.52368 11.3942L6.73419 10.6071C6.66113 10.5897 6.5876 10.5719 6.51354 10.5539C6.4076 10.5282 6.30057 10.5022 6.19227 10.4769L5.4433 10.303C5.31953 10.2743 5.25358 10.139 5.30723 10.0238L5.51098 9.58634C5.55136 9.49963 5.64739 9.45364 5.74033 9.47627C5.90523 9.51642 6.13788 9.5721 6.13295 9.56545C6.34815 9.61508 6.44363 9.48439 6.48124 9.39731L6.9783 7.54165C6.99832 7.54611 7.01781 7.55065 7.03656 7.55502C7.04405 7.55676 7.05141 7.55848 7.05865 7.56015C7.02831 7.5488 7.00082 7.54155 6.97963 7.53654L7.33425 6.21187C7.34349 6.06148 7.28783 5.87174 6.98003 5.80021C6.98705 5.79583 6.79348 5.75211 6.63366 5.71701C6.52186 5.69245 6.45279 5.57967 6.48237 5.46909L6.58018 5.10339C6.60806 4.99916 6.71359 4.93583 6.81869 4.96027L7.67838 5.16018L7.6775 5.16384C7.83507 5.20035 7.99748 5.235 8.16284 5.27006L8.3768 4.47163C8.43119 4.26867 8.63669 4.14536 8.84137 4.19289C9.05602 4.24272 9.18669 4.46048 9.12968 4.67334L8.9287 5.42366C9.13266 5.46701 9.33786 5.51074 9.53769 5.55715L9.74325 4.78923C9.79762 4.58612 10.0032 4.4627 10.208 4.51022C10.4228 4.56006 10.5536 4.77792 10.4966 4.99089L10.2895 5.76414ZM7.88527 9.97995C8.50546 10.1325 9.86095 10.4659 10.0765 9.65947C10.2972 8.83502 8.98291 8.56035 8.34141 8.42628C8.26966 8.41129 8.20634 8.39806 8.15451 8.38601L7.73712 9.94414C7.77964 9.95397 7.82948 9.96623 7.88527 9.97995ZM8.47009 7.70313C8.98714 7.83162 10.1151 8.11195 10.3115 7.37902C10.5121 6.62942 9.41599 6.40342 8.88063 6.29305C8.82041 6.28063 8.76728 6.26968 8.72389 6.25961L8.34547 7.67274C8.3812 7.68103 8.42312 7.69145 8.47009 7.70313Z" fill="#4E4E4E"/>
<path fill-rule="evenodd" clip-rule="evenodd" d="M17.5 25C21.0899 25 24 22.0899 24 18.5C24 14.9101 21.0899 12 17.5 12C13.9101 12 11 14.9101 11 18.5C11 22.0899 13.9101 25 17.5 25ZM15.8934 19.6475C15.8472 19.6475 15.803 19.6659 15.7701 19.6987L14.9261 20.541C14.8706 20.5953 14.9097 20.6896 14.9877 20.6896H19.2635C19.3097 20.6896 19.3538 20.6711 19.3867 20.6383L20.2318 19.7961C20.2872 19.7418 20.2482 19.6475 20.1702 19.6475H15.8934ZM15.7701 16.5512C15.803 16.5184 15.8471 16.5 15.8933 16.5H20.1701C20.2482 16.5 20.2872 16.5943 20.2317 16.6486L19.3866 17.4908C19.3538 17.5236 19.3096 17.5421 19.2634 17.5421H14.9877C14.9096 17.5421 14.8706 17.4478 14.9261 17.3935L15.7701 16.5512ZM19.2635 18.0627C19.3097 18.0627 19.3538 18.0811 19.3867 18.1139L20.2328 18.9562C20.2882 19.0105 20.2492 19.1047 20.1712 19.1047H15.8944C15.8482 19.1047 15.804 19.0863 15.7712 19.0535L14.9261 18.2112C14.8706 18.1569 14.9097 18.0627 14.9877 18.0627H19.2635Z" fill="#444444"/>
</svg>
