<svg width="22" height="13" viewBox="0 0 22 13" fill="none" xmlns="http://www.w3.org/2000/svg">
<path d="M21.8023 12.3344C21.8901 12.6299 21.6247 12.9094 21.325 12.8371L15.3591 11.3968C15.0507 11.3223 14.9476 10.9357 15.1779 10.7175L16.4177 9.54336L9.72939 3.41311L6.67217 6.0653C6.18128 6.49174 5.4186 6.48801 4.93196 6.05715L0.395595 2.0414C-0.113276 1.59122 -0.134011 0.842397 0.349629 0.368476C0.599193 0.123369 0.934443 0 1.27069 0C1.58471 0 1.89947 0.108006 2.14504 0.325647L5.81581 3.57466L8.88827 0.909204C9.38615 0.476949 10.1603 0.48719 10.6445 0.931549L18.1991 7.85601L19.5005 6.62344C19.7171 6.41825 20.074 6.51394 20.159 6.79999L21.8023 12.3344Z" fill="#BB3535"/>
</svg>
