<svg width="18" height="14" viewBox="0 0 18 14" fill="none" xmlns="http://www.w3.org/2000/svg">
    <path d="M2.923 10.689a.587.587 0 0 1 .414-.171h14.365c.262 0 .393.315.207.496l-2.838 2.815a.587.587 0 0 1-.414.17H.294c-.262 0-.393-.314-.207-.496l2.836-2.814zM2.923.171A.587.587 0 0 1 3.337 0h14.365c.262 0 .393.315.207.496l-2.838 2.815a.587.587 0 0 1-.414.171H.294c-.262 0-.393-.315-.207-.496L2.923.17zM15.07 5.396a.587.587 0 0 0-.413-.171H.294c-.262 0-.393.315-.207.496l2.84 2.815c.11.11.258.17.413.17h14.366c.262 0 .393-.314.207-.496L15.07 5.396z" fill="#fff"/>
</svg>
