<svg width="18" height="13" fill="none" xmlns="http://www.w3.org/2000/svg">
    <path fill-rule="evenodd" clip-rule="evenodd" d="M6.963.98 6.437 0c-1.49.3-2.311.504-3.732.98C.34 4.624-.127 6.808.026 10.862 1.69 11.942 2.696 12.404 4.62 13l.957-1.47-1.531-.667.43-.356c3.532 1.28 5.511 1.368 9.042 0l.383.356-1.483.668.909 1.469c1.809-.506 2.818-1.005 4.593-2.137.346-3.932-.388-6.088-2.727-9.884C13.825.436 13.045.163 11.508 0l-.526.98C9.457.695 8.587.621 6.963.98zm6.65 6.143c0 .984-.728 1.781-1.627 1.781-.898 0-1.626-.797-1.626-1.78 0-.984.728-1.782 1.627-1.782.898 0 1.626.798 1.626 1.781zM5.958 8.904c.899 0 1.627-.797 1.627-1.78 0-.984-.728-1.782-1.627-1.782-.898 0-1.626.798-1.626 1.781 0 .984.728 1.781 1.626 1.781z" fill="#fff"/>
</svg>
