<svg xmlns="http://www.w3.org/2000/svg" width="50" height="50" fill="none" viewBox="0 0 50 50">
    <path fill="#fff" fill-rule="evenodd" d="M25 50c13.807 0 25-11.193 25-25S38.807 0 25 0 0 11.193 0 25s11.193 25 25 25zm-3.64-33.636l.632 1.263c1.949-.46 2.993-.366 4.823 0l.631-1.263c1.845.21 2.78.562 4.42 1.263 2.808 4.893 3.689 7.674 3.273 12.745-2.13 1.459-3.34 2.103-5.511 2.755l-1.09-1.894 1.779-.861-.46-.46c-4.237 1.764-6.613 1.65-10.85 0l-.517.46 1.838.86-1.149 1.895c-2.306-.768-3.515-1.365-5.511-2.755-.184-5.229.375-8.044 3.215-12.745 1.705-.614 2.69-.877 4.478-1.263zm6.66 11.482c1.078 0 1.952-1.028 1.952-2.297 0-1.268-.874-2.296-1.952-2.296-1.078 0-1.951 1.028-1.951 2.296 0 1.269.873 2.297 1.951 2.297zm-5.281-2.297c0 1.269-.874 2.297-1.952 2.297-1.078 0-1.952-1.028-1.952-2.297 0-1.268.874-2.296 1.952-2.296 1.078 0 1.952 1.028 1.952 2.296z" clip-rule="evenodd"/>
</svg>
