<svg width="30" height="30" viewBox="0 0 30 30" fill="none" xmlns="http://www.w3.org/2000/svg">
<path fill-rule="evenodd" clip-rule="evenodd" d="M12.3975 8.13014L11.7251 7C9.82051 7.34527 8.77202 7.58098 6.95696 8.13014C3.93284 12.3368 3.338 14.8561 3.53371 19.5342C5.65859 20.7786 6.94601 21.3127 9.40214 22L10.6247 20.3048L8.66859 19.5342L9.21875 19.1233C13.7306 20.5998 16.2604 20.7016 20.7722 19.1233L21.2613 19.5342L19.3663 20.3048L20.5277 22C22.839 21.4163 24.1284 20.8399 26.3961 19.5342C26.8388 14.9973 25.9012 12.5091 22.9118 8.13014C21.1655 7.50281 20.1685 7.18763 18.2048 7L17.5324 8.13014C15.5845 7.80317 14.4723 7.71825 12.3975 8.13014ZM20.8942 15.2174C20.8942 16.3522 19.9637 17.2722 18.8158 17.2722C17.6679 17.2722 16.7374 16.3522 16.7374 15.2174C16.7374 14.0826 17.6679 13.1626 18.8158 13.1626C19.9637 13.1626 20.8942 14.0826 20.8942 15.2174ZM11.1135 17.2722C12.2614 17.2722 13.1919 16.3522 13.1919 15.2174C13.1919 14.0826 12.2614 13.1626 11.1135 13.1626C9.96563 13.1626 9.0351 14.0826 9.0351 15.2174C9.0351 16.3522 9.96563 17.2722 11.1135 17.2722Z" fill="#3C3C3C"/>
</svg>
