<svg width="14" height="14" fill="none" xmlns="http://www.w3.org/2000/svg">
    <path fill-rule="evenodd" clip-rule="evenodd" d="M0 2a2 2 0 0 1 2-2h10a2 2 0 0 1 2 2v10a2 2 0 0 1-2 2H2a2 2 0 0 1-2-2V2zm8.703 2.325v1.17c.53.498.832 1.19.832 1.92a2.652 2.652 0 0 1-2.65 2.65 2.652 2.652 0 0 1-2.65-2.65c0-.727.303-1.422.83-1.92v-1.17A3.571 3.571 0 0 0 3.3 7.415 3.59 3.59 0 0 0 6.885 11a3.59 3.59 0 0 0 3.586-3.585 3.56 3.56 0 0 0-1.768-3.09zm-1.35-.857v2.908a.467.467 0 1 1-.935 0V3.468a.467.467 0 1 1 .935 0z" fill="#fff"/>
</svg>
