<svg width="30" height="30" viewBox="0 0 30 30" fill="none" xmlns="http://www.w3.org/2000/svg">
    <path fill-rule="evenodd" clip-rule="evenodd" d="M12.398 8.13 11.725 7c-1.904.345-2.953.581-4.768 1.13-3.024 4.207-3.619 6.726-3.423 11.404C5.659 20.78 6.946 21.313 9.402 22l1.223-1.695-1.956-.77.55-.412c4.512 1.477 7.041 1.579 11.553 0l.49.411-1.896.77L20.528 22c2.311-.584 3.6-1.16 5.868-2.466.443-4.537-.495-7.025-3.484-11.404-1.746-.627-2.743-.942-4.707-1.13l-.673 1.13c-1.947-.327-3.06-.412-5.134 0zm8.496 7.087c0 1.135-.93 2.055-2.078 2.055a2.067 2.067 0 0 1-2.079-2.055c0-1.134.93-2.054 2.079-2.054 1.148 0 2.078.92 2.078 2.054zm-9.78 2.055c1.147 0 2.078-.92 2.078-2.055 0-1.134-.93-2.054-2.079-2.054-1.147 0-2.078.92-2.078 2.054 0 1.135.93 2.055 2.079 2.055z" fill="url(#fiaal0gwoa)"/>
    <defs>
        <linearGradient id="fiaal0gwoa" x1="3.5" y1="13" x2="26.752" y2="17.244" gradientUnits="userSpaceOnUse">
            <stop stop-color="#F7931A"/>
            <stop offset="1" stop-color="#AC1CC7"/>
        </linearGradient>
    </defs>
</svg>
