<svg width="18" height="18" viewBox="0 0 18 18" fill="none" xmlns="http://www.w3.org/2000/svg">
    <path fill-rule="evenodd" clip-rule="evenodd" d="M10 17.945c1.079-.12 2.1-.43 3.03-.896l.435-2.261c.146-.76.26-1.522.342-2.288H10v5.445zm0-7.445v-4h3.807a28 28 0 0 1 .144 4H10zm5.818 2c-.09.892-.22 1.781-.39 2.665l-.031.166a9.013 9.013 0 0 0 1.897-2.831h-1.476zm2.058-2h-1.924c.044-1.334 0-2.67-.134-4h1.83a9.066 9.066 0 0 1 .227 4zM8 10.5H4.536a28 28 0 0 1 .215-4H8v4zm-3.357 2H8v5.445a8.94 8.94 0 0 1-2.586-.688l-.379-1.97a28.004 28.004 0 0 1-.392-2.787zm-2.107-2a30 30 0 0 1 .2-4H.352a9.062 9.062 0 0 0-.227 4h2.41zm-1.83 2h1.93a30 30 0 0 0 .435 3.165l.025.128A9.024 9.024 0 0 1 .706 12.5zM10 4.5h3.519a28.315 28.315 0 0 0-.054-.288L12.818.847A8.94 8.94 0 0 0 10 .055V4.5zm5.549 0h1.247a9.041 9.041 0 0 0-1.636-2.062l.269 1.396c.042.222.082.444.12.666zM8 .055V4.5H5.076L5.831.574A8.945 8.945 0 0 1 8 .054zm-4.929 4.28L3.04 4.5H1.204a9.045 9.045 0 0 1 2.348-2.664l-.48 2.498z" fill="#fff"/>
</svg>
