<svg width="45" height="45" viewBox="0 0 45 45" fill="none" xmlns="http://www.w3.org/2000/svg">
<circle cx="22.5" cy="22.5" r="22" fill="#131313" stroke="#B5B5B5"/>
<path d="M15 33H29" stroke="white" stroke-width="2" stroke-linecap="round"/>
<path d="M21.2929 28.7071C21.6834 29.0976 22.3166 29.0976 22.7071 28.7071L29.0711 22.3431C29.4616 21.9526 29.4616 21.3195 29.0711 20.9289C28.6805 20.5384 28.0474 20.5384 27.6569 20.9289L22 26.5858L16.3431 20.9289C15.9526 20.5384 15.3195 20.5384 14.9289 20.9289C14.5384 21.3195 14.5384 21.9526 14.9289 22.3431L21.2929 28.7071ZM23 10C23 9.44772 22.5523 9 22 9C21.4477 9 21 9.44772 21 10H23ZM23 28V10H21V28H23Z" fill="white"/>
</svg>
