<svg width="15" height="24" viewBox="0 0 15 24" fill="none" xmlns="http://www.w3.org/2000/svg">
    <path fill-rule="evenodd" clip-rule="evenodd" d="M14 24a1 1 0 0 1-1-1V1a1 1 0 1 1 2 0v22a1 1 0 0 1-1 1z" fill="#fff"/>
    <path fill-rule="evenodd" clip-rule="evenodd" d="M9.5 4a7.5 7.5 0 1 0 3.97 13.864l1.06 1.696a9.5 9.5 0 1 1 .361-15.883l-1.136 1.646A7.46 7.46 0 0 0 9.5 4z" fill="#fff"/>
    <path fill-rule="evenodd" clip-rule="evenodd" d="M6.963 8.985a.75.75 0 0 1 1.06-.013l4.09 3.991a.75.75 0 0 1-1.049 1.073l-4.088-3.99a.75.75 0 0 1-.013-1.061z" fill="#fff"/>
    <path fill-rule="evenodd" clip-rule="evenodd" d="M12.118 8.97a.75.75 0 0 0-1.06 0l-3.991 4a.75.75 0 0 0 1.061 1.06l3.991-4a.75.75 0 0 0 0-1.06z" fill="#fff"/>
</svg>
