<svg width="528" height="153" viewBox="0 0 528 153" fill="none" xmlns="http://www.w3.org/2000/svg">
<path d="M1.75 84H175.75" stroke="#636363" stroke-width="2" stroke-linecap="round"/>
<path d="M355.75 84H526.25" stroke="#636363" stroke-width="2" stroke-linecap="round"/>
<path d="M225.872 128.515L193.186 124.429C188.407 123.832 186.308 118.078 189.58 114.543C192.038 111.889 191.558 107.669 188.566 105.635L187.675 105.029C184.448 102.835 183.708 98.3897 186.049 95.2677L201.034 75.2874C202.818 72.9094 206.18 72.4038 208.584 74.1522C209.348 74.7078 210.244 75.0549 211.183 75.1592L253.186 79.8263C257.175 80.2694 261.211 79.7833 264.981 78.4062L285.25 71L292.453 69.153C306.808 65.4724 319.883 78.4689 316.289 92.8454L315.764 94.9422C314.798 98.8098 315.462 102.905 317.602 106.268C322.876 114.555 318.477 125.606 308.986 128.137C306.867 128.702 304.886 129.741 303.221 131.168L290.857 141.765C282.915 148.573 271.666 149.958 262.309 145.28L233.246 130.748C230.932 129.591 228.439 128.836 225.872 128.515Z" fill="#C27EFF"/>
<path d="M193.12 8.21429C192.641 7.86378 192.03 7.74287 191.456 7.89314C175.49 12.0713 161.453 20.9765 152.339 32.7334C143.053 44.7126 139.638 58.671 142.846 71.5379C146.054 84.4049 155.622 95.1263 169.446 101.344C182.953 107.419 199.442 108.707 215.435 104.962C216.13 104.799 216.678 104.268 216.875 103.583L219.246 95.3515C219.459 94.6124 219.229 93.8168 218.655 93.305L210.707 86.2208C210.077 85.6586 209.867 84.7608 210.184 83.9777L216.775 67.6862C217.094 66.8982 216.88 65.9948 216.242 65.4337L206.598 56.9599C205.911 56.3564 205.721 55.3639 206.136 54.5492L211.873 43.2947C212.172 42.7074 212.163 42.0102 211.848 41.4311L205.904 30.5004C205.763 30.2395 205.681 29.9502 205.664 29.6537L205.021 17.8314C204.989 17.2327 204.689 16.6801 204.205 16.326L193.12 8.21429Z" fill="#131313" stroke="#EEEEEE" stroke-width="3"/>
<path d="M318.727 4.48137C318.03 2.94323 319.429 1.30856 321.035 1.83061C327.599 3.96429 333.827 6.92273 339.468 10.5951C346.26 15.0162 352.068 20.3855 356.562 26.3964C361.056 32.4072 364.147 38.9419 365.66 45.6275C367.172 52.313 367.076 59.0183 365.376 65.3607C363.677 71.7031 360.408 77.5582 355.755 82.5918C351.103 87.6255 345.158 91.739 338.261 94.6976C331.363 97.6562 323.649 99.4019 315.557 99.835C308.556 100.21 301.392 99.5958 294.372 98.0259C292.89 97.6946 292.377 95.8816 293.424 94.7825L297.864 90.1241C298.389 89.5726 298.556 88.7703 298.293 88.0551L294.582 77.944C294.292 77.1547 294.527 76.2685 295.169 75.7263L308.969 64.0828C309.641 63.5162 309.864 62.5777 309.519 61.7695L304.687 50.4423C304.311 49.5616 304.613 48.5381 305.405 48.0014L314.678 41.7243C315.227 41.3523 315.557 40.7318 315.557 40.0681L315.557 26.962C315.557 26.5922 315.659 26.2295 315.853 25.9145L322.543 15.0346C322.891 14.4686 322.935 13.7667 322.66 13.1615L318.727 4.48137Z" fill="#131313" stroke="#EEEEEE" stroke-width="3"/>
<path d="M287.25 80.5C287.25 81.6309 286.632 82.8971 285.094 84.2335C283.56 85.5666 281.254 86.8354 278.274 87.931C272.326 90.1177 264.009 91.5 254.75 91.5C245.491 91.5 237.174 90.1177 231.226 87.931C228.246 86.8354 225.94 85.5666 224.406 84.2335C222.868 82.8971 222.25 81.6309 222.25 80.5C222.25 79.4479 222.922 78.1898 224.67 76.8128C226.39 75.4582 228.924 74.1782 232.06 73.0763C238.318 70.8773 246.647 69.5 254.75 69.5C262.346 69.5 270.679 70.8752 277.074 73.0793C280.277 74.1836 282.911 75.4677 284.712 76.8306C286.555 78.2251 287.25 79.4809 287.25 80.5Z" fill="#DDB6FF" stroke="white" stroke-width="3"/>
</svg>
