<svg width="36" height="35" viewBox="0 0 36 35" fill="none" xmlns="http://www.w3.org/2000/svg">
<rect x="1.25" y="0.75" width="33.5" height="33.5" rx="16.75" stroke="#3C3C3C" stroke-width="1.5"/>
<path d="M20.5 14C20.5 15.3807 21.6193 16.5 23 16.5C24.3807 16.5 25.5 15.3807 25.5 14C25.5 12.6193 24.3807 11.5 23 11.5C21.6193 11.5 20.5 12.6193 20.5 14ZM20.5 14H11" stroke="white" stroke-width="1.5" stroke-linecap="round"/>
<path d="M16 21C16 22.3807 14.8807 23.5 13.5 23.5C12.1193 23.5 11 22.3807 11 21C11 19.6193 12.1193 18.5 13.5 18.5C14.8807 18.5 16 19.6193 16 21ZM16 21H25.5" stroke="white" stroke-width="1.5" stroke-linecap="round"/>
</svg>
