<svg width="21" height="21" viewBox="0 0 21 21" fill="none" xmlns="http://www.w3.org/2000/svg">
<g id="Pool type" clip-path="url(#clip0_573_13783)">
<path id="Vector" d="M16.3446 12.9675C16.5377 11.2896 15.7694 9.86701 15.2312 9.10036C15.055 8.84928 14.6682 8.94027 14.6175 9.23374L14.5606 9.5639C14.4326 10.3057 13.9246 10.9502 13.189 11.304C12.8721 11.4565 12.491 11.153 12.596 10.8437C12.7807 10.2999 12.9657 9.59335 12.9657 8.94481C12.9657 6.31716 10.5695 3.22648 7.85188 3.0013C7.67207 2.98258 7.57213 3.17018 7.67207 3.30163C8.65127 4.50279 8.55132 6.24834 7.37239 7.35566L6.03355 8.61316C5.01451 9.57033 4.375 10.9029 4.375 12.3669C4.375 15.5388 7.1726 18.0914 10.5696 17.9975C13.5471 17.9224 16.0248 15.7452 16.3446 12.9675Z" fill="url(#paint0_linear_573_13783)"/>
</g>
<defs>
<linearGradient id="paint0_linear_573_13783" x1="10.375" y1="3" x2="10.375" y2="18" gradientUnits="userSpaceOnUse">
<stop stop-color="#FD8917"/>
<stop offset="1" stop-color="#C83B4B"/>
</linearGradient>
<clipPath id="clip0_573_13783">
<rect width="20" height="20" fill="white" transform="translate(0.375 0.5)"/>
</clipPath>
</defs>
</svg>
