<svg width="143" height="143" viewBox="0 0 143 143" fill="none" xmlns="http://www.w3.org/2000/svg">
<path d="M31.4049 40.6825C24.8968 49.1496 21.2362 59.4597 20.9479 70.1352L47.6694 70.8569C47.8053 65.8245 49.5309 60.9643 52.5988 56.9729L31.4049 40.6825Z" fill="#F1AE00"/>
<path d="M72.5932 20.9419C64.6146 20.7693 56.7084 22.4875 49.5211 25.9559C42.3338 29.4244 36.0693 34.5446 31.24 40.898L52.5212 57.0742C54.7978 54.0792 57.7508 51.6655 61.1389 50.0305C64.527 48.3955 68.254 47.5855 72.0151 47.6668L72.5932 20.9419Z" fill="#6EAD57"/>
<path d="M26.4808 94.5352C22.6008 86.9523 20.6991 78.5121 20.9521 69.9979L47.6715 70.792C47.5523 74.8056 48.4487 78.7843 50.2778 82.3589L26.4808 94.5352Z" fill="#FA6F71"/>
<path d="M122.096 71.4993C122.096 64.8549 120.788 58.2754 118.245 52.1367C115.702 45.998 111.975 40.4202 107.277 35.7219C102.578 31.0235 97.0007 27.2965 90.862 24.7538C84.7233 22.2111 78.1438 20.9023 71.4993 20.9023L71.4993 47.6479C74.6316 47.6479 77.7331 48.2648 80.6269 49.4635C83.5207 50.6621 86.1501 52.419 88.3649 54.6338C90.5797 56.8486 92.3366 59.478 93.5352 62.3718C94.7339 65.2656 95.3508 68.3671 95.3508 71.4993H122.096Z" fill="#C27EFF"/>
<path d="M122.101 71.5035C122.101 83.0048 118.182 94.1629 110.991 103.139C103.8 112.115 93.7652 118.373 82.5409 120.882C71.3166 123.391 59.5724 122.001 49.2439 116.941C38.9154 111.881 30.619 103.453 25.722 93.0467L49.922 81.659C52.2305 86.5647 56.1414 90.5376 61.0103 92.9228C65.8792 95.308 71.4154 95.9633 76.7065 94.7805C81.9977 93.5978 86.728 90.6477 90.1179 86.4165C93.5078 82.1852 95.355 76.9252 95.355 71.5035H122.101Z" fill="#757DFF"/>
</svg>
