<svg width="144" height="115" viewBox="0 0 144 115" fill="none" xmlns="http://www.w3.org/2000/svg">
<path d="M0 87.1305H15.2073C16.0093 87.1305 16.6953 87.7068 16.8337 88.4968L18.1997 96.2955C18.3207 96.9862 19.3256 96.9445 19.3889 96.2461V96.2461C19.451 95.5629 20.4255 95.5013 20.5732 96.1712L21.8524 101.975C22.1604 103.372 24.1822 103.283 24.3662 101.864L24.4261 101.402C24.4744 101.03 24.7915 100.751 25.1669 100.751V100.751C25.4875 100.751 25.7723 100.956 25.8747 101.259L28.5228 109.114L29.1405 112.402C29.348 113.506 30.909 113.562 31.1949 112.476V112.476C31.46 111.468 32.871 111.416 33.21 112.401L33.3669 112.857C33.764 114.011 35.4302 113.904 35.6765 112.709L36.8288 107.116C37.0472 106.056 38.6077 106.215 38.6077 107.297V108.735C38.6077 109.665 39.955 109.79 40.1259 108.876V108.876C40.2968 107.961 41.644 108.086 41.644 109.016V112.577C41.644 113.72 43.0759 114.047 43.5058 112.988C46.058 106.701 46.6505 101.384 47.0815 100.751C47.5857 100.01 54.0525 99.0602 59.0569 92.9913C59.3788 92.601 59.5763 92.1253 59.652 91.6251L61.1838 81.4988C61.437 79.8247 63.7549 79.5907 64.3376 81.1805L64.3661 81.2583C64.3995 81.3494 64.42 81.4446 64.4271 81.5414V81.5414C64.5152 82.7447 66.2353 82.8642 66.4889 81.6846L67.79 75.632C67.8535 75.3366 67.9854 75.0602 68.1751 74.8251L69.6216 73.0321L70.8876 71.7037C71.3569 71.2112 72.1792 71.3763 72.422 72.0117V72.0117C72.7585 72.8922 74.0421 72.7649 74.199 71.8355L74.2575 71.4892C74.4522 70.3364 76.1447 70.3597 76.3217 71.5154C76.6362 73.5685 76.9113 75.1827 76.9955 75.1827C77.1249 75.1827 77.5842 70.9277 77.9593 67.1788C78.0261 66.5109 78.9796 66.44 79.1426 67.0912V67.0912C79.307 67.7477 80.2644 67.6674 80.3171 66.9927L83.4097 27.4298C83.4806 26.5221 84.7943 26.4764 84.9282 27.3769V27.3769C85.0631 28.2847 86.3905 28.228 86.4475 27.312L86.7551 22.3735L88.4056 7.30626C88.513 6.32587 89.9185 6.27118 90.1018 7.24026V7.24026C90.1117 7.29282 90.1167 7.3462 90.1167 7.39969V19.7756C90.1167 21.5461 92.4382 22.2063 93.3699 20.7008V20.7008L94.5337 19.1621C94.9135 18.66 95.7096 18.8556 95.8135 19.4766V19.4766C95.9373 20.2173 96.9719 20.2939 97.2035 19.5795L97.2273 19.5058C97.3197 19.221 97.585 19.0281 97.8844 19.0281V19.0281C98.2658 19.0281 98.5751 19.3374 98.5751 19.7188V33.0077C98.5751 33.9629 99.8687 34.2576 100.282 33.3966L100.431 33.0877C100.49 32.9654 100.613 32.8876 100.749 32.8876V32.8876C100.931 32.8876 101.083 32.7497 101.1 32.5689L102.542 17.8797C102.706 16.2033 105.129 16.1426 105.377 17.8086L105.76 20.3776C105.85 20.985 106.671 21.111 106.94 20.5587V20.5587C107.194 20.0356 107.962 20.1133 108.107 20.6766L108.829 23.4939C108.985 24.1001 109.531 24.5241 110.157 24.5241V24.5241C110.641 24.5241 111.089 24.7788 111.336 25.1945L117.111 34.9096C118.505 37.2551 122.052 36.6724 122.623 34.0041L125.468 20.7008L126.523 15.4688C126.667 14.7593 127.29 14.249 128.014 14.249V14.249C128.74 14.249 129.365 13.7354 129.506 13.0229L131.358 3.63647C131.407 3.38556 131.501 3.14562 131.636 2.92815L132.31 1.83955C133.122 0.526673 135.13 0.937885 135.361 2.46443V2.46443C135.598 4.03412 137.693 4.40599 138.456 3.01399L138.735 2.50598C139.048 1.93426 139.639 1.56913 140.29 1.54429L143 1.44096" stroke="#C27EFF" stroke-width="1.5"/>
</svg>
