<svg width="19" height="27" viewBox="0 0 19 27" fill="none" xmlns="http://www.w3.org/2000/svg">
    <path d="M12.682 6.618 9.618 9.28a.18.18 0 0 1-.236 0L6.318 6.618a1.793 1.793 0 0 1-.21-2.493L9.362.168a.18.18 0 0 1 .278 0l3.253 3.957c.617.75.524 1.855-.21 2.493z" fill="#AAA"/>
    <path d="M17.1 9.455V8.176c0-.179-.17-.307-.34-.252-.812.262-2.904.994-4.41 2.025-1.715 1.175-2.49 2.842-2.85 2.842-.36 0-1.134-1.667-2.85-2.842-1.505-1.03-3.597-1.763-4.409-2.025a.261.261 0 0 0-.34.252v1.279a7.6 7.6 0 0 0 15.2 0z" fill="#BDBDBD"/>
    <path d="M19 17.5v-1.429a.322.322 0 0 0-.418-.311c-1.01.32-3.633 1.223-5.52 2.495-2.144 1.446-3.112 3.498-3.562 3.498-.45 0-1.418-2.052-3.563-3.498-1.886-1.272-4.51-2.175-5.519-2.495A.322.322 0 0 0 0 16.07v1.43a9.5 9.5 0 0 0 19 0z" fill="#BDBDBD"/>
</svg>
