<svg width="16" height="29" fill="none" xmlns="http://www.w3.org/2000/svg">
    <path d="M10.21 6.522 7.747 8.985a.2.2 0 0 1-.283 0L5 6.522a2 2 0 0 1-.214-2.577L7.444.228a.2.2 0 0 1 .325 0l2.655 3.717a2 2 0 0 1-.213 2.577z" fill="#000"/>
    <path d="M13.69 11.408V8.024a.275.275 0 0 0-.386-.256c-.715.316-2.276 1.074-3.417 2.119-1.373 1.257-1.994 3.042-2.282 3.042-.288 0-.908-1.785-2.281-3.042-1.141-1.045-2.702-1.803-3.417-2.119a.275.275 0 0 0-.386.256v3.384a6.084 6.084 0 0 0 12.168 0z" fill="#000"/>
    <path d="M15.21 21.295v-4.05a.34.34 0 0 0-.473-.317c-.89.387-2.85 1.322-4.28 2.612-1.716 1.547-2.491 3.744-2.852 3.744-.36 0-1.135-2.197-2.852-3.744-1.43-1.29-3.39-2.225-4.279-2.612a.34.34 0 0 0-.474.317v4.05a7.605 7.605 0 1 0 15.21 0z" fill="#000"/>
</svg>
