<svg width="21" height="21" viewBox="0 0 21 21" fill="none" xmlns="http://www.w3.org/2000/svg">
<g id="Pool type" clip-path="url(#clip0_573_17744)">
<path id="Vector" d="M10.473 15.4886C10.4153 15.4566 10.3452 15.4566 10.2875 15.4885L6.08995 17.8092C5.95004 17.8865 5.78253 17.7685 5.80827 17.6107L6.61468 12.6674C6.62448 12.6074 6.60517 12.5463 6.56266 12.5028L3.13579 8.9951C3.0268 8.88354 3.08974 8.69544 3.24393 8.67194L7.95618 7.9538C8.01934 7.94418 8.07355 7.90368 8.1007 7.84584L10.2016 3.3694C10.2706 3.22254 10.4794 3.22254 10.5484 3.3694L12.6493 7.84584C12.6765 7.90368 12.7307 7.94418 12.7938 7.9538L17.5061 8.67194C17.6603 8.69544 17.7232 8.88354 17.6142 8.9951L14.1873 12.5028C14.1448 12.5463 14.1255 12.6074 14.1353 12.6674L14.9417 17.6102C14.9674 17.7681 14.7997 17.8861 14.6598 17.8086L10.473 15.4886Z" fill="url(#paint0_linear_573_17744)"/>
</g>
<defs>
<linearGradient id="paint0_linear_573_17744" x1="10.375" y1="3" x2="10.375" y2="18" gradientUnits="userSpaceOnUse">
<stop stop-color="#FDD31A"/>
<stop offset="1" stop-color="#B75910"/>
</linearGradient>
<clipPath id="clip0_573_17744">
<rect width="20" height="20" fill="white" transform="translate(0.375 0.5)"/>
</clipPath>
</defs>
</svg>
