<svg width="250" height="161" fill="none" xmlns="http://www.w3.org/2000/svg">
    <path fill-rule="evenodd" clip-rule="evenodd" d="m249.379 4-22.945 5.804 5.44 5.399-65.728 66.858-15.884-30.968c-1.656-3.228-6.092-3.674-8.356-.839l-60.925 76.272L64.7 84.519c-1.431-3.694-6.384-4.335-8.71-1.129L4.763 154.034a4 4 0 1 0 6.477 4.696L59.23 92.547l16.176 41.734c1.394 3.596 6.162 4.327 8.57 1.314l61.284-76.722 15.663 30.536c1.555 3.034 5.624 3.655 8.014 1.223l68.615-69.794 5.506 5.464L249.379 4z" fill="#fff"/>
    <path d="M91.751 25.544c.655.764 1.091 1.528 1.418 1.964 0 0 0 .109.11.109 0 0 0 .11.109.11.109.108.218.217.218.435-1.855-7.308-5.89-9.708-7.745-10.472 0-.218-.11-.327-.11-.545 1.855.436 5.346 1.418 6.328 2.4 1.418 1.309 1.854 2.509 1.854 2.509s-.873-5.455-5.236-6.873c-2.073-.654-3.382-1.418-4.145-1.854 0 0-.218-3.273-8.4-8.182C67.971.128 59.244-.09 58.48.018c0 0-9.38.982-14.18 6.655-4.8 5.672-8.073 10.58-11.455 11.999-3.272 1.418-5.781 6-8.508 6.982-2.618.981-3.164.763-4.91 2.508 0 0-1.417 1.637-2.617 3.273-1.2 1.636-5.454 1.636-6.436 1.527-1.527-.218-2.727-2.4-2.727-2.4-.982-1.2-.11-.218-1.527-1.636-2.4-2.29-4.582.545-4.582.545l1.527.546s-1.418.109-1.636.109c-.546 0-1.2-.11-1.418-.327 0 0-.218 1.636 1.309 1.854.872.11 1.309.11 1.636.11l-1.309.217s.11 0 .327.11c.328.109.764.218 1.091.109h.11c.763-.219 1.745-.437 2.617 0 .873.436 1.527 1.745 3.055 2.29 1.963.655 2.4.546 4.8.328 2.836-.328 2.618-.546 3.926-1.091 0 0 1.31-.764 2.073-1.636 0-.11.11-.11.11-.219.217-.327.763-.872 1.526-.872 0 0-1.309 3.163 1.419 6.108 0 0 0 .11.109.11.218.218.545 1.09-.655 2.945-.109.109-.109.218-.218.218-.218.109-2.29 2.509-1.745 4.909.545 2.4-1.528 3.054-1.528 3.054s.218.436.437 1.091c0 .11.109.327.109.436.545 1.964 1.09 4.8 1.09 5.455v.109l-.327 2.4c3.818.872 5.673 0 5.673 0 1.09-2.073.218-3.491.218-3.491s-1.09.545-2.073-2.618c0 0 .873-3.164 1.527-4.255 0-.109.219-.218.546-.436.218-.218.545-.327.982-.545 0 0 4.254-1.964 4.8-2.4 1.2-.655 2.072-1.31 2.4-2.073l1.963-1.963s4.145-4.145 6.327-5.127c.109 0 .218-.11.327-.11.11 0 .327-.108.436-.108.764-.219 1.528-.437 2.291-.764l.982-.327c.327-.11.654-.218.873-.218.436-.11.872-.219 1.418-.219 2.181.218 6-.327 12.872-3.6 0 0 2.618.437 3.6-.327 0 0-1.855 1.964-2.073 2.727 0 0-.327.546-2.29.437 0 0 .217 0-2.073-.328 0 0 0 .11-.11.219h-.763v3.818c0 .981 0 1.745.109 1.854.218.11.436.11.654 0h.11s1.745-.436 2.945-1.2c.109-.109.327-.109.436-.218.873-.545.328-1.2 4.364-1.309 0 0 2.945-4.473 4.145-5.236 0 0 1.636-1.091 2.4-2.29.654 1.199.981 1.744 1.2 1.963 0 0-.11 0-.11.109-.108.218 0 .654 0 .654 0 .655-.218.873-.436.982 0 0-.109 0-.109.11h-.109c-.109.108-.109.108.11.435.654.764 1.854.219 2.4-.218.654-.327 1.308 1.527 1.417 1.746.11.218 1.31 1.2 2.182.436.873-.764.545-.764.436-.873l.218-.545c.764-1.527 3.055-5.454 4.146-6.545.218-.219.545-.655.654-.982.546-.764.873-2.618.873-2.618 0-.11 0-.218.109-.327 1.309.436 2.4.545 2.4.545.109-.109 1.527.655 3.381 2.945z" fill="#fff"/>
    <path fill-rule="evenodd" clip-rule="evenodd" d="M163.736 130.418c.308-.277.838-1.07.936-1.38.126-.24.529-.763.948-1.363.503-.55 2.053-2.618 1.962-4.027.11-.41 1.146-3.457 5.083-6.307l-.005-.006c.588-.373.563-.987.534-1.223a.967.967 0 0 1-.016-.081c0-.007-.004-.02-.004-.02l.005-.003c-.012-.095-.025-.191-.025-.291 0-.974.628-1.764 1.4-1.764.127 0 .241.027.358.065.223-.599.705-1.018 1.268-1.018.551 0 1.019.403 1.249.983.723 1.244 1.246 1.596 1.448 1.684.017.006.038.01.054.016.055.063 5.417-.091 9.05-1.189a8.96 8.96 0 0 1 .847-.284c.022-.007.046-.014.068-.024v.007c1.644-.45 3.307-.344 5.032.442 1.818.828 3.708.818 5.649.413 2.663-.555 5.339-1.14 8.034-1.448 6.29-.718 12.195.464 17.016 4.914 2.978 2.748 6.721 3.68 9.378 6.766 2.248 2.615 2.58 7.909 3.285 11.346.416 2.015.847 4.033 1.402 6.011.828 2.95.982 6.176 3.187 8.59.363 1.374-.201 3.612-.24 3.778-1.152 4.996-2.207 5.784-7.169 5.325-.488-.044-1.04-.036-1.434-.272-.351-.21-.754-.731-.744-1.105.032-1.257 1.06-1.425 1.996-1.617 1.18-.239 1.387-.6.729-1.623a8.957 8.957 0 0 0-1.695-1.936c-2.677-2.3-4.846-4.987-6.419-8.207a4.229 4.229 0 0 0-1.606-1.767c-1.602-1.956-3.008-4.172-3.647-6.446.25 1.077.873 3.269 2.59 5.972.354 1.111-.838 2.637-1.125 3.241-2.231 3.089-4.36 6.116-5.801 9.327-.21.464-.72.874-1.186 1.114-2.37 1.221-4.895 1.46-7.48.979-.382-.072-.914-.498-.984-.845-.077-.38.19-1.022.506-1.255.575-.42 1.281-.678 1.968-.898 2.09-.677 2.034-.089 1.91-2.803-.005-.107-.038-.211-.038-.318-.007-1.661-.937-4.372-.697-6.351-1.698.911-4.429 1.895-8.076 1.676-.208-2.602-.775-4.503-1.24-5.715l-.09-.022c.312.991.517 2.041.629 3.131.032.23.058.472.08.727.003.067.011.134.017.2.024.344.032.711.032 1.101.004.178.02.355.02.534-.009 0-.017-.002-.023-.003-.073 2.291-.608 5.295-2.141 9.078-1.018 2.508-2.997 4.113-5.513 4.591-1.883.357-3.889.089-5.836.027-.689-.023-1.297-.285-1.297-1.236 0-.928.486-1.349 1.264-1.49.835-.151 1.677-.295 2.524-.323 1.373-.047 2.178-.802 2.105-2.126-.196-3.515-.077-7.148-.95-10.497-.083-.321-.189-.632-.287-.947-.494 1.548-1.318 2.439-1.318 2.439v-.001c-2.057 2.582-4.241 5.056-7.315 6.406-1.066.468-1.463 1.084-1.237 2.205.113.582.347 1.191.273 1.752-.102.797-.231 1.831-.747 2.251-.342.284-1.628-.082-2.061-.566-2.997-3.372-4.094-6.691-1.978-10.606 1.158-2.137 2.74-4.049 4.266-5.95.929-1.159 1.42-2.296.99-3.771-.275-.948-.543-1.916-.816-2.884l-.003-.005c-.405-1.445-1.194-2.508-1.194-2.508s-.345-.491-1.45-1.769h-.003c-.269.643-.89 1.869-1.672 1.761.082-.082.402-1.042.402-1.758-.192.004-.395.01-.604.017-.278.656-1.147 2.427-2.351 2.244.114-.094.529-1.267.483-2.129-2.017.179-4.317.571-6.072 1.412-.238.098-1.424 1.199-2.237 1.166-.862.121-1.417.44-1.792-.049-.017-.052-.431.298-.729.03-.336-.282-.953-.809-1.245-1.439-.099.017-1.133-.41-1.121-.821.133-.355-.088-.359.736-1.235z" fill="#fff"/>
</svg>
