<svg width="162" height="148" viewBox="0 0 162 148" fill="none" xmlns="http://www.w3.org/2000/svg">
    <g filter="url(#xb4i9fphha)">
        <circle cx="133.273" cy="113.274" fill="url(#o01f0oco8b)" r="77.551"/>
    </g>
    <circle cx="133.275" cy="113.274" fill="url(#ql428h70gc)" r="36.56"/>
    <path d="m75.926 129.637-1.829.711 3.291 8.589 11.744-4.566-.837-2.185-4.496 1.748-2.177-5.681-1.846.718 2.177 5.681-3.573 1.389-2.454-6.404zM79.69 110.137c-3.004.103-4.903 2.221-4.818 5.028.086 2.86 2.2 4.895 5.06 4.797 2.86-.098 4.866-2.256 4.77-5.477-.05-1.655-.63-2.986-1.682-3.814l-1.349 1.253c.722.659 1.09 1.493 1.122 2.573.05 1.673-.814 2.873-2.21 3.191l-.226-7.538a8.564 8.564 0 0 0-.666-.013zm-3.02 4.966c-.044-1.475.878-2.57 2.257-2.797l.164 5.451c-1.41-.167-2.377-1.197-2.42-2.654zM77.418 96.384c-.461 1.478-.529 3.02-.078 4.235l1.827-.357c-.352-.863-.363-2.035-.041-3.066.478-1.529 1.453-2.055 2.708-1.666l.138.043-.741 2.37c-.87 2.784.011 4.188 1.541 4.663 1.6.496 3.164-.47 3.82-2.566.429-1.374.293-2.51-.336-3.27l1.117.347.634-2.028-5.381-1.67c-2.648-.82-4.38.32-5.208 2.965zm7.749 2.724c-.344 1.1-1.047 1.598-1.82 1.358-.67-.208-1.097-.774-.641-2.234l.693-2.217 1.066.331c.832.654 1.03 1.714.702 2.762zM93.055 82.272c.03.434-.122.877-.387 1.262-.489.713-1.169.813-1.94.283l-3.769-2.589 1.457-2.122-1.483-1.02-1.457 2.123-1.81-1.244-1.274 1.855 1.81 1.243-.897 1.306 1.484 1.02.897-1.306 3.813 2.62c1.75 1.202 3.353.84 4.545-.896.458-.668.739-1.458.688-2.148l-1.677-.388zM99.507 65.862l2.962 3.853c1.174 1.526.927 2.947-.312 3.905-1.125.87-2.285.72-3.349-.664l-3.16-4.11-1.78 1.377 3.347 4.352c1.766 2.297 3.913 2.343 5.864.835.983-.76 1.594-1.825 1.626-2.965l.746.97 1.695-1.31-5.86-7.62-1.78 1.377zM113.799 59.972l-.472-1.322-2.015.728 3.233 9.052 2.116-.765-1.568-4.39c-.659-1.848.017-3.164 1.626-3.745.152-.055.31-.093.509-.126l-.721-2.018c-1.506.545-2.437 1.417-2.708 2.586zM135.567 59.827c-.129-3.003-2.262-4.868-5.067-4.737-2.859.134-4.875 2.282-4.753 5.142.122 2.86 2.296 4.83 5.515 4.68 1.654-.078 2.979-.68 3.799-1.746l-1.264-1.328c-.653.733-1.484 1.114-2.563 1.165-1.672.078-2.879-.767-3.209-2.157l7.534-.352a9.52 9.52 0 0 0 .008-.667zm-4.99-2.938c1.474-.07 2.576.834 2.815 2.21l-5.449.255c.156-1.413 1.177-2.397 2.634-2.465zM145.811 66.573c2.598.736 4.513.063 5.008-1.668 1.033-3.617-5.157-3.575-4.622-5.444.173-.606.92-.862 2.236-.489.883.25 1.717.674 2.452 1.443l1.301-1.409c-.688-.737-2.006-1.429-3.236-1.777-2.494-.706-4.396-.01-4.896 1.737-1.053 3.687 5.137 3.644 4.632 5.41-.183.64-.863.859-2.232.471-1.16-.328-2.298-1.062-2.959-1.83l-1.301 1.409c.663.824 2.076 1.71 3.617 2.147z" fill="#fff"/>
    <defs>
        <linearGradient id="o01f0oco8b" x1="55.723" y1="97.764" x2="215.484" y2="116.779" gradientUnits="userSpaceOnUse">
            <stop stop-color="#F7931A"/>
            <stop offset="1" stop-color="#AC1CC7"/>
        </linearGradient>
        <linearGradient id="ql428h70gc" x1="82.654" y1="67.996" x2="164.21" y2="131.273" gradientUnits="userSpaceOnUse">
            <stop stop-color="#F4E39B"/>
            <stop offset="1" stop-color="#F4E39B" stop-opacity="0"/>
        </linearGradient>
        <filter id="xb4i9fphha" x=".723" y=".723" width="215.102" height="215.101" filterUnits="userSpaceOnUse" color-interpolation-filters="sRGB">
            <feFlood flood-opacity="0" result="BackgroundImageFix"/>
            <feColorMatrix in="SourceAlpha" values="0 0 0 0 0 0 0 0 0 0 0 0 0 0 0 0 0 0 127 0" result="hardAlpha"/>
            <feOffset dx="-25" dy="-5"/>
            <feGaussianBlur stdDeviation="15"/>
            <feComposite in2="hardAlpha" operator="out"/>
            <feColorMatrix values="0 0 0 0 0 0 0 0 0 0 0 0 0 0 0 0 0 0 0.25 0"/>
            <feBlend in2="BackgroundImageFix" result="effect1_dropShadow_11357_42454"/>
            <feBlend in="SourceGraphic" in2="effect1_dropShadow_11357_42454" result="shape"/>
        </filter>
    </defs>
</svg>
