<svg xmlns="http://www.w3.org/2000/svg" width="87" height="192" fill="none" viewBox="0 0 87 192">
    <path stroke="#fff" stroke-linecap="round" stroke-width="6" d="M42.455 188.262l1.248-169.758"/>
    <path fill="#fff" fill-rule="evenodd" d="M69.004 32.181c8.887 0 16.091-7.204 16.091-16.09C85.095 7.204 77.891 0 69.005 0c-8.887 0-16.091 7.204-16.091 16.09 0 8.887 7.204 16.091 16.09 16.091zM67.61 10.325l-2.762-.697-.349 1.42c1.015.236 1.638 1.26 1.379 2.27l-.997 3.886c-.213.831-1.045 1.346-1.884 1.166l-.724 1.556 2.709.697-.644 2.387 1.448.348.564-2.306 1.1.295-.59 2.28 1.474.402.59-2.333s3.647.938 4.8-1.529c1.054-2.254-.78-3.5-1.105-3.7.305-.014 1.93-.91 1.722-2.71-.23-2.001-2.976-2.44-2.976-2.44l.59-2.28-1.341-.375-.564 2.226-1.072-.268.563-2.307-1.314-.295-.617 2.307zm1.073 2.119l-.725 2.815s3.165 1.073 3.567-.616c.403-1.69-2.842-2.2-2.842-2.2zm-1.824 7.202l.722-3.019s3.943.603 3.542 2.414c-.401 1.811-4.264.605-4.264.605z" clip-rule="evenodd"/>
    <path fill="#fff" d="M42.643 181.365c6.525-29.435 38.243-15.269 41.506-29.987 3.89 15.543-15.103 40.231-37.705 31.37 1.676-7.558 18.1-12.554 18.1-12.554s-18.196 4.504-19.828 11.862l-2.073-.691zM43.447 115.393c6.526-29.435 38.244-15.269 41.507-29.987 3.89 15.543-15.103 40.231-37.705 31.37 1.675-7.558 18.1-12.554 18.1-12.554s-18.197 4.504-19.828 11.863l-2.074-.692zM43.447 62.294c6.526-29.436 38.244-15.27 41.507-29.987 3.89 15.543-15.103 40.23-37.705 31.37 1.675-7.558 18.1-12.555 18.1-12.555s-18.197 4.504-19.828 11.863l-2.074-.691zM42.502 166.169c-.79-30.14-34.712-22.284-35.107-37.354C.593 143.33 14.56 171.188 38.496 166.8c-.202-7.738-15.41-15.776-15.41-15.776s17.046 7.893 17.243 15.427l2.173-.282zM42.97 98.313C36.96 68.768 4.916 82.395 1.91 67.623c-4.178 15.476 14.414 40.486 37.226 32.008-1.544-7.586-17.916-12.86-17.916-12.86s18.157 4.812 19.66 12.198l2.09-.656z"/>
    <path fill="#fff" fill-rule="evenodd" d="M31.996 53.502c0 7.776-6.304 14.08-14.08 14.08s-14.08-6.304-14.08-14.08 6.304-14.08 14.08-14.08 14.08 6.304 14.08 14.08zm-14.492 3.547l-4.415-2.34 4.415 5.631 4.435-5.631-4.435 2.34zm.03-.731l4.405-2.548-4.405-7.107-4.445 7.107 4.445 2.548zM70.614 152.058c6.664 0 12.068-5.403 12.068-12.068s-5.404-12.068-12.069-12.068c-6.664 0-12.068 5.403-12.068 12.068s5.404 12.068 12.069 12.068zm-.342-15.517c0-.769.406-1.498 1.092-1.902.321-.201.727-.283 1.09-.281.364 0 .767.08 1.09.283.688.404 1.092 1.133 1.092 1.902 0 .769-.406 1.498-1.092 1.901-.364.203-.809.284-1.212.284-.483 0-.847.363-.847.849 0 .608.483.849.847.849.444 0 .848.081 1.212.284.688.405 1.092 1.134 1.092 1.903 0 .768-.406 1.497-1.092 1.901-.686.404-1.495.404-2.18 0-.69-.404-1.092-1.132-1.092-1.901 0-.404.12-.809.323-1.174.2-.404.08-.932-.323-1.174-.565-.324-1.01.041-1.171.325-.2.365-.484.687-.848.89-.686.403-1.495.403-2.18 0-.688-.405-1.091-1.134-1.091-1.903 0-.769.405-1.5 1.09-1.903.686-.404 1.495-.404 2.181 0 .364.241.647.565.888.89.242.404.769.566 1.172.324.564-.284.485-.849.323-1.174-.202-.363-.364-.769-.364-1.173z" clip-rule="evenodd"/>
</svg>
