<svg width="68" height="68" viewBox="0 0 68 68" fill="none" xmlns="http://www.w3.org/2000/svg">
<path d="M43.706 65.6183C41.5076 67.7968 37.9603 67.7968 35.7768 65.6183L4.88681 36.7161C3.15777 35.0991 1.10097 32.0378 0.951972 29.681C0.556867 23.3039 0.836359 11.0924 1.03019 4.62054C1.10097 2.25819 3.08699 0.280498 5.45686 0.228538C13.7476 0.0334525 31.3127 -0.17115 32.9448 1.45901L66.9573 32.1604C69.1408 34.3408 67.1622 39.8553 64.9638 42.0487L43.706 65.6183ZM16.6391 9.6037C14.7835 7.76171 11.7875 7.76171 9.93562 9.6037C8.08753 11.4548 8.08753 14.4399 9.93562 16.2855C11.7913 18.1313 14.7872 18.1313 16.6391 16.2855C18.4873 14.4399 18.4873 11.4531 16.6391 9.6037Z" fill="url(#paint0_linear_59_3124)"/>
<defs>
<linearGradient id="paint0_linear_59_3124" x1="34.3288" y1="0.0985718" x2="33.9995" y2="106.5" gradientUnits="userSpaceOnUse">
<stop stop-color="#5855FF"/>
<stop offset="1" stop-color="#DC1FFF"/>
</linearGradient>
</defs>
</svg>
