<svg width="67" height="67" viewBox="0 0 67 67" fill="none" xmlns="http://www.w3.org/2000/svg">
<path d="M42.8558 65.3699C40.6624 67.5434 37.1232 67.5434 34.9447 65.3699L4.1254 36.5338C2.40032 34.9204 0.34822 31.8662 0.199562 29.5148C-0.19464 23.1522 0.0842132 10.9687 0.277602 4.51163C0.34822 2.15468 2.3297 0.18151 4.69415 0.129669C12.9659 -0.0649703 30.4909 -0.269105 32.1193 1.35732L66.0539 31.9885C68.2324 34.1639 66.2584 39.6658 64.065 41.8542L42.8558 65.3699ZM15.8508 9.48339C13.9995 7.64561 11.0103 7.64561 9.16266 9.48339C7.3188 11.3303 7.3188 14.3086 9.16266 16.1499C11.0141 17.9915 14.0031 17.9915 15.8508 16.1499C17.6948 14.3086 17.6948 11.3286 15.8508 9.48339Z" fill="url(#paint0_linear_58_2926)"/>
<defs>
<linearGradient id="paint0_linear_58_2926" x1="33.5" y1="1.49012e-08" x2="33" y2="91.5" gradientUnits="userSpaceOnUse">
<stop stop-color="#5855FF"/>
<stop offset="1" stop-color="#010101" stop-opacity="0"/>
</linearGradient>
</defs>
</svg>
