<svg width="56" height="56" viewBox="0 0 56 56" fill="none" xmlns="http://www.w3.org/2000/svg">
    <path d="M35.82 54.638c-1.834 1.816-4.792 1.816-6.613 0L3.448 30.536C2.006 29.187.291 26.634.167 24.669-.163 19.351.07 9.168.232 3.771.291 1.8 1.947.15 3.923.108c6.914-.162 21.562-.333 22.923 1.026l28.363 25.603c1.821 1.818.171 6.417-1.662 8.246L35.82 54.638zM13.248 7.925a3.967 3.967 0 0 0-5.59 0 3.936 3.936 0 0 0 0 5.572 3.96 3.96 0 0 0 5.59 0 3.935 3.935 0 0 0 0-5.572z" fill="url(#a)"/>
    <defs>
        <linearGradient id="a" x1="28" y1="0" x2="28" y2="56" gradientUnits="userSpaceOnUse">
            <stop stop-color="#fff"/>
            <stop offset="1" stop-opacity="0"/>
        </linearGradient>
    </defs>
</svg>
