<svg width="17" height="15" viewBox="0 0 17 15" fill="none" xmlns="http://www.w3.org/2000/svg">
<g id="Settings">
<path id="Ellipse 2912" d="M10.5 4C10.5 5.38071 11.6193 6.5 13 6.5C14.3807 6.5 15.5 5.38071 15.5 4C15.5 2.61929 14.3807 1.5 13 1.5C11.6193 1.5 10.5 2.61929 10.5 4ZM10.5 4H1" stroke="white" stroke-width="1.5" stroke-linecap="round"/>
<path id="Ellipse 2913" d="M6 11C6 12.3807 4.88071 13.5 3.5 13.5C2.11929 13.5 1 12.3807 1 11C1 9.61929 2.11929 8.5 3.5 8.5C4.88071 8.5 6 9.61929 6 11ZM6 11H15.5" stroke="white" stroke-width="1.5" stroke-linecap="round"/>
</g>
</svg>
