<svg width="17" height="15" viewBox="0 0 17 15" fill="none" xmlns="http://www.w3.org/2000/svg">
<g id="Settings">
<path id="Ellipse 2912" d="M10.3 4C10.3 5.38071 11.4193 6.5 12.8 6.5C14.1808 6.5 15.3 5.38071 15.3 4C15.3 2.61929 14.1808 1.5 12.8 1.5C11.4193 1.5 10.3 2.61929 10.3 4ZM10.3 4H0.800049" stroke="#3C3C3C" stroke-width="1.5" stroke-linecap="round"/>
<path id="Ellipse 2913" d="M5.80005 11C5.80005 12.3807 4.68076 13.5 3.30005 13.5C1.91934 13.5 0.800049 12.3807 0.800049 11C0.800049 9.61929 1.91934 8.5 3.30005 8.5C4.68076 8.5 5.80005 9.61929 5.80005 11ZM5.80005 11H15.3" stroke="#3C3C3C" stroke-width="1.5" stroke-linecap="round"/>
</g>
</svg>
