<svg xmlns="http://www.w3.org/2000/svg" width="40" height="40" fill="none" viewBox="0 0 40 40">
    <path fill="#000" fill-rule="evenodd" d="M40 20c0 11.046-8.954 20-20 20S0 31.046 0 20 8.954 0 20 0s20 8.954 20 20zm-10.279-7.256c.454.316.566.939.25 1.392l-3.004 4.32h2.86c.551 0 1 .448 1 1 0 .553-.449 1-1 1h-3.379v1.432h3.378c.552 0 1 .448 1 1 0 .553-.448 1-1 1h-3.378v2.567c0 .553-.447 1-1 1-.552 0-1-.447-1-1v-2.567h-3.404c-.553 0-1-.447-1-1 0-.552.447-1 1-1h3.404v-1.432h-3.323c-.553 0-1-.447-1-1 0-.552.447-1 1-1h2.782L21.07 14.5c-.322-.448-.22-1.073.23-1.395.448-.322 1.073-.22 1.395.23l2.742 3.822 2.893-4.162c.316-.453.939-.565 1.392-.25zm-17.25-.7c.552 0 1 .447 1 1v.665c1.683.438 2.926 1.969 2.926 3.79v.054c0 .552-.448 1-1 1s-1-.448-1-1v-.054c0-1.058-.858-1.916-1.916-1.916h-.108c-.998 0-1.808.81-1.808 1.808 0 .663.537 1.2 1.2 1.2h1.245c1.87 0 3.387 1.516 3.387 3.387 0 1.731-1.268 3.166-2.927 3.427v.473c0 .552-.447 1-1 1-.552 0-1-.448-1-1v-.514c-1.66-.36-2.905-1.837-2.905-3.605h2c0 .932.756 1.688 1.689 1.688h.674c.811 0 1.469-.658 1.469-1.47 0-.765-.62-1.386-1.387-1.386h-1.245c-1.767 0-3.2-1.433-3.2-3.2 0-1.792 1.238-3.295 2.905-3.7v-.648c0-.552.448-1 1-1z" clip-rule="evenodd"/>
</svg>
