<svg width="20" height="21" viewBox="0 0 20 21" fill="none" xmlns="http://www.w3.org/2000/svg">
<path d="M11.6665 8.00033H9.58317C8.89282 8.00033 8.33317 8.55997 8.33317 9.25033C8.33317 9.94068 8.89282 10.5003 9.58317 10.5003H10.4165C11.1069 10.5003 11.6665 11.06 11.6665 11.7503C11.6665 12.4407 11.1069 13.0003 10.4165 13.0003H8.33317M9.99984 7.16699V8.00033M9.99984 13.0003V13.8337M14.9998 10.5003H15.0082M4.99984 10.5003H5.00817M1.6665 7.33366L1.6665 13.667C1.6665 14.6004 1.6665 15.0671 1.84816 15.4236C2.00795 15.7372 2.26292 15.9922 2.57652 16.152C2.93304 16.3337 3.39975 16.3337 4.33317 16.3337L15.6665 16.3337C16.5999 16.3337 17.0666 16.3337 17.4232 16.152C17.7368 15.9922 17.9917 15.7372 18.1515 15.4236C18.3332 15.0671 18.3332 14.6004 18.3332 13.667V7.33366C18.3332 6.40024 18.3332 5.93353 18.1515 5.57701C17.9917 5.26341 17.7368 5.00844 17.4232 4.84865C17.0666 4.66699 16.5999 4.66699 15.6665 4.66699L4.33317 4.66699C3.39975 4.66699 2.93304 4.66699 2.57652 4.84865C2.26292 5.00844 2.00795 5.2634 1.84816 5.57701C1.6665 5.93353 1.6665 6.40024 1.6665 7.33366ZM15.4165 10.5003C15.4165 10.7304 15.23 10.917 14.9998 10.917C14.7697 10.917 14.5832 10.7304 14.5832 10.5003C14.5832 10.2702 14.7697 10.0837 14.9998 10.0837C15.23 10.0837 15.4165 10.2702 15.4165 10.5003ZM5.4165 10.5003C5.4165 10.7304 5.22996 10.917 4.99984 10.917C4.76972 10.917 4.58317 10.7304 4.58317 10.5003C4.58317 10.2702 4.76972 10.0837 4.99984 10.0837C5.22996 10.0837 5.4165 10.2702 5.4165 10.5003Z" stroke="#AEA0B9" stroke-width="1.5" stroke-linecap="round" stroke-linejoin="round"/>
</svg>
