<svg width="20" height="21" viewBox="0 0 20 21" fill="none" xmlns="http://www.w3.org/2000/svg">
<path d="M11.6667 8.00033H9.58342C8.89306 8.00033 8.33342 8.55997 8.33342 9.25033C8.33342 9.94068 8.89306 10.5003 9.58342 10.5003H10.4167C11.1071 10.5003 11.6667 11.06 11.6667 11.7503C11.6667 12.4407 11.1071 13.0003 10.4167 13.0003H8.33342M10.0001 7.16699V8.00033M10.0001 13.0003V13.8337M15.0001 10.5003H15.0084M5.00008 10.5003H5.00842M1.66675 7.33366L1.66675 13.667C1.66675 14.6004 1.66675 15.0671 1.8484 15.4236C2.00819 15.7372 2.26316 15.9922 2.57676 16.152C2.93328 16.3337 3.39999 16.3337 4.33341 16.3337L15.6667 16.3337C16.6002 16.3337 17.0669 16.3337 17.4234 16.152C17.737 15.9922 17.992 15.7372 18.1518 15.4236C18.3334 15.0671 18.3334 14.6004 18.3334 13.667V7.33366C18.3334 6.40024 18.3334 5.93353 18.1518 5.57701C17.992 5.26341 17.737 5.00844 17.4234 4.84865C17.0669 4.66699 16.6002 4.66699 15.6667 4.66699L4.33342 4.66699C3.39999 4.66699 2.93328 4.66699 2.57676 4.84865C2.26316 5.00844 2.00819 5.2634 1.8484 5.57701C1.66675 5.93353 1.66675 6.40024 1.66675 7.33366ZM15.4167 10.5003C15.4167 10.7304 15.2302 10.917 15.0001 10.917C14.77 10.917 14.5834 10.7304 14.5834 10.5003C14.5834 10.2702 14.77 10.0837 15.0001 10.0837C15.2302 10.0837 15.4167 10.2702 15.4167 10.5003ZM5.41675 10.5003C5.41675 10.7304 5.2302 10.917 5.00008 10.917C4.76996 10.917 4.58341 10.7304 4.58341 10.5003C4.58341 10.2702 4.76996 10.0837 5.00008 10.0837C5.2302 10.0837 5.41675 10.2702 5.41675 10.5003Z" stroke="white" stroke-width="1.5" stroke-linecap="round" stroke-linejoin="round"/>
</svg>
