<svg width="286" height="189" viewBox="0 0 286 189" fill="none" xmlns="http://www.w3.org/2000/svg">
<g filter="url(#filter0_f_454_10517)">
<ellipse cx="143" cy="165.5" rx="125" ry="5.5" fill="black" fill-opacity="0.3"/>
</g>
<circle cx="222" cy="79" r="25" fill="#2270C5"/>
<path d="M228.568 82.3224C228.568 79.291 226.501 78.2514 222.366 77.8168C219.413 77.4696 218.823 76.7772 218.823 75.5651C218.823 74.3529 219.808 73.5732 221.776 73.5732C223.548 73.5732 224.533 74.093 225.024 75.3925C225.123 75.6524 225.419 75.825 225.714 75.825H227.29C227.684 75.825 227.979 75.5651 227.979 75.2178V75.1305C227.585 73.2239 225.813 71.7519 223.55 71.5793V69.5001C223.55 69.1529 223.255 68.893 222.763 68.8077H221.287C220.892 68.8077 220.597 69.0676 220.5 69.5001V71.492C217.547 71.8392 215.676 73.5711 215.676 75.7376C215.676 78.5965 217.644 79.7234 221.778 80.1559C224.535 80.5884 225.421 81.1082 225.421 82.495C225.421 83.8818 224.044 84.8341 222.173 84.8341C219.614 84.8341 218.728 83.8818 218.433 82.5823C218.334 82.2351 218.039 82.0625 217.743 82.0625H216.071C215.676 82.0625 215.381 82.3224 215.381 82.6696V82.757C215.775 84.9235 217.349 86.4828 220.597 86.9153V88.9945C220.597 89.3417 220.892 89.6016 221.384 89.6869H222.86C223.255 89.6869 223.55 89.427 223.647 88.9945V86.9153C226.597 86.4808 228.568 84.6615 228.568 82.3224Z" fill="white"/>
<path d="M217.317 91.1474C210.193 88.6566 206.539 80.9195 209.189 74.0724C210.559 70.3372 213.573 67.4921 217.317 66.1581C217.683 65.981 217.865 65.7142 217.865 65.2681V64.0237C217.865 63.6673 217.683 63.4005 217.317 63.313C217.225 63.313 217.043 63.313 216.951 63.4026C208.275 66.0706 203.525 75.0521 206.265 83.5021C207.909 88.4816 211.837 92.3064 216.951 93.9072C217.317 94.0843 217.681 93.9072 217.773 93.5508C217.865 93.4611 217.865 93.3736 217.865 93.1943V91.95C217.865 91.681 217.591 91.3267 217.317 91.1474ZM226.997 63.4005C226.63 63.2233 226.267 63.4005 226.175 63.7569C226.083 63.8466 226.083 63.9341 226.083 64.1134V65.3577C226.083 65.7142 226.357 66.0685 226.63 66.2478C233.754 68.7386 237.408 76.4757 234.758 83.3228C233.388 87.058 230.374 89.9031 226.63 91.2371C226.264 91.4142 226.083 91.681 226.083 92.1271V93.3715C226.083 93.7279 226.264 93.9947 226.63 94.0822C226.723 94.0822 226.904 94.0822 226.997 93.9926C235.672 91.3246 240.422 82.3431 237.682 73.8931C236.038 68.8261 232.02 65.0013 226.997 63.4005Z" fill="white"/>
<circle cx="145" cy="35" r="35" fill="black"/>
<path d="M135.208 41.8613C135.397 41.6714 135.65 41.5646 135.914 41.5646H160.42C160.867 41.5646 161.091 42.1106 160.773 42.4251L155.931 47.3034C155.742 47.4933 155.489 47.6001 155.225 47.6001H130.725C130.278 47.6001 130.054 47.0541 130.372 46.7396L135.208 41.8613Z" fill="url(#paint0_linear_454_10517)"/>
<path d="M135.208 23.6301C135.397 23.4402 135.65 23.3334 135.914 23.3334H160.42C160.867 23.3334 161.091 23.8794 160.773 24.1939L155.931 29.0722C155.742 29.2621 155.489 29.3689 155.225 29.3689H130.725C130.278 29.3689 130.054 28.8229 130.372 28.5084L135.208 23.6301Z" fill="url(#paint1_linear_454_10517)"/>
<path d="M155.931 32.6869C155.742 32.497 155.489 32.3901 155.225 32.3901H130.725C130.278 32.3901 130.054 32.9361 130.372 33.2507L135.214 38.1289C135.402 38.3189 135.655 38.4257 135.92 38.4257H160.426C160.873 38.4257 161.097 37.8797 160.779 37.5652L155.931 32.6869Z" fill="url(#paint2_linear_454_10517)"/>
<path d="M39.1527 85.48V83.4H44.6527V85.48H39.1527ZM52.5657 90.2C51.459 90.2 50.459 89.92 49.5657 89.36C48.6857 88.8 47.9924 87.9867 47.4857 86.92C46.979 85.84 46.7257 84.5333 46.7257 83C46.7257 81.4667 46.979 80.1667 47.4857 79.1C47.9924 78.02 48.6857 77.2 49.5657 76.64C50.459 76.08 51.459 75.8 52.5657 75.8C53.6857 75.8 54.6857 76.08 55.5657 76.64C56.4457 77.2 57.139 78.02 57.6457 79.1C58.1657 80.1667 58.4257 81.4667 58.4257 83C58.4257 84.5333 58.1657 85.84 57.6457 86.92C57.139 87.9867 56.4457 88.8 55.5657 89.36C54.6857 89.92 53.6857 90.2 52.5657 90.2ZM52.5657 87.94C53.219 87.94 53.7857 87.7667 54.2657 87.42C54.7457 87.06 55.119 86.5133 55.3857 85.78C55.6657 85.0467 55.8057 84.12 55.8057 83C55.8057 81.8667 55.6657 80.94 55.3857 80.22C55.119 79.4867 54.7457 78.9467 54.2657 78.6C53.7857 78.24 53.219 78.06 52.5657 78.06C51.939 78.06 51.379 78.24 50.8857 78.6C50.4057 78.9467 50.0257 79.4867 49.7457 80.22C49.479 80.94 49.3457 81.8667 49.3457 83C49.3457 84.12 49.479 85.0467 49.7457 85.78C50.0257 86.5133 50.4057 87.06 50.8857 87.42C51.379 87.7667 51.939 87.94 52.5657 87.94ZM61.5084 90.14C61.055 90.14 60.6684 89.9867 60.3484 89.68C60.0284 89.36 59.8684 88.96 59.8684 88.48C59.8684 87.9733 60.0284 87.5733 60.3484 87.28C60.6684 86.9733 61.055 86.82 61.5084 86.82C61.9617 86.82 62.3484 86.9733 62.6684 87.28C62.9884 87.5733 63.1484 87.9733 63.1484 88.48C63.1484 88.96 62.9884 89.36 62.6684 89.68C62.3484 89.9867 61.9617 90.14 61.5084 90.14ZM70.4368 90.2C69.3301 90.2 68.3301 89.92 67.4368 89.36C66.5568 88.8 65.8635 87.9867 65.3568 86.92C64.8501 85.84 64.5968 84.5333 64.5968 83C64.5968 81.4667 64.8501 80.1667 65.3568 79.1C65.8635 78.02 66.5568 77.2 67.4368 76.64C68.3301 76.08 69.3301 75.8 70.4368 75.8C71.5568 75.8 72.5568 76.08 73.4368 76.64C74.3168 77.2 75.0101 78.02 75.5168 79.1C76.0368 80.1667 76.2968 81.4667 76.2968 83C76.2968 84.5333 76.0368 85.84 75.5168 86.92C75.0101 87.9867 74.3168 88.8 73.4368 89.36C72.5568 89.92 71.5568 90.2 70.4368 90.2ZM70.4368 87.94C71.0901 87.94 71.6568 87.7667 72.1368 87.42C72.6168 87.06 72.9901 86.5133 73.2568 85.78C73.5368 85.0467 73.6768 84.12 73.6768 83C73.6768 81.8667 73.5368 80.94 73.2568 80.22C72.9901 79.4867 72.6168 78.9467 72.1368 78.6C71.6568 78.24 71.0901 78.06 70.4368 78.06C69.8101 78.06 69.2501 78.24 68.7568 78.6C68.2768 78.9467 67.8968 79.4867 67.6168 80.22C67.3501 80.94 67.2168 81.8667 67.2168 83C67.2168 84.12 67.3501 85.0467 67.6168 85.78C67.8968 86.5133 68.2768 87.06 68.7568 87.42C69.2501 87.7667 69.8101 87.94 70.4368 87.94ZM80.2743 90V77L81.4143 78.18H77.3143V76H82.8743V90H80.2743ZM85.4515 86.82V85.02L92.3515 76H95.1315L88.3315 85.02L87.0315 84.62H98.1315V86.82H85.4515ZM93.1315 90V86.82L93.2115 84.62V81.8H95.6515V90H93.1315ZM100.58 90L110.14 76H112.1L102.54 90H100.58ZM101.74 83.54C101.087 83.54 100.507 83.38 100 83.06C99.4936 82.74 99.1002 82.2933 98.8202 81.72C98.5402 81.1467 98.4002 80.4733 98.4002 79.7C98.4002 78.9267 98.5402 78.2533 98.8202 77.68C99.1002 77.1067 99.4936 76.66 100 76.34C100.507 76.02 101.087 75.86 101.74 75.86C102.42 75.86 103.007 76.02 103.5 76.34C104.007 76.66 104.4 77.1067 104.68 77.68C104.96 78.2533 105.1 78.9267 105.1 79.7C105.1 80.4733 104.96 81.1467 104.68 81.72C104.4 82.2933 104.007 82.74 103.5 83.06C103.007 83.38 102.42 83.54 101.74 83.54ZM101.76 82.14C102.294 82.14 102.707 81.9333 103 81.52C103.307 81.0933 103.46 80.4867 103.46 79.7C103.46 78.9133 103.307 78.3133 103 77.9C102.707 77.4733 102.294 77.26 101.76 77.26C101.227 77.26 100.8 77.4733 100.48 77.9C100.174 78.3267 100.02 78.9267 100.02 79.7C100.02 80.4733 100.174 81.0733 100.48 81.5C100.8 81.9267 101.227 82.14 101.76 82.14ZM110.92 90.14C110.267 90.14 109.687 89.98 109.18 89.66C108.674 89.34 108.28 88.8933 108 88.32C107.72 87.7467 107.58 87.0733 107.58 86.3C107.58 85.5267 107.72 84.8533 108 84.28C108.28 83.7067 108.674 83.26 109.18 82.94C109.687 82.62 110.267 82.46 110.92 82.46C111.6 82.46 112.187 82.62 112.68 82.94C113.187 83.26 113.58 83.7067 113.86 84.28C114.14 84.8533 114.28 85.5267 114.28 86.3C114.28 87.0733 114.14 87.7467 113.86 88.32C113.58 88.8933 113.187 89.34 112.68 89.66C112.187 89.98 111.6 90.14 110.92 90.14ZM110.92 88.74C111.454 88.74 111.874 88.5267 112.18 88.1C112.487 87.6733 112.64 87.0733 112.64 86.3C112.64 85.5267 112.487 84.9267 112.18 84.5C111.874 84.0733 111.454 83.86 110.92 83.86C110.4 83.86 109.98 84.0733 109.66 84.5C109.354 84.9133 109.2 85.5133 109.2 86.3C109.2 87.0867 109.354 87.6933 109.66 88.12C109.98 88.5333 110.4 88.74 110.92 88.74Z" fill="#F35355"/>
<path d="M120.07 128.5V119.5H122.21V128.5H120.07ZM116.53 125V123H125.75V125H116.53ZM133.845 131.2C132.738 131.2 131.738 130.92 130.845 130.36C129.965 129.8 129.272 128.987 128.765 127.92C128.258 126.84 128.005 125.533 128.005 124C128.005 122.467 128.258 121.167 128.765 120.1C129.272 119.02 129.965 118.2 130.845 117.64C131.738 117.08 132.738 116.8 133.845 116.8C134.965 116.8 135.965 117.08 136.845 117.64C137.725 118.2 138.418 119.02 138.925 120.1C139.445 121.167 139.705 122.467 139.705 124C139.705 125.533 139.445 126.84 138.925 127.92C138.418 128.987 137.725 129.8 136.845 130.36C135.965 130.92 134.965 131.2 133.845 131.2ZM133.845 128.94C134.498 128.94 135.065 128.767 135.545 128.42C136.025 128.06 136.398 127.513 136.665 126.78C136.945 126.047 137.085 125.12 137.085 124C137.085 122.867 136.945 121.94 136.665 121.22C136.398 120.487 136.025 119.947 135.545 119.6C135.065 119.24 134.498 119.06 133.845 119.06C133.218 119.06 132.658 119.24 132.165 119.6C131.685 119.947 131.305 120.487 131.025 121.22C130.758 121.94 130.625 122.867 130.625 124C130.625 125.12 130.758 126.047 131.025 126.78C131.305 127.513 131.685 128.06 132.165 128.42C132.658 128.767 133.218 128.94 133.845 128.94ZM142.788 131.14C142.334 131.14 141.948 130.987 141.628 130.68C141.308 130.36 141.148 129.96 141.148 129.48C141.148 128.973 141.308 128.573 141.628 128.28C141.948 127.973 142.334 127.82 142.788 127.82C143.241 127.82 143.628 127.973 143.948 128.28C144.268 128.573 144.428 128.973 144.428 129.48C144.428 129.96 144.268 130.36 143.948 130.68C143.628 130.987 143.241 131.14 142.788 131.14ZM145.832 127.82V126.02L152.732 117H155.512L148.712 126.02L147.412 125.62H158.512V127.82H145.832ZM153.512 131V127.82L153.592 125.62V122.8H156.032V131H153.512ZM159.427 131V129.26L164.987 123.98C165.453 123.54 165.8 123.153 166.027 122.82C166.253 122.487 166.4 122.18 166.467 121.9C166.547 121.607 166.587 121.333 166.587 121.08C166.587 120.44 166.367 119.947 165.927 119.6C165.487 119.24 164.84 119.06 163.987 119.06C163.307 119.06 162.687 119.18 162.127 119.42C161.58 119.66 161.107 120.027 160.707 120.52L158.887 119.12C159.433 118.387 160.167 117.82 161.087 117.42C162.02 117.007 163.06 116.8 164.207 116.8C165.22 116.8 166.1 116.967 166.847 117.3C167.607 117.62 168.187 118.08 168.587 118.68C169 119.28 169.207 119.993 169.207 120.82C169.207 121.273 169.147 121.727 169.027 122.18C168.907 122.62 168.68 123.087 168.347 123.58C168.013 124.073 167.527 124.627 166.887 125.24L162.107 129.78L161.567 128.8H169.747V131H159.427ZM173.403 131L182.963 117H184.923L175.363 131H173.403ZM174.563 124.54C173.909 124.54 173.329 124.38 172.823 124.06C172.316 123.74 171.923 123.293 171.643 122.72C171.363 122.147 171.222 121.473 171.222 120.7C171.222 119.927 171.363 119.253 171.643 118.68C171.923 118.107 172.316 117.66 172.823 117.34C173.329 117.02 173.909 116.86 174.563 116.86C175.243 116.86 175.829 117.02 176.323 117.34C176.829 117.66 177.223 118.107 177.503 118.68C177.783 119.253 177.923 119.927 177.923 120.7C177.923 121.473 177.783 122.147 177.503 122.72C177.223 123.293 176.829 123.74 176.323 124.06C175.829 124.38 175.243 124.54 174.563 124.54ZM174.583 123.14C175.116 123.14 175.529 122.933 175.823 122.52C176.129 122.093 176.283 121.487 176.283 120.7C176.283 119.913 176.129 119.313 175.823 118.9C175.529 118.473 175.116 118.26 174.583 118.26C174.049 118.26 173.623 118.473 173.303 118.9C172.996 119.327 172.843 119.927 172.843 120.7C172.843 121.473 172.996 122.073 173.303 122.5C173.623 122.927 174.049 123.14 174.583 123.14ZM183.743 131.14C183.089 131.14 182.509 130.98 182.003 130.66C181.496 130.34 181.103 129.893 180.823 129.32C180.543 128.747 180.403 128.073 180.403 127.3C180.403 126.527 180.543 125.853 180.823 125.28C181.103 124.707 181.496 124.26 182.003 123.94C182.509 123.62 183.089 123.46 183.743 123.46C184.423 123.46 185.009 123.62 185.503 123.94C186.009 124.26 186.403 124.707 186.683 125.28C186.963 125.853 187.103 126.527 187.103 127.3C187.103 128.073 186.963 128.747 186.683 129.32C186.403 129.893 186.009 130.34 185.503 130.66C185.009 130.98 184.423 131.14 183.743 131.14ZM183.743 129.74C184.276 129.74 184.696 129.527 185.003 129.1C185.309 128.673 185.463 128.073 185.463 127.3C185.463 126.527 185.309 125.927 185.003 125.5C184.696 125.073 184.276 124.86 183.743 124.86C183.223 124.86 182.803 125.073 182.483 125.5C182.176 125.913 182.023 126.513 182.023 127.3C182.023 128.087 182.176 128.693 182.483 129.12C182.803 129.533 183.223 129.74 183.743 129.74Z" fill="#80CE00"/>
<defs>
<filter id="filter0_f_454_10517" x="0.343739" y="142.344" width="285.313" height="46.3125" filterUnits="userSpaceOnUse" color-interpolation-filters="sRGB">
<feFlood flood-opacity="0" result="BackgroundImageFix"/>
<feBlend mode="normal" in="SourceGraphic" in2="BackgroundImageFix" result="shape"/>
<feGaussianBlur stdDeviation="8.82813" result="effect1_foregroundBlur_454_10517"/>
</filter>
<linearGradient id="paint0_linear_454_10517" x1="158.08" y1="20.4184" x2="140.891" y2="53.0601" gradientUnits="userSpaceOnUse">
<stop stop-color="#00FFA3"/>
<stop offset="1" stop-color="#DC1FFF"/>
</linearGradient>
<linearGradient id="paint1_linear_454_10517" x1="150.665" y1="16.5136" x2="133.476" y2="49.1553" gradientUnits="userSpaceOnUse">
<stop stop-color="#00FFA3"/>
<stop offset="1" stop-color="#DC1FFF"/>
</linearGradient>
<linearGradient id="paint2_linear_454_10517" x1="154.349" y1="18.4541" x2="137.16" y2="51.0958" gradientUnits="userSpaceOnUse">
<stop stop-color="#00FFA3"/>
<stop offset="1" stop-color="#DC1FFF"/>
</linearGradient>
</defs>
</svg>
