<svg width="20" height="21" viewBox="0 0 20 21" fill="none" xmlns="http://www.w3.org/2000/svg">
<path d="M11.667 8.00033H9.58366C8.8933 8.00033 8.33366 8.55997 8.33366 9.25033C8.33366 9.94068 8.8933 10.5003 9.58366 10.5003H10.417C11.1073 10.5003 11.667 11.06 11.667 11.7503C11.667 12.4407 11.1073 13.0003 10.417 13.0003H8.33366M10.0003 7.16699V8.00033M10.0003 13.0003V13.8337M15.0003 10.5003H15.0087M5.00033 10.5003H5.00866M1.66699 7.33366L1.66699 13.667C1.66699 14.6004 1.66699 15.0671 1.84865 15.4236C2.00844 15.7372 2.2634 15.9922 2.57701 16.152C2.93353 16.3337 3.40024 16.3337 4.33366 16.3337L15.667 16.3337C16.6004 16.3337 17.0671 16.3337 17.4236 16.152C17.7372 15.9922 17.9922 15.7372 18.152 15.4236C18.3337 15.0671 18.3337 14.6004 18.3337 13.667V7.33366C18.3337 6.40024 18.3337 5.93353 18.152 5.57701C17.9922 5.26341 17.7372 5.00844 17.4236 4.84865C17.0671 4.66699 16.6004 4.66699 15.667 4.66699L4.33366 4.66699C3.40024 4.66699 2.93353 4.66699 2.57701 4.84865C2.2634 5.00844 2.00844 5.2634 1.84865 5.57701C1.66699 5.93353 1.66699 6.40024 1.66699 7.33366ZM15.417 10.5003C15.417 10.7304 15.2304 10.917 15.0003 10.917C14.7702 10.917 14.5837 10.7304 14.5837 10.5003C14.5837 10.2702 14.7702 10.0837 15.0003 10.0837C15.2304 10.0837 15.417 10.2702 15.417 10.5003ZM5.41699 10.5003C5.41699 10.7304 5.23044 10.917 5.00033 10.917C4.77021 10.917 4.58366 10.7304 4.58366 10.5003C4.58366 10.2702 4.77021 10.0837 5.00033 10.0837C5.23044 10.0837 5.41699 10.2702 5.41699 10.5003Z" stroke="#636363" stroke-width="1.5" stroke-linecap="round" stroke-linejoin="round"/>
</svg>
