<svg width="32" height="32" viewBox="0 0 32 32" fill="none" xmlns="http://www.w3.org/2000/svg">
<rect width="32" height="32" fill="#131313"/>
<path fill-rule="evenodd" clip-rule="evenodd" d="M18.1589 9.65493C18.6402 9.7291 18.9803 9.82677 19.1791 9.94793C19.3779 10.0691 19.5892 10.3074 19.8129 10.6629C19.6923 10.7628 19.5872 10.8206 19.4978 10.8363C19.4083 10.852 19.26 10.8387 19.0527 10.7964L18.8055 10.6846C18.5673 10.5769 18.2863 10.6795 18.1745 10.9152C18.0779 11.119 18.1655 11.3621 18.37 11.4583C18.3874 11.4665 18.4054 11.4735 18.4238 11.4791L18.7535 11.5808C18.8466 11.6541 18.8879 11.757 18.8773 11.8896C18.8667 12.0222 18.805 12.151 18.6921 12.2762L18.8708 12.7643C18.6554 12.8117 18.3966 12.8257 18.0943 12.8062C17.6409 12.777 17.4192 12.6393 17.4155 12.6185C17.4136 12.6075 17.2663 12.5261 16.9736 12.3742C16.6722 12.2963 16.356 12.2548 16.0302 12.2548C13.9583 12.2548 12.2787 13.9307 12.2787 15.998C12.2787 18.0653 13.9583 19.7412 16.0302 19.7412C17.4205 19.7412 18.6341 18.9865 19.2822 17.8654L17.7265 17.8654C17.4495 17.8654 17.2057 17.6836 17.1276 17.4189L16.7171 16.0284C16.6977 15.9625 16.7355 15.8934 16.8017 15.874C16.8131 15.8707 16.825 15.869 16.8369 15.869H21.8016C21.9479 15.869 22.0771 15.9642 22.12 16.1035C22.1881 16.3252 22.2222 16.5639 22.2222 16.8196C22.2222 17.1072 22.1655 17.3947 22.052 17.6823C21.3155 20.3096 18.8984 22.2366 16.0302 22.2366C12.5771 22.2366 9.77777 19.4435 9.77777 15.998C9.77777 13.1984 11.6386 10.8202 14.1839 10.0304C14.5269 9.92394 15.0467 9.77717 15.5646 9.69414C15.486 9.70765 15.6435 9.6814 15.5646 9.69414C15.9764 9.62338 17.044 9.57691 18.1589 9.65493ZM19.9893 10.8832C20.1637 11.0189 20.2762 11.1334 20.3266 11.2265C20.3754 11.3166 20.423 11.4694 20.4694 11.6851L20.4742 11.7076L21.6973 12.808C21.7378 12.8444 21.7651 12.8929 21.7753 12.946L21.7772 12.9574L21.7967 13.0936C21.8018 13.129 21.7823 13.163 21.7498 13.1768L21.7436 13.1792L21.6812 13.1999L21.6443 13.1951C20.4338 13.0346 19.697 12.8981 19.4337 12.7854C19.1836 12.6784 19.1441 12.4277 19.3152 12.0333C19.3357 11.9861 19.3378 11.933 19.3212 11.8845L19.3174 11.8742L19.1998 11.5813C19.1908 11.559 19.178 11.5384 19.1621 11.5205L19.1538 11.5118L18.9044 11.2632C18.8298 11.2481 18.7474 11.2715 18.6728 11.2565C18.6556 11.253 18.6152 11.2398 18.5516 11.217C18.5474 11.2155 18.5432 11.2137 18.5391 11.2118C18.4667 11.1779 18.4356 11.0919 18.4696 11.0198C18.5097 10.9349 18.6025 10.8879 18.695 10.9058C18.7657 10.9194 18.8166 10.9314 18.8475 10.9416C18.898 10.9583 18.9658 10.9938 19.0507 11.048C19.3053 11.098 19.4922 11.1126 19.6114 11.0916C19.7306 11.0707 19.8566 11.0012 19.9893 10.8832Z" fill="url(#paint0_linear_16436_978)"/>
<defs>
<linearGradient id="paint0_linear_16436_978" x1="11.506" y1="12.0956" x2="20.009" y2="20.5499" gradientUnits="userSpaceOnUse">
<stop stop-color="#5855FF"/>
<stop offset="1" stop-color="#DC1FFF"/>
</linearGradient>
</defs>
</svg>
