<svg width="32" height="32" viewBox="0 0 32 32" fill="none" xmlns="http://www.w3.org/2000/svg">
<rect width="32" height="32" rx="16" fill="#131313"/>
<path fill-rule="evenodd" clip-rule="evenodd" d="M19.1767 6.63833C19.8849 6.74906 20.3853 6.89488 20.6778 7.07577C20.9704 7.25666 21.2813 7.61247 21.6104 8.14321C21.4329 8.29233 21.2783 8.37862 21.1467 8.40207C21.0151 8.42552 20.7968 8.40568 20.4918 8.34254L20.1282 8.17564C19.7776 8.01473 19.3641 8.16804 19.1997 8.51991C19.0575 8.8241 19.1864 9.18713 19.4874 9.33075C19.513 9.34297 19.5394 9.35334 19.5664 9.3618L20.0516 9.51362C20.1886 9.62304 20.2493 9.7767 20.2338 9.9746C20.2182 10.1725 20.1274 10.3649 19.9613 10.5518L20.2241 11.2804C19.9072 11.3512 19.5264 11.3721 19.0816 11.343C18.4145 11.2994 18.0883 11.0938 18.0828 11.0628C18.08 11.0464 17.8632 10.9248 17.4326 10.6981C16.9891 10.5817 16.5239 10.5199 16.0445 10.5199C12.9958 10.5199 10.5245 13.0219 10.5245 16.1082C10.5245 19.1946 12.9958 21.6966 16.0445 21.6966C18.0902 21.6966 19.876 20.57 20.8295 18.8962L18.5405 18.8961C18.1329 18.8961 17.7741 18.6248 17.6591 18.2297L17.0552 16.1537C17.0266 16.0553 17.0823 15.9521 17.1797 15.9232C17.1965 15.9182 17.2139 15.9157 17.2315 15.9157H24.5367C24.752 15.9157 24.9421 16.0577 25.0051 16.2658C25.1054 16.5967 25.1556 16.9531 25.1556 17.3349C25.1556 17.7642 25.0721 18.1935 24.9051 18.6228C23.8214 22.5453 20.2648 25.4222 16.0445 25.4222C10.9634 25.4222 6.84445 21.2522 6.84445 16.1082C6.84445 11.9286 9.58258 8.37799 13.3278 7.19884C13.8325 7.03995 14.5973 6.82082 15.3593 6.69687C15.2436 6.71704 15.4755 6.67785 15.3593 6.69687C15.9653 6.59122 17.5362 6.52185 19.1767 6.63833ZM21.87 8.47205C22.1267 8.67475 22.2921 8.84562 22.3663 8.98466C22.4381 9.11906 22.5081 9.34728 22.5764 9.6693L22.5834 9.70295L24.3832 11.3457C24.4427 11.4 24.4829 11.4724 24.4979 11.5517L24.5007 11.5688L24.5295 11.7721C24.5369 11.8249 24.5082 11.8757 24.4605 11.8964L24.4513 11.8999L24.3594 11.9309L24.3052 11.9236C22.5241 11.6841 21.4398 11.4802 21.0524 11.312C20.6845 11.1523 20.6264 10.778 20.8781 10.1892C20.9083 10.1186 20.9113 10.0394 20.887 9.96696L20.8813 9.95155L20.7083 9.51429C20.6951 9.48098 20.6763 9.45029 20.6528 9.42356L20.6406 9.41052L20.2737 9.03934C20.1639 9.01686 20.0426 9.05183 19.9329 9.02935C19.9076 9.02418 19.8482 9.00453 19.7545 8.9704C19.7483 8.96813 19.7421 8.96556 19.7361 8.96271C19.6296 8.91208 19.5838 8.78374 19.6339 8.67604C19.6928 8.54927 19.8295 8.47915 19.9655 8.50579C20.0696 8.52616 20.1444 8.54399 20.1899 8.55929C20.2643 8.58427 20.3639 8.63722 20.4889 8.71815C20.8636 8.7928 21.1386 8.81451 21.314 8.78326C21.4894 8.75201 21.6747 8.64827 21.87 8.47205Z" fill="url(#paint0_linear_16438_55)"/>
<defs>
<linearGradient id="paint0_linear_16438_55" x1="9.38748" y1="10.2821" x2="22.0796" y2="22.7197" gradientUnits="userSpaceOnUse">
<stop stop-color="#5855FF"/>
<stop offset="1" stop-color="#DC1FFF"/>
</linearGradient>
</defs>
</svg>
