<svg width="18" height="13" viewBox="0 0 18 13" fill="none" xmlns="http://www.w3.org/2000/svg">
    <path fill-rule="evenodd" clip-rule="evenodd" d="M4.063 0h9.604A4.333 4.333 0 0 1 18 4.333v6.417a2.25 2.25 0 0 1-4.5 0V7.935a.507.507 0 0 0-.507-.506H4.964a.464.464 0 0 0-.464.464v2.857a2.25 2.25 0 0 1-4.5 0V4.062A4.062 4.062 0 0 1 4.063 0zm10.78 2.708a.5.5 0 0 0-1 0v.855h-.905a.5.5 0 0 0 0 1h.906v.854a.5.5 0 1 0 1 0v-.854h.906a.5.5 0 0 0 0-1h-.906v-.855zM3.939 5.417c.931 0 1.687-.728 1.687-1.625 0-.898-.756-1.625-1.688-1.625-.931 0-1.687.727-1.687 1.625 0 .897.756 1.625 1.688 1.625z" fill="#fff"/>
</svg>
