<svg width="55" height="38" viewBox="0 0 55 38" fill="none" xmlns="http://www.w3.org/2000/svg">
<path opacity="0.6" d="M54.8997 37.9159C50.1397 24.4089 35.7109 16.26 21.1537 19.428C16.313 20.48 11.8275 22.7315 8.12447 25.9678C4.42149 29.2042 1.62448 33.3175 0 37.9159H54.8997Z" fill="url(#paint0_linear_397_12088)"/>
<path d="M25.5539 36.1918C25.8842 36.2362 26.1739 36.4345 26.3349 36.7263L26.7143 37.4141C26.7609 37.4985 26.7358 37.6045 26.6562 37.6589C26.5044 37.7629 26.578 38.0005 26.762 38.0005H28.8522C28.9972 38.0005 29.1268 37.9102 29.177 37.7743C29.2046 37.6997 29.2056 37.6178 29.1799 37.5425L29.0653 37.2064C28.903 36.7307 28.4892 36.385 27.9923 36.3101L27.9513 36.3039C27.6483 36.2581 27.3683 36.1152 27.1535 35.8965L26.9575 35.6969C26.6428 35.3765 26.2395 35.1575 25.7994 35.0681L23.7563 34.6529C23.6062 34.6225 23.4514 34.6748 23.3506 34.79C23.1935 34.9696 23.2144 35.2433 23.3971 35.3968L23.8795 35.8026C24.0312 35.9301 24.2161 36.0119 24.4125 36.0383L25.5539 36.1918Z" fill="white"/>
<path d="M9.73628 37.0574C10.2736 37.0267 10.8057 37.1773 11.2473 37.485C11.6504 37.7659 12.13 37.9165 12.6213 37.9165H23.955C24.3152 37.9165 24.5923 37.5984 24.5431 37.2416L24.5192 37.0688C24.4816 36.7969 24.2094 36.6234 23.9471 36.7041C23.8063 36.7475 23.6532 36.7184 23.5381 36.6264L23.3059 36.4408C23.1811 36.341 23.0818 36.2129 23.0162 36.0672L22.777 35.5355C22.7245 35.4189 22.6046 35.3477 22.4771 35.3573C22.3219 35.3691 22.2008 35.4963 22.1965 35.6518L22.1814 36.1985C22.1765 36.3784 22.066 36.5385 21.8996 36.607C21.6631 36.7044 21.3928 36.5879 21.3011 36.3491L20.8108 35.0718C20.6826 34.738 20.4135 34.478 20.0755 34.3615C20.0186 34.3419 19.9604 34.3266 19.9012 34.3157L19.2455 34.1944C19.0626 34.1606 18.874 34.2078 18.7286 34.3238C18.3771 34.6041 18.4153 35.1498 18.8026 35.3783L19.5309 35.8081C19.596 35.8465 19.6485 35.9031 19.6819 35.971C19.8418 36.2963 19.5077 36.6438 19.1763 36.4966L17.4157 35.7144C17.3567 35.6882 17.3 35.6567 17.2466 35.6204L15.7583 34.61C15.4231 34.3825 15.1757 34.0472 15.057 33.6598L15.0301 33.5721C14.8324 32.9267 14.2602 32.4679 13.5873 32.4153C13.1086 32.3778 12.6376 32.5516 12.2979 32.891L11.6801 33.5083C11.3978 33.7737 11.1009 34.0237 10.7908 34.2573C10.6192 34.3721 10.1531 34.5511 9.77529 34.6866C9.45289 34.8023 9.23125 35.1036 9.22697 35.4461C9.22247 35.8063 8.97819 36.1192 8.62986 36.211L8.1439 36.3392C7.90295 36.4027 7.7747 36.6654 7.87288 36.8945C7.94053 37.0523 8.09975 37.1509 8.27119 37.1411L9.73628 37.0574Z" fill="white"/>
<path d="M48.3075 34.6073C48.4144 34.1058 48.2693 33.5837 47.919 33.2093L47.4547 32.7129L46.3875 31.6644C46.253 31.5323 46.1491 31.3724 46.0828 31.1959L45.7091 30.2004C45.5864 29.8736 45.8167 29.5218 46.1653 29.5035L46.3707 29.4928C46.5584 29.4829 46.6985 29.3161 46.6756 29.1295L46.6584 28.9885C46.646 28.8873 46.5536 28.8156 46.4525 28.8288C46.2647 28.8534 46.1673 28.6119 46.3196 28.4993L46.4154 28.4286L46.8015 28.0778C46.9971 27.9001 47.0816 27.6307 47.0226 27.3732C46.9872 27.2185 46.9024 27.0795 46.7811 26.9773L46.3892 26.6469C46.0831 26.3889 45.8509 26.0544 45.7162 25.6774L45.6846 25.5891C45.5165 25.1188 45.2189 24.7039 44.8158 24.409C39.9542 20.8528 34.0754 18.8734 28.0008 18.759C22.0802 18.6474 16.2763 20.3131 11.3594 23.5183C10.9136 23.8088 10.9881 24.4712 11.4802 24.6737C11.8403 24.8219 12.0013 25.2427 11.8321 25.5935L11.6437 25.984C11.5321 26.2153 11.342 26.3996 11.1074 26.504L11.0742 26.5188C10.5882 26.7351 10.306 27.2489 10.3842 27.7752L10.4586 28.2756C10.4968 28.5324 10.3806 28.7877 10.1619 28.9277C10.0738 28.9841 10.0004 29.0607 9.94768 29.1512L9.72891 29.5269C9.59521 29.7565 9.56145 30.0309 9.63551 30.2861L9.73355 30.6239C9.80721 30.8778 10.0515 31.0429 10.3145 31.0166L10.4515 31.0029C10.744 30.9737 10.9836 31.2319 10.9327 31.5215C10.878 31.8322 11.1559 32.0991 11.4642 32.0321L11.6811 31.9849C11.8585 31.9462 12.0085 31.8285 12.088 31.6652L13.2437 29.2928C13.3205 29.1351 13.3577 28.961 13.3519 28.7856C13.3356 28.2943 13.6541 27.8544 14.1259 27.7164L14.7189 27.5429C15.0068 27.4587 15.2345 27.2378 15.3275 26.9526C15.4171 26.6777 15.6323 26.4619 15.9069 26.3714L16.8357 26.0655C17.1544 25.9605 17.3643 25.6563 17.3493 25.321C17.3336 24.9702 17.5639 24.6555 17.9032 24.5646L18.4183 24.4264C18.6177 24.373 18.8024 24.2762 18.9631 24.1466C19.242 23.9217 19.6791 23.5823 19.8127 23.5527C19.9269 23.5273 20.3041 23.557 20.609 23.5874C20.8893 23.6154 21.1611 23.6965 21.4149 23.8187L21.5013 23.8603C21.9676 24.0848 22.4958 24.1465 23.0013 24.0354C23.4119 23.9453 23.7901 23.7449 24.0954 23.456L24.1113 23.4409C24.4784 23.0935 24.946 22.8712 25.4472 22.806L25.5659 22.7905C26.0179 22.7317 26.4793 22.8489 26.9341 22.8196C26.9739 22.8171 27.013 22.8119 27.0504 22.8037C27.9414 22.6059 28.8089 22.2256 29.672 22.5224L30.5129 22.8115L31.1158 23.0792C31.3297 23.1742 31.4863 23.3643 31.5386 23.5923L31.552 23.6508C31.6271 23.9781 31.9316 24.2002 32.2662 24.1718L32.4262 24.1583C32.6049 24.1431 32.7563 24.0204 32.8082 23.8487C32.8741 23.6309 33.0958 23.4998 33.3184 23.5471L33.6128 23.6098C33.7779 23.6449 33.9011 23.783 33.9172 23.9509C33.9324 24.1088 33.8497 24.2599 33.7086 24.3321L33.3588 24.5112C32.7389 24.8286 32.6491 25.6782 33.1891 26.1182L33.3489 26.2484C33.4629 26.3413 33.5944 26.4104 33.7356 26.4516L35.7101 27.0272C36.0621 27.1298 36.3888 27.3047 36.6695 27.5407L37.0964 27.8998C37.3873 28.1444 37.7672 28.2564 38.1443 28.2088L38.6161 28.1492C38.8864 28.115 39.1083 27.9192 39.1758 27.6553L39.2263 27.4578C39.2423 27.3952 39.2849 27.3428 39.3429 27.3143C39.5099 27.2321 39.5067 26.9929 39.3375 26.9152L37.7672 26.1941C37.7317 26.1778 37.6926 26.1712 37.6537 26.1748L37.3224 26.2055C37.1585 26.2207 37.0903 26.0011 37.234 25.9208C37.3255 25.8698 37.3393 25.7438 37.2611 25.6742L36.9595 25.4054C36.6999 25.1739 36.7988 24.7469 37.1338 24.6533L37.3384 24.5961C37.4369 24.5686 37.5411 24.5687 37.6395 24.5966L38.1179 24.732C38.7723 24.9173 39.3128 25.3801 39.5967 25.9981C39.7589 26.3513 40.0072 26.6583 40.3187 26.8908L40.363 26.9239C40.6373 27.1287 40.8674 27.3867 41.0396 27.6825L41.4482 28.3847C41.6883 28.7973 42.0552 29.1215 42.4943 29.309L42.5425 29.3296C43.1679 29.5966 43.6268 30.1479 43.776 30.8113L43.8322 31.0616C43.9546 31.6061 44.3448 32.0513 44.8686 32.2441L45.101 32.3297C45.5322 32.4884 45.8397 32.8734 45.8991 33.3291C45.8939 33.9193 46.0543 34.4992 46.362 35.0028L46.5643 35.334L46.5956 35.3995C46.74 35.7023 47.0514 35.8894 47.3865 35.875C47.7626 35.8587 48.0815 35.5932 48.1656 35.2262L48.3075 34.6073Z" fill="white"/>
<path d="M47.9569 29.082C48.0565 29.2844 48.2513 29.4231 48.4751 29.451L48.5393 29.459C48.7783 29.4887 48.9736 29.6638 49.0292 29.8981L49.1198 30.2799C49.1719 30.4998 48.9832 30.7018 48.7603 30.6647C48.5451 30.6288 48.3591 30.8166 48.3971 31.0315L48.8568 33.632C48.917 33.9727 48.8954 34.3227 48.7938 34.6534L48.7727 34.722C48.5702 35.3808 48.6509 36.0942 48.9955 36.6911L49.1865 37.0221C49.3526 37.3099 49.5949 37.5463 49.8866 37.7054C50.1521 37.8501 50.4496 37.926 50.752 37.926H55.0001C53.5444 33.9312 51.3108 30.2998 48.154 27.3039C48.0343 27.1902 47.8374 27.25 47.7991 27.4106C47.7967 27.4205 47.795 27.4307 47.7941 27.4409L47.7226 28.2164C47.7028 28.431 47.7427 28.6468 47.8379 28.8402L47.9569 29.082Z" fill="white"/>
<path d="M32.5452 30.2835C32.3232 30.0575 32.0378 29.9041 31.7268 29.8436L27.8175 29.0838C27.4954 29.0212 27.1635 29.0305 26.8455 29.1111L25.7823 29.3806C25.5457 29.4406 25.3691 29.6382 25.3359 29.88L25.3264 29.949C25.2702 30.3581 24.8036 30.5655 24.4624 30.333C24.3005 30.2228 24.0926 30.2058 23.915 30.2883L23.5991 30.435C23.1241 30.6558 22.8538 31.1655 22.9376 31.6826L23.0678 32.4862C23.1215 32.8175 23.3417 33.0978 23.6507 33.2286L23.8983 33.3333C24.2627 33.4874 24.6829 33.3139 24.8324 32.9475C24.9987 32.5397 25.4924 32.3801 25.866 32.6135L26.3858 32.9381L27.8342 33.7114C28.51 34.0722 29.0487 34.6449 29.3675 35.3415C29.5947 35.8377 29.9347 36.2739 30.3605 36.6152L31.0701 37.184C31.6181 37.6232 32.3596 37.7348 33.0126 37.4763L33.912 37.1202C34.3464 36.9482 34.577 36.4725 34.4431 36.0249C34.4065 35.9026 34.3444 35.7895 34.2607 35.6931L33.9668 35.3541C33.6778 35.0209 33.4662 34.6278 33.3473 34.2031L32.9158 32.6627C32.8375 32.3831 32.8442 32.0865 32.9351 31.8107C33.1064 31.2911 32.9732 30.7192 32.5898 30.3289L32.5452 30.2835Z" fill="white"/>
<path d="M36.1682 31.2918C36.1682 30.9032 35.8618 30.5837 35.4735 30.5674C35.2388 30.5576 35.0139 30.6622 34.8701 30.8479L34.7786 30.966C34.5402 31.2738 34.499 31.6909 34.6727 32.0393L35.0962 32.8891C35.2117 33.121 35.47 33.2447 35.723 33.1895C35.9829 33.1329 36.1682 32.9028 36.1682 32.6368V31.2918Z" fill="white"/>
<path d="M42.7676 30.8323C42.7338 30.6227 42.5802 30.4523 42.3752 30.397L40.3879 29.861C40.2354 29.8198 40.0974 29.7371 39.9891 29.6221L39.687 29.3012C39.581 29.1886 39.4099 29.1674 39.2797 29.2508C39.1309 29.346 39.0869 29.5436 39.1813 29.693L39.7806 30.6419L40.375 31.8643C40.4992 32.1197 40.7401 32.2985 41.0205 32.3435L41.4966 32.4199C41.6007 32.4366 41.7033 32.3819 41.7474 32.2861C41.7881 32.198 41.7705 32.094 41.703 32.0242L41.6579 31.9774C41.4389 31.7508 41.6316 31.3755 41.9434 31.4213L42.2818 31.471C42.5805 31.5148 42.8359 31.2559 42.7878 30.9577L42.7676 30.8323Z" fill="white"/>
<path fill-rule="evenodd" clip-rule="evenodd" d="M30.0637 0C30.616 0 31.0637 0.447715 31.0637 1V4.32265C31.0637 4.87494 30.616 5.32266 30.0637 5.32266C29.5114 5.32266 29.0637 4.87494 29.0637 4.32265V1C29.0637 0.447715 29.5114 0 30.0637 0ZM31.924 14.0831C31.3718 14.0831 30.924 13.6354 30.924 13.0831C30.924 10.9733 29.2125 9.25015 27.1163 9.25015C25.0202 9.25015 23.3086 10.9733 23.3086 13.0831C23.3086 13.6354 22.8609 14.0831 22.3086 14.0831C21.7563 14.0831 21.3086 13.6354 21.3086 13.0831C21.3086 9.88241 23.902 7.25015 27.1163 7.25015C30.3306 7.25015 32.924 9.88241 32.924 13.0831C32.924 13.6354 32.4763 14.0831 31.924 14.0831ZM25.1692 1C25.1692 0.447715 24.7214 0 24.1692 0C23.6169 0 23.1692 0.447715 23.1692 1V4.32265C23.1692 4.87494 23.6169 5.32266 24.1692 5.32266C24.7214 5.32266 25.1692 4.87494 25.1692 4.32265V1Z" fill="white"/>
<defs>
<linearGradient id="paint0_linear_397_12088" x1="-1.2271e-07" y1="26.4137" x2="51.3805" y2="43.9272" gradientUnits="userSpaceOnUse">
<stop stop-color="#F7931A"/>
<stop offset="1" stop-color="#AC1CC7"/>
</linearGradient>
</defs>
</svg>
