<svg width="56" height="39" viewBox="0 0 56 39" fill="none" xmlns="http://www.w3.org/2000/svg">
    <path opacity=".6" d="M55.113 38.751C50.335 24.938 35.85 16.605 21.236 19.845A29.145 29.145 0 0 0 0 38.75h55.113z" fill="url(#99nbtbazfa)"/>
    <path d="M25.638 36.986c.34.047.64.253.803.556l.378.697a.192.192 0 0 1-.06.25.192.192 0 0 0 .11.349h2.09a.354.354 0 0 0 .336-.466l-.115-.34a1.38 1.38 0 0 0-1.099-.926l-.019-.003a1.412 1.412 0 0 1-.802-.416l-.198-.205a2.259 2.259 0 0 0-1.168-.644l-2.038-.422a.435.435 0 0 0-.371.757l.482.412c.155.134.347.22.55.247l1.12.154zM9.769 37.873a2.39 2.39 0 0 1 1.522.438 2.39 2.39 0 0 0 1.384.44h11.364a.605.605 0 0 0 .6-.686l-.026-.19a.443.443 0 0 0-.571-.364.443.443 0 0 1-.412-.079l-.236-.192a1.008 1.008 0 0 1-.286-.374l-.243-.551a.304.304 0 0 0-.582.114l-.015.574a.456.456 0 0 1-.883.148l-.496-1.317a1.213 1.213 0 0 0-.734-.717 1.2 1.2 0 0 0-.178-.048l-.647-.122a.655.655 0 0 0-.46 1.206l.736.442a.395.395 0 0 1-.367.7l-1.755-.795a1.094 1.094 0 0 1-.17-.097l-1.492-1.03a1.814 1.814 0 0 1-.705-.97l-.035-.117a1.636 1.636 0 0 0-2.734-.676l-.622.634c-.284.271-.582.527-.893.766-.171.116-.633.297-1.01.436a.845.845 0 0 0-.56.779.824.824 0 0 1-.61.785l-.474.128a.418.418 0 0 0 .133.82l1.457-.085z" fill="#fff"/>
    <path d="M48.496 35.367a1.628 1.628 0 0 0-.394-1.434l-.462-.503-1.07-1.07c-.136-.137-.24-.3-.307-.481l-.38-1.03a.521.521 0 0 1 .461-.7l.203-.011a.331.331 0 0 0 .311-.37l-.017-.147a.186.186 0 0 0-.21-.162c-.19.025-.29-.218-.136-.333l.102-.077.385-.357a.757.757 0 0 0-.021-1.13l-.39-.335a2.308 2.308 0 0 1-.675-.987l-.033-.094a2.56 2.56 0 0 0-.879-1.212 29.19 29.19 0 0 0-33.585-.903c-.45.299-.373.969.125 1.178a.693.693 0 0 1 .358.934l-.19.402c-.114.24-.308.43-.55.54l-.027.012a1.2 1.2 0 0 0-.692 1.267l.078.535a.672.672 0 0 1-.298.66.67.67 0 0 0-.216.229l-.222.39a.993.993 0 0 0-.093.764l.101.357a.55.55 0 0 0 .585.396l.125-.012a.454.454 0 0 1 .493.528c-.055.318.23.59.545.52l.205-.045a.595.595 0 0 0 .408-.324l1.162-2.43c.077-.16.114-.338.109-.515a1.11 1.11 0 0 1 .792-1.101l.573-.17a.927.927 0 0 0 .618-.606.927.927 0 0 1 .588-.597l.917-.308a.77.77 0 0 0 .524-.764.77.77 0 0 1 .567-.776l.503-.138a1.49 1.49 0 0 0 .552-.288c.28-.23.717-.576.851-.606.115-.026.493.004.799.035.282.029.555.112.81.237l.086.042a2.291 2.291 0 0 0 2.599-.408l.021-.02a2.396 2.396 0 0 1 1.349-.65l.11-.015c.455-.06.92.06 1.378.03a.758.758 0 0 0 .114-.017c.897-.203 1.769-.59 2.636-.286l.84.294.603.272a.758.758 0 0 1 .427.524l.016.072c.074.329.38.552.715.523l.156-.014a.444.444 0 0 0 .387-.316.444.444 0 0 1 .52-.307l.282.061a.398.398 0 0 1 .1.741l-.352.184a.988.988 0 0 0-.174 1.636l.163.135c.117.097.253.17.4.213l1.973.587c.355.105.683.283.963.524l.43.368c.292.25.676.365 1.057.316l.46-.06a.678.678 0 0 0 .571-.507l.05-.2a.226.226 0 0 1 .119-.148.226.226 0 0 0-.006-.407l-1.576-.737a.227.227 0 0 0-.117-.02l-.327.03c-.168.016-.238-.207-.092-.29a.156.156 0 0 0 .028-.252l-.304-.275a.453.453 0 0 1 .18-.771l.196-.056a.566.566 0 0 1 .311 0l.482.14c.653.188 1.19.653 1.47 1.273l.01.022c.162.36.411.673.725.912l.042.032c.276.21.506.473.678.773l.415.726c.24.419.607.75 1.05.941l.031.014a2.168 2.168 0 0 1 1.253 1.521l.06.27c.12.548.511.999 1.038 1.196l.22.083c.44.165.754.56.813 1.026a3.28 3.28 0 0 0 .467 1.716l.201.335.034.073a.835.835 0 0 0 1.57-.17l.146-.647zM48.146 29.721a.67.67 0 0 0 .519.374l.056.007a.59.59 0 0 1 .5.45l.092.399a.318.318 0 0 1-.362.385.318.318 0 0 0-.367.367l.465 2.675c.06.344.038.696-.063 1.03l-.023.077a2.579 2.579 0 0 0 .225 2.017l.195.343a1.808 1.808 0 0 0 1.573.917h4.259c-1.46-4.08-3.698-7.789-6.86-10.85a.224.224 0 0 0-.373.111l-.074.815c-.02.216.02.433.114.627l.124.256z" fill="#fff"/>
    <path d="M32.678 30.952a1.6 1.6 0 0 0-.84-.458l-3.905-.773a2.232 2.232 0 0 0-.99.028l-1.058.273a.608.608 0 0 0-.45.507l-.012.087a.554.554 0 0 1-.864.381.554.554 0 0 0-.553-.045l-.325.154c-.472.223-.74.731-.658 1.247l.137.86c.052.33.27.61.577.742l.246.106a.714.714 0 0 0 .946-.39.714.714 0 0 1 1.046-.337l.513.327 1.441.783a3.6 3.6 0 0 1 1.557 1.684c.224.498.563.942.985 1.287l.708.578c.556.454 1.315.57 1.981.3l.873-.351a.929.929 0 0 0 .36-1.465l-.294-.346a3.06 3.06 0 0 1-.62-1.172l-.435-1.58a1.519 1.519 0 0 1 .019-.87 1.518 1.518 0 0 0-.351-1.522l-.034-.035zM36.309 31.961a.725.725 0 0 0-1.302-.439l-.099.129c-.236.311-.277.73-.105 1.08l.43.882a.566.566 0 0 0 1.075-.249v-1.403zM42.934 31.507a.552.552 0 0 0-.399-.446l-1.989-.547a.851.851 0 0 1-.4-.243l-.301-.327a.324.324 0 0 0-.514.391l.605.977.6 1.258a.868.868 0 0 0 .643.482l.475.078a.24.24 0 0 0 .213-.403l-.046-.048a.339.339 0 0 1 .296-.568l.326.049a.452.452 0 0 0 .513-.518l-.022-.135z" fill="#fff"/>
    <path fill-rule="evenodd" clip-rule="evenodd" d="M30.18 0a1 1 0 0 1 1 1v3.398a1 1 0 1 1-2 0V1a1 1 0 0 1 1-1zm1.867 14.356a1 1 0 0 1-1-1v-.115a3.826 3.826 0 1 0-7.652 0v.115a1 1 0 1 1-2 0v-.115a5.826 5.826 0 0 1 11.652 0v.115a1 1 0 0 1-1 1zM25.263 1a1 1 0 1 0-2 0v3.398a1 1 0 0 0 2 0V1z" fill="#fff"/>
    <defs>
        <linearGradient id="99nbtbazfa" x1="0" y1="26.989" x2="51.776" y2="44.314" gradientUnits="userSpaceOnUse">
            <stop stop-color="#F7931A"/>
            <stop offset="1" stop-color="#AC1CC7"/>
        </linearGradient>
    </defs>
</svg>
