<svg width="62" height="35" viewBox="0 0 62 35" fill="none" xmlns="http://www.w3.org/2000/svg">
    <path d="M2.066 34.002a2.046 2.046 0 0 0 1.043-.28 2.07 2.07 0 0 0 .949-1.227 2.008 2.008 0 0 0 .07-.583 3.439 3.439 0 0 1-.005-.039H2.066v.71h1.187a1.44 1.44 0 0 1-.21.289 1.309 1.309 0 0 1-.276.226 1.395 1.395 0 0 1-.331.147 1.327 1.327 0 0 1-.897-.053 1.37 1.37 0 0 1-.724-.718 1.304 1.304 0 0 1-.106-.524 1.3 1.3 0 0 1 .106-.525 1.365 1.365 0 0 1 1.25-.823c.183 0 .354.034.512.1.159.067.3.159.422.275l.467-.403.072-.063a2.072 2.072 0 0 0-.66-.45 2.025 2.025 0 0 0-.812-.163 2.05 2.05 0 0 0-1.043.28 2.07 2.07 0 0 0-.95 1.227A2.009 2.009 0 0 0 0 31.95a2.008 2.008 0 0 0 .282 1.036 2.062 2.062 0 0 0 1.784 1.016zm4.569 0c.573 0 1.06-.195 1.46-.584.397-.39.595-.876.595-1.456 0-.567-.205-1.054-.615-1.463a1.983 1.983 0 0 0-1.44-.6 2.08 2.08 0 0 0-1.043.274 1.97 1.97 0 0 0-.754.747 1.982 1.982 0 0 0-.28 1.042c0 .543.198 1.023.593 1.44.399.4.893.6 1.484.6zm0-.707A1.25 1.25 0 0 1 5.817 33c-.316-.26-.474-.61-.474-1.048 0-.391.122-.71.366-.96.238-.257.54-.386.908-.386.364 0 .667.129.91.387.254.268.38.587.38.959 0 .387-.126.705-.38.956a1.341 1.341 0 0 1-.409.288 1.174 1.174 0 0 1-.481.099zm4.558.707c.573 0 1.06-.195 1.46-.584.398-.39.596-.876.596-1.456 0-.567-.205-1.054-.616-1.463a1.984 1.984 0 0 0-1.44-.6 2.08 2.08 0 0 0-1.042.274 1.97 1.97 0 0 0-.755.747 1.982 1.982 0 0 0-.278 1.042c0 .543.197 1.023.592 1.44.399.4.893.6 1.483.6zm.002-.707c-.309 0-.582-.099-.82-.295-.316-.26-.474-.61-.474-1.048 0-.391.122-.71.366-.96.238-.257.54-.386.908-.386.363 0 .667.129.91.387.254.268.38.587.38.959 0 .387-.126.705-.38.956a1.341 1.341 0 0 1-.41.288 1.174 1.174 0 0 1-.48.099zm3.434.707c.358 0 .645-.103.86-.309.216-.206.324-.473.324-.801 0-.334-.132-.63-.395-.887a3.206 3.206 0 0 1-.13-.115 9.512 9.512 0 0 0-.388-.34 34.715 34.715 0 0 1-.351-.314 3.577 3.577 0 0 1-.188-.179.35.35 0 0 1-.054-.177c0-.074.03-.136.09-.183.046-.048.123-.072.232-.072.196 0 .387.133.574.398l.557-.49a3.394 3.394 0 0 0-.3-.3 1.308 1.308 0 0 0-.274-.189 1.109 1.109 0 0 0-.557-.146c-.29 0-.54.098-.752.292a.948.948 0 0 0-.305.707c0 .183.066.37.198.561.062.094.16.207.295.34.135.132.305.285.51.459.108.091.197.17.269.236.072.065.126.12.164.164a.504.504 0 0 1 .088.272.347.347 0 0 1-.125.255.507.507 0 0 1-.322.108c-.234 0-.443-.175-.627-.526l-.63.38c.282.57.695.856 1.237.856zm4.176 0v-.764h-1.67v-.916h1.67v-.744h-1.67v-.915h1.67v-.765h-2.422v4.104h2.422zm3.207 0v-1.68h1.494v-.744h-1.494v-.915h1.494v-.765h-2.28v4.104h.787zm2.813 0 .972-1.437.95 1.437h.89l-.445-.672-.326-.493-.623-.947-1.34-1.992h-.891l1.32 1.992-1.398 2.112h.89zm1.699-2.547.971-1.557h-.875l-.55.86.454.697zm-4.512 2.547v-1.68h1.494v-.744h-1.494v-.915h1.494v-.765h-2.28v4.104h.787zm2.813 0 .972-1.437.95 1.437h.89l-.445-.672-.326-.493-.623-.947-1.34-1.992h-.891l1.32 1.992-1.398 2.112h.89zm1.699-2.547.971-1.557h-.875l-.55.86.454.697z" fill="#fff"/>
    <path d="M40.367 7.257c.451 0 .876.213 1.145.573l5.727 7.674a.422.422 0 0 1-.017.526L34.614 30.895a.286.286 0 0 1-.401.034.282.282 0 0 1-.061-.362l8.73-14.496a.422.422 0 0 0-.024-.472l-5.935-7.89a.282.282 0 0 1 .228-.452h3.216zm-27.199.238c.756.116 1.29.27 1.603.46.313.19.644.563.996 1.12-.19.156-.355.247-.495.271-.14.025-.374.004-.7-.062l-.388-.175a.755.755 0 0 0-.991.36.637.637 0 0 0 .391.885l.518.159c.147.115.211.276.195.484-.017.207-.114.41-.291.605l.28.765c-.338.074-.744.096-1.22.066-.712-.046-1.06-.262-1.066-.294-.004-.021-.34-.203-1.009-.545a5.88 5.88 0 0 0-1.185-.12c-3.25 0-5.884 2.642-5.884 5.901s2.635 5.9 5.884 5.9c2.18 0 4.084-1.189 5.1-2.956h-1.57c-.95 0-1.785-.623-2.051-1.528l-.316-1.076a.424.424 0 0 1 .41-.543h6.978c.577 0 1.063.429 1.131.998a3.697 3.697 0 0 1-.237 1.859c-1.155 4.142-4.946 7.18-9.445 7.18C4.39 27.21 0 22.808 0 17.376c0-5.15 3.946-9.375 8.972-9.8l.142-.022.182-.03c.092-.014.183-.03.274-.045.647-.11 1.846-.105 3.598.017zm20.738-.238c.228 0 .414.177.427.4v2.378c0 .226-.177.41-.402.424h-8.22a.71.71 0 0 0-.711.677l-.001.03v15.336c0 .226-.178.411-.402.424H21.51a.426.426 0 0 1-.426-.399V8.248c0-.536.427-.972.962-.99h11.859zM61.664.567c.107.089.133.242.061.361l-8.73 14.496a.422.422 0 0 0 .025.472l5.935 7.89a.282.282 0 0 1-.229.452H55.51c-.451 0-.876-.212-1.145-.572l-5.727-7.674a.422.422 0 0 1 .017-.527L61.263.601a.286.286 0 0 1 .401-.034zM31.992 15.644a.423.423 0 0 1 .395.588l-.012.023-1.387 2.81a.428.428 0 0 1-.355.237l-.029.001h-3.823a.426.426 0 0 1-.426-.4l-.001-.024v-2.81c0-.227.178-.412.402-.425h5.235zM16.044 9.42c.274.212.45.392.53.538.075.137.148.37.22.695l.012.059 1.855 1.664a.634.634 0 0 1 .199.348l.006.034.018.125a.123.123 0 0 1-.069.128l-.015.006-.098.033-.09-.012c-1.883-.25-3.03-.462-3.44-.638-.367-.156-.446-.508-.237-1.057a.703.703 0 0 0 .009-.478l-.013-.036-.098-.243a.707.707 0 0 0-.13-.207l-.027-.03-.337-.334c-.117-.024-.246.013-.363-.01a1.94 1.94 0 0 1-.21-.07.225.225 0 0 1-.11-.301.324.324 0 0 1 .354-.179c.112.021.191.04.24.056.08.026.186.082.32.167.4.078.693.101.88.068.188-.033.386-.141.594-.326z" fill="url(#b2f2psyyfa)"/>
    <defs>
        <linearGradient id="b2f2psyyfa" x1="1.604" y1="15.532" x2="59.904" y2="16.416" gradientUnits="userSpaceOnUse">
            <stop stop-color="#5250FF"/>
            <stop offset="1" stop-color="#E959FF"/>
        </linearGradient>
    </defs>
</svg>
