<svg width="40" height="41" viewBox="0 0 40 41" fill="none" xmlns="http://www.w3.org/2000/svg">
    <ellipse cx="20" cy="20.5" rx="20" ry="20.5" fill="#111"/>
    <path fill-rule="evenodd" clip-rule="evenodd" d="M24.275 9.339c.891.138 1.52.32 1.889.546.368.226.76.67 1.173 1.334-.223.186-.418.294-.583.323-.166.03-.44.004-.824-.075l-.458-.208a.885.885 0 0 0-1.168.43.762.762 0 0 0 .462 1.052l.61.19c.172.136.249.328.23.575-.02.247-.135.487-.344.72l.331.91c-.399.09-.878.115-1.437.08-.84-.055-1.25-.312-1.257-.35-.004-.023-.326-.201-.967-.534a6.858 6.858 0 0 0-1.616-.192c-3.83 0-6.934 3.133-6.934 6.997 0 3.865 3.104 6.998 6.934 6.998 2.57 0 4.812-1.41 6.01-3.507h-1.8c-1.15 0-2.16-.76-2.483-1.866l-.264-.902a.753.753 0 0 1 .72-.964h7.49c.958 0 1.738.764 1.77 1.718v.06c0 .537-.104 1.074-.313 1.61-1.361 4.913-5.829 8.516-11.13 8.516-6.382 0-11.556-5.222-11.556-11.662 0-5.35 3.568-9.858 8.434-11.232.741-.28 1.812-.409 2.842-.587.762-.132 2.175-.125 4.24.02zm3.389 2.29c.323.254.53.467.624.64.087.163.172.434.256.814l.017.084 2.187 1.98a.757.757 0 0 1 .231.402l.01.053.02.149a.147.147 0 0 1-.076.15l-.022.01-.115.038-.133-.018c-2.203-.295-3.545-.547-4.028-.755-.478-.206-.54-.698-.186-1.476l.032-.07-.213-.534a1.253 1.253 0 0 0-.276-.42l-.337-.338c-.138-.028-.29.015-.428-.013a2.248 2.248 0 0 1-.248-.083.27.27 0 0 1-.128-.358.38.38 0 0 1 .417-.213c.13.026.225.048.282.067.094.032.219.098.376.199.472.093.818.12 1.038.081.22-.039.454-.169.7-.389z" fill="url(#a)"/>
    <defs>
        <linearGradient id="a" x1="16.955" y1="11.102" x2="27.904" y2="29.546" gradientUnits="userSpaceOnUse">
            <stop stop-color="#3735BB"/>
            <stop offset="1" stop-color="#9B24AC"/>
        </linearGradient>
    </defs>
</svg>
