<svg width="63" height="21" viewBox="0 0 63 21" fill="none" xmlns="http://www.w3.org/2000/svg">
<path fill-rule="evenodd" clip-rule="evenodd" d="M13.8064 0.101929C14.5993 0.225127 15.1595 0.387352 15.487 0.588603C15.8145 0.789854 16.1626 1.18572 16.5311 1.77619C16.3324 1.94209 16.1593 2.03809 16.012 2.06418C15.8646 2.09027 15.6202 2.0682 15.2787 1.99795L14.8716 1.81227C14.4791 1.63324 14.0162 1.80381 13.8322 2.19528C13.673 2.53371 13.8172 2.9376 14.1542 3.09739C14.1829 3.11098 14.2125 3.12252 14.2427 3.13194L14.7859 3.30084C14.9393 3.42258 15.0073 3.59354 14.9899 3.8137C14.9724 4.03387 14.8708 4.24794 14.6848 4.45591L14.9791 5.2665C14.6243 5.34528 14.1979 5.36849 13.7 5.33614C12.9531 5.28762 12.5879 5.05887 12.5818 5.02437C12.5786 5.00609 12.336 4.87086 11.8539 4.61869C11.3573 4.48918 10.8365 4.42033 10.2998 4.42033C6.88672 4.42033 4.1199 7.20394 4.1199 10.6377C4.1199 14.0715 6.88672 16.8551 10.2998 16.8551C12.59 16.8551 14.5893 15.6017 15.6568 13.7395L13.0941 13.7394C12.6379 13.7394 12.2361 13.4375 12.1075 12.9979L11.4313 10.6883C11.3993 10.5788 11.4617 10.464 11.5707 10.4318C11.5895 10.4263 11.609 10.4234 11.6287 10.4234H19.8071C20.0482 10.4235 20.261 10.5815 20.3316 10.813C20.4439 11.1811 20.5 11.5776 20.5 12.0025C20.5 12.4801 20.4065 12.9577 20.2196 13.4353C19.0064 17.7992 15.0246 21 10.2998 21C4.61136 21 0 16.3606 0 10.6377C0 5.98767 3.04441 2.05302 7.23732 0.741155C7.25617 0.720259 7.27614 0.704656 7.29736 0.694542C7.84697 0.432614 8.67961 0.304963 9.53273 0.167057L9.6441 0.148999C9.77412 0.127836 9.90435 0.10629 10.0339 0.0838518C10.7123 -0.0336825 11.9698 -0.0276567 13.8064 0.101929ZM16.8217 2.14204C17.109 2.36755 17.2942 2.55765 17.3773 2.71234C17.4576 2.86187 17.536 3.11577 17.6125 3.47404L17.6204 3.51148L19.6354 5.33916C19.702 5.39958 19.747 5.48009 19.7637 5.5683L19.7669 5.58731L19.7991 5.81354C19.8074 5.87228 19.7753 5.92875 19.7218 5.95181L19.7115 5.95574L19.6087 5.99016L19.548 5.98208C17.554 5.7156 16.3401 5.48879 15.9064 5.30164C15.4944 5.1239 15.4294 4.70751 15.7112 4.05246C15.745 3.97393 15.7484 3.8858 15.7212 3.80521L15.7148 3.78806L15.5211 3.30159C15.5063 3.26453 15.4853 3.23038 15.4589 3.20064L15.4453 3.18614L15.0345 2.77318C14.9117 2.74817 14.7758 2.78708 14.653 2.76207C14.6247 2.75631 14.5581 2.73445 14.4533 2.69648C14.4463 2.69395 14.4395 2.6911 14.4327 2.68792C14.3134 2.6316 14.2622 2.48881 14.3183 2.36899C14.3843 2.22795 14.5372 2.14993 14.6896 2.17957C14.8061 2.20224 14.8898 2.22208 14.9408 2.23909C15.024 2.26689 15.1356 2.3258 15.2755 2.41583C15.6949 2.49889 16.0029 2.52304 16.1992 2.48827C16.3956 2.45351 16.603 2.33809 16.8217 2.14204Z" fill="url(#paint0_linear_15815_6106)"/>
<path d="M36.3164 10.2773C36.3206 10.307 36.3249 10.3366 36.3291 10.3662C36.3333 10.3916 36.3354 10.4191 36.3354 10.4487C36.3354 10.8677 36.2804 11.2718 36.1704 11.6611C36.0646 12.0462 35.9123 12.408 35.7134 12.7466C35.5145 13.0851 35.2775 13.3919 35.0024 13.667C34.7274 13.9421 34.4206 14.179 34.082 14.3779C33.7435 14.5768 33.3796 14.7313 32.9902 14.8413C32.6051 14.9471 32.2031 15 31.7842 15C31.3652 15 30.9611 14.9471 30.5718 14.8413C30.1867 14.7313 29.8249 14.5768 29.4863 14.3779C29.1478 14.179 28.841 13.9421 28.5659 13.667C28.2909 13.3919 28.0539 13.0851 27.855 12.7466C27.6561 12.408 27.5016 12.0462 27.3916 11.6611C27.2858 11.2718 27.2329 10.8677 27.2329 10.4487C27.2329 10.0298 27.2858 9.62777 27.3916 9.24268C27.5016 8.85335 27.6561 8.48942 27.855 8.15088C28.0539 7.81234 28.2909 7.50553 28.5659 7.23047C28.841 6.9554 29.1478 6.71842 29.4863 6.51953C29.8249 6.32064 30.1867 6.16829 30.5718 6.0625C30.9611 5.95247 31.3652 5.89746 31.7842 5.89746C32.4232 5.89746 33.0199 6.01807 33.5742 6.25928C34.1286 6.50049 34.6131 6.83268 35.0278 7.25586L34.8691 7.39551L33.8408 8.29053C33.57 8.03239 33.259 7.82926 32.9077 7.68115C32.5607 7.53304 32.1862 7.45898 31.7842 7.45898C31.3737 7.45898 30.9865 7.53727 30.6226 7.69385C30.2586 7.85042 29.9412 8.06413 29.6704 8.33496C29.3996 8.60579 29.1859 8.92318 29.0293 9.28711C28.8727 9.64681 28.7944 10.034 28.7944 10.4487C28.7944 10.8592 28.8727 11.2464 29.0293 11.6104C29.1859 11.9743 29.3996 12.2917 29.6704 12.5625C29.9412 12.8333 30.2586 13.047 30.6226 13.2036C30.9865 13.3602 31.3737 13.4385 31.7842 13.4385C32.0677 13.4385 32.3385 13.4004 32.5967 13.3242C32.859 13.2438 33.1024 13.1338 33.3267 12.9941C33.5552 12.8545 33.7583 12.6873 33.936 12.4927C34.118 12.298 34.2725 12.0843 34.3994 11.8516H31.7842V11.2358V10.2773H35.5039H36.3164ZM41.8516 13.4258C42.2367 13.4258 42.5921 13.3538 42.918 13.21C43.248 13.0661 43.5527 12.8545 43.832 12.5752C44.3949 12.0251 44.6763 11.3247 44.6763 10.4741C44.6763 9.65739 44.3949 8.95492 43.832 8.3667C43.2904 7.79964 42.6154 7.51611 41.8071 7.51611C40.9904 7.51611 40.3175 7.79964 39.7886 8.3667C39.2469 8.9126 38.9761 9.61507 38.9761 10.4741C38.9761 11.439 39.3273 12.207 40.0298 12.7783C40.5588 13.21 41.166 13.4258 41.8516 13.4258ZM41.8516 15C40.5609 15 39.4797 14.5557 38.6079 13.667C37.7446 12.7445 37.313 11.6802 37.313 10.4741C37.313 9.6193 37.5161 8.84912 37.9224 8.16357C38.3117 7.46956 38.8618 6.91732 39.5728 6.50684C40.2795 6.10059 41.0391 5.89746 41.8516 5.89746C43.0618 5.89746 44.1113 6.3418 45 7.23047C45.8971 8.13607 46.3457 9.21729 46.3457 10.4741C46.3457 11.7606 45.9119 12.8376 45.0444 13.7051C44.1685 14.5684 43.1042 15 41.8516 15ZM52.541 5.89746V7.59229H49.2339V9.62354H52.541V11.2739H49.2339V15H47.4946V5.89746H52.541ZM61.6372 15H59.6821L57.6001 11.8135L55.4673 15H53.5122L56.5781 10.3154L53.6836 5.89746H55.6387L58.5776 10.3154C59.1447 11.1872 59.5996 11.8875 59.9424 12.4165C60.2894 12.9455 60.5285 13.3094 60.6597 13.5083L61.6372 15ZM59.2949 9.21094L58.2793 7.72559L59.5107 5.89746H61.4722L59.2949 9.21094Z" fill="#636363"/>
<defs>
<linearGradient id="paint0_linear_15815_6106" x1="2.84701" y1="4.14467" x2="16.9692" y2="18.0706" gradientUnits="userSpaceOnUse">
<stop stop-color="#5855FF"/>
<stop offset="1" stop-color="#DC1FFF"/>
</linearGradient>
</defs>
</svg>
