<svg width="40" height="41" viewBox="0 0 40 41" fill="none" xmlns="http://www.w3.org/2000/svg">
<rect y="0.5" width="40" height="40" rx="20" fill="#F7F0FD"/>
<path fill-rule="evenodd" clip-rule="evenodd" d="M23.8864 8.3562C23.571 8.27575 23.2669 8.20241 23.0383 8.15602C21.8893 7.92291 20.482 7.99543 19.5497 8.08905C18.8707 8.15724 18.2013 8.29041 17.5402 8.46114C17.0229 8.59475 16.4003 8.76931 15.9208 8.94616C10.6556 10.8881 7.5 15.1892 7.5 20.7061C7.5 27.4958 12.8499 33 19.4493 33C24.9308 33 29.6345 29.6034 30.9977 24.0134C31.019 23.9262 31.0397 23.8319 31.0596 23.7341C31.2488 22.8043 31.3587 21.8229 31.0877 20.914C31.0058 20.6394 30.7589 20.4519 30.4793 20.4519H20.2279C20.2051 20.4519 20.1825 20.4552 20.1606 20.4618C20.0342 20.5 19.9618 20.6362 19.999 20.7661L20.4667 22.4894C20.7706 23.6094 21.7791 24.3859 22.9297 24.3859H25.122C25.3176 24.3859 25.4391 24.5981 25.3313 24.7629C24.036 26.744 21.7308 27.9098 19.4551 27.9098C15.4955 27.9098 12.2693 24.7671 12.2693 20.6933C12.2693 16.6194 15.5183 13.4124 19.4551 13.4124C19.5122 13.4124 19.5696 13.4128 19.627 13.4137C20.4856 13.4266 21.3107 13.6975 22.0968 14.0463C22.2904 14.1323 22.5378 14.2088 22.7645 14.2697C23.1806 14.3814 23.6088 14.4394 24.0392 14.453C24.2088 14.4584 24.3892 14.4601 24.5497 14.4534C24.7206 14.4462 24.806 14.2648 24.722 14.1144L24.6374 13.9626C24.4774 13.6759 24.5262 13.3261 24.7047 13.0507C24.8048 12.8963 24.8804 12.7401 24.8905 12.61C24.9038 12.4384 24.8742 12.2919 24.802 12.1707C24.7269 12.0449 24.5743 12.0033 24.4296 11.9876C24.2931 11.9728 24.1205 11.9422 23.9896 11.879C23.212 11.5036 23.5479 10.188 24.4097 10.1721C24.5261 10.17 24.6421 10.1885 24.7533 10.2355C24.8022 10.2561 24.8504 10.2765 24.8974 10.2962C25.2761 10.4556 25.6724 10.6075 26.0763 10.5343C26.2035 10.5113 26.3473 10.4423 26.5076 10.3273C26.6093 10.2544 26.5886 10.0496 26.5157 9.94755C25.8855 9.06639 24.9304 8.62247 23.8864 8.3562ZM28.5746 12.6826L31.1061 14.8912C31.3488 15.1029 31.1663 15.5033 30.8496 15.4538L26.3828 14.7554C25.4729 14.6131 24.948 13.6317 25.3289 12.785L25.3728 12.6874C25.4611 12.4912 25.4611 12.2659 25.3729 12.0695C25.2635 11.8259 25.0283 11.6648 24.7641 11.6524L24.6222 11.6457C24.2984 11.6305 24.0686 11.3199 24.1458 11.0017L24.1494 10.9866C24.227 10.6669 24.5909 10.5174 24.8676 10.6916L25.0644 10.8155C25.4418 11.0532 25.8971 11.1292 26.3296 11.0269C26.4593 10.9963 26.5808 10.9375 26.6859 10.8548L26.7023 10.8418C26.9372 10.6568 27.2679 10.6616 27.498 10.8533L27.5572 10.9028C27.8887 11.1791 28.1222 11.5569 28.2226 11.979L28.2696 12.1768C28.3163 12.3735 28.423 12.5504 28.5746 12.6826Z" fill="url(#paint0_linear_2202_140412)"/>
<defs>
<linearGradient id="paint0_linear_2202_140412" x1="31.25" y1="33" x2="2.13475" y2="20.3012" gradientUnits="userSpaceOnUse">
<stop stop-color="#5855FF"/>
<stop offset="1" stop-color="#E036FF"/>
</linearGradient>
</defs>
</svg>
