<svg width="22" height="20" viewBox="0 0 22 20" fill="none" xmlns="http://www.w3.org/2000/svg">
<path d="M19.9127 11.2648L19.9127 11.2648C18.6768 13.2449 17.0314 15.4004 11.6374 18.7367C11.2477 18.9778 10.7524 18.9778 10.3626 18.7367C4.96877 15.4004 3.32315 13.245 2.0871 11.2648C1.45156 10.2466 0.746346 8.48594 0.750014 6.65973C0.753591 4.87876 1.42431 3.0345 3.55772 1.67644C5.61755 0.365314 7.24509 0.659021 8.39301 1.25657C9.59534 1.88244 10.3163 2.87375 10.379 2.96263C10.6819 3.3924 11.3182 3.39223 11.6211 2.96263C11.6837 2.87375 12.4047 1.88243 13.607 1.25657C14.7549 0.65902 16.3825 0.365315 18.4423 1.67644C20.5757 3.0345 21.2464 4.87875 21.25 6.65971C21.2536 8.48592 20.5484 10.2466 19.9127 11.2648Z" fill="url(#paint0_linear_18720_2058)" stroke="#3C3C3C" stroke-width="1.5"/>
<defs>
<linearGradient id="paint0_linear_18720_2058" x1="-3.94718e-07" y1="10.1234" x2="20.0838" y2="16.3271" gradientUnits="userSpaceOnUse">
<stop stop-color="#F7931A"/>
<stop offset="1" stop-color="#C31AE3"/>
</linearGradient>
</defs>
</svg>
