<svg width="32" height="32" viewBox="0 0 32 32" fill="none" xmlns="http://www.w3.org/2000/svg">
    <circle cx="16" cy="16" r="16" fill="#fff"/>
    <path d="m14.113 14.385-4.628 4.629c-.216.214-.509.334-.818.334-.33 0-.645-.132-.885-.372a1.244 1.244 0 0 1-.372-.885c0-.311.117-.602.334-.818l4.628-4.628 1.741 1.74z" fill="url(#a)"/>
    <path d="M17.377 14.498c-.337.336-.79.53-1.247.53-.402 0-.774-.15-1.047-.42l-4.134-4.137-.374.374 1.428 1.428L7.374 16.9a1.692 1.692 0 0 0-.484 1.335c-1.221-1.234-1.892-2.8-1.89-4.413.002-1.542.616-3.001 1.729-4.107A5.859 5.859 0 0 1 10.886 8a5.822 5.822 0 0 1 3.587 1.22l.145.113 2.87 2.868c.6.604.551 1.634-.111 2.297z" fill="url(#b)"/>
    <path d="M25.501 13.822c.002 1.624-.677 3.199-1.914 4.437l-2.45 2.448-5 4.958a1.146 1.146 0 0 1-.818.335 1.24 1.24 0 0 1-.885-.373 1.252 1.252 0 0 1-.37-.864 1.15 1.15 0 0 1 .332-.839l4.861-4.863-.453-.455-4.862 4.864a1.158 1.158 0 0 1-.818.334c-.33 0-.645-.132-.886-.371a1.246 1.246 0 0 1-.371-.886c0-.311.117-.601.334-.818l4.861-4.864-.517-.517-4.864 4.862a1.145 1.145 0 0 1-.818.334c-.332 0-.647-.132-.885-.372a1.253 1.253 0 0 1-.37-.864 1.141 1.141 0 0 1 .332-.84l4.628-4.627.141.14c.374.373.879.577 1.42.577.59 0 1.182-.25 1.62-.686.867-.87.918-2.235.11-3.042l-2.254-2.255A5.852 5.852 0 0 1 19.615 8c1.567 0 3.043.61 4.157 1.716a5.77 5.77 0 0 1 1.729 4.106z" fill="url(#c)"/>
    <defs>
        <linearGradient id="a" x1="10.762" y1="12.645" x2="10.762" y2="19.348" gradientUnits="userSpaceOnUse">
            <stop stop-color="#3735BB"/>
            <stop offset="1" stop-color="#8F85FF"/>
        </linearGradient>
        <linearGradient id="b" x1="11.454" y1="8" x2="11.454" y2="18.237" gradientUnits="userSpaceOnUse">
            <stop stop-color="#3735BB"/>
            <stop offset="1" stop-color="#8F85FF"/>
        </linearGradient>
        <linearGradient id="c" x1="17.554" y1="8" x2="17.554" y2="26" gradientUnits="userSpaceOnUse">
            <stop stop-color="#3735BB"/>
            <stop offset="1" stop-color="#8F85FF"/>
        </linearGradient>
    </defs>
</svg>
