<svg width="30" height="30" viewBox="0 0 30 30" fill="none" xmlns="http://www.w3.org/2000/svg">
<circle cx="15" cy="15" r="15" fill="#A934FF"/>
<path d="M13.9721 16.1866C13.9721 15.8166 14.0321 15.4916 14.1521 15.2116C14.2721 14.9316 14.4271 14.6816 14.6171 14.4616C14.8071 14.2416 15.0071 14.0366 15.2171 13.8466C15.4371 13.6566 15.6421 13.4716 15.8321 13.2916C16.0221 13.1116 16.1771 12.9216 16.2971 12.7216C16.4171 12.5216 16.4771 12.2966 16.4771 12.0466C16.4771 11.6266 16.3071 11.2866 15.9671 11.0266C15.6271 10.7666 15.1721 10.6366 14.6021 10.6366C14.0521 10.6366 13.5721 10.7366 13.1621 10.9366C12.7621 11.1366 12.4271 11.4216 12.1571 11.7916L10.7021 10.8466C11.1221 10.2766 11.6721 9.83163 12.3521 9.51163C13.0321 9.18163 13.8371 9.01663 14.7671 9.01663C15.4971 9.01663 16.1371 9.12663 16.6871 9.34663C17.2371 9.55663 17.6671 9.86663 17.9771 10.2766C18.2871 10.6766 18.4421 11.1666 18.4421 11.7466C18.4421 12.1466 18.3771 12.4966 18.2471 12.7966C18.1271 13.0966 17.9671 13.3616 17.7671 13.5916C17.5771 13.8116 17.3721 14.0216 17.1521 14.2216C16.9321 14.4116 16.7221 14.6016 16.5221 14.7916C16.3321 14.9816 16.1771 15.1866 16.0571 15.4066C15.9371 15.6266 15.8771 15.8866 15.8771 16.1866H13.9721ZM14.9321 19.7716C14.5821 19.7716 14.2921 19.6566 14.0621 19.4266C13.8421 19.1966 13.7321 18.9216 13.7321 18.6016C13.7321 18.2816 13.8421 18.0116 14.0621 17.7916C14.2921 17.5616 14.5821 17.4466 14.9321 17.4466C15.2821 17.4466 15.5671 17.5616 15.7871 17.7916C16.0071 18.0116 16.1171 18.2816 16.1171 18.6016C16.1171 18.9216 16.0071 19.1966 15.7871 19.4266C15.5671 19.6566 15.2821 19.7716 14.9321 19.7716Z" fill="white"/>
</svg>
