<svg width="19" height="18" viewBox="0 0 19 18" fill="none" xmlns="http://www.w3.org/2000/svg">
<path d="M12.5 2.60082C13.6113 3.15308 14.375 4.29985 14.375 5.625C14.375 6.95015 13.6113 8.09692 12.5 8.64918M14 12.5748C15.1336 13.0878 16.1544 13.9237 17 15M2 15C3.45987 13.1419 5.44188 12 7.625 12C9.80812 12 11.7901 13.1419 13.25 15M11 5.625C11 7.48896 9.48896 9 7.625 9C5.76104 9 4.25 7.48896 4.25 5.625C4.25 3.76104 5.76104 2.25 7.625 2.25C9.48896 2.25 11 3.76104 11 5.625Z" stroke="#C27EFF" stroke-width="1.5" stroke-linecap="round" stroke-linejoin="round"/>
</svg>
