<svg width="170" height="119" viewBox="0 0 170 119" fill="none" xmlns="http://www.w3.org/2000/svg">
<path d="M89 85.0739V58.2684C88.9988 57.0932 88.6902 55.939 88.1051 54.9216C87.5201 53.9042 86.6791 53.0593 85.6667 52.4717L62.3333 39.069C61.3199 38.4808 60.1702 38.1711 59 38.1711C57.8298 38.1711 56.6801 38.4808 55.6667 39.069L32.3333 52.4717C31.3209 53.0593 30.4799 53.9042 29.8949 54.9216C29.3098 55.939 29.0012 57.0932 29 58.2684V85.0739C29.0012 86.2491 29.3098 87.4033 29.8949 88.4207C30.4799 89.4381 31.3209 90.283 32.3333 90.8706L55.6667 104.273C56.6801 104.861 57.8298 105.171 59 105.171C60.1702 105.171 61.3199 104.861 62.3333 104.273L85.6667 90.8706C86.6791 90.283 87.5201 89.4381 88.1051 88.4207C88.6902 87.4033 88.9988 86.2491 89 85.0739Z" fill="url(#paint0_linear_1980_35137)" stroke="#3C3C3C" stroke-width="1.5" stroke-linecap="round" stroke-linejoin="round"/>
<g clip-path="url(#clip0_1980_35137)">
<path d="M64.6551 74.6771C64.8401 72.6332 64.1044 70.9002 63.589 69.9663C63.4203 69.6604 63.0498 69.7712 63.0014 70.1287L62.9468 70.5309C62.8243 71.4346 62.3379 72.2197 61.6334 72.6508C61.33 72.8364 60.965 72.4668 61.0656 72.09C61.2425 71.4275 61.4196 70.5668 61.4196 69.7768C61.4196 66.5758 59.1251 62.8108 56.5227 62.5365C56.3506 62.5137 56.2548 62.7422 56.3506 62.9024C57.2882 64.3656 57.1925 66.492 56.0636 67.8409L54.7816 69.3728C53.8057 70.5388 53.1934 72.1621 53.1934 73.9455C53.1934 77.8095 55.8723 80.9189 59.1252 80.8046C61.9763 80.7131 64.3489 78.0609 64.6551 74.6771Z" fill="white"/>
</g>
<g clip-path="url(#clip1_1980_35137)">
<path d="M116.928 59.6812C129.63 59.6812 139.928 49.3837 139.928 36.6812C139.928 23.9786 129.63 13.6812 116.928 13.6812C104.225 13.6812 93.9277 23.9786 93.9277 36.6812C93.9277 49.3837 104.225 59.6812 116.928 59.6812Z" fill="#FDDE00"/>
<path d="M105.732 29.9424C105.732 29.9424 104.543 31.44 104.939 38.2232C104.939 38.2232 102.34 44.8742 103.221 48.2658C104.102 51.6574 107.538 51.4812 107.538 51.4812C107.538 51.4812 113.044 56.3264 117.272 52.0538C121.501 47.7813 113.748 31.2197 113.748 31.2197L112.779 25.4937C112.779 25.4937 111.722 26.3305 111.854 31.8364C111.987 37.3422 109.696 33.4661 109.696 33.4661L105.732 29.9424Z" fill="#3C2D0C"/>
<path d="M106.173 35.9328L104.719 40.0291L104.191 42.8922C104.191 42.8922 102.385 49.2789 109.829 49.1908C109.829 49.1908 115.643 54.3884 119.431 50.9087L120.444 49.8075L122.206 47.0766L125.113 38.3994C125.113 38.3994 124.188 32.4531 118.33 29.9865C118.33 29.9865 117.845 29.7222 116.964 30.0746C116.964 30.0746 114.542 24.6128 113 25.2735C113 25.2735 111.679 25.9782 112.824 31.3519L110.754 32.2769C110.754 32.2769 108.489 27.9837 106.393 28.8413C104.455 29.6341 106.173 35.9328 106.173 35.9328Z" fill="#E78C19"/>
<path d="M113.706 27.9604L113.882 30.3389C113.882 30.3389 114.014 31.7043 115.468 31.2198C115.878 31.0829 116.239 30.7968 116.201 30.3272C116.173 29.9755 115.927 29.6571 115.767 29.3538C115.468 28.7857 115.229 28.183 114.881 27.642C114.703 27.3642 114.337 26.7427 113.926 26.8152C113.926 26.8152 113.623 26.7271 113.706 27.9604Z" fill="#EFB99D"/>
<path d="M107.336 30.6307C107.364 30.6125 107.956 29.8628 109.186 31.6795C110.417 33.4964 110.293 33.2569 110.293 33.2569C110.293 33.2569 110.954 33.9837 109.599 34.917C109.304 35.1357 108.982 35.3156 108.641 35.4524C108.429 35.5375 108.203 35.5809 107.974 35.58C107.717 35.5677 107.602 35.4364 107.538 35.1945C107.33 34.4016 107.095 33.613 106.977 32.8006C106.887 32.1882 106.708 31.0419 107.336 30.6307Z" fill="#EFB99D"/>
<path d="M121.642 34.2914C121.642 34.7232 121.011 35.0732 120.232 35.0732C119.454 35.0732 118.822 34.7232 118.822 34.2914C118.822 33.8596 119.467 33.2239 120.246 33.2239C121.024 33.2239 121.642 33.8596 121.642 34.2914Z" fill="#FBFBFB"/>
<path d="M113.511 37.6635C113.93 36.9232 113.886 36.106 113.413 35.8383C112.94 35.5706 112.217 35.9537 111.798 36.694C111.379 37.4343 111.423 38.2514 111.896 38.5192C112.369 38.7869 113.092 38.4038 113.511 37.6635Z" fill="#FBFBFB"/>
<path d="M115.511 41.2404L119.365 39.2362C119.365 39.2362 124.166 36.7256 125.333 38.6636C126.5 40.6017 125.333 43.5528 125.333 43.5528C125.333 43.5528 124.827 47.0105 121.303 47.3188L119.409 47.5831L116.986 47.6492C116.986 47.6492 113.088 47.8694 110.225 45.7551L109.322 44.654C109.322 44.654 107.494 42.1433 108.772 40.3374C110.049 38.5315 114.41 41.3284 114.41 41.3284C114.41 41.3284 115.004 41.6368 115.511 41.2404Z" fill="#FBFBFB"/>
<path d="M124.253 31.2418C124.764 31.2418 125.178 30.8277 125.178 30.3168C125.178 29.806 124.764 29.3918 124.253 29.3918C123.742 29.3918 123.328 29.806 123.328 30.3168C123.328 30.8277 123.742 31.2418 124.253 31.2418Z" fill="#E72D36"/>
<path d="M122.206 28.9734C122.717 28.9734 123.131 28.5592 123.131 28.0484C123.131 27.5375 122.717 27.1234 122.206 27.1234C121.695 27.1234 121.281 27.5375 121.281 28.0484C121.281 28.5592 121.695 28.9734 122.206 28.9734Z" fill="#E72D36"/>
<path d="M118.925 28.2466C119.436 28.2466 119.85 27.8324 119.85 27.3216C119.85 26.8107 119.436 26.3966 118.925 26.3966C118.414 26.3966 118 26.8107 118 27.3216C118 27.8324 118.414 28.2466 118.925 28.2466Z" fill="#E72D36"/>
<path d="M119.651 20.7586C119.849 23.4895 119.455 25.9562 118.792 25.9562C118.129 25.9562 117.25 23.2913 117.25 20.7586C117.25 19.7126 117.798 19.5474 118.461 19.5474C119.124 19.5474 119.575 19.7154 119.651 20.7586Z" fill="#E72D36"/>
<path d="M125.778 22.463C124.771 25.0089 123.345 27.0596 122.748 26.7718C122.151 26.4841 122.516 23.7022 123.616 21.4209C124.07 20.4787 124.636 20.5679 125.233 20.8557C125.83 21.1434 126.163 21.4904 125.778 22.463Z" fill="#E72D36"/>
<path d="M130.159 27.4147C127.942 29.0233 125.637 29.9889 125.288 29.4255C124.938 28.8621 126.74 26.7099 128.893 25.3744C129.783 24.8228 130.212 25.2017 130.561 25.7652C130.911 26.3286 131.005 26.8002 130.159 27.4147Z" fill="#E72D36"/>
<path d="M115.328 38.5533C115.245 38.5598 115.164 38.5702 115.086 38.5838C115.096 38.6117 115.101 38.641 115.102 38.6706C115.102 38.9525 114.663 39.1822 114.112 39.1976C114.108 39.2213 114.107 39.2454 114.108 39.2693C114.135 39.6104 114.724 39.8428 115.424 39.7884C116.124 39.734 116.671 39.4135 116.644 39.0724C116.618 38.7313 116.029 38.4989 115.328 38.5533Z" fill="black"/>
<path d="M120.201 37.3475C120.118 37.354 120.037 37.3644 119.959 37.378C119.969 37.4059 119.974 37.4352 119.975 37.4648C119.975 37.7467 119.536 37.9764 118.985 37.9918C118.981 38.0155 118.98 38.0396 118.981 38.0635C119.008 38.4046 119.597 38.637 120.297 38.5826C120.997 38.5282 121.544 38.2076 121.517 37.8666C121.491 37.5255 120.902 37.2931 120.201 37.3475Z" fill="black"/>
<path d="M121.798 38.7738C121.798 38.7738 119.866 39.3354 119.982 40.4256C120.097 41.5157 122.426 42.0773 122.426 42.0773C122.426 42.0773 123.054 42.3251 123.417 41.7305C123.781 41.1358 124.309 40.3265 124.16 39.1703C124.16 39.1703 124.111 38.3113 121.798 38.7738Z" fill="black"/>
</g>
<defs>
<linearGradient id="paint0_linear_1980_35137" x1="89" y1="71.0621" x2="29" y2="71.0621" gradientUnits="userSpaceOnUse">
<stop stop-color="#FF8C15"/>
<stop offset="1" stop-color="#C5374E"/>
</linearGradient>
<clipPath id="clip0_1980_35137">
<rect width="19.1515" height="24.3636" fill="white" transform="translate(49.3633 59.4894)"/>
</clipPath>
<clipPath id="clip1_1980_35137">
<rect width="46" height="46" fill="white" transform="translate(93.9277 13.6812)"/>
</clipPath>
</defs>
</svg>
