<svg width="82" height="89" viewBox="0 0 82 89" fill="none" xmlns="http://www.w3.org/2000/svg">
<g id="Vaults icons" filter="url(#filter0_d_337_15126)">
<path id="Vector" d="M71 53.9027V27.0972C70.9988 25.9221 70.6902 24.7679 70.1051 23.7505C69.5201 22.733 68.6791 21.8881 67.6667 21.3006L44.3333 7.89781C43.3199 7.30965 42.1702 7 41 7C39.8298 7 38.6801 7.30965 37.6667 7.89781L14.3333 21.3006C13.3209 21.8881 12.4799 22.733 11.8949 23.7505C11.3098 24.7679 11.0012 25.9221 11 27.0972V53.9027C11.0012 55.0779 11.3098 56.2321 11.8949 57.2495C12.4799 58.267 13.3209 59.1119 14.3333 59.6994L37.6667 73.1022C38.6801 73.6903 39.8298 74 41 74C42.1702 74 43.3199 73.6903 44.3333 73.1022L67.6667 59.6994C68.6791 59.1119 69.5201 58.267 70.1051 57.2495C70.6902 56.2321 70.9988 55.0779 71 53.9027Z" fill="url(#paint0_linear_337_15126)"/>
<path id="Vector_2" d="M49.9543 44.6125C50.2441 41.8161 49.0916 39.445 48.2844 38.1673C48.02 37.7488 47.4397 37.9004 47.3638 38.3896L47.2784 38.9398C47.0865 40.1762 46.3244 41.2504 45.221 41.8401C44.7456 42.0941 44.1739 41.5883 44.3315 41.0729C44.6086 40.1665 44.8861 38.9889 44.8861 37.908C44.8861 33.5286 41.2918 28.3775 37.2153 28.0022C36.9456 27.971 36.7957 28.2836 36.9456 28.5027C38.4144 30.5046 38.2645 33.4139 36.4961 35.2594L34.4878 37.3553C32.9593 38.9505 32 41.1716 32 43.6115C32 48.8981 36.1964 53.1523 41.2919 52.9958C45.7581 52.8707 49.4747 49.242 49.9543 44.6125Z" fill="white"/>
</g>
<defs>
<filter id="filter0_d_337_15126" x="0" y="0" width="82" height="89" filterUnits="userSpaceOnUse" color-interpolation-filters="sRGB">
<feFlood flood-opacity="0" result="BackgroundImageFix"/>
<feColorMatrix in="SourceAlpha" type="matrix" values="0 0 0 0 0 0 0 0 0 0 0 0 0 0 0 0 0 0 127 0" result="hardAlpha"/>
<feOffset dy="4"/>
<feGaussianBlur stdDeviation="5.5"/>
<feComposite in2="hardAlpha" operator="out"/>
<feColorMatrix type="matrix" values="0 0 0 0 0.968627 0 0 0 0 0.576471 0 0 0 0 0.101961 0 0 0 0.5 0"/>
<feBlend mode="normal" in2="BackgroundImageFix" result="effect1_dropShadow_337_15126"/>
<feBlend mode="normal" in="SourceGraphic" in2="effect1_dropShadow_337_15126" result="shape"/>
</filter>
<linearGradient id="paint0_linear_337_15126" x1="11" y1="26.5" x2="74.5856" y2="38.4991" gradientUnits="userSpaceOnUse">
<stop stop-color="#F7931A"/>
<stop offset="1" stop-color="#C83D56"/>
</linearGradient>
</defs>
</svg>
