<svg width="52" height="57" viewBox="0 0 52 57" fill="none" xmlns="http://www.w3.org/2000/svg">
<path d="M50.9394 39.4598V17.4553C50.9384 16.4906 50.6812 15.5431 50.1937 14.7079C49.7061 13.8727 49.0053 13.1791 48.1616 12.6968L28.7172 1.69453C27.8726 1.21171 26.9146 0.95752 25.9394 0.95752C24.9642 0.95752 24.0062 1.21171 23.1616 1.69453L3.71717 12.6968C2.87345 13.1791 2.17267 13.8727 1.68512 14.7079C1.19757 15.5431 0.940391 16.4906 0.939392 17.4553V39.4598C0.940391 40.4245 1.19757 41.3719 1.68512 42.2071C2.17267 43.0423 2.87345 43.7359 3.71717 44.2183L23.1616 55.2205C24.0062 55.7033 24.9642 55.9575 25.9394 55.9575C26.9146 55.9575 27.8726 55.7033 28.7172 55.2205L48.1616 44.2183C49.0053 43.7359 49.7061 43.0423 50.1937 42.2071C50.6812 41.3719 50.9384 40.4245 50.9394 39.4598Z" fill="url(#paint0_linear_1747_31576)" stroke="#3C3C3C" stroke-width="1.5" stroke-linecap="round" stroke-linejoin="round"/>
<path d="M31.5951 30.925C31.78 29.2472 31.0443 27.8245 30.529 27.0579C30.3602 26.8068 29.9898 26.8978 29.9413 27.1913L29.8868 27.5214C29.7643 28.2632 29.2778 28.9077 28.5734 29.2616C28.2699 29.414 27.905 29.1105 28.0056 28.8012C28.1824 28.2574 28.3596 27.5509 28.3596 26.9023C28.3596 24.2747 26.065 21.184 23.4627 20.9588C23.2905 20.9401 23.1948 21.1277 23.2905 21.2591C24.2282 22.4603 24.1325 24.2059 23.0036 25.3132L21.7215 26.5707C20.7457 27.5278 20.1333 28.8605 20.1333 30.3244C20.1333 33.4964 22.8122 36.0489 26.0651 35.955C28.9163 35.8799 31.2889 33.7027 31.5951 30.925Z" fill="white"/>
<defs>
<linearGradient id="paint0_linear_1747_31576" x1="50.9394" y1="27.9575" x2="0.939392" y2="27.9575" gradientUnits="userSpaceOnUse">
<stop stop-color="#FF8C15"/>
<stop offset="1" stop-color="#C5374E"/>
</linearGradient>
</defs>
</svg>
