<svg width="52" height="58" viewBox="0 0 52 58" fill="none" xmlns="http://www.w3.org/2000/svg">
<path d="M51.0727 40.1446V18.1401C51.0717 17.1754 50.8145 16.2279 50.327 15.3927C49.8394 14.5575 49.1387 13.8639 48.2949 13.3816L28.8505 2.37935C28.0059 1.89652 27.0479 1.64233 26.0727 1.64233C25.0975 1.64233 24.1395 1.89652 23.2949 2.37935L3.8505 13.3816C3.00679 13.8639 2.306 14.5575 1.81845 15.3927C1.3309 16.2279 1.07372 17.1754 1.07272 18.1401V40.1446C1.07372 41.1093 1.3309 42.0568 1.81845 42.892C2.306 43.7272 3.00679 44.4207 3.8505 44.9031L23.2949 55.9053C24.1395 56.3881 25.0975 56.6423 26.0727 56.6423C27.0479 56.6423 28.0059 56.3881 28.8505 55.9053L48.2949 44.9031C49.1387 44.4207 49.8394 43.7272 50.327 42.892C50.8145 42.0568 51.0717 41.1093 51.0727 40.1446Z" fill="url(#paint0_linear_1309_37242)" stroke="white" stroke-width="1.5" stroke-linecap="round" stroke-linejoin="round"/>
<path d="M31.7284 31.6098C31.9134 29.932 31.1777 28.5093 30.6623 27.7427C30.4936 27.4916 30.1231 27.5826 30.0747 27.8761L30.0201 28.2062C29.8976 28.948 29.4112 29.5925 28.7067 29.9464C28.4033 30.0988 28.0383 29.7953 28.1389 29.4861C28.3158 28.9422 28.4929 28.2357 28.4929 27.5871C28.4929 24.9595 26.1984 21.8688 23.596 21.6436C23.4239 21.6249 23.3282 21.8125 23.4239 21.944C24.3615 23.1451 24.2658 24.8907 23.1369 25.998L21.8549 27.2555C20.879 28.2127 20.2667 29.5453 20.2667 31.0092C20.2667 34.1812 22.9456 36.7337 26.1985 36.6398C29.0496 36.5648 31.4222 34.3876 31.7284 31.6098Z" fill="white"/>
<defs>
<linearGradient id="paint0_linear_1309_37242" x1="51.0727" y1="28.6423" x2="1.07272" y2="28.6423" gradientUnits="userSpaceOnUse">
<stop stop-color="#FF8C15"/>
<stop offset="1" stop-color="#C5374E"/>
</linearGradient>
</defs>
</svg>
