<svg width="20" height="22" viewBox="0 0 20 22" fill="none" xmlns="http://www.w3.org/2000/svg">
<g id="Vaults icons">
<path id="Vector" d="M19.5 15.2009V6.79914C19.4996 6.4308 19.4019 6.06904 19.2166 5.75014C19.0314 5.43125 18.7651 5.16643 18.4444 4.98227L11.0556 0.781404C10.7346 0.597053 10.3706 0.5 10 0.5C9.62942 0.5 9.26537 0.597053 8.94444 0.781404L1.55556 4.98227C1.23494 5.16643 0.968646 5.43125 0.783376 5.75014C0.598106 6.06904 0.50038 6.4308 0.5 6.79914V15.2009C0.50038 15.5692 0.598106 15.931 0.783376 16.2499C0.968646 16.5688 1.23494 16.8336 1.55556 17.0177L8.94444 21.2186C9.26537 21.4029 9.62942 21.5 10 21.5C10.3706 21.5 10.7346 21.4029 11.0556 21.2186L18.4444 17.0177C18.7651 16.8336 19.0314 16.5688 19.2166 16.2499C19.4019 15.931 19.4996 15.5692 19.5 15.2009Z" fill="url(#paint0_linear_500_14531)"/>
<path id="Vector_2" d="M12.9848 12.316C13.0814 11.4211 12.6972 10.6624 12.4281 10.2535C12.34 10.1196 12.1466 10.1681 12.1213 10.3247L12.0928 10.5007C12.0288 10.8964 11.7748 11.2401 11.407 11.4288C11.2485 11.5101 11.058 11.3483 11.1105 11.1833C11.2029 10.8933 11.2954 10.5165 11.2954 10.1706C11.2954 8.76915 10.0973 7.12079 8.73844 7.00069C8.64853 6.99071 8.59856 7.09076 8.64853 7.16087C9.13814 7.80149 9.08816 8.73245 8.49869 9.32302L7.82928 9.99369C7.31976 10.5042 7 11.2149 7 11.9957C7 13.6874 8.3988 15.0487 10.0973 14.9987C11.586 14.9586 12.8249 13.7974 12.9848 12.316Z" fill="white"/>
</g>
<defs>
<linearGradient id="paint0_linear_500_14531" x1="0.5" y1="4.5" x2="21.5061" y2="11.331" gradientUnits="userSpaceOnUse">
<stop stop-color="#F7931A"/>
<stop offset="1" stop-color="#C83D56"/>
</linearGradient>
</defs>
</svg>
