<svg width="174" height="170" viewBox="0 0 174 170" fill="none" xmlns="http://www.w3.org/2000/svg">
<path d="M118.223 102.792V74.3654C118.222 73.1191 117.896 71.8951 117.279 70.8161C116.662 69.7372 115.775 68.8412 114.708 68.2181L90.0996 54.0046C89.0308 53.3809 87.8184 53.0525 86.5842 53.0525C85.35 53.0525 84.1376 53.3809 83.0688 54.0046L58.4607 68.2181C57.393 68.8412 56.5061 69.7372 55.8891 70.8161C55.272 71.8951 54.9466 73.1191 54.9453 74.3654V102.792C54.9466 104.039 55.272 105.263 55.8891 106.342C56.5061 107.42 57.393 108.316 58.4607 108.94L83.0688 123.153C84.1376 123.777 85.35 124.105 86.5842 124.105C87.8184 124.105 89.0308 123.777 90.0996 123.153L114.708 108.94C115.775 108.316 116.662 107.42 117.279 106.342C117.896 105.263 118.222 104.039 118.223 102.792Z" fill="url(#paint0_linear_452_26586)"/>
<path d="M96.027 92.9401C96.3325 89.9745 95.1171 87.4601 94.2658 86.105C93.9869 85.6612 93.375 85.8221 93.2949 86.3408L93.2048 86.9243C93.0024 88.2354 92.1988 89.3746 91.0351 90C90.5337 90.2694 89.9308 89.733 90.097 89.1864C90.3892 88.2252 90.6818 86.9764 90.6818 85.8301C90.6818 81.1858 86.8912 75.7231 82.592 75.3251C82.3076 75.292 82.1495 75.6236 82.3076 75.8559C83.8566 77.9789 83.6985 81.0641 81.8335 83.0213L79.7155 85.2439C78.1035 86.9357 77.0918 89.291 77.0918 91.8785C77.0918 97.4849 81.5174 101.996 86.8913 101.831C91.6015 101.698 95.5211 97.8497 96.027 92.9401Z" fill="white"/>
<g filter="url(#filter0_f_452_26586)">
<ellipse cx="87.056" cy="158.21" rx="79.3333" ry="3.78948" fill="black" fill-opacity="0.3"/>
</g>
<g clip-path="url(#clip0_452_26586)">
<path d="M86.1096 37.8948C96.5416 37.8948 104.998 29.4117 104.998 18.9474C104.998 8.48303 96.5416 0 86.1096 0C75.6775 0 67.2207 8.48303 67.2207 18.9474C67.2207 29.4117 75.6775 37.8948 86.1096 37.8948Z" fill="#FDDE00"/>
<path d="M76.9167 13.3961C76.9167 13.3961 75.94 14.6298 76.2655 20.2178C76.2655 20.2178 74.1313 25.6969 74.8548 28.4909C75.5782 31.2849 78.3998 31.1397 78.3998 31.1397C78.3998 31.1397 82.9215 35.1312 86.3941 31.6115C89.8668 28.0917 83.5003 14.4483 83.5003 14.4483L82.7044 9.7312C82.7044 9.7312 81.8363 10.4206 81.9448 14.9563C82.0533 19.492 80.1723 16.2989 80.1723 16.2989L76.9167 13.3961Z" fill="#3C2D0C"/>
<path d="M77.2763 18.331L76.0826 21.7055L75.6485 24.0641C75.6485 24.0641 74.1654 29.3255 80.2788 29.2529C80.2788 29.2529 85.0537 33.5347 88.1646 30.6681L88.9966 29.7609L90.4436 27.5112L92.831 20.363C92.831 20.363 92.0714 15.4644 87.2603 13.4324C87.2603 13.4324 86.8624 13.2147 86.1389 13.505C86.1389 13.505 84.1493 9.00554 82.8833 9.54983C82.8833 9.54983 81.7981 10.1304 82.7386 14.5573L81.0384 15.3192C81.0384 15.3192 79.1788 11.7825 77.4572 12.489C75.8656 13.1421 77.2763 18.331 77.2763 18.331Z" fill="#E78C19"/>
<path d="M83.4629 11.7632L83.6076 13.7226C83.6076 13.7226 83.7161 14.8475 84.9098 14.4483C85.2472 14.3355 85.5436 14.0998 85.5124 13.7129C85.489 13.4232 85.2873 13.161 85.1561 12.911C84.9105 12.4431 84.7137 11.9466 84.4281 11.5009C84.2819 11.272 83.981 10.76 83.6438 10.8197C83.6438 10.8197 83.3951 10.7472 83.4629 11.7632Z" fill="#EFB99D"/>
<path d="M78.2338 13.963C78.2566 13.948 78.7426 13.3304 79.7531 14.8271C80.7637 16.3239 80.6619 16.1266 80.6619 16.1266C80.6619 16.1266 81.2046 16.7253 80.0922 17.4941C79.8498 17.6743 79.5853 17.8225 79.3052 17.9352C79.1312 18.0053 78.9454 18.041 78.7578 18.0403C78.5467 18.0302 78.4516 17.922 78.3995 17.7227C78.2285 17.0695 78.036 16.4199 77.9384 15.7506C77.8648 15.2461 77.7179 14.3018 78.2338 13.963Z" fill="#EFB99D"/>
<path d="M89.9818 16.9788C89.9818 17.3345 89.4634 17.6229 88.8239 17.6229C88.1844 17.6229 87.666 17.3345 87.666 16.9788C87.666 16.6231 88.1954 16.0994 88.8349 16.0994C89.4744 16.0994 89.9818 16.6231 89.9818 16.9788Z" fill="#FBFBFB"/>
<path d="M83.3052 19.7567C83.6493 19.1468 83.6133 18.4736 83.2248 18.2531C82.8363 18.0325 82.2425 18.3481 81.8984 18.958C81.5543 19.5679 81.5903 20.241 81.9788 20.4616C82.3673 20.6821 82.9612 20.3665 83.3052 19.7567Z" fill="#FBFBFB"/>
<path d="M84.9459 22.7033L88.1111 21.0523C88.1111 21.0523 92.054 18.984 93.0126 20.5806C93.9712 22.1772 93.0126 24.6083 93.0126 24.6083C93.0126 24.6083 92.5966 27.4567 89.7027 27.7107L88.1473 27.9284L86.1577 27.9829C86.1577 27.9829 82.9563 28.1643 80.6051 26.4226L79.8635 25.5154C79.8635 25.5154 78.3623 23.4472 79.4113 21.9595C80.4604 20.4717 84.0416 22.7759 84.0416 22.7759C84.0416 22.7759 84.5299 23.0299 84.9459 22.7033Z" fill="#FBFBFB"/>
<path d="M92.1268 14.4666C92.5464 14.4666 92.8865 14.1255 92.8865 13.7046C92.8865 13.2838 92.5464 12.9426 92.1268 12.9426C91.7073 12.9426 91.3672 13.2838 91.3672 13.7046C91.3672 14.1255 91.7073 14.4666 92.1268 14.4666Z" fill="#E72D36"/>
<path d="M90.4432 12.5977C90.8628 12.5977 91.2029 12.2566 91.2029 11.8357C91.2029 11.4149 90.8628 11.0737 90.4432 11.0737C90.0237 11.0737 89.6836 11.4149 89.6836 11.8357C89.6836 12.2566 90.0237 12.5977 90.4432 12.5977Z" fill="#E72D36"/>
<path d="M87.7499 11.9991C88.1694 11.9991 88.5095 11.6579 88.5095 11.2371C88.5095 10.8163 88.1694 10.4751 87.7499 10.4751C87.3303 10.4751 86.9902 10.8163 86.9902 11.2371C86.9902 11.6579 87.3303 11.9991 87.7499 11.9991Z" fill="#E72D36"/>
<path d="M88.3465 5.83062C88.5092 8.08033 88.1855 10.1123 87.6411 10.1123C87.0967 10.1123 86.375 7.91705 86.375 5.83062C86.375 4.9689 86.8254 4.83276 87.3698 4.83276C87.9142 4.83276 88.2843 4.97116 88.3465 5.83062Z" fill="#E72D36"/>
<path d="M93.3772 7.23449C92.5501 9.33181 91.3789 11.0212 90.8884 10.7841C90.398 10.547 90.6981 8.25536 91.6012 6.376C91.9742 5.59981 92.4388 5.6733 92.9293 5.91036C93.4197 6.14743 93.6932 6.43325 93.3772 7.23449Z" fill="#E72D36"/>
<path d="M96.9754 11.3138C95.1548 12.6389 93.2622 13.4344 92.9752 12.9703C92.6883 12.5061 94.1683 10.7332 95.9364 9.63295C96.6667 9.17854 97.0194 9.49074 97.3063 9.95489C97.5932 10.419 97.671 10.8076 96.9754 11.3138Z" fill="#E72D36"/>
<path d="M84.7955 20.4897C84.7273 20.495 84.661 20.5036 84.5969 20.5147C84.6049 20.5378 84.6091 20.5619 84.6095 20.5863C84.6095 20.8185 84.2496 21.0077 83.7964 21.0205C83.7932 21.04 83.7922 21.0598 83.7935 21.0795C83.8153 21.3605 84.2992 21.5519 84.8743 21.5071C85.4494 21.4623 85.898 21.1983 85.8763 20.9173C85.8546 20.6363 85.3707 20.4449 84.7955 20.4897Z" fill="black"/>
<path d="M88.7975 19.4962C88.7293 19.5016 88.663 19.5102 88.5989 19.5213C88.6068 19.5444 88.6111 19.5685 88.6115 19.5928C88.6115 19.8251 88.2515 20.0143 87.7984 20.0271C87.7951 20.0466 87.7942 20.0664 87.7955 20.0861C87.8172 20.3671 88.3011 20.5585 88.8762 20.5137C89.4514 20.4689 89.9 20.2048 89.8783 19.9239C89.8565 19.6429 89.3726 19.4514 88.7975 19.4962Z" fill="black"/>
<path d="M90.1095 20.6715C90.1095 20.6715 88.5224 21.1341 88.6174 22.0322C88.7123 22.9303 90.625 23.3929 90.625 23.3929C90.625 23.3929 91.1405 23.597 91.4389 23.1072C91.7374 22.6173 92.1714 21.9506 92.0494 20.9981C92.0494 20.9981 92.0087 20.2905 90.1095 20.6715Z" fill="black"/>
</g>
<path d="M172.433 65.2152C169.91 75.3657 159.66 81.5431 149.539 79.0118C139.421 76.4813 133.262 66.1998 135.786 56.0502C138.308 45.8986 148.559 39.7207 158.677 42.2513C168.798 44.7819 174.956 55.0644 172.433 65.2154L172.433 65.2152H172.433Z" fill="#F7931A"/>
<path d="M161.206 58.2303C161.521 56.1066 159.921 54.9651 157.732 54.2036L158.442 51.3269L156.709 50.8905L156.018 53.6915C155.563 53.5767 155.095 53.4685 154.63 53.3612L155.326 50.5418L153.594 50.1055L152.883 52.9812C152.506 52.8945 152.136 52.8088 151.777 52.7184L151.779 52.7094L149.389 52.1064L148.928 53.9767C148.928 53.9767 150.213 54.2745 150.186 54.2928C150.888 54.4698 151.015 54.9392 150.994 55.3113L150.185 58.5885C150.234 58.6009 150.296 58.6188 150.366 58.6469C150.308 58.6324 150.246 58.6166 150.182 58.6011L149.049 63.192C148.963 63.4075 148.746 63.7308 148.255 63.608C148.272 63.6334 146.995 63.2904 146.995 63.2904L146.135 65.2949L148.39 65.8629C148.81 65.9692 149.221 66.0805 149.626 66.1851L148.909 69.0947L150.64 69.5311L151.35 66.6523C151.823 66.782 152.282 66.9017 152.731 67.0145L152.023 69.8797L153.757 70.316L154.474 67.4118C157.429 67.9769 159.651 67.7491 160.586 65.0482C161.34 62.8737 160.549 61.6194 158.994 60.8015C160.127 60.5376 160.98 59.7851 161.207 58.2305L161.206 58.2301L161.206 58.2303ZM157.247 63.8406C156.711 66.0151 153.087 64.8396 151.913 64.5449L152.864 60.6901C154.039 60.9864 157.806 61.5728 157.247 63.8406H157.247ZM157.783 58.1988C157.294 60.1767 154.278 59.1718 153.3 58.9254L154.163 55.4294C155.141 55.6758 158.292 56.1357 157.783 58.1988H157.783Z" fill="white"/>
<ellipse cx="21.8889" cy="60.6317" rx="18.8889" ry="18.9474" fill="black"/>
<path d="M16.6047 64.3464C16.7063 64.2436 16.8428 64.1858 16.9857 64.1858H30.211C30.4523 64.1858 30.573 64.4814 30.4015 64.6516L27.7882 67.2925C27.6866 67.3953 27.5501 67.4531 27.4072 67.4531H14.1851C13.9438 67.4531 13.8231 67.1576 13.9946 66.9873L16.6047 64.3464Z" fill="url(#paint1_linear_452_26586)"/>
<path d="M16.6047 54.4768C16.7063 54.374 16.8428 54.3162 16.9857 54.3162H30.211C30.4523 54.3162 30.573 54.6117 30.4015 54.782L27.7882 57.4229C27.6866 57.5257 27.5501 57.5835 27.4072 57.5835H14.1851C13.9438 57.5835 13.8231 57.288 13.9946 57.1177L16.6047 54.4768Z" fill="url(#paint2_linear_452_26586)"/>
<path d="M27.7882 59.3799C27.6866 59.2771 27.5501 59.2192 27.4072 59.2192H14.1851C13.9438 59.2192 13.8231 59.5148 13.9946 59.6851L16.6079 62.326C16.7095 62.4288 16.846 62.4866 16.9889 62.4866H30.2142C30.4555 62.4866 30.5762 62.191 30.4047 62.0208L27.7882 59.3799Z" fill="url(#paint3_linear_452_26586)"/>
<defs>
<filter id="filter0_f_452_26586" x="0.1671" y="146.865" width="173.777" height="22.6902" filterUnits="userSpaceOnUse" color-interpolation-filters="sRGB">
<feFlood flood-opacity="0" result="BackgroundImageFix"/>
<feBlend mode="normal" in="SourceGraphic" in2="BackgroundImageFix" result="shape"/>
<feGaussianBlur stdDeviation="3.77778" result="effect1_foregroundBlur_452_26586"/>
</filter>
<linearGradient id="paint0_linear_452_26586" x1="54.9453" y1="73.732" x2="122.03" y2="86.3215" gradientUnits="userSpaceOnUse">
<stop stop-color="#F7931A"/>
<stop offset="1" stop-color="#C83D56"/>
</linearGradient>
<linearGradient id="paint1_linear_452_26586" x1="28.9483" y1="52.7382" x2="19.6265" y2="70.3852" gradientUnits="userSpaceOnUse">
<stop stop-color="#00FFA3"/>
<stop offset="1" stop-color="#DC1FFF"/>
</linearGradient>
<linearGradient id="paint2_linear_452_26586" x1="24.9465" y1="50.6243" x2="15.6247" y2="68.2712" gradientUnits="userSpaceOnUse">
<stop stop-color="#00FFA3"/>
<stop offset="1" stop-color="#DC1FFF"/>
</linearGradient>
<linearGradient id="paint3_linear_452_26586" x1="26.9346" y1="51.6749" x2="17.6129" y2="69.3219" gradientUnits="userSpaceOnUse">
<stop stop-color="#00FFA3"/>
<stop offset="1" stop-color="#DC1FFF"/>
</linearGradient>
<clipPath id="clip0_452_26586">
<rect width="37.7778" height="37.8948" fill="white" transform="translate(67.2207)"/>
</clipPath>
</defs>
</svg>
