<svg width="84" height="85" viewBox="0 0 84 85" fill="none" xmlns="http://www.w3.org/2000/svg">
    <path fill-rule="evenodd" clip-rule="evenodd" d="m46.391 6.935 6.673 16.016-14.327 6.805a3 3 0 0 0-1.198 4.391l7.877 11.645-14.642 6.972a3 3 0 0 0-.935 4.721l5.971 6.6-9.836 10.254-22.84-6.334a4.275 4.275 0 0 1-2.977-5.262l16.53-59.61A4.275 4.275 0 0 1 21.95.158L46.39 6.935zm4.9 1.359 5.832 13.997a3 3 0 0 1-1.482 3.864L41.504 32.87l7.877 11.643a3 3 0 0 1-1.195 4.39l-14.48 6.895 5.695 6.294a3 3 0 0 1-.06 4.09l-8.989 9.371 31.278 8.674a4.275 4.275 0 0 0 5.262-2.977l16.532-59.609a4.275 4.275 0 0 0-2.978-5.262L51.291 8.294z" fill="#636363"/>
    <path d="m23.581 68.759 5.985 1.66 5.985-6.294-.964-1.158L23.58 68.76zM57.715 53.48a2.723 2.723 0 0 0-3.605-1.011l-15.994 8.663.226.226a4 4 0 0 1 .062 5.594l-4.563 4.77 28.023 7.772a2.724 2.724 0 0 0 3.353-1.897l1.88-6.783c.2-.718.096-1.486-.286-2.126l-9.096-15.207z" fill="#262626"/>
    <path d="M4.937 58.993a4.54 4.54 0 0 0 3.16 5.587l21.468 5.91 6.413-6.365-5.987-6.885a3 3 0 0 1 .947-4.663l3.672-1.796L28.591 39.9a2.724 2.724 0 0 0-3.733-1.071L7.866 48.432l-2.93 10.561z" fill="#383838"/>
    <path d="M69.815 36.837a6.128 6.128 0 1 1-11.81-3.276 6.128 6.128 0 0 1 11.81 3.276z" fill="#393939"/>
    <path d="m34.268 71.784 14.108 3.884L36.684 54.53l-2.843 1.301 4.986 6.449a3 3 0 0 1-.01 3.682l-4.549 5.822z" fill="#383838"/>
</svg>
