<svg width="22" height="14" viewBox="0 0 22 14" fill="none" xmlns="http://www.w3.org/2000/svg">
<path d="M21.8159 0.667743C21.8977 0.370934 21.6276 0.0968178 21.3296 0.174288L15.3119 1.73882C15.0143 1.81619 14.9116 2.18642 15.1269 2.40598L16.4177 3.72254L9.72939 10.3243L6.67217 7.46814C6.18128 7.0089 5.4186 7.01291 4.93196 7.47691L0.395595 11.8016C-0.113276 12.2864 -0.134011 13.0928 0.349629 13.6032C0.599193 13.8671 0.934443 14 1.27069 14C1.58471 14 1.89947 13.8837 2.14504 13.6493L5.81581 10.1504L8.88827 13.0209C9.38615 13.4864 10.1603 13.4753 10.6445 12.9968L18.1991 5.53969L19.487 6.85333C19.7029 7.07354 20.0763 6.97692 20.1582 6.67963L21.8159 0.667743Z" fill="#50BB35"/>
</svg>
