<svg width="20" height="20" viewBox="0 0 20 20" fill="none" xmlns="http://www.w3.org/2000/svg">
<path d="M20 10C20 15.5228 15.5228 20 10 20C4.47715 20 0 15.5228 0 10C0 4.47715 4.47715 0 10 0C15.5228 0 20 4.47715 20 10Z" fill="white"/>
<path d="M10.988 8.775V13.325C10.988 13.6035 10.8774 13.8705 10.6805 14.0675C10.4835 14.2644 10.2165 14.375 9.938 14.375C9.65952 14.375 9.39245 14.2644 9.19554 14.0675C8.99862 13.8705 8.888 13.6035 8.888 13.325V9.825H8.825C8.63935 9.825 8.4613 9.75125 8.33003 9.61997C8.19875 9.4887 8.125 9.31065 8.125 9.125V8.775C8.125 8.58935 8.19875 8.4113 8.33003 8.28003C8.4613 8.14875 8.63935 8.075 8.825 8.075H10.288C10.4737 8.075 10.6517 8.14875 10.783 8.28003C10.9142 8.4113 10.988 8.58935 10.988 8.775ZM9.938 7.725C10.1457 7.725 10.3487 7.66342 10.5213 7.54804C10.694 7.43267 10.8286 7.26868 10.9081 7.07682C10.9875 6.88496 11.0083 6.67384 10.9678 6.47016C10.9273 6.26648 10.8273 6.07938 10.6805 5.93254C10.5336 5.78569 10.3465 5.68569 10.1428 5.64518C9.93916 5.60466 9.72804 5.62545 9.53618 5.70493C9.34432 5.7844 9.18033 5.91898 9.06496 6.09165C8.94958 6.26432 8.888 6.46733 8.888 6.675C8.888 6.95348 8.99862 7.22055 9.19554 7.41746C9.39245 7.61438 9.65952 7.725 9.938 7.725Z" fill="#2A2A2A"/>
</svg>
