<svg width="134" height="140" viewBox="0 0 134 140" fill="none" xmlns="http://www.w3.org/2000/svg">
<circle cx="66.8652" cy="72.8506" r="60" fill="url(#paint0_linear_10403_41773)"/>
<mask id="mask0_10403_41773" style="mask-type:alpha" maskUnits="userSpaceOnUse" x="6" y="12" width="121" height="121">
<circle cx="66.8652" cy="72.8506" r="58.5" fill="url(#paint1_linear_10403_41773)" stroke="white" stroke-width="3"/>
</mask>
<g mask="url(#mask0_10403_41773)">
<path fill-rule="evenodd" clip-rule="evenodd" d="M71.9101 102.11C71.7966 102.202 71.6815 102.29 71.5649 102.376C72.7916 102.851 73.9069 103.637 74.7857 104.722C75.8473 106.033 76.4098 107.591 76.5004 109.176C77.3042 109.505 78.0631 109.974 78.7421 110.585C82.0153 113.532 82.1911 118.673 79.1348 122.067C79.0371 122.176 78.9372 122.281 78.8354 122.384C80.1213 122.662 81.3459 123.263 82.3836 124.198C85.6568 127.145 85.8326 132.286 82.7762 135.68C79.7199 139.075 74.5888 139.437 71.3156 136.49C69.958 135.267 69.1332 133.668 68.851 131.972C67.5006 131.712 66.2111 131.099 65.1259 130.122C62.9149 128.131 62.1172 125.139 62.7742 122.361C61.7859 122.034 60.8522 121.504 60.0344 120.768C56.9328 117.975 56.6124 113.212 59.1878 109.833C58.2955 109.358 57.4855 108.703 56.8137 107.874C54.9414 105.562 54.6215 102.482 55.705 99.8408C54.7801 99.3627 53.9408 98.6935 53.2483 97.8383C50.4764 94.4154 51.107 89.3103 54.6567 86.4358C58.2065 83.5613 63.3311 84.0059 66.1029 87.4288C66.2153 87.5676 66.3221 87.7091 66.4233 87.8532C69.0024 87.6174 71.6083 88.5956 73.3186 90.7075C76.0904 94.1305 75.4598 99.2356 71.9101 102.11Z" fill="url(#paint2_linear_10403_41773)"/>
<path fill-rule="evenodd" clip-rule="evenodd" d="M36.0217 66.9505C35.9359 67.0686 35.8535 67.1882 35.7746 67.3091C35.2354 66.109 34.3923 65.0363 33.2626 64.2155C31.8978 63.224 30.3128 62.7438 28.7256 62.7362C28.355 61.9509 27.8471 61.2176 27.2011 60.5716C24.0866 57.4572 18.9436 57.5507 15.7138 60.7805C15.6105 60.8838 15.5105 60.989 15.4136 61.096C15.0688 59.8264 14.4039 58.635 13.4164 57.6476C10.302 54.5331 5.15893 54.6267 1.92912 57.8565C-1.30068 61.0863 -1.39419 66.2293 1.72027 69.3438C3.01205 70.6355 4.65281 71.3754 6.3613 71.5686C6.69123 72.9035 7.3712 74.1591 8.40381 75.1917C10.5075 77.2954 13.5368 77.9355 16.2768 77.134C16.6555 78.1039 17.2334 79.0085 18.0114 79.7866C20.9626 82.7378 25.7353 82.8086 28.9757 80.0598C29.4965 80.9259 30.1926 81.7004 31.0562 82.3278C33.463 84.0765 36.5551 84.2348 39.136 83.0146C39.6618 83.9132 40.3741 84.7164 41.2643 85.3632C44.8276 87.9521 49.8927 87.0552 52.5775 83.3599C55.2623 79.6646 54.5501 74.5702 50.9868 71.9813C50.8423 71.8764 50.6954 71.7771 50.5462 71.6836C50.6467 69.0957 49.5335 66.5445 47.3349 64.9472C43.7716 62.3583 38.7065 63.2552 36.0217 66.9505Z" fill="url(#paint3_linear_10403_41773)"/>
<path d="M6.51562 134.5L75.0156 136L72.8701 132.629C62.8799 116.93 58.0014 98.5201 58.9061 79.9341L59.0002 77.9999L57.4651 78.2844C40.8025 81.3719 23.6173 79.9461 7.69127 74.1548L4.51562 73L6.51562 134.5Z" fill="url(#paint4_linear_10403_41773)"/>
</g>
<path d="M92.9751 18.8201C82.9425 13.96 71.4406 11.8366 59.5528 13.2962C26.6627 17.3346 3.27377 47.2711 7.31216 80.1612C11.3506 113.051 41.287 136.44 74.1771 132.402C107.067 128.363 130.456 98.427 126.418 65.5369C124.984 53.8599 120.286 43.3806 113.35 34.901" stroke="white" stroke-width="3" stroke-linecap="round"/>
<path fill-rule="evenodd" clip-rule="evenodd" d="M56.8494 68.849C54.3691 65.9307 54.2796 61.5647 56.824 58.5323L82.7285 27.6606C90.4534 18.4543 99.3223 8.00528 111.338 7.78719C113.76 7.74323 115.982 8.29144 117.626 9.81799C119.679 11.7255 120.33 14.6972 120.261 17.8661C120.043 27.873 113.366 36.3122 106.933 43.9797L79.0632 77.1932C76.5739 80.1598 72.3899 80.8653 69.1153 79.0819L66.8612 80.059C66.5136 80.2097 66.1108 80.151 65.8207 79.9075L57.0478 72.5462C56.8067 72.3439 56.6749 72.0399 56.6921 71.7256L56.8494 68.849Z" fill="url(#paint5_linear_10403_41773)"/>
<circle cx="93.5156" cy="36.5" r="6.25" fill="url(#paint6_linear_10403_41773)" stroke="white" stroke-width="0.5"/>
<defs>
<linearGradient id="paint0_linear_10403_41773" x1="140.516" y1="-20.9995" x2="39.0156" y2="109.5" gradientUnits="userSpaceOnUse">
<stop stop-color="#140064"/>
<stop offset="1" stop-color="#A3DBFF"/>
</linearGradient>
<linearGradient id="paint1_linear_10403_41773" x1="45.3652" y1="42.3506" x2="122.865" y2="110.351" gradientUnits="userSpaceOnUse">
<stop stop-color="#DC1FFF"/>
<stop offset="1" stop-color="#3151C4"/>
</linearGradient>
<linearGradient id="paint2_linear_10403_41773" x1="79.2784" y1="115.561" x2="57.3081" y2="115.583" gradientUnits="userSpaceOnUse">
<stop stop-color="white"/>
<stop offset="1" stop-color="#C4C4C4" stop-opacity="0"/>
</linearGradient>
<linearGradient id="paint3_linear_10403_41773" x1="26.2723" y1="60.3461" x2="27.455" y2="83.302" gradientUnits="userSpaceOnUse">
<stop stop-color="white"/>
<stop offset="1" stop-color="#C4C4C4" stop-opacity="0"/>
</linearGradient>
<linearGradient id="paint4_linear_10403_41773" x1="33.5" y1="111" x2="61.5" y2="78.5" gradientUnits="userSpaceOnUse">
<stop stop-color="#F7931A"/>
<stop offset="1" stop-color="#F3F71A" stop-opacity="0"/>
</linearGradient>
<linearGradient id="paint5_linear_10403_41773" x1="117.058" y1="9.33044" x2="51.659" y2="88.2164" gradientUnits="userSpaceOnUse">
<stop stop-color="#E8E8E8"/>
<stop offset="1" stop-color="#7F9ECE"/>
</linearGradient>
<linearGradient id="paint6_linear_10403_41773" x1="93.5156" y1="30" x2="93.5156" y2="43" gradientUnits="userSpaceOnUse">
<stop stop-color="white"/>
<stop offset="1" stop-color="#64E3FF" stop-opacity="0.15"/>
</linearGradient>
</defs>
</svg>
