<svg width="366" height="182" viewBox="0 0 366 182" fill="none" xmlns="http://www.w3.org/2000/svg">
<rect width="365" height="182" rx="10" fill="url(#paint0_linear_13309_277868)"/>
<rect width="365" height="182" rx="10" fill="black" fill-opacity="0.2"/>
<mask id="mask0_13309_277868" style="mask-type:alpha" maskUnits="userSpaceOnUse" x="1" y="0" width="365" height="182">
<rect x="1" width="365" height="182" rx="10" fill="url(#paint1_linear_13309_277868)"/>
<rect x="1" width="365" height="182" rx="10" fill="black" fill-opacity="0.2"/>
</mask>
<g mask="url(#mask0_13309_277868)">
<path d="M-73.9675 248.554L211.448 293.759C211.448 293.759 199.191 265.477 208 209.862C219.905 134.697 272 74.4532 272 74.4532C272 74.4532 12.7647 199.738 -21.4215 74.4531C-43.8508 -7.74532 -77.0935 209.862 -77.0935 209.862L-77.8987 243.839C-77.954 246.174 -76.2738 248.189 -73.9675 248.554Z" fill="url(#paint2_linear_13309_277868)" fill-opacity="0.6"/>
<path fill-rule="evenodd" clip-rule="evenodd" d="M182.347 166.321C182.297 166.162 182.243 166.002 182.185 165.844C180.36 160.885 174.995 158.264 170.201 159.99C167.243 161.055 165.193 163.526 164.486 166.427C164.292 166.483 164.099 166.545 163.907 166.614C159.113 168.34 156.705 173.759 158.53 178.718C160.355 183.677 165.72 186.298 170.514 184.572C171.71 184.142 172.757 183.481 173.627 182.656C176.119 184.837 179.618 185.655 182.856 184.489C184.445 183.917 185.772 182.939 186.769 181.707C188.66 182.343 190.746 182.374 192.733 181.659C197.527 179.933 199.935 174.514 198.11 169.555C196.285 164.596 190.92 161.975 186.126 163.701C184.607 164.248 183.328 165.165 182.347 166.321Z" fill="url(#paint3_linear_13309_277868)"/>
<path fill-rule="evenodd" clip-rule="evenodd" d="M219.347 166.321C219.297 166.162 219.243 166.002 219.185 165.844C217.36 160.885 211.995 158.264 207.201 159.99C204.243 161.055 202.193 163.526 201.486 166.427C201.292 166.483 201.099 166.545 200.907 166.614C196.113 168.34 193.705 173.759 195.53 178.718C197.355 183.677 202.72 186.298 207.514 184.572C208.71 184.142 209.757 183.481 210.627 182.656C213.119 184.837 216.618 185.655 219.856 184.489C221.445 183.917 222.772 182.939 223.769 181.707C225.66 182.343 227.746 182.374 229.733 181.659C234.527 179.933 236.935 174.514 235.11 169.555C233.285 164.596 227.92 161.975 223.126 163.701C221.607 164.248 220.328 165.165 219.347 166.321Z" fill="url(#paint4_linear_13309_277868)"/>
<path fill-rule="evenodd" clip-rule="evenodd" d="M144.468 168.253C144.482 168.086 144.491 167.919 144.497 167.75C144.662 162.468 140.669 158.028 135.578 157.833C132.436 157.712 129.611 159.235 127.868 161.661C127.668 161.639 127.465 161.625 127.261 161.617C122.169 161.421 117.907 165.544 117.741 170.825C117.576 176.107 121.569 180.547 126.66 180.742C127.93 180.791 129.148 180.571 130.264 180.132C131.758 183.088 134.696 185.156 138.135 185.289C139.822 185.353 141.418 184.944 142.805 184.175C144.32 185.473 146.242 186.283 148.353 186.365C153.444 186.56 157.706 182.437 157.872 177.156C158.038 171.875 154.045 167.435 148.953 167.239C147.34 167.177 145.811 167.549 144.468 168.253Z" fill="url(#paint5_linear_13309_277868)"/>
<path fill-rule="evenodd" clip-rule="evenodd" d="M62.4944 168.067C62.4446 167.908 62.3906 167.749 62.3322 167.59C60.5076 162.631 55.1421 160.01 50.3481 161.736C47.39 162.801 45.3406 165.272 44.6335 168.173C44.4396 168.229 44.2464 168.291 44.0541 168.36C39.2601 170.086 36.8528 175.505 38.6774 180.464C40.502 185.423 45.8675 188.044 50.6615 186.318C51.8572 185.888 52.9045 185.227 53.7746 184.402C56.2668 186.583 59.7656 187.401 63.0037 186.235C64.5926 185.663 65.9192 184.685 66.9165 183.453C68.8075 184.089 70.8933 184.121 72.8808 183.405C77.6749 181.679 80.0821 176.26 78.2575 171.301C76.4329 166.342 71.0674 163.721 66.2734 165.447C64.7546 165.994 63.4754 166.911 62.4944 168.067Z" fill="url(#paint6_linear_13309_277868)"/>
<path fill-rule="evenodd" clip-rule="evenodd" d="M27.5355 165.143C27.5491 164.977 27.5586 164.809 27.5639 164.64C27.7298 159.359 23.7369 154.919 18.6454 154.723C15.5039 154.603 12.6781 156.126 10.9355 158.551C10.735 158.53 10.5325 158.515 10.3282 158.507C5.23674 158.312 0.974775 162.434 0.808858 167.716C0.642942 172.997 4.6359 177.437 9.72738 177.633C10.9973 177.682 12.2156 177.462 13.3317 177.022C14.8253 179.978 17.7631 182.047 21.202 182.179C22.8894 182.244 24.4856 181.834 25.8718 181.066C27.387 182.363 29.309 183.174 31.4199 183.255C36.5114 183.451 40.7733 179.328 40.9393 174.047C41.1052 168.765 37.1122 164.325 32.0207 164.13C30.4078 164.068 28.8781 164.439 27.5355 165.143Z" fill="url(#paint7_linear_13309_277868)"/>
<path fill-rule="evenodd" clip-rule="evenodd" d="M104.719 170.118C104.669 169.958 104.615 169.799 104.557 169.641C102.732 164.682 97.3667 162.061 92.5727 163.787C89.6146 164.852 87.5653 167.323 86.8581 170.224C86.6642 170.279 86.471 170.342 86.2787 170.411C81.4847 172.137 79.0775 177.556 80.9021 182.515C82.7267 187.474 88.0921 190.095 92.8862 188.369C94.0819 187.938 95.1291 187.278 95.9992 186.453C98.4915 188.634 101.99 189.451 105.228 188.286C106.817 187.714 108.144 186.736 109.141 185.504C111.032 186.14 113.118 186.171 115.105 185.456C119.899 183.73 122.307 178.311 120.482 173.352C118.657 168.393 113.292 165.772 108.498 167.498C106.979 168.045 105.7 168.962 104.719 170.118Z" fill="url(#paint8_linear_13309_277868)"/>
<path fill-rule="evenodd" clip-rule="evenodd" d="M287.303 73.0789L289.181 74.9089C290.183 75.8853 291.779 75.8579 292.746 74.8476L324.214 41.967C326.403 39.6796 328.326 37.118 329.437 34.1419C331.005 29.9406 332.519 23.775 329.545 20.5698C326.593 17.3884 320.617 18.6286 316.241 20.1655C312.667 21.4206 309.647 23.8149 307.018 26.5613L276.219 58.7434C275.253 59.7537 275.281 61.3642 276.283 62.3407L278.3 64.3061L278 66.7258C277.988 66.8251 278.023 66.9246 278.094 66.9941L284.992 73.715C285.077 73.7988 285.203 73.8263 285.315 73.7863L287.303 73.0789Z" fill="url(#paint9_linear_13309_277868)"/>
<path d="M314.095 40.8305C313.898 43.6461 311.477 45.7689 308.689 45.5735C305.9 45.3781 303.798 42.9384 303.994 40.1228C304.191 37.3072 306.612 35.1844 309.4 35.3798C312.189 35.5752 314.291 38.0149 314.095 40.8305Z" fill="url(#paint10_linear_13309_277868)" stroke="white" stroke-width="0.158293"/>
<path d="M120.232 54H130.152V51.8H122.832V40H120.232V54ZM136.142 43.2C134.422 43.2 132.762 43.64 131.622 44.52L132.602 46.34C133.402 45.68 134.642 45.28 135.842 45.28C137.622 45.28 138.502 46.14 138.502 47.6V47.76H135.742C132.502 47.76 131.302 49.16 131.302 50.94C131.302 52.8 132.842 54.14 135.282 54.14C136.882 54.14 138.042 53.62 138.642 52.7V54H141.002V47.74C141.002 44.66 139.222 43.2 136.142 43.2ZM135.802 52.32C134.522 52.32 133.762 51.74 133.762 50.84C133.762 50.06 134.222 49.42 135.922 49.42H138.502V50.66C138.082 51.76 137.022 52.32 135.802 52.32ZM152.05 43.32V48.72C152.05 50.86 150.87 51.94 149.13 51.94C147.55 51.94 146.63 51.02 146.63 49.08V43.32H144.13V49.42C144.13 52.64 145.99 54.14 148.73 54.14C150.11 54.14 151.37 53.62 152.17 52.64V54H154.55V43.32H152.05ZM163.884 43.2C162.324 43.2 161.024 43.72 160.204 44.7V43.32H157.824V54H160.324V48.6C160.324 46.46 161.524 45.38 163.304 45.38C164.904 45.38 165.844 46.3 165.844 48.2V54H168.344V47.88C168.344 44.66 166.444 43.2 163.884 43.2ZM176.513 54.14C178.593 54.14 180.253 53.24 181.073 51.64L179.153 50.52C178.513 51.54 177.553 52 176.493 52C174.653 52 173.253 50.74 173.253 48.66C173.253 46.6 174.653 45.32 176.493 45.32C177.553 45.32 178.513 45.78 179.153 46.8L181.073 45.68C180.253 44.06 178.593 43.2 176.513 43.2C173.133 43.2 170.733 45.46 170.733 48.66C170.733 51.86 173.133 54.14 176.513 54.14ZM189.196 43.2C187.716 43.2 186.456 43.68 185.636 44.56V39.16H183.136V54H185.636V48.6C185.636 46.46 186.836 45.38 188.616 45.38C190.216 45.38 191.156 46.3 191.156 48.2V54H193.656V47.88C193.656 44.66 191.756 43.2 189.196 43.2ZM214.115 40H211.555L207.415 46.82L203.315 40H200.535L206.035 49.1V54H208.635V49.06L214.115 40ZM219.186 54.14C222.506 54.14 224.886 51.86 224.886 48.66C224.886 45.46 222.506 43.2 219.186 43.2C215.906 43.2 213.506 45.46 213.506 48.66C213.506 51.86 215.906 54.14 219.186 54.14ZM219.186 52C217.386 52 216.026 50.7 216.026 48.66C216.026 46.62 217.386 45.32 219.186 45.32C221.006 45.32 222.366 46.62 222.366 48.66C222.366 50.7 221.006 52 219.186 52ZM235.117 43.32V48.72C235.117 50.86 233.937 51.94 232.197 51.94C230.617 51.94 229.697 51.02 229.697 49.08V43.32H227.197V49.42C227.197 52.64 229.057 54.14 231.797 54.14C233.177 54.14 234.437 53.62 235.237 52.64V54H237.617V43.32H235.117ZM243.27 44.88V43.32H240.89V54H243.39V48.82C243.39 46.64 244.59 45.52 246.49 45.52C246.67 45.52 246.85 45.54 247.07 45.58V43.2C245.29 43.2 243.99 43.76 243.27 44.88ZM139.544 78.2C141.844 78.2 143.804 77.38 145.104 75.86L143.424 74.26C142.404 75.38 141.144 75.92 139.684 75.92C136.784 75.92 134.684 73.88 134.684 71C134.684 68.12 136.784 66.08 139.684 66.08C141.144 66.08 142.404 66.62 143.424 67.72L145.104 66.14C143.804 64.62 141.844 63.8 139.564 63.8C135.264 63.8 132.064 66.82 132.064 71C132.064 75.18 135.264 78.2 139.544 78.2ZM151.764 78.14C155.084 78.14 157.464 75.86 157.464 72.66C157.464 69.46 155.084 67.2 151.764 67.2C148.484 67.2 146.084 69.46 146.084 72.66C146.084 75.86 148.484 78.14 151.764 78.14ZM151.764 76C149.964 76 148.604 74.7 148.604 72.66C148.604 70.62 149.964 69.32 151.764 69.32C153.584 69.32 154.944 70.62 154.944 72.66C154.944 74.7 153.584 76 151.764 76ZM159.855 78H162.355V63.16H159.855V78ZM165.636 78H168.136V63.16H165.636V78ZM181.457 72.72C181.457 69.38 179.177 67.2 176.057 67.2C172.877 67.2 170.537 69.48 170.537 72.66C170.537 75.84 172.857 78.14 176.437 78.14C178.277 78.14 179.777 77.54 180.737 76.4L179.397 74.86C178.637 75.64 177.697 76.02 176.497 76.02C174.637 76.02 173.337 75.02 173.037 73.46H181.417C181.437 73.22 181.457 72.92 181.457 72.72ZM176.057 69.2C177.697 69.2 178.877 70.26 179.077 71.8H173.017C173.257 70.24 174.437 69.2 176.057 69.2ZM188.759 78.14C190.839 78.14 192.499 77.24 193.319 75.64L191.399 74.52C190.759 75.54 189.799 76 188.739 76C186.899 76 185.499 74.74 185.499 72.66C185.499 70.6 186.899 69.32 188.739 69.32C189.799 69.32 190.759 69.78 191.399 70.8L193.319 69.68C192.499 68.06 190.839 67.2 188.759 67.2C185.379 67.2 182.979 69.46 182.979 72.66C182.979 75.86 185.379 78.14 188.759 78.14ZM201.337 75.64C200.957 75.94 200.457 76.08 199.937 76.08C198.977 76.08 198.457 75.52 198.457 74.48V69.4H201.317V67.4H198.457V64.96H195.957V67.4H194.197V69.4H195.957V74.54C195.957 76.9 197.297 78.14 199.637 78.14C200.537 78.14 201.437 77.9 202.037 77.42L201.337 75.64ZM205.353 65.56C206.293 65.56 206.953 64.88 206.953 64C206.953 63.18 206.273 62.56 205.353 62.56C204.433 62.56 203.753 63.22 203.753 64.06C203.753 64.9 204.433 65.56 205.353 65.56ZM204.093 78H206.593V67.32H204.093V78ZM214.674 78.14C217.994 78.14 220.374 75.86 220.374 72.66C220.374 69.46 217.994 67.2 214.674 67.2C211.394 67.2 208.994 69.46 208.994 72.66C208.994 75.86 211.394 78.14 214.674 78.14ZM214.674 76C212.874 76 211.514 74.7 211.514 72.66C211.514 70.62 212.874 69.32 214.674 69.32C216.494 69.32 217.854 70.62 217.854 72.66C217.854 74.7 216.494 76 214.674 76ZM228.825 67.2C227.265 67.2 225.965 67.72 225.145 68.7V67.32H222.765V78H225.265V72.6C225.265 70.46 226.465 69.38 228.245 69.38C229.845 69.38 230.785 70.3 230.785 72.2V78H233.285V71.88C233.285 68.66 231.385 67.2 228.825 67.2Z" fill="white"/>
<rect x="113" y="122" width="140" height="30" rx="15" fill="#5855FF"/>
<path d="M159.242 142L159.227 131.5H157.622L153.527 138.46L149.357 131.5H147.752V142H149.612V135.13L153.062 140.8H153.932L157.382 135.04L157.397 142H159.242ZM165.498 142.105C167.988 142.105 169.773 140.395 169.773 137.995C169.773 135.595 167.988 133.9 165.498 133.9C163.038 133.9 161.238 135.595 161.238 137.995C161.238 140.395 163.038 142.105 165.498 142.105ZM165.498 140.5C164.148 140.5 163.128 139.525 163.128 137.995C163.128 136.465 164.148 135.49 165.498 135.49C166.863 135.49 167.883 136.465 167.883 137.995C167.883 139.525 166.863 140.5 165.498 140.5ZM173.351 135.16V133.99H171.566V142H173.441V138.115C173.441 136.48 174.341 135.64 175.766 135.64C175.901 135.64 176.036 135.655 176.201 135.685V133.9C174.866 133.9 173.891 134.32 173.351 135.16ZM185.249 138.04C185.249 135.535 183.539 133.9 181.199 133.9C178.814 133.9 177.059 135.61 177.059 137.995C177.059 140.38 178.799 142.105 181.484 142.105C182.864 142.105 183.989 141.655 184.709 140.8L183.704 139.645C183.134 140.23 182.429 140.515 181.529 140.515C180.134 140.515 179.159 139.765 178.934 138.595H185.219C185.234 138.415 185.249 138.19 185.249 138.04ZM181.199 135.4C182.429 135.4 183.314 136.195 183.464 137.35H178.919C179.099 136.18 179.984 135.4 181.199 135.4ZM192.14 132.67C192.845 132.67 193.34 132.16 193.34 131.5C193.34 130.885 192.83 130.42 192.14 130.42C191.45 130.42 190.94 130.915 190.94 131.545C190.94 132.175 191.45 132.67 192.14 132.67ZM191.195 142H193.07V133.99H191.195V142ZM200.076 133.9C198.906 133.9 197.931 134.29 197.316 135.025V133.99H195.531V142H197.406V137.95C197.406 136.345 198.306 135.535 199.641 135.535C200.841 135.535 201.546 136.225 201.546 137.65V142H203.421V137.41C203.421 134.995 201.996 133.9 200.076 133.9ZM209.055 132.28C209.445 132.28 209.805 132.415 210.09 132.61L210.615 131.2C210.195 130.9 209.565 130.765 208.92 130.765C207.06 130.765 206.055 131.86 206.055 133.54V134.05H204.735V135.55H206.055V142H207.93V135.55H210.075V134.05H207.87V133.57C207.87 132.715 208.275 132.28 209.055 132.28ZM214.82 142.105C217.31 142.105 219.095 140.395 219.095 137.995C219.095 135.595 217.31 133.9 214.82 133.9C212.36 133.9 210.56 135.595 210.56 137.995C210.56 140.395 212.36 142.105 214.82 142.105ZM214.82 140.5C213.47 140.5 212.45 139.525 212.45 137.995C212.45 136.465 213.47 135.49 214.82 135.49C216.185 135.49 217.205 136.465 217.205 137.995C217.205 139.525 216.185 140.5 214.82 140.5Z" fill="white"/>
</g>
<defs>
<linearGradient id="paint0_linear_13309_277868" x1="365" y1="182" x2="316.584" y2="-41.8969" gradientUnits="userSpaceOnUse">
<stop stop-color="#F7931A"/>
<stop offset="1" stop-color="#AC1CC7"/>
</linearGradient>
<linearGradient id="paint1_linear_13309_277868" x1="366" y1="182" x2="317.584" y2="-41.8969" gradientUnits="userSpaceOnUse">
<stop stop-color="#F7931A"/>
<stop offset="1" stop-color="#AC1CC7"/>
</linearGradient>
<linearGradient id="paint2_linear_13309_277868" x1="91.6119" y1="200.238" x2="360.597" y2="55.8802" gradientUnits="userSpaceOnUse">
<stop stop-color="white"/>
<stop offset="1" stop-color="#D9D9D9" stop-opacity="0"/>
</linearGradient>
<linearGradient id="paint3_linear_13309_277868" x1="172.774" y1="159.063" x2="177.101" y2="184.114" gradientUnits="userSpaceOnUse">
<stop stop-color="white"/>
<stop offset="1" stop-color="#C4C4C4" stop-opacity="0"/>
</linearGradient>
<linearGradient id="paint4_linear_13309_277868" x1="209.774" y1="159.063" x2="214.101" y2="184.114" gradientUnits="userSpaceOnUse">
<stop stop-color="white"/>
<stop offset="1" stop-color="#C4C4C4" stop-opacity="0"/>
</linearGradient>
<linearGradient id="paint5_linear_13309_277868" x1="138.311" y1="157.938" x2="132.939" y2="182.785" gradientUnits="userSpaceOnUse">
<stop stop-color="white"/>
<stop offset="1" stop-color="#C4C4C4" stop-opacity="0"/>
</linearGradient>
<linearGradient id="paint6_linear_13309_277868" x1="52.9217" y1="160.809" x2="57.2486" y2="185.86" gradientUnits="userSpaceOnUse">
<stop stop-color="white"/>
<stop offset="1" stop-color="#C4C4C4" stop-opacity="0"/>
</linearGradient>
<linearGradient id="paint7_linear_13309_277868" x1="21.3787" y1="154.828" x2="16.0063" y2="179.676" gradientUnits="userSpaceOnUse">
<stop stop-color="white"/>
<stop offset="1" stop-color="#C4C4C4" stop-opacity="0"/>
</linearGradient>
<linearGradient id="paint8_linear_13309_277868" x1="95.1463" y1="162.86" x2="99.4732" y2="187.911" gradientUnits="userSpaceOnUse">
<stop stop-color="white"/>
<stop offset="1" stop-color="#C4C4C4" stop-opacity="0"/>
</linearGradient>
<linearGradient id="paint9_linear_13309_277868" x1="329.124" y1="20.1498" x2="280.855" y2="69.6844" gradientUnits="userSpaceOnUse">
<stop stop-color="white"/>
<stop offset="0.0001" stop-color="white"/>
<stop offset="1" stop-color="#CECECE" stop-opacity="0.33"/>
</linearGradient>
<linearGradient id="paint10_linear_13309_277868" x1="309.406" y1="35.3008" x2="308.68" y2="45.6523" gradientUnits="userSpaceOnUse">
<stop stop-color="white"/>
<stop offset="1" stop-color="#64E3FF" stop-opacity="0.15"/>
</linearGradient>
</defs>
</svg>
