<svg width="30" height="31" viewBox="0 0 30 31" fill="none" xmlns="http://www.w3.org/2000/svg">
<path d="M7.5 18.1444C7.5 16.5576 7.5 15.7642 7.80654 15.1581C8.07619 14.625 8.50645 14.1916 9.03565 13.9199C9.63728 13.6111 10.4249 13.6111 12 13.6111H18C19.5751 13.6111 20.3627 13.6111 20.9643 13.9199C21.4936 14.1916 21.9238 14.625 22.1935 15.1581C22.5 15.7642 22.5 16.5576 22.5 18.1444V19.4667C22.5 21.0535 22.5 21.8469 22.1935 22.453C21.9238 22.9861 21.4936 23.4195 20.9643 23.6912C20.3627 24 19.5751 24 18 24H12C10.4249 24 9.63728 24 9.03565 23.6912C8.50645 23.4195 8.07619 22.9861 7.80654 22.453C7.5 21.8469 7.5 21.0535 7.5 19.4667V18.1444Z" fill="url(#paint0_linear_1630_40379)"/>
<path d="M10.3125 13.6111V11.7222C10.3125 9.11421 12.4112 7 15 7C16.3525 7 17.5711 7.57701 18.4267 8.5M15 17.8611V19.75M12 24H18C19.5751 24 20.3627 24 20.9643 23.6912C21.4936 23.4195 21.9238 22.9861 22.1935 22.453C22.5 21.8469 22.5 21.0535 22.5 19.4667V18.1444C22.5 16.5576 22.5 15.7642 22.1935 15.1581C21.9238 14.625 21.4936 14.1916 20.9643 13.9199C20.3627 13.6111 19.5751 13.6111 18 13.6111H12C10.4249 13.6111 9.63728 13.6111 9.03565 13.9199C8.50645 14.1916 8.07619 14.625 7.80654 15.1581C7.5 15.7642 7.5 16.5576 7.5 18.1444V19.4667C7.5 21.0535 7.5 21.8469 7.80654 22.453C8.07619 22.9861 8.50645 23.4195 9.03565 23.6912C9.63728 24 10.4249 24 12 24Z" stroke="#3C3C3C" stroke-width="1.6" stroke-linecap="round" stroke-linejoin="round"/>
<defs>
<linearGradient id="paint0_linear_1630_40379" x1="7.5" y1="15.6049" x2="21.6324" y2="19.1065" gradientUnits="userSpaceOnUse">
<stop stop-color="#F7931A"/>
<stop offset="1" stop-color="#C31AE3"/>
</linearGradient>
</defs>
</svg>
