<svg width="30" height="30" viewBox="0 0 30 30" fill="none" xmlns="http://www.w3.org/2000/svg">
<path d="M7.5 17.6444C7.5 16.0576 7.5 15.2642 7.80654 14.6581C8.07619 14.125 8.50645 13.6916 9.03565 13.4199C9.63728 13.1111 10.4249 13.1111 12 13.1111H18C19.5751 13.1111 20.3627 13.1111 20.9643 13.4199C21.4936 13.6916 21.9238 14.125 22.1935 14.6581C22.5 15.2642 22.5 16.0576 22.5 17.6444V18.9667C22.5 20.5535 22.5 21.3469 22.1935 21.953C21.9238 22.4861 21.4936 22.9195 20.9643 23.1912C20.3627 23.5 19.5751 23.5 18 23.5H12C10.4249 23.5 9.63728 23.5 9.03565 23.1912C8.50645 22.9195 8.07619 22.4861 7.80654 21.953C7.5 21.3469 7.5 20.5535 7.5 18.9667V17.6444Z" fill="url(#paint0_linear_1550_40384)"/>
<path d="M19.6875 13.1111V11.2222C19.6875 8.61421 17.5888 6.5 15 6.5C12.4112 6.5 10.3125 8.61421 10.3125 11.2222V13.1111M15 17.3611V19.25M12 23.5H18C19.5751 23.5 20.3627 23.5 20.9643 23.1912C21.4936 22.9195 21.9238 22.4861 22.1935 21.953C22.5 21.3469 22.5 20.5535 22.5 18.9667V17.6444C22.5 16.0576 22.5 15.2642 22.1935 14.6581C21.9238 14.125 21.4936 13.6916 20.9643 13.4199C20.3627 13.1111 19.5751 13.1111 18 13.1111H12C10.4249 13.1111 9.63728 13.1111 9.03565 13.4199C8.50645 13.6916 8.07619 14.125 7.80654 14.6581C7.5 15.2642 7.5 16.0576 7.5 17.6444V18.9667C7.5 20.5535 7.5 21.3469 7.80654 21.953C8.07619 22.4861 8.50645 22.9195 9.03565 23.1912C9.63728 23.5 10.4249 23.5 12 23.5Z" stroke="#3C3C3C" stroke-width="1.6" stroke-linecap="round" stroke-linejoin="round"/>
<defs>
<linearGradient id="paint0_linear_1550_40384" x1="7.5" y1="15.1049" x2="21.6324" y2="18.6065" gradientUnits="userSpaceOnUse">
<stop stop-color="#F7931A"/>
<stop offset="1" stop-color="#C31AE3"/>
</linearGradient>
</defs>
</svg>
