<svg xmlns="http://www.w3.org/2000/svg" width="18" height="18" fill="none" viewBox="0 0 18 18">
    <path fill="#000" d="M17.993 12.06c0-.118-.023-.236-.07-.346-.046-.11-.114-.209-.2-.293-.087-.081-.188-.145-.3-.189-.112-.046-.232-.07-.354-.072-.122.001-.243.026-.355.072-.717.282-1.484.425-2.259.423-1.219.003-2.41-.348-3.42-1.008-1.008-.66-1.786-1.6-2.233-2.693-.447-1.094-.54-2.292-.27-3.438.271-1.146.894-2.187 1.789-2.986.03-.034.059-.07.084-.108.048-.051.09-.109.12-.171.032-.059.051-.123.057-.189.005-.045.005-.09 0-.135.014-.074.014-.15 0-.225V.576l-.075-.117c-.028-.065-.066-.125-.112-.18 0 0-.074-.045-.112-.081-.037-.036-.102-.081-.168-.117C10.052.05 9.986.023 9.92 0H9.341c-1.69-.001-3.35.44-4.8 1.277-1.45.837-2.638 2.038-3.436 3.475C.307 6.19-.071 7.808.01 9.436c.082 1.628.62 3.204 1.56 4.56.938 1.356 2.24 2.44 3.768 3.138 1.527.698 3.223.982 4.905.823 1.683-.159 3.289-.756 4.647-1.726s2.417-2.278 3.064-3.784c.042-.125.055-.257.038-.387zm-8.68 4.095c-1.827-.007-3.587-.66-4.948-1.833-1.36-1.174-2.228-2.788-2.439-4.538-.21-1.749.251-3.511 1.298-4.955 1.046-1.443 2.605-2.466 4.38-2.876C6.89 3.12 6.513 4.45 6.512 5.805c.003 2.028.84 3.973 2.327 5.407 1.487 1.434 3.504 2.24 5.607 2.243.236.013.473.013.71 0-.702.844-1.591 1.525-2.603 1.993-1.011.467-2.119.709-3.24.707z"/>
</svg>
