<svg width="16" height="18" viewBox="0 0 16 18" fill="none" xmlns="http://www.w3.org/2000/svg">
<path d="M7.39564 1.23354C7.61623 1.10565 7.72652 1.04171 7.84332 1.01664C7.94669 0.994453 8.05331 0.994453 8.15668 1.01664C8.27348 1.04171 8.38378 1.10565 8.60436 1.23354L14.3599 4.57047C14.5929 4.70553 14.7094 4.77307 14.7942 4.86912C14.8692 4.9541 14.926 5.05481 14.9607 5.16453C15 5.28856 15 5.42761 15 5.70573V12.2943C15 12.5724 15 12.7114 14.9607 12.8355C14.926 12.9452 14.8692 13.0459 14.7942 13.1309C14.7094 13.2269 14.5929 13.2945 14.3599 13.4295L8.60436 16.7665C8.38377 16.8943 8.27348 16.9583 8.15668 16.9834C8.05331 17.0055 7.94669 17.0055 7.84332 16.9834C7.72652 16.9583 7.61623 16.8943 7.39564 16.7665L1.64009 13.4295C1.40713 13.2945 1.29064 13.2269 1.20583 13.1309C1.13079 13.0459 1.074 12.9452 1.03927 12.8355C1 12.7114 1 12.5724 1 12.2943V5.70573C1 5.42762 1 5.28856 1.03927 5.16453C1.074 5.05481 1.13079 4.9541 1.20583 4.86912C1.29064 4.77307 1.40713 4.70554 1.64009 4.57047L7.39564 1.23354Z" fill="url(#paint0_linear_1287_114280)"/>
<path d="M14.6111 5.16702L7.99998 8.99998M7.99998 8.99998L1.38886 5.16702M7.99998 8.99998L8 16.711M15 12.2943V5.70573C15 5.42761 15 5.28856 14.9607 5.16453C14.926 5.05481 14.8692 4.9541 14.7942 4.86912C14.7094 4.77307 14.5929 4.70553 14.3599 4.57047L8.60436 1.23354C8.38378 1.10565 8.27348 1.04171 8.15668 1.01664C8.05331 0.994453 7.94669 0.994453 7.84332 1.01664C7.72652 1.04171 7.61623 1.10565 7.39564 1.23354L1.64009 4.57047C1.40713 4.70554 1.29064 4.77307 1.20583 4.86912C1.13079 4.9541 1.074 5.05481 1.03927 5.16453C1 5.28856 1 5.42762 1 5.70573V12.2943C1 12.5724 1 12.7114 1.03927 12.8355C1.074 12.9452 1.13079 13.0459 1.20583 13.1309C1.29064 13.2269 1.40713 13.2945 1.64009 13.4295L7.39564 16.7665C7.61623 16.8943 7.72652 16.9583 7.84332 16.9834C7.94669 17.0055 8.05331 17.0055 8.15668 16.9834C8.27348 16.9583 8.38377 16.8943 8.60436 16.7665L14.3599 13.4295C14.5929 13.2945 14.7094 13.2269 14.7942 13.1309C14.8692 13.0459 14.926 12.9452 14.9607 12.8355C15 12.7114 15 12.5724 15 12.2943Z" stroke="#3C3C3C" stroke-width="1.2" stroke-linecap="round" stroke-linejoin="round"/>
<defs>
<linearGradient id="paint0_linear_1287_114280" x1="1" y1="5" x2="15" y2="13" gradientUnits="userSpaceOnUse">
<stop stop-color="#31E591"/>
<stop offset="1" stop-color="#2AC3FF"/>
</linearGradient>
</defs>
</svg>
