<svg width="20" height="19" viewBox="0 0 20 19" fill="none" xmlns="http://www.w3.org/2000/svg">
<path fill-rule="evenodd" clip-rule="evenodd" d="M6 19C9.31371 19 12 16.3137 12 13C12 9.68629 9.31371 7 6 7C2.68629 7 0 9.68629 0 13C0 16.3137 2.68629 19 6 19ZM7 12.4C7 11.8477 6.55228 11.4 6 11.4C5.44772 11.4 5 11.8477 5 12.4V14.2C5 14.7523 5.44772 15.2 6 15.2C6.55228 15.2 7 14.7523 7 14.2V12.4Z" fill="#3C3C3C"/>
<path d="M11.25 6.25V4.75C11.25 2.67893 12.9289 1 15 1V1C17.0711 1 18.75 2.67893 18.75 4.75V6.25" stroke="#636363" stroke-width="2" stroke-linecap="round"/>
</svg>
