<svg width="55" height="55" viewBox="0 0 55 55" fill="none" xmlns="http://www.w3.org/2000/svg">
    <path fill-rule="evenodd" clip-rule="evenodd" d="M55 27.5C55 42.688 42.688 55 27.5 55S0 42.688 0 27.5 12.312 0 27.5 0 55 12.312 55 27.5zm-24 1a1.5 1.5 0 0 1 1.5-1.5h15a1.5 1.5 0 0 1 0 3h-15a1.5 1.5 0 0 1-1.5-1.5zm-5-5a1.5 1.5 0 0 0 3 0v-9a1.5 1.5 0 0 0-3 0v9z" fill="url(#a)"/>
    <defs>
        <linearGradient id="a" x1="27.5" y1="0" x2="27.5" y2="55" gradientUnits="userSpaceOnUse">
            <stop stop-color="#fff"/>
            <stop offset="1" stop-color="#131313" stop-opacity="0"/>
        </linearGradient>
    </defs>
</svg>
