<svg xmlns="http://www.w3.org/2000/svg" width="50" height="50" fill="none" viewBox="0 0 50 50">
    <path fill="#fff" fill-rule="evenodd" d="M25 50c13.807 0 25-11.193 25-25S38.807 0 25 0 0 11.193 0 25s11.193 25 25 25zm-5.2-18.212c3.755 0 6.8-3.045 6.8-6.8 0-3.756-3.045-6.8-6.8-6.8-3.756 0-6.8 3.044-6.8 6.8 0 3.755 3.044 6.8 6.8 6.8zm14.098-6.794c0 3.517-1.53 6.369-3.417 6.369-1.887 0-3.417-2.852-3.417-6.37 0-3.517 1.53-6.368 3.417-6.368 1.887 0 3.417 2.851 3.417 6.369zm1.864 5.77c.715 0 1.294-2.591 1.294-5.788s-.58-5.788-1.294-5.788c-.714 0-1.293 2.591-1.293 5.788s.579 5.788 1.293 5.788z" clip-rule="evenodd"/>
</svg>
