<svg width="18" height="18" viewBox="0 0 18 18" fill="none" xmlns="http://www.w3.org/2000/svg">
    <path d="M9 0a9 9 0 1 0 0 18A9 9 0 0 0 9 0zM3.857 7.322a.648.648 0 0 1-.938-.893L4.64 4.686a.643.643 0 0 1 .907 0l1.82 1.82a.655.655 0 0 1-.94.913l-1.33-1.37-1.24 1.273zM9 13.5a3.857 3.857 0 0 1-3.857-3.857h7.714A3.857 3.857 0 0 1 9 13.5zm6.081-6.081a.643.643 0 0 1-.906 0l-1.363-1.363-1.286 1.285a.643.643 0 0 1-.893-.912l1.723-1.723a.643.643 0 0 1 .906 0l1.82 1.819a.643.643 0 0 1 0 .894z" fill="#fff"/>
</svg>
