<svg width="181" height="115" viewBox="0 0 181 115" fill="none" xmlns="http://www.w3.org/2000/svg">
<path d="M98.5919 30.3341L87.6178 39.8587C87.5503 39.9172 87.4501 39.9172 87.3827 39.8587L76.4086 30.3341C71.9053 26.4256 71.3361 19.6408 75.1252 15.0366L87.3617 0.168255C87.4335 0.0810875 87.5669 0.0810874 87.6387 0.168255L99.8752 15.0366C103.664 19.6408 103.095 26.4256 98.5919 30.3341Z" fill="#C4C4C4"/>
<path d="M119.902 40.2403V34.8247C119.902 34.0614 119.176 33.5155 118.45 33.7498C114.991 34.8653 106.072 37.9849 99.6517 42.3776C92.3386 47.3816 89.0366 54.4827 87.5017 54.4827C85.9668 54.4827 82.6648 47.3816 75.3517 42.3776C68.9318 37.9849 60.0127 34.8653 56.5534 33.7498C55.8269 33.5155 55.1017 34.0614 55.1017 34.8247V40.2403C55.1017 58.1343 69.6076 72.6403 87.5017 72.6403C105.396 72.6403 119.902 58.1343 119.902 40.2403Z" fill="#E0E0E0"/>
<path d="M128 74.5003V68.4504C128 67.5131 127.112 66.8411 126.219 67.1244C121.919 68.488 110.733 72.3334 102.688 77.754C93.5461 83.9127 89.4186 92.6525 87.5 92.6525C85.5814 92.6525 81.4539 83.9127 72.3125 77.754C64.2667 72.3334 53.0807 68.488 48.7811 67.1244C47.8877 66.8411 47 67.5131 47 68.4504V74.5003C47 96.8679 65.1325 115 87.5 115C109.868 115 128 96.8679 128 74.5003Z" fill="#E0E0E0"/>
<path d="M180.402 24.8381C177.73 35.5525 166.877 42.0731 156.16 39.4012C145.448 36.7301 138.926 25.8775 141.599 15.1639C144.269 4.44838 155.122 -2.07268 165.836 0.598468C176.552 3.26961 183.073 14.1234 180.401 24.8383L180.401 24.8381H180.402Z" fill="#E0E0E0"/>
<path d="M168.514 17.4649C168.847 15.2232 167.152 14.0183 164.835 13.2144L165.587 10.1779L163.752 9.71737L163.02 12.6739C162.538 12.5527 162.042 12.4385 161.55 12.3253L162.287 9.34925L160.453 8.88867L159.701 11.9242C159.302 11.8326 158.91 11.7421 158.529 11.6468L158.531 11.6372L156.001 11.0007L155.513 12.9749C155.513 12.9749 156.874 13.2893 156.845 13.3086C157.589 13.4954 157.723 13.9909 157.701 14.3837L156.844 17.8429C156.896 17.856 156.962 17.875 157.035 17.9046C156.974 17.8893 156.909 17.8726 156.841 17.8563L155.641 22.7022C155.55 22.9296 155.32 23.2709 154.8 23.1413C154.819 23.1682 153.467 22.8061 153.467 22.8061L152.556 24.9219L154.944 25.5215C155.388 25.6338 155.823 25.7512 156.252 25.8616L155.493 28.9329L157.326 29.3935L158.078 26.3548C158.578 26.4917 159.064 26.618 159.54 26.737L158.79 29.7614L160.626 30.222L161.385 27.1564C164.514 27.753 166.867 27.5125 167.857 24.6616C168.655 22.3662 167.818 21.0423 166.171 20.1789C167.37 19.9004 168.274 19.106 168.514 17.4651L168.514 17.4647L168.514 17.4649ZM164.321 23.3869C163.754 25.6822 159.917 24.4414 158.673 24.1302L159.681 20.0613C160.925 20.3741 164.914 20.9931 164.321 23.3869H164.321ZM164.889 17.4316C164.371 19.5194 161.178 18.4587 160.142 18.1986L161.056 14.5083C162.091 14.7684 165.427 15.2539 164.889 17.4316H164.889Z" fill="white"/>
<circle cx="160.5" cy="96.5" r="12.5" fill="#E0E0E0"/>
<path d="M160.222 89.833L160.131 90.1369V98.954L160.222 99.0432L164.386 96.624L160.222 89.833Z" fill="white"/>
<path d="M160.221 89.833L156.056 96.624L160.221 99.0432V94.7637V89.833Z" fill="white"/>
<path d="M160.222 99.8164L160.17 99.8779V103.019L160.222 103.166L164.389 97.3984L160.222 99.8164Z" fill="white"/>
<path d="M160.221 103.166V99.8164L156.056 97.3984L160.221 103.166Z" fill="white"/>
<path d="M160.22 99.0452L164.385 96.626L160.22 94.7656V99.0452Z" fill="white"/>
<path d="M156.056 96.626L160.221 99.0452V94.7656L156.056 96.626Z" fill="white"/>
<circle cx="15" cy="52" r="15" fill="#E0E0E0"/>
<path fill-rule="evenodd" clip-rule="evenodd" d="M17.2484 44.3652C17.8451 44.4607 18.2667 44.5865 18.5132 44.7426C18.7597 44.8987 19.0217 45.2057 19.299 45.6636C19.1494 45.7922 19.0192 45.8667 18.9083 45.8869C18.7974 45.9072 18.6135 45.89 18.3565 45.8356L18.0501 45.6916C17.7547 45.5527 17.4063 45.685 17.2678 45.9886C17.148 46.2511 17.2565 46.5643 17.5102 46.6882C17.5317 46.6987 17.554 46.7077 17.5768 46.715L17.9855 46.846C18.101 46.9404 18.1522 47.073 18.1391 47.2437C18.126 47.4144 18.0494 47.5805 17.9095 47.7417L18.1309 48.3704C17.8639 48.4315 17.543 48.4495 17.1683 48.4244C16.6062 48.3867 16.3313 48.2093 16.3267 48.1826C16.3243 48.1684 16.1417 48.0635 15.7789 47.868C15.4052 47.7675 15.0132 47.7141 14.6092 47.7141C12.0405 47.7141 9.95818 49.8729 9.95818 52.5358C9.95818 55.1987 12.0405 57.3574 14.6092 57.3574C16.3329 57.3574 17.8376 56.3854 18.641 54.9412L16.7123 54.9412C16.3689 54.9412 16.0666 54.707 15.9697 54.3661L15.4609 52.575C15.4368 52.4901 15.4837 52.4011 15.5657 52.3761C15.5799 52.3718 15.5946 52.3696 15.6094 52.3696H21.7646C21.946 52.3696 22.1062 52.4922 22.1593 52.6717C22.2438 52.9572 22.2861 53.2647 22.2861 53.5942C22.2861 53.9646 22.2157 54.3349 22.0751 54.7053C21.162 58.0896 18.1652 60.5718 14.6092 60.5718C10.3281 60.5718 6.85749 56.974 6.85749 52.5358C6.85749 48.9296 9.14875 45.8783 12.3044 44.8609C12.3186 44.8447 12.3336 44.8326 12.3496 44.8248C12.7632 44.6216 13.3899 44.5226 14.032 44.4157L14.1158 44.4017C14.2136 44.3853 14.3116 44.3686 14.4091 44.3512C14.9197 44.26 15.8661 44.2647 17.2484 44.3652ZM19.5177 45.9473C19.734 46.1222 19.8734 46.2696 19.9359 46.3896C19.9963 46.5055 20.0553 46.7024 20.1129 46.9803L20.1188 47.0093L21.6353 48.4267C21.6855 48.4736 21.7193 48.536 21.7319 48.6044L21.7343 48.6191L21.7585 48.7946C21.7648 48.8401 21.7406 48.8839 21.7004 48.9018L21.6927 48.9049L21.6153 48.9316L21.5696 48.9253C20.0688 48.7186 19.1553 48.5427 18.8288 48.3976C18.5188 48.2598 18.4699 47.9369 18.682 47.4289C18.7074 47.368 18.71 47.2996 18.6894 47.2371L18.6847 47.2238L18.5389 46.8465C18.5278 46.8178 18.5119 46.7913 18.4921 46.7683L18.4818 46.757L18.1727 46.4368C18.0802 46.4174 17.978 46.4475 17.8855 46.4281C17.8642 46.4237 17.8141 46.4067 17.7352 46.3773C17.73 46.3753 17.7248 46.3731 17.7198 46.3706C17.63 46.327 17.5914 46.2162 17.6336 46.1233C17.6833 46.0139 17.7984 45.9534 17.9131 45.9764C18.0007 45.994 18.0637 46.0094 18.1021 46.0226C18.1648 46.0441 18.2487 46.0898 18.354 46.1596C18.6697 46.2241 18.9015 46.2428 19.0492 46.2158C19.197 46.1889 19.3532 46.0993 19.5177 45.9473Z" fill="white"/>
</svg>
