<svg width="181" height="115" viewBox="0 0 181 115" fill="none" xmlns="http://www.w3.org/2000/svg">
<path d="M98.5919 30.3341L87.6178 39.8587C87.5503 39.9172 87.4501 39.9172 87.3827 39.8587L76.4086 30.3341C71.9053 26.4256 71.3361 19.6408 75.1252 15.0366L87.3617 0.168255C87.4335 0.0810875 87.5669 0.0810874 87.6387 0.168255L99.8752 15.0366C103.664 19.6408 103.095 26.4256 98.5919 30.3341Z" fill="#3F3F3F"/>
<path d="M119.902 40.24V34.8245C119.902 34.0611 119.176 33.5153 118.45 33.7496C114.991 34.865 106.072 37.9846 99.6517 42.3774C92.3386 47.3813 89.0366 54.4824 87.5017 54.4824C85.9668 54.4824 82.6648 47.3813 75.3517 42.3774C68.9318 37.9846 60.0127 34.865 56.5534 33.7496C55.8269 33.5153 55.1017 34.0611 55.1017 34.8245V40.24C55.1017 58.1341 69.6076 72.64 87.5017 72.64C105.396 72.64 119.902 58.134 119.902 40.24Z" fill="#4A4A4A"/>
<path d="M128 74.5001V68.4501C128 67.5129 127.112 66.8409 126.219 67.1242C121.919 68.4878 110.733 72.3332 102.688 77.7537C93.5461 83.9124 89.4186 92.6523 87.5 92.6523C85.5814 92.6523 81.4539 83.9124 72.3125 77.7537C64.2667 72.3332 53.0807 68.4878 48.7811 67.1242C47.8877 66.8409 47 67.5129 47 68.4501V74.5001C47 96.8676 65.1325 115 87.5 115C109.868 115 128 96.8676 128 74.5001Z" fill="#4A4A4A"/>
<path d="M180.402 24.8381C177.73 35.5525 166.877 42.0731 156.16 39.4012C145.448 36.7301 138.926 25.8775 141.599 15.1639C144.269 4.44838 155.122 -2.07268 165.836 0.598468C176.552 3.26961 183.073 14.1234 180.401 24.8383L180.401 24.8381H180.402Z" fill="#4A4A4A"/>
<path d="M168.514 17.4651C168.847 15.2235 167.152 14.0185 164.835 13.2147L165.587 10.1782L163.752 9.71761L163.02 12.6742C162.538 12.553 162.042 12.4388 161.55 12.3256L162.287 9.34949L160.453 8.88892L159.701 11.9244C159.302 11.8329 158.91 11.7424 158.529 11.647L158.531 11.6375L156.001 11.001L155.513 12.9752C155.513 12.9752 156.874 13.2895 156.845 13.3089C157.589 13.4957 157.723 13.9912 157.701 14.3839L156.844 17.8432C156.896 17.8563 156.962 17.8752 157.035 17.9049C156.974 17.8895 156.909 17.8728 156.841 17.8565L155.641 22.7025C155.55 22.9299 155.32 23.2712 154.8 23.1416C154.819 23.1684 153.467 22.8063 153.467 22.8063L152.556 24.9221L154.944 25.5218C155.388 25.634 155.823 25.7514 156.252 25.8618L155.493 28.9331L157.326 29.3937L158.078 26.355C158.578 26.4919 159.064 26.6182 159.54 26.7373L158.79 29.7617L160.626 30.2222L161.385 27.1567C164.514 27.7532 166.867 27.5127 167.857 24.6618C168.655 22.3665 167.818 21.0425 166.171 20.1792C167.37 19.9006 168.274 19.1063 168.514 17.4654L168.514 17.4649L168.514 17.4651ZM164.321 23.3871C163.754 25.6824 159.917 24.4416 158.673 24.1305L159.681 20.0615C160.925 20.3743 164.914 20.9933 164.321 23.3871H164.321ZM164.889 17.4318C164.371 19.5197 161.178 18.459 160.142 18.1989L161.056 14.5086C162.091 14.7687 165.427 15.2541 164.889 17.4318H164.889Z" fill="#707070"/>
<circle cx="160.5" cy="96.5" r="12.5" fill="#4A4A4A"/>
<path d="M160.222 89.8333L160.131 90.1371V98.9542L160.222 99.0435L164.386 96.6243L160.222 89.8333Z" fill="#818181"/>
<path d="M160.221 89.8333L156.056 96.6243L160.221 99.0435V94.7639V89.8333Z" fill="#818181"/>
<path d="M160.222 99.8172L160.17 99.8786V103.019L160.222 103.167L164.389 97.3992L160.222 99.8172Z" fill="#7B7A7A"/>
<path d="M160.221 103.167V99.8172L156.056 97.3992L160.221 103.167Z" fill="#818181"/>
<path d="M160.22 99.045L164.385 96.6257L160.22 94.7654V99.045Z" fill="#707070"/>
<path d="M156.056 96.6257L160.221 99.045V94.7654L156.056 96.6257Z" fill="#7B7A7A"/>
<circle cx="15" cy="52" r="15" fill="#4A4A4A"/>
<path fill-rule="evenodd" clip-rule="evenodd" d="M17.2484 44.3649C17.8451 44.4605 18.2667 44.5863 18.5132 44.7424C18.7597 44.8984 19.0217 45.2054 19.299 45.6633C19.1494 45.792 19.0192 45.8664 18.9083 45.8867C18.7974 45.9069 18.6135 45.8898 18.3565 45.8353L18.0501 45.6913C17.7547 45.5525 17.4063 45.6848 17.2678 45.9884C17.148 46.2508 17.2565 46.564 17.5102 46.6879C17.5317 46.6985 17.554 46.7074 17.5768 46.7147L17.9855 46.8457C18.101 46.9401 18.1522 47.0727 18.1391 47.2435C18.126 47.4142 18.0494 47.5802 17.9095 47.7415L18.1309 48.3701C17.8639 48.4312 17.543 48.4492 17.1683 48.4241C16.6062 48.3865 16.3313 48.2091 16.3267 48.1823C16.3243 48.1682 16.1417 48.0633 15.7789 47.8677C15.4052 47.7673 15.0132 47.7139 14.6092 47.7139C12.0405 47.7139 9.95818 49.8726 9.95818 52.5355C9.95818 55.1985 12.0405 57.3572 14.6092 57.3572C16.3329 57.3572 17.8376 56.3851 18.641 54.941L16.7123 54.9409C16.3689 54.9409 16.0666 54.7068 15.9697 54.3659L15.4609 52.5747C15.4368 52.4899 15.4837 52.4008 15.5657 52.3759C15.5799 52.3716 15.5946 52.3694 15.6094 52.3694H21.7646C21.946 52.3694 22.1062 52.492 22.1593 52.6715C22.2438 52.957 22.2861 53.2645 22.2861 53.5939C22.2861 53.9643 22.2157 54.3347 22.0751 54.7051C21.162 58.0894 18.1652 60.5716 14.6092 60.5716C10.3281 60.5716 6.85749 56.9737 6.85749 52.5355C6.85749 48.9294 9.14875 45.878 12.3044 44.8607C12.3186 44.8445 12.3336 44.8324 12.3496 44.8245C12.7632 44.6214 13.3899 44.5224 14.032 44.4154L14.1158 44.4014C14.2136 44.385 14.3116 44.3683 14.4091 44.3509C14.9197 44.2598 15.8661 44.2644 17.2484 44.3649ZM19.5177 45.9471C19.734 46.1219 19.8734 46.2694 19.9359 46.3893C19.9963 46.5053 20.0553 46.7022 20.1129 46.98L20.1188 47.0091L21.6353 48.4265C21.6855 48.4733 21.7193 48.5358 21.7319 48.6042L21.7343 48.6189L21.7585 48.7943C21.7648 48.8399 21.7406 48.8837 21.7004 48.9016L21.6927 48.9046L21.6153 48.9313L21.5696 48.925C20.0688 48.7184 19.1553 48.5425 18.8288 48.3974C18.5188 48.2595 18.4699 47.9366 18.682 47.4286C18.7074 47.3677 18.71 47.2994 18.6894 47.2369L18.6847 47.2236L18.5389 46.8463C18.5278 46.8176 18.5119 46.7911 18.4921 46.768L18.4818 46.7568L18.1727 46.4365C18.0802 46.4171 17.978 46.4473 17.8855 46.4279C17.8642 46.4234 17.8141 46.4065 17.7352 46.377C17.73 46.3751 17.7248 46.3729 17.7198 46.3704C17.63 46.3267 17.5914 46.216 17.6336 46.1231C17.6833 46.0137 17.7984 45.9532 17.9131 45.9762C18.0007 45.9937 18.0637 46.0091 18.1021 46.0223C18.1648 46.0439 18.2487 46.0896 18.354 46.1594C18.6697 46.2238 18.9015 46.2425 19.0492 46.2156C19.197 46.1886 19.3532 46.0991 19.5177 45.9471Z" fill="#707070"/>
</svg>
