<svg width="55" height="55" viewBox="0 0 55 55" fill="none" xmlns="http://www.w3.org/2000/svg">
<circle cx="27.5" cy="27.5" r="27.5" fill="#5855FF"/>
<path d="M22.9621 33.917C22.364 34.4902 22.3438 35.4397 22.917 36.0379C23.4902 36.636 24.4397 36.6562 25.0379 36.083L22.9621 33.917ZM31.2774 28.0258L32.3152 29.1088V29.1088L31.2774 28.0258ZM31.3069 26.6113L30.2248 27.6501L30.2248 27.6501L31.3069 26.6113ZM25.0821 17.9612C24.5084 17.3636 23.5588 17.3442 22.9612 17.9179C22.3636 18.4916 22.3442 19.4412 22.9179 20.0388L25.0821 17.9612ZM25.0379 36.083L32.3152 29.1088L30.2395 26.9429L22.9621 33.917L25.0379 36.083ZM32.3889 25.5725L25.0821 17.9612L22.9179 20.0388L30.2248 27.6501L32.3889 25.5725ZM32.3152 29.1088C33.3127 28.1529 33.3457 26.5692 32.3889 25.5725L30.2248 27.6501C30.0334 27.4508 30.04 27.134 30.2395 26.9429L32.3152 29.1088Z" fill="white"/>
</svg>
