<svg width="145" height="145" viewBox="0 0 145 145" fill="none" xmlns="http://www.w3.org/2000/svg">
    <rect width="145" height="145" rx="5" fill="#636363"/>
    <rect x="12.082" y="11.885" width="120.833" height="121.23" rx="5" fill="#747474"/>
    <path d="m48.334 133.115 51.89-48.02a3 3 0 0 1 4.089.013l27.656 25.92a3 3 0 0 1 .948 2.189v16.898a3 3 0 0 1-3 3H48.334z" fill="#262626"/>
    <path d="m45.275 74.64 57.432 58.475H17.082a5 5 0 0 1-5-5v-25.061l28.95-28.45a3 3 0 0 1 4.243.037z" fill="#383838"/>
    <ellipse cx="90.626" cy="40.41" rx="12.083" ry="11.885" fill="#393939"/>
</svg>
