<svg width="27" height="27" viewBox="0 0 27 27" fill="none" xmlns="http://www.w3.org/2000/svg">
<path d="M8.61694 25.2762L18.1869 17.3982C19.4041 16.3962 21.1653 16.4151 22.3607 17.4429L26.0828 20.6431C26.665 21.1437 26.9999 21.8734 26.9999 22.6413C26.9999 24.0965 25.8206 25.2762 24.3658 25.2762H8.61694Z" fill="#CFCFCF"/>
<path d="M9.24395 15.1887L20.6809 25.2762H0V19.2847L4.90495 15.1426C6.15895 14.0836 8.01336 14.1033 9.24395 15.1887Z" fill="#444444"/>
<path d="M19.5319 8.04226C19.5319 9.62861 18.2459 10.9146 16.6596 10.9146C15.0732 10.9146 13.7872 9.62861 13.7872 8.04226C13.7872 6.45591 15.0732 5.16992 16.6596 5.16992C18.2459 5.16992 19.5319 6.45591 19.5319 8.04226Z" fill="#444444"/>
<path fill-rule="evenodd" clip-rule="evenodd" d="M2.71916 2.75411V24.2459H24.2808V2.75411H2.71916ZM2.17533 0C0.973929 0 0 0.986443 0 2.20329V24.7967C0 26.0136 0.973931 27 2.17533 27H24.8247C26.0261 27 27 26.0136 27 24.7967V2.20329C27 0.986446 26.0261 0 24.8247 0H2.17533Z" fill="#444444"/>
</svg>
