<svg width="27" height="27" viewBox="0 0 27 27" fill="none" xmlns="http://www.w3.org/2000/svg">
    <path d="m8.617 25.277 9.57-7.878a3.241 3.241 0 0 1 4.173.044l3.723 3.2a2.635 2.635 0 0 1-1.717 4.634H8.616z" fill="#AAA"/>
    <path d="M9.244 15.19 20.68 25.276H0v-5.992l4.905-4.142a3.329 3.329 0 0 1 4.339.046zM19.532 8.043a2.872 2.872 0 1 1-5.745 0 2.872 2.872 0 0 1 5.745 0z" fill="#BDBDBD"/>
    <path fill-rule="evenodd" clip-rule="evenodd" d="M2.72 2.754v21.492h21.56V2.754H2.72zM2.174 0C.974 0 0 .986 0 2.203v22.594C0 26.014.974 27 2.175 27h22.65C26.026 27 27 26.014 27 24.797V2.203C27 .986 26.026 0 24.825 0H2.175z" fill="#BDBDBD"/>
</svg>
