<svg width="27" height="26" fill="none" xmlns="http://www.w3.org/2000/svg">
    <ellipse cx="16.176" cy="7.648" rx="2.451" ry="2.549" fill="#4E4E4E"/>
    <path d="m8.334 24.216 9.577-7.841a3 3 0 0 1 3.85.041l3.806 3.254a2.582 2.582 0 0 1-1.679 4.546H8.334z" fill="#444"/>
    <path d="m8.86 14.48 11.238 9.99H.023v-5.862l4.9-4.17a3 3 0 0 1 3.938.041z" fill="#4E4E4E"/>
    <path d="M1.25 2A.75.75 0 0 1 2 1.25h22.47a.75.75 0 0 1 .75.75v22a.75.75 0 0 1-.75.75H2a.75.75 0 0 1-.75-.75V2z" stroke="#4E4E4E" stroke-width="2.5"/>
</svg>
