<svg width="541" height="314" viewBox="0 0 541 314" fill="none" xmlns="http://www.w3.org/2000/svg">
    <path opacity=".8" d="M517.374 309.941v.852H0l14.72-7.646a38.614 38.614 0 0 1 17.799-4.347l.222-4.882a29.524 29.524 0 0 1 6.196-16.79l1.475-1.896a24.612 24.612 0 0 1 19.423-9.494l.794-6.56a26.438 26.438 0 0 1 26.247-23.261h11.33a21.321 21.321 0 0 1 13.183-19.706l2.402-.991a39.146 39.146 0 0 1 14.946-2.965h1.338v-3.991c0-6.07 1.753-12.01 5.049-17.107 8.22-12.714 23.741-18.622 38.334-14.591l2.469.682 2.224-1.545a33.064 33.064 0 0 1 18.865-5.91h.802c25.754 0 48.218 17.493 54.528 42.462l21.523 7.061a33.477 33.477 0 0 0 14.578 1.41l4.086-.509c16.464-2.053 31.377 9.883 32.98 26.397 9.913-13.562 27.369-19.292 43.39-14.244l6.9 2.174a32.705 32.705 0 0 1 22.877 31.194l3.285-2.156a26.978 26.978 0 0 1 21.672-3.538l2.671.702a20.872 20.872 0 0 1 13.346 10.826 87.382 87.382 0 0 1 51.889 2.542l1.062.388a37.736 37.736 0 0 1 24.769 35.439z" fill="url(#ynndq9ctla)"/>
    <path fill-rule="evenodd" clip-rule="evenodd" d="M284.768 209.69s-2.916-13.07-11.4-19.476c-8.37-6.567-21.264-5.229-21.264-5.229s6.421-10.178 18.769-6.073c.613-.844 2.766-2.788 5.991-5.699 8.925-8.057 26.061-23.526 41.493-43.62 28.451-37.047 54.558-84.46 60.755-95.952a3.145 3.145 0 0 1 4.073-1.371 3.128 3.128 0 0 1 1.448 4.352L360.089 81.36a612.002 612.002 0 0 1-71.549 103.515l-3.883 4.539c5.78 9.795.111 20.277.111 20.277zm-38.524 71.973c-1.895 3.095-4.557 10.103-5.608 13.741-.648 2.614-.408 6.51-.136 9.075.129 1.213-1.018 2.216-2.19 1.872-3.951-1.159-7.028-4.402-7.524-8.489-.125-1.023-.199-1.943-.174-2.562.365-4.966 1.673-8.124 3.361-12.197.397-.957.814-1.964 1.246-3.058-4.599 4.983-9.176 16.019-10.949 20.582-.45 1.159-1.667 1.794-2.823 1.338-3.215-1.27-10.277-4.667-21.717-13.226-11.884-8.894-16.533-15.563-18.187-18.548-.58-1.045-.367-2.287.385-3.217l8.742-10.795s-1.657.865-6.486 3.316a40.389 40.389 0 0 1-4.005 1.761c-2.888 1.087-5.988-.169-7.76-2.694a.919.919 0 0 1 .399-1.375c3.72-1.55 16.343-6.946 23.097-11.54 6.207-4.334 10.251-9.1 14.367-13.95.901-1.062 1.805-2.128 2.737-3.194-2.073 1.604-4.05 3.232-5.995 4.832-7.208 5.931-13.957 11.484-23.341 14.059-1.234.352-2.955 1.011-4.767 1.763-5.428 2.253-12.088.907-13.399-4.821a39.23 39.23 0 0 1-.369-1.611c-.335-1.656 1.439-2.24 3.044-2.769l.012-.003c5.548-1.827 18.07-6.043 22.316-8.26 7.353-3.795 12.415-10.114 17.502-16.464 3.218-4.018 6.447-8.048 10.271-11.459 40.853-36.354 82.627 3.987 50.227 46.04-4.899 6.49-17.803 24.952-22.276 31.853z" fill="url(#u9zxzqtwfb)"/>
    <circle cx="466" cy="230" r="10" fill="#EBDDFD"/>
    <circle cx="535.5" cy="278.5" r="5.5" fill="#EFE4FD"/>
    <circle cx="165.5" cy="148.5" r="5.5" fill="#C097F9"/>
    <circle cx="48" cy="206" r="15" fill="#D6BBFB"/>
    <defs>
        <linearGradient id="ynndq9ctla" x1="258.687" y1="169.793" x2="259" y2="322.5" gradientUnits="userSpaceOnUse">
            <stop stop-color="#B07BF7"/>
            <stop offset="1" stop-color="#fff"/>
        </linearGradient>
        <linearGradient id="u9zxzqtwfb" x1="186" y1="281" x2="350" y2="-7.699" gradientUnits="userSpaceOnUse">
            <stop stop-color="#E6BDFF"/>
            <stop offset=".301" stop-color="#B84AFB"/>
            <stop offset=".644" stop-color="#6C48FC"/>
            <stop offset="1" stop-color="#C7B9FF"/>
        </linearGradient>
    </defs>
</svg>
