<svg width="541" height="314" viewBox="0 0 541 314" fill="none" xmlns="http://www.w3.org/2000/svg">
<path opacity="0.8" d="M517.374 309.941V310.793H0L14.7196 303.147C20.218 300.291 26.3229 298.8 32.5188 298.8L32.7414 293.918C33.0197 287.815 35.1844 281.949 38.937 277.128L40.4122 275.232C45.0755 269.241 52.2426 265.738 59.8346 265.738L60.6289 259.178C61.5683 251.419 65.8924 244.473 72.44 240.206C76.7344 237.407 81.7497 235.917 86.8756 235.917H98.2068C98.2068 227.286 103.411 219.506 111.389 216.211L113.791 215.22C118.531 213.262 123.609 212.255 128.737 212.255H130.075V208.264C130.075 202.194 131.828 196.254 135.124 191.157C143.344 178.443 158.865 172.535 173.458 176.566L175.927 177.248L178.151 175.703C183.69 171.855 190.272 169.793 197.016 169.793H197.818C223.572 169.793 246.036 187.286 252.346 212.255L273.869 219.316C278.565 220.856 283.543 221.338 288.447 220.726L292.533 220.217C308.997 218.164 323.91 230.1 325.513 246.614C335.426 233.052 352.882 227.322 368.903 232.37L375.803 234.544C389.42 238.834 398.68 251.461 398.68 265.738L401.965 263.582C408.361 259.383 416.238 258.097 423.637 260.044L426.308 260.746C432.105 262.271 436.967 266.215 439.654 271.572C456.808 267.139 474.905 268.026 491.543 274.114L492.605 274.502C507.481 279.945 517.374 294.1 517.374 309.941Z" fill="url(#paint0_linear_7298_18939)"/>
<path fill-rule="evenodd" clip-rule="evenodd" d="M284.768 209.69C284.768 209.69 281.852 196.62 273.368 190.214C264.998 183.647 252.104 184.985 252.104 184.985C252.104 184.985 258.525 174.807 270.873 178.912C271.486 178.068 273.639 176.124 276.864 173.213C285.789 165.156 302.925 149.687 318.357 129.593C346.808 92.5463 372.915 45.1328 379.112 33.6409C379.898 32.1824 381.676 31.584 383.185 32.2695C384.842 33.0226 385.509 35.0263 384.633 36.6223L360.089 81.3595C339.859 118.231 315.883 152.92 288.54 184.874L284.657 189.413C290.437 199.208 284.768 209.69 284.768 209.69ZM246.244 281.663C244.349 284.758 241.687 291.766 240.636 295.404C239.988 298.018 240.228 301.914 240.5 304.479C240.629 305.692 239.482 306.695 238.31 306.351C234.359 305.192 231.282 301.949 230.786 297.862C230.661 296.839 230.587 295.919 230.612 295.3C230.977 290.334 232.285 287.176 233.973 283.103C234.37 282.146 234.787 281.139 235.219 280.045C230.62 285.028 226.043 296.064 224.27 300.627C223.82 301.786 222.603 302.421 221.447 301.965C218.232 300.695 211.17 297.298 199.73 288.739C187.846 279.845 183.197 273.176 181.543 270.191C180.963 269.146 181.176 267.904 181.928 266.974L190.67 256.179C190.67 256.179 189.013 257.044 184.184 259.495C182.75 260.222 181.386 260.801 180.179 261.256C177.291 262.343 174.191 261.087 172.419 258.562C172.082 258.081 172.277 257.412 172.818 257.187C176.538 255.637 189.161 250.241 195.915 245.647C202.122 241.313 206.166 236.547 210.282 231.697C211.183 230.635 212.087 229.569 213.019 228.503C210.946 230.107 208.969 231.735 207.024 233.335C199.816 239.266 193.067 244.819 183.683 247.394C182.449 247.746 180.728 248.405 178.916 249.157C173.488 251.41 166.828 250.064 165.517 244.336C165.36 243.704 165.239 243.172 165.148 242.725C164.813 241.069 166.587 240.485 168.192 239.956L168.204 239.953C173.752 238.126 186.274 233.91 190.52 231.693C197.873 227.898 202.935 221.579 208.022 215.229C211.24 211.211 214.469 207.181 218.293 203.77C259.146 167.416 300.92 207.757 268.52 249.81C263.621 256.3 250.717 274.762 246.244 281.663Z" fill="url(#paint1_linear_7298_18939)"/>
<circle cx="466" cy="230" r="10" fill="#5F4A7B"/>
<circle cx="535.5" cy="278.5" r="5.5" fill="#38333F"/>
<circle cx="165.5" cy="148.5" r="5.5" fill="#9369CA"/>
<circle cx="48" cy="206" r="15" fill="#6A518B"/>
<defs>
<linearGradient id="paint0_linear_7298_18939" x1="258.687" y1="169.793" x2="259" y2="311" gradientUnits="userSpaceOnUse">
<stop stop-color="#B07BF7"/>
<stop offset="1" stop-color="#2A2A2A"/>
</linearGradient>
<linearGradient id="paint1_linear_7298_18939" x1="186" y1="281" x2="350" y2="-7.69917" gradientUnits="userSpaceOnUse">
<stop stop-color="#D6A7F3"/>
<stop offset="0.300828" stop-color="#9F6DBD"/>
<stop offset="0.643655" stop-color="#7755FF"/>
<stop offset="1" stop-color="#A088FF"/>
</linearGradient>
</defs>
</svg>
