<svg width="170" height="118" viewBox="0 0 170 118" fill="none" xmlns="http://www.w3.org/2000/svg">
<path d="M89 84.9027V58.0972C88.9988 56.9221 88.6902 55.7679 88.1051 54.7505C87.5201 53.733 86.6791 52.8881 85.6667 52.3006L62.3333 38.8978C61.3199 38.3096 60.1702 38 59 38C57.8298 38 56.6801 38.3096 55.6667 38.8978L32.3333 52.3006C31.3209 52.8881 30.4799 53.733 29.8949 54.7505C29.3098 55.7679 29.0012 56.9221 29 58.0972V84.9027C29.0012 86.0779 29.3098 87.2321 29.8949 88.2495C30.4799 89.267 31.3209 90.1118 32.3333 90.6994L55.6667 104.102C56.6801 104.69 57.8298 105 59 105C60.1702 105 61.3199 104.69 62.3333 104.102L85.6667 90.6994C86.6791 90.1118 87.5201 89.267 88.1051 88.2495C88.6902 87.2321 88.9988 86.0779 89 84.9027Z" fill="#F7F0FD" stroke="#AEA0B9" stroke-width="1.8" stroke-linecap="round" stroke-linejoin="round"/>
<path d="M139 38C139 50.7025 128.703 61 116 61C103.297 61 93 50.7025 93 38C93 25.2975 103.297 15 116 15C128.703 15 139 25.2975 139 38Z" fill="#A934FF"/>
<path d="M114.533 40.7334C114.533 40.2105 114.619 39.7512 114.793 39.3555C114.967 38.9597 115.191 38.6064 115.466 38.2955C115.741 37.9846 116.03 37.6948 116.334 37.4263C116.652 37.1578 116.949 36.8963 117.224 36.6419C117.499 36.3875 117.723 36.119 117.897 35.8364C118.071 35.5537 118.157 35.2357 118.157 34.8824C118.157 34.2888 117.911 33.8083 117.419 33.4408C116.927 33.0734 116.269 32.8896 115.444 32.8896C114.648 32.8896 113.954 33.031 113.36 33.3136C112.782 33.5963 112.297 33.9991 111.906 34.522L109.801 33.1864C110.409 32.3809 111.204 31.7519 112.188 31.2997C113.172 30.8333 114.337 30.6001 115.683 30.6001C116.739 30.6001 117.665 30.7556 118.461 31.0665C119.257 31.3633 119.879 31.8014 120.328 32.3809C120.776 32.9462 121.001 33.6387 121.001 34.4584C121.001 35.0237 120.907 35.5184 120.719 35.9424C120.545 36.3663 120.313 36.7409 120.024 37.0659C119.749 37.3769 119.452 37.6736 119.134 37.9563C118.816 38.2248 118.512 38.4934 118.222 38.7619C117.948 39.0304 117.723 39.3201 117.55 39.6311C117.376 39.942 117.289 40.3094 117.289 40.7334H114.533ZM115.922 45.8001C115.415 45.8001 114.996 45.6376 114.663 45.3125C114.344 44.9875 114.185 44.5988 114.185 44.1465C114.185 43.6943 114.344 43.3127 114.663 43.0018C114.996 42.6767 115.415 42.5142 115.922 42.5142C116.428 42.5142 116.841 42.6767 117.159 43.0018C117.477 43.3127 117.636 43.6943 117.636 44.1465C117.636 44.5988 117.477 44.9875 117.159 45.3125C116.841 45.6376 116.428 45.8001 115.922 45.8001Z" fill="white"/>
<path fill-rule="evenodd" clip-rule="evenodd" d="M66.0833 82C65.3009 82 64.6667 81.3662 64.6667 80.5843V80.4144C64.6667 77.2868 62.1296 74.7515 59 74.7515C55.8704 74.7515 53.3333 77.2868 53.3333 80.4144V80.5843C53.3333 81.3662 52.6991 82 51.9167 82C51.1343 82 50.5 81.3662 50.5 80.5843V80.4144C50.5 75.7231 54.3056 71.92 59 71.92C63.6944 71.92 67.5 75.7231 67.5 80.4144V80.5843C67.5 81.3662 66.8657 82 66.0833 82Z" fill="#A846FF"/>
<path fill-rule="evenodd" clip-rule="evenodd" d="M63.5606 61C64.3621 61 65.0118 61.6132 65.0118 62.3696V67.1904C65.0118 67.9468 64.3621 68.56 63.5606 68.56C62.7591 68.56 62.1094 67.9468 62.1094 67.1904V62.3696C62.1094 61.6132 62.7591 61 63.5606 61Z" fill="#A846FF"/>
<path fill-rule="evenodd" clip-rule="evenodd" d="M54.8536 61C55.6551 61 56.3048 61.6132 56.3048 62.3696V67.1904C56.3048 67.9468 55.6551 68.56 54.8536 68.56C54.0521 68.56 53.4023 67.9468 53.4023 67.1904V62.3696C53.4023 61.6132 54.0521 61 54.8536 61Z" fill="#A846FF"/>
</svg>
