<svg width="85" height="90" viewBox="0 0 85 90" fill="none" xmlns="http://www.w3.org/2000/svg">
    <path d="M84.424 23.793c-2.569 10.264-13.008 16.51-23.316 13.95-10.304-2.559-16.576-12.954-14.005-23.217C49.67 4.26 60.11-1.985 70.415.573c10.307 2.559 16.579 12.956 14.01 23.22z" fill="#3C3C3C"/>
    <path d="M72.99 16.73c.32-2.147-1.31-3.301-3.538-4.071l.723-2.91-1.765-.44-.703 2.832a72.55 72.55 0 0 0-1.415-.334l.71-2.851-1.765-.441-.723 2.908a58.37 58.37 0 0 1-1.127-.266l.002-.01-2.434-.609-.47 1.891s1.31.301 1.282.32c.715.179.844.653.823 1.03l-.824 3.313c.05.013.113.031.184.06l-.187-.047-1.154 4.642c-.087.218-.309.545-.809.42.018.026-1.283-.32-1.283-.32l-.876 2.026 2.297.575c.427.107.846.22 1.258.325l-.73 2.943 1.763.44.723-2.91c.482.131.95.252 1.407.366l-.72 2.897 1.764.442.73-2.937c3.01.571 5.273.341 6.226-2.39.768-2.199-.038-3.467-1.622-4.294 1.154-.267 2.022-1.028 2.254-2.6zm-4.032 5.673c-.546 2.199-4.236 1.01-5.433.712l.97-3.898c1.196.3 5.033.893 4.463 3.186zm.546-5.705c-.498 2-3.57.984-4.566.735l.879-3.535c.996.25 4.205.714 3.687 2.8z" fill="#636363"/>
    <ellipse cx="50.553" cy="77.079" rx="12.974" ry="12.921" fill="#3C3C3C"/>
    <path d="M46.625 79.103a.379.379 0 0 1 .268-.11h9.283c.17 0 .254.204.134.321l-1.835 1.824a.379.379 0 0 1-.267.11h-9.281a.188.188 0 0 1-.134-.321l1.832-1.824zM46.625 72.29a.38.38 0 0 1 .268-.112h9.283c.17 0 .254.204.134.322l-1.835 1.823a.379.379 0 0 1-.267.111h-9.281a.188.188 0 0 1-.134-.321l1.832-1.824zM54.475 75.671a.379.379 0 0 0-.267-.11h-9.281a.188.188 0 0 0-.134.321l1.835 1.824a.38.38 0 0 0 .267.11h9.283c.17 0 .254-.204.134-.321l-1.837-1.824z" fill="#636363"/>
    <ellipse cx="13.421" cy="49.01" rx="13.421" ry="13.366" fill="#3C3C3C"/>
    <path fill-rule="evenodd" clip-rule="evenodd" d="M15.433 42.206c.534.085.911.198 1.132.337.22.139.454.412.703.82-.134.115-.25.181-.35.2-.1.017-.264.002-.494-.046l-.274-.129a.525.525 0 0 0-.7.265.474.474 0 0 0 .277.647l.365.117c.104.084.15.202.138.354a.765.765 0 0 1-.206.444l.198.56c-.238.055-.526.07-.86.049-.504-.034-.75-.192-.754-.216-.002-.013-.165-.106-.49-.28a4.04 4.04 0 0 0-1.046-.137c-2.299 0-4.162 1.923-4.162 4.296s1.863 4.297 4.162 4.297c1.542 0 2.888-.867 3.607-2.153h-1.726a.696.696 0 0 1-.664-.513l-.455-1.596a.143.143 0 0 1 .093-.177.133.133 0 0 1 .04-.006h5.507a.37.37 0 0 1 .353.27c.075.254.113.528.113.821 0 .33-.063.66-.189.99-.817 3.016-3.498 5.228-6.68 5.228-3.83 0-6.935-3.206-6.935-7.16 0-3.214 2.05-5.933 4.873-6.84a.132.132 0 0 1 .04-.032c.37-.181.931-.27 1.506-.365l.075-.012.262-.045c.457-.081 1.304-.077 2.54.012zm2.03 1.41c.194.156.319.287.374.394.055.104.107.28.159.527l.005.026 1.357 1.263a.287.287 0 0 1 .086.158l.003.013.021.156a.09.09 0 0 1-.052.096l-.007.003-.069.023-.04-.005c-1.344-.184-2.161-.341-2.453-.47-.277-.123-.321-.41-.131-.864a.245.245 0 0 0 .006-.17l-.004-.012-.13-.337a.236.236 0 0 0-.042-.07l-.01-.01-.276-.285c-.083-.017-.174.01-.257-.007a1.344 1.344 0 0 1-.148-.052.168.168 0 0 1-.078-.22.227.227 0 0 1 .25-.13c.079.015.135.029.17.04.056.02.13.06.225.122.283.058.49.075.622.05.132-.024.272-.103.42-.239z" fill="#636363"/>
</svg>
