<svg width="90" height="98" viewBox="0 0 90 98" fill="none" xmlns="http://www.w3.org/2000/svg">
<g id="Rewards">
<g id="Hyper">
<path id="Vector" d="M90 68.604V29.396C89.9982 27.6771 89.5353 25.9888 88.6577 24.5007C87.7801 23.0125 86.5187 21.7767 85 20.9172L50 1.31322C48.4798 0.452914 46.7554 0 45 0C43.2446 0 41.5202 0.452914 40 1.31322L5 20.9172C3.48131 21.7767 2.2199 23.0125 1.34231 24.5007C0.464714 25.9888 0.00179871 27.6771 0 29.396V68.604C0.00179871 70.3229 0.464714 72.0111 1.34231 73.4993C2.2199 74.9875 3.48131 76.2233 5 77.0828L40 96.6868C41.5202 97.5471 43.2446 98 45 98C46.7554 98 48.4798 97.5471 50 96.6868L85 77.0828C86.5187 76.2233 87.7801 74.9875 88.6577 73.4993C89.5353 72.0111 89.9982 70.3229 90 68.604Z" fill="#FAF5FF"/>
</g>
<g id="Group 27457">
<path id="Vector 479 (Stroke)" fill-rule="evenodd" clip-rule="evenodd" d="M55.625 64.3125C54.4514 64.3125 53.5 63.3419 53.5 62.1447V61.8845C53.5 57.0955 49.6944 53.2132 45 53.2132C40.3056 53.2132 36.5 57.0955 36.5 61.8845V62.1447C36.5 63.3419 35.5486 64.3125 34.375 64.3125C33.2014 64.3125 32.25 63.3419 32.25 62.1447V61.8845C32.25 54.7009 37.9584 48.8775 45 48.8775C52.0416 48.8775 57.75 54.7009 57.75 61.8845V62.1447C57.75 63.3419 56.7986 64.3125 55.625 64.3125Z" fill="#636363"/>
<path id="Vector 480 (Stroke)" fill-rule="evenodd" clip-rule="evenodd" d="M51.8414 32.1562C53.0436 32.1562 54.0182 33.0952 54.0182 34.2534V41.6354C54.0182 42.7936 53.0436 43.7325 51.8414 43.7325C50.6392 43.7325 49.6646 42.7936 49.6646 41.6354V34.2534C49.6646 33.0952 50.6392 32.1562 51.8414 32.1562Z" fill="#636363"/>
<path id="Vector 481 (Stroke)" fill-rule="evenodd" clip-rule="evenodd" d="M38.7806 32.1562C39.9828 32.1562 40.9574 33.0952 40.9574 34.2534V41.6354C40.9574 42.7936 39.9828 43.7325 38.7806 43.7325C37.5784 43.7325 36.6038 42.7936 36.6038 41.6354V34.2534C36.6038 33.0952 37.5784 32.1562 38.7806 32.1562Z" fill="#636363"/>
</g>
</g>
</svg>
