<svg width="86" height="85" viewBox="0 0 86 85" fill="none" xmlns="http://www.w3.org/2000/svg">
<path fill-rule="evenodd" clip-rule="evenodd" d="M12.6281 62.021C21.2016 64.1585 29.8841 58.942 32.0213 50.3705H32.0212L32.021 50.3706C34.1584 41.7987 28.9417 33.1157 20.3688 30.9788C11.798 28.8419 3.11545 34.0587 0.979231 42.6312C-1.15886 51.202 4.05818 59.8841 12.6281 62.021ZM12.2242 40.9C12.107 40.9 11.9949 40.9493 11.9115 41.037L9.76938 43.2885C9.62866 43.4336 9.72769 43.6856 9.92575 43.6856H20.7772C20.8945 43.6856 21.0065 43.6363 21.0899 43.5487L23.2346 41.2972C23.3754 41.152 23.2763 40.9 23.0783 40.9H12.2242ZM12.2242 49.3144C12.107 49.3144 11.9949 49.3637 11.9115 49.4513L9.76938 51.7028C9.62866 51.848 9.72769 52.1 9.92575 52.1H20.7772C20.8944 52.1 21.0065 52.0507 21.0899 51.963L23.2346 49.7116C23.3754 49.5664 23.2763 49.3144 23.0783 49.3144H12.2242ZM21.0899 45.2169C21.0065 45.1292 20.8944 45.0799 20.7772 45.0799H9.92575C9.72769 45.0799 9.62866 45.3319 9.76938 45.4771L11.9141 47.7286C11.9975 47.8162 12.1096 47.8655 12.2269 47.8655H23.0809C23.279 47.8655 23.378 47.6135 23.2373 47.4683L21.0899 45.2169Z" fill="#D0D0D0"/>
<path fill-rule="evenodd" clip-rule="evenodd" d="M60.6601 39.9012C71.377 42.5731 82.2301 36.0525 84.9016 25.3381H84.9015L84.9013 25.3383C87.573 14.6234 81.0521 3.76961 70.336 1.09847C59.6225 -1.57268 48.7693 4.94838 46.099 15.6639C43.4264 26.3775 49.9477 37.2301 60.6601 39.9012ZM69.0383 8.15602C69.2669 8.20241 69.571 8.27575 69.8864 8.3562C70.9304 8.62247 71.8855 9.06639 72.5157 9.94756C72.5886 10.0496 72.6093 10.2544 72.5076 10.3273C72.3473 10.4423 72.2035 10.5113 72.0763 10.5343C71.6724 10.6075 71.2761 10.4556 70.8974 10.2962L70.7533 10.2355C70.6421 10.1885 70.5261 10.17 70.4097 10.1721C69.5479 10.188 69.212 11.5036 69.9896 11.879C70.1205 11.9422 70.2931 11.9728 70.4296 11.9876C70.5743 12.0033 70.7269 12.0449 70.802 12.1707C70.8742 12.2919 70.9038 12.4384 70.8905 12.61C70.8804 12.7401 70.8048 12.8963 70.7047 13.0507C70.5262 13.3261 70.4774 13.6759 70.6374 13.9627L70.722 14.1144C70.806 14.2648 70.7206 14.4462 70.5497 14.4534C70.3892 14.4601 70.2088 14.4584 70.0392 14.453C69.6088 14.4394 69.1806 14.3814 68.7645 14.2697C68.5378 14.2088 68.2904 14.1323 68.0968 14.0463C67.3107 13.6975 66.4856 13.4266 65.627 13.4137C65.5696 13.4128 65.5122 13.4124 65.4551 13.4124C61.5184 13.4124 58.2693 16.6194 58.2693 20.6933C58.2693 24.7671 61.4955 27.9098 65.4551 27.9098C67.7308 27.9098 70.036 26.744 71.3313 24.7629C71.4391 24.5981 71.3176 24.3859 71.122 24.3859H68.9297C67.7791 24.3859 66.7706 23.6094 66.4667 22.4894L65.999 20.7661C65.9618 20.6362 66.0342 20.5 66.1606 20.4618C66.1825 20.4552 66.2051 20.4519 66.2279 20.4519H76.4793C76.7589 20.4519 77.0058 20.6394 77.0877 20.914C77.3587 21.8229 77.2488 22.8043 77.0596 23.7341C77.0397 23.8319 77.019 23.9262 76.9977 24.0134C75.6345 29.6034 70.9308 33 65.4493 33C58.8499 33 53.5 27.4958 53.5 20.7061C53.5 15.1892 56.6556 10.8881 61.9208 8.94616C62.4003 8.76931 63.0229 8.59475 63.5402 8.46114C64.2013 8.29041 64.8707 8.15724 65.5497 8.08905C66.482 7.99543 67.8893 7.92291 69.0383 8.15602ZM77.1061 14.8912L74.5746 12.6826C74.423 12.5504 74.3163 12.3735 74.2696 12.1768L74.2226 11.979C74.1222 11.5569 73.8887 11.1791 73.5572 10.9028L73.498 10.8533C73.2679 10.6616 72.9372 10.6568 72.7023 10.8418L72.6859 10.8548C72.5808 10.9375 72.4593 10.9963 72.3296 11.0269C71.8971 11.1292 71.4418 11.0532 71.0644 10.8155L70.8676 10.6916C70.5909 10.5174 70.227 10.6669 70.1494 10.9866L70.1458 11.0017C70.0686 11.3199 70.2984 11.6305 70.6222 11.6457L70.7641 11.6524C71.0283 11.6648 71.2635 11.8259 71.3729 12.0695C71.4611 12.2659 71.4611 12.4912 71.3728 12.6874L71.3289 12.785C70.948 13.6317 71.4729 14.6131 72.3828 14.7554L76.8496 15.4538C77.1663 15.5033 77.3488 15.1029 77.1061 14.8912Z" fill="#D0D0D0"/>
<path fill-rule="evenodd" clip-rule="evenodd" d="M77.5 72C77.5 78.9036 71.9036 84.5 65 84.5C58.0964 84.5 52.5 78.9036 52.5 72C52.5 65.0964 58.0964 59.5 65 59.5C71.9036 59.5 77.5 65.0964 77.5 72ZM68.7468 74.2473C68.7468 72.4643 67.5712 71.8528 65.2199 71.5972C63.5404 71.393 63.2045 70.9858 63.2045 70.2728C63.2045 69.5598 63.7647 69.1012 64.884 69.1012C65.8917 69.1012 66.452 69.407 66.7314 70.1713C66.7879 70.3242 66.9558 70.4257 67.1238 70.4257H68.0199C68.2443 70.4257 68.4123 70.2728 68.4123 70.0686V70.0172C68.1879 68.8958 67.1802 68.0299 65.893 67.9284V66.7055C65.893 66.5013 65.7251 66.3484 65.4456 66.2983H64.6058C64.3815 66.2983 64.2135 66.4511 64.1584 66.7055V67.8771C62.4789 68.0813 61.4148 69.1 61.4148 70.3743C61.4148 72.0558 62.534 72.7187 64.8853 72.973C66.4533 73.2274 66.9571 73.5331 66.9571 74.3488C66.9571 75.1645 66.1738 75.7246 65.1097 75.7246C63.6546 75.7246 63.1507 75.1645 62.9828 74.4002C62.9263 74.196 62.7584 74.0945 62.5904 74.0945H61.6392C61.4148 74.0945 61.2468 74.2473 61.2468 74.4516V74.5029C61.4712 75.7772 62.366 76.6944 64.2135 76.9488V78.1717C64.2135 78.376 64.3815 78.5288 64.6609 78.579H65.5007C65.7251 78.579 65.893 78.4261 65.9481 78.1717V76.9488C67.6263 76.6932 68.7468 75.6231 68.7468 74.2473ZM58.2103 69.4949C56.8036 73.2038 58.7432 77.3947 62.5248 78.7439C62.6702 78.841 62.8156 79.033 62.8156 79.1786V79.8526C62.8156 79.9498 62.8156 79.9972 62.7668 80.0457C62.7179 80.2388 62.5248 80.3347 62.3304 80.2388C59.6159 79.3717 57.5308 77.2999 56.6582 74.6027C55.2037 70.0256 57.7251 65.1606 62.3304 63.7155C62.3793 63.6669 62.4759 63.6669 62.5248 63.6669C62.7191 63.7143 62.8156 63.8588 62.8156 64.0519V64.7259C62.8156 64.9676 62.7191 65.1121 62.5248 65.208C60.5374 65.9306 58.9375 67.4717 58.2103 69.4949ZM67.2266 63.9074C67.2755 63.7143 67.4687 63.6184 67.663 63.7143C70.3298 64.5814 72.4626 66.6532 73.3353 69.3978C74.7897 73.9749 72.2683 78.8399 67.663 80.285C67.6141 80.3336 67.5175 80.3336 67.4687 80.3336C67.2743 80.2862 67.1778 80.1417 67.1778 79.9486V79.2746C67.1778 79.033 67.2743 78.8884 67.4687 78.7925C69.456 78.0699 71.0559 76.5288 71.7831 74.5056C73.1898 70.7967 71.2502 66.6058 67.4687 65.2566C67.3232 65.1595 67.1778 64.9676 67.1778 64.7745V64.1005C67.1778 64.0034 67.1778 63.956 67.2266 63.9074Z" fill="#D0D0D0"/>
</svg>
