<svg width="17" height="19" fill="none" xmlns="http://www.w3.org/2000/svg">
    <path fill-rule="evenodd" clip-rule="evenodd" d="M15.451.364a.9.9 0 0 1 1.275 1.272l-1.38 1.382 1.371 1.338a.9.9 0 0 1-1.257 1.288l-1.385-1.352-1.34 1.344a.9.9 0 0 1-1.275-1.272l1.327-1.33-1.416-1.381A.9.9 0 0 1 12.63.365l1.43 1.396L15.45.364zM4.5 1c-.333 0-.652.127-.888.352-.236.225-.368.53-.368.848v.541C1.308 3.182 0 4.641 0 6.535c0 2.22 2.04 3.424 3.84 4.486h.001c1.361.804 2.647 1.563 2.647 2.444C6.488 14.598 5.418 15 4.5 15c-.39 0-.773-.11-1.099-.317-.326-.207-.58-.5-.733-.844a1.273 1.273 0 0 0-.493-.544 1.359 1.359 0 0 0-.725-.195c-.197 0-.391.044-.566.131a1.198 1.198 0 0 0-.436.368A1.11 1.11 0 0 0 .31 14.67c.253.611.649 1.16 1.157 1.602.509.443 1.116.77 1.776.954v.574c0 .318.132.624.368.849.236.225.555.351.888.351.333 0 .652-.126.888-.351.236-.225.368-.53.368-.849v-.541C7.692 16.818 9 15.359 9 13.465c0-2.22-2.04-3.423-3.84-4.486h-.001c-1.361-.804-2.647-1.563-2.647-2.444C2.512 5.402 3.582 5 4.5 5c.386 0 .764.108 1.087.31.323.202.578.489.734.827.11.23.287.424.51.56.223.135.483.206.747.203.194 0 .384-.044.556-.13a1.18 1.18 0 0 0 .43-.361A1.095 1.095 0 0 0 8.7 5.355a4.32 4.32 0 0 0-1.158-1.618 4.58 4.58 0 0 0-1.786-.963V2.2c0-.318-.133-.623-.368-.848A1.286 1.286 0 0 0 4.5 1z" fill="#fff"/>
</svg>
