<svg width="21" height="20" fill="none" xmlns="http://www.w3.org/2000/svg">
    <path fill-rule="evenodd" clip-rule="evenodd" d="M20.207 1.707A1 1 0 0 0 18.793.293L13.655 5.43l-1.323-1.985a1 1 0 0 0-1.664 1.11L11.99 6.54a2 2 0 0 0 3.079.305l5.137-5.138zm-16.595.644C3.848 2.126 4.167 2 4.5 2c.333 0 .652.126.888.351.236.226.368.53.368.849v.574a4.581 4.581 0 0 1 1.786.963 4.32 4.32 0 0 1 1.157 1.618 1.095 1.095 0 0 1-.136 1.054 1.18 1.18 0 0 1-.429.361 1.24 1.24 0 0 1-.556.13 1.415 1.415 0 0 1-.747-.204c-.223-.135-.4-.33-.51-.56a1.928 1.928 0 0 0-.734-.826A2.059 2.059 0 0 0 4.5 6c-.917 0-1.988.402-1.988 1.535 0 .88 1.285 1.64 2.647 2.444h.001C6.96 11.042 9 12.246 9 14.465c0 1.894-1.308 3.353-3.244 3.794v.541c0 .318-.132.623-.368.848A1.286 1.286 0 0 1 4.5 20c-.333 0-.652-.126-.888-.352a1.173 1.173 0 0 1-.368-.848v-.574a4.583 4.583 0 0 1-1.776-.954A4.323 4.323 0 0 1 .311 15.67a1.111 1.111 0 0 1 .137-1.072c.112-.154.262-.28.436-.367.175-.087.369-.132.566-.131.256-.004.508.064.725.195.216.132.388.32.493.544.153.344.407.637.733.844.326.206.708.317 1.099.317.917 0 1.988-.402 1.988-1.535 0-.88-1.286-1.64-2.647-2.444H3.84C2.04 10.958 0 9.755 0 7.535c0-1.894 1.308-3.353 3.244-3.794V3.2c0-.318.132-.623.368-.849z" fill="#fff"/>
</svg>
