<svg width="23" height="16" fill="none" xmlns="http://www.w3.org/2000/svg">
    <path d="M22.82 1.669a.4.4 0 0 0-.49-.49l-6.367 1.696a.4.4 0 0 0-.186.663l1.387 1.45-6.992 7.074-3.197-3.06a1.3 1.3 0 0 0-1.819.009L.414 13.645a1.392 1.392 0 0 0-.048 1.93 1.305 1.305 0 0 0 1.877.05l3.837-3.75 3.212 3.076a1.3 1.3 0 0 0 1.836-.026l7.898-7.99 1.365 1.426a.4.4 0 0 0 .675-.172l1.754-6.52z" fill="#fff"/>
    <path d="m4 3 .974 1.56a.4.4 0 0 0 .632.06L9 1" stroke="#fff" stroke-width="1.5" stroke-linecap="round"/>
</svg>
