<svg width="71" height="71" viewBox="0 0 71 71" fill="none" xmlns="http://www.w3.org/2000/svg">
<path fill-rule="evenodd" clip-rule="evenodd" d="M48.0285 7.52058L30.9624 24.5867C29.2557 26.4246 26.3676 26.2933 24.7923 24.718C23.0857 23.1427 23.0857 20.2546 24.7923 18.5479L41.8584 1.35052C43.4338 -0.356097 46.3219 -0.356097 48.0285 1.35052C49.7351 3.05713 49.7351 5.81397 48.0285 7.52058ZM52.4919 46.2482C50.7853 47.9548 48.0285 47.9548 46.3219 46.2482C44.6153 44.5415 44.484 41.7847 46.4532 40.0781L63.5193 22.8807C65.0946 21.1741 67.9827 21.1741 69.6894 22.8807C71.396 24.5873 71.396 27.3441 69.6894 29.0507L52.4919 46.2482ZM42.9387 36.9557L34.0834 28.1004C33.3023 27.3194 33.3023 26.053 34.0834 25.272L48.5836 10.7717C49.3647 9.99067 50.631 9.99067 51.412 10.7717L60.2674 19.627C61.0484 20.4081 61.0484 21.6744 60.2674 22.4555L45.7671 36.9557C44.986 37.7368 43.7197 37.7368 42.9387 36.9557ZM32.7574 31.8124C33.1479 31.4434 33.7601 31.4488 34.144 31.8247L39.0574 36.6358C39.4465 37.0168 39.4592 37.6391 39.086 38.0356L10.3517 68.5659C8.25121 70.9289 4.57543 71.0601 2.21242 68.6971C-0.0193022 66.4654 -0.019302 62.7896 2.3437 60.5579L32.7574 31.8124Z" fill="url(#paint0_linear_58_2919)"/>
<defs>
<linearGradient id="paint0_linear_58_2919" x1="35.762" y1="0.0705566" x2="35.9996" y2="127.5" gradientUnits="userSpaceOnUse">
<stop stop-color="#5B55FF"/>
<stop offset="1" stop-color="#DC1FFF"/>
</linearGradient>
</defs>
</svg>
