<svg width="54" height="54" viewBox="0 0 54 54" fill="none" xmlns="http://www.w3.org/2000/svg">
    <path fill-rule="evenodd" clip-rule="evenodd" d="m36.163 5.675-13 13c-1.3 1.4-3.5 1.3-4.7.1-1.3-1.2-1.3-3.4 0-4.7l13-13.1c1.2-1.3 3.4-1.3 4.7 0 1.3 1.3 1.3 3.4 0 4.7zm3.4 29.5a3.32 3.32 0 0 1-4.7 0c-1.3-1.3-1.4-3.4.1-4.7l13-13.1c1.2-1.3 3.4-1.3 4.7 0 1.3 1.3 1.3 3.4 0 4.7l-13.1 13.1zm-7.614-7.415-6.072-6.072a2 2 0 0 1 0-2.828L36.25 8.488a2 2 0 0 1 2.828 0l6.072 6.072a2 2 0 0 1 0 2.828L34.777 27.76a2 2 0 0 1-2.828 0zm-7.585-3.423a1 1 0 0 1 1.386.012l3.412 3.34a1 1 0 0 1 .029 1.4L7.463 52.177c-1.6 1.8-4.4 1.9-6.2.1-1.7-1.7-1.7-4.5.1-6.2l23-21.74z" fill="url(#a)"/>
    <defs>
        <linearGradient id="a" x1="26.819" y1="0" x2="26.819" y2="53.577" gradientUnits="userSpaceOnUse">
            <stop stop-color="#fff"/>
            <stop offset="1" stop-color="#262626" stop-opacity="0"/>
            <stop offset="1" stop-color="#fff" stop-opacity="0"/>
        </linearGradient>
    </defs>
</svg>
