<svg width="20" height="21" viewBox="0 0 20 21" fill="none" xmlns="http://www.w3.org/2000/svg">
<path d="M6.66699 6.33333C6.66699 7.21739 7.01818 8.06523 7.6433 8.69036C8.26842 9.31548 9.11627 9.66667 10.0003 9.66667C10.8844 9.66667 11.7322 9.31548 12.3573 8.69036C12.9825 8.06523 13.3337 7.21739 13.3337 6.33333C13.3337 5.44928 12.9825 4.60143 12.3573 3.97631C11.7322 3.35119 10.8844 3 10.0003 3C9.11627 3 8.26842 3.35119 7.6433 3.97631C7.01818 4.60143 6.66699 5.44928 6.66699 6.33333Z" stroke="white" stroke-width="1.5" stroke-linecap="round" stroke-linejoin="round"/>
<path d="M2.08301 14.6663C2.08301 15.5504 2.4342 16.3982 3.05932 17.0234C3.68444 17.6485 4.53229 17.9997 5.41634 17.9997C6.3004 17.9997 7.14824 17.6485 7.77336 17.0234C8.39849 16.3982 8.74967 15.5504 8.74967 14.6663C8.74967 13.7823 8.39849 12.9344 7.77336 12.3093C7.14824 11.6842 6.3004 11.333 5.41634 11.333C4.53229 11.333 3.68444 11.6842 3.05932 12.3093C2.4342 12.9344 2.08301 13.7823 2.08301 14.6663Z" stroke="white" stroke-width="1.5" stroke-linecap="round" stroke-linejoin="round"/>
<path d="M11.25 14.6663C11.25 15.5504 11.6012 16.3982 12.2263 17.0234C12.8514 17.6485 13.6993 17.9997 14.5833 17.9997C15.4674 17.9997 16.3152 17.6485 16.9404 17.0234C17.5655 16.3982 17.9167 15.5504 17.9167 14.6663C17.9167 13.7823 17.5655 12.9344 16.9404 12.3093C16.3152 11.6842 15.4674 11.333 14.5833 11.333C13.6993 11.333 12.8514 11.6842 12.2263 12.3093C11.6012 12.9344 11.25 13.7823 11.25 14.6663Z" stroke="white" stroke-width="1.5" stroke-linecap="round" stroke-linejoin="round"/>
</svg>
