<svg width="20" height="21" viewBox="0 0 20 21" fill="none" xmlns="http://www.w3.org/2000/svg">
<path d="M6.66663 6.33333C6.66663 7.21739 7.01782 8.06523 7.64294 8.69036C8.26806 9.31548 9.1159 9.66667 9.99996 9.66667C10.884 9.66667 11.7319 9.31548 12.357 8.69036C12.9821 8.06523 13.3333 7.21739 13.3333 6.33333C13.3333 5.44928 12.9821 4.60143 12.357 3.97631C11.7319 3.35119 10.884 3 9.99996 3C9.1159 3 8.26806 3.35119 7.64294 3.97631C7.01782 4.60143 6.66663 5.44928 6.66663 6.33333Z" stroke="#AEA0B9" stroke-width="1.5" stroke-linecap="round" stroke-linejoin="round"/>
<path d="M2.08337 14.6663C2.08337 15.5504 2.43456 16.3982 3.05968 17.0234C3.68481 17.6485 4.53265 17.9997 5.41671 17.9997C6.30076 17.9997 7.14861 17.6485 7.77373 17.0234C8.39885 16.3982 8.75004 15.5504 8.75004 14.6663C8.75004 13.7823 8.39885 12.9344 7.77373 12.3093C7.14861 11.6842 6.30076 11.333 5.41671 11.333C4.53265 11.333 3.68481 11.6842 3.05968 12.3093C2.43456 12.9344 2.08337 13.7823 2.08337 14.6663Z" stroke="#AEA0B9" stroke-width="1.5" stroke-linecap="round" stroke-linejoin="round"/>
<path d="M11.25 14.6663C11.25 15.5504 11.6012 16.3982 12.2263 17.0234C12.8514 17.6485 13.6993 17.9997 14.5833 17.9997C15.4674 17.9997 16.3152 17.6485 16.9404 17.0234C17.5655 16.3982 17.9167 15.5504 17.9167 14.6663C17.9167 13.7823 17.5655 12.9344 16.9404 12.3093C16.3152 11.6842 15.4674 11.333 14.5833 11.333C13.6993 11.333 12.8514 11.6842 12.2263 12.3093C11.6012 12.9344 11.25 13.7823 11.25 14.6663Z" stroke="#AEA0B9" stroke-width="1.5" stroke-linecap="round" stroke-linejoin="round"/>
</svg>
