<svg width="36" height="36" viewBox="0 0 36 36" fill="none" xmlns="http://www.w3.org/2000/svg">
    <path d="M18.098 35.71a.97.97 0 0 1-.982.001C8.526 30.674 2.38 22.242.263 12.511l-.1-.458a1.106 1.106 0 0 1 .484-1.166l14.319-9.19a5 5 0 0 1 5.318-.053l15.07 9.26c.383.236.565.696.446 1.13l-.197.72A38.447 38.447 0 0 1 18.098 35.71z" fill="#1B1B1B"/>
    <path d="M9.933 14.7V21h-1.17v-5.319H7.43V14.7h2.502zm3.878 6.39a2.46 2.46 0 0 1-1.35-.378c-.396-.258-.708-.63-.936-1.116-.228-.492-.342-1.074-.342-1.746 0-.672.114-1.251.342-1.737.228-.492.54-.864.936-1.116a2.418 2.418 0 0 1 1.35-.387c.504 0 .954.129 1.35.387.402.252.717.624.945 1.116.228.486.342 1.065.342 1.737 0 .672-.114 1.254-.342 1.746-.228.486-.543.858-.945 1.116a2.46 2.46 0 0 1-1.35.378zm0-1.017c.45 0 .804-.186 1.062-.558.264-.372.396-.927.396-1.665s-.132-1.293-.396-1.665a1.224 1.224 0 0 0-1.062-.558c-.444 0-.798.186-1.062.558-.258.372-.387.927-.387 1.665s.129 1.293.387 1.665c.264.372.618.558 1.062.558zm6.055 1.017a2.46 2.46 0 0 1-1.35-.378c-.396-.258-.708-.63-.936-1.116-.228-.492-.342-1.074-.342-1.746 0-.672.114-1.251.342-1.737.228-.492.54-.864.936-1.116a2.418 2.418 0 0 1 1.35-.387c.504 0 .954.129 1.35.387.402.252.717.624.945 1.116.228.486.342 1.065.342 1.737 0 .672-.114 1.254-.342 1.746-.228.486-.543.858-.945 1.116a2.46 2.46 0 0 1-1.35.378zm0-1.017c.45 0 .804-.186 1.062-.558.264-.372.396-.927.396-1.665s-.132-1.293-.396-1.665a1.224 1.224 0 0 0-1.062-.558c-.444 0-.798.186-1.062.558-.258.372-.387.927-.387 1.665s.13 1.293.387 1.665c.264.372.618.558 1.062.558zm4.832-1.98c-.45 0-.813-.159-1.09-.477-.275-.318-.413-.735-.413-1.251 0-.516.138-.933.414-1.251.276-.318.639-.477 1.089-.477.45 0 .813.159 1.089.477.282.312.423.729.423 1.251 0 .522-.141.942-.423 1.26-.276.312-.64.468-1.09.468zm3.78-3.393h.882L25.058 21h-.882l4.302-6.3zm-3.78 2.763a.647.647 0 0 0 .567-.288c.138-.192.207-.462.207-.81 0-.348-.07-.618-.207-.81a.647.647 0 0 0-.567-.288.67.67 0 0 0-.567.297c-.138.192-.207.459-.207.801s.069.612.207.81a.676.676 0 0 0 .567.288zm4.13 3.6c-.45 0-.812-.159-1.088-.477-.276-.318-.414-.735-.414-1.251 0-.516.138-.933.414-1.251.276-.318.639-.477 1.089-.477.45 0 .813.159 1.089.477.282.318.423.735.423 1.251 0 .516-.141.933-.423 1.251-.276.318-.64.477-1.09.477zm0-.63a.66.66 0 0 0 .568-.288c.138-.198.207-.468.207-.81s-.07-.609-.207-.801a.655.655 0 0 0-.567-.297.66.66 0 0 0-.567.288c-.138.192-.207.462-.207.81 0 .348.069.618.207.81a.66.66 0 0 0 .567.288z" fill="#fff"/>
</svg>
