<svg width="134" height="94" viewBox="0 0 134 94" fill="none" xmlns="http://www.w3.org/2000/svg">
    <path d="M84.706 6.222c-20.266-12.747-33.41 6.305-33.41 6.305S38.152-6.525 17.886 6.222C-2.379 18.969 4.741 41.585 10.63 50.905s13.83 19.327 40.667 35.088c26.838-15.761 34.78-25.768 40.666-35.088 5.889-9.32 13.01-31.936-7.256-44.683z" fill="url(#m82es87x5a)"/>
    <ellipse cx="11.327" cy="11.284" rx="11.327" ry="11.284" transform="rotate(-9.96 274.832 19.466) skewX(.08)" fill="#000"/>
    <path d="M11.164 59.709a.322.322 0 0 1 .208-.134l7.811-1.372a.162.162 0 0 1 .161.253l-1.27 1.82a.322.322 0 0 1-.208.134l-7.81 1.371a.163.163 0 0 1-.16-.253l1.268-1.82z" fill="url(#bi0fn52ogb)"/>
    <path d="M10.14 53.92a.322.322 0 0 1 .207-.133l7.812-1.372a.162.162 0 0 1 .16.254l-1.268 1.82a.322.322 0 0 1-.209.133l-7.81 1.371a.163.163 0 0 1-.16-.253l1.267-1.82z" fill="url(#zuyc287cuc)"/>
    <path d="M17.253 55.636a.323.323 0 0 0-.241-.055l-7.81 1.372a.162.162 0 0 0-.064.293l1.818 1.277c.07.05.157.07.241.055l7.812-1.372a.162.162 0 0 0 .064-.293l-1.82-1.277z" fill="url(#uc9lown9ld)"/>
    <path d="M113.281 80.644c-1.268 6.818-7.848 11.323-14.696 10.058-6.848-1.264-11.37-7.817-10.1-14.635 1.268-6.819 7.847-11.323 14.696-10.06 6.848 1.265 11.369 7.818 10.1 14.637z" fill="#fff" stroke="#ECECEC" stroke-width=".5"/>
    <path fill-rule="evenodd" clip-rule="evenodd" d="M103.971 72.295c.488.173.824.344 1.008.514.183.17.356.468.518.895-.146.085-.268.127-.364.127-.097 0-.249-.043-.457-.13l-.236-.168a.503.503 0 0 0-.706.128.455.455 0 0 0 .147.658l.324.174c.083.097.105.216.067.357a.731.731 0 0 1-.271.383l.089.562a2.893 2.893 0 0 1-.82-.105c-.468-.119-.672-.31-.672-.334 0-.012-.137-.128-.413-.349a3.863 3.863 0 0 0-.962-.311c-2.165-.4-4.257 1.089-4.674 3.324-.416 2.236 1.002 4.372 3.168 4.772 1.453.268 2.873-.314 3.776-1.401l-1.626-.3a.665.665 0 0 1-.536-.599l-.149-1.583a.137.137 0 0 1 .119-.15.126.126 0 0 1 .038.001l5.189.958a.353.353 0 0 1 .285.315c.027.253.014.517-.037.794a2.66 2.66 0 0 1-.351.9c-1.299 2.7-4.213 4.317-7.21 3.764-3.61-.667-5.973-4.227-5.28-7.953.564-3.028 2.972-5.233 5.791-5.596a.127.127 0 0 1 .044-.023c.38-.106.924-.092 1.482-.082l.073.001.255.004c.445.002 1.242.154 2.391.453zm1.666 1.681c.155.18.25.326.283.437.033.107.052.281.057.523l.001.026 1.057 1.425a.275.275 0 0 1 .053.165v.012l-.007.152a.087.087 0 0 1-.066.08l-.007.002-.069.01-.038-.012c-1.232-.407-1.975-.697-2.227-.87-.24-.164-.231-.442.027-.836a.232.232 0 0 0 .036-.16l-.002-.012-.064-.339a.211.211 0 0 0-.027-.073l-.007-.011-.21-.317c-.075-.03-.166-.021-.241-.052a1.277 1.277 0 0 1-.131-.074.16.16 0 0 1-.034-.221.218.218 0 0 1 .259-.08c.071.029.122.051.152.068.049.028.113.08.191.155.256.103.448.155.577.155.129 0 .275-.05.437-.153z" fill="url(#2x8na26uhe)"/>
    <path d="M112.011 25.686c-3.626 8.505-13.489 12.474-22.031 8.863-8.538-3.61-12.524-13.433-8.898-21.938C84.707 4.104 94.57.136 103.11 3.746c8.542 3.61 12.527 13.434 8.901 21.94h.001z" fill="#F7931A"/>
    <path d="M103.116 18.036c.57-1.809-.677-3.027-2.494-3.994l1.023-2.411-1.463-.621-.995 2.347c-.385-.163-.781-.322-1.175-.48l1.003-2.363-1.461-.621-1.023 2.41a50.27 50.27 0 0 1-.936-.382l.003-.008-2.017-.857-.664 1.568s1.088.438 1.062.45c.592.251.639.678.568 1l-1.165 2.747c.041.018.094.042.15.076l-.154-.065-1.633 3.848c-.105.176-.341.428-.755.253.011.024-1.063-.452-1.063-.452l-1.034 1.63 1.903.808c.353.15.7.304 1.04.452l-1.033 2.439 1.46.62 1.024-2.413c.397.18.784.347 1.163.508l-1.02 2.401 1.463.621 1.033-2.434c2.518.902 4.502 1.012 5.699-1.215.964-1.792.443-2.996-.81-3.925 1.032-.074 1.886-.612 2.301-1.937zm-4.258 4.346c-.772 1.822-3.793.295-4.785-.125l1.372-3.231c.99.421 4.22 1.455 3.413 3.356zm1.254-4.848c-.704 1.658-3.215.363-4.04.013l1.243-2.93c.826.35 3.53 1.188 2.797 2.917z" fill="#fff"/>
    <path d="M77.09 57.91c-.59-.91-1.045-1.96-1.365-3.15-.31-1.2-.465-2.49-.465-3.87s.155-2.67.465-3.87c.32-1.21.775-2.26 1.365-3.15h1.785c-.61 1.1-1.06 2.225-1.35 3.375-.28 1.14-.42 2.355-.42 3.645s.14 2.51.42 3.66c.29 1.14.74 2.26 1.35 3.36H77.09zm5.74-4.785v-6.75h1.605v6.75H82.83zM80.175 50.5V49h6.915v1.5h-6.915zm11.54 4.65a7.63 7.63 0 0 1-2.175-.315c-.7-.22-1.29-.52-1.77-.9l.84-1.515c.38.31.84.56 1.38.75a5.07 5.07 0 0 0 1.695.285c.7 0 1.245-.14 1.635-.42.39-.29.585-.68.585-1.17 0-.48-.18-.86-.54-1.14-.36-.28-.94-.42-1.74-.42h-.96V48.97l3-3.57.255.735h-5.64V44.5h7.155v1.305l-3 3.57-1.02-.6H92c1.29 0 2.255.29 2.895.87.65.57.975 1.305.975 2.205 0 .59-.15 1.135-.45 1.635-.3.5-.76.905-1.38 1.215-.61.3-1.385.45-2.325.45zm6.6-.045c-.34 0-.63-.115-.87-.345-.24-.24-.36-.54-.36-.9 0-.38.12-.68.36-.9.24-.23.53-.345.87-.345.34 0 .63.115.87.345.24.22.36.52.36.9 0 .36-.12.66-.36.9-.24.23-.53.345-.87.345zm2.284-2.49v-1.35l5.175-6.765h2.085l-5.1 6.765-.975-.3h8.325v1.65h-9.51zm5.76 2.385v-2.385l.06-1.65V48.85h1.83V55h-1.89zm5.87 0v-9.75l.855.885h-3.075V44.5h4.17V55h-1.95zm5.503 0 7.17-10.5h1.47l-7.17 10.5h-1.47zm.87-4.845c-.49 0-.925-.12-1.305-.36a2.408 2.408 0 0 1-.885-1.005c-.21-.43-.315-.935-.315-1.515 0-.58.105-1.085.315-1.515.21-.43.505-.765.885-1.005.38-.24.815-.36 1.305-.36.51 0 .95.12 1.32.36.38.24.675.575.885 1.005.21.43.315.935.315 1.515 0 .58-.105 1.085-.315 1.515-.21.43-.505.765-.885 1.005-.37.24-.81.36-1.32.36zm.015-1.05c.4 0 .71-.155.93-.465.23-.32.345-.775.345-1.365s-.115-1.04-.345-1.35c-.22-.32-.53-.48-.93-.48s-.72.16-.96.48c-.23.32-.345.77-.345 1.35 0 .58.115 1.03.345 1.35.24.32.56.48.96.48zm6.87 6c-.49 0-.925-.12-1.305-.36a2.408 2.408 0 0 1-.885-1.005c-.21-.43-.315-.935-.315-1.515 0-.58.105-1.085.315-1.515.21-.43.505-.765.885-1.005.38-.24.815-.36 1.305-.36.51 0 .95.12 1.32.36.38.24.675.575.885 1.005.21.43.315.935.315 1.515 0 .58-.105 1.085-.315 1.515-.21.43-.505.765-.885 1.005-.37.24-.81.36-1.32.36zm0-1.05c.4 0 .715-.16.945-.48.23-.32.345-.77.345-1.35 0-.58-.115-1.03-.345-1.35-.23-.32-.545-.48-.945-.48-.39 0-.705.16-.945.48-.23.31-.345.76-.345 1.35 0 .59.115 1.045.345 1.365.24.31.555.465.945.465zm4.842 3.855h-1.785c.62-1.1 1.07-2.22 1.35-3.36.29-1.15.435-2.37.435-3.66s-.145-2.505-.435-3.645c-.28-1.15-.73-2.275-1.35-3.375h1.785c.6.89 1.055 1.94 1.365 3.15.31 1.2.465 2.49.465 3.87s-.155 2.67-.465 3.87c-.31 1.19-.765 2.24-1.365 3.15z" fill="#71C25D"/>
    <defs>
        <linearGradient id="m82es87x5a" x1="7" y1="23.5" x2="107" y2="57" gradientUnits="userSpaceOnUse">
            <stop stop-color="#FF7575"/>
            <stop offset=".765" stop-color="#FF2828" stop-opacity=".12"/>
        </linearGradient>
        <linearGradient id="bi0fn52ogb" x1="17.249" y1="51.621" x2="13.631" y2="62.954" gradientUnits="userSpaceOnUse">
            <stop stop-color="#00FFA3"/>
            <stop offset="1" stop-color="#DC1FFF"/>
        </linearGradient>
        <linearGradient id="zuyc287cuc" x1="14.666" y1="50.796" x2="11.048" y2="62.13" gradientUnits="userSpaceOnUse">
            <stop stop-color="#00FFA3"/>
            <stop offset="1" stop-color="#DC1FFF"/>
        </linearGradient>
        <linearGradient id="uc9lown9ld" x1="15.949" y1="51.206" x2="12.331" y2="62.539" gradientUnits="userSpaceOnUse">
            <stop stop-color="#00FFA3"/>
            <stop offset="1" stop-color="#DC1FFF"/>
        </linearGradient>
        <linearGradient id="2x8na26uhe" x1="96.529" y1="73.644" x2="104.076" y2="84.167" gradientUnits="userSpaceOnUse">
            <stop stop-color="#5855FF"/>
            <stop offset="1" stop-color="#DC1FFF"/>
        </linearGradient>
    </defs>
</svg>
