<svg width="254" height="146" viewBox="0 0 254 146" fill="none" xmlns="http://www.w3.org/2000/svg">
    <path d="M2 151.001S13.189 35.159 73.013 33.659c44.472-1.115 21.594 37.148 66.076 36.456 42.103-.655 80.886-39.494 80.886-39.494" stroke="#343434" stroke-width="5"/>
    <path d="M230.703 2.603a2.396 2.396 0 0 1 3.383.177l15.597 17.323a2.395 2.395 0 0 1-.177 3.383l-10.919 9.832c-5.767 5.192-14.651 4.727-19.843-1.04-5.193-5.767-4.727-14.651 1.039-19.843l10.92-9.832z" fill="#343434"/>
    <path d="M244.105 15.036 252 8.457M238.088 9.018l7.894-6.579" stroke="#343434" stroke-width="4" stroke-linecap="round"/>
</svg>
