<svg width="254" height="146" viewBox="0 0 254 146" fill="none" xmlns="http://www.w3.org/2000/svg">
    <path d="m73.013 33.66-.063-2.5.063 2.5zm66.076 36.455.039 2.5-.039-2.5zM2 151l2.488.24v-.003l.002-.013.006-.058.024-.238c.023-.212.057-.53.104-.947.095-.834.243-2.063.452-3.631a279.175 279.175 0 0 1 2.066-13.026c1.97-10.804 5.209-25.193 10.288-39.601C22.52 79.289 29.4 64.99 38.58 54.25c9.146-10.703 20.445-17.74 34.495-18.093l-.125-4.998c-15.862.398-28.395 8.403-38.172 19.842-9.744 11.402-16.877 26.346-22.063 41.06-5.196 14.739-8.493 29.404-10.492 40.367-1 5.486-1.676 10.057-2.103 13.261a195.69 195.69 0 0 0-.572 4.718l-.027.258-.007.068-.002.019v.005c0 .001 0 .002 2.488.243zM73.075 36.158c10.764-.27 17.087 1.849 21.32 4.86 4.298 3.06 6.757 7.238 9.488 11.962 2.667 4.613 5.605 9.77 10.905 13.6 5.369 3.88 12.861 6.213 24.34 6.035l-.078-5c-10.762.168-17.091-2.022-21.333-5.088-4.31-3.114-6.773-7.324-9.505-12.05-2.669-4.616-5.609-9.752-10.919-13.532-5.376-3.826-12.87-6.073-24.343-5.785l.125 4.998zm66.053 36.457c21.75-.339 42.452-10.51 57.562-20.401a183.934 183.934 0 0 0 18.187-13.61 152.482 152.482 0 0 0 5.052-4.483 99.355 99.355 0 0 0 1.687-1.607l.092-.09.025-.026.007-.007.002-.002c.001 0 .002-.001-1.767-1.768l-1.769-1.767-.004.004-.017.017-.077.076-.317.31c-.283.273-.709.68-1.268 1.2a146.921 146.921 0 0 1-4.886 4.334 178.735 178.735 0 0 1-17.686 13.236c-14.808 9.693-34.549 19.268-54.901 19.584l.078 5z" fill="#CCC"/>
    <mask id="awrmlbe9va" fill="#fff">
        <path d="M230.703 2.603a2.396 2.396 0 0 1 3.383.177l15.597 17.323a2.395 2.395 0 0 1-.177 3.383l-10.919 9.832c-5.767 5.192-14.651 4.727-19.843-1.04-5.193-5.767-4.727-14.651 1.039-19.843l10.92-9.832z"/>
    </mask>
    <path d="M230.703 2.603a2.396 2.396 0 0 1 3.383.177l15.597 17.323a2.395 2.395 0 0 1-.177 3.383l-10.919 9.832c-5.767 5.192-14.651 4.727-19.843-1.04-5.193-5.767-4.727-14.651 1.039-19.843l10.92-9.832z" fill="#CCC"/>
    <path d="m233.342 3.45 15.598 17.322 1.487-1.338-15.598-17.323-1.487 1.338zm15.495 19.293-10.919 9.832 1.338 1.486 10.919-9.832-1.338-1.486zm-28.384-9.565 10.919-9.832-1.338-1.486-10.92 9.831 1.339 1.487zm-.966 18.43c-4.823-5.356-4.391-13.608.966-18.43l-1.339-1.487c-6.177 5.562-6.676 15.079-1.114 21.256l1.487-1.338zm18.431.967c-5.357 4.822-13.608 4.39-18.431-.966L218 32.947c5.562 6.177 15.079 6.676 21.256 1.114l-1.338-1.486zm11.022-11.803c.516.573.47 1.455-.103 1.971l1.338 1.486a3.396 3.396 0 0 0 .252-4.795l-1.487 1.338zM234.829 2.111a3.395 3.395 0 0 0-4.795-.251l1.338 1.486a1.395 1.395 0 0 1 1.97.103l1.487-1.338z" fill="#CCC" mask="url(#awrmlbe9va)"/>
    <path d="M242.825 13.5a2 2 0 1 0 2.561 3.072l-2.561-3.072zm10.455-3.507a1.999 1.999 0 1 0-2.56-3.072l2.56 3.072zm-7.894 6.58 7.894-6.58-2.56-3.072-7.895 6.578 2.561 3.073zM236.807 7.482a2 2 0 0 0 2.561 3.073l-2.561-3.073zm10.456-3.506a2 2 0 0 0-2.561-3.073l2.561 3.073zm-7.895 6.579 7.895-6.58-2.561-3.072-7.895 6.579 2.561 3.073z" fill="#CCC"/>
</svg>
