<svg width="156" height="97" viewBox="0 0 156 97" fill="none" xmlns="http://www.w3.org/2000/svg">
<g id="Portfolio placeholder">
<g id="Account Icons">
<path id="Icon" d="M39 12.2501L25.2299 26.0202C24.5369 26.7132 24.1904 27.0597 23.7908 27.1896C23.4393 27.3038 23.0607 27.3038 22.7092 27.1896C22.3096 27.0597 21.9631 26.7132 21.2701 26.0202L16.4799 21.23C15.7869 20.537 15.4404 20.1904 15.0408 20.0606C14.6893 19.9464 14.3107 19.9464 13.9592 20.0606C13.5596 20.1904 13.2131 20.537 12.5201 21.23L4 29.7501M39 12.2501H26.75M39 12.2501V24.5001" stroke="#DED1E7" stroke-width="4.42105" stroke-linecap="round" stroke-linejoin="round"/>
</g>
<g id="Lock">
<path id="Subtract" fill-rule="evenodd" clip-rule="evenodd" d="M74.5 13.6923C65.5679 13.6923 58.3269 20.9332 58.3269 29.8654V38.6943C62.9473 35.5843 68.5117 33.7692 74.5 33.7692C80.4883 33.7692 86.0527 35.5843 90.6731 38.6943V29.8654C90.6731 20.9332 83.4321 13.6923 74.5 13.6923ZM51.6346 29.8654V44.9297C47.7907 49.8496 45.5 56.0419 45.5 62.7692C45.5 78.7855 58.4837 91.7692 74.5 91.7692C90.5163 91.7692 103.5 78.7855 103.5 62.7692C103.5 56.0419 101.209 49.8496 97.3654 44.9297V29.8654C97.3654 17.2372 87.1282 7 74.5 7C61.8718 7 51.6346 17.2372 51.6346 29.8654ZM74.5 58.3077C73.268 58.3077 72.2692 59.3065 72.2692 60.5385V65.0001C72.2692 66.2321 73.268 67.2308 74.5 67.2308C75.732 67.2308 76.7308 66.2321 76.7308 65.0001V60.5385C76.7308 59.3065 75.732 58.3077 74.5 58.3077Z" fill="#DED1E7"/>
<path id="Vector" d="M95.6922 62.7774C95.6922 62.7685 95.6909 62.7602 95.6909 62.7514C95.6812 51.0777 86.1843 41.5829 74.5099 41.5771C74.509 41.5771 74.5081 41.577 74.5073 41.577C74.5068 41.577 74.5062 41.577 74.5057 41.577C74.5036 41.577 74.5016 41.577 74.4994 41.577C62.8142 41.577 53.3076 51.0838 53.3076 62.7693C53.3076 74.4547 62.8142 83.9616 74.4994 83.9616C86.1716 83.9616 95.6693 74.476 95.6908 62.8084C95.6909 62.7983 95.6922 62.7879 95.6922 62.7774ZM89.3254 64.8092H91.506C91.1242 68.0125 89.8557 70.9477 87.9521 73.3603L86.4139 71.8223C85.6203 71.0288 84.3338 71.029 83.5405 71.8223C82.747 72.6158 82.747 73.9023 83.5405 74.6958L85.0774 76.2327C82.6632 78.1337 79.727 79.3995 76.5231 79.7784V77.596C76.5231 76.4739 75.6135 75.5643 74.4914 75.5643C73.3694 75.5643 72.4597 76.4739 72.4597 77.596V79.7767C69.2564 79.3949 66.3215 78.1263 63.9088 76.2229L65.4468 74.6849C66.2402 73.8914 66.2401 72.6049 65.4466 71.8114C64.6533 71.0179 63.3668 71.0181 62.5734 71.8116L61.0365 73.3485C59.1353 70.9342 57.8697 67.9979 57.4907 64.7938H59.673C60.7951 64.7938 61.7047 63.8842 61.7047 62.7621C61.7047 61.64 60.7951 60.7303 59.673 60.7303H57.4924C57.8742 57.5269 59.1427 54.5918 61.0462 52.1791L62.5844 53.7174C62.981 54.1141 63.5011 54.3125 64.0211 54.3125C64.541 54.3125 65.0609 54.1141 65.4577 53.7174C66.2511 52.924 66.251 51.6376 65.4577 50.8441L63.9208 49.3071C66.335 47.4059 69.271 46.1403 72.475 45.7613V47.9432C72.475 49.0653 73.3847 49.975 74.5068 49.975C75.6288 49.975 76.5387 49.0653 76.5387 47.9432V45.7626C79.7419 46.1444 82.677 47.413 85.0896 49.3165L83.5514 50.8548C82.7579 51.6483 82.7579 52.9348 83.5514 53.7283C83.9482 54.125 84.4681 54.3234 84.988 54.3234C85.508 54.3234 86.0281 54.125 86.4246 53.7283L87.9615 52.1913C89.8627 54.6056 91.1283 57.5419 91.5073 60.746H89.3254C88.2033 60.746 87.2937 61.6557 87.2937 62.7778C87.2937 63.8999 88.2033 64.8092 89.3254 64.8092Z" fill="#CBBDD4"/>
</g>
<path id="+3%" d="M120.524 85.51H116.366V89.778H113.462V85.51H109.304V82.826H113.462V78.558H116.366V82.826H120.524V85.51ZM123.534 80.186C123.608 78.7193 124.121 77.59 125.074 76.798C126.042 75.9913 127.311 75.588 128.88 75.588C129.951 75.588 130.868 75.7787 131.63 76.16C132.393 76.5267 132.965 77.0327 133.346 77.678C133.742 78.3087 133.94 79.0273 133.94 79.834C133.94 80.758 133.698 81.5427 133.214 82.188C132.745 82.8187 132.18 83.244 131.52 83.464V83.552C132.371 83.816 133.031 84.2853 133.5 84.96C133.984 85.6347 134.226 86.5 134.226 87.556C134.226 88.436 134.021 89.2207 133.61 89.91C133.214 90.5993 132.62 91.142 131.828 91.538C131.051 91.9193 130.112 92.11 129.012 92.11C127.355 92.11 126.006 91.692 124.964 90.856C123.923 90.02 123.373 88.788 123.314 87.16H126.306C126.336 87.8787 126.578 88.458 127.032 88.898C127.502 89.3233 128.14 89.536 128.946 89.536C129.694 89.536 130.266 89.3307 130.662 88.92C131.073 88.4947 131.278 87.952 131.278 87.292C131.278 86.412 131 85.7813 130.442 85.4C129.885 85.0187 129.02 84.828 127.846 84.828H127.208V82.298H127.846C129.929 82.298 130.97 81.6013 130.97 80.208C130.97 79.5773 130.78 79.086 130.398 78.734C130.032 78.382 129.496 78.206 128.792 78.206C128.103 78.206 127.568 78.3967 127.186 78.778C126.82 79.1447 126.607 79.614 126.548 80.186H123.534ZM136.308 79.9C136.308 78.7853 136.631 77.9127 137.276 77.282C137.936 76.6513 138.779 76.336 139.806 76.336C140.833 76.336 141.669 76.6513 142.314 77.282C142.974 77.9127 143.304 78.7853 143.304 79.9C143.304 81.0293 142.974 81.9093 142.314 82.54C141.669 83.1707 140.833 83.486 139.806 83.486C138.779 83.486 137.936 83.1707 137.276 82.54C136.631 81.9093 136.308 81.0293 136.308 79.9ZM150.432 76.6L141.786 92H138.794L147.418 76.6H150.432ZM139.784 78.184C138.977 78.184 138.574 78.756 138.574 79.9C138.574 81.0587 138.977 81.638 139.784 81.638C140.18 81.638 140.488 81.4987 140.708 81.22C140.928 80.9267 141.038 80.4867 141.038 79.9C141.038 78.756 140.62 78.184 139.784 78.184ZM145.966 88.678C145.966 87.5487 146.289 86.676 146.934 86.06C147.594 85.4293 148.437 85.114 149.464 85.114C150.491 85.114 151.319 85.4293 151.95 86.06C152.595 86.676 152.918 87.5487 152.918 88.678C152.918 89.8073 152.595 90.6873 151.95 91.318C151.319 91.9487 150.491 92.264 149.464 92.264C148.423 92.264 147.579 91.9487 146.934 91.318C146.289 90.6873 145.966 89.8073 145.966 88.678ZM149.442 86.962C148.606 86.962 148.188 87.534 148.188 88.678C148.188 89.8367 148.606 90.416 149.442 90.416C150.263 90.416 150.674 89.8367 150.674 88.678C150.674 87.534 150.263 86.962 149.442 86.962Z" fill="#DED1E7"/>
</g>
</svg>
