<svg width="55" height="55" viewBox="0 0 55 55" fill="none" xmlns="http://www.w3.org/2000/svg">
<circle r="27.5" transform="matrix(-1 0 0 1 27.5 27.5)" fill="#5855FF"/>
<path d="M32.0379 33.917C32.636 34.4902 32.6562 35.4397 32.083 36.0379C31.5098 36.636 30.5603 36.6562 29.9621 36.083L32.0379 33.917ZM23.7226 28.0258L22.6848 29.1088V29.1088L23.7226 28.0258ZM23.6931 26.6113L24.7752 27.6501L24.7752 27.6501L23.6931 26.6113ZM29.9179 17.9612C30.4916 17.3636 31.4412 17.3442 32.0388 17.9179C32.6364 18.4916 32.6558 19.4412 32.0821 20.0388L29.9179 17.9612ZM29.9621 36.083L22.6848 29.1088L24.7605 26.9429L32.0379 33.917L29.9621 36.083ZM22.6111 25.5725L29.9179 17.9612L32.0821 20.0388L24.7752 27.6501L22.6111 25.5725ZM22.6848 29.1088C21.6873 28.1529 21.6543 26.5692 22.6111 25.5725L24.7752 27.6501C24.9666 27.4508 24.96 27.134 24.7605 26.9429L22.6848 29.1088Z" fill="white"/>
</svg>
