<svg width="51" height="56" viewBox="0 0 51 56" fill="none" xmlns="http://www.w3.org/2000/svg">
<path d="M50.503 39.1871V17.1826C50.502 16.2179 50.2448 15.2704 49.7573 14.4352C49.2697 13.6 48.569 12.9064 47.7252 12.4241L28.2808 1.42183C27.4362 0.939001 26.4782 0.684814 25.503 0.684814C24.5278 0.684814 23.5698 0.939001 22.7252 1.42183L3.2808 12.4241C2.43708 12.9064 1.7363 13.6 1.24875 14.4352C0.761196 15.2704 0.504021 16.2179 0.503021 17.1826V39.1871C0.504021 40.1518 0.761196 41.0992 1.24875 41.9344C1.7363 42.7696 2.43708 43.4632 3.2808 43.9455L22.7252 54.9478C23.5698 55.4306 24.5278 55.6848 25.503 55.6848C26.4782 55.6848 27.4362 55.4306 28.2808 54.9478L47.7252 43.9455C48.569 43.4632 49.2697 42.7696 49.7573 41.9344C50.2448 41.0992 50.502 40.1518 50.503 39.1871Z" fill="url(#paint0_linear_1309_37198)"/>
<g clip-path="url(#clip0_1309_37198)">
<path d="M25.7401 32.7505C25.5959 32.6706 25.4207 32.6705 25.2764 32.7502L21.7357 34.7077C21.386 34.9011 20.9672 34.6061 21.0315 34.2116L21.7193 29.9954C21.7438 29.8454 21.6955 29.6926 21.5893 29.5838L18.655 26.5803C18.3825 26.3014 18.5399 25.8312 18.9253 25.7724L22.9326 25.1617C23.0905 25.1377 23.226 25.0364 23.2939 24.8918L25.0696 21.1083C25.2419 20.7412 25.7641 20.7412 25.9364 21.1083L27.7122 24.8918C27.78 25.0364 27.9155 25.1377 28.0735 25.1617L32.0807 25.7724C32.4662 25.8312 32.6235 26.3014 32.351 26.5803L29.4168 29.5838C29.3105 29.6926 29.2622 29.8454 29.2867 29.9954L29.9743 34.2104C30.0387 34.6051 29.6195 34.9001 29.2697 34.7063L25.7401 32.7505Z" fill="white"/>
</g>
<defs>
<linearGradient id="paint0_linear_1309_37198" x1="50.503" y1="27.6848" x2="0.503021" y2="27.6848" gradientUnits="userSpaceOnUse">
<stop stop-color="#FFD71B"/>
<stop offset="1" stop-color="#B65610"/>
</linearGradient>
<clipPath id="clip0_1309_37198">
<rect width="20" height="20" fill="white" transform="translate(15.503 17.6848)"/>
</clipPath>
</defs>
</svg>
