<svg width="53" height="58" viewBox="0 0 53 58" fill="none" xmlns="http://www.w3.org/2000/svg">
<path d="M51.503 40.1871V18.1826C51.502 17.2179 51.2448 16.2704 50.7573 15.4352C50.2697 14.6 49.569 13.9064 48.7252 13.4241L29.2808 2.42183C28.4362 1.939 27.4782 1.68481 26.503 1.68481C25.5278 1.68481 24.5698 1.939 23.7252 2.42183L4.2808 13.4241C3.43708 13.9064 2.7363 14.6 2.24875 15.4352C1.7612 16.2704 1.50402 17.2179 1.50302 18.1826V40.1871C1.50402 41.1518 1.7612 42.0992 2.24875 42.9344C2.7363 43.7696 3.43708 44.4632 4.2808 44.9455L23.7252 55.9478C24.5698 56.4306 25.5278 56.6848 26.503 56.6848C27.4782 56.6848 28.4362 56.4306 29.2808 55.9478L48.7252 44.9455C49.569 44.4632 50.2697 43.7696 50.7573 42.9344C51.2448 42.0992 51.502 41.1518 51.503 40.1871Z" fill="url(#paint0_linear_1309_37198)" stroke="white" stroke-width="1.5" stroke-linecap="round" stroke-linejoin="round"/>
<g clip-path="url(#clip0_1309_37198)">
<path d="M26.7401 33.7505C26.5959 33.6706 26.4207 33.6705 26.2764 33.7502L22.7357 35.7077C22.386 35.9011 21.9672 35.6061 22.0315 35.2116L22.7193 30.9954C22.7438 30.8454 22.6955 30.6926 22.5893 30.5838L19.655 27.5803C19.3825 27.3014 19.5399 26.8312 19.9253 26.7724L23.9326 26.1617C24.0905 26.1377 24.226 26.0364 24.2939 25.8918L26.0696 22.1083C26.2419 21.7412 26.7641 21.7412 26.9364 22.1083L28.7122 25.8918C28.78 26.0364 28.9155 26.1377 29.0735 26.1617L33.0807 26.7724C33.4662 26.8312 33.6235 27.3014 33.351 27.5803L30.4168 30.5838C30.3105 30.6926 30.2622 30.8454 30.2867 30.9954L30.9743 35.2104C31.0387 35.6051 30.6195 35.9001 30.2697 35.7063L26.7401 33.7505Z" fill="white"/>
</g>
<defs>
<linearGradient id="paint0_linear_1309_37198" x1="51.503" y1="28.6848" x2="1.50302" y2="28.6848" gradientUnits="userSpaceOnUse">
<stop stop-color="#FFD71B"/>
<stop offset="1" stop-color="#B65610"/>
</linearGradient>
<clipPath id="clip0_1309_37198">
<rect width="20" height="20" fill="white" transform="translate(16.503 18.6848)"/>
</clipPath>
</defs>
</svg>
