<svg width="170" height="120" viewBox="0 0 170 120" fill="none" xmlns="http://www.w3.org/2000/svg">
<ellipse cx="83.1096" cy="19.1185" rx="18.8889" ry="18.9474" fill="#CFEBE1"/>
<path d="M77.8254 22.833C77.927 22.7302 78.0635 22.6724 78.2064 22.6724H91.4317C91.673 22.6724 91.7937 22.9679 91.6222 23.1382L89.0089 25.7791C88.9073 25.8819 88.7708 25.9397 88.6279 25.9397H75.4058C75.1645 25.9397 75.0438 25.6441 75.2153 25.4739L77.8254 22.833Z" fill="#4C8B89"/>
<path d="M77.8254 12.9634C77.927 12.8606 78.0635 12.8027 78.2064 12.8027H91.4317C91.673 12.8027 91.7937 13.0983 91.6222 13.2686L89.0089 15.9095C88.9073 16.0123 88.7708 16.0701 88.6279 16.0701H75.4058C75.1645 16.0701 75.0438 15.7745 75.2153 15.6043L77.8254 12.9634Z" fill="#4C8B89"/>
<path d="M89.0089 17.8662C88.9073 17.7634 88.7708 17.7056 88.6279 17.7056H75.4058C75.1645 17.7056 75.0438 18.0011 75.2153 18.1714L77.8286 20.8123C77.9302 20.9151 78.0667 20.9729 78.2096 20.9729H91.4349C91.6762 20.9729 91.7969 20.6774 91.6254 20.5071L89.0089 17.8662Z" fill="#4C8B89"/>
<path d="M114.927 98.7256V71.9121C114.926 70.7366 114.613 69.582 114.019 68.5643C113.424 67.5466 112.571 66.7014 111.542 66.1137L87.8485 52.7069C86.8193 52.1186 85.652 51.8088 84.4636 51.8088C83.2753 51.8088 82.1079 52.1186 81.0788 52.7069L57.3848 66.1137C56.3567 66.7014 55.5028 67.5466 54.9087 68.5643C54.3146 69.582 54.0012 70.7366 54 71.9121V98.7256C54.0012 99.9011 54.3146 101.056 54.9087 102.073C55.5028 103.091 56.3567 103.936 57.3848 104.524L81.0788 117.931C82.1079 118.519 83.2753 118.829 84.4636 118.829C85.652 118.829 86.8193 118.519 87.8485 117.931L111.542 104.524C112.571 103.936 113.424 103.091 114.019 102.073C114.613 101.056 114.926 99.9011 114.927 98.7256Z" fill="url(#paint0_linear_1980_32119)" stroke="#3C3C3C" stroke-width="1.5" stroke-linecap="round" stroke-linejoin="round"/>
<g clip-path="url(#clip0_1980_32119)">
<path d="M84.7015 90.8543C84.5573 90.7744 84.3821 90.7743 84.2378 90.8541L79.6841 93.3716C79.3343 93.565 78.9156 93.27 78.9799 92.8755L79.8612 87.4731C79.8857 87.323 79.8374 87.1702 79.7312 87.0614L75.9762 83.2179C75.7037 82.939 75.8611 82.4688 76.2465 82.41L81.3863 81.6267C81.5443 81.6027 81.6798 81.5014 81.7476 81.3568L84.0299 76.4941C84.2022 76.1269 84.7244 76.1269 84.8967 76.4941L87.179 81.3568C87.2468 81.5014 87.3824 81.6027 87.5403 81.6267L92.6801 82.41C93.0655 82.4688 93.2229 82.939 92.9504 83.2179L89.1954 87.0614C89.0892 87.1702 89.0409 87.323 89.0654 87.4731L89.9465 92.8743C90.0109 93.269 89.5917 93.564 89.2419 93.3702L84.7015 90.8543Z" fill="white"/>
</g>
<g clip-path="url(#clip1_1980_32119)">
<path d="M169.998 60.8029C169.998 50.3385 161.542 41.8555 151.11 41.8555C140.678 41.8555 132.221 50.3385 132.221 60.8029C132.221 71.2672 140.678 79.7502 151.11 79.7502C161.542 79.7502 169.998 71.2672 169.998 60.8029Z" fill="url(#paint1_linear_1980_32119)"/>
<path d="M169.998 60.8029C169.998 50.3385 161.542 41.8555 151.11 41.8555C140.678 41.8555 132.221 50.3385 132.221 60.8029C132.221 71.2672 140.678 79.7502 151.11 79.7502C161.542 79.7502 169.998 71.2672 169.998 60.8029Z" fill="url(#paint2_radial_1980_32119)" fill-opacity="0.46"/>
<mask id="mask0_1980_32119" style="mask-type:luminance" maskUnits="userSpaceOnUse" x="141" y="54" width="20" height="15">
<path d="M160.555 54.0361H141.666V68.879H160.555V54.0361Z" fill="white"/>
</mask>
<g mask="url(#mask0_1980_32119)">
<path d="M144.724 65.3824C144.839 65.2663 144.996 65.2012 145.16 65.2012H160.261C160.537 65.2012 160.674 65.5349 160.48 65.7299L157.496 68.7208C157.38 68.8368 157.223 68.9021 157.059 68.9021H141.958C141.683 68.9021 141.545 68.5684 141.74 68.3733L144.724 65.3824Z" fill="white"/>
<path d="M144.724 54.2088C144.839 54.0927 144.996 54.0276 145.16 54.0276H160.261C160.537 54.0276 160.674 54.3612 160.48 54.5563L157.496 57.5472C157.38 57.6632 157.223 57.7284 157.059 57.7284H141.958C141.683 57.7284 141.545 57.3948 141.74 57.1996L144.724 54.2088Z" fill="white"/>
<path d="M157.496 59.7602C157.38 59.6441 157.223 59.5789 157.059 59.5789H141.958C141.683 59.5789 141.545 59.9126 141.74 60.1076L144.724 63.0986C144.839 63.2145 144.996 63.2798 145.16 63.2798H160.261C160.537 63.2798 160.674 62.946 160.48 62.751L157.496 59.7602Z" fill="white"/>
</g>
<path d="M151.11 76.367C159.679 76.367 166.626 69.3987 166.626 60.803C166.626 52.2072 159.679 45.239 151.11 45.239C142.54 45.239 135.594 52.2072 135.594 60.803C135.594 69.3987 142.54 76.367 151.11 76.367Z" stroke="white" stroke-width="1.07937"/>
</g>
<ellipse cx="18.8889" cy="60.8029" rx="18.8889" ry="18.9474" fill="black"/>
<path d="M13.6047 64.5173C13.7063 64.4145 13.8428 64.3567 13.9857 64.3567H27.211C27.4523 64.3567 27.573 64.6523 27.4015 64.8225L24.7882 67.4634C24.6866 67.5662 24.5501 67.624 24.4072 67.624H11.1851C10.9438 67.624 10.8231 67.3285 10.9946 67.1582L13.6047 64.5173Z" fill="url(#paint3_linear_1980_32119)"/>
<path d="M13.6047 54.6477C13.7063 54.5449 13.8428 54.4871 13.9857 54.4871H27.211C27.4523 54.4871 27.573 54.7826 27.4015 54.9529L24.7882 57.5938C24.6866 57.6966 24.5501 57.7544 24.4072 57.7544H11.1851C10.9438 57.7544 10.8231 57.4589 10.9946 57.2886L13.6047 54.6477Z" fill="url(#paint4_linear_1980_32119)"/>
<path d="M24.7882 59.5505C24.6866 59.4477 24.5501 59.3899 24.4072 59.3899H11.1851C10.9438 59.3899 10.8231 59.6855 10.9946 59.8557L13.6079 62.4966C13.7095 62.5994 13.846 62.6573 13.9889 62.6573H27.2142C27.4555 62.6573 27.5762 62.3617 27.4047 62.1914L24.7882 59.5505Z" fill="url(#paint5_linear_1980_32119)"/>
<defs>
<linearGradient id="paint0_linear_1980_32119" x1="114.927" y1="84.7096" x2="54" y2="84.7096" gradientUnits="userSpaceOnUse">
<stop stop-color="#FFD71B"/>
<stop offset="1" stop-color="#B65610"/>
</linearGradient>
<linearGradient id="paint1_linear_1980_32119" x1="143.014" y1="53.3592" x2="157.902" y2="68.2004" gradientUnits="userSpaceOnUse">
<stop stop-color="#4BC57C"/>
<stop offset="1" stop-color="#289279"/>
</linearGradient>
<radialGradient id="paint2_radial_1980_32119" cx="0" cy="0" r="1" gradientUnits="userSpaceOnUse" gradientTransform="translate(151.11 48.6224) rotate(90) scale(36.5413 36.4285)">
<stop stop-color="#F1F2B3" stop-opacity="0.92"/>
<stop offset="1" stop-color="#F5E8A3" stop-opacity="0"/>
</radialGradient>
<linearGradient id="paint3_linear_1980_32119" x1="25.9483" y1="52.9091" x2="16.6265" y2="70.5561" gradientUnits="userSpaceOnUse">
<stop stop-color="#00FFA3"/>
<stop offset="1" stop-color="#DC1FFF"/>
</linearGradient>
<linearGradient id="paint4_linear_1980_32119" x1="21.9465" y1="50.7952" x2="12.6247" y2="68.4421" gradientUnits="userSpaceOnUse">
<stop stop-color="#00FFA3"/>
<stop offset="1" stop-color="#DC1FFF"/>
</linearGradient>
<linearGradient id="paint5_linear_1980_32119" x1="23.9346" y1="51.8456" x2="14.6129" y2="69.4925" gradientUnits="userSpaceOnUse">
<stop stop-color="#00FFA3"/>
<stop offset="1" stop-color="#DC1FFF"/>
</linearGradient>
<clipPath id="clip0_1980_32119">
<rect width="24.3709" height="24.3709" fill="white" transform="translate(72.2773 72.5242)"/>
</clipPath>
<clipPath id="clip1_1980_32119">
<rect width="37.7778" height="37.8948" fill="white" transform="translate(132.221 41.8555)"/>
</clipPath>
</defs>
</svg>
