<svg width="53" height="57" viewBox="0 0 53 57" fill="none" xmlns="http://www.w3.org/2000/svg">
<path d="M51.3697 39.5023V17.4977C51.3687 16.533 51.1115 15.5856 50.624 14.7504C50.1364 13.9152 49.4356 13.2216 48.5919 12.7393L29.1475 1.73701C28.3029 1.25419 27.3449 1 26.3697 1C25.3945 1 24.4365 1.25419 23.5919 1.73701L4.14747 12.7393C3.30375 13.2216 2.60297 13.9152 2.11542 14.7504C1.62786 15.5856 1.37069 16.533 1.36969 17.4977V39.5023C1.37069 40.4669 1.62786 41.4144 2.11542 42.2496C2.60297 43.0848 3.30375 43.7784 4.14747 44.2607L23.5919 55.263C24.4365 55.7458 25.3945 56 26.3697 56C27.3449 56 28.3029 55.7458 29.1475 55.263L48.5919 44.2607C49.4356 43.7784 50.1364 43.0848 50.624 42.2496C51.1115 41.4144 51.3687 40.4669 51.3697 39.5023Z" fill="url(#paint0_linear_1747_31582)" stroke="#3C3C3C" stroke-width="1.5" stroke-linecap="round" stroke-linejoin="round"/>
<g clip-path="url(#clip0_1747_31582)">
<path d="M26.6067 33.0657C26.4625 32.9857 26.2873 32.9857 26.143 33.0654L22.6024 35.0229C22.2526 35.2163 21.8339 34.9213 21.8982 34.5268L22.586 30.3106C22.6105 30.1605 22.5622 30.0077 22.4559 29.899L19.5217 26.8955C19.2492 26.6166 19.4065 26.1463 19.792 26.0876L23.7993 25.4769C23.9572 25.4528 24.0927 25.3516 24.1605 25.207L25.9363 21.4235C26.1086 21.0563 26.6308 21.0563 26.8031 21.4235L28.5788 25.207C28.6467 25.3516 28.7822 25.4528 28.9401 25.4769L32.9474 26.0876C33.3328 26.1463 33.4902 26.6166 33.2177 26.8955L30.2834 29.899C30.1772 30.0077 30.1289 30.1605 30.1534 30.3106L30.841 34.5256C30.9054 34.9203 30.4862 35.2153 30.1364 35.0215L26.6067 33.0657Z" fill="white"/>
</g>
<defs>
<linearGradient id="paint0_linear_1747_31582" x1="51.3697" y1="28" x2="1.36969" y2="28" gradientUnits="userSpaceOnUse">
<stop stop-color="#FFD71B"/>
<stop offset="1" stop-color="#B65610"/>
</linearGradient>
<clipPath id="clip0_1747_31582">
<rect width="20" height="20" fill="white" transform="translate(16.3697 18)"/>
</clipPath>
</defs>
</svg>
