<svg width="50" height="55" viewBox="0 0 50 55" fill="none" xmlns="http://www.w3.org/2000/svg">
<path d="M50 38.5023V16.4977C49.999 15.533 49.7418 14.5856 49.2543 13.7504C48.7667 12.9152 48.0659 12.2216 47.2222 11.7393L27.7778 0.737011C26.9332 0.254186 25.9752 0 25 0C24.0248 0 23.0668 0.254186 22.2222 0.737011L2.77778 11.7393C1.93406 12.2216 1.23328 12.9152 0.745726 13.7504C0.258174 14.5856 0.000999283 15.533 0 16.4977V38.5023C0.000999283 39.4669 0.258174 40.4144 0.745726 41.2496C1.23328 42.0848 1.93406 42.7784 2.77778 43.2607L22.2222 54.263C23.0668 54.7458 24.0248 55 25 55C25.9752 55 26.9332 54.7458 27.7778 54.263L47.2222 43.2607C48.0659 42.7784 48.7667 42.0848 49.2543 41.2496C49.7418 40.4144 49.999 39.4669 50 38.5023Z" fill="url(#paint0_linear_921_45395)"/>
<g clip-path="url(#clip0_921_45395)">
<path d="M25.2473 32.5713C25.0967 32.4879 24.9138 32.4878 24.7631 32.5711L21.271 34.5018C20.9057 34.7037 20.4684 34.3956 20.5356 33.9837L21.2146 29.8212C21.2402 29.6645 21.1897 29.5049 21.0788 29.3913L18.1809 26.4251C17.8963 26.1338 18.0606 25.6427 18.4632 25.5814L22.4184 24.9786C22.5833 24.9535 22.7248 24.8478 22.7957 24.6968L24.5474 20.9644C24.7273 20.581 25.2727 20.581 25.4526 20.9644L27.2043 24.6968C27.2752 24.8478 27.4167 24.9535 27.5816 24.9786L31.5368 25.5814C31.9394 25.6427 32.1037 26.1338 31.8191 26.4251L28.9212 29.3913C28.8103 29.5049 28.7598 29.6645 28.7854 29.8212L29.4642 33.9824C29.5315 34.3946 29.0937 34.7027 28.7284 34.5003L25.2473 32.5713Z" fill="white"/>
</g>
<defs>
<linearGradient id="paint0_linear_921_45395" x1="2.3504e-07" y1="13.5" x2="53.339" y2="24.9626" gradientUnits="userSpaceOnUse">
<stop stop-color="#4C49DF"/>
<stop offset="1" stop-color="#DC1FFF"/>
</linearGradient>
<clipPath id="clip0_921_45395">
<rect width="20" height="20" fill="white" transform="translate(15 17.5)"/>
</clipPath>
</defs>
</svg>
