<svg width="381" height="163" viewBox="0 0 381 163" fill="none" xmlns="http://www.w3.org/2000/svg">
<rect x="1" y="78.5" width="379" height="53" rx="4.5" fill="#131313"/>
<rect x="1" y="78.5" width="379" height="53" rx="4.5" stroke="#3C3C3C"/>
<circle cx="23" cy="105" r="11.75" fill="#2270C5" stroke="#1C1C1C" stroke-width="1.5"/>
<path d="M26.2848 106.662C26.2848 105.146 25.2513 104.626 23.1842 104.409C21.7077 104.235 21.4124 103.889 21.4124 103.283C21.4124 102.677 21.905 102.287 22.8889 102.287C23.7748 102.287 24.2673 102.547 24.513 103.197C24.5626 103.327 24.7103 103.413 24.8579 103.413H25.6458C25.843 103.413 25.9907 103.283 25.9907 103.109V103.066C25.7934 102.112 24.9075 101.376 23.776 101.29V100.25C23.776 100.077 23.6283 99.9469 23.3826 99.9043H22.6444C22.4471 99.9043 22.2995 100.034 22.251 100.25V101.246C20.7746 101.42 19.8391 102.286 19.8391 103.369C19.8391 104.799 20.823 105.362 22.8901 105.578C24.2685 105.795 24.7115 106.055 24.7115 106.748C24.7115 107.441 24.0228 107.917 23.0873 107.917C21.8081 107.917 21.3652 107.441 21.2175 106.792C21.1679 106.618 21.0202 106.532 20.8726 106.532H20.0363C19.8391 106.532 19.6914 106.662 19.6914 106.835V106.879C19.8887 107.962 20.6753 108.742 22.2995 108.958V109.998C22.2995 110.171 22.4471 110.301 22.6928 110.344H23.4311C23.6283 110.344 23.776 110.214 23.8244 109.998V108.958C25.2997 108.741 26.2848 107.831 26.2848 106.662Z" fill="white"/>
<path d="M20.6595 111.074C17.0976 109.829 15.2706 105.96 16.5957 102.536C17.2806 100.669 18.7876 99.2463 20.6595 98.5793C20.8425 98.4907 20.9335 98.3573 20.9335 98.1343V97.5121C20.9335 97.3339 20.8425 97.2005 20.6595 97.1567C20.6135 97.1567 20.5225 97.1567 20.4765 97.2016C16.1386 98.5355 13.7637 103.026 15.1336 107.251C15.9556 109.741 17.9196 111.653 20.4765 112.454C20.6595 112.542 20.8414 112.454 20.8874 112.276C20.9335 112.231 20.9335 112.187 20.9335 112.097V111.475C20.9335 111.341 20.7965 111.164 20.6595 111.074ZM25.4993 97.2005C25.3162 97.1119 25.1343 97.2005 25.0883 97.3787C25.0422 97.4235 25.0422 97.4673 25.0422 97.5569V98.1791C25.0422 98.3573 25.1792 98.5345 25.3162 98.6241C28.8781 99.8695 30.7051 103.738 29.3801 107.162C28.6951 109.029 27.1881 110.452 25.3162 111.119C25.1332 111.207 25.0422 111.341 25.0422 111.564V112.186C25.0422 112.364 25.1332 112.498 25.3162 112.541C25.3623 112.541 25.4532 112.541 25.4993 112.497C29.8371 111.163 32.212 106.672 30.8421 102.447C30.0201 99.9133 28.0112 98.0009 25.4993 97.2005Z" fill="white"/>
<circle cx="40" cy="105" r="11.75" fill="black" stroke="#1C1C1C" stroke-width="1.5"/>
<path d="M36.5032 107.451C36.5705 107.383 36.6608 107.345 36.7554 107.345H45.5074C45.6671 107.345 45.7469 107.54 45.6335 107.652L43.9041 109.394C43.8368 109.462 43.7465 109.5 43.6519 109.5H34.902C34.7423 109.5 34.6625 109.305 34.7759 109.193L36.5032 107.451Z" fill="url(#paint0_linear_707_204444)"/>
<path d="M36.5032 100.939C36.5705 100.872 36.6608 100.833 36.7554 100.833H45.5074C45.6671 100.833 45.7469 101.028 45.6335 101.141L43.9041 102.883C43.8368 102.951 43.7465 102.989 43.6519 102.989H34.902C34.7423 102.989 34.6625 102.794 34.7759 102.682L36.5032 100.939Z" fill="url(#paint1_linear_707_204444)"/>
<path d="M43.9041 104.174C43.8368 104.106 43.7465 104.068 43.6519 104.068H34.902C34.7423 104.068 34.6625 104.263 34.7759 104.375L36.5053 106.117C36.5726 106.185 36.6629 106.223 36.7575 106.223H45.5095C45.6692 106.223 45.749 106.028 45.6356 105.916L43.9041 104.174Z" fill="url(#paint2_linear_707_204444)"/>
<path d="M65.605 100.03V106.51C65.605 107.22 65.79 107.765 66.16 108.145C66.53 108.515 67.05 108.7 67.72 108.7C68.4 108.7 68.925 108.515 69.295 108.145C69.665 107.765 69.85 107.22 69.85 106.51V100.03H71.965V106.495C71.965 107.385 71.77 108.14 71.38 108.76C71 109.37 70.485 109.83 69.835 110.14C69.195 110.45 68.48 110.605 67.69 110.605C66.91 110.605 66.2 110.45 65.56 110.14C64.93 109.83 64.43 109.37 64.06 108.76C63.69 108.14 63.505 107.385 63.505 106.495V100.03H65.605ZM77.609 110.605C76.879 110.605 76.219 110.48 75.629 110.23C75.049 109.98 74.589 109.62 74.249 109.15C73.909 108.68 73.734 108.125 73.724 107.485H75.974C76.004 107.915 76.154 108.255 76.424 108.505C76.704 108.755 77.084 108.88 77.564 108.88C78.054 108.88 78.439 108.765 78.719 108.535C78.999 108.295 79.139 107.985 79.139 107.605C79.139 107.295 79.044 107.04 78.854 106.84C78.664 106.64 78.424 106.485 78.134 106.375C77.854 106.255 77.464 106.125 76.964 105.985C76.284 105.785 75.729 105.59 75.299 105.4C74.879 105.2 74.514 104.905 74.204 104.515C73.904 104.115 73.754 103.585 73.754 102.925C73.754 102.305 73.909 101.765 74.219 101.305C74.529 100.845 74.964 100.495 75.524 100.255C76.084 100.005 76.724 99.88 77.444 99.88C78.524 99.88 79.399 100.145 80.069 100.675C80.749 101.195 81.124 101.925 81.194 102.865H78.884C78.864 102.505 78.709 102.21 78.419 101.98C78.139 101.74 77.764 101.62 77.294 101.62C76.884 101.62 76.554 101.725 76.304 101.935C76.064 102.145 75.944 102.45 75.944 102.85C75.944 103.13 76.034 103.365 76.214 103.555C76.404 103.735 76.634 103.885 76.904 104.005C77.184 104.115 77.574 104.245 78.074 104.395C78.754 104.595 79.309 104.795 79.739 104.995C80.169 105.195 80.539 105.495 80.849 105.895C81.159 106.295 81.314 106.82 81.314 107.47C81.314 108.03 81.169 108.55 80.879 109.03C80.589 109.51 80.164 109.895 79.604 110.185C79.044 110.465 78.379 110.605 77.609 110.605ZM86.7946 100.03C87.8946 100.03 88.8596 100.245 89.6896 100.675C90.5296 101.105 91.1746 101.72 91.6246 102.52C92.0846 103.31 92.3146 104.23 92.3146 105.28C92.3146 106.33 92.0846 107.25 91.6246 108.04C91.1746 108.82 90.5296 109.425 89.6896 109.855C88.8596 110.285 87.8946 110.5 86.7946 110.5H83.1346V100.03H86.7946ZM86.7196 108.715C87.8196 108.715 88.6696 108.415 89.2696 107.815C89.8696 107.215 90.1696 106.37 90.1696 105.28C90.1696 104.19 89.8696 103.34 89.2696 102.73C88.6696 102.11 87.8196 101.8 86.7196 101.8H85.2346V108.715H86.7196ZM93.3766 105.25C93.3766 104.22 93.6066 103.3 94.0666 102.49C94.5366 101.67 95.1716 101.035 95.9716 100.585C96.7816 100.125 97.6866 99.895 98.6866 99.895C99.8566 99.895 100.882 100.195 101.762 100.795C102.642 101.395 103.257 102.225 103.607 103.285H101.192C100.952 102.785 100.612 102.41 100.172 102.16C99.7416 101.91 99.2416 101.785 98.6716 101.785C98.0616 101.785 97.5166 101.93 97.0366 102.22C96.5666 102.5 96.1966 102.9 95.9266 103.42C95.6666 103.94 95.5366 104.55 95.5366 105.25C95.5366 105.94 95.6666 106.55 95.9266 107.08C96.1966 107.6 96.5666 108.005 97.0366 108.295C97.5166 108.575 98.0616 108.715 98.6716 108.715C99.2416 108.715 99.7416 108.59 100.172 108.34C100.612 108.08 100.952 107.7 101.192 107.2H103.607C103.257 108.27 102.642 109.105 101.762 109.705C100.892 110.295 99.8666 110.59 98.6866 110.59C97.6866 110.59 96.7816 110.365 95.9716 109.915C95.1716 109.455 94.5366 108.82 94.0666 108.01C93.6066 107.2 93.3766 106.28 93.3766 105.25ZM115.364 104.26V106.03H109.004V104.26H115.364ZM124.909 110.605C124.179 110.605 123.519 110.48 122.929 110.23C122.349 109.98 121.889 109.62 121.549 109.15C121.209 108.68 121.034 108.125 121.024 107.485H123.274C123.304 107.915 123.454 108.255 123.724 108.505C124.004 108.755 124.384 108.88 124.864 108.88C125.354 108.88 125.739 108.765 126.019 108.535C126.299 108.295 126.439 107.985 126.439 107.605C126.439 107.295 126.344 107.04 126.154 106.84C125.964 106.64 125.724 106.485 125.434 106.375C125.154 106.255 124.764 106.125 124.264 105.985C123.584 105.785 123.029 105.59 122.599 105.4C122.179 105.2 121.814 104.905 121.504 104.515C121.204 104.115 121.054 103.585 121.054 102.925C121.054 102.305 121.209 101.765 121.519 101.305C121.829 100.845 122.264 100.495 122.824 100.255C123.384 100.005 124.024 99.88 124.744 99.88C125.824 99.88 126.699 100.145 127.369 100.675C128.049 101.195 128.424 101.925 128.494 102.865H126.184C126.164 102.505 126.009 102.21 125.719 101.98C125.439 101.74 125.064 101.62 124.594 101.62C124.184 101.62 123.854 101.725 123.604 101.935C123.364 102.145 123.244 102.45 123.244 102.85C123.244 103.13 123.334 103.365 123.514 103.555C123.704 103.735 123.934 103.885 124.204 104.005C124.484 104.115 124.874 104.245 125.374 104.395C126.054 104.595 126.609 104.795 127.039 104.995C127.469 105.195 127.839 105.495 128.149 105.895C128.459 106.295 128.614 106.82 128.614 107.47C128.614 108.03 128.469 108.55 128.179 109.03C127.889 109.51 127.464 109.895 126.904 110.185C126.344 110.465 125.679 110.605 124.909 110.605ZM135.294 110.605C134.314 110.605 133.414 110.375 132.594 109.915C131.774 109.455 131.124 108.82 130.644 108.01C130.164 107.19 129.924 106.265 129.924 105.235C129.924 104.215 130.164 103.3 130.644 102.49C131.124 101.67 131.774 101.03 132.594 100.57C133.414 100.11 134.314 99.88 135.294 99.88C136.284 99.88 137.184 100.11 137.994 100.57C138.814 101.03 139.459 101.67 139.929 102.49C140.409 103.3 140.649 104.215 140.649 105.235C140.649 106.265 140.409 107.19 139.929 108.01C139.459 108.82 138.814 109.455 137.994 109.915C137.174 110.375 136.274 110.605 135.294 110.605ZM135.294 108.73C135.924 108.73 136.479 108.59 136.959 108.31C137.439 108.02 137.814 107.61 138.084 107.08C138.354 106.55 138.489 105.935 138.489 105.235C138.489 104.535 138.354 103.925 138.084 103.405C137.814 102.875 137.439 102.47 136.959 102.19C136.479 101.91 135.924 101.77 135.294 101.77C134.664 101.77 134.104 101.91 133.614 102.19C133.134 102.47 132.759 102.875 132.489 103.405C132.219 103.925 132.084 104.535 132.084 105.235C132.084 105.935 132.219 106.55 132.489 107.08C132.759 107.61 133.134 108.02 133.614 108.31C134.104 108.59 134.664 108.73 135.294 108.73ZM144.312 108.835H147.762V110.5H142.212V100.03H144.312V108.835Z" fill="#EEEEEE"/>
<rect x="159" y="94" width="38" height="22" rx="2" fill="#1C1C1C"/>
<rect x="159" y="94" width="38" height="22" rx="2" stroke="#3C3C3C"/>
<path d="M163.189 105.138C163.189 103.639 163.458 102.464 163.995 101.615C164.541 100.766 165.442 100.341 166.699 100.341C167.956 100.341 168.853 100.766 169.39 101.615C169.936 102.464 170.209 103.639 170.209 105.138C170.209 106.646 169.936 107.829 169.39 108.687C168.853 109.545 167.956 109.974 166.699 109.974C165.442 109.974 164.541 109.545 163.995 108.687C163.458 107.829 163.189 106.646 163.189 105.138ZM168.415 105.138C168.415 104.497 168.372 103.959 168.285 103.526C168.207 103.084 168.042 102.724 167.791 102.447C167.548 102.17 167.184 102.031 166.699 102.031C166.214 102.031 165.845 102.17 165.594 102.447C165.351 102.724 165.187 103.084 165.1 103.526C165.022 103.959 164.983 104.497 164.983 105.138C164.983 105.797 165.022 106.351 165.1 106.802C165.178 107.244 165.343 107.604 165.594 107.881C165.845 108.15 166.214 108.284 166.699 108.284C167.184 108.284 167.553 108.15 167.804 107.881C168.055 107.604 168.22 107.244 168.298 106.802C168.376 106.351 168.415 105.797 168.415 105.138ZM172.607 110.091C172.278 110.091 172.005 109.991 171.788 109.792C171.58 109.584 171.476 109.328 171.476 109.025C171.476 108.722 171.58 108.47 171.788 108.271C172.005 108.063 172.278 107.959 172.607 107.959C172.928 107.959 173.192 108.063 173.4 108.271C173.608 108.47 173.712 108.722 173.712 109.025C173.712 109.328 173.608 109.584 173.4 109.792C173.192 109.991 172.928 110.091 172.607 110.091ZM175.542 107.946C176.374 107.253 177.037 106.676 177.531 106.217C178.025 105.749 178.437 105.264 178.766 104.761C179.096 104.258 179.26 103.764 179.26 103.279C179.26 102.837 179.156 102.49 178.948 102.239C178.74 101.988 178.42 101.862 177.986 101.862C177.553 101.862 177.219 102.009 176.985 102.304C176.751 102.59 176.63 102.984 176.621 103.487H174.853C174.888 102.447 175.196 101.658 175.776 101.121C176.366 100.584 177.111 100.315 178.012 100.315C179 100.315 179.759 100.579 180.287 101.108C180.816 101.628 181.08 102.317 181.08 103.175C181.08 103.851 180.898 104.497 180.534 105.112C180.17 105.727 179.754 106.265 179.286 106.724C178.818 107.175 178.207 107.721 177.453 108.362H181.288V109.87H174.866V108.518L175.542 107.946ZM182.227 102.85C182.227 102.191 182.418 101.676 182.799 101.303C183.189 100.93 183.687 100.744 184.294 100.744C184.901 100.744 185.395 100.93 185.776 101.303C186.166 101.676 186.361 102.191 186.361 102.85C186.361 103.517 186.166 104.037 185.776 104.41C185.395 104.783 184.901 104.969 184.294 104.969C183.687 104.969 183.189 104.783 182.799 104.41C182.418 104.037 182.227 103.517 182.227 102.85ZM190.573 100.9L185.464 110H183.696L188.792 100.9H190.573ZM184.281 101.836C183.804 101.836 183.566 102.174 183.566 102.85C183.566 103.535 183.804 103.877 184.281 103.877C184.515 103.877 184.697 103.795 184.827 103.63C184.957 103.457 185.022 103.197 185.022 102.85C185.022 102.174 184.775 101.836 184.281 101.836ZM187.934 108.037C187.934 107.37 188.125 106.854 188.506 106.49C188.896 106.117 189.394 105.931 190.001 105.931C190.608 105.931 191.097 106.117 191.47 106.49C191.851 106.854 192.042 107.37 192.042 108.037C192.042 108.704 191.851 109.224 191.47 109.597C191.097 109.97 190.608 110.156 190.001 110.156C189.386 110.156 188.887 109.97 188.506 109.597C188.125 109.224 187.934 108.704 187.934 108.037ZM189.988 107.023C189.494 107.023 189.247 107.361 189.247 108.037C189.247 108.722 189.494 109.064 189.988 109.064C190.473 109.064 190.716 108.722 190.716 108.037C190.716 107.361 190.473 107.023 189.988 107.023Z" fill="#EEEEEE"/>
<g clip-path="url(#clip0_707_204444)">
<path d="M217.598 109.989C217.54 109.957 217.47 109.957 217.412 109.989L213.215 112.309C213.075 112.387 212.908 112.269 212.933 112.111L213.74 107.167C213.749 107.107 213.73 107.046 213.688 107.003L210.261 103.495C210.152 103.384 210.215 103.195 210.369 103.172L215.081 102.454C215.144 102.444 215.199 102.404 215.226 102.346L217.327 97.8694C217.396 97.7225 217.604 97.7225 217.673 97.8694L219.774 102.346C219.801 102.404 219.856 102.444 219.919 102.454L224.631 103.172C224.785 103.195 224.848 103.384 224.739 103.495L221.312 107.003C221.27 107.046 221.251 107.107 221.26 107.167L222.067 112.11C222.092 112.268 221.925 112.386 221.785 112.309L217.598 109.989Z" fill="url(#paint3_linear_707_204444)"/>
</g>
<g clip-path="url(#clip1_707_204444)">
<rect x="305" y="94" width="56" height="22" rx="2" fill="url(#paint4_linear_707_204444)" fill-opacity="0.5"/>
<rect x="305" y="94" width="56" height="22" rx="2" stroke="url(#paint5_linear_707_204444)"/>
<path d="M316.968 102.2V100.523H320.101V110H318.229V102.2H316.968ZM323.485 104.982C322.618 104.531 322.185 103.834 322.185 102.889C322.185 102.421 322.302 101.996 322.536 101.615C322.779 101.225 323.138 100.917 323.615 100.692C324.1 100.458 324.69 100.341 325.383 100.341C326.076 100.341 326.661 100.458 327.138 100.692C327.623 100.917 327.983 101.225 328.217 101.615C328.46 101.996 328.581 102.421 328.581 102.889C328.581 103.366 328.464 103.786 328.23 104.15C327.996 104.505 327.684 104.783 327.294 104.982C327.771 105.19 328.143 105.493 328.412 105.892C328.681 106.291 328.815 106.763 328.815 107.309C328.815 107.898 328.663 108.414 328.36 108.856C328.065 109.289 327.658 109.623 327.138 109.857C326.618 110.091 326.033 110.208 325.383 110.208C324.733 110.208 324.148 110.091 323.628 109.857C323.117 109.623 322.709 109.289 322.406 108.856C322.111 108.414 321.964 107.898 321.964 107.309C321.964 106.763 322.098 106.291 322.367 105.892C322.636 105.485 323.008 105.181 323.485 104.982ZM326.813 103.149C326.813 102.724 326.683 102.395 326.423 102.161C326.172 101.927 325.825 101.81 325.383 101.81C324.95 101.81 324.603 101.927 324.343 102.161C324.092 102.395 323.966 102.729 323.966 103.162C323.966 103.552 324.096 103.864 324.356 104.098C324.625 104.332 324.967 104.449 325.383 104.449C325.799 104.449 326.141 104.332 326.41 104.098C326.679 103.855 326.813 103.539 326.813 103.149ZM325.383 105.775C324.889 105.775 324.486 105.901 324.174 106.152C323.871 106.403 323.719 106.763 323.719 107.231C323.719 107.664 323.866 108.02 324.161 108.297C324.464 108.566 324.872 108.7 325.383 108.7C325.894 108.7 326.297 108.561 326.592 108.284C326.887 108.007 327.034 107.656 327.034 107.231C327.034 106.772 326.882 106.416 326.579 106.165C326.276 105.905 325.877 105.775 325.383 105.775ZM336.622 102.096H332.41V104.319C332.592 104.094 332.852 103.912 333.19 103.773C333.528 103.626 333.888 103.552 334.269 103.552C334.963 103.552 335.53 103.704 335.972 104.007C336.414 104.31 336.735 104.7 336.934 105.177C337.134 105.645 337.233 106.148 337.233 106.685C337.233 107.682 336.947 108.483 336.375 109.09C335.812 109.697 335.006 110 333.957 110C332.969 110 332.181 109.753 331.591 109.259C331.002 108.765 330.668 108.119 330.59 107.322H332.358C332.436 107.669 332.61 107.946 332.878 108.154C333.156 108.362 333.507 108.466 333.931 108.466C334.443 108.466 334.828 108.306 335.088 107.985C335.348 107.664 335.478 107.24 335.478 106.711C335.478 106.174 335.344 105.766 335.075 105.489C334.815 105.203 334.43 105.06 333.918 105.06C333.554 105.06 333.251 105.151 333.008 105.333C332.766 105.515 332.592 105.758 332.488 106.061H330.746V100.497H336.622V102.096ZM338.411 102.85C338.411 102.191 338.601 101.676 338.983 101.303C339.373 100.93 339.871 100.744 340.478 100.744C341.084 100.744 341.578 100.93 341.96 101.303C342.35 101.676 342.545 102.191 342.545 102.85C342.545 103.517 342.35 104.037 341.96 104.41C341.578 104.783 341.084 104.969 340.478 104.969C339.871 104.969 339.373 104.783 338.983 104.41C338.601 104.037 338.411 103.517 338.411 102.85ZM346.757 100.9L341.648 110H339.88L344.976 100.9H346.757ZM340.465 101.836C339.988 101.836 339.75 102.174 339.75 102.85C339.75 103.535 339.988 103.877 340.465 103.877C340.699 103.877 340.881 103.795 341.011 103.63C341.141 103.457 341.206 103.197 341.206 102.85C341.206 102.174 340.959 101.836 340.465 101.836ZM344.118 108.037C344.118 107.37 344.308 106.854 344.69 106.49C345.08 106.117 345.578 105.931 346.185 105.931C346.791 105.931 347.281 106.117 347.654 106.49C348.035 106.854 348.226 107.37 348.226 108.037C348.226 108.704 348.035 109.224 347.654 109.597C347.281 109.97 346.791 110.156 346.185 110.156C345.569 110.156 345.071 109.97 344.69 109.597C344.308 109.224 344.118 108.704 344.118 108.037ZM346.172 107.023C345.678 107.023 345.431 107.361 345.431 108.037C345.431 108.722 345.678 109.064 346.172 109.064C346.657 109.064 346.9 108.722 346.9 108.037C346.9 107.361 346.657 107.023 346.172 107.023Z" fill="white"/>
</g>
<path d="M17.1212 61H14.7132L9.26082 52.7612V61H6.85282V48.9772H9.26082L14.7132 57.2332V48.9772H17.1212V61ZM18.8817 56.2012C18.8817 55.238 19.0709 54.3837 19.4493 53.6384C19.8391 52.8931 20.3609 52.3197 21.0145 51.9184C21.6795 51.5171 22.4191 51.3164 23.2333 51.3164C23.9442 51.3164 24.5634 51.4597 25.0909 51.7464C25.6298 52.0331 26.0598 52.3943 26.3809 52.83V51.4712H28.8061V61H26.3809V59.6068C26.0713 60.054 25.6413 60.4267 25.0909 60.7248C24.5519 61.0115 23.927 61.1548 23.2161 61.1548C22.4134 61.1548 21.6795 60.9484 21.0145 60.5356C20.3609 60.1228 19.8391 59.5437 19.4493 58.7984C19.0709 58.0416 18.8817 57.1759 18.8817 56.2012ZM26.3809 56.2356C26.3809 55.6508 26.2662 55.152 26.0369 54.7392C25.8075 54.3149 25.4979 53.9939 25.1081 53.776C24.7182 53.5467 24.2997 53.432 23.8525 53.432C23.4053 53.432 22.9925 53.5409 22.6141 53.7588C22.2357 53.9767 21.9261 54.2977 21.6853 54.722C21.4559 55.1348 21.3413 55.6279 21.3413 56.2012C21.3413 56.7745 21.4559 57.2791 21.6853 57.7148C21.9261 58.1391 22.2357 58.4659 22.6141 58.6952C23.0039 58.9245 23.4167 59.0392 23.8525 59.0392C24.2997 59.0392 24.7182 58.9303 25.1081 58.7124C25.4979 58.4831 25.8075 58.162 26.0369 57.7492C26.2662 57.3249 26.3809 56.8204 26.3809 56.2356ZM42.9915 51.3336C44.1611 51.3336 45.1014 51.6948 45.8123 52.4172C46.5347 53.1281 46.8959 54.1257 46.8959 55.41V61H44.4879V55.7368C44.4879 54.9915 44.2987 54.4239 43.9203 54.034C43.5419 53.6327 43.0259 53.432 42.3723 53.432C41.7187 53.432 41.197 53.6327 40.8071 54.034C40.4287 54.4239 40.2395 54.9915 40.2395 55.7368V61H37.8315V55.7368C37.8315 54.9915 37.6423 54.4239 37.2639 54.034C36.8855 53.6327 36.3695 53.432 35.7159 53.432C35.0508 53.432 34.5234 53.6327 34.1335 54.034C33.7551 54.4239 33.5659 54.9915 33.5659 55.7368V61H31.1579V51.4712H33.5659V52.6236C33.8755 52.2223 34.2711 51.9069 34.7527 51.6776C35.2458 51.4483 35.7847 51.3336 36.3695 51.3336C37.1148 51.3336 37.7799 51.4941 38.3647 51.8152C38.9495 52.1248 39.4024 52.572 39.7235 53.1568C40.0331 52.6064 40.4803 52.1649 41.0651 51.8324C41.6614 51.4999 42.3035 51.3336 42.9915 51.3336ZM58.0389 56.0292C58.0389 56.3732 58.016 56.6828 57.9701 56.958H51.0041C51.0615 57.646 51.3023 58.1849 51.7265 58.5748C52.1508 58.9647 52.6725 59.1596 53.2917 59.1596C54.1861 59.1596 54.8225 58.7755 55.2009 58.0072H57.7981C57.5229 58.9245 56.9955 59.6813 56.2157 60.2776C55.436 60.8624 54.4785 61.1548 53.3433 61.1548C52.426 61.1548 51.6004 60.9541 50.8665 60.5528C50.1441 60.14 49.5765 59.5609 49.1637 58.8156C48.7624 58.0703 48.5617 57.2103 48.5617 56.2356C48.5617 55.2495 48.7624 54.3837 49.1637 53.6384C49.5651 52.8931 50.1269 52.3197 50.8493 51.9184C51.5717 51.5171 52.4031 51.3164 53.3433 51.3164C54.2492 51.3164 55.0576 51.5113 55.7685 51.9012C56.4909 52.2911 57.0471 52.8472 57.4369 53.5696C57.8383 54.2805 58.0389 55.1004 58.0389 56.0292ZM55.5449 55.3412C55.5335 54.722 55.3099 54.2289 54.8741 53.862C54.4384 53.4836 53.9052 53.2944 53.2745 53.2944C52.6783 53.2944 52.1737 53.4779 51.7609 53.8448C51.3596 54.2003 51.1131 54.6991 51.0213 55.3412H55.5449Z" fill="#B5B5B5"/>
<g clip-path="url(#clip2_707_204444)">
<path d="M75.8666 64.7468C70.4837 64.7468 66.1199 60.383 66.1199 55.0001C66.1199 49.6171 70.4837 45.2534 75.8666 45.2534C81.2495 45.2534 85.6133 49.6171 85.6133 55.0001C85.6133 60.383 81.2495 64.7468 75.8666 64.7468Z" stroke="#EEEEEE" stroke-width="1.72" stroke-miterlimit="10" stroke-linecap="round" stroke-linejoin="round"/>
<path d="M72.4277 56.7197L75.8677 53.2797L79.3077 56.7197" stroke="#EEEEEE" stroke-width="1.72" stroke-linecap="round" stroke-linejoin="round"/>
</g>
<rect x="111.5" y="128" width="158" height="35" rx="17.5" fill="#5855FF"/>
<path d="M121.515 150.5L126.3 139.925H127.875L132.66 150.5H130.71L129.66 148.055H124.5L123.465 150.5H121.515ZM127.065 142.01L125.16 146.525H129L127.095 142.01H127.065ZM136.384 150.65C135.744 150.65 135.179 150.495 134.689 150.185C134.209 149.875 133.834 149.435 133.564 148.865C133.294 148.285 133.159 147.605 133.159 146.825C133.159 146.035 133.294 145.36 133.564 144.8C133.834 144.23 134.209 143.79 134.689 143.48C135.179 143.17 135.744 143.015 136.384 143.015C136.904 143.015 137.374 143.13 137.794 143.36C138.214 143.59 138.529 143.895 138.739 144.275V139.925H140.614V150.5H138.784V149.285C138.584 149.705 138.269 150.04 137.839 150.29C137.409 150.53 136.924 150.65 136.384 150.65ZM136.909 149.225C137.469 149.225 137.919 149.025 138.259 148.625C138.599 148.215 138.769 147.615 138.769 146.825C138.769 146.025 138.599 145.43 138.259 145.04C137.919 144.64 137.469 144.44 136.909 144.44C136.349 144.44 135.899 144.64 135.559 145.04C135.219 145.43 135.049 146.025 135.049 146.825C135.049 147.615 135.219 148.215 135.559 148.625C135.899 149.025 136.349 149.225 136.909 149.225ZM144.718 150.5L141.538 143.165H143.533L145.573 148.295L147.688 143.165H149.563L146.338 150.5H144.718ZM152.737 150.65C152.207 150.65 151.732 150.55 151.312 150.35C150.902 150.14 150.577 149.86 150.337 149.51C150.107 149.16 149.992 148.765 149.992 148.325C149.992 147.785 150.132 147.36 150.412 147.05C150.692 146.73 151.147 146.5 151.777 146.36C152.407 146.22 153.252 146.15 154.312 146.15H154.837V145.835C154.837 145.335 154.727 144.975 154.507 144.755C154.287 144.535 153.917 144.425 153.397 144.425C152.987 144.425 152.567 144.49 152.137 144.62C151.707 144.74 151.272 144.93 150.832 145.19L150.292 143.915C150.552 143.735 150.857 143.58 151.207 143.45C151.567 143.31 151.942 143.205 152.332 143.135C152.732 143.055 153.107 143.015 153.457 143.015C154.527 143.015 155.322 143.265 155.842 143.765C156.362 144.255 156.622 145.02 156.622 146.06V150.5H154.867V149.33C154.697 149.74 154.427 150.065 154.057 150.305C153.687 150.535 153.247 150.65 152.737 150.65ZM153.127 149.36C153.617 149.36 154.022 149.19 154.342 148.85C154.672 148.51 154.837 148.08 154.837 147.56V147.23H154.327C153.387 147.23 152.732 147.305 152.362 147.455C152.002 147.595 151.822 147.855 151.822 148.235C151.822 148.565 151.937 148.835 152.167 149.045C152.397 149.255 152.717 149.36 153.127 149.36ZM158.525 150.5V143.165H160.355V144.305C160.605 143.885 160.94 143.565 161.36 143.345C161.79 143.125 162.27 143.015 162.8 143.015C164.53 143.015 165.395 144.02 165.395 146.03V150.5H163.52V146.12C163.52 145.55 163.41 145.135 163.19 144.875C162.98 144.615 162.65 144.485 162.2 144.485C161.65 144.485 161.21 144.66 160.88 145.01C160.56 145.35 160.4 145.805 160.4 146.375V150.5H158.525ZM170.689 150.65C169.919 150.65 169.249 150.495 168.679 150.185C168.109 149.865 167.669 149.415 167.359 148.835C167.049 148.255 166.894 147.575 166.894 146.795C166.894 146.015 167.049 145.345 167.359 144.785C167.669 144.215 168.109 143.78 168.679 143.48C169.249 143.17 169.919 143.015 170.689 143.015C171.159 143.015 171.624 143.09 172.084 143.24C172.544 143.39 172.924 143.6 173.224 143.87L172.669 145.175C172.409 144.945 172.114 144.77 171.784 144.65C171.464 144.53 171.154 144.47 170.854 144.47C170.204 144.47 169.699 144.675 169.339 145.085C168.989 145.485 168.814 146.06 168.814 146.81C168.814 147.55 168.989 148.135 169.339 148.565C169.699 148.985 170.204 149.195 170.854 149.195C171.144 149.195 171.454 149.135 171.784 149.015C172.114 148.895 172.409 148.715 172.669 148.475L173.224 149.795C172.924 150.055 172.539 150.265 172.069 150.425C171.609 150.575 171.149 150.65 170.689 150.65ZM177.843 150.65C177.013 150.65 176.298 150.495 175.698 150.185C175.098 149.875 174.633 149.435 174.303 148.865C173.983 148.295 173.823 147.62 173.823 146.84C173.823 146.08 173.978 145.415 174.288 144.845C174.608 144.275 175.043 143.83 175.593 143.51C176.153 143.18 176.788 143.015 177.498 143.015C178.538 143.015 179.358 143.345 179.958 144.005C180.568 144.665 180.873 145.565 180.873 146.705V147.26H175.623C175.763 148.57 176.513 149.225 177.873 149.225C178.283 149.225 178.693 149.165 179.103 149.045C179.513 148.915 179.888 148.715 180.228 148.445L180.753 149.705C180.403 149.995 179.963 150.225 179.433 150.395C178.903 150.565 178.373 150.65 177.843 150.65ZM177.573 144.29C177.023 144.29 176.578 144.46 176.238 144.8C175.898 145.14 175.693 145.6 175.623 146.18H179.313C179.273 145.57 179.103 145.105 178.803 144.785C178.513 144.455 178.103 144.29 177.573 144.29ZM185.178 150.65C184.538 150.65 183.973 150.495 183.483 150.185C183.003 149.875 182.628 149.435 182.358 148.865C182.088 148.285 181.953 147.605 181.953 146.825C181.953 146.035 182.088 145.36 182.358 144.8C182.628 144.23 183.003 143.79 183.483 143.48C183.973 143.17 184.538 143.015 185.178 143.015C185.698 143.015 186.168 143.13 186.588 143.36C187.008 143.59 187.323 143.895 187.533 144.275V139.925H189.408V150.5H187.578V149.285C187.378 149.705 187.063 150.04 186.633 150.29C186.203 150.53 185.718 150.65 185.178 150.65ZM185.703 149.225C186.263 149.225 186.713 149.025 187.053 148.625C187.393 148.215 187.563 147.615 187.563 146.825C187.563 146.025 187.393 145.43 187.053 145.04C186.713 144.64 186.263 144.44 185.703 144.44C185.143 144.44 184.693 144.64 184.353 145.04C184.013 145.43 183.843 146.025 183.843 146.825C183.843 147.615 184.013 148.215 184.353 148.625C184.693 149.025 185.143 149.225 185.703 149.225ZM194.435 150.5L199.22 139.925H200.795L205.58 150.5H203.63L202.58 148.055H197.42L196.385 150.5H194.435ZM199.985 142.01L198.08 146.525H201.92L200.015 142.01H199.985ZM206.557 150.5V143.165H208.387V144.305C208.637 143.885 208.972 143.565 209.392 143.345C209.822 143.125 210.302 143.015 210.832 143.015C212.562 143.015 213.427 144.02 213.427 146.03V150.5H211.552V146.12C211.552 145.55 211.442 145.135 211.222 144.875C211.012 144.615 210.682 144.485 210.232 144.485C209.682 144.485 209.242 144.66 208.912 145.01C208.592 145.35 208.432 145.805 208.432 146.375V150.5H206.557ZM217.746 150.65C217.216 150.65 216.741 150.55 216.321 150.35C215.911 150.14 215.586 149.86 215.346 149.51C215.116 149.16 215.001 148.765 215.001 148.325C215.001 147.785 215.141 147.36 215.421 147.05C215.701 146.73 216.156 146.5 216.786 146.36C217.416 146.22 218.261 146.15 219.321 146.15H219.846V145.835C219.846 145.335 219.736 144.975 219.516 144.755C219.296 144.535 218.926 144.425 218.406 144.425C217.996 144.425 217.576 144.49 217.146 144.62C216.716 144.74 216.281 144.93 215.841 145.19L215.301 143.915C215.561 143.735 215.866 143.58 216.216 143.45C216.576 143.31 216.951 143.205 217.341 143.135C217.741 143.055 218.116 143.015 218.466 143.015C219.536 143.015 220.331 143.265 220.851 143.765C221.371 144.255 221.631 145.02 221.631 146.06V150.5H219.876V149.33C219.706 149.74 219.436 150.065 219.066 150.305C218.696 150.535 218.256 150.65 217.746 150.65ZM218.136 149.36C218.626 149.36 219.031 149.19 219.351 148.85C219.681 148.51 219.846 148.08 219.846 147.56V147.23H219.336C218.396 147.23 217.741 147.305 217.371 147.455C217.011 147.595 216.831 147.855 216.831 148.235C216.831 148.565 216.946 148.835 217.176 149.045C217.406 149.255 217.726 149.36 218.136 149.36ZM226.085 150.65C225.215 150.65 224.57 150.415 224.15 149.945C223.74 149.465 223.535 148.765 223.535 147.845V139.925H225.41V147.755C225.41 148.655 225.79 149.105 226.55 149.105C226.66 149.105 226.77 149.1 226.88 149.09C226.99 149.08 227.095 149.06 227.195 149.03L227.165 150.515C226.805 150.605 226.445 150.65 226.085 150.65ZM228.794 153.2L230.144 150.2L227.099 143.165H229.094L231.149 148.295L233.249 143.165H235.139L230.729 153.2H228.794ZM239.609 150.65C237.669 150.65 236.699 149.69 236.699 147.77V144.575H235.289V143.165H236.699V140.975H238.574V143.165H240.794V144.575H238.574V147.665C238.574 148.145 238.679 148.505 238.889 148.745C239.099 148.985 239.439 149.105 239.909 149.105C240.049 149.105 240.194 149.09 240.344 149.06C240.494 149.02 240.649 148.98 240.809 148.94L241.094 150.32C240.914 150.42 240.684 150.5 240.404 150.56C240.134 150.62 239.869 150.65 239.609 150.65ZM241.886 141.59V139.76H243.986V141.59H241.886ZM242.006 150.5V143.165H243.881V150.5H242.006ZM249.219 150.65C248.449 150.65 247.779 150.495 247.209 150.185C246.639 149.865 246.199 149.415 245.889 148.835C245.579 148.255 245.424 147.575 245.424 146.795C245.424 146.015 245.579 145.345 245.889 144.785C246.199 144.215 246.639 143.78 247.209 143.48C247.779 143.17 248.449 143.015 249.219 143.015C249.689 143.015 250.154 143.09 250.614 143.24C251.074 143.39 251.454 143.6 251.754 143.87L251.199 145.175C250.939 144.945 250.644 144.77 250.314 144.65C249.994 144.53 249.684 144.47 249.384 144.47C248.734 144.47 248.229 144.675 247.869 145.085C247.519 145.485 247.344 146.06 247.344 146.81C247.344 147.55 247.519 148.135 247.869 148.565C248.229 148.985 248.734 149.195 249.384 149.195C249.674 149.195 249.984 149.135 250.314 149.015C250.644 148.895 250.939 148.715 251.199 148.475L251.754 149.795C251.454 150.055 251.069 150.265 250.599 150.425C250.139 150.575 249.679 150.65 249.219 150.65ZM255.59 150.65C254.97 150.65 254.39 150.575 253.85 150.425C253.31 150.275 252.86 150.06 252.5 149.78L252.98 148.55C253.35 148.8 253.765 148.995 254.225 149.135C254.685 149.265 255.145 149.33 255.605 149.33C256.085 149.33 256.44 149.25 256.67 149.09C256.91 148.92 257.03 148.7 257.03 148.43C257.03 148.01 256.72 147.74 256.1 147.62L254.6 147.335C253.33 147.095 252.695 146.435 252.695 145.355C252.695 144.875 252.825 144.46 253.085 144.11C253.355 143.76 253.725 143.49 254.195 143.3C254.665 143.11 255.205 143.015 255.815 143.015C256.335 143.015 256.835 143.09 257.315 143.24C257.795 143.38 258.205 143.595 258.545 143.885L258.035 145.115C257.745 144.875 257.395 144.685 256.985 144.545C256.585 144.405 256.2 144.335 255.83 144.335C255.34 144.335 254.975 144.42 254.735 144.59C254.505 144.76 254.39 144.985 254.39 145.265C254.39 145.705 254.675 145.975 255.245 146.075L256.745 146.36C257.395 146.48 257.885 146.7 258.215 147.02C258.555 147.34 258.725 147.77 258.725 148.31C258.725 149.04 258.44 149.615 257.87 150.035C257.3 150.445 256.54 150.65 255.59 150.65Z" fill="white"/>
<rect x="158.25" y="0.75" width="65.5" height="33.5" rx="16.75" fill="url(#paint6_linear_707_204444)" fill-opacity="0.3"/>
<rect x="158.25" y="0.75" width="65.5" height="33.5" rx="16.75" stroke="#C27EFF" stroke-width="1.5"/>
<path d="M171.896 9.73354C172.116 9.60565 172.227 9.54171 172.343 9.51664C172.447 9.49445 172.553 9.49445 172.657 9.51664C172.773 9.54171 172.884 9.60565 173.104 9.73354L178.86 13.0705C179.093 13.2055 179.209 13.2731 179.294 13.3691C179.369 13.4541 179.426 13.5548 179.461 13.6645C179.5 13.7886 179.5 13.9276 179.5 14.2057V20.7943C179.5 21.0724 179.5 21.2114 179.461 21.3355C179.426 21.4452 179.369 21.5459 179.294 21.6309C179.209 21.7269 179.093 21.7945 178.86 21.9295L173.104 25.2665C172.884 25.3943 172.773 25.4583 172.657 25.4834C172.553 25.5055 172.447 25.5055 172.343 25.4834C172.227 25.4583 172.116 25.3943 171.896 25.2665L166.14 21.9295C165.907 21.7945 165.791 21.7269 165.706 21.6309C165.631 21.5459 165.574 21.4452 165.539 21.3355C165.5 21.2114 165.5 21.0724 165.5 20.7943V14.2057C165.5 13.9276 165.5 13.7886 165.539 13.6645C165.574 13.5548 165.631 13.4541 165.706 13.3691C165.791 13.2731 165.907 13.2055 166.14 13.0705L171.896 9.73354Z" fill="url(#paint7_linear_707_204444)"/>
<path d="M172.5 9.78899V17.5M172.5 17.5L179.111 13.667M172.5 17.5L165.889 13.667M172.5 17.5V25.211M179.111 21.333L173.104 17.8504C172.884 17.7225 172.773 17.6586 172.657 17.6335C172.553 17.6113 172.447 17.6113 172.343 17.6335C172.227 17.6586 172.116 17.7225 171.896 17.8504L165.889 21.333M179.5 20.7943V14.2057C179.5 13.9276 179.5 13.7886 179.461 13.6645C179.426 13.5548 179.369 13.4541 179.294 13.3691C179.209 13.2731 179.093 13.2055 178.86 13.0705L173.104 9.73354C172.884 9.60565 172.773 9.54171 172.657 9.51664C172.553 9.49445 172.447 9.49445 172.343 9.51664C172.227 9.54171 172.116 9.60565 171.896 9.73354L166.14 13.0705C165.907 13.2055 165.791 13.2731 165.706 13.3691C165.631 13.4541 165.574 13.5548 165.539 13.6645C165.5 13.7886 165.5 13.9276 165.5 14.2057V20.7943C165.5 21.0724 165.5 21.2114 165.539 21.3355C165.574 21.4452 165.631 21.5459 165.706 21.6309C165.791 21.7269 165.907 21.7945 166.14 21.9295L171.896 25.2665C172.116 25.3943 172.227 25.4583 172.343 25.4834C172.447 25.5055 172.553 25.5055 172.657 25.4834C172.773 25.4583 172.884 25.3943 173.104 25.2665L178.86 21.9295C179.093 21.7945 179.209 21.7269 179.294 21.6309C179.369 21.5459 179.426 21.4452 179.461 21.3355C179.5 21.2114 179.5 21.0724 179.5 20.7943Z" stroke="#EEEEEE" stroke-width="1.2" stroke-linecap="round" stroke-linejoin="round"/>
<path d="M186.655 22.5V11.925H191.245C192.405 11.925 193.3 12.215 193.93 12.795C194.56 13.375 194.875 14.185 194.875 15.225C194.875 16.265 194.56 17.08 193.93 17.67C193.3 18.25 192.405 18.54 191.245 18.54H188.575V22.5H186.655ZM188.575 17.025H190.945C192.325 17.025 193.015 16.425 193.015 15.225C193.015 14.035 192.325 13.44 190.945 13.44H188.575V17.025ZM196.44 22.5V11.925H201.03C202.19 11.925 203.085 12.205 203.715 12.765C204.345 13.315 204.66 14.09 204.66 15.09C204.66 15.88 204.455 16.535 204.045 17.055C203.635 17.565 203.045 17.91 202.275 18.09C202.785 18.25 203.205 18.635 203.535 19.245L205.305 22.5H203.19L201.36 19.125C201.18 18.795 200.965 18.57 200.715 18.45C200.475 18.33 200.165 18.27 199.785 18.27H198.36V22.5H196.44ZM198.36 16.845H200.7C202.1 16.845 202.8 16.275 202.8 15.135C202.8 14.005 202.1 13.44 200.7 13.44H198.36V16.845ZM211.39 22.65C210.37 22.65 209.475 22.425 208.705 21.975C207.945 21.525 207.355 20.895 206.935 20.085C206.515 19.265 206.305 18.305 206.305 17.205C206.305 16.095 206.515 15.135 206.935 14.325C207.355 13.515 207.945 12.89 208.705 12.45C209.465 12 210.36 11.775 211.39 11.775C212.42 11.775 213.315 12 214.075 12.45C214.835 12.89 215.425 13.515 215.845 14.325C216.265 15.135 216.475 16.09 216.475 17.19C216.475 18.3 216.265 19.265 215.845 20.085C215.425 20.895 214.835 21.525 214.075 21.975C213.315 22.425 212.42 22.65 211.39 22.65ZM211.39 21C212.36 21 213.115 20.665 213.655 19.995C214.195 19.325 214.465 18.395 214.465 17.205C214.465 16.005 214.195 15.075 213.655 14.415C213.125 13.755 212.37 13.425 211.39 13.425C210.42 13.425 209.665 13.755 209.125 14.415C208.585 15.075 208.315 16.005 208.315 17.205C208.315 18.395 208.585 19.325 209.125 19.995C209.665 20.665 210.42 21 211.39 21Z" fill="white"/>
<defs>
<linearGradient id="paint0_linear_707_204444" x1="44.6718" y1="99.7925" x2="38.5327" y2="111.45" gradientUnits="userSpaceOnUse">
<stop stop-color="#00FFA3"/>
<stop offset="1" stop-color="#DC1FFF"/>
</linearGradient>
<linearGradient id="paint1_linear_707_204444" x1="42.0235" y1="98.3979" x2="35.8845" y2="110.056" gradientUnits="userSpaceOnUse">
<stop stop-color="#00FFA3"/>
<stop offset="1" stop-color="#DC1FFF"/>
</linearGradient>
<linearGradient id="paint2_linear_707_204444" x1="43.3392" y1="99.0907" x2="37.2002" y2="110.748" gradientUnits="userSpaceOnUse">
<stop stop-color="#00FFA3"/>
<stop offset="1" stop-color="#DC1FFF"/>
</linearGradient>
<linearGradient id="paint3_linear_707_204444" x1="217.5" y1="97.5" x2="217.5" y2="112.5" gradientUnits="userSpaceOnUse">
<stop stop-color="#FDD31A"/>
<stop offset="1" stop-color="#B75910"/>
</linearGradient>
<linearGradient id="paint4_linear_707_204444" x1="304.5" y1="102.7" x2="359.278" y2="118.858" gradientUnits="userSpaceOnUse">
<stop stop-color="#F7931A"/>
<stop offset="1" stop-color="#AC1CC7"/>
</linearGradient>
<linearGradient id="paint5_linear_707_204444" x1="304.5" y1="102.7" x2="359.278" y2="118.858" gradientUnits="userSpaceOnUse">
<stop stop-color="#F7931A"/>
<stop offset="1" stop-color="#AC1CC7"/>
</linearGradient>
<linearGradient id="paint6_linear_707_204444" x1="218" y1="32.0833" x2="173.605" y2="-7.32154" gradientUnits="userSpaceOnUse">
<stop stop-color="#5855FF"/>
<stop offset="1" stop-color="#E036FF"/>
</linearGradient>
<linearGradient id="paint7_linear_707_204444" x1="179.5" y1="25.5" x2="161.911" y2="18.4341" gradientUnits="userSpaceOnUse">
<stop stop-color="#5855FF"/>
<stop offset="1" stop-color="#E036FF"/>
</linearGradient>
<clipPath id="clip0_707_204444">
<rect width="20" height="20" fill="white" transform="translate(207.5 95)"/>
</clipPath>
<clipPath id="clip1_707_204444">
<rect width="66" height="23" fill="white" transform="translate(304.5 93.5)"/>
</clipPath>
<clipPath id="clip2_707_204444">
<rect width="22.9333" height="22.9333" fill="white" transform="matrix(-1 0 0 1 87.334 43.5332)"/>
</clipPath>
</defs>
</svg>
