<svg width="381" height="163" viewBox="0 0 381 163" fill="none" xmlns="http://www.w3.org/2000/svg">
<rect x="1" y="78.5" width="379" height="53" rx="4.5" fill="#F7F0FD"/>
<rect x="1" y="78.5" width="379" height="53" rx="4.5" stroke="#CACACA"/>
<circle cx="23" cy="105" r="11.75" fill="#2270C5" stroke="#F7F0FD" stroke-width="1.5"/>
<path d="M26.2838 106.662C26.2838 105.146 25.2503 104.626 23.1832 104.409C21.7067 104.235 21.4114 103.889 21.4114 103.283C21.4114 102.677 21.904 102.287 22.8879 102.287C23.7738 102.287 24.2664 102.547 24.5121 103.197C24.5617 103.327 24.7093 103.413 24.857 103.413H25.6448C25.8421 103.413 25.9897 103.283 25.9897 103.109V103.066C25.7925 102.112 24.9066 101.376 23.775 101.29V100.25C23.775 100.077 23.6273 99.9469 23.3817 99.9043H22.6434C22.4461 99.9043 22.2985 100.034 22.2501 100.25V101.246C20.7736 101.42 19.8381 102.286 19.8381 103.369C19.8381 104.799 20.822 105.362 22.8891 105.578C24.2675 105.795 24.7105 106.055 24.7105 106.748C24.7105 107.441 24.0219 107.917 23.0864 107.917C21.8071 107.917 21.3642 107.441 21.2165 106.792C21.1669 106.618 21.0193 106.532 20.8716 106.532H20.0353C19.8381 106.532 19.6904 106.662 19.6904 106.835V106.879C19.8877 107.962 20.6744 108.742 22.2985 108.958V109.998C22.2985 110.171 22.4461 110.301 22.6918 110.344H23.4301C23.6273 110.344 23.775 110.214 23.8234 109.998V108.958C25.2987 108.741 26.2838 107.831 26.2838 106.662Z" fill="white"/>
<path d="M20.6585 111.074C17.0966 109.829 15.2697 105.96 16.5947 102.536C17.2797 100.669 18.7866 99.2463 20.6585 98.5793C20.8415 98.4907 20.9325 98.3573 20.9325 98.1343V97.5121C20.9325 97.3339 20.8415 97.2005 20.6585 97.1567C20.6125 97.1567 20.5215 97.1567 20.4755 97.2016C16.1377 98.5355 13.7627 103.026 15.1327 107.251C15.9546 109.741 17.9186 111.653 20.4755 112.454C20.6585 112.542 20.8404 112.454 20.8865 112.276C20.9325 112.231 20.9325 112.187 20.9325 112.097V111.475C20.9325 111.341 20.7955 111.164 20.6585 111.074ZM25.4983 97.2005C25.3152 97.1119 25.1333 97.2005 25.0873 97.3787C25.0413 97.4235 25.0413 97.4673 25.0413 97.5569V98.1791C25.0413 98.3573 25.1783 98.5345 25.3152 98.6241C28.8771 99.8695 30.7041 103.738 29.3791 107.162C28.6941 109.029 27.1872 110.452 25.3152 111.119C25.1322 111.207 25.0413 111.341 25.0413 111.564V112.186C25.0413 112.364 25.1322 112.498 25.3152 112.541C25.3613 112.541 25.4522 112.541 25.4983 112.497C29.8361 111.163 32.211 106.672 30.8411 102.447C30.0191 99.9133 28.0102 98.0009 25.4983 97.2005Z" fill="white"/>
<circle cx="40" cy="105" r="11.75" fill="black" stroke="#F7F0FD" stroke-width="1.5"/>
<path d="M36.5032 107.451C36.5705 107.383 36.6608 107.345 36.7554 107.345H45.5074C45.6671 107.345 45.7469 107.54 45.6335 107.652L43.9041 109.394C43.8368 109.462 43.7465 109.5 43.6519 109.5H34.902C34.7423 109.5 34.6625 109.305 34.7759 109.193L36.5032 107.451Z" fill="url(#paint0_linear_120_17945)"/>
<path d="M36.5032 100.939C36.5705 100.872 36.6608 100.833 36.7554 100.833H45.5074C45.6671 100.833 45.7469 101.028 45.6335 101.141L43.9041 102.883C43.8368 102.951 43.7465 102.989 43.6519 102.989H34.902C34.7423 102.989 34.6625 102.794 34.7759 102.682L36.5032 100.939Z" fill="url(#paint1_linear_120_17945)"/>
<path d="M43.9041 104.174C43.8368 104.106 43.7465 104.068 43.6519 104.068H34.902C34.7423 104.068 34.6625 104.263 34.7759 104.375L36.5053 106.117C36.5726 106.185 36.6629 106.223 36.7575 106.223H45.5095C45.6692 106.223 45.749 106.028 45.6356 105.916L43.9041 104.174Z" fill="url(#paint2_linear_120_17945)"/>
<path d="M65.605 100.03V106.51C65.605 107.22 65.79 107.765 66.16 108.145C66.53 108.515 67.05 108.7 67.72 108.7C68.4 108.7 68.925 108.515 69.295 108.145C69.665 107.765 69.85 107.22 69.85 106.51V100.03H71.965V106.495C71.965 107.385 71.77 108.14 71.38 108.76C71 109.37 70.485 109.83 69.835 110.14C69.195 110.45 68.48 110.605 67.69 110.605C66.91 110.605 66.2 110.45 65.56 110.14C64.93 109.83 64.43 109.37 64.06 108.76C63.69 108.14 63.505 107.385 63.505 106.495V100.03H65.605ZM77.609 110.605C76.879 110.605 76.219 110.48 75.629 110.23C75.049 109.98 74.589 109.62 74.249 109.15C73.909 108.68 73.734 108.125 73.724 107.485H75.974C76.004 107.915 76.154 108.255 76.424 108.505C76.704 108.755 77.084 108.88 77.564 108.88C78.054 108.88 78.439 108.765 78.719 108.535C78.999 108.295 79.139 107.985 79.139 107.605C79.139 107.295 79.044 107.04 78.854 106.84C78.664 106.64 78.424 106.485 78.134 106.375C77.854 106.255 77.464 106.125 76.964 105.985C76.284 105.785 75.729 105.59 75.299 105.4C74.879 105.2 74.514 104.905 74.204 104.515C73.904 104.115 73.754 103.585 73.754 102.925C73.754 102.305 73.909 101.765 74.219 101.305C74.529 100.845 74.964 100.495 75.524 100.255C76.084 100.005 76.724 99.88 77.444 99.88C78.524 99.88 79.399 100.145 80.069 100.675C80.749 101.195 81.124 101.925 81.194 102.865H78.884C78.864 102.505 78.709 102.21 78.419 101.98C78.139 101.74 77.764 101.62 77.294 101.62C76.884 101.62 76.554 101.725 76.304 101.935C76.064 102.145 75.944 102.45 75.944 102.85C75.944 103.13 76.034 103.365 76.214 103.555C76.404 103.735 76.634 103.885 76.904 104.005C77.184 104.115 77.574 104.245 78.074 104.395C78.754 104.595 79.309 104.795 79.739 104.995C80.169 105.195 80.539 105.495 80.849 105.895C81.159 106.295 81.314 106.82 81.314 107.47C81.314 108.03 81.169 108.55 80.879 109.03C80.589 109.51 80.164 109.895 79.604 110.185C79.044 110.465 78.379 110.605 77.609 110.605ZM86.7946 100.03C87.8946 100.03 88.8596 100.245 89.6896 100.675C90.5296 101.105 91.1746 101.72 91.6246 102.52C92.0846 103.31 92.3146 104.23 92.3146 105.28C92.3146 106.33 92.0846 107.25 91.6246 108.04C91.1746 108.82 90.5296 109.425 89.6896 109.855C88.8596 110.285 87.8946 110.5 86.7946 110.5H83.1346V100.03H86.7946ZM86.7196 108.715C87.8196 108.715 88.6696 108.415 89.2696 107.815C89.8696 107.215 90.1696 106.37 90.1696 105.28C90.1696 104.19 89.8696 103.34 89.2696 102.73C88.6696 102.11 87.8196 101.8 86.7196 101.8H85.2346V108.715H86.7196ZM93.3766 105.25C93.3766 104.22 93.6066 103.3 94.0666 102.49C94.5366 101.67 95.1716 101.035 95.9716 100.585C96.7816 100.125 97.6866 99.895 98.6866 99.895C99.8566 99.895 100.882 100.195 101.762 100.795C102.642 101.395 103.257 102.225 103.607 103.285H101.192C100.952 102.785 100.612 102.41 100.172 102.16C99.7416 101.91 99.2416 101.785 98.6716 101.785C98.0616 101.785 97.5166 101.93 97.0366 102.22C96.5666 102.5 96.1966 102.9 95.9266 103.42C95.6666 103.94 95.5366 104.55 95.5366 105.25C95.5366 105.94 95.6666 106.55 95.9266 107.08C96.1966 107.6 96.5666 108.005 97.0366 108.295C97.5166 108.575 98.0616 108.715 98.6716 108.715C99.2416 108.715 99.7416 108.59 100.172 108.34C100.612 108.08 100.952 107.7 101.192 107.2H103.607C103.257 108.27 102.642 109.105 101.762 109.705C100.892 110.295 99.8666 110.59 98.6866 110.59C97.6866 110.59 96.7816 110.365 95.9716 109.915C95.1716 109.455 94.5366 108.82 94.0666 108.01C93.6066 107.2 93.3766 106.28 93.3766 105.25ZM115.364 104.26V106.03H109.004V104.26H115.364ZM124.909 110.605C124.179 110.605 123.519 110.48 122.929 110.23C122.349 109.98 121.889 109.62 121.549 109.15C121.209 108.68 121.034 108.125 121.024 107.485H123.274C123.304 107.915 123.454 108.255 123.724 108.505C124.004 108.755 124.384 108.88 124.864 108.88C125.354 108.88 125.739 108.765 126.019 108.535C126.299 108.295 126.439 107.985 126.439 107.605C126.439 107.295 126.344 107.04 126.154 106.84C125.964 106.64 125.724 106.485 125.434 106.375C125.154 106.255 124.764 106.125 124.264 105.985C123.584 105.785 123.029 105.59 122.599 105.4C122.179 105.2 121.814 104.905 121.504 104.515C121.204 104.115 121.054 103.585 121.054 102.925C121.054 102.305 121.209 101.765 121.519 101.305C121.829 100.845 122.264 100.495 122.824 100.255C123.384 100.005 124.024 99.88 124.744 99.88C125.824 99.88 126.699 100.145 127.369 100.675C128.049 101.195 128.424 101.925 128.494 102.865H126.184C126.164 102.505 126.009 102.21 125.719 101.98C125.439 101.74 125.064 101.62 124.594 101.62C124.184 101.62 123.854 101.725 123.604 101.935C123.364 102.145 123.244 102.45 123.244 102.85C123.244 103.13 123.334 103.365 123.514 103.555C123.704 103.735 123.934 103.885 124.204 104.005C124.484 104.115 124.874 104.245 125.374 104.395C126.054 104.595 126.609 104.795 127.039 104.995C127.469 105.195 127.839 105.495 128.149 105.895C128.459 106.295 128.614 106.82 128.614 107.47C128.614 108.03 128.469 108.55 128.179 109.03C127.889 109.51 127.464 109.895 126.904 110.185C126.344 110.465 125.679 110.605 124.909 110.605ZM135.294 110.605C134.314 110.605 133.414 110.375 132.594 109.915C131.774 109.455 131.124 108.82 130.644 108.01C130.164 107.19 129.924 106.265 129.924 105.235C129.924 104.215 130.164 103.3 130.644 102.49C131.124 101.67 131.774 101.03 132.594 100.57C133.414 100.11 134.314 99.88 135.294 99.88C136.284 99.88 137.184 100.11 137.994 100.57C138.814 101.03 139.459 101.67 139.929 102.49C140.409 103.3 140.649 104.215 140.649 105.235C140.649 106.265 140.409 107.19 139.929 108.01C139.459 108.82 138.814 109.455 137.994 109.915C137.174 110.375 136.274 110.605 135.294 110.605ZM135.294 108.73C135.924 108.73 136.479 108.59 136.959 108.31C137.439 108.02 137.814 107.61 138.084 107.08C138.354 106.55 138.489 105.935 138.489 105.235C138.489 104.535 138.354 103.925 138.084 103.405C137.814 102.875 137.439 102.47 136.959 102.19C136.479 101.91 135.924 101.77 135.294 101.77C134.664 101.77 134.104 101.91 133.614 102.19C133.134 102.47 132.759 102.875 132.489 103.405C132.219 103.925 132.084 104.535 132.084 105.235C132.084 105.935 132.219 106.55 132.489 107.08C132.759 107.61 133.134 108.02 133.614 108.31C134.104 108.59 134.664 108.73 135.294 108.73ZM144.312 108.835H147.762V110.5H142.212V100.03H144.312V108.835Z" fill="#3C3C3C"/>
<rect x="159" y="94" width="38" height="22" rx="2" fill="#F7F0FD"/>
<rect x="159" y="94" width="38" height="22" rx="2" stroke="#636363"/>
<path d="M163.189 105.138C163.189 103.639 163.458 102.464 163.995 101.615C164.541 100.766 165.442 100.341 166.699 100.341C167.956 100.341 168.853 100.766 169.39 101.615C169.936 102.464 170.209 103.639 170.209 105.138C170.209 106.646 169.936 107.829 169.39 108.687C168.853 109.545 167.956 109.974 166.699 109.974C165.442 109.974 164.541 109.545 163.995 108.687C163.458 107.829 163.189 106.646 163.189 105.138ZM168.415 105.138C168.415 104.497 168.372 103.959 168.285 103.526C168.207 103.084 168.042 102.724 167.791 102.447C167.548 102.17 167.184 102.031 166.699 102.031C166.214 102.031 165.845 102.17 165.594 102.447C165.351 102.724 165.187 103.084 165.1 103.526C165.022 103.959 164.983 104.497 164.983 105.138C164.983 105.797 165.022 106.351 165.1 106.802C165.178 107.244 165.343 107.604 165.594 107.881C165.845 108.15 166.214 108.284 166.699 108.284C167.184 108.284 167.553 108.15 167.804 107.881C168.055 107.604 168.22 107.244 168.298 106.802C168.376 106.351 168.415 105.797 168.415 105.138ZM172.607 110.091C172.278 110.091 172.005 109.991 171.788 109.792C171.58 109.584 171.476 109.328 171.476 109.025C171.476 108.722 171.58 108.47 171.788 108.271C172.005 108.063 172.278 107.959 172.607 107.959C172.928 107.959 173.192 108.063 173.4 108.271C173.608 108.47 173.712 108.722 173.712 109.025C173.712 109.328 173.608 109.584 173.4 109.792C173.192 109.991 172.928 110.091 172.607 110.091ZM175.542 107.946C176.374 107.253 177.037 106.676 177.531 106.217C178.025 105.749 178.437 105.264 178.766 104.761C179.096 104.258 179.26 103.764 179.26 103.279C179.26 102.837 179.156 102.49 178.948 102.239C178.74 101.988 178.42 101.862 177.986 101.862C177.553 101.862 177.219 102.009 176.985 102.304C176.751 102.59 176.63 102.984 176.621 103.487H174.853C174.888 102.447 175.196 101.658 175.776 101.121C176.366 100.584 177.111 100.315 178.012 100.315C179 100.315 179.759 100.579 180.287 101.108C180.816 101.628 181.08 102.317 181.08 103.175C181.08 103.851 180.898 104.497 180.534 105.112C180.17 105.727 179.754 106.265 179.286 106.724C178.818 107.175 178.207 107.721 177.453 108.362H181.288V109.87H174.866V108.518L175.542 107.946ZM182.227 102.85C182.227 102.191 182.418 101.676 182.799 101.303C183.189 100.93 183.687 100.744 184.294 100.744C184.901 100.744 185.395 100.93 185.776 101.303C186.166 101.676 186.361 102.191 186.361 102.85C186.361 103.517 186.166 104.037 185.776 104.41C185.395 104.783 184.901 104.969 184.294 104.969C183.687 104.969 183.189 104.783 182.799 104.41C182.418 104.037 182.227 103.517 182.227 102.85ZM190.573 100.9L185.464 110H183.696L188.792 100.9H190.573ZM184.281 101.836C183.804 101.836 183.566 102.174 183.566 102.85C183.566 103.535 183.804 103.877 184.281 103.877C184.515 103.877 184.697 103.795 184.827 103.63C184.957 103.457 185.022 103.197 185.022 102.85C185.022 102.174 184.775 101.836 184.281 101.836ZM187.934 108.037C187.934 107.37 188.125 106.854 188.506 106.49C188.896 106.117 189.394 105.931 190.001 105.931C190.608 105.931 191.097 106.117 191.47 106.49C191.851 106.854 192.042 107.37 192.042 108.037C192.042 108.704 191.851 109.224 191.47 109.597C191.097 109.97 190.608 110.156 190.001 110.156C189.386 110.156 188.887 109.97 188.506 109.597C188.125 109.224 187.934 108.704 187.934 108.037ZM189.988 107.023C189.494 107.023 189.247 107.361 189.247 108.037C189.247 108.722 189.494 109.064 189.988 109.064C190.473 109.064 190.716 108.722 190.716 108.037C190.716 107.361 190.473 107.023 189.988 107.023Z" fill="#3C3C3C"/>
<g clip-path="url(#clip0_120_17945)">
<path d="M217.598 109.989C217.54 109.957 217.47 109.957 217.412 109.989L213.215 112.309C213.075 112.387 212.908 112.269 212.933 112.111L213.74 107.167C213.749 107.107 213.73 107.046 213.688 107.003L210.261 103.495C210.152 103.384 210.215 103.195 210.369 103.172L215.081 102.454C215.144 102.444 215.199 102.404 215.226 102.346L217.327 97.8694C217.396 97.7225 217.604 97.7225 217.673 97.8694L219.774 102.346C219.801 102.404 219.856 102.444 219.919 102.454L224.631 103.172C224.785 103.195 224.848 103.384 224.739 103.495L221.312 107.003C221.27 107.046 221.251 107.107 221.26 107.167L222.067 112.11C222.092 112.268 221.925 112.386 221.785 112.309L217.598 109.989Z" fill="url(#paint3_linear_120_17945)"/>
</g>
<g clip-path="url(#clip1_120_17945)">
<rect x="305" y="94" width="56" height="22" rx="2" fill="url(#paint4_linear_120_17945)" fill-opacity="0.5"/>
<rect x="305" y="94" width="56" height="22" rx="2" stroke="url(#paint5_linear_120_17945)"/>
<path d="M316.968 102.2V100.523H320.101V110H318.229V102.2H316.968ZM323.485 104.982C322.618 104.531 322.185 103.834 322.185 102.889C322.185 102.421 322.302 101.996 322.536 101.615C322.779 101.225 323.138 100.917 323.615 100.692C324.1 100.458 324.69 100.341 325.383 100.341C326.076 100.341 326.661 100.458 327.138 100.692C327.623 100.917 327.983 101.225 328.217 101.615C328.46 101.996 328.581 102.421 328.581 102.889C328.581 103.366 328.464 103.786 328.23 104.15C327.996 104.505 327.684 104.783 327.294 104.982C327.771 105.19 328.143 105.493 328.412 105.892C328.681 106.291 328.815 106.763 328.815 107.309C328.815 107.898 328.663 108.414 328.36 108.856C328.065 109.289 327.658 109.623 327.138 109.857C326.618 110.091 326.033 110.208 325.383 110.208C324.733 110.208 324.148 110.091 323.628 109.857C323.117 109.623 322.709 109.289 322.406 108.856C322.111 108.414 321.964 107.898 321.964 107.309C321.964 106.763 322.098 106.291 322.367 105.892C322.636 105.485 323.008 105.181 323.485 104.982ZM326.813 103.149C326.813 102.724 326.683 102.395 326.423 102.161C326.172 101.927 325.825 101.81 325.383 101.81C324.95 101.81 324.603 101.927 324.343 102.161C324.092 102.395 323.966 102.729 323.966 103.162C323.966 103.552 324.096 103.864 324.356 104.098C324.625 104.332 324.967 104.449 325.383 104.449C325.799 104.449 326.141 104.332 326.41 104.098C326.679 103.855 326.813 103.539 326.813 103.149ZM325.383 105.775C324.889 105.775 324.486 105.901 324.174 106.152C323.871 106.403 323.719 106.763 323.719 107.231C323.719 107.664 323.866 108.02 324.161 108.297C324.464 108.566 324.872 108.7 325.383 108.7C325.894 108.7 326.297 108.561 326.592 108.284C326.887 108.007 327.034 107.656 327.034 107.231C327.034 106.772 326.882 106.416 326.579 106.165C326.276 105.905 325.877 105.775 325.383 105.775ZM336.622 102.096H332.41V104.319C332.592 104.094 332.852 103.912 333.19 103.773C333.528 103.626 333.888 103.552 334.269 103.552C334.963 103.552 335.53 103.704 335.972 104.007C336.414 104.31 336.735 104.7 336.934 105.177C337.134 105.645 337.233 106.148 337.233 106.685C337.233 107.682 336.947 108.483 336.375 109.09C335.812 109.697 335.006 110 333.957 110C332.969 110 332.181 109.753 331.591 109.259C331.002 108.765 330.668 108.119 330.59 107.322H332.358C332.436 107.669 332.61 107.946 332.878 108.154C333.156 108.362 333.507 108.466 333.931 108.466C334.443 108.466 334.828 108.306 335.088 107.985C335.348 107.664 335.478 107.24 335.478 106.711C335.478 106.174 335.344 105.766 335.075 105.489C334.815 105.203 334.43 105.06 333.918 105.06C333.554 105.06 333.251 105.151 333.008 105.333C332.766 105.515 332.592 105.758 332.488 106.061H330.746V100.497H336.622V102.096ZM338.411 102.85C338.411 102.191 338.601 101.676 338.983 101.303C339.373 100.93 339.871 100.744 340.478 100.744C341.084 100.744 341.578 100.93 341.96 101.303C342.35 101.676 342.545 102.191 342.545 102.85C342.545 103.517 342.35 104.037 341.96 104.41C341.578 104.783 341.084 104.969 340.478 104.969C339.871 104.969 339.373 104.783 338.983 104.41C338.601 104.037 338.411 103.517 338.411 102.85ZM346.757 100.9L341.648 110H339.88L344.976 100.9H346.757ZM340.465 101.836C339.988 101.836 339.75 102.174 339.75 102.85C339.75 103.535 339.988 103.877 340.465 103.877C340.699 103.877 340.881 103.795 341.011 103.63C341.141 103.457 341.206 103.197 341.206 102.85C341.206 102.174 340.959 101.836 340.465 101.836ZM344.118 108.037C344.118 107.37 344.308 106.854 344.69 106.49C345.08 106.117 345.578 105.931 346.185 105.931C346.791 105.931 347.281 106.117 347.654 106.49C348.035 106.854 348.226 107.37 348.226 108.037C348.226 108.704 348.035 109.224 347.654 109.597C347.281 109.97 346.791 110.156 346.185 110.156C345.569 110.156 345.071 109.97 344.69 109.597C344.308 109.224 344.118 108.704 344.118 108.037ZM346.172 107.023C345.678 107.023 345.431 107.361 345.431 108.037C345.431 108.722 345.678 109.064 346.172 109.064C346.657 109.064 346.9 108.722 346.9 108.037C346.9 107.361 346.657 107.023 346.172 107.023Z" fill="#3C3C3C"/>
</g>
<path d="M17.1222 61H14.7142L9.26179 52.7612V61H6.85379V48.9772H9.26179L14.7142 57.2332V48.9772H17.1222V61ZM18.8826 56.2012C18.8826 55.238 19.0718 54.3837 19.4502 53.6384C19.8401 52.8931 20.3618 52.3197 21.0154 51.9184C21.6805 51.5171 22.4201 51.3164 23.2342 51.3164C23.9452 51.3164 24.5644 51.4597 25.0918 51.7464C25.6308 52.0331 26.0608 52.3943 26.3818 52.83V51.4712H28.807V61H26.3818V59.6068C26.0722 60.054 25.6422 60.4267 25.0918 60.7248C24.5529 61.0115 23.928 61.1548 23.217 61.1548C22.4144 61.1548 21.6805 60.9484 21.0154 60.5356C20.3618 60.1228 19.8401 59.5437 19.4502 58.7984C19.0718 58.0416 18.8826 57.1759 18.8826 56.2012ZM26.3818 56.2356C26.3818 55.6508 26.2672 55.152 26.0378 54.7392C25.8085 54.3149 25.4989 53.9939 25.109 53.776C24.7192 53.5467 24.3006 53.432 23.8534 53.432C23.4062 53.432 22.9934 53.5409 22.615 53.7588C22.2366 53.9767 21.927 54.2977 21.6862 54.722C21.4569 55.1348 21.3422 55.6279 21.3422 56.2012C21.3422 56.7745 21.4569 57.2791 21.6862 57.7148C21.927 58.1391 22.2366 58.4659 22.615 58.6952C23.0049 58.9245 23.4177 59.0392 23.8534 59.0392C24.3006 59.0392 24.7192 58.9303 25.109 58.7124C25.4989 58.4831 25.8085 58.162 26.0378 57.7492C26.2672 57.3249 26.3818 56.8204 26.3818 56.2356ZM42.9925 51.3336C44.1621 51.3336 45.1023 51.6948 45.8133 52.4172C46.5357 53.1281 46.8969 54.1257 46.8969 55.41V61H44.4889V55.7368C44.4889 54.9915 44.2997 54.4239 43.9213 54.034C43.5429 53.6327 43.0269 53.432 42.3733 53.432C41.7197 53.432 41.1979 53.6327 40.8081 54.034C40.4297 54.4239 40.2405 54.9915 40.2405 55.7368V61H37.8325V55.7368C37.8325 54.9915 37.6433 54.4239 37.2649 54.034C36.8865 53.6327 36.3705 53.432 35.7169 53.432C35.0518 53.432 34.5243 53.6327 34.1345 54.034C33.7561 54.4239 33.5669 54.9915 33.5669 55.7368V61H31.1589V51.4712H33.5669V52.6236C33.8765 52.2223 34.2721 51.9069 34.7537 51.6776C35.2467 51.4483 35.7857 51.3336 36.3705 51.3336C37.1158 51.3336 37.7809 51.4941 38.3657 51.8152C38.9505 52.1248 39.4034 52.572 39.7245 53.1568C40.0341 52.6064 40.4813 52.1649 41.0661 51.8324C41.6623 51.4999 42.3045 51.3336 42.9925 51.3336ZM58.0399 56.0292C58.0399 56.3732 58.017 56.6828 57.9711 56.958H51.0051C51.0625 57.646 51.3033 58.1849 51.7275 58.5748C52.1518 58.9647 52.6735 59.1596 53.2927 59.1596C54.1871 59.1596 54.8235 58.7755 55.2019 58.0072H57.7991C57.5239 58.9245 56.9965 59.6813 56.2167 60.2776C55.437 60.8624 54.4795 61.1548 53.3443 61.1548C52.427 61.1548 51.6014 60.9541 50.8675 60.5528C50.1451 60.14 49.5775 59.5609 49.1647 58.8156C48.7634 58.0703 48.5627 57.2103 48.5627 56.2356C48.5627 55.2495 48.7634 54.3837 49.1647 53.6384C49.5661 52.8931 50.1279 52.3197 50.8503 51.9184C51.5727 51.5171 52.4041 51.3164 53.3443 51.3164C54.2502 51.3164 55.0586 51.5113 55.7695 51.9012C56.4919 52.2911 57.0481 52.8472 57.4379 53.5696C57.8393 54.2805 58.0399 55.1004 58.0399 56.0292ZM55.5459 55.3412C55.5345 54.722 55.3109 54.2289 54.8751 53.862C54.4394 53.4836 53.9062 53.2944 53.2755 53.2944C52.6793 53.2944 52.1747 53.4779 51.7619 53.8448C51.3606 54.2003 51.1141 54.6991 51.0223 55.3412H55.5459Z" fill="#636363"/>
<g clip-path="url(#clip2_120_17945)">
<path d="M75.8666 64.7468C70.4837 64.7468 66.1199 60.383 66.1199 55.0001C66.1199 49.6171 70.4837 45.2534 75.8666 45.2534C81.2495 45.2534 85.6133 49.6171 85.6133 55.0001C85.6133 60.383 81.2495 64.7468 75.8666 64.7468Z" stroke="#5855FF" stroke-width="1.72" stroke-miterlimit="10" stroke-linecap="round" stroke-linejoin="round"/>
<path d="M72.4268 56.7197L75.8668 53.2797L79.3068 56.7197" stroke="#5855FF" stroke-width="1.72" stroke-linecap="round" stroke-linejoin="round"/>
</g>
<rect x="113.5" y="128" width="162" height="35" rx="17.5" fill="#5855FF"/>
<path d="M123.515 150.5L128.3 139.925H129.875L134.66 150.5H132.71L131.66 148.055H126.5L125.465 150.5H123.515ZM129.065 142.01L127.16 146.525H131L129.095 142.01H129.065ZM138.384 150.65C137.744 150.65 137.179 150.495 136.689 150.185C136.209 149.875 135.834 149.435 135.564 148.865C135.294 148.285 135.159 147.605 135.159 146.825C135.159 146.035 135.294 145.36 135.564 144.8C135.834 144.23 136.209 143.79 136.689 143.48C137.179 143.17 137.744 143.015 138.384 143.015C138.904 143.015 139.374 143.13 139.794 143.36C140.214 143.59 140.529 143.895 140.739 144.275V139.925H142.614V150.5H140.784V149.285C140.584 149.705 140.269 150.04 139.839 150.29C139.409 150.53 138.924 150.65 138.384 150.65ZM138.909 149.225C139.469 149.225 139.919 149.025 140.259 148.625C140.599 148.215 140.769 147.615 140.769 146.825C140.769 146.025 140.599 145.43 140.259 145.04C139.919 144.64 139.469 144.44 138.909 144.44C138.349 144.44 137.899 144.64 137.559 145.04C137.219 145.43 137.049 146.025 137.049 146.825C137.049 147.615 137.219 148.215 137.559 148.625C137.899 149.025 138.349 149.225 138.909 149.225ZM146.718 150.5L143.538 143.165H145.533L147.573 148.295L149.688 143.165H151.563L148.338 150.5H146.718ZM154.737 150.65C154.207 150.65 153.732 150.55 153.312 150.35C152.902 150.14 152.577 149.86 152.337 149.51C152.107 149.16 151.992 148.765 151.992 148.325C151.992 147.785 152.132 147.36 152.412 147.05C152.692 146.73 153.147 146.5 153.777 146.36C154.407 146.22 155.252 146.15 156.312 146.15H156.837V145.835C156.837 145.335 156.727 144.975 156.507 144.755C156.287 144.535 155.917 144.425 155.397 144.425C154.987 144.425 154.567 144.49 154.137 144.62C153.707 144.74 153.272 144.93 152.832 145.19L152.292 143.915C152.552 143.735 152.857 143.58 153.207 143.45C153.567 143.31 153.942 143.205 154.332 143.135C154.732 143.055 155.107 143.015 155.457 143.015C156.527 143.015 157.322 143.265 157.842 143.765C158.362 144.255 158.622 145.02 158.622 146.06V150.5H156.867V149.33C156.697 149.74 156.427 150.065 156.057 150.305C155.687 150.535 155.247 150.65 154.737 150.65ZM155.127 149.36C155.617 149.36 156.022 149.19 156.342 148.85C156.672 148.51 156.837 148.08 156.837 147.56V147.23H156.327C155.387 147.23 154.732 147.305 154.362 147.455C154.002 147.595 153.822 147.855 153.822 148.235C153.822 148.565 153.937 148.835 154.167 149.045C154.397 149.255 154.717 149.36 155.127 149.36ZM160.525 150.5V143.165H162.355V144.305C162.605 143.885 162.94 143.565 163.36 143.345C163.79 143.125 164.27 143.015 164.8 143.015C166.53 143.015 167.395 144.02 167.395 146.03V150.5H165.52V146.12C165.52 145.55 165.41 145.135 165.19 144.875C164.98 144.615 164.65 144.485 164.2 144.485C163.65 144.485 163.21 144.66 162.88 145.01C162.56 145.35 162.4 145.805 162.4 146.375V150.5H160.525ZM172.689 150.65C171.919 150.65 171.249 150.495 170.679 150.185C170.109 149.865 169.669 149.415 169.359 148.835C169.049 148.255 168.894 147.575 168.894 146.795C168.894 146.015 169.049 145.345 169.359 144.785C169.669 144.215 170.109 143.78 170.679 143.48C171.249 143.17 171.919 143.015 172.689 143.015C173.159 143.015 173.624 143.09 174.084 143.24C174.544 143.39 174.924 143.6 175.224 143.87L174.669 145.175C174.409 144.945 174.114 144.77 173.784 144.65C173.464 144.53 173.154 144.47 172.854 144.47C172.204 144.47 171.699 144.675 171.339 145.085C170.989 145.485 170.814 146.06 170.814 146.81C170.814 147.55 170.989 148.135 171.339 148.565C171.699 148.985 172.204 149.195 172.854 149.195C173.144 149.195 173.454 149.135 173.784 149.015C174.114 148.895 174.409 148.715 174.669 148.475L175.224 149.795C174.924 150.055 174.539 150.265 174.069 150.425C173.609 150.575 173.149 150.65 172.689 150.65ZM179.843 150.65C179.013 150.65 178.298 150.495 177.698 150.185C177.098 149.875 176.633 149.435 176.303 148.865C175.983 148.295 175.823 147.62 175.823 146.84C175.823 146.08 175.978 145.415 176.288 144.845C176.608 144.275 177.043 143.83 177.593 143.51C178.153 143.18 178.788 143.015 179.498 143.015C180.538 143.015 181.358 143.345 181.958 144.005C182.568 144.665 182.873 145.565 182.873 146.705V147.26H177.623C177.763 148.57 178.513 149.225 179.873 149.225C180.283 149.225 180.693 149.165 181.103 149.045C181.513 148.915 181.888 148.715 182.228 148.445L182.753 149.705C182.403 149.995 181.963 150.225 181.433 150.395C180.903 150.565 180.373 150.65 179.843 150.65ZM179.573 144.29C179.023 144.29 178.578 144.46 178.238 144.8C177.898 145.14 177.693 145.6 177.623 146.18H181.313C181.273 145.57 181.103 145.105 180.803 144.785C180.513 144.455 180.103 144.29 179.573 144.29ZM187.178 150.65C186.538 150.65 185.973 150.495 185.483 150.185C185.003 149.875 184.628 149.435 184.358 148.865C184.088 148.285 183.953 147.605 183.953 146.825C183.953 146.035 184.088 145.36 184.358 144.8C184.628 144.23 185.003 143.79 185.483 143.48C185.973 143.17 186.538 143.015 187.178 143.015C187.698 143.015 188.168 143.13 188.588 143.36C189.008 143.59 189.323 143.895 189.533 144.275V139.925H191.408V150.5H189.578V149.285C189.378 149.705 189.063 150.04 188.633 150.29C188.203 150.53 187.718 150.65 187.178 150.65ZM187.703 149.225C188.263 149.225 188.713 149.025 189.053 148.625C189.393 148.215 189.563 147.615 189.563 146.825C189.563 146.025 189.393 145.43 189.053 145.04C188.713 144.64 188.263 144.44 187.703 144.44C187.143 144.44 186.693 144.64 186.353 145.04C186.013 145.43 185.843 146.025 185.843 146.825C185.843 147.615 186.013 148.215 186.353 148.625C186.693 149.025 187.143 149.225 187.703 149.225ZM200.478 150.5L205.263 139.925H206.838L211.623 150.5H209.673L208.623 148.055H203.463L202.428 150.5H200.478ZM206.028 142.01L204.123 146.525H207.963L206.058 142.01H206.028ZM212.6 150.5V143.165H214.43V144.305C214.68 143.885 215.015 143.565 215.435 143.345C215.865 143.125 216.345 143.015 216.875 143.015C218.605 143.015 219.47 144.02 219.47 146.03V150.5H217.595V146.12C217.595 145.55 217.485 145.135 217.265 144.875C217.055 144.615 216.725 144.485 216.275 144.485C215.725 144.485 215.285 144.66 214.955 145.01C214.635 145.35 214.475 145.805 214.475 146.375V150.5H212.6ZM223.789 150.65C223.259 150.65 222.784 150.55 222.364 150.35C221.954 150.14 221.629 149.86 221.389 149.51C221.159 149.16 221.044 148.765 221.044 148.325C221.044 147.785 221.184 147.36 221.464 147.05C221.744 146.73 222.199 146.5 222.829 146.36C223.459 146.22 224.304 146.15 225.364 146.15H225.889V145.835C225.889 145.335 225.779 144.975 225.559 144.755C225.339 144.535 224.969 144.425 224.449 144.425C224.039 144.425 223.619 144.49 223.189 144.62C222.759 144.74 222.324 144.93 221.884 145.19L221.344 143.915C221.604 143.735 221.909 143.58 222.259 143.45C222.619 143.31 222.994 143.205 223.384 143.135C223.784 143.055 224.159 143.015 224.509 143.015C225.579 143.015 226.374 143.265 226.894 143.765C227.414 144.255 227.674 145.02 227.674 146.06V150.5H225.919V149.33C225.749 149.74 225.479 150.065 225.109 150.305C224.739 150.535 224.299 150.65 223.789 150.65ZM224.179 149.36C224.669 149.36 225.074 149.19 225.394 148.85C225.724 148.51 225.889 148.08 225.889 147.56V147.23H225.379C224.439 147.23 223.784 147.305 223.414 147.455C223.054 147.595 222.874 147.855 222.874 148.235C222.874 148.565 222.989 148.835 223.219 149.045C223.449 149.255 223.769 149.36 224.179 149.36ZM232.128 150.65C231.258 150.65 230.613 150.415 230.193 149.945C229.783 149.465 229.578 148.765 229.578 147.845V139.925H231.453V147.755C231.453 148.655 231.833 149.105 232.593 149.105C232.703 149.105 232.813 149.1 232.923 149.09C233.033 149.08 233.138 149.06 233.238 149.03L233.208 150.515C232.848 150.605 232.488 150.65 232.128 150.65ZM234.837 153.2L236.187 150.2L233.142 143.165H235.137L237.192 148.295L239.292 143.165H241.182L236.772 153.2H234.837ZM245.652 150.65C243.712 150.65 242.742 149.69 242.742 147.77V144.575H241.332V143.165H242.742V140.975H244.617V143.165H246.837V144.575H244.617V147.665C244.617 148.145 244.722 148.505 244.932 148.745C245.142 148.985 245.482 149.105 245.952 149.105C246.092 149.105 246.237 149.09 246.387 149.06C246.537 149.02 246.692 148.98 246.852 148.94L247.137 150.32C246.957 150.42 246.727 150.5 246.447 150.56C246.177 150.62 245.912 150.65 245.652 150.65ZM247.929 141.59V139.76H250.029V141.59H247.929ZM248.049 150.5V143.165H249.924V150.5H248.049ZM255.262 150.65C254.492 150.65 253.822 150.495 253.252 150.185C252.682 149.865 252.242 149.415 251.932 148.835C251.622 148.255 251.467 147.575 251.467 146.795C251.467 146.015 251.622 145.345 251.932 144.785C252.242 144.215 252.682 143.78 253.252 143.48C253.822 143.17 254.492 143.015 255.262 143.015C255.732 143.015 256.197 143.09 256.657 143.24C257.117 143.39 257.497 143.6 257.797 143.87L257.242 145.175C256.982 144.945 256.687 144.77 256.357 144.65C256.037 144.53 255.727 144.47 255.427 144.47C254.777 144.47 254.272 144.675 253.912 145.085C253.562 145.485 253.387 146.06 253.387 146.81C253.387 147.55 253.562 148.135 253.912 148.565C254.272 148.985 254.777 149.195 255.427 149.195C255.717 149.195 256.027 149.135 256.357 149.015C256.687 148.895 256.982 148.715 257.242 148.475L257.797 149.795C257.497 150.055 257.112 150.265 256.642 150.425C256.182 150.575 255.722 150.65 255.262 150.65ZM261.633 150.65C261.013 150.65 260.433 150.575 259.893 150.425C259.353 150.275 258.903 150.06 258.543 149.78L259.023 148.55C259.393 148.8 259.808 148.995 260.268 149.135C260.728 149.265 261.188 149.33 261.648 149.33C262.128 149.33 262.483 149.25 262.713 149.09C262.953 148.92 263.073 148.7 263.073 148.43C263.073 148.01 262.763 147.74 262.143 147.62L260.643 147.335C259.373 147.095 258.738 146.435 258.738 145.355C258.738 144.875 258.868 144.46 259.128 144.11C259.398 143.76 259.768 143.49 260.238 143.3C260.708 143.11 261.248 143.015 261.858 143.015C262.378 143.015 262.878 143.09 263.358 143.24C263.838 143.38 264.248 143.595 264.588 143.885L264.078 145.115C263.788 144.875 263.438 144.685 263.028 144.545C262.628 144.405 262.243 144.335 261.873 144.335C261.383 144.335 261.018 144.42 260.778 144.59C260.548 144.76 260.433 144.985 260.433 145.265C260.433 145.705 260.718 145.975 261.288 146.075L262.788 146.36C263.438 146.48 263.928 146.7 264.258 147.02C264.598 147.34 264.768 147.77 264.768 148.31C264.768 149.04 264.483 149.615 263.913 150.035C263.343 150.445 262.583 150.65 261.633 150.65Z" fill="white"/>
<rect x="158.25" y="0.75" width="65.5" height="33.5" rx="16.75" fill="url(#paint6_linear_120_17945)" fill-opacity="0.3"/>
<rect x="158.25" y="0.75" width="65.5" height="33.5" rx="16.75" stroke="#C27EFF" stroke-width="1.5"/>
<path d="M171.896 9.73354C172.116 9.60565 172.227 9.54171 172.343 9.51664C172.447 9.49445 172.553 9.49445 172.657 9.51664C172.773 9.54171 172.884 9.60565 173.104 9.73354L178.86 13.0705C179.093 13.2055 179.209 13.2731 179.294 13.3691C179.369 13.4541 179.426 13.5548 179.461 13.6645C179.5 13.7886 179.5 13.9276 179.5 14.2057V20.7943C179.5 21.0724 179.5 21.2114 179.461 21.3355C179.426 21.4452 179.369 21.5459 179.294 21.6309C179.209 21.7269 179.093 21.7945 178.86 21.9295L173.104 25.2665C172.884 25.3943 172.773 25.4583 172.657 25.4834C172.553 25.5055 172.447 25.5055 172.343 25.4834C172.227 25.4583 172.116 25.3943 171.896 25.2665L166.14 21.9295C165.907 21.7945 165.791 21.7269 165.706 21.6309C165.631 21.5459 165.574 21.4452 165.539 21.3355C165.5 21.2114 165.5 21.0724 165.5 20.7943V14.2057C165.5 13.9276 165.5 13.7886 165.539 13.6645C165.574 13.5548 165.631 13.4541 165.706 13.3691C165.791 13.2731 165.907 13.2055 166.14 13.0705L171.896 9.73354Z" fill="url(#paint7_linear_120_17945)"/>
<path d="M172.5 9.78899V17.5M172.5 17.5L179.111 13.667M172.5 17.5L165.889 13.667M172.5 17.5V25.211M179.111 21.333L173.104 17.8504C172.884 17.7225 172.773 17.6586 172.657 17.6335C172.553 17.6113 172.447 17.6113 172.343 17.6335C172.227 17.6586 172.116 17.7225 171.896 17.8504L165.889 21.333M179.5 20.7943V14.2057C179.5 13.9276 179.5 13.7886 179.461 13.6645C179.426 13.5548 179.369 13.4541 179.294 13.3691C179.209 13.2731 179.093 13.2055 178.86 13.0705L173.104 9.73354C172.884 9.60565 172.773 9.54171 172.657 9.51664C172.553 9.49445 172.447 9.49445 172.343 9.51664C172.227 9.54171 172.116 9.60565 171.896 9.73354L166.14 13.0705C165.907 13.2055 165.791 13.2731 165.706 13.3691C165.631 13.4541 165.574 13.5548 165.539 13.6645C165.5 13.7886 165.5 13.9276 165.5 14.2057V20.7943C165.5 21.0724 165.5 21.2114 165.539 21.3355C165.574 21.4452 165.631 21.5459 165.706 21.6309C165.791 21.7269 165.907 21.7945 166.14 21.9295L171.896 25.2665C172.116 25.3943 172.227 25.4583 172.343 25.4834C172.447 25.5055 172.553 25.5055 172.657 25.4834C172.773 25.4583 172.884 25.3943 173.104 25.2665L178.86 21.9295C179.093 21.7945 179.209 21.7269 179.294 21.6309C179.369 21.5459 179.426 21.4452 179.461 21.3355C179.5 21.2114 179.5 21.0724 179.5 20.7943Z" stroke="#3C3C3C" stroke-width="1.2" stroke-linecap="round" stroke-linejoin="round"/>
<path d="M186.655 22.5V11.925H191.245C192.405 11.925 193.3 12.215 193.93 12.795C194.56 13.375 194.875 14.185 194.875 15.225C194.875 16.265 194.56 17.08 193.93 17.67C193.3 18.25 192.405 18.54 191.245 18.54H188.575V22.5H186.655ZM188.575 17.025H190.945C192.325 17.025 193.015 16.425 193.015 15.225C193.015 14.035 192.325 13.44 190.945 13.44H188.575V17.025ZM196.44 22.5V11.925H201.03C202.19 11.925 203.085 12.205 203.715 12.765C204.345 13.315 204.66 14.09 204.66 15.09C204.66 15.88 204.455 16.535 204.045 17.055C203.635 17.565 203.045 17.91 202.275 18.09C202.785 18.25 203.205 18.635 203.535 19.245L205.305 22.5H203.19L201.36 19.125C201.18 18.795 200.965 18.57 200.715 18.45C200.475 18.33 200.165 18.27 199.785 18.27H198.36V22.5H196.44ZM198.36 16.845H200.7C202.1 16.845 202.8 16.275 202.8 15.135C202.8 14.005 202.1 13.44 200.7 13.44H198.36V16.845ZM211.39 22.65C210.37 22.65 209.475 22.425 208.705 21.975C207.945 21.525 207.355 20.895 206.935 20.085C206.515 19.265 206.305 18.305 206.305 17.205C206.305 16.095 206.515 15.135 206.935 14.325C207.355 13.515 207.945 12.89 208.705 12.45C209.465 12 210.36 11.775 211.39 11.775C212.42 11.775 213.315 12 214.075 12.45C214.835 12.89 215.425 13.515 215.845 14.325C216.265 15.135 216.475 16.09 216.475 17.19C216.475 18.3 216.265 19.265 215.845 20.085C215.425 20.895 214.835 21.525 214.075 21.975C213.315 22.425 212.42 22.65 211.39 22.65ZM211.39 21C212.36 21 213.115 20.665 213.655 19.995C214.195 19.325 214.465 18.395 214.465 17.205C214.465 16.005 214.195 15.075 213.655 14.415C213.125 13.755 212.37 13.425 211.39 13.425C210.42 13.425 209.665 13.755 209.125 14.415C208.585 15.075 208.315 16.005 208.315 17.205C208.315 18.395 208.585 19.325 209.125 19.995C209.665 20.665 210.42 21 211.39 21Z" fill="#3C3C3C"/>
<defs>
<linearGradient id="paint0_linear_120_17945" x1="44.6718" y1="99.7925" x2="38.5327" y2="111.45" gradientUnits="userSpaceOnUse">
<stop stop-color="#00FFA3"/>
<stop offset="1" stop-color="#DC1FFF"/>
</linearGradient>
<linearGradient id="paint1_linear_120_17945" x1="42.0235" y1="98.3979" x2="35.8845" y2="110.056" gradientUnits="userSpaceOnUse">
<stop stop-color="#00FFA3"/>
<stop offset="1" stop-color="#DC1FFF"/>
</linearGradient>
<linearGradient id="paint2_linear_120_17945" x1="43.3392" y1="99.0907" x2="37.2002" y2="110.748" gradientUnits="userSpaceOnUse">
<stop stop-color="#00FFA3"/>
<stop offset="1" stop-color="#DC1FFF"/>
</linearGradient>
<linearGradient id="paint3_linear_120_17945" x1="217.5" y1="97.5" x2="217.5" y2="112.5" gradientUnits="userSpaceOnUse">
<stop stop-color="#FDD31A"/>
<stop offset="1" stop-color="#B75910"/>
</linearGradient>
<linearGradient id="paint4_linear_120_17945" x1="304.5" y1="102.7" x2="359.278" y2="118.858" gradientUnits="userSpaceOnUse">
<stop stop-color="#F7931A"/>
<stop offset="1" stop-color="#AC1CC7"/>
</linearGradient>
<linearGradient id="paint5_linear_120_17945" x1="304.5" y1="102.7" x2="359.278" y2="118.858" gradientUnits="userSpaceOnUse">
<stop stop-color="#F7931A"/>
<stop offset="1" stop-color="#AC1CC7"/>
</linearGradient>
<linearGradient id="paint6_linear_120_17945" x1="218" y1="30.9167" x2="173.33" y2="-6.92895" gradientUnits="userSpaceOnUse">
<stop stop-color="#5855FF"/>
<stop offset="1" stop-color="#E036FF"/>
</linearGradient>
<linearGradient id="paint7_linear_120_17945" x1="179.5" y1="25.5" x2="161.911" y2="18.4341" gradientUnits="userSpaceOnUse">
<stop stop-color="#5855FF"/>
<stop offset="1" stop-color="#E036FF"/>
</linearGradient>
<clipPath id="clip0_120_17945">
<rect width="20" height="20" fill="white" transform="translate(207.5 95)"/>
</clipPath>
<clipPath id="clip1_120_17945">
<rect width="66" height="23" fill="white" transform="translate(304.5 93.5)"/>
</clipPath>
<clipPath id="clip2_120_17945">
<rect width="22.9333" height="22.9333" fill="white" transform="matrix(-1 0 0 1 87.333 43.5332)"/>
</clipPath>
</defs>
</svg>
