<svg width="13" height="18" viewBox="0 0 13 18" fill="none" xmlns="http://www.w3.org/2000/svg">
    <path fill-rule="evenodd" clip-rule="evenodd" d="m3.387.575.785 5.2a1 1 0 0 0 .988.852h2.28a1 1 0 0 0 .988-.851L9.213.575A.5.5 0 0 0 8.72 0H3.88a.5.5 0 0 0-.494.575zM2.3 3.892l.836 4.066a1 1 0 0 0 .98.799H8.47a1 1 0 0 0 .983-.817l.847-4.535A6.501 6.501 0 0 1 13 8.68v4.705A4.615 4.615 0 0 1 8.385 18H4.408A4.408 4.408 0 0 1 0 13.592V8.075C0 6.38.868 4.801 2.3 3.892zM11 11.5a1.5 1.5 0 1 1-3 0 1.5 1.5 0 0 1 3 0zM3.5 13a1.5 1.5 0 1 0 0-3 1.5 1.5 0 0 0 0 3z" fill="#fff"/>
</svg>
