<svg width="16" height="20" viewBox="0 0 16 20" fill="none" xmlns="http://www.w3.org/2000/svg">
<g id="Pyth Logomark_Dark 1" clip-path="url(#clip0_18178_1469)">
<path id="Vector" d="M9.99988 7.99986C9.99988 9.10435 9.10435 9.99989 7.99988 9.99989V11.9999C10.2088 11.9999 11.9999 10.2088 11.9999 7.99986C11.9999 5.79089 10.2088 3.99982 7.99988 3.99982C7.2717 3.99982 6.58785 4.19431 5.99988 4.53533C4.80404 5.22642 3.99988 6.51907 3.99988 7.99986V18L5.79816 19.7982L5.99988 20V7.99986C5.99988 6.89537 6.8954 5.99984 7.99988 5.99984C9.10435 5.99984 9.99988 6.89537 9.99988 7.99986Z" fill="#AEA0B9"/>
<path id="Vector_2" d="M8 0C6.54273 0 5.17684 0.389872 4 1.07102C3.24649 1.50612 2.57169 2.06062 2 2.70921C0.755314 4.11944 0 5.97202 0 8.00008V14.0001L2 16.0001V8.00008C2 6.2235 2.7725 4.62692 4 3.52786C4.57712 3.01224 5.25464 2.60518 6 2.34286C6.62506 2.12033 7.29897 2.00003 8 2.00003C11.3134 2.00003 14 4.68662 14 8.00008C14 11.3136 11.3134 14.0001 8 14.0001V16.0001C12.4188 16.0001 16 12.418 16 8.00008C16 3.58213 12.4188 0 8 0Z" fill="#AEA0B9"/>
</g>
<defs>
<clipPath id="clip0_18178_1469">
<rect width="16" height="20" fill="white"/>
</clipPath>
</defs>
</svg>
