<svg width="30" height="30" viewBox="0 0 30 30" fill="none" xmlns="http://www.w3.org/2000/svg">
<circle cx="15" cy="15" r="15" fill="#A934FF"/>
<path d="M13.9722 16.1865C13.9722 15.8165 14.0322 15.4915 14.1522 15.2115C14.2722 14.9315 14.4272 14.6815 14.6172 14.4615C14.8072 14.2415 15.0072 14.0365 15.2172 13.8465C15.4372 13.6565 15.6422 13.4715 15.8322 13.2915C16.0222 13.1115 16.1772 12.9215 16.2972 12.7215C16.4172 12.5215 16.4772 12.2965 16.4772 12.0465C16.4772 11.6265 16.3072 11.2865 15.9672 11.0265C15.6272 10.7665 15.1722 10.6365 14.6022 10.6365C14.0522 10.6365 13.5722 10.7365 13.1622 10.9365C12.7622 11.1365 12.4272 11.4215 12.1572 11.7915L10.7022 10.8465C11.1222 10.2765 11.6722 9.8315 12.3522 9.5115C13.0322 9.1815 13.8372 9.0165 14.7672 9.0165C15.4972 9.0165 16.1372 9.1265 16.6872 9.3465C17.2372 9.5565 17.6672 9.8665 17.9772 10.2765C18.2872 10.6765 18.4422 11.1665 18.4422 11.7465C18.4422 12.1465 18.3772 12.4965 18.2472 12.7965C18.1272 13.0965 17.9672 13.3615 17.7672 13.5915C17.5772 13.8115 17.3722 14.0215 17.1522 14.2215C16.9322 14.4115 16.7222 14.6015 16.5222 14.7915C16.3322 14.9815 16.1772 15.1865 16.0572 15.4065C15.9372 15.6265 15.8772 15.8865 15.8772 16.1865H13.9722ZM14.9322 19.7715C14.5822 19.7715 14.2922 19.6565 14.0622 19.4265C13.8422 19.1965 13.7322 18.9215 13.7322 18.6015C13.7322 18.2815 13.8422 18.0115 14.0622 17.7915C14.2922 17.5615 14.5822 17.4465 14.9322 17.4465C15.2822 17.4465 15.5672 17.5615 15.7872 17.7915C16.0072 18.0115 16.1172 18.2815 16.1172 18.6015C16.1172 18.9215 16.0072 19.1965 15.7872 19.4265C15.5672 19.6565 15.2822 19.7715 14.9322 19.7715Z" fill="white"/>
</svg>
