<svg width="31" height="31" viewBox="0 0 31 31" fill="none" xmlns="http://www.w3.org/2000/svg">
<circle cx="15.5" cy="15.5" r="15.5" fill="url(#paint0_linear_328_13561)"/>
<path d="M14.4719 16.4087C14.4719 16.0387 14.5319 15.7137 14.6519 15.4337C14.7719 15.1537 14.9269 14.9037 15.1169 14.6837C15.3069 14.4637 15.5069 14.2587 15.7169 14.0687C15.9369 13.8787 16.1419 13.6937 16.3319 13.5137C16.5219 13.3337 16.6769 13.1437 16.7969 12.9437C16.9169 12.7437 16.9769 12.5187 16.9769 12.2687C16.9769 11.8487 16.8069 11.5087 16.4669 11.2487C16.1269 10.9887 15.6719 10.8587 15.1019 10.8587C14.5519 10.8587 14.0719 10.9587 13.6619 11.1587C13.2619 11.3587 12.9269 11.6437 12.6569 12.0137L11.2019 11.0687C11.6219 10.4987 12.1719 10.0537 12.8519 9.73367C13.5319 9.40367 14.3369 9.23867 15.2669 9.23867C15.9969 9.23867 16.6369 9.34867 17.1869 9.56867C17.7369 9.77867 18.1669 10.0887 18.4769 10.4987C18.7869 10.8987 18.9419 11.3887 18.9419 11.9687C18.9419 12.3687 18.8769 12.7187 18.7469 13.0187C18.6269 13.3187 18.4669 13.5837 18.2669 13.8137C18.0769 14.0337 17.8719 14.2437 17.6519 14.4437C17.4319 14.6337 17.2219 14.8237 17.0219 15.0137C16.8319 15.2037 16.6769 15.4087 16.5569 15.6287C16.4369 15.8487 16.3769 16.1087 16.3769 16.4087H14.4719ZM15.4319 19.9937C15.0819 19.9937 14.7919 19.8787 14.5619 19.6487C14.3419 19.4187 14.2319 19.1437 14.2319 18.8237C14.2319 18.5037 14.3419 18.2337 14.5619 18.0137C14.7919 17.7837 15.0819 17.6687 15.4319 17.6687C15.7819 17.6687 16.0669 17.7837 16.2869 18.0137C16.5069 18.2337 16.6169 18.5037 16.6169 18.8237C16.6169 19.1437 16.5069 19.4187 16.2869 19.6487C16.0669 19.8787 15.7819 19.9937 15.4319 19.9937Z" fill="white"/>
<defs>
<linearGradient id="paint0_linear_328_13561" x1="-6.92904e-08" y1="12.4" x2="31.9313" y2="16.2006" gradientUnits="userSpaceOnUse">
<stop stop-color="#5855FF"/>
<stop offset="1" stop-color="#DC1FFF"/>
</linearGradient>
</defs>
</svg>
