<svg width="89" height="98" viewBox="0 0 89 98" fill="none" xmlns="http://www.w3.org/2000/svg">
<g id="Rewards program">
<g id="Refer">
<path id="Vector" d="M89 68.404V29.596C88.9982 27.8946 88.5405 26.2237 87.6726 24.7507C86.8048 23.2777 85.5574 22.0545 84.0556 21.2038L49.4444 1.79982C47.9411 0.948292 46.2359 0.5 44.5 0.5C42.7641 0.5 41.0589 0.948292 39.5556 1.79982L4.94444 21.2038C3.44263 22.0545 2.19524 23.2777 1.32739 24.7507C0.45955 26.2237 0.00177872 27.8946 0 29.596V68.404C0.00177872 70.1053 0.45955 71.7763 1.32739 73.2493C2.19524 74.7223 3.44263 75.9455 4.94444 76.7962L39.5556 96.2002C41.0589 97.0517 42.7641 97.5 44.5 97.5C46.2359 97.5 47.9411 97.0517 49.4444 96.2002L84.0556 76.7962C85.5574 75.9455 86.8048 74.7223 87.6726 73.2493C88.5405 71.7763 88.9982 70.1053 89 68.404Z" fill="#F7F0FD"/>
<g id="Rewards">
<g id="Group 27524">
<path id="Vector_2" d="M77.3787 63.6141V63.6137V34.3869V34.3866C77.3773 33.0446 77.0269 31.7264 76.3622 30.5641C75.6975 29.4018 74.7419 28.4361 73.5908 27.7644L73.5894 27.7636L48.2904 13.151C48.2902 13.1508 48.2899 13.1507 48.2897 13.1505C47.1376 12.4784 45.8305 12.1244 44.4997 12.1244C43.1688 12.1244 41.8617 12.4784 40.7095 13.1506C40.7093 13.1508 40.7091 13.1509 40.7089 13.151L15.41 27.7636L15.4086 27.7644C14.2575 28.4361 13.3019 29.4018 12.6372 30.5641C11.9725 31.7264 11.6221 33.0446 11.6207 34.3866V34.3869L11.6207 63.6137L11.6207 63.6141C11.6221 64.9561 11.9725 66.2743 12.6372 67.4366C13.3019 68.5989 14.2575 69.5645 15.4086 70.2363L15.41 70.2371L40.7089 84.8497C40.7091 84.8498 40.7092 84.8499 40.7094 84.8499C41.8616 85.5222 43.1688 85.8763 44.4997 85.8763C45.8305 85.8763 47.1377 85.5223 48.2898 84.85C48.29 84.8499 48.2902 84.8498 48.2904 84.8497L73.5894 70.2371L73.5908 70.2363C74.7419 69.5645 75.6975 68.5989 76.3622 67.4366C77.0269 66.2743 77.3773 64.9561 77.3787 63.6141Z" fill="url(#paint0_linear_1351_45711)" stroke="white" stroke-width="0.7" stroke-linecap="round" stroke-linejoin="round"/>
<path id="Vector (Stroke)" fill-rule="evenodd" clip-rule="evenodd" d="M40.3992 12.61C41.6456 11.883 43.0599 11.5 44.5 11.5C45.94 11.5 47.3543 11.883 48.6006 12.6099C48.6013 12.6103 48.602 12.6106 48.6026 12.611L73.9029 27.2244C75.1485 27.9513 76.1822 28.996 76.901 30.2529C77.6197 31.5097 77.9985 32.9349 78 34.3856V63.6144C77.9985 65.0651 77.6197 66.4903 76.901 67.7471C76.1822 69.004 75.1485 70.0487 73.9029 70.7756L73.8992 70.7778L48.6026 85.389C48.6022 85.3892 48.6017 85.3895 48.6013 85.3898C47.3547 86.1169 45.9403 86.5 44.5 86.5C43.0597 86.5 41.6451 86.1169 40.3985 85.3896C40.3982 85.3894 40.3978 85.3892 40.3974 85.389L15.1008 70.7778L15.0971 70.7756C13.8515 70.0487 12.8178 69.004 12.099 67.7471C11.3803 66.4903 11.0015 65.0651 11 63.6144V34.3856C11.0015 32.9349 11.3803 31.5097 12.099 30.2529C12.8178 28.996 13.8515 27.9513 15.0971 27.2244L15.1008 27.2222L40.3974 12.611C40.398 12.6107 40.3986 12.6103 40.3992 12.61ZM44.5 13.4481C43.403 13.4481 42.3249 13.7399 41.374 14.2948L41.3702 14.297L16.0736 28.9082C16.073 28.9086 16.0724 28.909 16.0718 28.9093C15.1226 29.4637 14.3332 30.261 13.7836 31.2222C13.2337 32.1838 12.9432 33.2753 12.942 34.3871V63.6129C12.9432 64.7247 13.2337 65.8161 13.7836 66.7778C14.3332 67.739 15.1226 68.5363 16.0718 69.0907C16.0724 69.091 16.073 69.0914 16.0736 69.0918L41.374 83.7051C42.3249 84.2601 43.403 84.5519 44.5 84.5519C45.597 84.5519 46.6751 84.2601 47.626 83.7051L47.6298 83.703L72.9264 69.0918C72.927 69.0914 72.9276 69.091 72.9282 69.0907C73.8774 68.5363 74.6668 67.739 75.2164 66.7778C75.7664 65.816 76.0568 64.7243 76.058 63.6124V34.3876C76.0568 33.2757 75.7664 32.184 75.2164 31.2222C74.6668 30.261 73.8774 29.4637 72.9282 28.9093C72.9276 28.909 72.927 28.9086 72.9264 28.9082L47.6298 14.297L47.626 14.2948C46.6751 13.7399 45.597 13.4481 44.5 13.4481Z" fill="#3C3C3C"/>
<g id="Mask group">
<g id="Star 1" filter="url(#filter0_d_1351_45711)">
<path d="M43.7898 36.9398C44.0817 36.3534 44.9183 36.3534 45.2102 36.9398L45.9001 38.3257C47.9002 42.3438 51.1562 45.5998 55.1743 47.5999L56.5602 48.2898C57.1466 48.5817 57.1466 49.4183 56.5602 49.7102L55.1743 50.4001C51.1562 52.4002 47.9002 55.6562 45.9001 59.6743L45.2102 61.0602C44.9183 61.6466 44.0817 61.6466 43.7898 61.0602L43.0999 59.6743C41.0998 55.6562 37.8438 52.4002 33.8257 50.4001L32.4398 49.7102C31.8534 49.4183 31.8534 48.5817 32.4398 48.2898L33.8257 47.5999C37.8438 45.5998 41.0998 42.3438 43.0999 38.3257L43.7898 36.9398Z" fill="url(#paint1_linear_1351_45711)"/>
<path d="M45.2734 38.6377L45.8702 38.3406L45.2734 38.6377C47.3414 42.7921 50.7079 46.1586 54.8623 48.2266L56.2482 48.9164C56.272 48.9282 56.2818 48.9404 56.2874 48.9499C56.2945 48.9619 56.3 48.9792 56.3 49C56.3 49.0208 56.2945 49.0381 56.2874 49.0501C56.2818 49.0596 56.272 49.0718 56.2482 49.0836L54.8623 49.7734C50.7079 51.8414 47.3414 55.2079 45.2734 59.3623L44.5836 60.7482C44.5718 60.772 44.5596 60.7818 44.5501 60.7874C44.5381 60.7945 44.5208 60.8 44.5 60.8C44.4792 60.8 44.4619 60.7945 44.4499 60.7874C44.4404 60.7818 44.4282 60.772 44.4164 60.7482L43.7266 59.3623C41.6586 55.2079 38.2921 51.8414 34.1377 49.7734L33.8602 50.3307L34.1377 49.7734L32.7518 49.0836C32.728 49.0718 32.7182 49.0596 32.7126 49.0501C32.7055 49.0381 32.7 49.0208 32.7 49C32.7 48.9792 32.7055 48.9619 32.7126 48.9499C32.7182 48.9404 32.728 48.9282 32.7518 48.9164L34.1377 48.2266C38.2921 46.1586 41.6586 42.7921 43.7266 38.6377L44.4164 37.2518C44.4282 37.228 44.4404 37.2182 44.4499 37.2126C44.4619 37.2055 44.4792 37.2 44.5 37.2C44.5208 37.2 44.5381 37.2055 44.5501 37.2126C44.5596 37.2182 44.5718 37.228 44.5836 37.2518L45.2734 38.6377Z" stroke="white" stroke-width="1.4"/>
</g>
</g>
</g>
</g>
</g>
</g>
<defs>
<filter id="filter0_d_1351_45711" x="26" y="34.5" width="37" height="37" filterUnits="userSpaceOnUse" color-interpolation-filters="sRGB">
<feFlood flood-opacity="0" result="BackgroundImageFix"/>
<feColorMatrix in="SourceAlpha" type="matrix" values="0 0 0 0 0 0 0 0 0 0 0 0 0 0 0 0 0 0 127 0" result="hardAlpha"/>
<feOffset dy="4"/>
<feGaussianBlur stdDeviation="3"/>
<feComposite in2="hardAlpha" operator="out"/>
<feColorMatrix type="matrix" values="0 0 0 0 0.6375 0 0 0 0 0.350625 0 0 0 0 0.17 0 0 0 1 0"/>
<feBlend mode="normal" in2="BackgroundImageFix" result="effect1_dropShadow_1351_45711"/>
<feBlend mode="normal" in="SourceGraphic" in2="effect1_dropShadow_1351_45711" result="shape"/>
</filter>
<linearGradient id="paint0_linear_1351_45711" x1="44" y1="83.5" x2="24.7856" y2="19.7953" gradientUnits="userSpaceOnUse">
<stop stop-color="#F7931A"/>
<stop offset="1" stop-color="#AC1CC7"/>
</linearGradient>
<linearGradient id="paint1_linear_1351_45711" x1="39.5018" y1="46.5006" x2="52.0018" y2="49.0006" gradientUnits="userSpaceOnUse">
<stop stop-color="#E9E016"/>
<stop offset="1" stop-color="#FFA100"/>
</linearGradient>
</defs>
</svg>
