<svg width="37" height="37" fill="none" xmlns="http://www.w3.org/2000/svg">
    <circle cx="18.5" cy="18.5" r="18.5" fill="#3636AC"/>
    <path d="M23.703 19.093a5.19 5.19 0 0 1-5.203 5.203 5.19 5.19 0 0 1-5.203-5.203v-.217a.667.667 0 0 1 .672-.629c.347 0 .629.325.629.672a3.899 3.899 0 0 0 3.729 4.054c2.146.087 3.989-1.56 4.075-3.707a3.919 3.919 0 0 0-1.149-2.927 3.857 3.857 0 0 0-2.536-1.127l.65.585c.26.239.282.65.043.91a.649.649 0 0 1-.91.044l-.022-.022-1.647-1.517a.93.93 0 0 1 0-1.388l1.647-1.517a.649.649 0 0 1 .91.043c.24.26.218.65-.043.91l-.628.63c2.775.13 4.986 2.406 4.986 5.203z" fill="#fff"/>
</svg>
