<svg width="36" height="36" viewBox="0 0 36 36" fill="none" xmlns="http://www.w3.org/2000/svg">
<circle cx="18" cy="18" r="18" fill="#5855FF"/>
<path d="M23.0625 18.5765C23.0625 21.3819 20.8055 23.639 18 23.639C15.1945 23.639 12.9375 21.3819 12.9375 18.5765C12.9375 18.5132 12.9375 18.4288 12.9375 18.3655C12.9586 18.0069 13.2539 17.7538 13.5914 17.7538C13.9289 17.7538 14.2031 18.0702 14.2031 18.4077C14.1187 20.496 15.743 22.2679 17.8313 22.3522C19.9195 22.4366 21.7125 20.8335 21.7969 18.7452C21.8391 17.6905 21.4383 16.6569 20.6789 15.8976C20.025 15.2436 19.1391 14.8429 18.2109 14.8007L18.8438 15.3702C19.0969 15.6022 19.118 16.003 18.8859 16.2561C18.6539 16.5093 18.2531 16.5304 18 16.2983C18 16.2983 18 16.2983 17.9789 16.2772L16.3758 14.8007C15.9961 14.4632 15.975 13.8726 16.3125 13.514C16.3336 13.4929 16.3547 13.4718 16.3758 13.4507L17.9789 11.9741C18.232 11.7421 18.6328 11.7632 18.8648 12.0163C19.0969 12.2694 19.0758 12.6491 18.8227 12.9022L18.2109 13.514C20.9109 13.6405 23.0625 15.8554 23.0625 18.5765Z" fill="white"/>
</svg>
