<svg width="40" height="40" viewBox="0 0 40 40" fill="none" xmlns="http://www.w3.org/2000/svg">
<circle cx="20" cy="20" r="20" fill="#5855FF"/>
<path d="M25.625 20.6405C25.625 23.7577 23.1172 26.2655 20 26.2655C16.8828 26.2655 14.375 23.7577 14.375 20.6405C14.375 20.5702 14.375 20.4764 14.375 20.4061C14.3984 20.0077 14.7266 19.7264 15.1016 19.7264C15.4766 19.7264 15.7812 20.078 15.7812 20.453C15.6875 22.7733 17.4922 24.7421 19.8125 24.8358C22.1328 24.9296 24.125 23.1483 24.2188 20.828C24.2656 19.6561 23.8203 18.5077 22.9766 17.6639C22.25 16.9374 21.2656 16.4921 20.2344 16.4452L20.9375 17.078C21.2188 17.3358 21.2422 17.7811 20.9844 18.0624C20.7266 18.3436 20.2812 18.3671 20 18.1093C20 18.1093 20 18.1093 19.9766 18.0858L18.1953 16.4452C17.7734 16.0702 17.75 15.4139 18.125 15.0155C18.1484 14.9921 18.1719 14.9686 18.1953 14.9452L19.9766 13.3046C20.2578 13.0468 20.7031 13.0702 20.9609 13.3514C21.2187 13.6327 21.1953 14.0546 20.9141 14.3358L20.2344 15.0155C23.2344 15.1561 25.625 17.6171 25.625 20.6405Z" fill="white"/>
</svg>
