<svg width="30" height="30" viewBox="0 0 30 30" fill="none" xmlns="http://www.w3.org/2000/svg">
<rect width="30" height="30" rx="3" fill="white"/>
<path d="M10 3.75H7.75C6.34987 3.75 5.6498 3.75 5.11502 4.02248C4.64462 4.26217 4.26217 4.64462 4.02248 5.11502C3.75 5.6498 3.75 6.34987 3.75 7.75V10M10 26.25H7.75C6.34987 26.25 5.6498 26.25 5.11502 25.9775C4.64462 25.7378 4.26217 25.3554 4.02248 24.885C3.75 24.3502 3.75 23.6501 3.75 22.25V20M26.25 10V7.75C26.25 6.34987 26.25 5.6498 25.9775 5.11502C25.7378 4.64462 25.3554 4.26217 24.885 4.02248C24.3502 3.75 23.6501 3.75 22.25 3.75H20M26.25 20V22.25C26.25 23.6501 26.25 24.3502 25.9775 24.885C25.7378 25.3554 25.3554 25.7378 24.885 25.9775C24.3502 26.25 23.6501 26.25 22.25 26.25H20M20 15C20 17.7614 17.7614 20 15 20C12.2386 20 10 17.7614 10 15C10 12.2386 12.2386 10 15 10C17.7614 10 20 12.2386 20 15Z" stroke="url(#paint0_linear_1626_71162)" stroke-width="2" stroke-linecap="round" stroke-linejoin="round"/>
<defs>
<linearGradient id="paint0_linear_1626_71162" x1="3.75" y1="15.1388" x2="24.6055" y2="20.9952" gradientUnits="userSpaceOnUse">
<stop stop-color="#F7931A"/>
<stop offset="1" stop-color="#C31AE3"/>
</linearGradient>
</defs>
</svg>
