<svg width="12" height="12" viewBox="0 0 12 12" fill="none" xmlns="http://www.w3.org/2000/svg">
<path d="M7.79113 6.49014C7.77585 6.47249 7.76014 6.45548 7.74335 6.43869L3.65289 2.34813L4.90476 2.34834C5.46008 2.3492 5.82816 1.93485 5.82728 1.4258C5.82663 0.916517 5.45706 0.500882 4.90173 0.5L1.35171 0.520664C0.885495 0.523462 0.507985 0.90402 0.507103 1.37069L0.5 4.90074C0.500861 5.45718 0.916494 5.82676 1.42577 5.82737C1.93482 5.82823 2.34917 5.46015 2.34829 4.90504L2.35088 3.64884L4.20887 5.51008C4.22415 5.52752 4.24008 5.54474 4.25665 5.56131L8.34733 9.65209L7.09524 9.65188C6.53992 9.6508 6.17184 10.0652 6.17272 10.5744C6.17358 11.0835 6.54316 11.4991 7.09827 11.5L10.6483 11.4793C11.1145 11.4768 11.492 11.096 11.4929 10.6293L11.5 7.09926C11.4991 6.54304 11.0835 6.17346 10.5742 6.17263C10.0652 6.17177 9.65082 6.53985 9.65171 7.09518L9.64912 8.35116L7.79113 6.49014Z" fill="url(#paint0_linear_13699_266015)"/>
<defs>
<linearGradient id="paint0_linear_13699_266015" x1="0.5" y1="4.9" x2="11.8305" y2="6.2486" gradientUnits="userSpaceOnUse">
<stop stop-color="#F7931A"/>
<stop offset="1" stop-color="#AC1CC7"/>
</linearGradient>
</defs>
</svg>
