<svg width="15" height="16" viewBox="0 0 15 16" fill="none" xmlns="http://www.w3.org/2000/svg">
    <path fill-rule="evenodd" clip-rule="evenodd" d="M14.472 7.82c0-.272.125-.6.246-.917V6.9c.189-.492.383-1.001.222-1.498-.168-.517-.657-.833-1.088-1.112l-.006-.004c-.286-.185-.556-.36-.705-.564-.153-.21-.238-.527-.328-.862V2.86c-.139-.517-.282-1.051-.716-1.367-.332-.242-.741-.273-1.06-.273-.147 0-.299.008-.45.015l-.017.001c-.135.007-.27.014-.402.014-.22 0-.383-.02-.513-.062C9.42 1.112 9.172.91 8.91.697 8.509.37 8.054 0 7.5 0c-.553 0-1.008.37-1.409.696-.263.214-.511.416-.746.492-.13.042-.293.062-.513.062-.138 0-.278-.007-.42-.015h-.02c-.144-.008-.288-.015-.43-.015-.318 0-.728.031-1.06.273-.434.316-.577.85-.715 1.366v.003c-.09.335-.176.651-.328.86-.15.206-.421.382-.71.569h-.001c-.431.28-.92.596-1.088 1.113-.161.495.033 1.004.22 1.496l.001.001v.001c.122.318.247.646.247.919 0 .274-.126.602-.247.92-.188.493-.382 1.001-.221 1.497.168.517.656.833 1.088 1.113.289.186.562.363.711.568.153.21.238.527.328.863v.001c.139.516.282 1.05.715 1.365.332.242.741.273 1.06.273.147 0 .299-.007.45-.015l.018-.001c.136-.007.27-.014.403-.014.22 0 .382.02.512.062.233.076.48.277.742.49l.003.002c.401.326.856.697 1.41.697.554 0 1.009-.37 1.41-.697.262-.214.51-.416.745-.492.13-.042.292-.062.512-.062.138 0 .279.007.42.015h.002c.151.008.302.015.448.015.32 0 .728-.03 1.06-.273.434-.315.577-.85.716-1.366.09-.336.175-.653.328-.863.15-.206.422-.382.71-.568.432-.28.92-.596 1.09-1.113.16-.495-.034-1.004-.222-1.496v-.001c-.122-.318-.247-.647-.247-.92zM8.342 4.7H6.666l.28 4.113h1.115l.28-4.113zm-1.459 6.138a.878.878 0 0 0 .621.234c.246 0 .45-.078.612-.234a.783.783 0 0 0 .252-.585.74.74 0 0 0-.243-.567.859.859 0 0 0-.62-.234.859.859 0 0 0-.622.234.74.74 0 0 0-.243.567c0 .228.081.423.243.585z" fill="#fff"/>
</svg>
