<svg width="41" height="44" viewBox="0 0 41 44" fill="none" xmlns="http://www.w3.org/2000/svg">
<g filter="url(#filter0_d_135_8478)">
<path d="M34 24.0012V11.9988C33.9995 11.4726 33.8606 10.9558 33.5973 10.5002C33.334 10.0446 32.9556 9.66633 32.5 9.40324L22 3.40201C21.5439 3.13865 21.0266 3 20.5 3C19.9734 3 19.4561 3.13865 19 3.40201L8.5 9.40324C8.04439 9.66633 7.66597 10.0446 7.40269 10.5002C7.13941 10.9558 7.00054 11.4726 7 11.9988V24.0012C7.00054 24.5274 7.13941 25.0442 7.40269 25.4998C7.66597 25.9554 8.04439 26.3337 8.5 26.5968L19 32.598C19.4561 32.8614 19.9734 33 20.5 33C21.0266 33 21.5439 32.8614 22 32.598L32.5 26.5968C32.9556 26.3337 33.334 25.9554 33.5973 25.4998C33.8606 25.0442 33.9995 24.5274 34 24.0012Z" fill="url(#paint0_linear_135_8478)" stroke="white" stroke-linecap="round" stroke-linejoin="round"/>
</g>
<g filter="url(#filter1_i_135_8478)">
<path d="M25.1142 17.4546H15.8511V21.8181C15.8511 23.4544 16.43 23.9998 18.1669 23.9998H22.7984C24.5353 23.9998 25.1142 23.4544 25.1142 21.8181V17.4546Z" fill="#E3881B"/>
<path d="M26 15.1817V15.7271C26 16.3271 25.6932 16.818 24.8421 16.818H16.1579C15.2721 16.818 15 16.3271 15 15.7271V15.1817C15 14.5817 15.2721 14.0908 16.1579 14.0908H24.8421C25.6932 14.0908 26 14.5817 26 15.1817Z" fill="#E3881B"/>
<path d="M20.2914 13.6349H17.0956C16.8987 13.4331 16.9045 13.1222 17.1129 12.9259L17.935 12.1514C18.1492 11.9495 18.5024 11.9495 18.7166 12.1514L20.2914 13.6349Z" fill="#E3881B"/>
<path d="M23.8984 13.6349H20.7026L22.2774 12.1514C22.4916 11.9495 22.8447 11.9495 23.059 12.1514L23.8811 12.9259C24.0895 13.1222 24.0953 13.4331 23.8984 13.6349Z" fill="#E3881B"/>
</g>
<defs>
<filter id="filter0_d_135_8478" x="-2" y="0" width="45" height="44" filterUnits="userSpaceOnUse" color-interpolation-filters="sRGB">
<feFlood flood-opacity="0" result="BackgroundImageFix"/>
<feColorMatrix in="SourceAlpha" type="matrix" values="0 0 0 0 0 0 0 0 0 0 0 0 0 0 0 0 0 0 127 0" result="hardAlpha"/>
<feOffset dy="4"/>
<feGaussianBlur stdDeviation="3"/>
<feComposite in2="hardAlpha" operator="out"/>
<feColorMatrix type="matrix" values="0 0 0 0 0 0 0 0 0 0 0 0 0 0 0 0 0 0 0.25 0"/>
<feBlend mode="normal" in2="BackgroundImageFix" result="effect1_dropShadow_135_8478"/>
<feBlend mode="normal" in="SourceGraphic" in2="effect1_dropShadow_135_8478" result="shape"/>
</filter>
<filter id="filter1_i_135_8478" x="15" y="12" width="11" height="16" filterUnits="userSpaceOnUse" color-interpolation-filters="sRGB">
<feFlood flood-opacity="0" result="BackgroundImageFix"/>
<feBlend mode="normal" in="SourceGraphic" in2="BackgroundImageFix" result="shape"/>
<feColorMatrix in="SourceAlpha" type="matrix" values="0 0 0 0 0 0 0 0 0 0 0 0 0 0 0 0 0 0 127 0" result="hardAlpha"/>
<feOffset dy="4"/>
<feGaussianBlur stdDeviation="2"/>
<feComposite in2="hardAlpha" operator="arithmetic" k2="-1" k3="1"/>
<feColorMatrix type="matrix" values="0 0 0 0 0 0 0 0 0 0 0 0 0 0 0 0 0 0 0.25 0"/>
<feBlend mode="normal" in2="shape" result="effect1_innerShadow_135_8478"/>
</filter>
<linearGradient id="paint0_linear_135_8478" x1="9" y1="11" x2="32.7187" y2="25.1329" gradientUnits="userSpaceOnUse">
<stop stop-color="#FEE795"/>
<stop offset="1" stop-color="#F7931B"/>
</linearGradient>
</defs>
</svg>
