<svg width="89" height="97" viewBox="0 0 89 97" fill="none" xmlns="http://www.w3.org/2000/svg">
<path d="M89 67.904V29.096C88.9982 27.3946 88.5405 25.7237 87.6726 24.2507C86.8048 22.7777 85.5574 21.5545 84.0556 20.7038L49.4444 1.29982C47.9411 0.448292 46.2359 0 44.5 0C42.7641 0 41.0589 0.448292 39.5556 1.29982L4.94444 20.7038C3.44263 21.5545 2.19524 22.7777 1.32739 24.2507C0.45955 25.7237 0.00177872 27.3946 0 29.096V67.904C0.00177872 69.6053 0.45955 71.2763 1.32739 72.7493C2.19524 74.2223 3.44263 75.4455 4.94444 76.2962L39.5556 95.7002C41.0589 96.5517 42.7641 97 44.5 97C46.2359 97 47.9411 96.5517 49.4444 95.7002L84.0556 76.2962C85.5574 75.4455 86.8048 74.2223 87.6726 72.7493C88.5405 71.2763 88.9982 69.6053 89 67.904Z" fill="#131313"/>
<g filter="url(#filter0_d_1_6061)">
<path d="M77.875 62.9914V34.0083C77.8737 32.7376 77.5303 31.4897 76.8795 30.3896C76.2286 29.2895 75.293 28.376 74.1667 27.7407L48.2083 13.2491C47.0809 12.6131 45.8019 12.2783 44.5 12.2783C43.1981 12.2783 41.9191 12.6131 40.7917 13.2491L14.8333 27.7407C13.707 28.376 12.7714 29.2895 12.1205 30.3896C11.4697 31.4897 11.1263 32.7376 11.125 34.0083V62.9914C11.1263 64.2621 11.4697 65.51 12.1205 66.6101C12.7714 67.7102 13.707 68.6237 14.8333 69.259L40.7917 83.7506C41.9191 84.3865 43.1981 84.7214 44.5 84.7214C45.8019 84.7214 47.0809 84.3865 48.2083 83.7506L74.1667 69.259C75.293 68.6237 76.2286 67.7102 76.8795 66.6101C77.5303 65.51 77.8737 64.2621 77.875 62.9914Z" fill="url(#paint0_linear_1_6061)"/>
</g>
<g filter="url(#filter1_i_1_6061)">
<path fill-rule="evenodd" clip-rule="evenodd" d="M49.2178 35.7382C50.2697 35.8966 51.0128 36.1053 51.4473 36.3642C51.8817 36.6231 52.3434 37.1323 52.8323 37.8918C52.5686 38.1052 52.3391 38.2287 52.1436 38.2622C51.9482 38.2958 51.624 38.2674 51.1709 38.1771L50.6309 37.9382C50.1102 37.7079 49.4962 37.9273 49.252 38.4309C49.0409 38.8662 49.2322 39.3857 49.6793 39.5913C49.7173 39.6088 49.7565 39.6236 49.7967 39.6357L50.5171 39.853C50.7206 40.0096 50.8108 40.2295 50.7878 40.5127C50.7647 40.7959 50.6298 41.0713 50.3831 41.3388L50.7735 42.3814C50.3028 42.4828 49.7372 42.5126 49.0767 42.471C48.0859 42.4086 47.6014 42.1144 47.5933 42.07C47.5891 42.0465 47.2672 41.8725 46.6277 41.5482C45.969 41.3816 45.2781 41.293 44.5661 41.293C40.0385 41.293 36.3681 44.8736 36.3681 49.2905C36.3681 53.7074 40.0385 57.288 44.5661 57.288C47.6042 57.288 50.2564 55.6758 51.6725 53.2804L48.273 53.2803C47.6677 53.2803 47.1348 52.8919 46.9641 52.3265L46.0672 49.3556C46.0247 49.2148 46.1074 49.0671 46.252 49.0257C46.277 49.0186 46.3029 49.0149 46.3289 49.0149H57.1782C57.4979 49.0149 57.7802 49.2182 57.8739 49.516C58.0228 49.9895 58.0973 50.4996 58.0973 51.046C58.0973 51.6604 57.9733 52.2747 57.7254 52.8891C56.1159 58.5025 50.8339 62.6197 44.5661 62.6197C37.0201 62.6197 30.9028 56.652 30.9028 49.2905C30.9028 43.3091 34.9414 38.2479 40.5036 36.5604C40.5286 36.5335 40.555 36.5135 40.5832 36.5005C41.3123 36.1635 42.4168 35.9993 43.5486 35.8219L43.6963 35.7987C43.8688 35.7715 44.0415 35.7438 44.2133 35.7149C45.1133 35.5637 46.7815 35.5715 49.2178 35.7382ZM53.2178 38.3624C53.5989 38.6525 53.8447 38.897 53.9549 39.096C54.0614 39.2883 54.1654 39.6149 54.2668 40.0758L54.2773 40.1239L56.9503 42.4749C57.0387 42.5526 57.0983 42.6562 57.1205 42.7696L57.1247 42.7941L57.1674 43.0851C57.1785 43.1607 57.1359 43.2333 57.065 43.263L57.0513 43.268L56.9149 43.3123L56.8344 43.3019C54.1892 42.9591 52.5789 42.6674 52.0035 42.4266C51.4571 42.198 51.3708 41.6624 51.7447 40.8198C51.7895 40.7188 51.794 40.6054 51.7579 40.5018L51.7495 40.4797L51.4924 39.8539C51.4729 39.8063 51.445 39.7624 51.41 39.7241L51.3919 39.7054L50.847 39.1742C50.684 39.1421 50.5038 39.1921 50.3409 39.16C50.3034 39.1525 50.2151 39.1244 50.076 39.0756C50.0667 39.0723 50.0576 39.0687 50.0487 39.0646C49.8904 38.9921 49.8224 38.8085 49.8968 38.6543C49.9844 38.4729 50.1873 38.3726 50.3894 38.4107C50.5439 38.4398 50.655 38.4654 50.7226 38.4872C50.8331 38.523 50.9811 38.5988 51.1666 38.7146C51.7231 38.8214 52.1316 38.8525 52.392 38.8078C52.6525 38.763 52.9277 38.6146 53.2178 38.3624Z" fill="#18495D"/>
</g>
<defs>
<filter id="filter0_d_1_6061" x="4.125" y="7.27832" width="80.75" height="86.443" filterUnits="userSpaceOnUse" color-interpolation-filters="sRGB">
<feFlood flood-opacity="0" result="BackgroundImageFix"/>
<feColorMatrix in="SourceAlpha" type="matrix" values="0 0 0 0 0 0 0 0 0 0 0 0 0 0 0 0 0 0 127 0" result="hardAlpha"/>
<feOffset dy="2"/>
<feGaussianBlur stdDeviation="3.5"/>
<feComposite in2="hardAlpha" operator="out"/>
<feColorMatrix type="matrix" values="0 0 0 0 0.356863 0 0 0 0 1 0 0 0 0 0.615686 0 0 0 0.65 0"/>
<feBlend mode="normal" in2="BackgroundImageFix" result="effect1_dropShadow_1_6061"/>
<feBlend mode="normal" in="SourceGraphic" in2="effect1_dropShadow_1_6061" result="shape"/>
</filter>
<filter id="filter1_i_1_6061" x="30.9028" y="35.6071" width="27.1943" height="31.0127" filterUnits="userSpaceOnUse" color-interpolation-filters="sRGB">
<feFlood flood-opacity="0" result="BackgroundImageFix"/>
<feBlend mode="normal" in="SourceGraphic" in2="BackgroundImageFix" result="shape"/>
<feColorMatrix in="SourceAlpha" type="matrix" values="0 0 0 0 0 0 0 0 0 0 0 0 0 0 0 0 0 0 127 0" result="hardAlpha"/>
<feOffset dy="4"/>
<feGaussianBlur stdDeviation="2"/>
<feComposite in2="hardAlpha" operator="arithmetic" k2="-1" k3="1"/>
<feColorMatrix type="matrix" values="0 0 0 0 0 0 0 0 0 0 0 0 0 0 0 0 0 0 0.25 0"/>
<feBlend mode="normal" in2="shape" result="effect1_innerShadow_1_6061"/>
</filter>
<linearGradient id="paint0_linear_1_6061" x1="72.3125" y1="57.7087" x2="24.9174" y2="26.1059" gradientUnits="userSpaceOnUse">
<stop stop-color="#17485C"/>
<stop offset="1" stop-color="#5AFFB0"/>
</linearGradient>
</defs>
</svg>
