<svg width="89" height="98" viewBox="0 0 89 98" fill="none" xmlns="http://www.w3.org/2000/svg">
<g id="Rewards program">
<g id="Refer">
<path id="Vector" d="M89 68.404V29.596C88.9982 27.8946 88.5405 26.2237 87.6726 24.7507C86.8048 23.2777 85.5574 22.0545 84.0556 21.2038L49.4444 1.79982C47.9411 0.948292 46.2359 0.5 44.5 0.5C42.7641 0.5 41.0589 0.948292 39.5556 1.79982L4.94444 21.2038C3.44263 22.0545 2.19524 23.2777 1.32739 24.7507C0.45955 26.2237 0.00177872 27.8946 0 29.596V68.404C0.00177872 70.1053 0.45955 71.7763 1.32739 73.2493C2.19524 74.7223 3.44263 75.9455 4.94444 76.7962L39.5556 96.2002C41.0589 97.0517 42.7641 97.5 44.5 97.5C46.2359 97.5 47.9411 97.0517 49.4444 96.2002L84.0556 76.7962C85.5574 75.9455 86.8048 74.7223 87.6726 73.2493C88.5405 71.7763 88.9982 70.1053 89 68.404Z" fill="#131313"/>
<g id="Group 27524">
<path id="Vector_2" d="M77.7787 63.6147V63.614V34.3872V34.3864C77.7773 32.9751 77.4087 31.5886 76.7094 30.3658C76.0101 29.1429 75.0044 28.1265 73.7924 27.4191L73.7895 27.4175L48.492 12.8058C48.4917 12.8055 48.4913 12.8053 48.4909 12.8051C47.2779 12.0975 45.9014 11.7246 44.4997 11.7246C43.0982 11.7246 41.7218 12.0974 40.5089 12.8049C40.5084 12.8052 40.5078 12.8055 40.5073 12.8058L15.2099 27.4175L15.2099 27.4175L15.207 27.4191C13.995 28.1265 12.9893 29.1429 12.29 30.3658C11.5907 31.5886 11.2221 32.9751 11.2207 34.3864V34.3872L11.2207 63.614L11.2207 63.6147C11.2221 65.026 11.5907 66.4126 12.29 67.6354C12.9893 68.8582 13.995 69.8747 15.207 70.582L15.2099 70.5837L40.5073 85.1954C40.5079 85.1957 40.5084 85.196 40.5089 85.1963C41.7218 85.9038 43.0982 86.2766 44.4997 86.2766C45.9013 86.2766 47.2778 85.9037 48.4908 85.1961C48.4912 85.1959 48.4916 85.1956 48.492 85.1954L73.7895 70.5837L73.7924 70.582C75.0044 69.8747 76.0101 68.8582 76.7094 67.6354C77.4087 66.4126 77.7773 65.026 77.7787 63.6147Z" fill="url(#paint0_linear_1001_46142)" stroke="white" stroke-width="1.5" stroke-linecap="round" stroke-linejoin="round"/>
<g id="Star 1" filter="url(#filter0_d_1001_46142)">
<path d="M43.7898 36.9398C44.0817 36.3534 44.9183 36.3534 45.2102 36.9398L45.9001 38.3257C47.9002 42.3438 51.1562 45.5998 55.1743 47.5999L56.5602 48.2898C57.1466 48.5817 57.1466 49.4183 56.5602 49.7102L55.1743 50.4001C51.1562 52.4002 47.9002 55.6562 45.9001 59.6743L45.2102 61.0602C44.9183 61.6466 44.0817 61.6466 43.7898 61.0602L43.0999 59.6743C41.0998 55.6562 37.8438 52.4002 33.8257 50.4001L32.4398 49.7102C31.8534 49.4183 31.8534 48.5817 32.4398 48.2898L33.8257 47.5999C37.8438 45.5998 41.0998 42.3438 43.0999 38.3257L43.7898 36.9398Z" fill="url(#paint1_linear_1001_46142)"/>
<path d="M44.4164 37.2518C44.4282 37.228 44.4404 37.2182 44.4499 37.2126C44.4619 37.2055 44.4792 37.2 44.5 37.2C44.5208 37.2 44.5381 37.2055 44.5501 37.2126C44.5596 37.2182 44.5718 37.228 44.5836 37.2518L45.2734 38.6377C47.3414 42.7921 50.7079 46.1586 54.8623 48.2266L56.2482 48.9164C56.272 48.9282 56.2818 48.9404 56.2874 48.9499C56.2945 48.9619 56.3 48.9792 56.3 49C56.3 49.0208 56.2945 49.0381 56.2874 49.0501C56.2818 49.0596 56.272 49.0718 56.2482 49.0836L54.8623 49.7734C50.7079 51.8414 47.3414 55.2079 45.2734 59.3623L44.5836 60.7482C44.5718 60.772 44.5596 60.7818 44.5501 60.7874C44.5381 60.7945 44.5208 60.8 44.5 60.8C44.4792 60.8 44.4619 60.7945 44.4499 60.7874C44.4404 60.7818 44.4282 60.772 44.4164 60.7482L43.7266 59.3623C41.6586 55.2079 38.2921 51.8414 34.1377 49.7734L32.7518 49.0836C32.728 49.0718 32.7182 49.0596 32.7126 49.0501C32.7055 49.0381 32.7 49.0208 32.7 49C32.7 48.9792 32.7055 48.9619 32.7126 48.9499C32.7182 48.9404 32.728 48.9282 32.7518 48.9164L34.1377 48.2266C38.2921 46.1586 41.6586 42.7921 43.7266 38.6377L44.4164 37.2518Z" stroke="white" stroke-width="1.4"/>
</g>
</g>
</g>
</g>
<defs>
<filter id="filter0_d_1001_46142" x="26" y="34.5" width="37" height="37" filterUnits="userSpaceOnUse" color-interpolation-filters="sRGB">
<feFlood flood-opacity="0" result="BackgroundImageFix"/>
<feColorMatrix in="SourceAlpha" type="matrix" values="0 0 0 0 0 0 0 0 0 0 0 0 0 0 0 0 0 0 127 0" result="hardAlpha"/>
<feOffset dy="4"/>
<feGaussianBlur stdDeviation="3"/>
<feComposite in2="hardAlpha" operator="out"/>
<feColorMatrix type="matrix" values="0 0 0 0 0.378664 0 0 0 0 0.232639 0 0 0 0 0.833333 0 0 0 1 0"/>
<feBlend mode="normal" in2="BackgroundImageFix" result="effect1_dropShadow_1001_46142"/>
<feBlend mode="normal" in="SourceGraphic" in2="effect1_dropShadow_1001_46142" result="shape"/>
</filter>
<linearGradient id="paint0_linear_1001_46142" x1="44" y1="83.5002" x2="24.7856" y2="19.7956" gradientUnits="userSpaceOnUse">
<stop stop-color="#5A55FF"/>
<stop offset="1" stop-color="#D821FF"/>
</linearGradient>
<linearGradient id="paint1_linear_1001_46142" x1="39.5018" y1="46.5006" x2="52.0018" y2="49.0006" gradientUnits="userSpaceOnUse">
<stop stop-color="#E9E016"/>
<stop offset="1" stop-color="#FFA100"/>
</linearGradient>
</defs>
</svg>
