<svg width="89" height="97" viewBox="0 0 89 97" fill="none" xmlns="http://www.w3.org/2000/svg">
<path d="M89 67.904V29.096C88.9982 27.3946 88.5405 25.7237 87.6726 24.2507C86.8048 22.7777 85.5574 21.5545 84.0556 20.7038L49.4444 1.29982C47.9411 0.448292 46.2359 0 44.5 0C42.7641 0 41.0589 0.448292 39.5556 1.29982L4.94444 20.7038C3.44263 21.5545 2.19524 22.7777 1.32739 24.2507C0.45955 25.7237 0.00177872 27.3946 0 29.096V67.904C0.00177872 69.6053 0.45955 71.2763 1.32739 72.7493C2.19524 74.2223 3.44263 75.4455 4.94444 76.2962L39.5556 95.7002C41.0589 96.5517 42.7641 97 44.5 97C46.2359 97 47.9411 96.5517 49.4444 95.7002L84.0556 76.2962C85.5574 75.4455 86.8048 74.2223 87.6726 72.7493C88.5405 71.2763 88.9982 69.6053 89 67.904Z" fill="#CACACA"/>
<g filter="url(#filter0_d_1_2410)">
<path d="M77.875 62.9913V34.0081C77.8737 32.7375 77.5303 31.4895 76.8795 30.3895C76.2286 29.2894 75.293 28.3758 74.1667 27.7405L48.2083 13.2489C47.0809 12.613 45.8019 12.2782 44.5 12.2782C43.1981 12.2782 41.9191 12.613 40.7917 13.2489L14.8333 27.7405C13.707 28.3758 12.7714 29.2894 12.1205 30.3895C11.4697 31.4895 11.1263 32.7375 11.125 34.0081V62.9913C11.1263 64.2619 11.4697 65.5099 12.1205 66.61C12.7714 67.7101 13.707 68.6236 14.8333 69.2589L40.7917 83.7505C41.9191 84.3864 43.1981 84.7212 44.5 84.7212C45.8019 84.7212 47.0809 84.3864 48.2083 83.7505L74.1667 69.2589C75.293 68.6236 76.2286 67.7101 76.8795 66.61C77.5303 65.5099 77.8737 64.2619 77.875 62.9913Z" fill="url(#paint0_linear_1_2410)"/>
</g>
<g filter="url(#filter1_i_1_2410)">
<path fill-rule="evenodd" clip-rule="evenodd" d="M49.2178 35.738C50.2697 35.8965 51.0128 36.1052 51.4473 36.3641C51.8817 36.6229 52.3434 37.1321 52.8323 37.8917C52.5686 38.1051 52.3391 38.2286 52.1436 38.2621C51.9482 38.2957 51.624 38.2673 51.1709 38.1769L50.6309 37.9381C50.1102 37.7078 49.4962 37.9272 49.252 38.4308C49.0409 38.8661 49.2322 39.3856 49.6793 39.5912C49.7173 39.6086 49.7565 39.6235 49.7967 39.6356L50.5171 39.8529C50.7206 40.0095 50.8108 40.2294 50.7878 40.5126C50.7647 40.7958 50.6298 41.0711 50.3831 41.3387L50.7735 42.3813C50.3028 42.4827 49.7372 42.5125 49.0767 42.4709C48.0859 42.4085 47.6014 42.1142 47.5933 42.0699C47.5891 42.0464 47.2672 41.8724 46.6277 41.548C45.969 41.3814 45.2781 41.2929 44.5661 41.2929C40.0385 41.2929 36.3681 44.8735 36.3681 49.2904C36.3681 53.7073 40.0385 57.2879 44.5661 57.2879C47.6042 57.2879 50.2564 55.6756 51.6725 53.2803L48.273 53.2801C47.6677 53.2801 47.1348 52.8918 46.9641 52.3263L46.0672 49.3554C46.0247 49.2146 46.1074 49.067 46.252 49.0256C46.277 49.0184 46.3029 49.0148 46.3289 49.0148H57.1782C57.4979 49.0148 57.7802 49.2181 57.8739 49.5158C58.0228 49.9894 58.0973 50.4994 58.0973 51.0459C58.0973 51.6603 57.9733 52.2746 57.7254 52.889C56.1159 58.5024 50.8339 62.6196 44.5661 62.6196C37.0201 62.6196 30.9028 56.6519 30.9028 49.2904C30.9028 43.309 34.9414 38.2478 40.5036 36.5603C40.5286 36.5334 40.555 36.5133 40.5832 36.5003C41.3123 36.1634 42.4168 35.9992 43.5486 35.8218L43.6963 35.7986C43.8688 35.7714 44.0415 35.7437 44.2133 35.7148C45.1133 35.5636 46.7815 35.5714 49.2178 35.738ZM53.2178 38.3623C53.5989 38.6524 53.8447 38.8969 53.9549 39.0959C54.0614 39.2882 54.1654 39.6148 54.2668 40.0757L54.2773 40.1238L56.9503 42.4748C57.0387 42.5525 57.0983 42.6561 57.1205 42.7695L57.1247 42.794L57.1674 43.085C57.1785 43.1605 57.1359 43.2332 57.065 43.2629L57.0513 43.2679L56.9149 43.3122L56.8344 43.3018C54.1892 42.959 52.5789 42.6673 52.0035 42.4265C51.4571 42.1979 51.3708 41.6623 51.7447 40.8197C51.7895 40.7187 51.794 40.6053 51.7579 40.5016L51.7495 40.4796L51.4924 39.8538C51.4729 39.8062 51.445 39.7622 51.41 39.724L51.3919 39.7053L50.847 39.1741C50.684 39.1419 50.5038 39.192 50.3409 39.1598C50.3034 39.1524 50.2151 39.1243 50.076 39.0755C50.0667 39.0722 50.0576 39.0685 50.0487 39.0645C49.8904 38.992 49.8224 38.8083 49.8968 38.6542C49.9844 38.4728 50.1873 38.3724 50.3894 38.4106C50.5439 38.4397 50.655 38.4652 50.7226 38.4871C50.8331 38.5229 50.9811 38.5987 51.1666 38.7145C51.7231 38.8213 52.1316 38.8524 52.392 38.8076C52.6525 38.7629 52.9277 38.6145 53.2178 38.3623Z" fill="#18495D"/>
</g>
<defs>
<filter id="filter0_d_1_2410" x="4.125" y="7.2782" width="80.75" height="86.4431" filterUnits="userSpaceOnUse" color-interpolation-filters="sRGB">
<feFlood flood-opacity="0" result="BackgroundImageFix"/>
<feColorMatrix in="SourceAlpha" type="matrix" values="0 0 0 0 0 0 0 0 0 0 0 0 0 0 0 0 0 0 127 0" result="hardAlpha"/>
<feOffset dy="2"/>
<feGaussianBlur stdDeviation="3.5"/>
<feComposite in2="hardAlpha" operator="out"/>
<feColorMatrix type="matrix" values="0 0 0 0 0.356863 0 0 0 0 1 0 0 0 0 0.615686 0 0 0 0.65 0"/>
<feBlend mode="normal" in2="BackgroundImageFix" result="effect1_dropShadow_1_2410"/>
<feBlend mode="normal" in="SourceGraphic" in2="effect1_dropShadow_1_2410" result="shape"/>
</filter>
<filter id="filter1_i_1_2410" x="30.9028" y="35.6069" width="27.1943" height="31.0127" filterUnits="userSpaceOnUse" color-interpolation-filters="sRGB">
<feFlood flood-opacity="0" result="BackgroundImageFix"/>
<feBlend mode="normal" in="SourceGraphic" in2="BackgroundImageFix" result="shape"/>
<feColorMatrix in="SourceAlpha" type="matrix" values="0 0 0 0 0 0 0 0 0 0 0 0 0 0 0 0 0 0 127 0" result="hardAlpha"/>
<feOffset dy="4"/>
<feGaussianBlur stdDeviation="2"/>
<feComposite in2="hardAlpha" operator="arithmetic" k2="-1" k3="1"/>
<feColorMatrix type="matrix" values="0 0 0 0 0 0 0 0 0 0 0 0 0 0 0 0 0 0 0.25 0"/>
<feBlend mode="normal" in2="shape" result="effect1_innerShadow_1_2410"/>
</filter>
<linearGradient id="paint0_linear_1_2410" x1="72.3125" y1="57.7086" x2="24.9174" y2="26.1058" gradientUnits="userSpaceOnUse">
<stop stop-color="#17485C"/>
<stop offset="1" stop-color="#5AFFB0"/>
</linearGradient>
</defs>
</svg>
