<svg width="22" height="24" viewBox="0 0 22 24" fill="none" xmlns="http://www.w3.org/2000/svg">
<path d="M21 16.1949V7.51084C20.9996 7.13013 20.8967 6.75621 20.7017 6.42659C20.5067 6.09698 20.2264 5.82327 19.8889 5.63291L12.1111 1.29086C11.7733 1.10031 11.3901 1 11 1C10.6099 1 10.2267 1.10031 9.88889 1.29086L2.11111 5.63291C1.77363 5.82327 1.49331 6.09698 1.29829 6.42659C1.10327 6.75621 1.0004 7.13013 1 7.51084V16.1949C1.0004 16.5757 1.10327 16.9496 1.29829 17.2792C1.49331 17.6088 1.77363 17.8825 2.11111 18.0729L9.88889 22.4149C10.2267 22.6055 10.6099 22.7058 11 22.7058C11.3901 22.7058 11.7733 22.6055 12.1111 22.4149L19.8889 18.0729C20.2264 17.8825 20.5067 17.6088 20.7017 17.2792C20.8967 16.9496 20.9996 16.5757 21 16.1949Z" fill="url(#paint0_linear_116_2647)" stroke="white" stroke-linecap="round" stroke-linejoin="round"/>
<g filter="url(#filter0_i_116_2647)">
<path fill-rule="evenodd" clip-rule="evenodd" d="M12.4134 8.02903C12.7286 8.07651 12.9512 8.13904 13.0814 8.2166C13.2116 8.29417 13.3499 8.44674 13.4964 8.67431C13.4174 8.73826 13.3486 8.77525 13.2901 8.78531C13.2315 8.79536 13.1344 8.78686 12.9986 8.75978L12.8368 8.68822C12.6808 8.61922 12.4968 8.68496 12.4237 8.83584C12.3604 8.96627 12.4177 9.12194 12.5517 9.18352C12.5631 9.18876 12.5748 9.19321 12.5869 9.19684L12.8027 9.26193C12.8637 9.30885 12.8907 9.37474 12.8838 9.4596C12.8769 9.54445 12.8365 9.62696 12.7626 9.70711L12.8795 10.0195C12.7385 10.0499 12.569 10.0588 12.3711 10.0464C12.0743 10.0277 11.9291 9.9395 11.9267 9.92621C11.9254 9.91916 11.829 9.86704 11.6373 9.76985C11.44 9.71994 11.233 9.6934 11.0196 9.6934C9.66305 9.6934 8.56332 10.7662 8.56332 12.0897C8.56332 13.4131 9.66305 14.4859 11.0196 14.4859C11.9299 14.4859 12.7246 14.0028 13.1489 13.2851L12.1303 13.2851C11.949 13.2851 11.7893 13.1687 11.7381 12.9993L11.4694 12.1091C11.4567 12.067 11.4815 12.0227 11.5248 12.0103C11.5323 12.0082 11.54 12.0071 11.5478 12.0071H14.7985C14.8944 12.0071 14.9789 12.068 15.007 12.1572C15.0516 12.2991 15.0739 12.4519 15.0739 12.6157C15.0739 12.7997 15.0368 12.9838 14.9625 13.1679C14.4803 14.8498 12.8976 16.0834 11.0196 16.0834C8.75866 16.0834 6.92578 14.2954 6.92578 12.0897C6.92578 10.2975 8.13584 8.78101 9.8024 8.2754C9.8099 8.26734 9.81783 8.26133 9.82627 8.25743C10.0447 8.15648 10.3757 8.10728 10.7148 8.05413L10.759 8.04717C10.8107 8.03902 10.8625 8.03071 10.9139 8.02206C11.1836 7.97676 11.6834 7.97909 12.4134 8.02903ZM13.6119 8.81532C13.7261 8.90223 13.7997 8.9755 13.8328 9.03512C13.8647 9.09275 13.8958 9.19061 13.9262 9.32869L13.9294 9.34312L14.7303 10.0475C14.7567 10.0708 14.7746 10.1018 14.7813 10.1358L14.7825 10.1432L14.7953 10.2304C14.7986 10.253 14.7859 10.2748 14.7646 10.2837L14.7605 10.2852L14.7197 10.2984L14.6955 10.2953C13.903 10.1926 13.4205 10.1052 13.2481 10.0331C13.0844 9.96457 13.0585 9.80408 13.1705 9.55162C13.184 9.52135 13.1853 9.48739 13.1745 9.45632L13.172 9.44971L13.095 9.26222C13.0891 9.24794 13.0807 9.23478 13.0703 9.22331L13.0648 9.21773L12.9016 9.05857C12.8527 9.04893 12.7987 9.06392 12.7499 9.05428C12.7387 9.05206 12.7122 9.04364 12.6705 9.02901C12.6678 9.02803 12.665 9.02693 12.6624 9.02571C12.6149 9.004 12.5946 8.94897 12.6169 8.90279C12.6431 8.84843 12.7039 8.81836 12.7645 8.82978C12.8108 8.83852 12.844 8.84616 12.8643 8.85272C12.8974 8.86344 12.9417 8.88614 12.9973 8.92084C13.1641 8.95285 13.2864 8.96216 13.3645 8.94876C13.4425 8.93536 13.525 8.89088 13.6119 8.81532Z" fill="#18495D"/>
</g>
<defs>
<filter id="filter0_i_116_2647" x="6.92578" y="7.98975" width="8.14795" height="12.0938" filterUnits="userSpaceOnUse" color-interpolation-filters="sRGB">
<feFlood flood-opacity="0" result="BackgroundImageFix"/>
<feBlend mode="normal" in="SourceGraphic" in2="BackgroundImageFix" result="shape"/>
<feColorMatrix in="SourceAlpha" type="matrix" values="0 0 0 0 0 0 0 0 0 0 0 0 0 0 0 0 0 0 127 0" result="hardAlpha"/>
<feOffset dy="4"/>
<feGaussianBlur stdDeviation="2"/>
<feComposite in2="hardAlpha" operator="arithmetic" k2="-1" k3="1"/>
<feColorMatrix type="matrix" values="0 0 0 0 0 0 0 0 0 0 0 0 0 0 0 0 0 0 0.25 0"/>
<feBlend mode="normal" in2="shape" result="effect1_innerShadow_116_2647"/>
</filter>
<linearGradient id="paint0_linear_116_2647" x1="19.3333" y1="14.6121" x2="5.13255" y2="5.14309" gradientUnits="userSpaceOnUse">
<stop stop-color="#17485C"/>
<stop offset="1" stop-color="#5AFFB0"/>
</linearGradient>
</defs>
</svg>
