<svg width="89" height="97" viewBox="0 0 89 97" fill="none" xmlns="http://www.w3.org/2000/svg">
<g id="Rewards program">
<g id="Refer">
<path id="Vector" d="M89 67.904V29.096C88.9982 27.3946 88.5405 25.7237 87.6726 24.2507C86.8048 22.7777 85.5574 21.5545 84.0556 20.7038L49.4444 1.29982C47.9411 0.448292 46.2359 0 44.5 0C42.7641 0 41.0589 0.448292 39.5556 1.29982L4.94444 20.7038C3.44263 21.5545 2.19524 22.7777 1.32739 24.2507C0.45955 25.7237 0.00177872 27.3946 0 29.096V67.904C0.00177872 69.6053 0.45955 71.2763 1.32739 72.7493C2.19524 74.2223 3.44263 75.4455 4.94444 76.2962L39.5556 95.7002C41.0589 96.5517 42.7641 97 44.5 97C46.2359 97 47.9411 96.5517 49.4444 95.7002L84.0556 76.2962C85.5574 75.4455 86.8048 74.2223 87.6726 72.7493C88.5405 71.2763 88.9982 69.6053 89 67.904Z" fill="#EEEEEE"/>
<g id="Rewards">
<g id="Group 27524">
<path id="Vector_2" d="M77.3787 63.1143V63.114V33.8872V33.8868C77.3773 32.5449 77.0269 31.2266 76.3622 30.0643C75.6975 28.902 74.7419 27.9364 73.5908 27.2646L73.5894 27.2638L48.2904 12.6512C48.2902 12.6511 48.2899 12.6509 48.2897 12.6508C47.1376 11.9786 45.8305 11.6246 44.4997 11.6246C43.1689 11.6246 41.8618 11.9786 40.7097 12.6508C40.7095 12.6509 40.7092 12.6511 40.7089 12.6512L15.41 27.2638L15.4086 27.2646C14.2575 27.9364 13.3019 28.902 12.6372 30.0643C11.9725 31.2266 11.6221 32.5449 11.6207 33.8868V33.8872L11.6207 63.114L11.6207 63.1143C11.6221 64.4563 11.9725 65.7745 12.6372 66.9368C13.3019 68.0991 14.2575 69.0648 15.4086 69.7365L15.41 69.7373L40.7089 84.3499C40.7092 84.3501 40.7094 84.3502 40.7096 84.3503C41.8617 85.0225 43.1689 85.3765 44.4997 85.3765C45.8305 85.3765 47.1377 85.0225 48.2898 84.3503C48.29 84.3502 48.2902 84.3501 48.2904 84.3499L73.5894 69.7373L73.5908 69.7365C74.7419 69.0648 75.6975 68.0991 76.3622 66.9368C77.0269 65.7745 77.3773 64.4563 77.3787 63.1143Z" fill="url(#paint0_linear_1149_24254)" stroke="white" stroke-width="0.7" stroke-linecap="round" stroke-linejoin="round"/>
<path id="Vector (Stroke)" fill-rule="evenodd" clip-rule="evenodd" d="M40.3992 12.11C41.6456 11.383 43.0599 11 44.5 11C45.94 11 47.3543 11.383 48.6007 12.1099C48.6013 12.1103 48.602 12.1106 48.6026 12.111L73.9029 26.7244C75.1485 27.4513 76.1822 28.496 76.901 29.7529C77.6197 31.0097 77.9985 32.4349 78 33.8856V63.1144C77.9985 64.5651 77.6197 65.9903 76.901 67.2471C76.1822 68.504 75.1485 69.5487 73.9029 70.2756L73.8992 70.2778L48.6026 84.889C48.6022 84.8892 48.6017 84.8895 48.6013 84.8898C47.3547 85.6169 45.9403 86 44.5 86C43.0597 86 41.6451 85.6169 40.3985 84.8896C40.3982 84.8894 40.3978 84.8892 40.3974 84.889L15.1008 70.2778L15.0971 70.2756C13.8515 69.5487 12.8178 68.504 12.099 67.2471C11.3803 65.9903 11.0015 64.5651 11 63.1144V33.8856C11.0015 32.4349 11.3803 31.0097 12.099 29.7529C12.8178 28.496 13.8515 27.4513 15.0971 26.7244L15.1008 26.7222L40.3974 12.111C40.398 12.1107 40.3986 12.1103 40.3992 12.11ZM44.5 12.9481C43.403 12.9481 42.3249 13.2399 41.374 13.7948L41.3702 13.797L16.0736 28.4082C16.073 28.4086 16.0724 28.409 16.0718 28.4093C15.1226 28.9637 14.3332 29.761 13.7836 30.7222C13.2337 31.6838 12.9432 32.7753 12.942 33.8871V63.1129C12.9432 64.2247 13.2337 65.3161 13.7836 66.2778C14.3332 67.239 15.1226 68.0363 16.0718 68.5907C16.0724 68.591 16.073 68.5914 16.0736 68.5918L41.374 83.2051C42.3249 83.7601 43.403 84.0519 44.5 84.0519C45.597 84.0519 46.6751 83.7601 47.626 83.2051L47.6298 83.203L72.9264 68.5918C72.927 68.5914 72.9276 68.591 72.9282 68.5907C73.8774 68.0363 74.6668 67.239 75.2164 66.2778C75.7664 65.316 76.0568 64.2243 76.058 63.1124V33.8876C76.0568 32.7757 75.7664 31.684 75.2164 30.7222C74.6668 29.761 73.8774 28.9637 72.9282 28.4093C72.9276 28.409 72.927 28.4086 72.9264 28.4082L47.6298 13.797L47.626 13.7948C46.6751 13.2399 45.597 12.9481 44.5 12.9481Z" fill="#3C3C3C"/>
<g id="Mask group">
<mask id="mask0_1149_24254" style="mask-type:alpha" maskUnits="userSpaceOnUse" x="11" y="11" width="65" height="73">
<g id="Refer bad">
<g id="Group 27523">
<path id="Vector_3" d="M76 62.103V32.897C75.9987 31.6166 75.6644 30.359 75.0306 29.2505C74.3967 28.142 73.4857 27.2214 72.3889 26.5812L47.1111 11.9782C46.0132 11.3374 44.7678 11 43.5 11C42.2322 11 40.9868 11.3374 39.8889 11.9782L14.6111 26.5812C13.5143 27.2214 12.6033 28.142 11.9694 29.2505C11.3356 30.359 11.0013 31.6166 11 32.897V62.103C11.0013 63.3834 11.3356 64.6409 11.9694 65.7495C12.6033 66.858 13.5143 67.7786 14.6111 68.4188L39.8889 83.0218C40.9868 83.6626 42.2322 84 43.5 84C44.7678 84 46.0132 83.6626 47.1111 83.0218L72.3889 68.4188C73.4857 67.7786 74.3967 66.858 75.0306 65.7495C75.6644 64.6409 75.9987 63.3834 76 62.103Z" fill="white"/>
</g>
</g>
</mask>
<g mask="url(#mask0_1149_24254)">
<g id="Star 1" filter="url(#filter0_d_1149_24254)">
<path d="M43.7898 36.4398C44.0817 35.8534 44.9183 35.8534 45.2102 36.4398L45.9001 37.8257C47.9002 41.8438 51.1562 45.0998 55.1743 47.0999L56.5602 47.7898C57.1466 48.0817 57.1466 48.9183 56.5602 49.2102L55.1743 49.9001C51.1562 51.9002 47.9002 55.1562 45.9001 59.1743L45.2102 60.5602C44.9183 61.1466 44.0817 61.1466 43.7898 60.5602L43.0999 59.1743C41.0998 55.1562 37.8438 51.9002 33.8257 49.9001L32.4398 49.2102C31.8534 48.9183 31.8534 48.0817 32.4398 47.7898L33.8257 47.0999C37.8438 45.0998 41.0998 41.8438 43.0999 37.8257L43.7898 36.4398Z" fill="url(#paint1_linear_1149_24254)"/>
<path d="M44.4164 36.7518C44.4282 36.728 44.4404 36.7182 44.4499 36.7126C44.4619 36.7055 44.4792 36.7 44.5 36.7C44.5208 36.7 44.5381 36.7055 44.5501 36.7126C44.5596 36.7182 44.5718 36.728 44.5836 36.7518L45.2734 38.1377C47.3414 42.2921 50.7079 45.6586 54.8623 47.7266L56.2482 48.4164C56.272 48.4282 56.2818 48.4404 56.2874 48.4499C56.2945 48.4619 56.3 48.4792 56.3 48.5C56.3 48.5208 56.2945 48.5381 56.2874 48.5501C56.2818 48.5596 56.272 48.5718 56.2482 48.5836L54.8623 49.2734C50.7079 51.3414 47.3414 54.7079 45.2734 58.8623L44.5836 60.2482C44.5718 60.272 44.5596 60.2818 44.5501 60.2874C44.5381 60.2945 44.5208 60.3 44.5 60.3C44.4792 60.3 44.4619 60.2945 44.4499 60.2874C44.4404 60.2818 44.4282 60.272 44.4164 60.2482L43.7266 58.8623C41.6586 54.7079 38.2921 51.3414 34.1377 49.2734L32.7518 48.5836C32.728 48.5718 32.7182 48.5596 32.7126 48.5501C32.7055 48.5381 32.7 48.5208 32.7 48.5C32.7 48.4792 32.7055 48.4619 32.7126 48.4499C32.7182 48.4404 32.728 48.4282 32.7518 48.4164L34.1377 47.7266C38.2921 45.6586 41.6586 42.2921 43.7266 38.1377L44.4164 36.7518Z" stroke="white" stroke-width="1.4"/>
</g>
</g>
</g>
</g>
</g>
</g>
</g>
<defs>
<filter id="filter0_d_1149_24254" x="26" y="34" width="37" height="37" filterUnits="userSpaceOnUse" color-interpolation-filters="sRGB">
<feFlood flood-opacity="0" result="BackgroundImageFix"/>
<feColorMatrix in="SourceAlpha" type="matrix" values="0 0 0 0 0 0 0 0 0 0 0 0 0 0 0 0 0 0 127 0" result="hardAlpha"/>
<feOffset dy="4"/>
<feGaussianBlur stdDeviation="3"/>
<feComposite in2="hardAlpha" operator="out"/>
<feColorMatrix type="matrix" values="0 0 0 0 0.150312 0 0 0 0 0.4875 0 0 0 0 0.415479 0 0 0 1 0"/>
<feBlend mode="normal" in2="BackgroundImageFix" result="effect1_dropShadow_1149_24254"/>
<feBlend mode="normal" in="SourceGraphic" in2="effect1_dropShadow_1149_24254" result="shape"/>
</filter>
<linearGradient id="paint0_linear_1149_24254" x1="44" y1="85.0019" x2="44" y2="12.002" gradientUnits="userSpaceOnUse">
<stop stop-color="#53E6AA"/>
<stop offset="1" stop-color="#18495D"/>
</linearGradient>
<linearGradient id="paint1_linear_1149_24254" x1="39.5018" y1="46.0006" x2="52.0018" y2="48.5006" gradientUnits="userSpaceOnUse">
<stop stop-color="#E9E016"/>
<stop offset="1" stop-color="#FFA100"/>
</linearGradient>
</defs>
</svg>
