<svg width="50" height="51" viewBox="0 0 50 51" fill="none" xmlns="http://www.w3.org/2000/svg">
<circle cx="25" cy="25.5" r="25" fill="#5855FF"/>
<path d="M26.0863 16.2206V19.5942H31.7431C32.7811 19.5942 33.6225 20.4369 33.6225 21.4727V32.7882C33.6225 33.8256 32.7817 34.6667 31.7431 34.6667H18.5454C17.5075 34.6667 16.666 33.824 16.666 32.7882V21.4727C16.666 20.4352 17.5069 19.5942 18.5454 19.5942H24.2022V16.2175L23.1383 17.2815C22.7738 17.646 22.1826 17.6458 21.8122 17.2754C21.4443 16.9075 21.4465 16.3089 21.806 15.9493L24.4828 13.2725C24.664 13.0913 24.9013 13.0002 25.1396 13L25.1468 13.0028C25.386 13.0033 25.6239 13.0937 25.8027 13.2725L28.4795 15.9493C28.844 16.3138 28.8438 16.9049 28.4733 17.2754C28.1054 17.6433 27.5068 17.6411 27.1472 17.2815L26.0863 16.2206ZM24.2022 21.4783H18.5501V32.7826H31.7385V21.4783H26.0863V25.2478C26.0863 25.7673 25.6682 26.1884 25.1443 26.1884C24.624 26.1884 24.2022 25.7669 24.2022 25.2478V21.4783ZM21.3762 19.5942V21.4783H28.9124V19.5942H21.3762ZM24.2022 19.5942H26.0863V21.4783H24.2022V19.5942Z" fill="white"/>
</svg>
