<svg width="60" height="60" viewBox="0 0 60 60" fill="none" xmlns="http://www.w3.org/2000/svg">
    <circle cx="30" cy="30" r="30" fill="#6B33B0"/>
    <path d="M31.304 18.865v4.048h6.789a2.256 2.256 0 0 1 2.255 2.254v13.579A2.254 2.254 0 0 1 38.093 41H22.255A2.256 2.256 0 0 1 20 38.746V25.167a2.254 2.254 0 0 1 2.255-2.254h6.789v-4.052l-1.277 1.277a1.122 1.122 0 0 1-1.592-.008 1.13 1.13 0 0 1-.007-1.59l3.212-3.213c.218-.217.502-.327.788-.327l.009.003c.287.001.573.11.787.324l3.212 3.212a1.123 1.123 0 0 1-.007 1.591 1.13 1.13 0 0 1-1.591.008l-1.274-1.273zm-2.26 6.309H22.26v13.565h15.826V25.174h-6.783v4.523a1.13 1.13 0 0 1-2.26 0v-4.523zm-3.392-2.261v2.26h9.044v-2.26h-9.044zm3.392 0h2.26v2.26h-2.26v-2.26z" fill="#fff"/>
</svg>
