<svg width="22" height="22" viewBox="0 0 22 22" fill="none" xmlns="http://www.w3.org/2000/svg">
<path d="M10.9995 13.4375C12.3551 13.4375 13.454 12.3462 13.454 11C13.454 9.65381 12.3551 8.5625 10.9995 8.5625C9.64386 8.5625 8.54492 9.65381 8.54492 11C8.54492 12.3462 9.64386 13.4375 10.9995 13.4375Z" fill="#EEEEEE"/>
<path d="M2 11C2 11 4.83128 17.5 11 17.5C17.5131 17.5 20 11 20 11" stroke="#EEEEEE" stroke-width="1.5" stroke-linecap="round" stroke-linejoin="round"/>
<path d="M20 11C20 11 17.1687 4.5 11 4.5C4.48691 4.5 2 11 2 11" stroke="#EEEEEE" stroke-width="1.5" stroke-linecap="round" stroke-linejoin="round"/>
<path d="M10.9609 4.39172V2.59961" stroke="#EEEEEE" stroke-width="1.5" stroke-linecap="round"/>
<path d="M3.96094 7.19141L2.96094 6.19141" stroke="#EEEEEE" stroke-width="1.5" stroke-linecap="round"/>
<path d="M7.3396 5.05384L6.57913 3.55393" stroke="#EEEEEE" stroke-width="1.5" stroke-linecap="round"/>
<path d="M18.4189 7.19141L19.4189 6.19141" stroke="#EEEEEE" stroke-width="1.5" stroke-linecap="round"/>
<path d="M15.0393 5.05384L15.7998 3.55393" stroke="#EEEEEE" stroke-width="1.5" stroke-linecap="round"/>
</svg>
