<svg width="40" height="40" viewBox="0 0 40 40" fill="none" xmlns="http://www.w3.org/2000/svg">
    <circle cx="20" cy="20" r="20" fill="#131313"/>
    <path d="M20.028 15.785a4.187 4.187 0 0 1 4.168 4.267A4.188 4.188 0 0 1 19.91 24.2a4.187 4.187 0 0 1-4.12-4.218 4.189 4.189 0 0 1 4.238-4.198z" fill="#C74AE3"/>
    <path d="M25.49 28.975c-3.668 2.954-10.223 1.896-13.619-2.08-3.735-4.372-3.299-10.933.985-14.819 4.231-3.837 10.778-3.625 14.769.478 3.874 3.984 4.046 10.592.42 14.322l-2.582-2.705c1.374-1.921 1.8-4.12.978-6.481-1.227-3.525-5.113-5.386-8.658-4.184-3.503 1.187-5.42 4.957-4.326 8.507 1.105 3.59 4.857 5.628 8.457 4.522.716-.22 1.114-.091 1.577.442.613.706 1.322 1.33 1.999 1.998z" fill="#38E7BB"/>
</svg>
