<svg width="18" height="18" viewBox="0 0 18 18" fill="none" xmlns="http://www.w3.org/2000/svg">
    <path d="M17.432.569a1.94 1.94 0 0 0-1.765-.53l-5.125 1.022a12.073 12.073 0 0 0-9.481 9.476L.04 15.66a1.948 1.948 0 0 0 2.293 2.302l5.126-1.02a12.073 12.073 0 0 0 9.48-9.486l1.022-5.124a1.95 1.95 0 0 0-.53-1.763zm-4.987 7.768a.927.927 0 1 1-1.309 1.309l-.734-.733-1.485 1.476.733.733a.928.928 0 1 1-1.309 1.308l-.734-.733-.733.733a.929.929 0 0 1-1.31-1.308l.734-.733-.733-.734a.928.928 0 0 1 1.309-1.308l.733.733 1.477-1.476-.734-.733a.928.928 0 0 1 1.31-1.309l.733.733.734-.733a.929.929 0 0 1 1.309 1.309l-.734.733.743.733z" fill="#fff"/>
</svg>
