<svg width="131" height="23" viewBox="0 0 131 23" fill="none" xmlns="http://www.w3.org/2000/svg">
<path d="M7.22275 18.25C5.87275 18.25 4.56442 18.0583 3.29775 17.675C2.04775 17.2917 1.05609 16.7833 0.322754 16.15L1.44775 13.625C2.16442 14.1917 3.03942 14.6583 4.07275 15.025C5.12275 15.375 6.17275 15.55 7.22275 15.55C8.52275 15.55 9.48942 15.3417 10.1228 14.925C10.7728 14.5083 11.0978 13.9583 11.0978 13.275C11.0978 12.775 10.9144 12.3667 10.5478 12.05C10.1978 11.7167 9.74775 11.4583 9.19775 11.275C8.64775 11.0917 7.89775 10.8833 6.94775 10.65C5.61442 10.3333 4.53109 10.0167 3.69775 9.7C2.88109 9.38333 2.17275 8.89167 1.57275 8.225C0.989421 7.54167 0.697754 6.625 0.697754 5.475C0.697754 4.50833 0.956087 3.63333 1.47275 2.85C2.00609 2.05 2.79775 1.41667 3.84775 0.949999C4.91442 0.483332 6.21442 0.249999 7.74775 0.249999C8.81442 0.249999 9.86442 0.383333 10.8978 0.65C11.9311 0.916666 12.8228 1.3 13.5728 1.8L12.5478 4.325C11.7811 3.875 10.9811 3.53333 10.1478 3.3C9.31442 3.06667 8.50609 2.95 7.72275 2.95C6.43942 2.95 5.48109 3.16667 4.84775 3.6C4.23109 4.03333 3.92275 4.60833 3.92275 5.325C3.92275 5.825 4.09775 6.23333 4.44775 6.55C4.81442 6.86667 5.27275 7.11667 5.82275 7.3C6.37275 7.48333 7.12275 7.69167 8.07275 7.925C9.37275 8.225 10.4394 8.54167 11.2728 8.875C12.1061 9.19167 12.8144 9.68333 13.3978 10.35C13.9978 11.0167 14.2978 11.9167 14.2978 13.05C14.2978 14.0167 14.0311 14.8917 13.4978 15.675C12.9811 16.4583 12.1894 17.0833 11.1228 17.55C10.0561 18.0167 8.75609 18.25 7.22275 18.25ZM24.6204 4.5C25.9204 4.5 27.0787 4.78333 28.0954 5.35C29.1287 5.91667 29.9371 6.71667 30.5204 7.75C31.1037 8.78333 31.3954 9.975 31.3954 11.325C31.3954 12.675 31.1037 13.875 30.5204 14.925C29.9371 15.9583 29.1287 16.7583 28.0954 17.325C27.0787 17.8917 25.9204 18.175 24.6204 18.175C22.8204 18.175 21.3954 17.575 20.3454 16.375V22.85H17.2204V4.65H20.1954V6.4C20.7121 5.76667 21.3454 5.29167 22.0954 4.975C22.8621 4.65833 23.7037 4.5 24.6204 4.5ZM24.2704 15.5C25.4204 15.5 26.3621 15.1167 27.0954 14.35C27.8454 13.5833 28.2204 12.575 28.2204 11.325C28.2204 10.075 27.8454 9.06667 27.0954 8.3C26.3621 7.53333 25.4204 7.15 24.2704 7.15C23.5204 7.15 22.8454 7.325 22.2454 7.675C21.6454 8.00833 21.1704 8.49167 20.8204 9.125C20.4704 9.75833 20.2954 10.4917 20.2954 11.325C20.2954 12.1583 20.4704 12.8917 20.8204 13.525C21.1704 14.1583 21.6454 14.65 22.2454 15C22.8454 15.3333 23.5204 15.5 24.2704 15.5ZM40.3591 18.175C39.0091 18.175 37.7924 17.8833 36.7091 17.3C35.6257 16.7167 34.7757 15.9083 34.1591 14.875C33.5591 13.825 33.2591 12.6417 33.2591 11.325C33.2591 10.0083 33.5591 8.83333 34.1591 7.8C34.7757 6.76667 35.6257 5.95833 36.7091 5.375C37.7924 4.79167 39.0091 4.5 40.3591 4.5C41.7257 4.5 42.9507 4.79167 44.0341 5.375C45.1174 5.95833 45.9591 6.76667 46.5591 7.8C47.1758 8.83333 47.4841 10.0083 47.4841 11.325C47.4841 12.6417 47.1758 13.825 46.5591 14.875C45.9591 15.9083 45.1174 16.7167 44.0341 17.3C42.9507 17.8833 41.7257 18.175 40.3591 18.175ZM40.3591 15.5C41.5091 15.5 42.4591 15.1167 43.2091 14.35C43.9591 13.5833 44.3341 12.575 44.3341 11.325C44.3341 10.075 43.9591 9.06667 43.2091 8.3C42.4591 7.53333 41.5091 7.15 40.3591 7.15C39.2091 7.15 38.2591 7.53333 37.5091 8.3C36.7757 9.06667 36.4091 10.075 36.4091 11.325C36.4091 12.575 36.7757 13.5833 37.5091 14.35C38.2591 15.1167 39.2091 15.5 40.3591 15.5ZM58.4974 17.275C58.1307 17.575 57.6807 17.8 57.1474 17.95C56.6307 18.1 56.0807 18.175 55.4974 18.175C54.0307 18.175 52.8974 17.7917 52.0974 17.025C51.2974 16.2583 50.8974 15.1417 50.8974 13.675V7.25H48.6974V4.75H50.8974V1.7H54.0224V4.75H57.5974V7.25H54.0224V13.6C54.0224 14.25 54.1807 14.75 54.4974 15.1C54.814 15.4333 55.2724 15.6 55.8724 15.6C56.5724 15.6 57.1557 15.4167 57.6224 15.05L58.4974 17.275ZM71.5272 3.225V8.55H79.9772V11.3H71.5272V18H68.2772V0.499999H81.0522V3.225H71.5272ZM96.079 11.4C96.079 11.6167 96.0623 11.925 96.029 12.325H85.554C85.7373 13.3083 86.2123 14.0917 86.979 14.675C87.7623 15.2417 88.729 15.525 89.879 15.525C91.3457 15.525 92.554 15.0417 93.504 14.075L95.179 16C94.579 16.7167 93.8207 17.2583 92.904 17.625C91.9873 17.9917 90.954 18.175 89.804 18.175C88.3373 18.175 87.0457 17.8833 85.929 17.3C84.8123 16.7167 83.9457 15.9083 83.329 14.875C82.729 13.825 82.429 12.6417 82.429 11.325C82.429 10.025 82.7207 8.85833 83.304 7.825C83.904 6.775 84.729 5.95833 85.779 5.375C86.829 4.79167 88.0123 4.5 89.329 4.5C90.629 4.5 91.7873 4.79167 92.804 5.375C93.8373 5.94167 94.6373 6.75 95.204 7.8C95.7873 8.83333 96.079 10.0333 96.079 11.4ZM89.329 7C88.329 7 87.479 7.3 86.779 7.9C86.0957 8.48333 85.679 9.26667 85.529 10.25H93.104C92.9707 9.28333 92.5623 8.5 91.879 7.9C91.1957 7.3 90.3457 7 89.329 7ZM111.631 11.4C111.631 11.6167 111.614 11.925 111.581 12.325H101.106C101.289 13.3083 101.764 14.0917 102.531 14.675C103.314 15.2417 104.281 15.525 105.431 15.525C106.897 15.525 108.106 15.0417 109.056 14.075L110.731 16C110.131 16.7167 109.372 17.2583 108.456 17.625C107.539 17.9917 106.506 18.175 105.356 18.175C103.889 18.175 102.597 17.8833 101.481 17.3C100.364 16.7167 99.4974 15.9083 98.8808 14.875C98.2808 13.825 97.9808 12.6417 97.9808 11.325C97.9808 10.025 98.2724 8.85833 98.8558 7.825C99.4558 6.775 100.281 5.95833 101.331 5.375C102.381 4.79167 103.564 4.5 104.881 4.5C106.181 4.5 107.339 4.79167 108.356 5.375C109.389 5.94167 110.189 6.75 110.756 7.8C111.339 8.83333 111.631 10.0333 111.631 11.4ZM104.881 7C103.881 7 103.031 7.3 102.331 7.9C101.647 8.48333 101.231 9.26667 101.081 10.25H108.656C108.522 9.28333 108.114 8.5 107.431 7.9C106.747 7.3 105.897 7 104.881 7ZM118.758 18.175C117.674 18.175 116.616 18.0333 115.583 17.75C114.549 17.4667 113.724 17.1083 113.108 16.675L114.308 14.3C114.908 14.7 115.624 15.025 116.458 15.275C117.308 15.5083 118.141 15.625 118.958 15.625C120.824 15.625 121.758 15.1333 121.758 14.15C121.758 13.6833 121.516 13.3583 121.033 13.175C120.566 12.9917 119.808 12.8167 118.758 12.65C117.658 12.4833 116.758 12.2917 116.058 12.075C115.374 11.8583 114.774 11.4833 114.258 10.95C113.758 10.4 113.508 9.64167 113.508 8.675C113.508 7.40833 114.033 6.4 115.083 5.65C116.149 4.88333 117.583 4.5 119.383 4.5C120.299 4.5 121.216 4.60833 122.133 4.825C123.049 5.025 123.799 5.3 124.383 5.65L123.183 8.025C122.049 7.35833 120.774 7.025 119.358 7.025C118.441 7.025 117.741 7.16667 117.258 7.45C116.791 7.71667 116.558 8.075 116.558 8.525C116.558 9.025 116.808 9.38333 117.308 9.6C117.824 9.8 118.616 9.99167 119.683 10.175C120.749 10.3417 121.624 10.5333 122.308 10.75C122.991 10.9667 123.574 11.3333 124.058 11.85C124.558 12.3667 124.808 13.1 124.808 14.05C124.808 15.3 124.266 16.3 123.183 17.05C122.099 17.8 120.624 18.175 118.758 18.175ZM128.499 8.65C127.932 8.65 127.449 8.45833 127.049 8.075C126.649 7.675 126.449 7.175 126.449 6.575C126.449 5.95833 126.64 5.45833 127.024 5.075C127.424 4.69167 127.915 4.5 128.499 4.5C129.082 4.5 129.565 4.69167 129.949 5.075C130.349 5.45833 130.549 5.95833 130.549 6.575C130.549 7.175 130.349 7.675 129.949 8.075C129.549 8.45833 129.065 8.65 128.499 8.65ZM128.499 18.175C127.932 18.175 127.449 17.9833 127.049 17.6C126.649 17.2 126.449 16.7 126.449 16.1C126.449 15.4833 126.64 14.9833 127.024 14.6C127.424 14.2167 127.915 14.025 128.499 14.025C129.082 14.025 129.565 14.2167 129.949 14.6C130.349 14.9833 130.549 15.4833 130.549 16.1C130.549 16.7 130.349 17.2 129.949 17.6C129.549 17.9833 129.065 18.175 128.499 18.175Z" fill="url(#paint0_linear_6855_18954)"/>
<defs>
<linearGradient id="paint0_linear_6855_18954" x1="13.1061" y1="12" x2="132" y2="12" gradientUnits="userSpaceOnUse">
<stop stop-color="#F7931A"/>
<stop offset="1" stop-color="#B332FF"/>
</linearGradient>
</defs>
</svg>
