<svg width="45" height="45" viewBox="0 0 45 45" fill="none" xmlns="http://www.w3.org/2000/svg">
    <circle cx="22.5" cy="22.5" r="22.5" fill="#000"/>
    <path d="M22.5 30.569a6.538 6.538 0 0 1-6.534-6.535c0-3.505 5.915-9.696 6.166-9.956l.31-.326.317.318c.26.26 6.275 6.45 6.275 9.956A6.54 6.54 0 0 1 22.5 30.57zm-.05-15.554a44.87 44.87 0 0 0-2.686 3.196c-1.916 2.527-2.928 4.535-2.928 5.815A5.674 5.674 0 0 0 22.5 29.69a5.674 5.674 0 0 0 5.664-5.664c0-1.28-1.029-3.288-2.978-5.815a46.518 46.518 0 0 0-2.736-3.196z" fill="url(#a)"/>
    <path d="M22.5 32.66c-4.76 0-8.626-3.874-8.626-8.626 0-4.652 6.492-11.144 6.768-11.412a.445.445 0 0 1 .62 0 .445.445 0 0 1 0 .619c-.067.067-6.51 6.51-6.51 10.793 0 4.275 3.481 7.756 7.756 7.756 4.276 0 7.756-3.48 7.756-7.756 0-1.757-1.138-4.183-3.296-7.037-1.657-2.183-3.322-3.84-3.339-3.857a.43.43 0 0 1 0-.619.43.43 0 0 1 .62 0c.284.276 6.893 6.853 6.893 11.513-.016 4.752-3.881 8.626-8.642 8.626z" fill="url(#b)"/>
    <path d="M22.5 34.752c-5.79 0-10.5-4.71-10.5-10.5 0-2.393 1.205-5.338 3.572-8.743 1.75-2.51 3.464-4.3 3.54-4.376a.437.437 0 0 1 .619-.008.437.437 0 0 1 .008.619 39.103 39.103 0 0 0-3.455 4.275c-2.234 3.204-3.414 6.049-3.414 8.233 0 5.304 4.317 9.63 9.63 9.63 5.313 0 9.63-4.318 9.63-9.63 0-2.184-1.188-5.029-3.439-8.233a39.243 39.243 0 0 0-3.489-4.275.437.437 0 0 1 .009-.62.437.437 0 0 1 .619.009c.293.301 7.17 7.446 7.17 13.119 0 5.79-4.71 10.5-10.5 10.5z" fill="url(#c)"/>
    <defs>
        <linearGradient id="a" x1="22.5" y1="30.568" x2="22.5" y2="13.751" gradientUnits="userSpaceOnUse">
            <stop stop-color="#05AAC5"/>
            <stop offset="1" stop-color="#71E0EC"/>
        </linearGradient>
        <linearGradient id="b" x1="22.508" y1="32.659" x2="22.508" y2="12.389" gradientUnits="userSpaceOnUse">
            <stop stop-color="#05AAC5"/>
            <stop offset="1" stop-color="#71E0EC"/>
        </linearGradient>
        <linearGradient id="c" x1="22.5" y1="34.751" x2="22.5" y2="10.999" gradientUnits="userSpaceOnUse">
            <stop stop-color="#05AAC5"/>
            <stop offset="1" stop-color="#71E0EC"/>
        </linearGradient>
    </defs>
</svg>
