<svg width="170" height="120" viewBox="0 0 170 120" fill="none" xmlns="http://www.w3.org/2000/svg">
<ellipse cx="44.4998" cy="19.615" rx="19.4998" ry="19.4439" fill="#2270C5"/>
<path d="M49.6235 22.199C49.6235 19.8413 48.0112 19.0328 44.7866 18.6948C42.4833 18.4247 42.0226 17.8863 42.0226 16.9435C42.0226 16.0007 42.791 15.3943 44.3259 15.3943C45.7079 15.3943 46.4763 15.7986 46.8596 16.8093C46.9369 17.0114 47.1673 17.1456 47.3976 17.1456H48.6266C48.9344 17.1456 49.1647 16.9435 49.1647 16.6734V16.6055C48.857 15.1226 47.475 13.9777 45.7097 13.8435V12.2264C45.7097 11.9564 45.4794 11.7542 45.0961 11.6879H43.9445C43.6368 11.6879 43.4064 11.8901 43.3309 12.2264V13.7756C41.0276 14.0457 39.5682 15.3927 39.5682 17.0777C39.5682 19.3012 41.1031 20.1777 44.3278 20.514C46.4781 20.8504 47.1691 21.2547 47.1691 22.3333C47.1691 23.4119 46.0949 24.1525 44.6355 24.1525C42.6399 24.1525 41.9489 23.4119 41.7186 22.4012C41.6412 22.1311 41.4109 21.9969 41.1805 21.9969H39.8759C39.5682 21.9969 39.3379 22.199 39.3379 22.4691V22.537C39.6456 24.222 40.8728 25.4348 43.4064 25.7712V27.3883C43.4064 27.6584 43.6368 27.8605 44.02 27.9268H45.1717C45.4794 27.9268 45.7097 27.7247 45.7853 27.3883V25.7712C48.0868 25.4332 49.6235 24.0183 49.6235 22.199Z" fill="white"/>
<path d="M40.8479 29.0628C35.2914 27.1255 32.4413 21.1079 34.5083 15.7826C35.5769 12.8775 37.9277 10.6647 40.8479 9.62718C41.1334 9.4894 41.2753 9.2819 41.2753 8.93495V7.96716C41.2753 7.68993 41.1334 7.48243 40.8479 7.41437C40.776 7.41437 40.6341 7.41437 40.5623 7.48409C33.7954 9.55912 30.0905 16.5445 32.2276 23.1166C33.5099 26.9894 36.5736 29.9642 40.5623 31.2092C40.8479 31.347 41.1317 31.2092 41.2035 30.932C41.2753 30.8623 41.2753 30.7942 41.2753 30.6548V29.687C41.2753 29.4778 41.0616 29.2022 40.8479 29.0628ZM48.3978 7.48243C48.1123 7.34465 47.8285 7.48243 47.7567 7.75965C47.6849 7.82937 47.6849 7.89744 47.6849 8.03688V9.00467C47.6849 9.2819 47.8986 9.55746 48.1123 9.69691C53.6688 11.6342 56.5188 17.6518 54.4518 22.9771C53.3833 25.8822 51.0324 28.095 48.1123 29.1325C47.8268 29.2703 47.6849 29.4778 47.6849 29.8247V30.7925C47.6849 31.0698 47.8268 31.2773 48.1123 31.3453C48.1841 31.3453 48.326 31.3453 48.3978 31.2756C55.1648 29.2006 58.8696 22.2152 56.7325 15.6431C55.4503 11.7022 52.3164 8.72745 48.3978 7.48243Z" fill="white"/>
<path d="M114.925 98.442V71.7057C114.924 70.5336 114.61 69.3823 114.016 68.3675C113.422 67.3527 112.568 66.51 111.54 65.924L87.8462 52.5558C86.8171 51.9691 85.6497 51.6603 84.4614 51.6603C83.2731 51.6603 82.1057 51.9691 81.0766 52.5558L57.3829 65.924C56.3548 66.51 55.5008 67.3527 54.9067 68.3675C54.3126 69.3823 53.9993 70.5336 53.998 71.7057V98.442C53.9993 99.6142 54.3126 100.765 54.9067 101.78C55.5008 102.795 56.3548 103.638 57.3829 104.224L81.0766 117.592C82.1057 118.179 83.2731 118.487 84.4614 118.487C85.6497 118.487 86.8171 118.179 87.8462 117.592L111.54 104.224C112.568 103.638 113.422 102.795 114.016 101.78C114.61 100.765 114.924 99.6142 114.925 98.442Z" fill="url(#paint0_linear_1980_35236)" stroke="#3C3C3C" stroke-width="1.5" stroke-linecap="round" stroke-linejoin="round"/>
<g clip-path="url(#clip0_1980_35236)">
<path d="M83.5857 77.6719C83.7838 77.4913 84.0904 77.4913 84.2885 77.6719C85.7522 79.0058 87.5641 79.7338 89.4315 79.737C89.6598 79.7374 89.8658 79.886 89.9141 80.1091C90.1556 81.224 90.2211 82.3811 90.1067 83.5247C89.979 84.7997 89.6303 86.0321 89.0811 87.1486C88.532 88.2652 87.7936 89.2432 86.91 90.0245C86.0263 90.8058 85.0153 91.3745 83.9371 91.6967C82.8589 91.3745 81.848 90.8058 80.9643 90.0245C80.0806 89.2432 79.3423 88.2652 78.7931 87.1486C78.244 86.0321 77.8952 84.7997 77.7676 83.5247C77.6531 82.3811 77.7187 81.224 77.9602 80.1091C78.0085 79.886 78.2145 79.7374 78.4427 79.737C80.3101 79.7338 82.1221 79.0058 83.5857 77.6719Z" fill="white"/>
</g>
<ellipse cx="126.5" cy="30.5834" rx="19.4998" ry="19.4439" fill="#44C4A0"/>
<path fill-rule="evenodd" clip-rule="evenodd" d="M114.385 31.607L118.745 22.4756C118.759 22.4449 118.782 22.4189 118.811 22.4008C118.84 22.3828 118.873 22.3734 118.907 22.3738H133.739C133.773 22.3737 133.806 22.3833 133.834 22.4015C133.863 22.4197 133.885 22.4457 133.899 22.4763L138.259 31.6077C138.276 31.6417 138.281 31.6801 138.274 31.7172C138.267 31.7544 138.249 31.7884 138.221 31.8142L126.446 43.0641C126.413 43.0961 126.368 43.1139 126.322 43.1139C126.276 43.1139 126.231 43.0961 126.198 43.0641L114.423 31.8135C114.396 31.7877 114.377 31.7537 114.37 31.7165C114.363 31.6794 114.369 31.641 114.385 31.607ZM126.339 32.577C127.314 32.577 127.75 32.551 127.835 32.5447L127.832 32.544C130.821 32.4119 133.051 31.8922 133.051 31.2712C133.051 30.6503 130.82 30.1305 127.832 29.9977V32.0277C127.748 32.0354 127.283 32.0741 126.353 32.0741C125.578 32.0741 125.017 32.0411 124.821 32.027V29.9963C121.827 30.1298 119.592 30.6489 119.592 31.2712C119.592 31.8936 121.827 32.4133 124.821 32.5447C125.014 32.5538 125.565 32.577 126.339 32.577ZM127.835 29.7871V29.7877L127.834 29.787C127.835 29.787 127.835 29.787 127.835 29.7871ZM127.835 27.9706V29.7871C131.218 29.943 133.76 30.6117 133.76 31.4131C133.76 32.2146 131.216 32.8833 127.834 33.0385V38.8636H124.821V33.0406C121.432 32.8847 118.883 32.216 118.883 31.4138C118.883 30.6117 121.432 29.9423 124.821 29.787V27.9706H120.651V25.1996H132.005V27.9706H127.835Z" fill="white"/>
<defs>
<linearGradient id="paint0_linear_1980_35236" x1="114.925" y1="84.4663" x2="53.998" y2="84.4663" gradientUnits="userSpaceOnUse">
<stop stop-color="#08B197"/>
<stop offset="1" stop-color="#107839"/>
</linearGradient>
<clipPath id="clip0_1980_35236">
<rect width="19.1515" height="19.1515" fill="white" transform="translate(74.3613 74.9391)"/>
</clipPath>
</defs>
</svg>
