<svg width="82" height="89" viewBox="0 0 82 89" fill="none" xmlns="http://www.w3.org/2000/svg">
<g id="Vaults icons">
<g id="Hyper" filter="url(#filter0_d_328_14433)">
<path id="Vector" d="M71 53.9027V27.0973C70.9988 25.9221 70.6902 24.7679 70.1051 23.7505C69.5201 22.733 68.6791 21.8881 67.6667 21.3006L44.3333 7.89781C43.3199 7.30965 42.1702 7 41 7C39.8298 7 38.6801 7.30965 37.6667 7.89781L14.3333 21.3006C13.3209 21.8881 12.4799 22.733 11.8949 23.7505C11.3098 24.7679 11.0012 25.9221 11 27.0973V53.9027C11.0012 55.0779 11.3098 56.2321 11.8949 57.2495C12.4799 58.267 13.3209 59.1118 14.3333 59.6994L37.6667 73.1022C38.6801 73.6904 39.8298 74 41 74C42.1702 74 43.3199 73.6904 44.3333 73.1022L67.6667 59.6994C68.6791 59.1118 69.5201 58.267 70.1051 57.2495C70.6902 56.2321 70.9988 55.0779 71 53.9027Z" fill="url(#paint0_linear_328_14433)"/>
</g>
<path id="Vector_2" d="M40.1422 50.5348C40.677 50.8425 41.323 50.8425 41.8578 50.5348C44.1066 49.241 50 45.3408 50 40V32.9984C50 32.5789 49.7381 32.204 49.3443 32.0596L41.6885 29.2525C41.244 29.0895 40.756 29.0895 40.3115 29.2525L32.6557 32.0596C32.2619 32.204 32 32.5789 32 32.9984V40C32 45.3408 37.8934 49.241 40.1422 50.5348Z" fill="white"/>
</g>
<defs>
<filter id="filter0_d_328_14433" x="0" y="0" width="82" height="89" filterUnits="userSpaceOnUse" color-interpolation-filters="sRGB">
<feFlood flood-opacity="0" result="BackgroundImageFix"/>
<feColorMatrix in="SourceAlpha" type="matrix" values="0 0 0 0 0 0 0 0 0 0 0 0 0 0 0 0 0 0 127 0" result="hardAlpha"/>
<feOffset dy="4"/>
<feGaussianBlur stdDeviation="5.5"/>
<feComposite in2="hardAlpha" operator="out"/>
<feColorMatrix type="matrix" values="0 0 0 0 0.545098 0 0 0 0 0.780392 0 0 0 0 0.266667 0 0 0 0.5 0"/>
<feBlend mode="normal" in2="BackgroundImageFix" result="effect1_dropShadow_328_14433"/>
<feBlend mode="normal" in="SourceGraphic" in2="effect1_dropShadow_328_14433" result="shape"/>
</filter>
<linearGradient id="paint0_linear_328_14433" x1="72" y1="60" x2="10" y2="22" gradientUnits="userSpaceOnUse">
<stop stop-color="#00B09B"/>
<stop offset="1" stop-color="#96C93D"/>
</linearGradient>
</defs>
</svg>
