<svg width="52" height="58" viewBox="0 0 52 58" fill="none" xmlns="http://www.w3.org/2000/svg">
<path d="M50.8303 40.1446V18.1401C50.8293 17.1754 50.5721 16.2279 50.0846 15.3927C49.597 14.5575 48.8963 13.8639 48.0525 13.3816L28.6081 2.37935C27.7635 1.89652 26.8055 1.64233 25.8303 1.64233C24.8551 1.64233 23.8971 1.89652 23.0525 2.37935L3.6081 13.3816C2.76438 13.8639 2.0636 14.5575 1.57605 15.3927C1.0885 16.2279 0.831322 17.1754 0.830322 18.1401V40.1446C0.831322 41.1093 1.0885 42.0568 1.57605 42.892C2.0636 43.7272 2.76438 44.4207 3.6081 44.9031L23.0525 55.9053C23.8971 56.3881 24.8551 56.6423 25.8303 56.6423C26.8055 56.6423 27.7635 56.3881 28.6081 55.9053L48.0525 44.9031C48.8963 44.4207 49.597 43.7272 50.0846 42.892C50.5721 42.0568 50.8293 41.1093 50.8303 40.1446Z" fill="url(#paint0_linear_1309_37228)" stroke="white" stroke-width="1.5" stroke-linecap="round" stroke-linejoin="round"/>
<path d="M25.4183 22.654C25.6164 22.4734 25.923 22.4734 26.1211 22.654C27.5847 23.9879 29.3967 24.716 31.2641 24.7191C31.4924 24.7195 31.6983 24.8681 31.7466 25.0912C31.9881 26.2062 32.0537 27.3632 31.9392 28.5069C31.8116 29.7818 31.4628 31.0142 30.9137 32.1308C30.3645 33.2473 29.6262 34.2253 28.7425 35.0066C27.8588 35.7879 26.8479 36.3566 25.7697 36.6788C24.6915 36.3566 23.6805 35.7879 22.7968 35.0066C21.9132 34.2253 21.1748 33.2473 20.6257 32.1308C20.0765 31.0142 19.7278 29.7818 19.6002 28.5069C19.4857 27.3632 19.5513 26.2062 19.7927 25.0912C19.8411 24.8681 20.047 24.7195 20.2753 24.7191C22.1427 24.716 23.9546 23.9879 25.4183 22.654Z" fill="white"/>
<defs>
<linearGradient id="paint0_linear_1309_37228" x1="50.8303" y1="28.6423" x2="0.830322" y2="28.6423" gradientUnits="userSpaceOnUse">
<stop stop-color="#08B197"/>
<stop offset="1" stop-color="#107839"/>
</linearGradient>
</defs>
</svg>
