<svg width="60" height="67" viewBox="0 0 60 67" fill="none" xmlns="http://www.w3.org/2000/svg">
<path d="M60 46.9027V20.0972C59.9988 18.9221 59.6902 17.7679 59.1051 16.7505C58.5201 15.733 57.6791 14.8881 56.6667 14.3006L33.3333 0.897814C32.3199 0.309645 31.1702 0 30 0C28.8298 0 27.6801 0.309645 26.6667 0.897814L3.33333 14.3006C2.32087 14.8881 1.47993 15.733 0.894872 16.7505C0.309809 17.7679 0.00119914 18.9221 0 20.0972V46.9027C0.00119914 48.0779 0.309809 49.2321 0.894872 50.2495C1.47993 51.267 2.32087 52.1119 3.33333 52.6994L26.6667 66.1022C27.6801 66.6904 28.8298 67 30 67C31.1702 67 32.3199 66.6904 33.3333 66.1022L56.6667 52.6994C57.6791 52.1119 58.5201 51.267 59.1051 50.2495C59.6902 49.2321 59.9988 48.0779 60 46.9027Z" fill="url(#paint0_linear_140_10785)"/>
<path d="M29.1422 43.5348C29.677 43.8425 30.323 43.8425 30.8578 43.5348C33.1066 42.241 39 38.3408 39 33V25.9984C39 25.5789 38.7381 25.204 38.3443 25.0596L30.6885 22.2525C30.244 22.0895 29.756 22.0895 29.3115 22.2525L21.6557 25.0596C21.2619 25.204 21 25.5789 21 25.9984V33C21 38.3408 26.8934 42.241 29.1422 43.5348Z" fill="white"/>
<defs>
<linearGradient id="paint0_linear_140_10785" x1="61" y1="53" x2="-0.999999" y2="15" gradientUnits="userSpaceOnUse">
<stop stop-color="#00B09B"/>
<stop offset="1" stop-color="#96C93D"/>
</linearGradient>
</defs>
</svg>
