<svg width="53" height="57" viewBox="0 0 53 57" fill="none" xmlns="http://www.w3.org/2000/svg">
<path d="M51.697 39.4598V17.4553C51.696 16.4906 51.4388 15.5431 50.9513 14.7079C50.4637 13.8727 49.7629 13.1791 48.9192 12.6968L29.4748 1.69453C28.6302 1.21171 27.6722 0.95752 26.697 0.95752C25.7218 0.95752 24.7638 1.21171 23.9192 1.69453L4.47477 12.6968C3.63105 13.1791 2.93027 13.8727 2.44272 14.7079C1.95517 15.5431 1.69799 16.4906 1.69699 17.4553V39.4598C1.69799 40.4245 1.95517 41.3719 2.44272 42.2071C2.93027 43.0423 3.63105 43.7359 4.47477 44.2183L23.9192 55.2205C24.7638 55.7033 25.7218 55.9575 26.697 55.9575C27.6722 55.9575 28.6302 55.7033 29.4748 55.2205L48.9192 44.2183C49.7629 43.7359 50.4637 43.0423 50.9513 42.2071C51.4388 41.3719 51.696 40.4245 51.697 39.4598Z" fill="url(#paint0_linear_1747_31579)" stroke="#3C3C3C" stroke-width="1.5" stroke-linecap="round" stroke-linejoin="round"/>
<path d="M26.2849 21.9692C26.483 21.7886 26.7897 21.7886 26.9878 21.9692C28.4514 23.3031 30.2634 24.0311 32.1307 24.0343C32.359 24.0347 32.565 24.1833 32.6133 24.4064C32.8548 25.5214 32.9203 26.6784 32.8059 27.822C32.6783 29.097 32.3295 30.3294 31.7804 31.4459C31.2312 32.5625 30.4929 33.5405 29.6092 34.3218C28.7255 35.1031 27.7145 35.6718 26.6364 35.994C25.5582 35.6718 24.5472 35.1031 23.6635 34.3218C22.7798 33.5405 22.0415 32.5625 21.4923 31.4459C20.9432 30.3294 20.5944 29.097 20.4668 27.822C20.3524 26.6784 20.4179 25.5214 20.6594 24.4064C20.7077 24.1833 20.9137 24.0347 21.142 24.0343C23.0093 24.0311 24.8213 23.3031 26.2849 21.9692Z" fill="white"/>
<defs>
<linearGradient id="paint0_linear_1747_31579" x1="51.697" y1="27.9575" x2="1.69699" y2="27.9575" gradientUnits="userSpaceOnUse">
<stop stop-color="#08B197"/>
<stop offset="1" stop-color="#107839"/>
</linearGradient>
</defs>
</svg>
