<svg width="20" height="22" viewBox="0 0 20 22" fill="none" xmlns="http://www.w3.org/2000/svg">
<g id="Vaults icons">
<g id="Hyper">
<path id="Vector" d="M19.5 15.2009V6.79914C19.4996 6.4308 19.4019 6.06904 19.2166 5.75014C19.0314 5.43125 18.7651 5.16643 18.4444 4.98227L11.0556 0.781404C10.7346 0.597053 10.3706 0.5 10 0.5C9.62942 0.5 9.26537 0.597053 8.94444 0.781404L1.55556 4.98227C1.23494 5.16643 0.968646 5.43125 0.783376 5.75014C0.598106 6.06904 0.50038 6.4308 0.5 6.79914V15.2009C0.50038 15.5692 0.598106 15.931 0.783376 16.2499C0.968646 16.5688 1.23494 16.8336 1.55556 17.0177L8.94444 21.2186C9.26537 21.4029 9.62942 21.5 10 21.5C10.3706 21.5 10.7346 21.4029 11.0556 21.2186L18.4444 17.0177C18.7651 16.8336 19.0314 16.5688 19.2166 16.2499C19.4019 15.931 19.4996 15.5692 19.5 15.2009Z" fill="url(#paint0_linear_500_15013)"/>
</g>
<path id="Vector_2" d="M9.79278 14.3946C9.92326 14.4642 10.0767 14.4642 10.2072 14.3946C10.8861 14.0323 13 12.7628 13 11V8.90474C13 8.69227 12.8657 8.503 12.6652 8.43281L10.1652 7.55781C10.0582 7.52038 9.94176 7.52038 9.83482 7.55781L7.33482 8.43281C7.13428 8.503 7 8.69227 7 8.90474V11C7 12.7628 9.11389 14.0323 9.79278 14.3946Z" fill="white"/>
</g>
<defs>
<linearGradient id="paint0_linear_500_15013" x1="0.5" y1="4.5" x2="21.2357" y2="10.4104" gradientUnits="userSpaceOnUse">
<stop stop-color="#7EC54D"/>
<stop offset="1" stop-color="#00B09B"/>
</linearGradient>
</defs>
</svg>
