<svg width="174" height="170" viewBox="0 0 174 170" fill="none" xmlns="http://www.w3.org/2000/svg">
<path d="M118.221 102.792V74.3654C118.22 73.1191 117.894 71.8951 117.277 70.8161C116.66 69.7372 115.773 68.8412 114.706 68.2181L90.0977 54.0046C89.0289 53.3809 87.8164 53.0525 86.5822 53.0525C85.3481 53.0525 84.1356 53.3809 83.0668 54.0046L58.4588 68.2181C57.391 68.8412 56.5041 69.7372 55.8871 70.8161C55.2701 71.8951 54.9446 73.1191 54.9434 74.3654V102.792C54.9446 104.039 55.2701 105.263 55.8871 106.342C56.5041 107.42 57.391 108.316 58.4588 108.94L83.0668 123.153C84.1356 123.777 85.3481 124.105 86.5822 124.105C87.8164 124.105 89.0289 123.777 90.0977 123.153L114.706 108.94C115.773 108.316 116.66 107.42 117.277 106.342C117.894 105.263 118.22 104.039 118.221 102.792Z" fill="url(#paint0_linear_450_51070)"/>
<path d="M85.7687 99.2735C86.2768 99.5645 86.8862 99.5645 87.3944 99.2735C89.6928 97.9575 96.0732 93.7872 96.0732 88.0487V80.5413C96.0732 80.1457 95.8266 79.792 95.4555 79.6552L87.2349 76.6242C86.8132 76.4687 86.3498 76.4687 85.9281 76.6242L77.7076 79.6552C77.3364 79.792 77.0898 80.1457 77.0898 80.5413V88.0487C77.0898 93.7872 83.4703 97.9575 85.7687 99.2735Z" fill="white"/>
<g filter="url(#filter0_f_450_51070)">
<ellipse cx="87.056" cy="158.21" rx="79.3333" ry="3.78948" fill="black" fill-opacity="0.3"/>
</g>
<ellipse cx="86.1096" cy="18.9474" rx="18.8889" ry="18.9474" fill="#44C4A0"/>
<path fill-rule="evenodd" clip-rule="evenodd" d="M74.3728 19.9447L78.596 11.0465C78.6098 11.0166 78.632 10.9912 78.6598 10.9736C78.6877 10.956 78.72 10.9469 78.7529 10.9473H93.1201C93.1529 10.9472 93.185 10.9566 93.2125 10.9743C93.2401 10.992 93.2621 11.0173 93.2757 11.0472L97.4988 19.9454C97.5149 19.9785 97.52 20.0159 97.5134 20.0521C97.5067 20.0883 97.4887 20.1214 97.462 20.1467L86.0563 31.1092C86.0239 31.1404 85.9807 31.1578 85.9358 31.1578C85.8909 31.1578 85.8478 31.1404 85.8154 31.1092L74.4097 20.146C74.3829 20.1208 74.3649 20.0876 74.3583 20.0514C74.3517 20.0152 74.3568 19.9778 74.3728 19.9447ZM85.9521 20.89C86.8958 20.89 87.3189 20.8646 87.4008 20.8585L87.398 20.8578C90.2933 20.7291 92.453 20.2226 92.453 19.6175C92.453 19.0124 90.2926 18.5059 87.398 18.3766V20.3547C87.3168 20.3622 86.8658 20.3999 85.9651 20.3999C85.2145 20.3999 84.6713 20.3677 84.4816 20.354V18.3752C81.5809 18.5052 79.4157 19.0111 79.4157 19.6175C79.4157 20.224 81.5809 20.7305 84.4816 20.8585C84.6686 20.8674 85.2015 20.89 85.9521 20.89ZM87.4008 18.1713V18.1719L87.4001 18.1712C87.4003 18.1712 87.4005 18.1712 87.4008 18.1713ZM87.4008 16.4012V18.1713C90.6778 18.3233 93.1401 18.9749 93.1401 19.7558C93.1401 20.5368 90.6754 21.1884 87.4001 21.3397V27.016H84.4809V21.3417C81.1981 21.1898 78.7293 20.5381 78.7293 19.7565C78.7293 18.9748 81.1981 18.3225 84.4809 18.1712V16.4012H80.442V13.7009H91.4404V16.4012H87.4008Z" fill="white"/>
<ellipse cx="154.112" cy="60.6315" rx="18.8889" ry="18.9474" fill="url(#paint1_linear_450_51070)"/>
<path d="M159.075 63.1497C159.075 60.8522 157.513 60.0643 154.389 59.7349C152.158 59.4718 151.712 58.947 151.712 58.0283C151.712 57.1096 152.456 56.5187 153.943 56.5187C155.282 56.5187 156.026 56.9127 156.397 57.8975C156.472 58.0945 156.695 58.2253 156.919 58.2253H158.109C158.407 58.2253 158.63 58.0283 158.63 57.7652V57.699C158.332 56.254 156.993 55.1383 155.284 55.0075V53.4317C155.284 53.1686 155.06 52.9716 154.689 52.907H153.574C153.276 52.907 153.052 53.104 152.979 53.4317V54.9413C150.748 55.2045 149.334 56.5171 149.334 58.1591C149.334 60.3259 150.821 61.1799 153.945 61.5077C156.028 61.8355 156.697 62.2294 156.697 63.2805C156.697 64.3315 155.657 65.0533 154.243 65.0533C152.31 65.0533 151.641 64.3315 151.417 63.3467C151.342 63.0835 151.119 62.9527 150.896 62.9527H149.633C149.334 62.9527 149.111 63.1497 149.111 63.4128V63.479C149.409 65.121 150.598 66.3029 153.052 66.6306V68.2064C153.052 68.4696 153.276 68.6666 153.647 68.7312H154.762C155.06 68.7312 155.284 68.5342 155.357 68.2064V66.6306C157.586 66.3013 159.075 64.9225 159.075 63.1497Z" fill="white"/>
<path d="M150.574 69.838C145.192 67.9503 142.431 62.0863 144.434 56.8969C145.469 54.0661 147.746 51.9098 150.574 50.8987C150.851 50.7645 150.988 50.5623 150.988 50.2242V49.2811C150.988 49.011 150.851 48.8088 150.574 48.7424C150.505 48.7424 150.367 48.7424 150.298 48.8104C143.743 50.8324 140.154 57.6394 142.224 64.0437C143.466 67.8176 146.434 70.7164 150.298 71.9296C150.574 72.0639 150.849 71.9296 150.919 71.6595C150.988 71.5916 150.988 71.5252 150.988 71.3893V70.4463C150.988 70.2424 150.781 69.9739 150.574 69.838ZM157.888 48.8088C157.611 48.6745 157.336 48.8088 157.267 49.0789C157.197 49.1468 157.197 49.2132 157.197 49.349V50.2921C157.197 50.5623 157.404 50.8308 157.611 50.9667C162.994 52.8545 165.754 58.7184 163.752 63.9078C162.717 66.7386 160.44 68.895 157.611 69.906C157.335 70.0402 157.197 70.2424 157.197 70.5805V71.5236C157.197 71.7938 157.335 71.996 157.611 72.0623C157.681 72.0623 157.818 72.0623 157.888 71.9943C164.443 69.9723 168.032 63.1653 165.961 56.7611C164.719 52.9208 161.684 50.022 157.888 48.8088Z" fill="white"/>
<ellipse cx="21.8889" cy="60.6315" rx="18.8889" ry="18.9474" fill="#2270C5"/>
<path d="M26.852 63.1497C26.852 60.8522 25.2902 60.0643 22.1667 59.7349C19.9355 59.4718 19.4893 58.947 19.4893 58.0283C19.4893 57.1096 20.2336 56.5187 21.7204 56.5187C23.0591 56.5187 23.8034 56.9127 24.1747 57.8975C24.2496 58.0945 24.4728 58.2253 24.6959 58.2253H25.8864C26.1845 58.2253 26.4076 58.0283 26.4076 57.7652V57.699C26.1095 56.254 24.7708 55.1383 23.0609 55.0075V53.4317C23.0609 53.1686 22.8378 52.9716 22.4665 52.907H21.3509C21.0529 52.907 20.8298 53.104 20.7566 53.4317V54.9413C18.5254 55.2045 17.1118 56.5171 17.1118 58.1591C17.1118 60.3259 18.5986 61.1799 21.7222 61.5077C23.8052 61.8355 24.4745 62.2294 24.4745 63.2805C24.4745 64.3315 23.4339 65.0533 22.0203 65.0533C20.0872 65.0533 19.4179 64.3315 19.1948 63.3467C19.1198 63.0835 18.8967 62.9527 18.6736 62.9527H17.4099C17.1118 62.9527 16.8887 63.1497 16.8887 63.4128V63.479C17.1868 65.121 18.3755 66.3029 20.8298 66.6306V68.2064C20.8298 68.4696 21.0529 68.6666 21.4241 68.7312H22.5397C22.8378 68.7312 23.0609 68.5342 23.1341 68.2064V66.6306C25.3634 66.3013 26.852 64.9225 26.852 63.1497Z" fill="white"/>
<path d="M18.3518 69.838C12.9694 67.9503 10.2087 62.0863 12.2109 56.8969C13.246 54.0661 15.5232 51.9098 18.3518 50.8987C18.6284 50.7645 18.7658 50.5623 18.7658 50.2242V49.2811C18.7658 49.011 18.6284 48.8088 18.3518 48.7424C18.2822 48.7424 18.1448 48.7424 18.0752 48.8104C11.5203 50.8324 7.9315 57.6394 10.0016 64.0437C11.2437 67.8176 14.2115 70.7164 18.0752 71.9296C18.3518 72.0639 18.6267 71.9296 18.6963 71.6595C18.7658 71.5916 18.7658 71.5252 18.7658 71.3893V70.4463C18.7658 70.2424 18.5588 69.9739 18.3518 69.838ZM25.6652 48.8088C25.3887 48.6745 25.1137 48.8088 25.0442 49.0789C24.9746 49.1468 24.9746 49.2132 24.9746 49.349V50.2921C24.9746 50.5623 25.1816 50.8308 25.3887 50.9667C30.771 52.8545 33.5318 58.7184 31.5296 63.9078C30.4945 66.7386 28.2173 68.895 25.3887 69.906C25.1121 70.0402 24.9746 70.2424 24.9746 70.5805V71.5236C24.9746 71.7938 25.1121 71.996 25.3887 72.0623C25.4582 72.0623 25.5957 72.0623 25.6652 71.9943C32.2202 69.9723 35.809 63.1653 33.7388 56.7611C32.4967 52.9208 29.4611 50.022 25.6652 48.8088Z" fill="white"/>
<defs>
<filter id="filter0_f_450_51070" x="0.1671" y="146.865" width="173.777" height="22.69" filterUnits="userSpaceOnUse" color-interpolation-filters="sRGB">
<feFlood flood-opacity="0" result="BackgroundImageFix"/>
<feBlend mode="normal" in="SourceGraphic" in2="BackgroundImageFix" result="shape"/>
<feGaussianBlur stdDeviation="3.77778" result="effect1_foregroundBlur_450_51070"/>
</filter>
<linearGradient id="paint0_linear_450_51070" x1="119.276" y1="109.258" x2="53.6914" y2="69.2835" gradientUnits="userSpaceOnUse">
<stop stop-color="#00B09B"/>
<stop offset="1" stop-color="#96C93D"/>
</linearGradient>
<linearGradient id="paint1_linear_450_51070" x1="173" y1="69.7262" x2="135.185" y2="53.1387" gradientUnits="userSpaceOnUse">
<stop stop-color="#DE4B4B"/>
<stop offset="1" stop-color="#9A2280"/>
</linearGradient>
</defs>
</svg>
