<svg xmlns="http://www.w3.org/2000/svg" width="40" height="40" fill="none" viewBox="0 0 40 40">
    <path fill="#000" fill-rule="evenodd" d="M20 40c11.046 0 20-8.954 20-20S31.046 0 20 0 0 8.954 0 20s8.954 20 20 20zm8.33-25.827c.297-.077.567.198.485.495l-1.38 4.966c-.083.297-.454.393-.67.174l-1.048-1.06-6.524 6.392c-.418.41-1.087.42-1.517.02l-2.653-2.46-3.17 3c-.213.2-.484.3-.756.3-.29 0-.58-.114-.795-.34-.418-.438-.4-1.129.04-1.544l3.917-3.707c.42-.398 1.08-.401 1.503-.008l2.64 2.448 5.777-5.658-1.044-1.057c-.217-.22-.114-.591.185-.668l5.01-1.293z" clip-rule="evenodd"/>
</svg>
