<svg width="100" height="100" viewBox="0 0 100 100" fill="none" xmlns="http://www.w3.org/2000/svg">
    <path fill-rule="evenodd" clip-rule="evenodd" d="M98.12 44.13c-.806 2.026-1.641 4.123-1.641 5.869 0 1.75.834 3.849 1.646 5.882l.004.01c1.251 3.144 2.544 6.395 1.471 9.564-1.12 3.306-4.38 5.329-7.254 7.111-1.925 1.193-3.743 2.32-4.74 3.635-1.019 1.343-1.587 3.368-2.185 5.512l-.002.007c-.923 3.302-1.878 6.715-4.768 8.733-2.215 1.546-4.941 1.745-7.066 1.745h-.002c-.978 0-1.98-.049-2.988-.098h-.013a56.439 56.439 0 0 0-2.802-.093c-1.465 0-2.55.125-3.415.394-1.563.488-3.218 1.777-4.966 3.144C56.724 97.634 53.69 100 50 100c-3.694 0-6.725-2.366-9.399-4.455l-.02-.016c-1.744-1.36-3.39-2.642-4.95-3.127-.865-.268-1.948-.395-3.412-.395-.88 0-1.781.043-2.682.087l-.12.005c-1.01.052-2.02.099-3.001.099-2.127 0-4.852-.2-7.066-1.745-2.89-2.015-3.845-5.428-4.768-8.727l-.002-.009c-.599-2.146-1.167-4.173-2.185-5.514-.997-1.316-2.817-2.444-4.74-3.637C4.775 70.78 1.517 68.76.398 65.453c-1.073-3.169.22-6.42 1.471-9.564l.004-.01C2.683 53.849 3.52 51.75 3.52 50c0-1.747-.834-3.843-1.642-5.872l-.003-.008-.004-.01C.62 40.967-.674 37.716.4 34.547c1.118-3.306 4.377-5.327 7.252-7.11l.011-.006c1.921-1.192 3.734-2.317 4.729-3.63 1.017-1.34 1.583-3.364 2.182-5.506l.002-.01.002-.007c.924-3.301 1.878-6.715 4.768-8.73 2.217-1.549 4.944-1.746 7.073-1.746.938 0 1.9.045 2.867.09l.13.007c.941.047 1.88.092 2.798.092 1.466 0 2.553-.125 3.419-.395 1.567-.487 3.22-1.776 4.97-3.143l.005-.004C43.282 2.363 46.312 0 50.001 0c3.691 0 6.723 2.366 9.396 4.453 1.748 1.365 3.403 2.656 4.968 3.143.868.27 1.953.395 3.419.395.88 0 1.782-.043 2.683-.087l.115-.005a61.91 61.91 0 0 1 2.997-.097c2.126 0 4.853.197 7.068 1.743 2.893 2.018 3.847 5.431 4.77 8.734l.002.004.003.01c.599 2.142 1.165 4.165 2.184 5.506.992 1.307 2.793 2.425 4.702 3.611l.038.024.002.001c2.874 1.782 6.134 3.803 7.252 7.11 1.074 3.172-.22 6.427-1.475 9.574l-.004.012z" fill="url(#buu2tgzyua)"/>
    <path d="m35.625 51.875 7.005 7.544c.623.67 1.666.72 2.35.113l21.27-18.907" stroke="#fff" stroke-width="5" stroke-linecap="round"/>
    <defs>
        <linearGradient id="buu2tgzyua" x1="50" y1="0" x2="50" y2="100" gradientUnits="userSpaceOnUse">
            <stop stop-color="#50BB35"/>
            <stop offset="1" stop-color="#265A19" stop-opacity=".98"/>
        </linearGradient>
    </defs>
</svg>
