<svg width="23" height="23" viewBox="0 0 23 23" fill="none" xmlns="http://www.w3.org/2000/svg">
    <path fill-rule="evenodd" clip-rule="evenodd" d="M21.725 11.47c0-.4.184-.881.361-1.346l.002-.003c.275-.722.56-1.468.324-2.196-.246-.759-.963-1.222-1.595-1.631h-.001l-.008-.006c-.42-.272-.816-.528-1.035-.828-.224-.308-.348-.772-.48-1.264v-.002h-.001c-.203-.758-.413-1.541-1.05-2.004-.487-.355-1.087-.4-1.555-.4-.215 0-.437.01-.66.022l-.024.001c-.198.01-.397.02-.59.02-.323 0-.562-.029-.753-.09-.344-.112-.708-.408-1.093-.721C12.98.541 12.312 0 11.5 0c-.811 0-1.478.542-2.066 1.02l-.001.002c-.385.313-.749.609-1.094.72-.19.062-.43.091-.752.091-.202 0-.408-.01-.615-.021l-.03-.001c-.212-.01-.424-.021-.63-.021-.468 0-1.068.045-1.556.4-.636.463-.846 1.246-1.049 2.003v.004c-.133.492-.257.956-.48 1.263-.22.301-.619.56-1.041.833l-.003.002c-.632.408-1.349.872-1.595 1.63-.236.727.048 1.473.323 2.195l.001.002.001.002c.178.465.361.946.361 1.347s-.184.883-.362 1.348v.002c-.276.722-.56 1.468-.324 2.195.246.758.963 1.222 1.596 1.631.423.274.823.533 1.043.835.224.307.349.772.48 1.265v.002c.204.757.414 1.54 1.05 2.002.487.354 1.086.4 1.554.4.216 0 .438-.01.66-.023h.027c.198-.01.396-.02.59-.02.322 0 .56.029.75.09.344.111.706.405 1.09.717l.004.004c.588.48 1.255 1.022 2.068 1.022.812 0 1.48-.543 2.068-1.022.384-.314.748-.61 1.092-.721.19-.062.43-.09.752-.09.201 0 .408.01.616.02h.003c.222.012.442.023.657.023.468 0 1.068-.046 1.555-.4.636-.463.846-1.246 1.05-2.004v-.001c.131-.492.256-.957.48-1.265.22-.302.62-.56 1.043-.834.633-.408 1.35-.872 1.596-1.63.236-.728-.048-1.474-.323-2.195l-.001-.002c-.18-.467-.363-.948-.363-1.35zm-5.518-1.763a1 1 0 0 0-1.414-1.414L9.655 13.43l-1.323-1.985a1 1 0 0 0-1.664 1.11L7.99 14.54a2 2 0 0 0 3.079.305l5.137-5.138z" fill="#fff"/>
</svg>
