<svg width="90" height="116" viewBox="0 0 90 116" fill="none" xmlns="http://www.w3.org/2000/svg">
<path d="M0 69.6626V30.5423C0 28.8549 0.851136 27.2813 2.26339 26.3577L39.9734 1.69651C41.5625 0.657252 43.6032 0.607824 45.2408 1.56892L87.5308 26.3888C89.0604 27.2865 90 28.9274 90 30.701V69.5042C90 71.2839 89.054 72.9295 87.5161 73.825L45.2253 98.4523C43.5953 99.4015 41.5699 99.3526 39.9876 98.3259L2.27835 73.857C0.857494 72.935 0 71.3564 0 69.6626Z" fill="white"/>
<path d="M0 85.6626V46.5423C0 44.8549 0.851136 43.2813 2.26339 42.3577L39.9734 17.6965C41.5625 16.6573 43.6032 16.6078 45.2408 17.5689L87.5308 42.3888C89.0604 43.2865 90 44.9274 90 46.701V85.5042C90 87.2839 89.054 88.9295 87.5161 89.825L45.2253 114.452C43.5953 115.401 41.5699 115.353 39.9876 114.326L2.27835 89.857C0.857494 88.935 0 87.3564 0 85.6626Z" fill="white"/>
<path d="M0 77.6626V38.5423C0 36.8549 0.851136 35.2813 2.26339 34.3577L39.9734 9.69651C41.5625 8.65725 43.6032 8.60782 45.2408 9.56892L87.5308 34.3888C89.0604 35.2865 90 36.9274 90 38.701V77.5042C90 79.2839 89.054 80.9295 87.5161 81.825L45.2253 106.452C43.5953 107.401 41.5699 107.353 39.9876 106.326L2.27835 81.857C0.857494 80.935 0 79.3564 0 77.6626Z" fill="url(#paint0_linear)"/>
<path d="M32.154 62.598C31.5193 62.598 31 63.1173 31 63.752C31 64.3867 31.4904 64.9059 32.1251 64.9059C35.7313 64.9059 39.1933 63.4923 41.7321 60.9824L40.203 59.2803C38.097 61.3863 35.1832 62.598 32.154 62.598Z" fill="white"/>
<path d="M44.0112 55.0682L45.5402 56.7703C47.6462 54.6643 50.56 53.4526 53.5604 53.4526H54.5124L53.3296 54.6354C52.868 55.097 52.868 55.8182 53.3296 56.251C53.7623 56.7126 54.5124 56.7126 54.9452 56.251L58.0609 53.1064C58.2629 52.9044 58.4071 52.5871 58.4071 52.2986C58.4071 51.9812 58.2917 51.6928 58.0609 51.4908L54.9163 48.3462C54.6855 48.1154 54.397 48 54.1085 48C53.82 48 53.5315 48.1154 53.3007 48.3462C52.8392 48.8078 52.8392 49.529 53.3007 49.9618L54.4836 51.1446H53.5315C49.9542 51.1735 46.5211 52.5871 44.0112 55.0682Z" fill="white"/>
<path d="M58.0609 62.9152L54.9452 59.7706C54.7144 59.5398 54.4259 59.4244 54.1374 59.4244C53.8489 59.4244 53.5604 59.5398 53.3296 59.7706C52.8969 60.2034 52.8969 60.9534 53.3296 61.3862L54.5124 62.569H53.5604C50.3292 62.569 47.2423 61.1842 45.1075 58.7609L42.3379 55.7028C39.7414 52.789 36.0487 51.1157 32.154 51.1157C31.5193 51.1157 31 51.635 31 52.2697C31 52.9044 31.4904 53.4237 32.1251 53.4237C35.3851 53.4237 38.4721 54.8085 40.6069 57.2318L43.3476 60.3188C45.9441 63.2326 49.6369 64.877 53.5316 64.877H54.5124L53.3296 66.0598C52.8969 66.4926 52.8969 67.2427 53.3296 67.6754C53.7624 68.1081 54.5124 68.1081 54.9452 67.6754L58.0898 64.5308C58.5225 64.0692 58.5225 63.348 58.0609 62.9152Z" fill="white"/>
<defs>
<linearGradient id="paint0_linear" x1="90" y1="58" x2="10" y2="58" gradientUnits="userSpaceOnUse">
<stop stop-color="#9625AE"/>
<stop offset="1" stop-color="#3735BB"/>
</linearGradient>
</defs>
</svg>
