<svg width="26" height="20" viewBox="0 0 26 20" fill="none" xmlns="http://www.w3.org/2000/svg">
    <path d="M1.088 14.598c-.598 0-1.088.52-1.088 1.154 0 .635.463 1.154 1.061 1.154 3.401 0 6.666-1.414 9.06-3.924L8.68 11.28c-1.986 2.106-4.735 3.318-7.592 3.318zM12.271 7.068l1.442 1.702c1.987-2.106 4.735-3.317 7.565-3.317h.898L21.06 6.635c-.435.462-.435 1.183 0 1.616a1.011 1.011 0 0 0 1.524 0l2.938-3.145c.19-.202.327-.519.327-.807 0-.318-.11-.606-.327-.808L22.556.346A1.046 1.046 0 0 0 21.794 0c-.272 0-.544.115-.761.346-.436.462-.436 1.183 0 1.616l1.115 1.183h-.898c-3.374.028-6.611 1.442-8.979 3.923z" fill="#AAA"/>
    <path d="m25.522 14.915-2.938-3.144a1.045 1.045 0 0 0-.762-.347c-.272 0-.544.116-.762.347-.408.432-.408 1.182 0 1.615l1.116 1.183h-.898c-3.048 0-5.96-1.385-7.973-3.808l-2.612-3.058C8.244 4.789 4.762 3.116 1.088 3.116.49 3.116 0 3.635 0 4.27c0 .634.463 1.154 1.061 1.154 3.075 0 5.986 1.385 8 3.808l2.585 3.087c2.448 2.914 5.931 4.558 9.605 4.558h.925L21.06 18.06c-.408.433-.408 1.183 0 1.616a1.056 1.056 0 0 0 1.524 0l2.966-3.145c.408-.462.408-1.183-.028-1.616z" fill="#BDBDBD"/>
</svg>
