<svg width="132" height="141" viewBox="0 0 132 141" fill="none" xmlns="http://www.w3.org/2000/svg">
<g filter="url(#filter0_d_6283_14448)">
<path d="M61.5726 23.5849L29.6694 44.1243C27.3822 45.5968 26 48.1306 26 50.8508V82.5905C26 85.3931 27.4666 87.9914 29.8661 89.4396L61.6329 108.613C64.08 110.09 67.1294 110.149 69.632 108.768L101.865 90.9808C104.416 89.5732 106 86.89 106 83.9765V48.0235C106 45.11 104.416 42.4268 101.865 41.0192L69.7684 23.3071C67.1932 21.886 64.0458 21.9927 61.5726 23.5849Z" fill="url(#paint0_linear_6283_14448)"/>
</g>
<path d="M55.0104 70.1383C54.4547 70.1383 54 70.6056 54 71.1769C54 71.7481 54.4294 72.2155 54.9851 72.2155C58.1426 72.2155 61.1738 70.9432 63.3966 68.6843L62.0579 67.1523C60.2139 69.0478 57.6627 70.1383 55.0104 70.1383Z" fill="white"/>
<path d="M65.392 63.3613L66.7308 64.8933C68.5748 62.9978 71.126 61.9073 73.753 61.9073H74.5866L73.5509 62.9719C73.1468 63.3873 73.1468 64.0364 73.5509 64.4259C73.9298 64.8413 74.5866 64.8413 74.9655 64.4259L77.6935 61.5957C77.8703 61.414 77.9966 61.1284 77.9966 60.8687C77.9966 60.5831 77.8956 60.3235 77.6935 60.1417L74.9402 57.3116C74.7381 57.1039 74.4855 57 74.2329 57C73.9803 57 73.7277 57.1039 73.5257 57.3116C73.1215 57.727 73.1215 58.3761 73.5257 58.7656L74.5613 59.8301H73.7277C70.5955 59.8561 67.5896 61.1284 65.392 63.3613Z" fill="white"/>
<path d="M77.6936 70.4235L74.9656 67.5934C74.7635 67.3856 74.5109 67.2818 74.2583 67.2818C74.0057 67.2818 73.7531 67.3856 73.5511 67.5934C73.1722 67.9828 73.1722 68.6579 73.5511 69.0474L74.5867 70.1119H73.7531C70.924 70.1119 68.2212 68.8656 66.352 66.6846L63.9271 63.9323C61.6537 61.3099 58.4205 59.804 55.0104 59.804C54.4547 59.804 54 60.2713 54 60.8425C54 61.4138 54.4294 61.8811 54.9851 61.8811C57.8395 61.8811 60.5423 63.1274 62.4115 65.3085L64.8112 68.0867C67.0846 70.7091 70.3178 72.1891 73.7279 72.1891H74.5867L73.5511 73.2536C73.1722 73.6431 73.1722 74.3182 73.5511 74.7077C73.9299 75.0971 74.5867 75.0971 74.9656 74.7077L77.7189 71.8775C78.0978 71.4621 78.0978 70.813 77.6936 70.4235Z" fill="white"/>
<defs>
<filter id="filter0_d_6283_14448" x="0" y="0.781031" width="132" height="139.453" filterUnits="userSpaceOnUse" color-interpolation-filters="sRGB">
<feFlood flood-opacity="0" result="BackgroundImageFix"/>
<feColorMatrix in="SourceAlpha" type="matrix" values="0 0 0 0 0 0 0 0 0 0 0 0 0 0 0 0 0 0 127 0" result="hardAlpha"/>
<feOffset dy="4.46975"/>
<feGaussianBlur stdDeviation="13"/>
<feComposite in2="hardAlpha" operator="out"/>
<feColorMatrix type="matrix" values="0 0 0 0 0.343284 0 0 0 0 0.333333 0 0 0 0 1 0 0 0 0.3 0"/>
<feBlend mode="normal" in2="BackgroundImageFix" result="effect1_dropShadow_6283_14448"/>
<feBlend mode="normal" in="SourceGraphic" in2="effect1_dropShadow_6283_14448" result="shape"/>
</filter>
<linearGradient id="paint0_linear_6283_14448" x1="66" y1="21" x2="97.7286" y2="92.2503" gradientUnits="userSpaceOnUse">
<stop stop-color="#DC1FFF"/>
<stop offset="1" stop-color="#5855FF"/>
</linearGradient>
</defs>
</svg>
