<svg width="25" height="19" fill="none" xmlns="http://www.w3.org/2000/svg">
    <path d="M1.052 13.314c-.578 0-1.052.474-1.052 1.053 0 .578.447 1.052 1.026 1.052a12.47 12.47 0 0 0 8.762-3.579l-1.394-1.552a10.416 10.416 0 0 1-7.342 3.026zM11.867 6.447l1.394 1.552a10.401 10.401 0 0 1 7.315-3.026h.868l-1.078 1.079c-.421.42-.421 1.079 0 1.473a1.017 1.017 0 0 0 1.473 0l2.842-2.868c.184-.184.316-.473.316-.736a.955.955 0 0 0-.316-.737L21.813.316A1.039 1.039 0 0 0 21.076 0a1.04 1.04 0 0 0-.737.316c-.42.42-.42 1.079 0 1.473l1.079 1.079h-.868c-3.263.026-6.394 1.316-8.683 3.579z" fill="#000"/>
    <path d="m24.68 13.604-2.84-2.868a1.04 1.04 0 0 0-.738-.316c-.263 0-.526.105-.736.316a1.065 1.065 0 0 0 0 1.473l1.079 1.079h-.869a10.28 10.28 0 0 1-7.71-3.473l-2.525-2.79a12.435 12.435 0 0 0-9.289-4.183C.474 2.842 0 3.315 0 3.894c0 .58.447 1.053 1.026 1.053C4 4.947 6.815 6.21 8.762 8.42l2.5 2.815a12.41 12.41 0 0 0 9.288 4.158h.895l-1.08 1.078a1.065 1.065 0 0 0 0 1.474 1.065 1.065 0 0 0 1.474 0l2.868-2.868c.395-.421.395-1.079-.026-1.473z" fill="#000"/>
</svg>
