<svg width="80" height="90" viewBox="0 0 80 90" fill="none" xmlns="http://www.w3.org/2000/svg">
<path d="M35.5726 2.58487L3.66943 23.1243C1.38224 24.5968 0 27.1306 0 29.8508L0 61.5905C0 64.3931 1.46663 66.9914 3.86608 68.4396L35.6329 87.613C38.08 89.0901 41.1294 89.1492 43.632 87.7682L75.8652 69.9808C78.4161 68.5732 80 65.89 80 62.9765V27.0235C80 24.11 78.4161 21.4268 75.8652 20.0192L43.7684 2.3071C41.1932 0.885985 38.0458 0.992659 35.5726 2.58487Z" fill="url(#paint0_linear_12042_48504)"/>
<path d="M28.0104 49.1383C27.4547 49.1383 27 49.6056 27 50.1769C27 50.7481 27.4294 51.2155 27.9851 51.2155C31.1426 51.2155 34.1738 49.9432 36.3966 47.6843L35.0579 46.1523C33.2139 48.0478 30.6627 49.1383 28.0104 49.1383Z" fill="white"/>
<path d="M38.3921 42.3613L39.7309 43.8933C41.5748 41.9978 44.1261 40.9073 46.7531 40.9073H47.5866L46.551 41.9719C46.1468 42.3873 46.1468 43.0364 46.551 43.4259C46.9299 43.8413 47.5866 43.8413 47.9655 43.4259L50.6936 40.5957C50.8704 40.414 50.9967 40.1284 50.9967 39.8687C50.9967 39.5831 50.8957 39.3235 50.6936 39.1417L47.9403 36.3116C47.7382 36.1039 47.4856 36 47.233 36C46.9804 36 46.7278 36.1039 46.5257 36.3116C46.1216 36.727 46.1216 37.3761 46.5257 37.7656L47.5614 38.8301H46.7278C43.5956 38.8561 40.5897 40.1284 38.3921 42.3613Z" fill="white"/>
<path d="M50.6937 49.4235L47.9656 46.5934C47.7635 46.3856 47.5109 46.2818 47.2583 46.2818C47.0057 46.2818 46.7531 46.3856 46.5511 46.5934C46.1722 46.9828 46.1722 47.6579 46.5511 48.0474L47.5867 49.1119H46.7531C43.924 49.1119 41.2212 47.8656 39.352 45.6846L36.9271 42.9323C34.6537 40.3099 31.4205 38.804 28.0104 38.804C27.4547 38.804 27 39.2713 27 39.8425C27 40.4138 27.4294 40.8811 27.9851 40.8811C30.8395 40.8811 33.5423 42.1274 35.4115 44.3085L37.8112 47.0867C40.0846 49.7091 43.3178 51.1891 46.7279 51.1891H47.5867L46.5511 52.2536C46.1722 52.6431 46.1722 53.3182 46.5511 53.7077C46.9299 54.0971 47.5867 54.0971 47.9656 53.7077L50.7189 50.8775C51.0978 50.4621 51.0978 49.813 50.6937 49.4235Z" fill="white"/>
<defs>
<linearGradient id="paint0_linear_12042_48504" x1="40" y1="4.4005e-06" x2="71.7286" y2="71.2503" gradientUnits="userSpaceOnUse">
<stop stop-color="#DC1FFF"/>
<stop offset="1" stop-color="#5855FF"/>
</linearGradient>
</defs>
</svg>
