<svg width="38" height="38" viewBox="0 0 38 38" fill="none" xmlns="http://www.w3.org/2000/svg">
    <path fill-rule="evenodd" clip-rule="evenodd" d="M37.286 16.77c-.307.77-.624 1.566-.624 2.23 0 .664.317 1.462.626 2.235l.001.004c.475 1.194.967 2.43.56 3.634-.427 1.256-1.665 2.025-2.758 2.702-.731.453-1.422.881-1.8 1.381-.388.51-.604 1.28-.831 2.095v.003c-.352 1.254-.714 2.551-1.813 3.318-.841.587-1.877.663-2.685.663-.372 0-.753-.018-1.136-.037h-.005a21.539 21.539 0 0 0-1.065-.035c-.556 0-.968.047-1.297.15-.594.185-1.223.675-1.887 1.194C21.555 37.101 20.402 38 19 38c-1.404 0-2.556-.9-3.572-1.693l-.008-.006c-.662-.516-1.288-1.004-1.88-1.188-.33-.102-.74-.15-1.297-.15-.335 0-.677.016-1.019.032l-.046.003c-.384.02-.767.037-1.14.037-.809 0-1.844-.076-2.686-.663-1.097-.766-1.46-2.062-1.811-3.316l-.001-.004c-.227-.815-.443-1.585-.83-2.095-.38-.5-1.07-.929-1.801-1.382-1.094-.678-2.332-1.446-2.757-2.703-.408-1.204.083-2.44.559-3.634l.001-.004c.307-.771.625-1.569.625-2.234 0-.664-.317-1.46-.624-2.231v-.003l-.002-.004c-.476-1.195-.967-2.43-.56-3.634.426-1.256 1.664-2.024 2.757-2.702l.004-.002c.73-.453 1.419-.88 1.797-1.38.386-.51.601-1.278.829-2.092l.001-.004v-.002c.352-1.255.714-2.552 1.813-3.318.842-.588 1.878-.663 2.687-.663.357 0 .723.017 1.09.034l.05.002c.357.018.713.036 1.062.036.557 0 .97-.048 1.3-.15.595-.185 1.223-.675 1.888-1.195l.002-.002C16.447.898 17.6 0 19.001 0c1.402 0 2.554.9 3.57 1.692.664.519 1.293 1.01 1.887 1.195.33.102.743.15 1.3.15.334 0 .677-.017 1.02-.033l.043-.002c.383-.02.767-.037 1.139-.037.808 0 1.844.075 2.686.662 1.1.767 1.462 2.064 1.813 3.319v.002l.001.003c.228.814.443 1.583.83 2.093.377.496 1.062.921 1.787 1.372l.014.009h.001c1.093.678 2.331 1.445 2.756 2.702.408 1.205-.084 2.442-.56 3.638l-.002.005z" fill="url(#j3u5hspjca)"/>
    <path d="m12.773 20.182 2.226 3.339a1.682 1.682 0 0 0 2.588.256l8.64-8.64" stroke="#fff" stroke-width="3" stroke-linecap="round"/>
    <defs>
        <linearGradient id="j3u5hspjca" x1="19" y1="0" x2="19" y2="38" gradientUnits="userSpaceOnUse">
            <stop stop-color="#50BB35"/>
            <stop offset="1" stop-color="#265A19" stop-opacity=".98"/>
        </linearGradient>
    </defs>
</svg>
