<svg width="20" height="15" viewBox="0 0 20 15" fill="none" xmlns="http://www.w3.org/2000/svg">
<g id="Group 27534">
<path id="Vector" d="M2.03113 5.38021C2.03113 2.19204 4.23602 0.0614084 7.6353 0H20C19.2627 1.63358 18.6689 2.46185 18.219 2.48479H7.52546C5.67419 2.4898 4.55972 3.57049 4.55972 5.38021C4.55972 7.17032 5.6707 8.32764 7.46304 8.33483L12.1984 8.32763C12.8862 8.33483 13.4756 8.92989 13.4756 9.64631C13.4756 10.3627 12.939 10.7771 12.2642 10.8115L7.60066 10.8169C4.27823 10.8169 2.08218 8.61351 2.03201 5.48946L2.03113 5.38021Z" fill="#AEA0B9"/>
<path id="Vector_2" d="M17.969 9.61983C17.969 12.808 15.7641 14.9387 12.3648 15H0C0.737509 13.3664 1.33121 12.5382 1.7811 12.5152H12.4746C14.3259 12.5102 15.4405 11.4296 15.4405 9.61983C15.4405 7.82973 14.3294 6.67241 12.5371 6.66522L7.80167 6.67241C7.11389 6.66522 6.52447 6.07016 6.52447 5.35374C6.52447 4.6373 7.06111 4.22295 7.73593 4.18852L12.3994 4.18311C15.7219 4.18311 17.9179 6.38654 17.968 9.51059L17.969 9.61983Z" fill="#AEA0B9"/>
</g>
</svg>
