<svg width="21" height="26" fill="none" xmlns="http://www.w3.org/2000/svg">
    <path d="M5.597 1.394A1 1 0 0 1 6.517 0h8.966a1 1 0 0 1 .92 1.394l-2.143 5a1 1 0 0 1-.92.606H8.66a1 1 0 0 1-.92-.606l-2.143-5z" fill="#000"/>
    <path fill-rule="evenodd" clip-rule="evenodd" d="M10 9C4.477 9 0 13.477 0 19v4a3 3 0 0 0 3 3h15a3 3 0 0 0 3-3v-4c0-5.523-4.477-10-10-10h-1zm.841 13.118h-.74a.307.307 0 0 1-.307-.307v-.651l-.182-.019c-.565-.063-1.098-.217-1.456-.424a.305.305 0 0 1-.13-.391l.283-.63a.313.313 0 0 1 .279-.181.3.3 0 0 1 .145.037c.43.229 1.008.366 1.545.366.63 0 1.09-.258 1.09-.612 0-.23-.134-.506-1.115-.826-1.063-.334-2.146-.821-2.146-1.915 0-.83.604-1.479 1.616-1.735l.153-.039v-.686c0-.168.14-.305.308-.305h.727c.17 0 .307.137.307.305v.617l.18.022c.432.051.815.158 1.168.324a.3.3 0 0 1 .157.174.298.298 0 0 1-.01.233l-.293.621a.31.31 0 0 1-.278.176.312.312 0 0 1-.127-.028 3.05 3.05 0 0 0-1.35-.291c-.647 0-.936.25-.936.5 0 .278.301.467 1.243.778 1.004.328 2.028.821 2.028 2.01 0 .64-.444 1.503-1.698 1.818l-.154.041v.71c0 .17-.139.308-.307.308z" fill="#000"/>
</svg>
