<svg xmlns="http://www.w3.org/2000/svg" width="50" height="50" fill="none" viewBox="0 0 50 50">
    <path fill="#fff" fill-rule="evenodd" d="M25 50c13.807 0 25-11.193 25-25S38.807 0 25 0 0 11.193 0 25s11.193 25 25 25zm-2.778-19.889l3.886 2.67c1.828 1.255 4.34.162 4.666-2.031l1.963-13.183c.115-.773-.662-1.374-1.38-1.067L12.58 24.49c-.876.373-.785 1.643.135 1.887l2.347.622c1.38.366 2.853.124 4.044-.666l7.2-4.774c.403-.267.846.275.505.616l-4.871 4.873c-.884.884-.749 2.354.282 3.062z" clip-rule="evenodd"/>
</svg>
