<svg width="30" height="30" viewBox="0 0 30 30" fill="none" xmlns="http://www.w3.org/2000/svg">
    <path d="m5.349 13.84 13.104-5.344c1.294-.556 5.681-2.337 5.681-2.337s2.025-.78 1.856 1.113c-.056.78-.506 3.506-.956 6.456l-1.406 8.737s-.113 1.28-1.069 1.503c-.956.223-2.53-.78-2.812-1.002-.225-.167-4.218-2.671-5.68-3.896-.394-.334-.844-1.001.056-1.78a213.839 213.839 0 0 0 5.905-5.566c.675-.668 1.35-2.226-1.462-.334l-7.93 5.287s-.9.557-2.588.056c-1.687-.5-3.655-1.169-3.655-1.169s-1.35-.835.956-1.725z" fill="#636363"/>
</svg>
