<svg width="26" height="27" viewBox="0 0 26 27" fill="none" xmlns="http://www.w3.org/2000/svg">
    <path fill-rule="evenodd" clip-rule="evenodd" d="M21.567 10.8c0 .208-.006.415-.018.62a8.592 8.592 0 0 0-3.217-.62c-4.765 0-8.627 3.868-8.627 8.64 0 .735.092 1.448.264 2.13C4.394 21.153 0 16.49 0 10.8 0 4.835 4.828 0 10.783 0c5.956 0 10.784 4.835 10.784 10.8zM11.096 6.225c1.034.332 1.791.83 1.643 1.758-.108.678-.511 1.007-1.047 1.122.736.357 1.11.905.753 1.854-.442 1.18-1.493 1.279-2.89 1.032l-.235.875a.42.42 0 0 1-.812-.218l.222-.83c-.212-.05-.43-.102-.653-.159l-.23.864a.42.42 0 0 1-.812-.217l.227-.85-.238-.058-.347-.083-.887-.206a.15.15 0 0 1-.101-.21l.277-.595a.15.15 0 0 1 .171-.083c.176.043.482.117.476.11.232.053.335-.088.376-.182l.536-2.004.063.014.024.006a.7.7 0 0 0-.086-.026l.383-1.43c.01-.163-.05-.368-.382-.445a5.867 5.867 0 0 0-.442-.105.15.15 0 0 1-.113-.185l.14-.524a.15.15 0 0 1 .179-.108l.989.23-.001.005c.17.04.345.077.523.114l.231-.862a.42.42 0 0 1 .812.217l-.217.811c.22.047.441.094.657.144l.222-.83a.42.42 0 0 1 .812.218l-.223.836zm-2.593 4.553c.669.165 2.13.525 2.363-.346.238-.89-1.18-1.187-1.871-1.332-.077-.016-.146-.03-.202-.043l-.45 1.682.16.04zm.63-2.459c.558.139 1.775.442 1.986-.35.217-.81-.965-1.054-1.543-1.173l-.169-.036L9 8.286l.135.033z" fill="#BDBDBD"/>
    <path fill-rule="evenodd" clip-rule="evenodd" d="M18.87 27c3.872 0 7.01-3.143 7.01-7.02s-3.138-7.02-7.01-7.02c-3.87 0-7.008 3.143-7.008 7.02S15 27 18.87 27zm-1.732-5.78c-.05 0-.097.019-.133.054l-.91.91a.094.094 0 0 0 .067.16h4.61c.05 0 .098-.02.133-.055l.912-.91a.094.094 0 0 0-.067-.16h-4.612zm-.133-3.345a.188.188 0 0 1 .133-.055h4.612c.084 0 .126.102.067.16l-.912.91a.188.188 0 0 1-.133.055h-4.61a.094.094 0 0 1-.067-.16l.91-.91zm3.768 1.633c.05 0 .097.02.132.055l.913.91c.06.059.017.16-.067.16H17.14a.188.188 0 0 1-.133-.055l-.912-.91a.094.094 0 0 1 .067-.16h4.61z" fill="#AAA"/>
</svg>
