<svg width="26" height="27" viewBox="0 0 26 27" fill="none" xmlns="http://www.w3.org/2000/svg">
<path fill-rule="evenodd" clip-rule="evenodd" d="M21.5667 10.8C21.5667 11.0083 21.5608 11.2153 21.5492 11.4207C20.555 11.0202 19.469 10.7997 18.3317 10.7997C13.5673 10.7997 9.70499 14.668 9.70499 19.4397C9.70499 20.1748 9.79664 20.8884 9.96911 21.5697C4.39397 21.1528 0 16.4903 0 10.8C0 4.83533 4.82788 0 10.7834 0C16.7388 0 21.5667 4.83533 21.5667 10.8ZM11.0956 6.22502C12.1304 6.55745 12.8872 7.05578 12.7385 7.98285C12.631 8.66148 12.2279 8.9901 11.6923 9.1053C12.4276 9.46235 12.8018 10.0099 12.4454 10.9592C12.003 12.1382 10.9521 12.2377 9.55443 11.991L9.32042 12.8658C9.2618 13.0849 9.03996 13.218 8.81902 13.1667C8.58748 13.1129 8.44654 12.878 8.50799 12.6484L8.73036 11.8175C8.51788 11.7683 8.30083 11.716 8.07717 11.6594L7.84628 12.5233C7.78775 12.7423 7.56601 12.8753 7.34522 12.824C7.11405 12.7702 6.9733 12.5357 7.03453 12.3064L7.26176 11.4554C7.18298 11.4367 7.1037 11.4174 7.02384 11.398C6.9096 11.3702 6.79418 11.3421 6.67739 11.3148L5.79043 11.1086C5.69781 11.0871 5.64844 10.9858 5.68854 10.8996L5.96565 10.3037C5.99587 10.2387 6.06783 10.2042 6.13745 10.2213C6.31308 10.2643 6.61929 10.3384 6.61342 10.3304C6.84548 10.384 6.94844 10.2429 6.989 10.1488L7.525 8.14472C7.54657 8.14954 7.56759 8.15445 7.58781 8.15917C7.59588 8.16105 7.60383 8.16291 7.61163 8.16471C7.57892 8.15245 7.54928 8.14462 7.52642 8.13921L7.90882 6.70857C7.91879 6.54615 7.85877 6.34123 7.52686 6.26397C7.53546 6.2586 7.26459 6.19832 7.08536 6.15922C7.00166 6.14096 6.9501 6.05656 6.97221 5.97379L7.11219 5.44962C7.13304 5.37151 7.21212 5.32405 7.29086 5.34239L8.27991 5.57274L8.27896 5.57669C8.44888 5.61612 8.62401 5.65354 8.80233 5.69141L9.03311 4.82887C9.09171 4.60984 9.31347 4.47678 9.53431 4.52813C9.76566 4.58193 9.9065 4.81662 9.84513 5.04609L9.62818 5.8573C9.84811 5.90412 10.0694 5.95135 10.2849 6.00147L10.5066 5.17187C10.5652 4.9527 10.7871 4.8195 11.008 4.87086C11.2395 4.92465 11.3805 5.15945 11.3191 5.38905L11.0956 6.22502ZM8.50301 10.7781C9.17178 10.9428 10.6335 11.3029 10.8659 10.432C11.1039 9.54157 9.68663 9.24492 8.99488 9.10013C8.91752 9.08394 8.84923 9.06965 8.79334 9.05664L8.34325 10.7394C8.38911 10.75 8.44285 10.7633 8.50301 10.7781ZM9.13364 8.31912C9.6912 8.4579 10.9075 8.76065 11.1193 7.96909C11.3356 7.15952 10.1536 6.91544 9.57634 6.79624C9.5114 6.78283 9.45411 6.771 9.40733 6.76012L8.99926 8.28631C9.03779 8.29526 9.083 8.30652 9.13364 8.31912Z" fill="#4E4E4E"/>
<path fill-rule="evenodd" clip-rule="evenodd" d="M18.8709 27C22.7419 27 25.8801 23.857 25.8801 19.98C25.8801 16.1029 22.7419 12.96 18.8709 12.96C14.9998 12.96 11.8617 16.1029 11.8617 19.98C11.8617 23.857 14.9998 27 18.8709 27ZM17.1384 21.2191C17.0885 21.2191 17.0409 21.239 17.0055 21.2744L16.0953 22.184C16.0355 22.2427 16.0776 22.3445 16.1617 22.3445H20.7725C20.8223 22.3445 20.8699 22.3246 20.9053 22.2892L21.8166 21.3795C21.8764 21.3209 21.8343 21.2191 21.7502 21.2191H17.1384ZM17.0055 17.8753C17.0409 17.8399 17.0885 17.82 17.1384 17.82H21.7502C21.8343 17.82 21.8764 17.9218 21.8166 17.9805L20.9053 18.8901C20.8699 18.9255 20.8223 18.9454 20.7725 18.9454H16.1617C16.0776 18.9454 16.0355 18.8436 16.0953 18.785L17.0055 17.8753ZM20.7725 19.5078C20.8223 19.5078 20.8699 19.5277 20.9053 19.5632L21.8177 20.4728C21.8775 20.5315 21.8354 20.6333 21.7513 20.6333H17.1395C17.0896 20.6333 17.042 20.6133 17.0066 20.5779L16.0953 19.6683C16.0355 19.6096 16.0776 19.5078 16.1617 19.5078H20.7725Z" fill="#444444"/>
</svg>
