<svg width="30" height="30" fill="none" xmlns="http://www.w3.org/2000/svg">
    <path fill-rule="evenodd" clip-rule="evenodd" d="M24 12c0 .11-.002.221-.005.331a9.5 9.5 0 0 0-11.664 11.664c-.11.004-.22.005-.331.005-6.627 0-12-5.373-12-12S5.373 0 12 0s12 5.373 12 12zM11.007 5.195A.714.714 0 0 1 11.5 5c.185 0 .363.07.493.195.131.125.205.295.205.472v.318c.369.104.708.287.992.535a2.4 2.4 0 0 1 .643.9.609.609 0 0 1-.076.585.655.655 0 0 1-.238.2.689.689 0 0 1-.309.073.786.786 0 0 1-.415-.113.737.737 0 0 1-.283-.311 1.071 1.071 0 0 0-.408-.46 1.144 1.144 0 0 0-.604-.172c-.51 0-1.105.224-1.105.853 0 .49.715.911 1.471 1.358 1 .59 2.134 1.259 2.134 2.492 0 1.052-.726 1.863-1.802 2.108v.3a.652.652 0 0 1-.205.472.714.714 0 0 1-.493.195.714.714 0 0 1-.493-.195.652.652 0 0 1-.205-.472v-.318a2.546 2.546 0 0 1-.986-.53 2.401 2.401 0 0 1-.643-.89.617.617 0 0 1 .076-.596.664.664 0 0 1 .242-.204.756.756 0 0 1 .717.036c.12.073.216.178.274.302.085.19.227.354.408.469.18.114.393.176.61.176.51 0 1.105-.224 1.105-.853 0-.49-.715-.911-1.471-1.357C10.133 9.976 9 9.307 9 8.074c0-1.052.727-1.863 1.802-2.108v-.3c0-.177.074-.347.205-.472z" fill="#000"/>
    <path fill-rule="evenodd" clip-rule="evenodd" d="M22 30a8 8 0 1 0 0-16 8 8 0 0 0 0 16zm1.312-9.52c.05.056.139.056.196.006l.556-.487a.156.156 0 0 0 .05-.107.153.153 0 0 0-.043-.108A2.522 2.522 0 0 0 22.262 19c-1.106 0-2.111.778-2.51 1.935h-.607a.143.143 0 0 0-.145.145v.493c0 .082.063.146.145.146h.443c-.006.095-.013.19-.013.278 0 .083.006.171.012.265l.001.02h-.443a.143.143 0 0 0-.145.145v.493c0 .082.063.145.145.145h.607c.399 1.157 1.404 1.935 2.51 1.935.67 0 1.31-.278 1.809-.784a.171.171 0 0 0 .037-.108c-.006-.044-.018-.082-.05-.107l-.55-.506c-.05-.05-.14-.05-.196.007-.297.297-.67.461-1.056.461-.563 0-1.087-.348-1.39-.904h1.44a.143.143 0 0 0 .146-.145v-.494a.143.143 0 0 0-.145-.145h-1.688a2.308 2.308 0 0 1-.02-.284c0-.089 0-.184.013-.279h1.695a.143.143 0 0 0 .145-.145v-.493a.143.143 0 0 0-.145-.146h-1.442c.304-.562.835-.904 1.391-.904.38 0 .759.158 1.056.456z" fill="#000"/>
</svg>
