<svg width="26" height="27" viewBox="0 0 26 27" fill="none" xmlns="http://www.w3.org/2000/svg">
    <path fill-rule="evenodd" clip-rule="evenodd" d="M21.567 10.8c0 .208-.006.415-.018.62a8.592 8.592 0 0 0-3.217-.62c-4.765 0-8.627 3.868-8.627 8.64 0 .735.092 1.448.264 2.13C4.394 21.153 0 16.49 0 10.8 0 4.835 4.828 0 10.783 0c5.956 0 10.784 4.835 10.784 10.8zM11.096 6.225c1.034.333 1.791.831 1.643 1.758-.108.679-.511 1.007-1.047 1.123.736.357 1.11.904.753 1.854-.442 1.179-1.493 1.278-2.89 1.031l-.235.875a.42.42 0 1 1-.812-.217l.222-.831c-.212-.05-.43-.102-.653-.158l-.23.864a.42.42 0 0 1-.813-.217l.228-.851-.238-.058-.347-.083-.826-.192a.2.2 0 0 1-.136-.28l.233-.501a.2.2 0 0 1 .23-.11c.178.043.44.106.435.099.232.053.335-.088.376-.182l.536-2.004a6.607 6.607 0 0 1 .087.02.702.702 0 0 0-.086-.025l.383-1.431c.01-.162-.05-.367-.382-.445a4.714 4.714 0 0 0-.39-.093.2.2 0 0 1-.151-.248l.114-.426a.2.2 0 0 1 .238-.143l.942.22-.001.003c.17.04.345.077.523.115l.231-.863a.42.42 0 0 1 .812.217l-.217.812c.22.046.441.094.657.144l.222-.83a.42.42 0 1 1 .812.217l-.223.836zm-2.593 4.553c.669.165 2.13.525 2.363-.346.238-.89-1.18-1.187-1.871-1.332a9.891 9.891 0 0 1-.202-.043l-.45 1.683.16.038zm.63-2.459c.558.14 1.775.442 1.986-.35.217-.81-.965-1.053-1.543-1.172a7.562 7.562 0 0 1-.169-.037L9 8.287l.135.032z" fill="#4E4E4E"/>
    <path fill-rule="evenodd" clip-rule="evenodd" d="M18.87 27c3.872 0 7.01-3.143 7.01-7.02s-3.138-7.02-7.01-7.02c-3.87 0-7.009 3.143-7.009 7.02S15 27 18.871 27zm-1.732-5.78c-.05 0-.097.02-.133.055l-.91.91a.094.094 0 0 0 .066.16h4.611c.05 0 .098-.02.133-.056l.911-.91a.094.094 0 0 0-.066-.16h-4.612zm-.133-3.345a.188.188 0 0 1 .133-.055h4.612c.084 0 .126.102.066.16l-.911.91a.188.188 0 0 1-.133.055h-4.61a.094.094 0 0 1-.067-.16l.91-.91zm3.767 1.633c.05 0 .098.02.133.055l.912.91c.06.058.018.16-.066.16h-4.612a.188.188 0 0 1-.133-.055l-.911-.91a.094.094 0 0 1 .066-.16h4.611z" fill="#444"/>
</svg>
