<svg width="18" height="15" fill="none" xmlns="http://www.w3.org/2000/svg">
    <path d="M18 1.776a7.231 7.231 0 0 1-2.121.596A3.777 3.777 0 0 0 17.503.277a7.287 7.287 0 0 1-2.345.919A3.645 3.645 0 0 0 12.462 0c-2.384 0-4.136 2.281-3.598 4.649-3.068-.158-5.789-1.665-7.61-3.956C.285 2.395.75 4.62 2.395 5.749a3.608 3.608 0 0 1-1.672-.474c-.04 1.754 1.185 3.396 2.962 3.76a3.613 3.613 0 0 1-1.668.065c.469 1.505 1.833 2.6 3.45 2.63A7.294 7.294 0 0 1 0 13.299 10.267 10.267 0 0 0 5.661 15c6.857 0 10.73-5.938 10.496-11.264A7.628 7.628 0 0 0 18 1.776z" fill="#fff"/>
</svg>
