<svg width="60" height="60" viewBox="0 0 60 60" fill="none" xmlns="http://www.w3.org/2000/svg">
<circle cx="30" cy="30" r="30" fill="#5855FF"/>
<path d="M40.6665 23.4669C39.8571 23.8287 38.9872 24.0723 38.0742 24.1821C39.0064 23.6201 39.7223 22.7295 40.0588 21.6682C39.187 22.1887 38.2208 22.5671 37.1923 22.771C36.3701 21.8878 35.1958 21.3359 33.8978 21.3359C30.9838 21.3359 28.8424 24.0732 29.5006 26.9148C25.7505 26.7256 22.4248 24.9167 20.1983 22.1675C19.0158 24.2098 19.585 26.8816 21.5943 28.2345C20.8555 28.2105 20.1588 28.0066 19.5511 27.666C19.5016 29.7711 21.0003 31.7406 23.171 32.1789C22.5358 32.3524 21.84 32.3931 21.1323 32.2565C21.7062 34.0616 23.3727 35.3749 25.349 35.4118C23.4515 36.9097 21.0608 37.5788 18.6665 37.2945C20.6639 38.5838 23.0372 39.3359 25.5855 39.3359C33.9657 39.3359 38.7003 32.2103 38.4143 25.8193C39.2961 25.1779 40.0615 24.3778 40.6665 23.4669Z" fill="white"/>
</svg>
