<svg width="30" height="30" viewBox="0 0 30 30" fill="none" xmlns="http://www.w3.org/2000/svg">
    <path d="M25 8.013a7.913 7.913 0 0 1-2.357.675 4.27 4.27 0 0 0 1.805-2.374 8.004 8.004 0 0 1-2.606 1.041A4.015 4.015 0 0 0 18.847 6c-2.65 0-4.596 2.585-3.998 5.269-3.409-.179-6.432-1.887-8.457-4.484-1.075 1.93-.557 4.453 1.27 5.73a3.95 3.95 0 0 1-1.858-.537c-.045 1.989 1.318 3.849 3.291 4.263a3.937 3.937 0 0 1-1.853.073c.521 1.705 2.036 2.945 3.833 2.98A7.993 7.993 0 0 1 5 21.072 11.25 11.25 0 0 0 11.29 23c7.618 0 11.922-6.73 11.663-12.766A8.576 8.576 0 0 0 25 8.013z" fill="#636363"/>
</svg>
