<svg width="90" height="90" viewBox="0 0 90 90" fill="none" xmlns="http://www.w3.org/2000/svg">
    <circle cx="45" cy="45" r="45" fill="#131313"/>
    <path d="M61 35.196a13.447 13.447 0 0 1-3.889 1.073 6.82 6.82 0 0 0 2.977-3.77 13.508 13.508 0 0 1-4.3 1.654A6.738 6.738 0 0 0 50.848 32c-4.371 0-7.583 4.106-6.596 8.368-5.625-.284-10.613-2.997-13.953-7.12-1.774 3.063-.92 7.07 2.094 9.1a6.707 6.707 0 0 1-3.065-.853c-.074 3.158 2.174 6.112 5.43 6.77a6.74 6.74 0 0 1-3.058.116c.86 2.708 3.36 4.677 6.325 4.733A13.547 13.547 0 0 1 28 55.938 19.073 19.073 0 0 0 38.379 59c12.57 0 19.672-10.688 19.243-20.275A13.834 13.834 0 0 0 61 35.196z" fill="#fff"/>
</svg>
