<svg width="20" height="17" viewBox="0 0 20 17" fill="none" xmlns="http://www.w3.org/2000/svg">
    <path d="M20 2.013a7.913 7.913 0 0 1-2.357.675A4.27 4.27 0 0 0 19.448.314a8.004 8.004 0 0 1-2.606 1.041A4.015 4.015 0 0 0 13.847 0c-2.65 0-4.596 2.585-3.998 5.269C6.44 5.09 3.417 3.382 1.392.785c-1.075 1.93-.557 4.453 1.27 5.73a3.95 3.95 0 0 1-1.858-.537C.76 7.967 2.122 9.827 4.095 10.241a3.937 3.937 0 0 1-1.853.073c.521 1.705 2.036 2.945 3.833 2.98A7.993 7.993 0 0 1 0 15.072 11.25 11.25 0 0 0 6.29 17c7.618 0 11.922-6.73 11.663-12.766A8.577 8.577 0 0 0 20 2.013z" fill="url(#7eba9woria)"/>
    <defs>
        <linearGradient id="7eba9woria" x1="0" y1="6.8" x2="20.491" y2="9.669" gradientUnits="userSpaceOnUse">
            <stop stop-color="#F7931A"/>
            <stop offset="1" stop-color="#AC1CC7"/>
        </linearGradient>
    </defs>
</svg>
