<svg xmlns="http://www.w3.org/2000/svg" width="50" height="50" fill="none" viewBox="0 0 50 50">
    <path fill="#fff" fill-rule="evenodd" d="M25 50c13.807 0 25-11.193 25-25S38.807 0 25 0 0 11.193 0 25s11.193 25 25 25zm-9.55-18.95c7.1 4.109 16.75.733 17.25-9.9.86-.764 1.298-1.22 1.9-2.15-.907.388-1.394.534-2.2.6.956-.674 1.342-1.146 1.7-2.2-.982.522-1.527.727-2.5.95-3.178-2.649-7.3-.58-6.75 3.6-4.313-.53-5.912-1.603-8.15-4.1-.947 2.138-.714 3.288 1.1 5.25-.681.01-1.038-.091-1.65-.45.09 2.099.729 2.973 3.1 3.9-.668.189-1.04.225-1.7.1.036 1.576 2.7 2.928 3.6 2.75-2.194 1.44-3.442 1.771-5.7 1.65z" clip-rule="evenodd"/>
</svg>
