<svg width="35" height="35" viewBox="0 0 35 35" fill="none" xmlns="http://www.w3.org/2000/svg">
    <circle cx="17.5" cy="17.5" r="17.5" fill="#0D0D0D"/>
    <path d="M23.723 13.688c-.473.211-.98.353-1.513.418a2.653 2.653 0 0 0 1.158-1.467 5.251 5.251 0 0 1-1.672.643 2.62 2.62 0 0 0-1.922-.837c-1.7 0-2.949 1.597-2.565 3.255a7.458 7.458 0 0 1-5.426-2.77 2.665 2.665 0 0 0 .814 3.54 2.609 2.609 0 0 1-1.192-.332 2.649 2.649 0 0 0 2.112 2.632c-.37.102-.777.125-1.19.046a2.637 2.637 0 0 0 2.46 1.84 5.268 5.268 0 0 1-3.898 1.099 7.417 7.417 0 0 0 4.036 1.19c4.889 0 7.65-4.156 7.484-7.884a5.38 5.38 0 0 0 1.314-1.373z" fill="#fff"/>
</svg>
