<svg width="18" height="15" viewBox="0 0 18 15" fill="none" xmlns="http://www.w3.org/2000/svg">
    <path d="M6.366 0 5.268 2.206H1.537C.685 2.206 0 2.895 0 3.75v9.706C0 14.31.685 15 1.537 15h14.926c.852 0 1.537-.689 1.537-1.544V3.75c0-.855-.685-1.544-1.537-1.544h-3.731L11.634 0H6.366zM9 3.53c2.775 0 5.049 2.284 5.049 5.073 0 2.789-2.274 5.074-5.049 5.074-2.775 0-5.049-2.285-5.049-5.074 0-2.789 2.274-5.074 5.049-5.074zm0 2.205a2.844 2.844 0 0 0-2.854 2.868A2.844 2.844 0 0 0 9 11.47a2.844 2.844 0 0 0 2.854-2.868A2.844 2.844 0 0 0 9 5.735z" fill="#fff"/>
</svg>
