<svg width="20" height="21" viewBox="0 0 20 21" fill="none" xmlns="http://www.w3.org/2000/svg">
<path d="M18.3333 9.64147V11.3582C18.3333 11.8165 17.9667 12.1915 17.5 12.2082H15.8667C14.9667 12.2082 14.1417 11.5498 14.0667 10.6498C14.0167 10.1248 14.2167 9.63315 14.5667 9.29148C14.875 8.97482 15.3 8.7915 15.7667 8.7915H17.5C17.9667 8.80817 18.3333 9.18314 18.3333 9.64147Z" fill="#1C1C1C" stroke="#636363" stroke-width="1.2" stroke-linecap="round" stroke-linejoin="round"/>
<path d="M14.5665 9.29149C14.2165 9.63316 14.0165 10.1248 14.0665 10.6498C14.1415 11.5498 14.9665 12.2082 15.8665 12.2082H17.4998V13.4165C17.4998 15.9165 15.8332 17.5832 13.3332 17.5832H5.83317C3.33317 17.5832 1.6665 15.9165 1.6665 13.4165V7.58317C1.6665 5.3165 3.03317 3.73317 5.15817 3.4665C5.37484 3.43317 5.59984 3.4165 5.83317 3.4165H13.3332C13.5498 3.4165 13.7582 3.42483 13.9582 3.45816C16.1082 3.70816 17.4998 5.29984 17.4998 7.58317V8.79151H15.7665C15.2998 8.79151 14.8748 8.97483 14.5665 9.29149Z" fill="#1C1C1C" stroke="#636363" stroke-width="1.2" stroke-linecap="round" stroke-linejoin="round"/>
<path d="M10.8335 8H5.8335" stroke="#636363" stroke-width="1.2" stroke-linecap="round" stroke-linejoin="round"/>
</svg>
