<svg width="20" height="21" viewBox="0 0 20 21" fill="none" xmlns="http://www.w3.org/2000/svg">
<path d="M18.3333 9.64147V11.3582C18.3333 11.8165 17.9667 12.1915 17.5 12.2082H15.8667C14.9667 12.2082 14.1417 11.5498 14.0667 10.6498C14.0167 10.1248 14.2167 9.63315 14.5667 9.29148C14.875 8.97482 15.3 8.7915 15.7667 8.7915H17.5C17.9667 8.80817 18.3333 9.18314 18.3333 9.64147Z" fill="white" stroke="#AEA0B9" stroke-width="1.2" stroke-linecap="round" stroke-linejoin="round"/>
<path d="M14.5667 9.29149C14.2167 9.63316 14.0168 10.1248 14.0668 10.6498C14.1418 11.5498 14.9667 12.2082 15.8667 12.2082H17.5001V13.4165C17.5001 15.9165 15.8334 17.5832 13.3334 17.5832H5.83341C3.33341 17.5832 1.66675 15.9165 1.66675 13.4165V7.58317C1.66675 5.3165 3.03342 3.73317 5.15842 3.4665C5.37508 3.43317 5.60008 3.4165 5.83341 3.4165H13.3334C13.5501 3.4165 13.7584 3.42483 13.9584 3.45816C16.1084 3.70816 17.5001 5.29984 17.5001 7.58317V8.79151H15.7667C15.3001 8.79151 14.8751 8.97483 14.5667 9.29149Z" fill="white" stroke="#AEA0B9" stroke-width="1.2" stroke-linecap="round" stroke-linejoin="round"/>
<path d="M10.8333 8H5.83325" stroke="#AEA0B9" stroke-width="1.2" stroke-linecap="round" stroke-linejoin="round"/>
</svg>
