<svg width="30" height="30" viewBox="0 0 30 30" fill="none" xmlns="http://www.w3.org/2000/svg">
<path fill-rule="evenodd" clip-rule="evenodd" d="M24.0364 19.3557C22.6757 22.262 19.9971 24.4106 16.7878 25C16.9429 24.8331 17.0835 24.6516 17.2114 24.4651C17.2863 24.3554 17.3578 24.243 17.4257 24.1289C17.5115 23.9852 17.5914 23.8386 17.6664 23.6892C17.76 23.5055 17.8457 23.319 17.9265 23.1296C18.0371 22.8689 18.1379 22.6046 18.2293 22.3368C18.3393 22.0174 18.4364 21.6945 18.5242 21.3679C18.7028 20.7059 18.8428 20.0336 18.9522 19.3557L24.0364 19.3557ZM5.9636 19.3557H11.0477C11.1571 20.0336 11.2971 20.7058 11.4756 21.3678C11.5635 21.6945 11.6606 22.0174 11.7706 22.3367C11.862 22.6046 11.9627 22.8688 12.0734 23.1295C12.1542 23.3189 12.2398 23.5054 12.3334 23.6891C12.4085 23.8385 12.4884 23.9851 12.5742 24.1289C12.6421 24.2429 12.7135 24.3554 12.7885 24.4651C12.9163 24.6516 13.057 24.833 13.2121 24.9999C10.0027 24.4107 7.32431 22.262 5.96348 19.3556L5.9636 19.3557ZM17.5029 19.3557C17.4415 19.7098 17.3707 20.0627 17.29 20.4125C17.1328 21.0904 16.9378 21.7618 16.6765 22.4064C16.4957 22.8521 16.2837 23.2899 16.0064 23.6818C15.955 23.7551 15.9007 23.8262 15.8436 23.8952C15.8029 23.9446 15.76 23.9924 15.7157 24.0389C15.6857 24.0702 15.655 24.1007 15.6229 24.1303C15.4429 24.2965 15.2122 24.4534 14.9586 24.4352C14.8229 24.425 14.695 24.367 14.5821 24.2922C14.3764 24.1572 14.2065 23.9684 14.0585 23.7717C13.8108 23.4415 13.615 23.0713 13.4458 22.694C13.2128 22.1719 13.0308 21.6275 12.8785 21.0767C12.7221 20.5106 12.5971 19.9357 12.4971 19.3556L17.5029 19.3557ZM24.585 12.097C24.8551 13.0174 25 13.9915 25 15.0005C25 16.0094 24.8551 16.9835 24.585 17.9039H19.1413C19.2577 16.7622 19.3013 15.6124 19.2806 14.4648C19.2671 13.6743 19.2219 12.8838 19.1413 12.097H24.585ZM5.41502 12.097H10.8587C10.7781 12.8838 10.7329 13.6743 10.7194 14.4648C10.6987 15.6124 10.7423 16.7622 10.8587 17.9039H5.41502C5.14493 16.9835 5 16.0094 5 15.0005C5 13.9915 5.14493 13.0174 5.41502 12.097ZM17.7053 12.097C17.791 12.8919 17.8389 13.6918 17.8531 14.4909C17.8724 15.6037 17.8295 16.7179 17.7139 17.8249C17.7111 17.851 17.7082 17.8778 17.7053 17.9039H12.2951C12.2095 17.109 12.1615 16.3091 12.1473 15.51C12.128 14.3972 12.1709 13.283 12.2865 12.176L12.2951 12.097H17.7053ZM16.7874 5.00007C19.9975 5.59018 22.6761 7.73813 24.0369 10.6452H18.952C18.8099 9.76479 18.6184 8.89085 18.3534 8.04088C18.2664 7.76203 18.1713 7.48627 18.0663 7.21405C17.9792 6.98835 17.8842 6.76476 17.7813 6.54555C17.7085 6.39017 17.6313 6.23706 17.5492 6.08684C17.4833 5.96776 17.4148 5.84948 17.3419 5.73396C17.2863 5.64549 17.2278 5.55767 17.1677 5.47196C17.0521 5.30864 16.9256 5.14889 16.7877 5.00015L16.7874 5.00007ZM13.2131 5.00007C13.0752 5.14881 12.9488 5.30857 12.8332 5.47189C12.7731 5.5576 12.7146 5.64542 12.6589 5.73388C12.586 5.84941 12.5175 5.96768 12.4516 6.08677C12.3695 6.23696 12.2924 6.39008 12.2195 6.54548C12.1167 6.7647 12.0216 6.9883 11.9346 7.21398C11.8295 7.48618 11.7345 7.76195 11.6474 8.0408C11.3824 8.89077 11.1909 9.76472 11.0489 10.6452H5.96395C7.32462 7.73814 10.0032 5.59023 13.2134 5L13.2131 5.00007ZM17.5034 10.6452C17.4034 10.066 17.2784 9.49033 17.122 8.92424C16.9769 8.39796 16.8041 7.87758 16.5854 7.37739C16.4247 7.00863 16.239 6.64717 16.0068 6.31904C15.8633 6.11586 15.7004 5.92062 15.5033 5.76879C15.379 5.67303 15.239 5.59542 15.0834 5.56998C15.0491 5.56561 15.0148 5.56415 14.9797 5.5648C14.719 5.57873 14.4947 5.74999 14.3161 5.93C14.2833 5.96273 14.2519 5.99611 14.2211 6.03094C14.1761 6.08101 14.1332 6.13318 14.0918 6.18616C14.0462 6.24498 14.0033 6.3046 13.9612 6.36552C13.6854 6.76831 13.4739 7.21549 13.2939 7.66918C13.0604 8.26008 12.8803 8.87188 12.7332 9.49032C12.6426 9.87286 12.5647 10.2583 12.4975 10.6452L17.5034 10.6452Z" fill="#3C3C3C"/>
</svg>
