<svg width="170" height="118" viewBox="0 0 170 118" fill="none" xmlns="http://www.w3.org/2000/svg">
<rect x="45.8722" y="0.872175" width="76.2556" height="38.6317" rx="19.3158" fill="url(#paint0_linear_1681_114566)" fill-opacity="0.3"/>
<rect x="45.8722" y="0.872175" width="76.2556" height="38.6317" rx="19.3158" stroke="#C27EFF" stroke-width="1.74435"/>
<path d="M61.7402 11.1564C61.9967 11.0076 62.125 10.9333 62.2608 10.9041C62.381 10.8783 62.505 10.8783 62.6252 10.9041C62.7611 10.9333 62.8893 11.0076 63.1458 11.1564L69.839 15.0369C70.1099 15.1939 70.2453 15.2725 70.344 15.3842C70.4312 15.483 70.4973 15.6001 70.5377 15.7277C70.5833 15.8719 70.5833 16.0336 70.5833 16.3571V24.0189C70.5833 24.3423 70.5833 24.504 70.5377 24.6482C70.4973 24.7758 70.4312 24.8929 70.344 24.9918C70.2453 25.1035 70.1099 25.182 69.839 25.3391L63.1458 29.2196C62.8893 29.3683 62.7611 29.4427 62.6252 29.4718C62.505 29.4976 62.381 29.4976 62.2608 29.4718C62.125 29.4427 61.9967 29.3683 61.7402 29.2196L55.0471 25.3391C54.7762 25.182 54.6407 25.1035 54.5421 24.9918C54.4548 24.8929 54.3888 24.7758 54.3484 24.6482C54.3027 24.504 54.3027 24.3423 54.3027 24.0189V16.3571C54.3027 16.0336 54.3027 15.8719 54.3484 15.7277C54.3888 15.6001 54.4548 15.483 54.5421 15.3842C54.6407 15.2725 54.7762 15.1939 55.0471 15.0369L61.7402 11.1564Z" fill="url(#paint1_linear_1681_114566)"/>
<path d="M62.443 11.2208V20.188M62.443 20.188L70.1311 15.7306M62.443 20.188L54.755 15.7306M62.443 20.188V29.1551M70.1311 24.6453L63.1458 20.5954C62.8893 20.4467 62.7611 20.3724 62.6252 20.3432C62.505 20.3174 62.381 20.3174 62.2608 20.3432C62.125 20.3724 61.9967 20.4467 61.7402 20.5954L54.755 24.6453M70.5833 24.0189V16.3571C70.5833 16.0336 70.5833 15.8719 70.5377 15.7277C70.4973 15.6001 70.4312 15.483 70.344 15.3842C70.2453 15.2725 70.1099 15.1939 69.839 15.0369L63.1458 11.1564C62.8893 11.0076 62.7611 10.9333 62.6252 10.9041C62.505 10.8783 62.381 10.8783 62.2608 10.9041C62.125 10.9333 61.9967 11.0076 61.7402 11.1564L55.0471 15.0369C54.7762 15.1939 54.6407 15.2725 54.5421 15.3842C54.4548 15.483 54.3888 15.6001 54.3484 15.7277C54.3027 15.8719 54.3027 16.0336 54.3027 16.3571V24.0189C54.3027 24.3423 54.3027 24.504 54.3484 24.6482C54.3888 24.7758 54.4548 24.8929 54.5421 24.9918C54.6407 25.1035 54.7762 25.182 55.0471 25.3391L61.7402 29.2196C61.9967 29.3683 62.125 29.4427 62.2608 29.4718C62.381 29.4976 62.505 29.4976 62.6252 29.4718C62.7611 29.4427 62.8893 29.3683 63.1458 29.2196L69.839 25.3391C70.1099 25.182 70.2453 25.1035 70.344 24.9918C70.4312 24.8929 70.4973 24.7758 70.5377 24.6482C70.5833 24.504 70.5833 24.3423 70.5833 24.0189Z" stroke="#3C3C3C" stroke-width="1.39548" stroke-linecap="round" stroke-linejoin="round"/>
<path d="M78.7155 25.188V14.613H83.3055C84.4655 14.613 85.3605 14.903 85.9905 15.483C86.6205 16.063 86.9355 16.873 86.9355 17.913C86.9355 18.953 86.6205 19.768 85.9905 20.358C85.3605 20.938 84.4655 21.228 83.3055 21.228H80.6355V25.188H78.7155ZM80.6355 19.713H83.0055C84.3855 19.713 85.0755 19.113 85.0755 17.913C85.0755 16.723 84.3855 16.128 83.0055 16.128H80.6355V19.713ZM88.5007 25.188V14.613H93.0907C94.2507 14.613 95.1457 14.893 95.7757 15.453C96.4057 16.003 96.7207 16.778 96.7207 17.778C96.7207 18.568 96.5157 19.223 96.1057 19.743C95.6957 20.253 95.1057 20.598 94.3357 20.778C94.8457 20.938 95.2657 21.323 95.5957 21.933L97.3657 25.188H95.2507L93.4207 21.813C93.2407 21.483 93.0257 21.258 92.7757 21.138C92.5357 21.018 92.2257 20.958 91.8457 20.958H90.4207V25.188H88.5007ZM90.4207 19.533H92.7607C94.1607 19.533 94.8607 18.963 94.8607 17.823C94.8607 16.693 94.1607 16.128 92.7607 16.128H90.4207V19.533ZM103.451 25.338C102.431 25.338 101.536 25.113 100.766 24.663C100.006 24.213 99.4157 23.583 98.9957 22.773C98.5757 21.953 98.3657 20.993 98.3657 19.893C98.3657 18.783 98.5757 17.823 98.9957 17.013C99.4157 16.203 100.006 15.578 100.766 15.138C101.526 14.688 102.421 14.463 103.451 14.463C104.481 14.463 105.376 14.688 106.136 15.138C106.896 15.578 107.486 16.203 107.906 17.013C108.326 17.823 108.536 18.778 108.536 19.878C108.536 20.988 108.326 21.953 107.906 22.773C107.486 23.583 106.896 24.213 106.136 24.663C105.376 25.113 104.481 25.338 103.451 25.338ZM103.451 23.688C104.421 23.688 105.176 23.353 105.716 22.683C106.256 22.013 106.526 21.083 106.526 19.893C106.526 18.693 106.256 17.763 105.716 17.103C105.186 16.443 104.431 16.113 103.451 16.113C102.481 16.113 101.726 16.443 101.186 17.103C100.646 17.763 100.376 18.693 100.376 19.893C100.376 21.083 100.646 22.013 101.186 22.683C101.726 23.353 102.481 23.688 103.451 23.688Z" fill="#3C3C3C"/>
<rect x="0.29538" y="86.2446" width="169.409" height="31.3102" rx="2.65842" fill="white"/>
<rect x="0.29538" y="86.2446" width="169.409" height="31.3102" rx="2.65842" stroke="#CACACA" stroke-width="0.590759"/>
<circle cx="13.2927" cy="101.9" r="6.94142" fill="#2270C5" stroke="white" stroke-width="0.886139"/>
<path d="M15.233 102.881C15.233 101.986 14.6224 101.679 13.4013 101.55C12.529 101.448 12.3546 101.243 12.3546 100.885C12.3546 100.527 12.6456 100.297 13.2268 100.297C13.7502 100.297 14.0412 100.45 14.1863 100.834C14.2156 100.911 14.3028 100.962 14.3901 100.962H14.8555C14.972 100.962 15.0593 100.885 15.0593 100.783V100.757C14.9427 100.194 14.4194 99.7588 13.7509 99.7078V99.0937C13.7509 98.9911 13.6637 98.9143 13.5185 98.8892H13.0824C12.9659 98.8892 12.8786 98.9659 12.85 99.0937V99.682C11.9778 99.7846 11.4251 100.296 11.4251 100.936C11.4251 101.781 12.0064 102.113 13.2275 102.241C14.0419 102.369 14.3035 102.522 14.3035 102.932C14.3035 103.342 13.8967 103.623 13.3441 103.623C12.5883 103.623 12.3267 103.342 12.2394 102.958C12.2101 102.855 12.1229 102.804 12.0357 102.804H11.5416C11.4251 102.804 11.3379 102.881 11.3379 102.984V103.009C11.4544 103.649 11.9192 104.11 12.8786 104.238V104.852C12.8786 104.954 12.9659 105.031 13.111 105.056H13.5471C13.6637 105.056 13.7509 104.98 13.7795 104.852V104.238C14.651 104.109 15.233 103.572 15.233 102.881Z" fill="white"/>
<path d="M11.9094 105.488C9.80519 104.752 8.7259 102.467 9.50866 100.444C9.91332 99.3409 10.8036 98.5005 11.9094 98.1065C12.0175 98.0542 12.0713 97.9754 12.0713 97.8436V97.4761C12.0713 97.3708 12.0175 97.292 11.9094 97.2661C11.8822 97.2661 11.8285 97.2661 11.8013 97.2926C9.23868 98.0807 7.83565 100.734 8.64496 103.23C9.13055 104.7 10.2908 105.83 11.8013 106.303C11.9094 106.355 12.0169 106.303 12.0441 106.198C12.0713 106.171 12.0713 106.145 12.0713 106.092V105.725C12.0713 105.645 11.9903 105.541 11.9094 105.488ZM14.7685 97.292C14.6604 97.2396 14.5529 97.292 14.5257 97.3972C14.4986 97.4237 14.4986 97.4496 14.4986 97.5025V97.8701C14.4986 97.9754 14.5795 98.08 14.6604 98.133C16.7646 98.8687 17.8439 101.154 17.0612 103.177C16.6565 104.28 15.7663 105.12 14.6604 105.514C14.5523 105.567 14.4986 105.645 14.4986 105.777V106.145C14.4986 106.25 14.5523 106.329 14.6604 106.355C14.6876 106.355 14.7413 106.355 14.7685 106.328C17.3311 105.54 18.7342 102.887 17.9249 100.391C17.4393 98.8946 16.2525 97.7648 14.7685 97.292Z" fill="white"/>
<circle cx="23.3357" cy="101.9" r="6.94142" fill="black" stroke="white" stroke-width="0.886139"/>
<path d="M21.2687 103.347C21.3084 103.307 21.3618 103.285 21.4176 103.285H26.588C26.6823 103.285 26.7295 103.4 26.6625 103.466L25.6408 104.495C25.6011 104.536 25.5477 104.558 25.4918 104.558H20.3227C20.2284 104.558 20.1812 104.443 20.2483 104.377L21.2687 103.347Z" fill="url(#paint2_linear_1681_114566)"/>
<path d="M21.2687 99.5006C21.3084 99.4605 21.3618 99.438 21.4176 99.438H26.588C26.6823 99.438 26.7295 99.5532 26.6625 99.6195L25.6408 100.649C25.6011 100.689 25.5477 100.711 25.4918 100.711H20.3228C20.2284 100.711 20.1812 100.596 20.2483 100.53L21.2687 99.5006Z" fill="url(#paint3_linear_1681_114566)"/>
<path d="M25.6408 101.411C25.6011 101.371 25.5477 101.349 25.4918 101.349H20.3228C20.2284 101.349 20.1812 101.464 20.2483 101.53L21.2699 102.559C21.3096 102.6 21.363 102.622 21.4189 102.622H26.5892C26.6836 102.622 26.7307 102.507 26.6637 102.44L25.6408 101.411Z" fill="url(#paint4_linear_1681_114566)"/>
<path d="M38.4613 99.2142V103.042C38.4613 103.462 38.5706 103.784 38.7891 104.008C39.0077 104.227 39.3149 104.336 39.7107 104.336C40.1124 104.336 40.4226 104.227 40.6412 104.008C40.8597 103.784 40.969 103.462 40.969 103.042V99.2142H42.2185V103.033C42.2185 103.559 42.1033 104.005 41.8729 104.371C41.6484 104.732 41.3442 105.004 40.9602 105.187C40.5821 105.37 40.1597 105.461 39.693 105.461C39.2322 105.461 38.8128 105.37 38.4347 105.187C38.0625 105.004 37.7671 104.732 37.5485 104.371C37.33 104.005 37.2207 103.559 37.2207 103.033V99.2142H38.4613ZM45.5527 105.461C45.1215 105.461 44.7316 105.388 44.383 105.24C44.0404 105.092 43.7686 104.88 43.5678 104.602C43.3669 104.324 43.2635 103.996 43.2576 103.618H44.5868C44.6046 103.872 44.6932 104.073 44.8527 104.221C45.0181 104.369 45.2426 104.442 45.5261 104.442C45.8156 104.442 46.0431 104.374 46.2085 104.239C46.3739 104.097 46.4566 103.914 46.4566 103.689C46.4566 103.506 46.4005 103.355 46.2882 103.237C46.176 103.119 46.0342 103.028 45.8629 102.963C45.6975 102.892 45.4671 102.815 45.1717 102.732C44.77 102.614 44.4421 102.499 44.1881 102.387C43.94 102.268 43.7243 102.094 43.5412 101.864C43.364 101.627 43.2753 101.314 43.2753 100.924C43.2753 100.558 43.3669 100.239 43.5501 99.9674C43.7332 99.6956 43.9902 99.4889 44.321 99.3471C44.6518 99.1994 45.0299 99.1256 45.4552 99.1256C46.0933 99.1256 46.6102 99.2821 47.006 99.5952C47.4077 99.9024 47.6292 100.334 47.6706 100.889H46.3059C46.2941 100.676 46.2026 100.502 46.0312 100.366C45.8658 100.224 45.6443 100.153 45.3666 100.153C45.1244 100.153 44.9295 100.216 44.7818 100.34C44.64 100.464 44.5691 100.644 44.5691 100.88C44.5691 101.046 44.6223 101.184 44.7286 101.297C44.8409 101.403 44.9767 101.492 45.1362 101.562C45.3017 101.627 45.532 101.704 45.8274 101.793C46.2291 101.911 46.557 102.029 46.811 102.147C47.0651 102.265 47.2836 102.443 47.4668 102.679C47.6499 102.915 47.7415 103.225 47.7415 103.609C47.7415 103.94 47.6558 104.247 47.4845 104.531C47.3132 104.815 47.0621 105.042 46.7313 105.213C46.4005 105.379 46.0076 105.461 45.5527 105.461ZM50.9792 99.2142C51.6291 99.2142 52.1991 99.3412 52.6895 99.5952C53.1857 99.8492 53.5667 100.213 53.8326 100.685C54.1043 101.152 54.2402 101.695 54.2402 102.316C54.2402 102.936 54.1043 103.479 53.8326 103.946C53.5667 104.407 53.1857 104.764 52.6895 105.018C52.1991 105.272 51.6291 105.399 50.9792 105.399H48.817V99.2142H50.9792ZM50.9349 104.345C51.5847 104.345 52.0869 104.168 52.4413 103.813C52.7958 103.459 52.973 102.96 52.973 102.316C52.973 101.672 52.7958 101.17 52.4413 100.809C52.0869 100.443 51.5847 100.26 50.9349 100.26H50.0576V104.345H50.9349ZM54.8676 102.298C54.8676 101.689 55.0034 101.146 55.2752 100.667C55.5528 100.183 55.928 99.8079 56.4006 99.542C56.8791 99.2703 57.4137 99.1344 58.0045 99.1344C58.6957 99.1344 59.3012 99.3116 59.8211 99.6661C60.3409 100.021 60.7043 100.511 60.911 101.137H59.4843C59.3426 100.842 59.1417 100.62 58.8818 100.472C58.6277 100.325 58.3324 100.251 57.9956 100.251C57.6353 100.251 57.3133 100.337 57.0297 100.508C56.7521 100.673 56.5335 100.91 56.374 101.217C56.2204 101.524 56.1436 101.884 56.1436 102.298C56.1436 102.706 56.2204 103.066 56.374 103.379C56.5335 103.686 56.7521 103.925 57.0297 104.097C57.3133 104.262 57.6353 104.345 57.9956 104.345C58.3324 104.345 58.6277 104.271 58.8818 104.123C59.1417 103.97 59.3426 103.745 59.4843 103.45H60.911C60.7043 104.082 60.3409 104.575 59.8211 104.93C59.3071 105.278 58.7016 105.453 58.0045 105.453C57.4137 105.453 56.8791 105.32 56.4006 105.054C55.928 104.782 55.5528 104.407 55.2752 103.928C55.0034 103.45 54.8676 102.906 54.8676 102.298ZM67.8571 101.713V102.759H64.0999V101.713H67.8571ZM73.4955 105.461C73.0643 105.461 72.6744 105.388 72.3258 105.24C71.9832 105.092 71.7114 104.88 71.5106 104.602C71.3097 104.324 71.2063 103.996 71.2004 103.618H72.5296C72.5473 103.872 72.636 104.073 72.7955 104.221C72.9609 104.369 73.1854 104.442 73.4689 104.442C73.7584 104.442 73.9858 104.374 74.1513 104.239C74.3167 104.097 74.3994 103.914 74.3994 103.689C74.3994 103.506 74.3433 103.355 74.231 103.237C74.1188 103.119 73.977 103.028 73.8057 102.963C73.6403 102.892 73.4099 102.815 73.1145 102.732C72.7128 102.614 72.3849 102.499 72.1309 102.387C71.8827 102.268 71.6671 102.094 71.484 101.864C71.3068 101.627 71.2181 101.314 71.2181 100.924C71.2181 100.558 71.3097 100.239 71.4928 99.9674C71.676 99.6956 71.933 99.4889 72.2638 99.3471C72.5946 99.1994 72.9727 99.1256 73.398 99.1256C74.0361 99.1256 74.553 99.2821 74.9488 99.5952C75.3505 99.9024 75.572 100.334 75.6134 100.889H74.2487C74.2369 100.676 74.1454 100.502 73.974 100.366C73.8086 100.224 73.5871 100.153 73.3094 100.153C73.0672 100.153 72.8723 100.216 72.7246 100.34C72.5828 100.464 72.5119 100.644 72.5119 100.88C72.5119 101.046 72.5651 101.184 72.6714 101.297C72.7837 101.403 72.9195 101.492 73.079 101.562C73.2444 101.627 73.4748 101.704 73.7702 101.793C74.1719 101.911 74.4998 102.029 74.7538 102.147C75.0079 102.265 75.2264 102.443 75.4096 102.679C75.5927 102.915 75.6843 103.225 75.6843 103.609C75.6843 103.94 75.5986 104.247 75.4273 104.531C75.256 104.815 75.0049 105.042 74.6741 105.213C74.3433 105.379 73.9504 105.461 73.4955 105.461ZM79.6309 105.461C79.052 105.461 78.5203 105.326 78.0359 105.054C77.5514 104.782 77.1675 104.407 76.8839 103.928C76.6003 103.444 76.4585 102.898 76.4585 102.289C76.4585 101.686 76.6003 101.146 76.8839 100.667C77.1675 100.183 77.5514 99.8049 78.0359 99.5332C78.5203 99.2614 79.052 99.1256 79.6309 99.1256C80.2158 99.1256 80.7475 99.2614 81.226 99.5332C81.7104 99.8049 82.0914 100.183 82.3691 100.667C82.6527 101.146 82.7944 101.686 82.7944 102.289C82.7944 102.898 82.6527 103.444 82.3691 103.928C82.0914 104.407 81.7104 104.782 81.226 105.054C80.7415 105.326 80.2099 105.461 79.6309 105.461ZM79.6309 104.354C80.0031 104.354 80.331 104.271 80.6145 104.106C80.8981 103.934 81.1196 103.692 81.2791 103.379C81.4386 103.066 81.5184 102.703 81.5184 102.289C81.5184 101.876 81.4386 101.515 81.2791 101.208C81.1196 100.895 80.8981 100.656 80.6145 100.49C80.331 100.325 80.0031 100.242 79.6309 100.242C79.2587 100.242 78.9279 100.325 78.6384 100.49C78.3549 100.656 78.1333 100.895 77.9738 101.208C77.8143 101.515 77.7346 101.876 77.7346 102.289C77.7346 102.703 77.8143 103.066 77.9738 103.379C78.1333 103.692 78.3549 103.934 78.6384 104.106C78.9279 104.271 79.2587 104.354 79.6309 104.354ZM84.958 104.416H86.9961V105.399H83.7174V99.2142H84.958V104.416Z" fill="#3C3C3C"/>
<rect x="93.8305" y="95.3091" width="24.1353" height="13.1815" rx="1.18152" fill="#F7F0FD"/>
<rect x="93.8305" y="95.3091" width="24.1353" height="13.1815" rx="1.18152" stroke="#636363" stroke-width="0.590759"/>
<path d="M98.0178 101.908C98.0178 100.985 98.1831 100.263 98.5138 99.7399C98.8498 99.2172 99.4044 98.9559 100.178 98.9559C100.951 98.9559 101.503 99.2172 101.834 99.7399C102.17 100.263 102.338 100.985 102.338 101.908C102.338 102.836 102.17 103.564 101.834 104.092C101.503 104.62 100.951 104.884 100.178 104.884C99.4044 104.884 98.8498 104.62 98.5138 104.092C98.1831 103.564 98.0178 102.836 98.0178 101.908ZM101.234 101.908C101.234 101.513 101.207 101.183 101.154 100.916C101.106 100.644 101.004 100.423 100.85 100.252C100.7 100.081 100.476 99.9959 100.178 99.9959C99.8791 99.9959 99.6524 100.081 99.4978 100.252C99.3484 100.423 99.2471 100.644 99.1938 100.916C99.1458 101.183 99.1218 101.513 99.1218 101.908C99.1218 102.313 99.1458 102.655 99.1938 102.932C99.2418 103.204 99.3431 103.425 99.4978 103.596C99.6524 103.761 99.8791 103.844 100.178 103.844C100.476 103.844 100.703 103.761 100.858 103.596C101.012 103.425 101.114 103.204 101.162 102.932C101.21 102.655 101.234 102.313 101.234 101.908ZM103.814 104.956C103.611 104.956 103.443 104.895 103.31 104.772C103.182 104.644 103.118 104.487 103.118 104.3C103.118 104.113 103.182 103.959 103.31 103.836C103.443 103.708 103.611 103.644 103.814 103.644C104.011 103.644 104.174 103.708 104.302 103.836C104.43 103.959 104.494 104.113 104.494 104.3C104.494 104.487 104.43 104.644 104.302 104.772C104.174 104.895 104.011 104.956 103.814 104.956ZM105.62 103.636C106.132 103.209 106.54 102.855 106.844 102.572C107.148 102.284 107.401 101.985 107.604 101.676C107.806 101.367 107.908 101.063 107.908 100.764C107.908 100.492 107.844 100.279 107.716 100.124C107.588 99.9692 107.39 99.8919 107.124 99.8919C106.857 99.8919 106.652 99.9826 106.508 100.164C106.364 100.34 106.289 100.583 106.284 100.892H105.196C105.217 100.252 105.406 99.7666 105.764 99.4359C106.126 99.1052 106.585 98.9399 107.14 98.9399C107.748 98.9399 108.214 99.1026 108.54 99.4279C108.865 99.7479 109.028 100.172 109.028 100.7C109.028 101.116 108.916 101.513 108.692 101.892C108.468 102.271 108.212 102.601 107.924 102.884C107.636 103.161 107.26 103.497 106.796 103.892H109.156V104.82H105.204V103.988L105.62 103.636ZM109.734 100.5C109.734 100.095 109.851 99.7772 110.086 99.5479C110.326 99.3186 110.632 99.2039 111.006 99.2039C111.379 99.2039 111.683 99.3186 111.918 99.5479C112.158 99.7772 112.278 100.095 112.278 100.5C112.278 100.911 112.158 101.231 111.918 101.46C111.683 101.689 111.379 101.804 111.006 101.804C110.632 101.804 110.326 101.689 110.086 101.46C109.851 101.231 109.734 100.911 109.734 100.5ZM114.87 99.2999L111.726 104.9H110.638L113.774 99.2999H114.87ZM110.998 99.8759C110.704 99.8759 110.558 100.084 110.558 100.5C110.558 100.921 110.704 101.132 110.998 101.132C111.142 101.132 111.254 101.081 111.334 100.98C111.414 100.873 111.454 100.713 111.454 100.5C111.454 100.084 111.302 99.8759 110.998 99.8759ZM113.246 103.692C113.246 103.281 113.363 102.964 113.598 102.74C113.838 102.511 114.144 102.396 114.518 102.396C114.891 102.396 115.192 102.511 115.422 102.74C115.656 102.964 115.774 103.281 115.774 103.692C115.774 104.103 115.656 104.423 115.422 104.652C115.192 104.881 114.891 104.996 114.518 104.996C114.139 104.996 113.832 104.881 113.598 104.652C113.363 104.423 113.246 104.103 113.246 103.692ZM114.51 103.068C114.206 103.068 114.054 103.276 114.054 103.692C114.054 104.113 114.206 104.324 114.51 104.324C114.808 104.324 114.958 104.113 114.958 103.692C114.958 103.276 114.808 103.068 114.51 103.068Z" fill="#3C3C3C"/>
<rect x="121.663" y="95.3091" width="42.1353" height="13.1815" rx="1.18152" fill="url(#paint5_linear_1681_114566)" fill-opacity="0.5"/>
<rect x="121.663" y="95.3091" width="42.1353" height="13.1815" rx="1.18152" stroke="url(#paint6_linear_1681_114566)" stroke-width="0.590759"/>
<path d="M124.315 100.1V99.0679H126.243V104.9H125.091V100.1H124.315ZM128.326 101.812C127.792 101.535 127.526 101.105 127.526 100.524C127.526 100.236 127.598 99.9746 127.742 99.7399C127.891 99.4999 128.112 99.3106 128.406 99.1719C128.704 99.0279 129.067 98.9559 129.494 98.9559C129.92 98.9559 130.28 99.0279 130.574 99.1719C130.872 99.3106 131.094 99.4999 131.238 99.7399C131.387 99.9746 131.462 100.236 131.462 100.524C131.462 100.817 131.39 101.076 131.246 101.3C131.102 101.519 130.91 101.689 130.67 101.812C130.963 101.94 131.192 102.127 131.358 102.372C131.523 102.617 131.606 102.908 131.606 103.244C131.606 103.607 131.512 103.924 131.326 104.196C131.144 104.463 130.894 104.668 130.574 104.812C130.254 104.956 129.894 105.028 129.494 105.028C129.094 105.028 128.734 104.956 128.414 104.812C128.099 104.668 127.848 104.463 127.662 104.196C127.48 103.924 127.39 103.607 127.39 103.244C127.39 102.908 127.472 102.617 127.638 102.372C127.803 102.121 128.032 101.935 128.326 101.812ZM130.374 100.684C130.374 100.423 130.294 100.22 130.134 100.076C129.979 99.9319 129.766 99.8599 129.494 99.8599C129.227 99.8599 129.014 99.9319 128.854 100.076C128.699 100.22 128.622 100.425 128.622 100.692C128.622 100.932 128.702 101.124 128.862 101.268C129.027 101.412 129.238 101.484 129.494 101.484C129.75 101.484 129.96 101.412 130.126 101.268C130.291 101.119 130.374 100.924 130.374 100.684ZM129.494 102.3C129.19 102.3 128.942 102.377 128.75 102.532C128.563 102.687 128.47 102.908 128.47 103.196C128.47 103.463 128.56 103.681 128.742 103.852C128.928 104.017 129.179 104.1 129.494 104.1C129.808 104.1 130.056 104.015 130.238 103.844C130.419 103.673 130.51 103.457 130.51 103.196C130.51 102.913 130.416 102.695 130.23 102.54C130.043 102.38 129.798 102.3 129.494 102.3ZM136.41 100.036H133.818V101.404C133.93 101.265 134.09 101.153 134.298 101.068C134.506 100.977 134.728 100.932 134.962 100.932C135.389 100.932 135.738 101.025 136.01 101.212C136.282 101.399 136.48 101.639 136.602 101.932C136.725 102.22 136.786 102.529 136.786 102.86C136.786 103.473 136.61 103.967 136.258 104.34C135.912 104.713 135.416 104.9 134.77 104.9C134.162 104.9 133.677 104.748 133.314 104.444C132.952 104.14 132.746 103.743 132.698 103.252H133.786C133.834 103.465 133.941 103.636 134.106 103.764C134.277 103.892 134.493 103.956 134.754 103.956C135.069 103.956 135.306 103.857 135.466 103.66C135.626 103.463 135.706 103.201 135.706 102.876C135.706 102.545 135.624 102.295 135.458 102.124C135.298 101.948 135.061 101.86 134.746 101.86C134.522 101.86 134.336 101.916 134.186 102.028C134.037 102.14 133.93 102.289 133.866 102.476H132.794V99.0519H136.41V100.036ZM137.511 100.5C137.511 100.095 137.628 99.7772 137.863 99.5479C138.103 99.3186 138.41 99.2039 138.783 99.2039C139.156 99.2039 139.46 99.3186 139.695 99.5479C139.935 99.7772 140.055 100.095 140.055 100.5C140.055 100.911 139.935 101.231 139.695 101.46C139.46 101.689 139.156 101.804 138.783 101.804C138.41 101.804 138.103 101.689 137.863 101.46C137.628 101.231 137.511 100.911 137.511 100.5ZM142.647 99.2999L139.503 104.9H138.415L141.551 99.2999H142.647ZM138.775 99.8759C138.482 99.8759 138.335 100.084 138.335 100.5C138.335 100.921 138.482 101.132 138.775 101.132C138.919 101.132 139.031 101.081 139.111 100.98C139.191 100.873 139.231 100.713 139.231 100.5C139.231 100.084 139.079 99.8759 138.775 99.8759ZM141.023 103.692C141.023 103.281 141.14 102.964 141.375 102.74C141.615 102.511 141.922 102.396 142.295 102.396C142.668 102.396 142.97 102.511 143.199 102.74C143.434 102.964 143.551 103.281 143.551 103.692C143.551 104.103 143.434 104.423 143.199 104.652C142.97 104.881 142.668 104.996 142.295 104.996C141.916 104.996 141.61 104.881 141.375 104.652C141.14 104.423 141.023 104.103 141.023 103.692ZM142.287 103.068C141.983 103.068 141.831 103.276 141.831 103.692C141.831 104.113 141.983 104.324 142.287 104.324C142.586 104.324 142.735 104.113 142.735 103.692C142.735 103.276 142.586 103.068 142.287 103.068ZM149.73 103.836H147.506L147.138 104.9H145.962L147.97 99.3079H149.274L151.282 104.9H150.098L149.73 103.836ZM149.426 102.94L148.618 100.604L147.81 102.94H149.426ZM156.104 101.044C156.104 101.343 156.032 101.623 155.888 101.884C155.75 102.145 155.528 102.356 155.224 102.516C154.926 102.676 154.547 102.756 154.088 102.756H153.152V104.9H152.032V99.3159H154.088C154.52 99.3159 154.888 99.3906 155.192 99.5399C155.496 99.6892 155.723 99.8946 155.872 100.156C156.027 100.417 156.104 100.713 156.104 101.044ZM154.04 101.852C154.35 101.852 154.579 101.783 154.728 101.644C154.878 101.5 154.952 101.3 154.952 101.044C154.952 100.5 154.648 100.228 154.04 100.228H153.152V101.852H154.04ZM161.34 99.3159L159.452 102.956V104.9H158.332V102.956L156.436 99.3159H157.7L158.9 101.868L160.092 99.3159H161.34Z" fill="#3C3C3C"/>
<rect y="56.8325" width="56" height="24" rx="2" fill="url(#paint7_linear_1681_114566)"/>
<path d="M16.261 71.7785C17.093 71.0852 17.756 70.5089 18.25 70.0495C18.744 69.5815 19.1557 69.0962 19.485 68.5935C19.8143 68.0909 19.979 67.5969 19.979 67.1115C19.979 66.6695 19.875 66.3229 19.667 66.0715C19.459 65.8202 19.1383 65.6945 18.705 65.6945C18.2717 65.6945 17.938 65.8419 17.704 66.1365C17.47 66.4225 17.3487 66.8169 17.34 67.3195H15.572C15.6067 66.2795 15.9143 65.4909 16.495 64.9535C17.0843 64.4162 17.8297 64.1475 18.731 64.1475C19.719 64.1475 20.4773 64.4119 21.006 64.9405C21.5347 65.4605 21.799 66.1495 21.799 67.0075C21.799 67.6835 21.617 68.3292 21.253 68.9445C20.889 69.5599 20.473 70.0972 20.005 70.5565C19.537 71.0072 18.926 71.5532 18.172 72.1945H22.007V73.7025H15.585V72.3505L16.261 71.7785ZM23.0758 71.9865V70.5565L27.3268 64.4725H29.4458V70.4005H30.5898V71.9865H29.4458V73.8325H27.6258V71.9865H23.0758ZM27.7428 66.4225L25.0778 70.4005H27.7428V66.4225ZM39.4836 64.7585V73.8325H37.6636V69.9715H33.7766V73.8325H31.9566V64.7585H33.7766V68.4895H37.6636V64.7585H39.4836Z" fill="white"/>
<path d="M82.221 65.7335L78.763 73.8325H76.917L80.401 65.9415H75.955V64.3815H82.221V65.7335ZM86.6911 64.7585C87.6444 64.7585 88.4807 64.9449 89.2001 65.3175C89.9281 65.6902 90.4871 66.2232 90.8771 66.9165C91.2757 67.6012 91.4751 68.3985 91.4751 69.3085C91.4751 70.2185 91.2757 71.0159 90.8771 71.7005C90.4871 72.3765 89.9281 72.9009 89.2001 73.2735C88.4807 73.6462 87.6444 73.8325 86.6911 73.8325H83.5191V64.7585H86.6911ZM86.6261 72.2855C87.5794 72.2855 88.3161 72.0255 88.8361 71.5055C89.3561 70.9855 89.6161 70.2532 89.6161 69.3085C89.6161 68.3639 89.3561 67.6272 88.8361 67.0985C88.3161 66.5612 87.5794 66.2925 86.6261 66.2925H85.3391V72.2855H86.6261Z" fill="#AEA0B9"/>
<path d="M127.715 66.8515C127.758 65.9849 128.062 65.3175 128.625 64.8495C129.197 64.3729 129.947 64.1345 130.874 64.1345C131.507 64.1345 132.048 64.2472 132.499 64.4725C132.95 64.6892 133.288 64.9882 133.513 65.3695C133.747 65.7422 133.864 66.1669 133.864 66.6435C133.864 67.1895 133.721 67.6532 133.435 68.0345C133.158 68.4072 132.824 68.6585 132.434 68.7885V68.8405C132.937 68.9965 133.327 69.2739 133.604 69.6725C133.89 70.0712 134.033 70.5825 134.033 71.2065C134.033 71.7265 133.912 72.1902 133.669 72.5975C133.435 73.0049 133.084 73.3255 132.616 73.5595C132.157 73.7849 131.602 73.8975 130.952 73.8975C129.973 73.8975 129.175 73.6505 128.56 73.1565C127.945 72.6625 127.62 71.9345 127.585 70.9725H129.353C129.37 71.3972 129.513 71.7395 129.782 71.9995C130.059 72.2509 130.436 72.3765 130.913 72.3765C131.355 72.3765 131.693 72.2552 131.927 72.0125C132.17 71.7612 132.291 71.4405 132.291 71.0505C132.291 70.5305 132.126 70.1579 131.797 69.9325C131.468 69.7072 130.956 69.5945 130.263 69.5945H129.886V68.0995H130.263C131.494 68.0995 132.109 67.6879 132.109 66.8645C132.109 66.4919 131.996 66.2015 131.771 65.9935C131.554 65.7855 131.238 65.6815 130.822 65.6815C130.415 65.6815 130.098 65.7942 129.873 66.0195C129.656 66.2362 129.531 66.5135 129.496 66.8515H127.715ZM135.471 68.9705C135.471 67.4712 135.74 66.2969 136.277 65.4475C136.823 64.5982 137.725 64.1735 138.981 64.1735C140.238 64.1735 141.135 64.5982 141.672 65.4475C142.218 66.2969 142.491 67.4712 142.491 68.9705C142.491 70.4785 142.218 71.6615 141.672 72.5195C141.135 73.3775 140.238 73.8065 138.981 73.8065C137.725 73.8065 136.823 73.3775 136.277 72.5195C135.74 71.6615 135.471 70.4785 135.471 68.9705ZM140.697 68.9705C140.697 68.3292 140.654 67.7919 140.567 67.3585C140.489 66.9165 140.325 66.5569 140.073 66.2795C139.831 66.0022 139.467 65.8635 138.981 65.8635C138.496 65.8635 138.128 66.0022 137.876 66.2795C137.634 66.5569 137.469 66.9165 137.382 67.3585C137.304 67.7919 137.265 68.3292 137.265 68.9705C137.265 69.6292 137.304 70.1839 137.382 70.6345C137.46 71.0765 137.625 71.4362 137.876 71.7135C138.128 71.9822 138.496 72.1165 138.981 72.1165C139.467 72.1165 139.835 71.9822 140.086 71.7135C140.338 71.4362 140.502 71.0765 140.58 70.6345C140.658 70.1839 140.697 69.6292 140.697 68.9705ZM147.256 64.7585C148.209 64.7585 149.045 64.9449 149.765 65.3175C150.493 65.6902 151.052 66.2232 151.442 66.9165C151.84 67.6012 152.04 68.3985 152.04 69.3085C152.04 70.2185 151.84 71.0159 151.442 71.7005C151.052 72.3765 150.493 72.9009 149.765 73.2735C149.045 73.6462 148.209 73.8325 147.256 73.8325H144.084V64.7585H147.256ZM147.191 72.2855C148.144 72.2855 148.881 72.0255 149.401 71.5055C149.921 70.9855 150.181 70.2532 150.181 69.3085C150.181 68.3639 149.921 67.6272 149.401 67.0985C148.881 66.5612 148.144 66.2925 147.191 66.2925H145.904V72.2855H147.191Z" fill="#AEA0B9"/>
<defs>
<linearGradient id="paint0_linear_1681_114566" x1="115.433" y1="35.6655" x2="63.8261" y2="-8.45788" gradientUnits="userSpaceOnUse">
<stop stop-color="#5855FF"/>
<stop offset="1" stop-color="#E036FF"/>
</linearGradient>
<linearGradient id="paint1_linear_1681_114566" x1="70.5833" y1="29.4912" x2="50.1291" y2="21.2742" gradientUnits="userSpaceOnUse">
<stop stop-color="#5855FF"/>
<stop offset="1" stop-color="#E036FF"/>
</linearGradient>
<linearGradient id="paint2_linear_1681_114566" x1="26.0943" y1="98.8231" x2="22.4676" y2="105.71" gradientUnits="userSpaceOnUse">
<stop stop-color="#00FFA3"/>
<stop offset="1" stop-color="#DC1FFF"/>
</linearGradient>
<linearGradient id="paint3_linear_1681_114566" x1="24.5298" y1="97.9991" x2="20.9032" y2="104.886" gradientUnits="userSpaceOnUse">
<stop stop-color="#00FFA3"/>
<stop offset="1" stop-color="#DC1FFF"/>
</linearGradient>
<linearGradient id="paint4_linear_1681_114566" x1="25.3071" y1="98.4083" x2="21.6804" y2="105.295" gradientUnits="userSpaceOnUse">
<stop stop-color="#00FFA3"/>
<stop offset="1" stop-color="#DC1FFF"/>
</linearGradient>
<linearGradient id="paint5_linear_1681_114566" x1="121.367" y1="100.523" x2="160.645" y2="115.026" gradientUnits="userSpaceOnUse">
<stop stop-color="#F7931A"/>
<stop offset="1" stop-color="#AC1CC7"/>
</linearGradient>
<linearGradient id="paint6_linear_1681_114566" x1="121.367" y1="100.523" x2="160.645" y2="115.026" gradientUnits="userSpaceOnUse">
<stop stop-color="#F7931A"/>
<stop offset="1" stop-color="#AC1CC7"/>
</linearGradient>
<linearGradient id="paint7_linear_1681_114566" x1="-1.00474e-06" y1="68.9806" x2="39.1797" y2="94.6519" gradientUnits="userSpaceOnUse">
<stop stop-color="#F7931A"/>
<stop offset="1" stop-color="#C31AE3"/>
</linearGradient>
</defs>
</svg>
