<svg width="170" height="118" viewBox="0 0 170 118" fill="none" xmlns="http://www.w3.org/2000/svg">
<rect y="28.2393" width="64" height="64.547" rx="32" fill="#F7F0FD"/>
<path fill-rule="evenodd" clip-rule="evenodd" d="M38.2182 40.8092C37.7136 40.6805 37.2271 40.5631 36.8612 40.4889C35.0229 40.1159 32.7712 40.2319 31.2796 40.3817C30.1931 40.4908 29.1221 40.7039 28.0644 40.9771C27.2366 41.1909 26.2404 41.4702 25.4733 41.7531C17.0489 44.8602 12 51.742 12 60.569C12 71.4326 20.5598 80.2393 31.1188 80.2393C39.8893 80.2393 47.4153 74.8048 49.5963 65.8607C49.6303 65.7211 49.6635 65.5703 49.6953 65.4138C49.9981 63.9262 50.174 62.3559 49.7403 60.9017C49.6093 60.4623 49.2143 60.1623 48.7668 60.1623H32.3647C32.3282 60.1623 32.292 60.1676 32.257 60.1782C32.0547 60.2392 31.9389 60.4572 31.9984 60.6649L32.7466 63.4223C33.2329 65.2143 34.8466 66.4568 36.6875 66.4568H40.1952C40.5081 66.4568 40.7025 66.7962 40.5301 67.0599C38.4577 70.2296 34.7693 72.0949 31.1282 72.0949C24.7928 72.0949 19.6309 67.0667 19.6309 60.5485C19.6309 54.0304 24.8294 48.8991 31.1282 48.8991C31.2194 48.8991 31.3113 48.8998 31.4032 48.9012C32.777 48.9218 34.0972 49.3552 35.3549 49.9134C35.6646 50.0509 36.0604 50.1734 36.4231 50.2708C37.0889 50.4496 37.7741 50.5423 38.4627 50.5641C38.7341 50.5727 39.0227 50.5755 39.2795 50.5646C39.553 50.5531 39.6896 50.2629 39.5552 50.0222L39.4198 49.7795C39.1638 49.3207 39.2419 48.761 39.5275 48.3204C39.6876 48.0733 39.8087 47.8235 39.8248 47.6153C39.846 47.3406 39.7988 47.1063 39.6831 46.9124C39.5631 46.7111 39.3188 46.6446 39.0873 46.6195C38.869 46.5958 38.5928 46.5468 38.3834 46.4457C37.1393 45.845 37.6766 43.7401 39.0556 43.7146C39.2418 43.7112 39.4273 43.7408 39.6053 43.816C39.6835 43.8491 39.7607 43.8816 39.8358 43.9133C40.4418 44.1683 41.0758 44.4112 41.7221 44.2942C41.9257 44.2573 42.1557 44.1469 42.4122 43.963C42.5748 43.8464 42.5418 43.5186 42.425 43.3553C41.4168 41.9455 39.8886 41.2352 38.2182 40.8092ZM45.7193 47.7315L49.7698 51.2651C50.1581 51.6039 49.866 52.2446 49.3594 52.1654L42.2124 51.0478C40.7567 50.8202 39.9168 49.25 40.5262 47.8953L40.5965 47.7391C40.7377 47.4252 40.7377 47.0648 40.5966 46.7505C40.4216 46.3607 40.0452 46.1029 39.6225 46.083L39.3955 46.0724C38.8774 46.0481 38.5097 45.5511 38.6333 45.042L38.6391 45.0179C38.7632 44.5063 39.3454 44.2671 39.7881 44.5458L40.1031 44.7441C40.7069 45.1243 41.4353 45.246 42.1274 45.0824C42.3349 45.0333 42.5293 44.9393 42.6974 44.8069L42.7238 44.7861C43.0996 44.4901 43.6287 44.4978 43.9967 44.8046L44.0916 44.8837C44.6219 45.3258 44.9955 45.9302 45.1561 46.6056L45.2313 46.9221C45.3062 47.2368 45.4769 47.5199 45.7193 47.7315Z" fill="url(#paint0_linear_1490_161133)"/>
<rect x="92.8722" y="78.5304" width="76.2557" height="38.5975" rx="19.2988" fill="url(#paint1_linear_1490_161133)" fill-opacity="0.3"/>
<rect x="92.8722" y="78.5304" width="76.2557" height="38.5975" rx="19.2988" stroke="#C27EFF" stroke-width="1.74435"/>
<path d="M110.809 88.7975C111.065 88.6487 111.193 88.5744 111.329 88.5452C111.449 88.5194 111.573 88.5194 111.694 88.5452C111.829 88.5744 111.958 88.6487 112.214 88.7975L118.907 92.678C119.178 92.835 119.314 92.9136 119.412 93.0253C119.5 93.1241 119.566 93.2412 119.606 93.3688C119.652 93.513 119.652 93.6748 119.652 93.9982V101.66C119.652 101.983 119.652 102.145 119.606 102.289C119.566 102.417 119.5 102.534 119.412 102.633C119.314 102.745 119.178 102.823 118.907 102.98L112.214 106.861C111.958 107.009 111.829 107.084 111.694 107.113C111.573 107.139 111.449 107.139 111.329 107.113C111.193 107.084 111.065 107.009 110.809 106.861L104.115 102.98C103.845 102.823 103.709 102.745 103.61 102.633C103.523 102.534 103.457 102.417 103.417 102.289C103.371 102.145 103.371 101.983 103.371 101.66V93.9982C103.371 93.6748 103.371 93.513 103.417 93.3688C103.457 93.2412 103.523 93.1241 103.61 93.0253C103.709 92.9136 103.845 92.835 104.115 92.678L110.809 88.7975Z" fill="url(#paint2_linear_1490_161133)"/>
<path d="M111.511 88.8619V97.8291M111.511 97.8291L119.199 93.3717M111.511 97.8291L103.823 93.3717M111.511 97.8291V106.796M119.199 102.286L112.214 98.2365C111.958 98.0878 111.829 98.0135 111.694 97.9843C111.573 97.9585 111.449 97.9585 111.329 97.9843C111.193 98.0135 111.065 98.0878 110.809 98.2365L103.823 102.286M119.652 101.66V93.9982C119.652 93.6748 119.652 93.513 119.606 93.3688C119.566 93.2412 119.5 93.1241 119.412 93.0253C119.314 92.9136 119.178 92.835 118.907 92.678L112.214 88.7975C111.958 88.6487 111.829 88.5744 111.694 88.5452C111.573 88.5194 111.449 88.5194 111.329 88.5452C111.193 88.5744 111.065 88.6487 110.809 88.7975L104.115 92.678C103.845 92.835 103.709 92.9136 103.61 93.0253C103.523 93.1241 103.457 93.2412 103.417 93.3688C103.371 93.513 103.371 93.6748 103.371 93.9982V101.66C103.371 101.983 103.371 102.145 103.417 102.289C103.457 102.417 103.523 102.534 103.61 102.633C103.709 102.745 103.845 102.823 104.115 102.98L110.809 106.861C111.065 107.009 111.193 107.084 111.329 107.113C111.449 107.139 111.573 107.139 111.694 107.113C111.829 107.084 111.958 107.009 112.214 106.861L118.907 102.98C119.178 102.823 119.314 102.745 119.412 102.633C119.5 102.534 119.566 102.417 119.606 102.289C119.652 102.145 119.652 101.983 119.652 101.66Z" stroke="#EEEEEE" stroke-width="1.39548" stroke-linecap="round" stroke-linejoin="round"/>
<path d="M127.784 102.829V92.2541H132.374C133.534 92.2541 134.429 92.5441 135.059 93.1241C135.689 93.7041 136.004 94.5141 136.004 95.5541C136.004 96.5941 135.689 97.4091 135.059 97.9991C134.429 98.5791 133.534 98.8691 132.374 98.8691H129.704V102.829H127.784ZM129.704 97.3541H132.074C133.454 97.3541 134.144 96.7541 134.144 95.5541C134.144 94.3641 133.454 93.7691 132.074 93.7691H129.704V97.3541ZM137.569 102.829V92.2541H142.159C143.319 92.2541 144.214 92.5341 144.844 93.0941C145.474 93.6441 145.789 94.4191 145.789 95.4191C145.789 96.2091 145.584 96.8641 145.174 97.3841C144.764 97.8941 144.174 98.2391 143.404 98.4191C143.914 98.5791 144.334 98.9641 144.664 99.5741L146.434 102.829H144.319L142.489 99.4541C142.309 99.1241 142.094 98.8991 141.844 98.7791C141.604 98.6591 141.294 98.5991 140.914 98.5991H139.489V102.829H137.569ZM139.489 97.1741H141.829C143.229 97.1741 143.929 96.6041 143.929 95.4641C143.929 94.3341 143.229 93.7691 141.829 93.7691H139.489V97.1741ZM152.519 102.979C151.499 102.979 150.604 102.754 149.834 102.304C149.074 101.854 148.484 101.224 148.064 100.414C147.644 99.5941 147.434 98.6341 147.434 97.5341C147.434 96.4241 147.644 95.4641 148.064 94.6541C148.484 93.8441 149.074 93.2191 149.834 92.7791C150.594 92.3291 151.489 92.1041 152.519 92.1041C153.549 92.1041 154.444 92.3291 155.204 92.7791C155.964 93.2191 156.554 93.8441 156.974 94.6541C157.394 95.4641 157.604 96.4191 157.604 97.5191C157.604 98.6291 157.394 99.5941 156.974 100.414C156.554 101.224 155.964 101.854 155.204 102.304C154.444 102.754 153.549 102.979 152.519 102.979ZM152.519 101.329C153.489 101.329 154.244 100.994 154.784 100.324C155.324 99.6541 155.594 98.7241 155.594 97.5341C155.594 96.3341 155.324 95.4041 154.784 94.7441C154.254 94.0841 153.499 93.7541 152.519 93.7541C151.549 93.7541 150.794 94.0841 150.254 94.7441C149.714 95.4041 149.444 96.3341 149.444 97.5341C149.444 98.7241 149.714 99.6541 150.254 100.324C150.794 100.994 151.549 101.329 152.519 101.329Z" fill="#EEEEEE"/>
<rect x="95.3722" y="0.872175" width="71.12" height="38.5975" rx="19.2988" fill="url(#paint3_linear_1490_161133)" fill-opacity="0.3"/>
<rect x="95.3722" y="0.872175" width="71.12" height="38.5975" rx="19.2988" stroke="#31E591" stroke-width="1.74435"/>
<path d="M111.24 11.1393C111.497 10.9905 111.625 10.9162 111.761 10.887C111.881 10.8612 112.005 10.8612 112.125 10.887C112.261 10.9162 112.389 10.9905 112.646 11.1393L119.339 15.0198C119.61 15.1768 119.745 15.2554 119.844 15.3671C119.931 15.4659 119.997 15.583 120.038 15.7106C120.083 15.8548 120.083 16.0165 120.083 16.34V24.0018C120.083 24.3252 120.083 24.4869 120.038 24.6311C119.997 24.7587 119.931 24.8759 119.844 24.9747C119.745 25.0864 119.61 25.1649 119.339 25.322L112.646 29.2025C112.389 29.3512 112.261 29.4256 112.125 29.4547C112.005 29.4805 111.881 29.4805 111.761 29.4547C111.625 29.4256 111.497 29.3512 111.24 29.2025L104.547 25.322C104.276 25.1649 104.141 25.0864 104.042 24.9747C103.955 24.8759 103.889 24.7587 103.848 24.6311C103.803 24.4869 103.803 24.3252 103.803 24.0018V16.34C103.803 16.0165 103.803 15.8548 103.848 15.7106C103.889 15.583 103.955 15.4659 104.042 15.3671C104.141 15.2554 104.276 15.1768 104.547 15.0198L111.24 11.1393Z" fill="url(#paint4_linear_1490_161133)"/>
<path d="M119.631 15.7135L111.943 20.1708M111.943 20.1708L104.255 15.7135M111.943 20.1708L111.943 29.138M120.083 24.0018V16.34C120.083 16.0165 120.083 15.8548 120.038 15.7106C119.997 15.583 119.931 15.4659 119.844 15.3671C119.745 15.2554 119.61 15.1768 119.339 15.0198L112.646 11.1393C112.389 10.9905 112.261 10.9162 112.125 10.887C112.005 10.8612 111.881 10.8612 111.761 10.887C111.625 10.9162 111.497 10.9905 111.24 11.1393L104.547 15.0198C104.276 15.1768 104.141 15.2554 104.042 15.3671C103.955 15.4659 103.889 15.583 103.848 15.7106C103.803 15.8548 103.803 16.0165 103.803 16.34V24.0018C103.803 24.3252 103.803 24.4869 103.848 24.6311C103.889 24.7587 103.955 24.8759 104.042 24.9747C104.141 25.0864 104.276 25.1649 104.547 25.322L111.24 29.2025C111.497 29.3512 111.625 29.4256 111.761 29.4547C111.881 29.4805 112.005 29.4805 112.125 29.4547C112.261 29.4256 112.389 29.3512 112.646 29.2025L119.339 25.322C119.61 25.1649 119.745 25.0864 119.844 24.9747C119.931 24.8759 119.997 24.7587 120.038 24.6311C120.083 24.4869 120.083 24.3252 120.083 24.0018Z" stroke="#EEEEEE" stroke-width="1.39548" stroke-linecap="round" stroke-linejoin="round"/>
<path d="M128.216 25.1709V14.5959H130.136V23.5359H135.206V25.1709H128.216ZM136.638 25.1709V14.5959H138.558V25.1709H136.638ZM143.407 25.1709V16.2009H139.777V14.5959H148.957V16.2009H145.327V25.1709H143.407ZM150.174 25.1709V14.5959H157.209V16.1259H152.019V19.0359H156.879V20.5659H152.019V23.6409H157.209V25.1709H150.174Z" fill="#EEEEEE"/>
<defs>
<linearGradient id="paint0_linear_1490_161133" x1="50" y1="80.2393" x2="3.41561" y2="59.9211" gradientUnits="userSpaceOnUse">
<stop stop-color="#5855FF"/>
<stop offset="1" stop-color="#E036FF"/>
</linearGradient>
<linearGradient id="paint1_linear_1490_161133" x1="162.433" y1="113.294" x2="110.863" y2="69.1643" gradientUnits="userSpaceOnUse">
<stop stop-color="#5855FF"/>
<stop offset="1" stop-color="#E036FF"/>
</linearGradient>
<linearGradient id="paint2_linear_1490_161133" x1="119.652" y1="107.132" x2="99.1974" y2="98.9153" gradientUnits="userSpaceOnUse">
<stop stop-color="#5855FF"/>
<stop offset="1" stop-color="#E036FF"/>
</linearGradient>
<linearGradient id="paint3_linear_1490_161133" x1="101.025" y1="4.70655" x2="151.822" y2="46.5963" gradientUnits="userSpaceOnUse">
<stop stop-color="#31E591"/>
<stop offset="1" stop-color="#2AC3FF"/>
</linearGradient>
<linearGradient id="paint4_linear_1490_161133" x1="103.803" y1="15.5193" x2="120.083" y2="24.8225" gradientUnits="userSpaceOnUse">
<stop stop-color="#31E591"/>
<stop offset="1" stop-color="#2AC3FF"/>
</linearGradient>
</defs>
</svg>
