<svg width="170" height="118" viewBox="0 0 170 118" fill="none" xmlns="http://www.w3.org/2000/svg">
<rect x="92.8722" y="77.8722" width="76.2556" height="38.2556" rx="19.1278" fill="url(#paint0_linear_1490_143413)" fill-opacity="0.3"/>
<rect x="92.8722" y="77.8722" width="76.2556" height="38.2556" rx="19.1278" stroke="#C27EFF" stroke-width="1.74435"/>
<path d="M108.74 87.9684C108.997 87.8196 109.125 87.7453 109.261 87.7161C109.381 87.6903 109.505 87.6903 109.625 87.7161C109.761 87.7453 109.889 87.8196 110.146 87.9684L116.839 91.8489C117.11 92.0059 117.245 92.0845 117.344 92.1962C117.431 92.295 117.497 92.4121 117.538 92.5397C117.583 92.6839 117.583 92.8456 117.583 93.1691V100.831C117.583 101.154 117.583 101.316 117.538 101.46C117.497 101.588 117.431 101.705 117.344 101.804C117.245 101.915 117.11 101.994 116.839 102.151L110.146 106.032C109.889 106.18 109.761 106.255 109.625 106.284C109.505 106.31 109.381 106.31 109.261 106.284C109.125 106.255 108.997 106.18 108.74 106.032L102.047 102.151C101.776 101.994 101.641 101.915 101.542 101.804C101.455 101.705 101.389 101.588 101.348 101.46C101.303 101.316 101.303 101.154 101.303 100.831V93.1691C101.303 92.8457 101.303 92.6839 101.348 92.5397C101.389 92.4121 101.455 92.295 101.542 92.1962C101.641 92.0845 101.776 92.0059 102.047 91.8489L108.74 87.9684Z" fill="url(#paint1_linear_1490_143413)"/>
<path d="M109.443 88.0328V97M109.443 97L117.131 92.5426M109.443 97L101.755 92.5426M109.443 97V105.967M117.131 101.457L110.146 97.4074C109.889 97.2587 109.761 97.1844 109.625 97.1552C109.505 97.1294 109.381 97.1294 109.261 97.1552C109.125 97.1844 108.997 97.2587 108.74 97.4074L101.755 101.457M117.583 100.831V93.1691C117.583 92.8456 117.583 92.6839 117.538 92.5397C117.497 92.4121 117.431 92.295 117.344 92.1962C117.245 92.0845 117.11 92.0059 116.839 91.8489L110.146 87.9684C109.889 87.8196 109.761 87.7453 109.625 87.7161C109.505 87.6903 109.381 87.6903 109.261 87.7161C109.125 87.7453 108.997 87.8196 108.74 87.9684L102.047 91.8489C101.776 92.0059 101.641 92.0845 101.542 92.1962C101.455 92.295 101.389 92.4121 101.348 92.5397C101.303 92.6839 101.303 92.8457 101.303 93.1691V100.831C101.303 101.154 101.303 101.316 101.348 101.46C101.389 101.588 101.455 101.705 101.542 101.804C101.641 101.915 101.776 101.994 102.047 102.151L108.74 106.032C108.997 106.18 109.125 106.255 109.261 106.284C109.381 106.31 109.505 106.31 109.625 106.284C109.761 106.255 109.889 106.18 110.146 106.032L116.839 102.151C117.11 101.994 117.245 101.915 117.344 101.804C117.431 101.705 117.497 101.588 117.538 101.46C117.583 101.316 117.583 101.154 117.583 100.831Z" stroke="#EEEEEE" stroke-width="1.39548" stroke-linecap="round" stroke-linejoin="round"/>
<path d="M125.904 103V90.7023H131.241C132.59 90.7023 133.631 91.0396 134.364 91.7141C135.096 92.3885 135.463 93.3305 135.463 94.5399C135.463 95.7493 135.096 96.6971 134.364 97.3832C133.631 98.0577 132.59 98.3949 131.241 98.3949H128.136V103H125.904ZM128.136 96.6331H130.893C132.497 96.6331 133.3 95.9354 133.3 94.5399C133.3 93.1561 132.497 92.4641 130.893 92.4641H128.136V96.6331ZM137.283 103V90.7023H142.621C143.97 90.7023 145.01 91.0279 145.743 91.6792C146.476 92.3188 146.842 93.22 146.842 94.3829C146.842 95.3016 146.603 96.0633 146.127 96.668C145.65 97.2611 144.964 97.6623 144.068 97.8716C144.661 98.0577 145.15 98.5054 145.534 99.2148L147.592 103H145.132L143.004 99.0752C142.795 98.6915 142.545 98.4298 142.254 98.2903C141.975 98.1507 141.615 98.0809 141.173 98.0809H139.516V103H137.283ZM139.516 96.4238H142.237C143.865 96.4238 144.679 95.7609 144.679 94.4352C144.679 93.1212 143.865 92.4641 142.237 92.4641H139.516V96.4238ZM154.668 103.174C153.482 103.174 152.441 102.913 151.546 102.389C150.662 101.866 149.976 101.134 149.487 100.192C148.999 99.238 148.755 98.1216 148.755 96.8424C148.755 95.5516 148.999 94.4352 149.487 93.4933C149.976 92.5513 150.662 91.8245 151.546 91.3129C152.43 90.7896 153.47 90.5279 154.668 90.5279C155.866 90.5279 156.907 90.7896 157.791 91.3129C158.674 91.8245 159.36 92.5513 159.849 93.4933C160.337 94.4352 160.582 95.5458 160.582 96.825C160.582 98.1158 160.337 99.238 159.849 100.192C159.36 101.134 158.674 101.866 157.791 102.389C156.907 102.913 155.866 103.174 154.668 103.174ZM154.668 101.256C155.796 101.256 156.674 100.866 157.302 100.087C157.93 99.3078 158.244 98.2263 158.244 96.8424C158.244 95.447 157.93 94.3655 157.302 93.598C156.686 92.8304 155.808 92.4467 154.668 92.4467C153.54 92.4467 152.662 92.8304 152.034 93.598C151.406 94.3655 151.092 95.447 151.092 96.8424C151.092 98.2263 151.406 99.3078 152.034 100.087C152.662 100.866 153.54 101.256 154.668 101.256Z" fill="white"/>
<rect x="45.8722" y="0.872175" width="76.12" height="38.2556" rx="19.1278" fill="url(#paint2_linear_1490_143413)" fill-opacity="0.3"/>
<rect x="45.8722" y="0.872175" width="76.12" height="38.2556" rx="19.1278" stroke="#31E591" stroke-width="1.74435"/>
<path d="M61.7402 10.9684C61.9967 10.8196 62.125 10.7453 62.2608 10.7161C62.381 10.6903 62.505 10.6903 62.6252 10.7161C62.7611 10.7453 62.8893 10.8196 63.1458 10.9684L69.839 14.8489C70.1099 15.0059 70.2453 15.0845 70.344 15.1962C70.4312 15.295 70.4973 15.4121 70.5377 15.5397C70.5833 15.6839 70.5833 15.8456 70.5833 16.1691V23.8309C70.5833 24.1543 70.5833 24.316 70.5377 24.4602C70.4973 24.5878 70.4312 24.705 70.344 24.8038C70.2453 24.9155 70.1099 24.994 69.839 25.1511L63.1458 29.0316C62.8893 29.1803 62.7611 29.2547 62.6252 29.2838C62.505 29.3096 62.381 29.3096 62.2608 29.2838C62.125 29.2547 61.9967 29.1803 61.7402 29.0316L55.0471 25.1511C54.7762 24.994 54.6407 24.9155 54.5421 24.8038C54.4548 24.705 54.3888 24.5878 54.3484 24.4602C54.3027 24.316 54.3027 24.1543 54.3027 23.8309V16.1691C54.3027 15.8457 54.3027 15.6839 54.3484 15.5397C54.3888 15.4121 54.4548 15.295 54.5421 15.1962C54.6407 15.0845 54.7762 15.0059 55.0471 14.8489L61.7402 10.9684Z" fill="url(#paint3_linear_1490_143413)"/>
<path d="M70.1311 15.5426L62.443 19.9999M62.443 19.9999L54.7549 15.5426M62.443 19.9999L62.443 28.9671M70.5833 23.8309V16.1691C70.5833 15.8456 70.5833 15.6839 70.5377 15.5397C70.4973 15.4121 70.4312 15.295 70.344 15.1962C70.2453 15.0845 70.1099 15.0059 69.839 14.8489L63.1458 10.9684C62.8893 10.8196 62.7611 10.7453 62.6252 10.7161C62.505 10.6903 62.381 10.6903 62.2608 10.7161C62.125 10.7453 61.9967 10.8196 61.7402 10.9684L55.0471 14.8489C54.7762 15.0059 54.6407 15.0845 54.5421 15.1962C54.4548 15.295 54.3888 15.4121 54.3484 15.5397C54.3027 15.6839 54.3027 15.8457 54.3027 16.1691V23.8309C54.3027 24.1543 54.3027 24.316 54.3484 24.4602C54.3888 24.5878 54.4548 24.705 54.5421 24.8038C54.6407 24.9155 54.7762 24.994 55.0471 25.1511L61.7402 29.0316C61.9967 29.1803 62.125 29.2547 62.2608 29.2838C62.381 29.3096 62.505 29.3096 62.6252 29.2838C62.7611 29.2547 62.8893 29.1803 63.1458 29.0316L69.839 25.1511C70.1099 24.994 70.2453 24.9155 70.344 24.8038C70.4312 24.705 70.4973 24.5878 70.5377 24.4602C70.5833 24.316 70.5833 24.1543 70.5833 23.8309Z" stroke="#3C3C3C" stroke-width="1.39548" stroke-linecap="round" stroke-linejoin="round"/>
<path d="M78.9037 26V13.7023H81.1365V24.0987H87.0324V26H78.9037ZM88.6986 26V13.7023H90.9314V26H88.6986ZM96.57 26V15.5688H92.3487V13.7023H103.024V15.5688H98.8028V26H96.57ZM104.439 26V13.7023H112.62V15.4816H106.584V18.8656H112.236V20.6448H106.584V24.2208H112.62V26H104.439Z" fill="#3C3C3C"/>
<rect x="0.351402" y="54.3514" width="169.297" height="63.2972" rx="5.27103" fill="white"/>
<rect x="0.351402" y="54.3514" width="169.297" height="63.2972" rx="5.27103" stroke="#CACACA" stroke-width="0.702804"/>
<circle cx="21.0834" cy="75.0839" r="13.0019" fill="#2270C5" stroke="white" stroke-width="2.10841"/>
<path d="M24.7755 76.952C24.7755 75.2476 23.6133 74.6631 21.2889 74.4188C19.6286 74.2236 19.2966 73.8343 19.2966 73.1528C19.2966 72.4712 19.8504 72.0329 20.9569 72.0329C21.953 72.0329 22.5069 72.3251 22.7832 73.0558C22.839 73.2019 23.005 73.2989 23.171 73.2989H24.0569C24.2788 73.2989 24.4448 73.1528 24.4448 72.9576V72.9085C24.223 71.8365 23.2268 71.0088 21.9544 70.9118V69.7428C21.9544 69.5476 21.7883 69.4014 21.5121 69.3535H20.6819C20.4601 69.3535 20.2941 69.4996 20.2396 69.7428V70.8627C18.5793 71.0579 17.5274 72.0317 17.5274 73.2498C17.5274 74.8572 18.6338 75.4908 20.9582 75.7339C22.5082 75.9771 23.0063 76.2693 23.0063 77.0491C23.0063 77.8288 22.232 78.3642 21.18 78.3642C19.7415 78.3642 19.2434 77.8288 19.0774 77.0982C19.0216 76.9029 18.8556 76.8059 18.6896 76.8059H17.7492C17.5274 76.8059 17.3613 76.952 17.3613 77.1473V77.1964C17.5831 78.4145 18.4677 79.2912 20.2941 79.5344V80.7034C20.2941 80.8986 20.4601 81.0447 20.7364 81.0927H21.5665C21.7883 81.0927 21.9544 80.9465 22.0088 80.7034V79.5344C23.6678 79.2901 24.7755 78.2672 24.7755 76.952Z" fill="white"/>
<path d="M18.4503 81.9139C14.445 80.5134 12.3906 76.1633 13.8806 72.3136C14.6508 70.2135 16.3454 68.6138 18.4503 67.8638C18.6561 67.7642 18.7584 67.6142 18.7584 67.3634V66.6638C18.7584 66.4634 18.6561 66.3134 18.4503 66.2642C18.3985 66.2642 18.2963 66.2642 18.2445 66.3146C13.3667 67.8146 10.6961 72.8644 12.2366 77.6153C13.1609 80.415 15.3693 82.5655 18.2445 83.4655C18.4503 83.5651 18.6549 83.4655 18.7066 83.2651C18.7584 83.2147 18.7584 83.1655 18.7584 83.0647V82.3651C18.7584 82.2139 18.6044 82.0147 18.4503 81.9139ZM23.8926 66.3134C23.6867 66.2138 23.4822 66.3134 23.4304 66.5138C23.3786 66.5642 23.3786 66.6134 23.3786 66.7142V67.4138C23.3786 67.6142 23.5327 67.8134 23.6867 67.9142C27.692 69.3147 29.7464 73.6648 28.2565 77.5145C27.4862 79.6146 25.7917 81.2143 23.6867 81.9643C23.4809 82.0639 23.3786 82.2139 23.3786 82.4647V83.1643C23.3786 83.3647 23.4809 83.5147 23.6867 83.5639C23.7385 83.5639 23.8408 83.5639 23.8926 83.5135C28.7704 82.0135 31.441 76.9637 29.9005 72.2128C28.9762 69.3639 26.7172 67.2134 23.8926 66.3134Z" fill="white"/>
<circle cx="43.5737" cy="75.0839" r="13.0019" fill="black" stroke="white" stroke-width="2.10841"/>
<path d="M39.6409 77.8394C39.7165 77.7631 39.8181 77.7202 39.9244 77.7202H49.766C49.9455 77.7202 50.0353 77.9395 49.9077 78.0658L47.9631 80.0249C47.8874 80.1012 47.7858 80.1441 47.6795 80.1441H37.8403C37.6608 80.1441 37.571 79.9248 37.6986 79.7985L39.6409 77.8394Z" fill="url(#paint4_linear_1490_143413)"/>
<path d="M39.6409 70.5176C39.7165 70.4413 39.8181 70.3984 39.9244 70.3984H49.766C49.9455 70.3984 50.0353 70.6177 49.9077 70.744L47.9631 72.7032C47.8874 72.7794 47.7858 72.8223 47.6795 72.8223H37.8403C37.6608 72.8223 37.571 72.6031 37.6986 72.4767L39.6409 70.5176Z" fill="url(#paint5_linear_1490_143413)"/>
<path d="M47.9631 74.1548C47.8874 74.0785 47.7858 74.0356 47.6795 74.0356H37.8403C37.6608 74.0356 37.571 74.2549 37.6986 74.3812L39.6433 76.3404C39.7189 76.4166 39.8205 76.4595 39.9268 76.4595H49.7683C49.9479 76.4595 50.0377 76.2403 49.9101 76.1139L47.9631 74.1548Z" fill="url(#paint6_linear_1490_143413)"/>
<path d="M9.64599 97.8238V103.289C9.64599 103.888 9.80201 104.347 10.1141 104.668C10.4261 104.98 10.8647 105.136 11.4297 105.136C12.0032 105.136 12.446 104.98 12.758 104.668C13.0701 104.347 13.2261 103.888 13.2261 103.289V97.8238H15.0098V103.276C15.0098 104.027 14.8453 104.663 14.5164 105.186C14.1959 105.701 13.7616 106.089 13.2134 106.35C12.6737 106.612 12.0707 106.742 11.4044 106.742C10.7466 106.742 10.1478 106.612 9.60804 106.35C9.07672 106.089 8.65504 105.701 8.34299 105.186C8.03095 104.663 7.87493 104.027 7.87493 103.276V97.8238H9.64599ZM19.7697 106.742C19.1541 106.742 18.5974 106.637 18.0999 106.426C17.6107 106.215 17.2228 105.912 16.936 105.515C16.6493 105.119 16.5017 104.651 16.4933 104.111H18.3908C18.4161 104.474 18.5426 104.76 18.7703 104.971C19.0065 105.182 19.327 105.288 19.7318 105.288C20.145 105.288 20.4697 105.191 20.7059 104.997C20.942 104.794 21.0601 104.533 21.0601 104.212C21.0601 103.951 20.98 103.736 20.8197 103.567C20.6595 103.398 20.4571 103.268 20.2125 103.175C19.9763 103.074 19.6474 102.964 19.2258 102.846C18.6523 102.677 18.1842 102.513 17.8216 102.353C17.4673 102.184 17.1595 101.935 16.8981 101.606C16.6451 101.269 16.5186 100.822 16.5186 100.265C16.5186 99.7424 16.6493 99.287 16.9107 98.8991C17.1722 98.5111 17.539 98.2159 18.0113 98.0135C18.4836 97.8027 19.0233 97.6973 19.6306 97.6973C20.5414 97.6973 21.2793 97.9208 21.8444 98.3678C22.4179 98.8063 22.7342 99.422 22.7932 100.215H20.845C20.8281 99.9111 20.6974 99.6623 20.4528 99.4683C20.2167 99.2659 19.9004 99.1647 19.5041 99.1647C19.1583 99.1647 18.88 99.2533 18.6691 99.4304C18.4667 99.6075 18.3655 99.8647 18.3655 100.202C18.3655 100.438 18.4414 100.636 18.5932 100.797C18.7535 100.948 18.9474 101.075 19.1752 101.176C19.4113 101.269 19.7402 101.379 20.1619 101.505C20.7354 101.674 21.2034 101.842 21.5661 102.011C21.9287 102.18 22.2408 102.433 22.5022 102.77C22.7637 103.107 22.8944 103.55 22.8944 104.098C22.8944 104.571 22.7721 105.009 22.5275 105.414C22.283 105.819 21.9245 106.144 21.4522 106.388C20.98 106.624 20.4191 106.742 19.7697 106.742ZM27.5166 97.8238C28.4443 97.8238 29.2581 98.0051 29.9581 98.3678C30.6665 98.7304 31.2105 99.2491 31.59 99.9238C31.978 100.59 32.1719 101.366 32.1719 102.251C32.1719 103.137 31.978 103.913 31.59 104.579C31.2105 105.237 30.6665 105.747 29.9581 106.11C29.2581 106.472 28.4443 106.654 27.5166 106.654H24.4298V97.8238H27.5166ZM27.4533 105.148C28.381 105.148 29.0979 104.895 29.6039 104.389C30.1099 103.883 30.3629 103.171 30.3629 102.251C30.3629 101.332 30.1099 100.615 29.6039 100.101C29.0979 99.578 28.381 99.3165 27.4533 99.3165H26.2009V105.148H27.4533ZM33.0675 102.226C33.0675 101.357 33.2615 100.582 33.6495 99.8985C34.0458 99.2069 34.5814 98.6714 35.2561 98.2918C35.9392 97.9039 36.7024 97.7099 37.5458 97.7099C38.5325 97.7099 39.397 97.9629 40.1392 98.469C40.8813 98.975 41.4 99.675 41.6952 100.569H39.6584C39.456 100.147 39.1693 99.831 38.7982 99.6201C38.4356 99.4093 38.0139 99.3039 37.5332 99.3039C37.0187 99.3039 36.5591 99.4262 36.1543 99.6708C35.7579 99.9069 35.4458 100.244 35.2181 100.683C34.9988 101.121 34.8892 101.636 34.8892 102.226C34.8892 102.808 34.9988 103.323 35.2181 103.77C35.4458 104.208 35.7579 104.55 36.1543 104.794C36.5591 105.03 37.0187 105.148 37.5332 105.148C38.0139 105.148 38.4356 105.043 38.7982 104.832C39.1693 104.613 39.456 104.292 39.6584 103.871H41.6952C41.4 104.773 40.8813 105.477 40.1392 105.983C39.4054 106.481 38.541 106.73 37.5458 106.73C36.7024 106.73 35.9392 106.54 35.2561 106.16C34.5814 105.772 34.0458 105.237 33.6495 104.554C33.2615 103.871 33.0675 103.095 33.0675 102.226ZM51.6113 101.391V102.884H46.2475V101.391H51.6113ZM59.6607 106.742C59.045 106.742 58.4884 106.637 57.9908 106.426C57.5017 106.215 57.1137 105.912 56.827 105.515C56.5402 105.119 56.3927 104.651 56.3842 104.111H58.2818C58.3071 104.474 58.4336 104.76 58.6613 104.971C58.8975 105.182 59.2179 105.288 59.6227 105.288C60.036 105.288 60.3607 105.191 60.5968 104.997C60.833 104.794 60.951 104.533 60.951 104.212C60.951 103.951 60.8709 103.736 60.7107 103.567C60.5504 103.398 60.348 103.268 60.1035 103.175C59.8673 103.074 59.5384 102.964 59.1167 102.846C58.5432 102.677 58.0752 102.513 57.7125 102.353C57.3583 102.184 57.0505 101.935 56.789 101.606C56.536 101.269 56.4095 100.822 56.4095 100.265C56.4095 99.7424 56.5402 99.287 56.8017 98.8991C57.0631 98.5111 57.43 98.2159 57.9023 98.0135C58.3746 97.8027 58.9143 97.6973 59.5215 97.6973C60.4324 97.6973 61.1703 97.9208 61.7354 98.3678C62.3089 98.8063 62.6251 99.422 62.6842 100.215H60.736C60.7191 99.9111 60.5884 99.6623 60.3438 99.4683C60.1077 99.2659 59.7914 99.1647 59.395 99.1647C59.0493 99.1647 58.7709 99.2533 58.5601 99.4304C58.3577 99.6075 58.2565 99.8647 58.2565 100.202C58.2565 100.438 58.3324 100.636 58.4842 100.797C58.6444 100.948 58.8384 101.075 59.0661 101.176C59.3023 101.269 59.6312 101.379 60.0529 101.505C60.6263 101.674 61.0944 101.842 61.4571 102.011C61.8197 102.18 62.1318 102.433 62.3932 102.77C62.6546 103.107 62.7854 103.55 62.7854 104.098C62.7854 104.571 62.6631 105.009 62.4185 105.414C62.1739 105.819 61.8155 106.144 61.3432 106.388C60.8709 106.624 60.3101 106.742 59.6607 106.742ZM68.4196 106.742C67.5931 106.742 66.834 106.548 66.1425 106.16C65.4509 105.772 64.9027 105.237 64.4979 104.554C64.0931 103.862 63.8907 103.082 63.8907 102.213C63.8907 101.353 64.0931 100.582 64.4979 99.8985C64.9027 99.2069 65.4509 98.6671 66.1425 98.2792C66.834 97.8913 67.5931 97.6973 68.4196 97.6973C69.2545 97.6973 70.0135 97.8913 70.6967 98.2792C71.3882 98.6671 71.9322 99.2069 72.3286 99.8985C72.7334 100.582 72.9358 101.353 72.9358 102.213C72.9358 103.082 72.7334 103.862 72.3286 104.554C71.9322 105.237 71.3882 105.772 70.6967 106.16C70.0051 106.548 69.2461 106.742 68.4196 106.742ZM68.4196 105.161C68.9509 105.161 69.419 105.043 69.8238 104.807C70.2286 104.562 70.5448 104.216 70.7726 103.77C71.0003 103.323 71.1141 102.804 71.1141 102.213C71.1141 101.623 71.0003 101.109 70.7726 100.67C70.5448 100.223 70.2286 99.8816 69.8238 99.6454C69.419 99.4093 68.9509 99.2912 68.4196 99.2912C67.8882 99.2912 67.416 99.4093 67.0027 99.6454C66.5979 99.8816 66.2816 100.223 66.0539 100.67C65.8262 101.109 65.7124 101.623 65.7124 102.213C65.7124 102.804 65.8262 103.323 66.0539 103.77C66.2816 104.216 66.5979 104.562 67.0027 104.807C67.416 105.043 67.8882 105.161 68.4196 105.161ZM76.0245 105.25H78.9341V106.654H74.2534V97.8238H76.0245V105.25Z" fill="#3C3C3C"/>
<g clip-path="url(#clip0_1490_143413)">
<path d="M90.6387 105.66C90.5982 105.638 90.5489 105.638 90.5084 105.66L87.5583 107.291C87.46 107.346 87.3423 107.263 87.3603 107.152L87.9271 103.678C87.934 103.635 87.9204 103.592 87.8905 103.562L85.4821 101.097C85.4055 101.018 85.4497 100.886 85.5581 100.87L88.8699 100.365C88.9143 100.358 88.9524 100.33 88.9715 100.289L90.448 97.1429C90.4965 97.0397 90.6433 97.0397 90.6917 97.1429L92.1682 100.289C92.1873 100.33 92.2254 100.358 92.2698 100.365L95.5816 100.87C95.69 100.886 95.7342 101.018 95.6576 101.097L93.2492 103.562C93.2193 103.592 93.2057 103.635 93.2126 103.678L93.7793 107.151C93.7974 107.262 93.6796 107.345 93.5812 107.291L90.6387 105.66Z" fill="url(#paint7_linear_1490_143413)"/>
</g>
<rect x="109.916" y="61.0278" width="53.0561" height="21.028" rx="10.514" fill="#5855FF"/>
<path d="M117.755 74.542V67.1098H120.517C121.761 67.1098 122.72 67.4296 123.395 68.0692C124.077 68.7087 124.418 69.6259 124.418 70.8206C124.418 72.0084 124.077 72.9255 123.395 73.5721C122.72 74.2187 121.761 74.542 120.517 74.542H117.755ZM119.104 73.4245H120.433C122.148 73.4245 123.005 72.5566 123.005 70.8206C123.005 69.0917 122.148 68.2273 120.433 68.2273H119.104V73.4245ZM128.199 74.6474C127.616 74.6474 127.113 74.5385 126.692 74.3206C126.27 74.1027 125.943 73.7935 125.711 73.3929C125.486 72.9923 125.374 72.5179 125.374 71.9697C125.374 71.4356 125.483 70.9682 125.701 70.5676C125.926 70.167 126.231 69.8543 126.618 69.6294C127.012 69.3975 127.458 69.2815 127.957 69.2815C128.688 69.2815 129.264 69.5134 129.686 69.9773C130.114 70.4411 130.329 71.0737 130.329 71.8749V72.2649H126.639C126.737 73.1856 127.265 73.6459 128.22 73.6459C128.509 73.6459 128.797 73.6037 129.085 73.5194C129.373 73.428 129.637 73.2875 129.875 73.0977L130.244 73.9833C129.998 74.1871 129.689 74.3487 129.317 74.4682C128.944 74.5877 128.572 74.6474 128.199 74.6474ZM128.01 70.1776C127.623 70.1776 127.31 70.2971 127.071 70.536C126.832 70.775 126.688 71.0983 126.639 71.5059H129.232C129.204 71.0772 129.085 70.7504 128.874 70.5255C128.67 70.2935 128.382 70.1776 128.01 70.1776ZM131.372 76.4396V69.3869H132.659V70.2092C132.806 69.9281 133.027 69.7032 133.323 69.5345C133.625 69.3658 133.966 69.2815 134.345 69.2815C134.795 69.2815 135.189 69.3904 135.526 69.6083C135.87 69.8262 136.137 70.1354 136.327 70.536C136.517 70.9296 136.612 71.404 136.612 71.9592C136.612 72.5074 136.517 72.9853 136.327 73.3929C136.137 73.7935 135.874 74.1027 135.536 74.3206C135.199 74.5385 134.802 74.6474 134.345 74.6474C133.98 74.6474 133.649 74.5701 133.354 74.4155C133.066 74.2538 132.845 74.0395 132.69 73.7724V76.4396H131.372ZM133.976 73.6459C134.37 73.6459 134.686 73.5054 134.925 73.2242C135.164 72.9361 135.283 72.5144 135.283 71.9592C135.283 71.3969 135.164 70.9788 134.925 70.7047C134.686 70.4236 134.37 70.283 133.976 70.283C133.583 70.283 133.266 70.4236 133.027 70.7047C132.789 70.9788 132.669 71.3969 132.669 71.9592C132.669 72.5144 132.789 72.9361 133.027 73.2242C133.266 73.5054 133.583 73.6459 133.976 73.6459ZM140.044 74.6474C139.51 74.6474 139.046 74.5385 138.653 74.3206C138.259 74.1027 137.954 73.7935 137.736 73.3929C137.518 72.9853 137.409 72.5074 137.409 71.9592C137.409 71.411 137.518 70.9366 137.736 70.536C137.954 70.1354 138.259 69.8262 138.653 69.6083C139.046 69.3904 139.51 69.2815 140.044 69.2815C140.579 69.2815 141.042 69.3904 141.436 69.6083C141.83 69.8262 142.135 70.1354 142.353 70.536C142.571 70.9366 142.68 71.411 142.68 71.9592C142.68 72.5074 142.571 72.9853 142.353 73.3929C142.135 73.7935 141.83 74.1027 141.436 74.3206C141.042 74.5385 140.579 74.6474 140.044 74.6474ZM140.044 73.6459C140.438 73.6459 140.754 73.5054 140.993 73.2242C141.232 72.9361 141.352 72.5144 141.352 71.9592C141.352 71.3969 141.232 70.9788 140.993 70.7047C140.754 70.4236 140.438 70.283 140.044 70.283C139.651 70.283 139.335 70.4236 139.096 70.7047C138.857 70.9788 138.737 71.3969 138.737 71.9592C138.737 72.5144 138.857 72.9361 139.096 73.2242C139.335 73.5054 139.651 73.6459 140.044 73.6459ZM145.655 74.6474C145.219 74.6474 144.811 74.5947 144.432 74.4893C144.052 74.3839 143.736 74.2328 143.483 74.036L143.82 73.1715C144.08 73.3472 144.372 73.4843 144.695 73.5827C145.019 73.674 145.342 73.7197 145.665 73.7197C146.002 73.7197 146.252 73.6635 146.414 73.551C146.582 73.4316 146.667 73.2769 146.667 73.0872C146.667 72.792 146.449 72.6023 146.013 72.5179L144.959 72.3176C144.066 72.1489 143.62 71.6851 143.62 70.9261C143.62 70.5887 143.711 70.2971 143.894 70.0511C144.084 69.8051 144.344 69.6153 144.674 69.4818C145.004 69.3483 145.384 69.2815 145.813 69.2815C146.178 69.2815 146.53 69.3342 146.867 69.4396C147.204 69.538 147.492 69.6891 147.731 69.8929L147.373 70.7574C147.169 70.5887 146.923 70.4552 146.635 70.3568C146.354 70.2584 146.083 70.2092 145.823 70.2092C145.479 70.2092 145.222 70.2689 145.054 70.3884C144.892 70.5079 144.811 70.666 144.811 70.8628C144.811 71.172 145.012 71.3618 145.412 71.4321L146.466 71.6324C146.923 71.7167 147.268 71.8713 147.499 72.0962C147.738 72.3211 147.858 72.6233 147.858 73.0029C147.858 73.5159 147.658 73.92 147.257 74.2152C146.856 74.5033 146.322 74.6474 145.655 74.6474ZM148.831 68.28V66.9939H150.307V68.28H148.831ZM148.915 74.542V69.3869H150.233V74.542H148.915ZM153.963 74.6474C152.6 74.6474 151.918 73.9727 151.918 72.6233V70.3779H150.927V69.3869H151.918V67.8478H153.236V69.3869H154.796V70.3779H153.236V72.5495C153.236 72.8869 153.31 73.1399 153.457 73.3086C153.605 73.4772 153.844 73.5616 154.174 73.5616C154.273 73.5616 154.375 73.551 154.48 73.53C154.585 73.5018 154.694 73.4737 154.807 73.4456L155.007 74.4155C154.881 74.4858 154.719 74.542 154.522 74.5842C154.332 74.6263 154.146 74.6474 153.963 74.6474Z" fill="white"/>
<defs>
<linearGradient id="paint0_linear_1490_143413" x1="162.433" y1="113.667" x2="111.593" y2="67.6994" gradientUnits="userSpaceOnUse">
<stop stop-color="#5855FF"/>
<stop offset="1" stop-color="#E036FF"/>
</linearGradient>
<linearGradient id="paint1_linear_1490_143413" x1="117.583" y1="106.303" x2="97.1291" y2="98.0862" gradientUnits="userSpaceOnUse">
<stop stop-color="#5855FF"/>
<stop offset="1" stop-color="#E036FF"/>
</linearGradient>
<linearGradient id="paint2_linear_1490_143413" x1="51.9729" y1="4.66667" x2="102.923" y2="49.9502" gradientUnits="userSpaceOnUse">
<stop stop-color="#31E591"/>
<stop offset="1" stop-color="#2AC3FF"/>
</linearGradient>
<linearGradient id="paint3_linear_1490_143413" x1="54.3027" y1="15.3484" x2="70.5833" y2="24.6516" gradientUnits="userSpaceOnUse">
<stop stop-color="#31E591"/>
<stop offset="1" stop-color="#2AC3FF"/>
</linearGradient>
<linearGradient id="paint4_linear_1490_143413" x1="48.8263" y1="69.2279" x2="41.9231" y2="82.3369" gradientUnits="userSpaceOnUse">
<stop stop-color="#00FFA3"/>
<stop offset="1" stop-color="#DC1FFF"/>
</linearGradient>
<linearGradient id="paint5_linear_1490_143413" x1="45.8484" y1="67.6596" x2="38.9451" y2="80.7686" gradientUnits="userSpaceOnUse">
<stop stop-color="#00FFA3"/>
<stop offset="1" stop-color="#DC1FFF"/>
</linearGradient>
<linearGradient id="paint6_linear_1490_143413" x1="47.3279" y1="68.4389" x2="40.4246" y2="81.5479" gradientUnits="userSpaceOnUse">
<stop stop-color="#00FFA3"/>
<stop offset="1" stop-color="#DC1FFF"/>
</linearGradient>
<linearGradient id="paint7_linear_1490_143413" x1="90.5699" y1="96.8833" x2="90.5699" y2="107.425" gradientUnits="userSpaceOnUse">
<stop stop-color="#FDD31A"/>
<stop offset="1" stop-color="#B75910"/>
</linearGradient>
<clipPath id="clip0_1490_143413">
<rect width="14.0561" height="14.0561" fill="white" transform="translate(83.541 95.126)"/>
</clipPath>
</defs>
</svg>
