<svg width="170" height="118" viewBox="0 0 170 118" fill="none" xmlns="http://www.w3.org/2000/svg">
<rect y="28.2393" width="64" height="64.547" rx="32" fill="#F7F0FD"/>
<path fill-rule="evenodd" clip-rule="evenodd" d="M38.2182 40.8092C37.7136 40.6805 37.2271 40.5631 36.8612 40.4889C35.0229 40.1159 32.7712 40.2319 31.2796 40.3817C30.1931 40.4908 29.1221 40.7039 28.0644 40.9771C27.2366 41.1909 26.2404 41.4702 25.4733 41.7531C17.0489 44.8602 12 51.742 12 60.569C12 71.4326 20.5598 80.2393 31.1188 80.2393C39.8893 80.2393 47.4153 74.8048 49.5963 65.8607C49.6303 65.7211 49.6635 65.5703 49.6953 65.4138C49.9981 63.9262 50.174 62.3559 49.7403 60.9017C49.6093 60.4623 49.2143 60.1623 48.7668 60.1623H32.3647C32.3282 60.1623 32.292 60.1676 32.257 60.1782C32.0547 60.2392 31.9389 60.4572 31.9984 60.6649L32.7466 63.4223C33.2329 65.2143 34.8466 66.4568 36.6875 66.4568H40.1952C40.5081 66.4568 40.7025 66.7962 40.5301 67.0599C38.4577 70.2296 34.7693 72.0949 31.1282 72.0949C24.7928 72.0949 19.6309 67.0667 19.6309 60.5485C19.6309 54.0304 24.8294 48.8991 31.1282 48.8991C31.2194 48.8991 31.3113 48.8998 31.4032 48.9012C32.777 48.9218 34.0972 49.3552 35.3549 49.9134C35.6646 50.0509 36.0604 50.1734 36.4231 50.2708C37.0889 50.4496 37.7741 50.5423 38.4627 50.5641C38.7341 50.5727 39.0227 50.5755 39.2795 50.5646C39.553 50.5531 39.6896 50.2629 39.5552 50.0222L39.4198 49.7795C39.1638 49.3207 39.2419 48.761 39.5275 48.3204C39.6876 48.0733 39.8087 47.8235 39.8248 47.6153C39.846 47.3406 39.7988 47.1063 39.6831 46.9124C39.5631 46.7111 39.3188 46.6446 39.0873 46.6195C38.869 46.5958 38.5928 46.5468 38.3834 46.4457C37.1393 45.845 37.6766 43.7401 39.0556 43.7146C39.2418 43.7112 39.4273 43.7408 39.6053 43.816C39.6835 43.8491 39.7607 43.8816 39.8358 43.9133C40.4418 44.1683 41.0758 44.4112 41.7221 44.2942C41.9257 44.2573 42.1557 44.1469 42.4122 43.963C42.5748 43.8464 42.5418 43.5186 42.425 43.3553C41.4168 41.9455 39.8886 41.2352 38.2182 40.8092ZM45.7193 47.7315L49.7698 51.2651C50.1581 51.6039 49.866 52.2446 49.3594 52.1654L42.2124 51.0478C40.7567 50.8202 39.9168 49.25 40.5262 47.8953L40.5965 47.7391C40.7377 47.4252 40.7377 47.0648 40.5966 46.7505C40.4216 46.3607 40.0452 46.1029 39.6225 46.083L39.3955 46.0724C38.8774 46.0481 38.5097 45.5511 38.6333 45.042L38.6391 45.0179C38.7632 44.5063 39.3454 44.2671 39.7881 44.5458L40.1031 44.7441C40.7069 45.1243 41.4353 45.246 42.1274 45.0824C42.3349 45.0333 42.5293 44.9393 42.6974 44.8069L42.7238 44.7861C43.0996 44.4901 43.6287 44.4978 43.9967 44.8046L44.0916 44.8837C44.6219 45.3258 44.9955 45.9302 45.1561 46.6056L45.2313 46.9221C45.3062 47.2368 45.4769 47.5199 45.7193 47.7315Z" fill="url(#paint0_linear_1490_158441)"/>
<rect x="92.8722" y="78.5304" width="76.2557" height="38.5975" rx="19.2988" fill="url(#paint1_linear_1490_158441)" fill-opacity="0.3"/>
<rect x="92.8722" y="78.5304" width="76.2557" height="38.5975" rx="19.2988" stroke="#C27EFF" stroke-width="1.74435"/>
<path d="M108.74 88.7975C108.997 88.6487 109.125 88.5744 109.261 88.5452C109.381 88.5194 109.505 88.5194 109.625 88.5452C109.761 88.5744 109.889 88.6487 110.146 88.7975L116.839 92.678C117.11 92.835 117.245 92.9136 117.344 93.0253C117.431 93.1241 117.497 93.2412 117.538 93.3688C117.583 93.513 117.583 93.6748 117.583 93.9982V101.66C117.583 101.983 117.583 102.145 117.538 102.289C117.497 102.417 117.431 102.534 117.344 102.633C117.245 102.745 117.11 102.823 116.839 102.98L110.146 106.861C109.889 107.009 109.761 107.084 109.625 107.113C109.505 107.139 109.381 107.139 109.261 107.113C109.125 107.084 108.997 107.009 108.74 106.861L102.047 102.98C101.776 102.823 101.641 102.745 101.542 102.633C101.455 102.534 101.389 102.417 101.348 102.289C101.303 102.145 101.303 101.983 101.303 101.66V93.9982C101.303 93.6748 101.303 93.513 101.348 93.3688C101.389 93.2412 101.455 93.1241 101.542 93.0253C101.641 92.9136 101.776 92.835 102.047 92.678L108.74 88.7975Z" fill="url(#paint2_linear_1490_158441)"/>
<path d="M109.443 88.8619V97.8291M109.443 97.8291L117.131 93.3717M109.443 97.8291L101.755 93.3717M109.443 97.8291V106.796M117.131 102.286L110.146 98.2365C109.889 98.0878 109.761 98.0135 109.625 97.9843C109.505 97.9585 109.381 97.9585 109.261 97.9843C109.125 98.0135 108.997 98.0878 108.74 98.2365L101.755 102.286M117.583 101.66V93.9982C117.583 93.6748 117.583 93.513 117.538 93.3688C117.497 93.2412 117.431 93.1241 117.344 93.0253C117.245 92.9136 117.11 92.835 116.839 92.678L110.146 88.7975C109.889 88.6487 109.761 88.5744 109.625 88.5452C109.505 88.5194 109.381 88.5194 109.261 88.5452C109.125 88.5744 108.997 88.6487 108.74 88.7975L102.047 92.678C101.776 92.835 101.641 92.9136 101.542 93.0253C101.455 93.1241 101.389 93.2412 101.348 93.3688C101.303 93.513 101.303 93.6748 101.303 93.9982V101.66C101.303 101.983 101.303 102.145 101.348 102.289C101.389 102.417 101.455 102.534 101.542 102.633C101.641 102.745 101.776 102.823 102.047 102.98L108.74 106.861C108.997 107.009 109.125 107.084 109.261 107.113C109.381 107.139 109.505 107.139 109.625 107.113C109.761 107.084 109.889 107.009 110.146 106.861L116.839 102.98C117.11 102.823 117.245 102.745 117.344 102.633C117.431 102.534 117.497 102.417 117.538 102.289C117.583 102.145 117.583 101.983 117.583 101.66Z" stroke="#3C3C3C" stroke-width="1.39548" stroke-linecap="round" stroke-linejoin="round"/>
<path d="M125.716 102.829V92.2541H130.306C131.466 92.2541 132.361 92.5441 132.991 93.1241C133.621 93.7041 133.936 94.5141 133.936 95.5541C133.936 96.5941 133.621 97.4091 132.991 97.9991C132.361 98.5791 131.466 98.8691 130.306 98.8691H127.636V102.829H125.716ZM127.636 97.3541H130.006C131.386 97.3541 132.076 96.7541 132.076 95.5541C132.076 94.3641 131.386 93.7691 130.006 93.7691H127.636V97.3541ZM135.501 102.829V92.2541H140.091C141.251 92.2541 142.146 92.5341 142.776 93.0941C143.406 93.6441 143.721 94.4191 143.721 95.4191C143.721 96.2091 143.516 96.8641 143.106 97.3841C142.696 97.8941 142.106 98.2391 141.336 98.4191C141.846 98.5791 142.266 98.9641 142.596 99.5741L144.366 102.829H142.251L140.421 99.4541C140.241 99.1241 140.026 98.8991 139.776 98.7791C139.536 98.6591 139.226 98.5991 138.846 98.5991H137.421V102.829H135.501ZM137.421 97.1741H139.761C141.161 97.1741 141.861 96.6041 141.861 95.4641C141.861 94.3341 141.161 93.7691 139.761 93.7691H137.421V97.1741ZM150.451 102.979C149.431 102.979 148.536 102.754 147.766 102.304C147.006 101.854 146.416 101.224 145.996 100.414C145.576 99.5941 145.366 98.6341 145.366 97.5341C145.366 96.4241 145.576 95.4641 145.996 94.6541C146.416 93.8441 147.006 93.2191 147.766 92.7791C148.526 92.3291 149.421 92.1041 150.451 92.1041C151.481 92.1041 152.376 92.3291 153.136 92.7791C153.896 93.2191 154.486 93.8441 154.906 94.6541C155.326 95.4641 155.536 96.4191 155.536 97.5191C155.536 98.6291 155.326 99.5941 154.906 100.414C154.486 101.224 153.896 101.854 153.136 102.304C152.376 102.754 151.481 102.979 150.451 102.979ZM150.451 101.329C151.421 101.329 152.176 100.994 152.716 100.324C153.256 99.6541 153.526 98.7241 153.526 97.5341C153.526 96.3341 153.256 95.4041 152.716 94.7441C152.186 94.0841 151.431 93.7541 150.451 93.7541C149.481 93.7541 148.726 94.0841 148.186 94.7441C147.646 95.4041 147.376 96.3341 147.376 97.5341C147.376 98.7241 147.646 99.6541 148.186 100.324C148.726 100.994 149.481 101.329 150.451 101.329Z" fill="#3C3C3C"/>
<rect x="95.3722" y="0.872175" width="71.12" height="38.5975" rx="19.2988" fill="url(#paint3_linear_1490_158441)" fill-opacity="0.3"/>
<rect x="95.3722" y="0.872175" width="71.12" height="38.5975" rx="19.2988" stroke="#31E591" stroke-width="1.74435"/>
<path d="M111.24 11.1393C111.497 10.9905 111.625 10.9162 111.761 10.887C111.881 10.8612 112.005 10.8612 112.125 10.887C112.261 10.9162 112.389 10.9905 112.646 11.1393L119.339 15.0198C119.61 15.1768 119.745 15.2554 119.844 15.3671C119.931 15.4659 119.997 15.583 120.038 15.7106C120.083 15.8548 120.083 16.0165 120.083 16.34V24.0018C120.083 24.3252 120.083 24.4869 120.038 24.6311C119.997 24.7587 119.931 24.8759 119.844 24.9747C119.745 25.0864 119.61 25.1649 119.339 25.322L112.646 29.2025C112.389 29.3512 112.261 29.4256 112.125 29.4547C112.005 29.4805 111.881 29.4805 111.761 29.4547C111.625 29.4256 111.497 29.3512 111.24 29.2025L104.547 25.322C104.276 25.1649 104.141 25.0864 104.042 24.9747C103.955 24.8759 103.889 24.7587 103.848 24.6311C103.803 24.4869 103.803 24.3252 103.803 24.0018V16.34C103.803 16.0165 103.803 15.8548 103.848 15.7106C103.889 15.583 103.955 15.4659 104.042 15.3671C104.141 15.2554 104.276 15.1768 104.547 15.0198L111.24 11.1393Z" fill="url(#paint4_linear_1490_158441)"/>
<path d="M119.631 15.7135L111.943 20.1708M111.943 20.1708L104.255 15.7135M111.943 20.1708L111.943 29.138M120.083 24.0018V16.34C120.083 16.0165 120.083 15.8548 120.038 15.7106C119.997 15.583 119.931 15.4659 119.844 15.3671C119.745 15.2554 119.61 15.1768 119.339 15.0198L112.646 11.1393C112.389 10.9905 112.261 10.9162 112.125 10.887C112.005 10.8612 111.881 10.8612 111.761 10.887C111.625 10.9162 111.497 10.9905 111.24 11.1393L104.547 15.0198C104.276 15.1768 104.141 15.2554 104.042 15.3671C103.955 15.4659 103.889 15.583 103.848 15.7106C103.803 15.8548 103.803 16.0165 103.803 16.34V24.0018C103.803 24.3252 103.803 24.4869 103.848 24.6311C103.889 24.7587 103.955 24.8759 104.042 24.9747C104.141 25.0864 104.276 25.1649 104.547 25.322L111.24 29.2025C111.497 29.3512 111.625 29.4256 111.761 29.4547C111.881 29.4805 112.005 29.4805 112.125 29.4547C112.261 29.4256 112.389 29.3512 112.646 29.2025L119.339 25.322C119.61 25.1649 119.745 25.0864 119.844 24.9747C119.931 24.8759 119.997 24.7587 120.038 24.6311C120.083 24.4869 120.083 24.3252 120.083 24.0018Z" stroke="#3C3C3C" stroke-width="1.39548" stroke-linecap="round" stroke-linejoin="round"/>
<path d="M128.216 25.1709V14.5959H130.136V23.5359H135.206V25.1709H128.216ZM136.638 25.1709V14.5959H138.558V25.1709H136.638ZM143.407 25.1709V16.2009H139.777V14.5959H148.957V16.2009H145.327V25.1709H143.407ZM150.174 25.1709V14.5959H157.209V16.1259H152.019V19.0359H156.879V20.5659H152.019V23.6409H157.209V25.1709H150.174Z" fill="#3C3C3C"/>
<defs>
<linearGradient id="paint0_linear_1490_158441" x1="50" y1="80.2393" x2="3.41561" y2="59.9211" gradientUnits="userSpaceOnUse">
<stop stop-color="#5855FF"/>
<stop offset="1" stop-color="#E036FF"/>
</linearGradient>
<linearGradient id="paint1_linear_1490_158441" x1="162.433" y1="113.294" x2="110.863" y2="69.1643" gradientUnits="userSpaceOnUse">
<stop stop-color="#5855FF"/>
<stop offset="1" stop-color="#E036FF"/>
</linearGradient>
<linearGradient id="paint2_linear_1490_158441" x1="117.583" y1="107.132" x2="97.1291" y2="98.9153" gradientUnits="userSpaceOnUse">
<stop stop-color="#5855FF"/>
<stop offset="1" stop-color="#E036FF"/>
</linearGradient>
<linearGradient id="paint3_linear_1490_158441" x1="101.025" y1="4.70655" x2="151.822" y2="46.5963" gradientUnits="userSpaceOnUse">
<stop stop-color="#31E591"/>
<stop offset="1" stop-color="#2AC3FF"/>
</linearGradient>
<linearGradient id="paint4_linear_1490_158441" x1="103.803" y1="15.5193" x2="120.083" y2="24.8225" gradientUnits="userSpaceOnUse">
<stop stop-color="#31E591"/>
<stop offset="1" stop-color="#2AC3FF"/>
</linearGradient>
</defs>
</svg>
