<svg width="171" height="118" viewBox="0 0 171 118" fill="none" xmlns="http://www.w3.org/2000/svg">
<rect x="46.3722" y="0.872175" width="76.2556" height="38.6317" rx="19.3158" fill="url(#paint0_linear_1681_113111)" fill-opacity="0.3"/>
<rect x="46.3722" y="0.872175" width="76.2556" height="38.6317" rx="19.3158" stroke="#C27EFF" stroke-width="1.74435"/>
<path d="M62.2402 11.1564C62.4967 11.0076 62.625 10.9333 62.7608 10.9041C62.881 10.8783 63.005 10.8783 63.1252 10.9041C63.2611 10.9333 63.3893 11.0076 63.6458 11.1564L70.339 15.0369C70.6099 15.1939 70.7453 15.2725 70.844 15.3842C70.9312 15.483 70.9973 15.6001 71.0377 15.7277C71.0833 15.8719 71.0833 16.0336 71.0833 16.3571V24.0189C71.0833 24.3423 71.0833 24.504 71.0377 24.6482C70.9973 24.7758 70.9312 24.8929 70.844 24.9918C70.7453 25.1035 70.6099 25.182 70.339 25.3391L63.6458 29.2196C63.3893 29.3683 63.2611 29.4427 63.1252 29.4718C63.005 29.4976 62.881 29.4976 62.7608 29.4718C62.625 29.4427 62.4967 29.3683 62.2402 29.2196L55.5471 25.3391C55.2762 25.182 55.1407 25.1035 55.0421 24.9918C54.9548 24.8929 54.8888 24.7758 54.8484 24.6482C54.8027 24.504 54.8027 24.3423 54.8027 24.0189V16.3571C54.8027 16.0336 54.8027 15.8719 54.8484 15.7277C54.8888 15.6001 54.9548 15.483 55.0421 15.3842C55.1407 15.2725 55.2762 15.1939 55.5471 15.0369L62.2402 11.1564Z" fill="url(#paint1_linear_1681_113111)"/>
<path d="M62.943 11.2208V20.188M62.943 20.188L70.6311 15.7306M62.943 20.188L55.255 15.7306M62.943 20.188V29.1551M70.6311 24.6453L63.6458 20.5954C63.3893 20.4467 63.2611 20.3724 63.1252 20.3432C63.005 20.3174 62.881 20.3174 62.7608 20.3432C62.625 20.3724 62.4967 20.4467 62.2402 20.5954L55.255 24.6453M71.0833 24.0189V16.3571C71.0833 16.0336 71.0833 15.8719 71.0377 15.7277C70.9973 15.6001 70.9312 15.483 70.844 15.3842C70.7453 15.2725 70.6099 15.1939 70.339 15.0369L63.6458 11.1564C63.3893 11.0076 63.2611 10.9333 63.1252 10.9041C63.005 10.8783 62.881 10.8783 62.7608 10.9041C62.625 10.9333 62.4967 11.0076 62.2402 11.1564L55.5471 15.0369C55.2762 15.1939 55.1407 15.2725 55.0421 15.3842C54.9548 15.483 54.8888 15.6001 54.8484 15.7277C54.8027 15.8719 54.8027 16.0336 54.8027 16.3571V24.0189C54.8027 24.3423 54.8027 24.504 54.8484 24.6482C54.8888 24.7758 54.9548 24.8929 55.0421 24.9918C55.1407 25.1035 55.2762 25.182 55.5471 25.3391L62.2402 29.2196C62.4967 29.3683 62.625 29.4427 62.7608 29.4718C62.881 29.4976 63.005 29.4976 63.1252 29.4718C63.2611 29.4427 63.3893 29.3683 63.6458 29.2196L70.339 25.3391C70.6099 25.182 70.7453 25.1035 70.844 24.9918C70.9312 24.8929 70.9973 24.7758 71.0377 24.6482C71.0833 24.504 71.0833 24.3423 71.0833 24.0189Z" stroke="#EEEEEE" stroke-width="1.39548" stroke-linecap="round" stroke-linejoin="round"/>
<path d="M79.2155 25.188V14.613H83.8055C84.9655 14.613 85.8605 14.903 86.4905 15.483C87.1205 16.063 87.4355 16.873 87.4355 17.913C87.4355 18.953 87.1205 19.768 86.4905 20.358C85.8605 20.938 84.9655 21.228 83.8055 21.228H81.1355V25.188H79.2155ZM81.1355 19.713H83.5055C84.8855 19.713 85.5755 19.113 85.5755 17.913C85.5755 16.723 84.8855 16.128 83.5055 16.128H81.1355V19.713ZM89.0007 25.188V14.613H93.5907C94.7507 14.613 95.6457 14.893 96.2757 15.453C96.9057 16.003 97.2207 16.778 97.2207 17.778C97.2207 18.568 97.0157 19.223 96.6057 19.743C96.1957 20.253 95.6057 20.598 94.8357 20.778C95.3457 20.938 95.7657 21.323 96.0957 21.933L97.8657 25.188H95.7507L93.9207 21.813C93.7407 21.483 93.5257 21.258 93.2757 21.138C93.0357 21.018 92.7257 20.958 92.3457 20.958H90.9207V25.188H89.0007ZM90.9207 19.533H93.2607C94.6607 19.533 95.3607 18.963 95.3607 17.823C95.3607 16.693 94.6607 16.128 93.2607 16.128H90.9207V19.533ZM103.951 25.338C102.931 25.338 102.036 25.113 101.266 24.663C100.506 24.213 99.9157 23.583 99.4957 22.773C99.0757 21.953 98.8657 20.993 98.8657 19.893C98.8657 18.783 99.0757 17.823 99.4957 17.013C99.9157 16.203 100.506 15.578 101.266 15.138C102.026 14.688 102.921 14.463 103.951 14.463C104.981 14.463 105.876 14.688 106.636 15.138C107.396 15.578 107.986 16.203 108.406 17.013C108.826 17.823 109.036 18.778 109.036 19.878C109.036 20.988 108.826 21.953 108.406 22.773C107.986 23.583 107.396 24.213 106.636 24.663C105.876 25.113 104.981 25.338 103.951 25.338ZM103.951 23.688C104.921 23.688 105.676 23.353 106.216 22.683C106.756 22.013 107.026 21.083 107.026 19.893C107.026 18.693 106.756 17.763 106.216 17.103C105.686 16.443 104.931 16.113 103.951 16.113C102.981 16.113 102.226 16.443 101.686 17.103C101.146 17.763 100.876 18.693 100.876 19.893C100.876 21.083 101.146 22.013 101.686 22.683C102.226 23.353 102.981 23.688 103.951 23.688Z" fill="#EEEEEE"/>
<rect x="0.79538" y="86.2446" width="169.409" height="31.3102" rx="2.65842" fill="#1C1C1C"/>
<rect x="0.79538" y="86.2446" width="169.409" height="31.3102" rx="2.65842" stroke="#636363" stroke-width="0.590759"/>
<circle cx="13.7927" cy="101.9" r="6.94142" fill="#2270C5" stroke="#1C1C1C" stroke-width="0.886139"/>
<path d="M15.733 102.881C15.733 101.986 15.1224 101.679 13.9013 101.55C13.029 101.448 12.8546 101.243 12.8546 100.885C12.8546 100.527 13.1456 100.297 13.7268 100.297C14.2502 100.297 14.5412 100.45 14.6863 100.834C14.7156 100.911 14.8028 100.962 14.8901 100.962H15.3555C15.472 100.962 15.5593 100.885 15.5593 100.783V100.757C15.4427 100.194 14.9194 99.7588 14.2509 99.7078V99.0937C14.2509 98.9911 14.1637 98.9143 14.0185 98.8892H13.5824C13.4659 98.8892 13.3786 98.9659 13.35 99.0937V99.682C12.4778 99.7846 11.9251 100.296 11.9251 100.936C11.9251 101.781 12.5064 102.113 13.7275 102.241C14.5419 102.369 14.8035 102.522 14.8035 102.932C14.8035 103.342 14.3967 103.623 13.8441 103.623C13.0883 103.623 12.8267 103.342 12.7394 102.958C12.7101 102.855 12.6229 102.804 12.5357 102.804H12.0416C11.9251 102.804 11.8379 102.881 11.8379 102.984V103.009C11.9544 103.649 12.4192 104.11 13.3786 104.238V104.852C13.3786 104.954 13.4659 105.031 13.611 105.056H14.0471C14.1637 105.056 14.2509 104.98 14.2795 104.852V104.238C15.151 104.109 15.733 103.572 15.733 102.881Z" fill="white"/>
<path d="M12.4094 105.488C10.3052 104.752 9.2259 102.467 10.0087 100.444C10.4133 99.3409 11.3036 98.5005 12.4094 98.1065C12.5175 98.0542 12.5713 97.9754 12.5713 97.8436V97.4761C12.5713 97.3708 12.5175 97.292 12.4094 97.2661C12.3822 97.2661 12.3285 97.2661 12.3013 97.2926C9.73868 98.0807 8.33565 100.734 9.14496 103.23C9.63055 104.7 10.7908 105.83 12.3013 106.303C12.4094 106.355 12.5169 106.303 12.5441 106.198C12.5713 106.171 12.5713 106.145 12.5713 106.092V105.725C12.5713 105.645 12.4903 105.541 12.4094 105.488ZM15.2685 97.292C15.1604 97.2396 15.0529 97.292 15.0257 97.3972C14.9986 97.4237 14.9986 97.4496 14.9986 97.5025V97.8701C14.9986 97.9754 15.0795 98.08 15.1604 98.133C17.2646 98.8687 18.3439 101.154 17.5612 103.177C17.1565 104.28 16.2663 105.12 15.1604 105.514C15.0523 105.567 14.9986 105.645 14.9986 105.777V106.145C14.9986 106.25 15.0523 106.329 15.1604 106.355C15.1876 106.355 15.2413 106.355 15.2685 106.328C17.8311 105.54 19.2342 102.887 18.4249 100.391C17.9393 98.8946 16.7525 97.7648 15.2685 97.292Z" fill="white"/>
<circle cx="23.8357" cy="101.9" r="6.94142" fill="black" stroke="#1C1C1C" stroke-width="0.886139"/>
<path d="M21.7687 103.347C21.8084 103.307 21.8618 103.285 21.9176 103.285H27.088C27.1823 103.285 27.2295 103.4 27.1625 103.466L26.1408 104.495C26.1011 104.536 26.0477 104.558 25.9918 104.558H20.8227C20.7284 104.558 20.6812 104.443 20.7483 104.377L21.7687 103.347Z" fill="url(#paint2_linear_1681_113111)"/>
<path d="M21.7687 99.5006C21.8084 99.4605 21.8618 99.438 21.9176 99.438H27.088C27.1823 99.438 27.2295 99.5532 27.1625 99.6195L26.1408 100.649C26.1011 100.689 26.0477 100.711 25.9918 100.711H20.8228C20.7284 100.711 20.6812 100.596 20.7483 100.53L21.7687 99.5006Z" fill="url(#paint3_linear_1681_113111)"/>
<path d="M26.1408 101.411C26.1011 101.371 26.0477 101.349 25.9918 101.349H20.8228C20.7284 101.349 20.6812 101.464 20.7483 101.53L21.7699 102.559C21.8096 102.6 21.863 102.622 21.9189 102.622H27.0892C27.1836 102.622 27.2307 102.507 27.1637 102.44L26.1408 101.411Z" fill="url(#paint4_linear_1681_113111)"/>
<path d="M38.9613 99.2142V103.042C38.9613 103.462 39.0706 103.784 39.2891 104.008C39.5077 104.227 39.8149 104.336 40.2107 104.336C40.6124 104.336 40.9226 104.227 41.1412 104.008C41.3597 103.784 41.469 103.462 41.469 103.042V99.2142H42.7185V103.033C42.7185 103.559 42.6033 104.005 42.3729 104.371C42.1484 104.732 41.8442 105.004 41.4602 105.187C41.0821 105.37 40.6597 105.461 40.193 105.461C39.7322 105.461 39.3128 105.37 38.9347 105.187C38.5625 105.004 38.2671 104.732 38.0485 104.371C37.83 104.005 37.7207 103.559 37.7207 103.033V99.2142H38.9613ZM46.0527 105.461C45.6215 105.461 45.2316 105.388 44.883 105.24C44.5404 105.092 44.2686 104.88 44.0678 104.602C43.8669 104.324 43.7635 103.996 43.7576 103.618H45.0868C45.1046 103.872 45.1932 104.073 45.3527 104.221C45.5181 104.369 45.7426 104.442 46.0261 104.442C46.3156 104.442 46.5431 104.374 46.7085 104.239C46.8739 104.097 46.9566 103.914 46.9566 103.689C46.9566 103.506 46.9005 103.355 46.7882 103.237C46.676 103.119 46.5342 103.028 46.3629 102.963C46.1975 102.892 45.9671 102.815 45.6717 102.732C45.27 102.614 44.9421 102.499 44.6881 102.387C44.44 102.268 44.2243 102.094 44.0412 101.864C43.864 101.627 43.7753 101.314 43.7753 100.924C43.7753 100.558 43.8669 100.239 44.0501 99.9674C44.2332 99.6956 44.4902 99.4889 44.821 99.3471C45.1518 99.1994 45.5299 99.1256 45.9552 99.1256C46.5933 99.1256 47.1102 99.2821 47.506 99.5952C47.9077 99.9024 48.1292 100.334 48.1706 100.889H46.8059C46.7941 100.676 46.7026 100.502 46.5312 100.366C46.3658 100.224 46.1443 100.153 45.8666 100.153C45.6244 100.153 45.4295 100.216 45.2818 100.34C45.14 100.464 45.0691 100.644 45.0691 100.88C45.0691 101.046 45.1223 101.184 45.2286 101.297C45.3409 101.403 45.4767 101.492 45.6362 101.562C45.8017 101.627 46.032 101.704 46.3274 101.793C46.7291 101.911 47.057 102.029 47.311 102.147C47.5651 102.265 47.7836 102.443 47.9668 102.679C48.1499 102.915 48.2415 103.225 48.2415 103.609C48.2415 103.94 48.1558 104.247 47.9845 104.531C47.8132 104.815 47.5621 105.042 47.2313 105.213C46.9005 105.379 46.5076 105.461 46.0527 105.461ZM51.4792 99.2142C52.1291 99.2142 52.6991 99.3412 53.1895 99.5952C53.6857 99.8492 54.0667 100.213 54.3326 100.685C54.6043 101.152 54.7402 101.695 54.7402 102.316C54.7402 102.936 54.6043 103.479 54.3326 103.946C54.0667 104.407 53.6857 104.764 53.1895 105.018C52.6991 105.272 52.1291 105.399 51.4792 105.399H49.317V99.2142H51.4792ZM51.4349 104.345C52.0847 104.345 52.5869 104.168 52.9413 103.813C53.2958 103.459 53.473 102.96 53.473 102.316C53.473 101.672 53.2958 101.17 52.9413 100.809C52.5869 100.443 52.0847 100.26 51.4349 100.26H50.5576V104.345H51.4349ZM55.3676 102.298C55.3676 101.689 55.5034 101.146 55.7752 100.667C56.0528 100.183 56.428 99.8079 56.9006 99.542C57.3791 99.2703 57.9137 99.1344 58.5045 99.1344C59.1957 99.1344 59.8012 99.3116 60.3211 99.6661C60.8409 100.021 61.2043 100.511 61.411 101.137H59.9843C59.8426 100.842 59.6417 100.62 59.3818 100.472C59.1277 100.325 58.8324 100.251 58.4956 100.251C58.1353 100.251 57.8133 100.337 57.5297 100.508C57.2521 100.673 57.0335 100.91 56.874 101.217C56.7204 101.524 56.6436 101.884 56.6436 102.298C56.6436 102.706 56.7204 103.066 56.874 103.379C57.0335 103.686 57.2521 103.925 57.5297 104.097C57.8133 104.262 58.1353 104.345 58.4956 104.345C58.8324 104.345 59.1277 104.271 59.3818 104.123C59.6417 103.97 59.8426 103.745 59.9843 103.45H61.411C61.2043 104.082 60.8409 104.575 60.3211 104.93C59.8071 105.278 59.2016 105.453 58.5045 105.453C57.9137 105.453 57.3791 105.32 56.9006 105.054C56.428 104.782 56.0528 104.407 55.7752 103.928C55.5034 103.45 55.3676 102.906 55.3676 102.298ZM68.3571 101.713V102.759H64.5999V101.713H68.3571ZM73.9955 105.461C73.5643 105.461 73.1744 105.388 72.8258 105.24C72.4832 105.092 72.2114 104.88 72.0106 104.602C71.8097 104.324 71.7063 103.996 71.7004 103.618H73.0296C73.0473 103.872 73.136 104.073 73.2955 104.221C73.4609 104.369 73.6854 104.442 73.9689 104.442C74.2584 104.442 74.4858 104.374 74.6513 104.239C74.8167 104.097 74.8994 103.914 74.8994 103.689C74.8994 103.506 74.8433 103.355 74.731 103.237C74.6188 103.119 74.477 103.028 74.3057 102.963C74.1403 102.892 73.9099 102.815 73.6145 102.732C73.2128 102.614 72.8849 102.499 72.6309 102.387C72.3827 102.268 72.1671 102.094 71.984 101.864C71.8068 101.627 71.7181 101.314 71.7181 100.924C71.7181 100.558 71.8097 100.239 71.9928 99.9674C72.176 99.6956 72.433 99.4889 72.7638 99.3471C73.0946 99.1994 73.4727 99.1256 73.898 99.1256C74.5361 99.1256 75.053 99.2821 75.4488 99.5952C75.8505 99.9024 76.072 100.334 76.1134 100.889H74.7487C74.7369 100.676 74.6454 100.502 74.474 100.366C74.3086 100.224 74.0871 100.153 73.8094 100.153C73.5672 100.153 73.3723 100.216 73.2246 100.34C73.0828 100.464 73.0119 100.644 73.0119 100.88C73.0119 101.046 73.0651 101.184 73.1714 101.297C73.2837 101.403 73.4195 101.492 73.579 101.562C73.7444 101.627 73.9748 101.704 74.2702 101.793C74.6719 101.911 74.9998 102.029 75.2538 102.147C75.5079 102.265 75.7264 102.443 75.9096 102.679C76.0927 102.915 76.1843 103.225 76.1843 103.609C76.1843 103.94 76.0986 104.247 75.9273 104.531C75.756 104.815 75.5049 105.042 75.1741 105.213C74.8433 105.379 74.4504 105.461 73.9955 105.461ZM80.1309 105.461C79.552 105.461 79.0203 105.326 78.5359 105.054C78.0514 104.782 77.6675 104.407 77.3839 103.928C77.1003 103.444 76.9585 102.898 76.9585 102.289C76.9585 101.686 77.1003 101.146 77.3839 100.667C77.6675 100.183 78.0514 99.8049 78.5359 99.5332C79.0203 99.2614 79.552 99.1256 80.1309 99.1256C80.7158 99.1256 81.2475 99.2614 81.726 99.5332C82.2104 99.8049 82.5914 100.183 82.8691 100.667C83.1527 101.146 83.2944 101.686 83.2944 102.289C83.2944 102.898 83.1527 103.444 82.8691 103.928C82.5914 104.407 82.2104 104.782 81.726 105.054C81.2415 105.326 80.7099 105.461 80.1309 105.461ZM80.1309 104.354C80.5031 104.354 80.831 104.271 81.1145 104.106C81.3981 103.934 81.6196 103.692 81.7791 103.379C81.9386 103.066 82.0184 102.703 82.0184 102.289C82.0184 101.876 81.9386 101.515 81.7791 101.208C81.6196 100.895 81.3981 100.656 81.1145 100.49C80.831 100.325 80.5031 100.242 80.1309 100.242C79.7587 100.242 79.4279 100.325 79.1384 100.49C78.8549 100.656 78.6333 100.895 78.4738 101.208C78.3143 101.515 78.2346 101.876 78.2346 102.289C78.2346 102.703 78.3143 103.066 78.4738 103.379C78.6333 103.692 78.8549 103.934 79.1384 104.106C79.4279 104.271 79.7587 104.354 80.1309 104.354ZM85.458 104.416H87.4961V105.399H84.2174V99.2142H85.458V104.416Z" fill="#EEEEEE"/>
<rect x="94.3305" y="95.3091" width="24.1353" height="13.1815" rx="1.18152" fill="#131313"/>
<rect x="94.3305" y="95.3091" width="24.1353" height="13.1815" rx="1.18152" stroke="#636363" stroke-width="0.590759"/>
<path d="M98.5178 101.908C98.5178 100.985 98.6831 100.263 99.0138 99.7399C99.3498 99.2172 99.9044 98.9559 100.678 98.9559C101.451 98.9559 102.003 99.2172 102.334 99.7399C102.67 100.263 102.838 100.985 102.838 101.908C102.838 102.836 102.67 103.564 102.334 104.092C102.003 104.62 101.451 104.884 100.678 104.884C99.9044 104.884 99.3498 104.62 99.0138 104.092C98.6831 103.564 98.5178 102.836 98.5178 101.908ZM101.734 101.908C101.734 101.513 101.707 101.183 101.654 100.916C101.606 100.644 101.504 100.423 101.35 100.252C101.2 100.081 100.976 99.9959 100.678 99.9959C100.379 99.9959 100.152 100.081 99.9978 100.252C99.8484 100.423 99.7471 100.644 99.6938 100.916C99.6458 101.183 99.6218 101.513 99.6218 101.908C99.6218 102.313 99.6458 102.655 99.6938 102.932C99.7418 103.204 99.8431 103.425 99.9978 103.596C100.152 103.761 100.379 103.844 100.678 103.844C100.976 103.844 101.203 103.761 101.358 103.596C101.512 103.425 101.614 103.204 101.662 102.932C101.71 102.655 101.734 102.313 101.734 101.908ZM104.314 104.956C104.111 104.956 103.943 104.895 103.81 104.772C103.682 104.644 103.618 104.487 103.618 104.3C103.618 104.113 103.682 103.959 103.81 103.836C103.943 103.708 104.111 103.644 104.314 103.644C104.511 103.644 104.674 103.708 104.802 103.836C104.93 103.959 104.994 104.113 104.994 104.3C104.994 104.487 104.93 104.644 104.802 104.772C104.674 104.895 104.511 104.956 104.314 104.956ZM106.12 103.636C106.632 103.209 107.04 102.855 107.344 102.572C107.648 102.284 107.901 101.985 108.104 101.676C108.306 101.367 108.408 101.063 108.408 100.764C108.408 100.492 108.344 100.279 108.216 100.124C108.088 99.9692 107.89 99.8919 107.624 99.8919C107.357 99.8919 107.152 99.9826 107.008 100.164C106.864 100.34 106.789 100.583 106.784 100.892H105.696C105.717 100.252 105.906 99.7666 106.264 99.4359C106.626 99.1052 107.085 98.9399 107.64 98.9399C108.248 98.9399 108.714 99.1026 109.04 99.4279C109.365 99.7479 109.528 100.172 109.528 100.7C109.528 101.116 109.416 101.513 109.192 101.892C108.968 102.271 108.712 102.601 108.424 102.884C108.136 103.161 107.76 103.497 107.296 103.892H109.656V104.82H105.704V103.988L106.12 103.636ZM110.234 100.5C110.234 100.095 110.351 99.7772 110.586 99.5479C110.826 99.3186 111.132 99.2039 111.506 99.2039C111.879 99.2039 112.183 99.3186 112.418 99.5479C112.658 99.7772 112.778 100.095 112.778 100.5C112.778 100.911 112.658 101.231 112.418 101.46C112.183 101.689 111.879 101.804 111.506 101.804C111.132 101.804 110.826 101.689 110.586 101.46C110.351 101.231 110.234 100.911 110.234 100.5ZM115.37 99.2999L112.226 104.9H111.138L114.274 99.2999H115.37ZM111.498 99.8759C111.204 99.8759 111.058 100.084 111.058 100.5C111.058 100.921 111.204 101.132 111.498 101.132C111.642 101.132 111.754 101.081 111.834 100.98C111.914 100.873 111.954 100.713 111.954 100.5C111.954 100.084 111.802 99.8759 111.498 99.8759ZM113.746 103.692C113.746 103.281 113.863 102.964 114.098 102.74C114.338 102.511 114.644 102.396 115.018 102.396C115.391 102.396 115.692 102.511 115.922 102.74C116.156 102.964 116.274 103.281 116.274 103.692C116.274 104.103 116.156 104.423 115.922 104.652C115.692 104.881 115.391 104.996 115.018 104.996C114.639 104.996 114.332 104.881 114.098 104.652C113.863 104.423 113.746 104.103 113.746 103.692ZM115.01 103.068C114.706 103.068 114.554 103.276 114.554 103.692C114.554 104.113 114.706 104.324 115.01 104.324C115.308 104.324 115.458 104.113 115.458 103.692C115.458 103.276 115.308 103.068 115.01 103.068Z" fill="#EEEEEE"/>
<rect x="122.163" y="95.3091" width="42.1353" height="13.1815" rx="1.18152" fill="url(#paint5_linear_1681_113111)" fill-opacity="0.5"/>
<rect x="122.163" y="95.3091" width="42.1353" height="13.1815" rx="1.18152" stroke="url(#paint6_linear_1681_113111)" stroke-width="0.590759"/>
<path d="M124.815 100.1V99.0679H126.743V104.9H125.591V100.1H124.815ZM128.826 101.812C128.292 101.535 128.026 101.105 128.026 100.524C128.026 100.236 128.098 99.9746 128.242 99.7399C128.391 99.4999 128.612 99.3106 128.906 99.1719C129.204 99.0279 129.567 98.9559 129.994 98.9559C130.42 98.9559 130.78 99.0279 131.074 99.1719C131.372 99.3106 131.594 99.4999 131.738 99.7399C131.887 99.9746 131.962 100.236 131.962 100.524C131.962 100.817 131.89 101.076 131.746 101.3C131.602 101.519 131.41 101.689 131.17 101.812C131.463 101.94 131.692 102.127 131.858 102.372C132.023 102.617 132.106 102.908 132.106 103.244C132.106 103.607 132.012 103.924 131.826 104.196C131.644 104.463 131.394 104.668 131.074 104.812C130.754 104.956 130.394 105.028 129.994 105.028C129.594 105.028 129.234 104.956 128.914 104.812C128.599 104.668 128.348 104.463 128.162 104.196C127.98 103.924 127.89 103.607 127.89 103.244C127.89 102.908 127.972 102.617 128.138 102.372C128.303 102.121 128.532 101.935 128.826 101.812ZM130.874 100.684C130.874 100.423 130.794 100.22 130.634 100.076C130.479 99.9319 130.266 99.8599 129.994 99.8599C129.727 99.8599 129.514 99.9319 129.354 100.076C129.199 100.22 129.122 100.425 129.122 100.692C129.122 100.932 129.202 101.124 129.362 101.268C129.527 101.412 129.738 101.484 129.994 101.484C130.25 101.484 130.46 101.412 130.626 101.268C130.791 101.119 130.874 100.924 130.874 100.684ZM129.994 102.3C129.69 102.3 129.442 102.377 129.25 102.532C129.063 102.687 128.97 102.908 128.97 103.196C128.97 103.463 129.06 103.681 129.242 103.852C129.428 104.017 129.679 104.1 129.994 104.1C130.308 104.1 130.556 104.015 130.738 103.844C130.919 103.673 131.01 103.457 131.01 103.196C131.01 102.913 130.916 102.695 130.73 102.54C130.543 102.38 130.298 102.3 129.994 102.3ZM136.91 100.036H134.318V101.404C134.43 101.265 134.59 101.153 134.798 101.068C135.006 100.977 135.228 100.932 135.462 100.932C135.889 100.932 136.238 101.025 136.51 101.212C136.782 101.399 136.98 101.639 137.102 101.932C137.225 102.22 137.286 102.529 137.286 102.86C137.286 103.473 137.11 103.967 136.758 104.34C136.412 104.713 135.916 104.9 135.27 104.9C134.662 104.9 134.177 104.748 133.814 104.444C133.452 104.14 133.246 103.743 133.198 103.252H134.286C134.334 103.465 134.441 103.636 134.606 103.764C134.777 103.892 134.993 103.956 135.254 103.956C135.569 103.956 135.806 103.857 135.966 103.66C136.126 103.463 136.206 103.201 136.206 102.876C136.206 102.545 136.124 102.295 135.958 102.124C135.798 101.948 135.561 101.86 135.246 101.86C135.022 101.86 134.836 101.916 134.686 102.028C134.537 102.14 134.43 102.289 134.366 102.476H133.294V99.0519H136.91V100.036ZM138.011 100.5C138.011 100.095 138.128 99.7772 138.363 99.5479C138.603 99.3186 138.91 99.2039 139.283 99.2039C139.656 99.2039 139.96 99.3186 140.195 99.5479C140.435 99.7772 140.555 100.095 140.555 100.5C140.555 100.911 140.435 101.231 140.195 101.46C139.96 101.689 139.656 101.804 139.283 101.804C138.91 101.804 138.603 101.689 138.363 101.46C138.128 101.231 138.011 100.911 138.011 100.5ZM143.147 99.2999L140.003 104.9H138.915L142.051 99.2999H143.147ZM139.275 99.8759C138.982 99.8759 138.835 100.084 138.835 100.5C138.835 100.921 138.982 101.132 139.275 101.132C139.419 101.132 139.531 101.081 139.611 100.98C139.691 100.873 139.731 100.713 139.731 100.5C139.731 100.084 139.579 99.8759 139.275 99.8759ZM141.523 103.692C141.523 103.281 141.64 102.964 141.875 102.74C142.115 102.511 142.422 102.396 142.795 102.396C143.168 102.396 143.47 102.511 143.699 102.74C143.934 102.964 144.051 103.281 144.051 103.692C144.051 104.103 143.934 104.423 143.699 104.652C143.47 104.881 143.168 104.996 142.795 104.996C142.416 104.996 142.11 104.881 141.875 104.652C141.64 104.423 141.523 104.103 141.523 103.692ZM142.787 103.068C142.483 103.068 142.331 103.276 142.331 103.692C142.331 104.113 142.483 104.324 142.787 104.324C143.086 104.324 143.235 104.113 143.235 103.692C143.235 103.276 143.086 103.068 142.787 103.068ZM150.23 103.836H148.006L147.638 104.9H146.462L148.47 99.3079H149.774L151.782 104.9H150.598L150.23 103.836ZM149.926 102.94L149.118 100.604L148.31 102.94H149.926ZM156.604 101.044C156.604 101.343 156.532 101.623 156.388 101.884C156.25 102.145 156.028 102.356 155.724 102.516C155.426 102.676 155.047 102.756 154.588 102.756H153.652V104.9H152.532V99.3159H154.588C155.02 99.3159 155.388 99.3906 155.692 99.5399C155.996 99.6892 156.223 99.8946 156.372 100.156C156.527 100.417 156.604 100.713 156.604 101.044ZM154.54 101.852C154.85 101.852 155.079 101.783 155.228 101.644C155.378 101.5 155.452 101.3 155.452 101.044C155.452 100.5 155.148 100.228 154.54 100.228H153.652V101.852H154.54ZM161.84 99.3159L159.952 102.956V104.9H158.832V102.956L156.936 99.3159H158.2L159.4 101.868L160.592 99.3159H161.84Z" fill="#EEEEEE"/>
<rect x="0.5" y="54.8325" width="56" height="28" rx="2" fill="url(#paint7_linear_1681_113111)"/>
<path d="M16.761 71.7785C17.593 71.0852 18.256 70.5089 18.75 70.0495C19.244 69.5815 19.6557 69.0962 19.985 68.5935C20.3143 68.0909 20.479 67.5969 20.479 67.1115C20.479 66.6695 20.375 66.3229 20.167 66.0715C19.959 65.8202 19.6383 65.6945 19.205 65.6945C18.7717 65.6945 18.438 65.8419 18.204 66.1365C17.97 66.4225 17.8487 66.8169 17.84 67.3195H16.072C16.1067 66.2795 16.4143 65.4909 16.995 64.9535C17.5843 64.4162 18.3297 64.1475 19.231 64.1475C20.219 64.1475 20.9773 64.4119 21.506 64.9405C22.0347 65.4605 22.299 66.1495 22.299 67.0075C22.299 67.6835 22.117 68.3292 21.753 68.9445C21.389 69.5599 20.973 70.0972 20.505 70.5565C20.037 71.0072 19.426 71.5532 18.672 72.1945H22.507V73.7025H16.085V72.3505L16.761 71.7785ZM23.5758 71.9865V70.5565L27.8268 64.4725H29.9458V70.4005H31.0898V71.9865H29.9458V73.8325H28.1258V71.9865H23.5758ZM28.2428 66.4225L25.5778 70.4005H28.2428V66.4225ZM39.9836 64.7585V73.8325H38.1636V69.9715H34.2766V73.8325H32.4566V64.7585H34.2766V68.4895H38.1636V64.7585H39.9836Z" fill="white"/>
<path d="M82.721 65.7335L79.263 73.8325H77.417L80.901 65.9415H76.455V64.3815H82.721V65.7335ZM87.1911 64.7585C88.1444 64.7585 88.9807 64.9449 89.7001 65.3175C90.4281 65.6902 90.9871 66.2232 91.3771 66.9165C91.7757 67.6012 91.9751 68.3985 91.9751 69.3085C91.9751 70.2185 91.7757 71.0159 91.3771 71.7005C90.9871 72.3765 90.4281 72.9009 89.7001 73.2735C88.9807 73.6462 88.1444 73.8325 87.1911 73.8325H84.0191V64.7585H87.1911ZM87.1261 72.2855C88.0794 72.2855 88.8161 72.0255 89.3361 71.5055C89.8561 70.9855 90.1161 70.2532 90.1161 69.3085C90.1161 68.3639 89.8561 67.6272 89.3361 67.0985C88.8161 66.5612 88.0794 66.2925 87.1261 66.2925H85.8391V72.2855H87.1261Z" fill="#636363"/>
<path d="M128.215 66.8515C128.258 65.9849 128.562 65.3175 129.125 64.8495C129.697 64.3729 130.447 64.1345 131.374 64.1345C132.007 64.1345 132.548 64.2472 132.999 64.4725C133.45 64.6892 133.788 64.9882 134.013 65.3695C134.247 65.7422 134.364 66.1669 134.364 66.6435C134.364 67.1895 134.221 67.6532 133.935 68.0345C133.658 68.4072 133.324 68.6585 132.934 68.7885V68.8405C133.437 68.9965 133.827 69.2739 134.104 69.6725C134.39 70.0712 134.533 70.5825 134.533 71.2065C134.533 71.7265 134.412 72.1902 134.169 72.5975C133.935 73.0049 133.584 73.3255 133.116 73.5595C132.657 73.7849 132.102 73.8975 131.452 73.8975C130.473 73.8975 129.675 73.6505 129.06 73.1565C128.445 72.6625 128.12 71.9345 128.085 70.9725H129.853C129.87 71.3972 130.013 71.7395 130.282 71.9995C130.559 72.2509 130.936 72.3765 131.413 72.3765C131.855 72.3765 132.193 72.2552 132.427 72.0125C132.67 71.7612 132.791 71.4405 132.791 71.0505C132.791 70.5305 132.626 70.1579 132.297 69.9325C131.968 69.7072 131.456 69.5945 130.763 69.5945H130.386V68.0995H130.763C131.994 68.0995 132.609 67.6879 132.609 66.8645C132.609 66.4919 132.496 66.2015 132.271 65.9935C132.054 65.7855 131.738 65.6815 131.322 65.6815C130.915 65.6815 130.598 65.7942 130.373 66.0195C130.156 66.2362 130.031 66.5135 129.996 66.8515H128.215ZM135.971 68.9705C135.971 67.4712 136.24 66.2969 136.777 65.4475C137.323 64.5982 138.225 64.1735 139.481 64.1735C140.738 64.1735 141.635 64.5982 142.172 65.4475C142.718 66.2969 142.991 67.4712 142.991 68.9705C142.991 70.4785 142.718 71.6615 142.172 72.5195C141.635 73.3775 140.738 73.8065 139.481 73.8065C138.225 73.8065 137.323 73.3775 136.777 72.5195C136.24 71.6615 135.971 70.4785 135.971 68.9705ZM141.197 68.9705C141.197 68.3292 141.154 67.7919 141.067 67.3585C140.989 66.9165 140.825 66.5569 140.573 66.2795C140.331 66.0022 139.967 65.8635 139.481 65.8635C138.996 65.8635 138.628 66.0022 138.376 66.2795C138.134 66.5569 137.969 66.9165 137.882 67.3585C137.804 67.7919 137.765 68.3292 137.765 68.9705C137.765 69.6292 137.804 70.1839 137.882 70.6345C137.96 71.0765 138.125 71.4362 138.376 71.7135C138.628 71.9822 138.996 72.1165 139.481 72.1165C139.967 72.1165 140.335 71.9822 140.586 71.7135C140.838 71.4362 141.002 71.0765 141.08 70.6345C141.158 70.1839 141.197 69.6292 141.197 68.9705ZM147.756 64.7585C148.709 64.7585 149.545 64.9449 150.265 65.3175C150.993 65.6902 151.552 66.2232 151.942 66.9165C152.34 67.6012 152.54 68.3985 152.54 69.3085C152.54 70.2185 152.34 71.0159 151.942 71.7005C151.552 72.3765 150.993 72.9009 150.265 73.2735C149.545 73.6462 148.709 73.8325 147.756 73.8325H144.584V64.7585H147.756ZM147.691 72.2855C148.644 72.2855 149.381 72.0255 149.901 71.5055C150.421 70.9855 150.681 70.2532 150.681 69.3085C150.681 68.3639 150.421 67.6272 149.901 67.0985C149.381 66.5612 148.644 66.2925 147.691 66.2925H146.404V72.2855H147.691Z" fill="#636363"/>
<defs>
<linearGradient id="paint0_linear_1681_113111" x1="115.933" y1="35.6655" x2="64.3261" y2="-8.45788" gradientUnits="userSpaceOnUse">
<stop stop-color="#5855FF"/>
<stop offset="1" stop-color="#E036FF"/>
</linearGradient>
<linearGradient id="paint1_linear_1681_113111" x1="71.0833" y1="29.4912" x2="50.6291" y2="21.2742" gradientUnits="userSpaceOnUse">
<stop stop-color="#5855FF"/>
<stop offset="1" stop-color="#E036FF"/>
</linearGradient>
<linearGradient id="paint2_linear_1681_113111" x1="26.5943" y1="98.8231" x2="22.9676" y2="105.71" gradientUnits="userSpaceOnUse">
<stop stop-color="#00FFA3"/>
<stop offset="1" stop-color="#DC1FFF"/>
</linearGradient>
<linearGradient id="paint3_linear_1681_113111" x1="25.0298" y1="97.9991" x2="21.4032" y2="104.886" gradientUnits="userSpaceOnUse">
<stop stop-color="#00FFA3"/>
<stop offset="1" stop-color="#DC1FFF"/>
</linearGradient>
<linearGradient id="paint4_linear_1681_113111" x1="25.8071" y1="98.4083" x2="22.1804" y2="105.295" gradientUnits="userSpaceOnUse">
<stop stop-color="#00FFA3"/>
<stop offset="1" stop-color="#DC1FFF"/>
</linearGradient>
<linearGradient id="paint5_linear_1681_113111" x1="121.867" y1="100.523" x2="161.145" y2="115.026" gradientUnits="userSpaceOnUse">
<stop stop-color="#F7931A"/>
<stop offset="1" stop-color="#AC1CC7"/>
</linearGradient>
<linearGradient id="paint6_linear_1681_113111" x1="121.867" y1="100.523" x2="161.145" y2="115.026" gradientUnits="userSpaceOnUse">
<stop stop-color="#F7931A"/>
<stop offset="1" stop-color="#AC1CC7"/>
</linearGradient>
<linearGradient id="paint7_linear_1681_113111" x1="0.499999" y1="69.0053" x2="43.0722" y2="92.9145" gradientUnits="userSpaceOnUse">
<stop stop-color="#F7931A"/>
<stop offset="1" stop-color="#C31AE3"/>
</linearGradient>
</defs>
</svg>
