<svg width="12" height="14" viewBox="0 0 12 14" fill="none" xmlns="http://www.w3.org/2000/svg">
<path d="M11.625 7.64051C11.625 10.7577 9.11719 13.2655 6 13.2655C2.88281 13.2655 0.375 10.7577 0.375 7.64051C0.375 7.5702 0.375 7.47645 0.375 7.40613C0.398438 7.0077 0.726563 6.72645 1.10156 6.72645C1.47656 6.72645 1.78125 7.07801 1.78125 7.45301C1.6875 9.77332 3.49219 11.7421 5.8125 11.8358C8.13281 11.9296 10.125 10.1483 10.2188 7.82801C10.2656 6.65613 9.82031 5.5077 8.97656 4.66395C8.25 3.93738 7.26562 3.49207 6.23438 3.4452L6.9375 4.07801C7.21875 4.33582 7.24219 4.78113 6.98438 5.06238C6.72656 5.34363 6.28125 5.36707 6 5.10926C6 5.10926 6 5.10926 5.97656 5.08582L4.19531 3.4452C3.77344 3.0702 3.75 2.41394 4.125 2.01551C4.14844 1.99207 4.17187 1.96863 4.19531 1.94519L5.97656 0.30457C6.25781 0.0467574 6.70312 0.070195 6.96094 0.351445C7.21875 0.632695 7.19531 1.05457 6.91406 1.33582L6.23438 2.01551C9.23438 2.15613 11.625 4.61707 11.625 7.64051Z" fill="white"/>
</svg>
