<svg width="34" height="39" viewBox="0 0 34 39" fill="none" xmlns="http://www.w3.org/2000/svg">
<path d="M33.25 26.5022V26.5014V12.4986V12.4978C33.2492 11.7547 33.0563 11.0242 32.6896 10.3795C32.3228 9.73463 31.7948 9.19765 31.1573 8.82358L31.1544 8.82189L19.1018 1.82215C19.1013 1.82186 19.1008 1.82158 19.1003 1.82129C18.4625 1.44735 17.7381 1.25 17 1.25C16.2619 1.25 15.5376 1.44734 14.8997 1.82127C14.8992 1.82156 14.8987 1.82185 14.8982 1.82215L2.84556 8.82189L2.84556 8.82188L2.84266 8.82358C2.20516 9.19765 1.67716 9.73463 1.31042 10.3795L1.95266 10.7447L1.31041 10.3795C0.943718 11.0242 0.75075 11.7547 0.75 12.4978V12.4986L0.75 26.5014L0.75 26.5022C0.75075 27.2453 0.943718 27.9758 1.31041 28.6205C1.67716 29.2654 2.20516 29.8023 2.84265 30.1764L2.84556 30.1781L14.8982 37.1779C14.8988 37.1782 14.8993 37.1785 14.8999 37.1788C15.5377 37.5527 16.262 37.75 17 37.75C17.738 37.75 18.4623 37.5527 19.1001 37.1788C19.1007 37.1785 19.1012 37.1782 19.1018 37.1779L31.1544 30.1781L31.1573 30.1764C31.7948 29.8023 32.3228 29.2654 32.6896 28.6205C33.0563 27.9758 33.2492 27.2453 33.25 26.5022Z" fill="url(#paint0_linear_1173_42739)" stroke="#3C3C3C" stroke-width="1.5" stroke-linecap="round" stroke-linejoin="round"/>
<path d="M16.6199 18.015L16.1249 20.325H18.0299V22.2H15.7199L15.1799 24.75H13.1849L13.7249 22.2H10.9949L10.4549 24.75H8.47486L9.01486 22.2H6.74986V20.325H9.41986L9.91486 18.015H7.66486V16.14H10.3199L10.8449 13.65H12.8249L12.2999 16.14H15.0299L15.5549 13.65H17.5499L17.0249 16.14H18.9449V18.015H16.6199ZM14.6249 18.015H11.8949L11.3999 20.325H14.1299L14.6249 18.015ZM20.4856 16.695C20.5356 15.695 20.8856 14.925 21.5356 14.385C22.1956 13.835 23.0606 13.56 24.1306 13.56C24.8606 13.56 25.4856 13.69 26.0056 13.95C26.5256 14.2 26.9156 14.545 27.1756 14.985C27.4456 15.415 27.5806 15.905 27.5806 16.455C27.5806 17.085 27.4156 17.62 27.0856 18.06C26.7656 18.49 26.3806 18.78 25.9306 18.93V18.99C26.5106 19.17 26.9606 19.49 27.2806 19.95C27.6106 20.41 27.7756 21 27.7756 21.72C27.7756 22.32 27.6356 22.855 27.3556 23.325C27.0856 23.795 26.6806 24.165 26.1406 24.435C25.6106 24.695 24.9706 24.825 24.2206 24.825C23.0906 24.825 22.1706 24.54 21.4606 23.97C20.7506 23.4 20.3756 22.56 20.3356 21.45H22.3756C22.3956 21.94 22.5606 22.335 22.8706 22.635C23.1906 22.925 23.6256 23.07 24.1756 23.07C24.6856 23.07 25.0756 22.93 25.3456 22.65C25.6256 22.36 25.7656 21.99 25.7656 21.54C25.7656 20.94 25.5756 20.51 25.1956 20.25C24.8156 19.99 24.2256 19.86 23.4256 19.86H22.9906V18.135H23.4256C24.8456 18.135 25.5556 17.66 25.5556 16.71C25.5556 16.28 25.4256 15.945 25.1656 15.705C24.9156 15.465 24.5506 15.345 24.0706 15.345C23.6006 15.345 23.2356 15.475 22.9756 15.735C22.7256 15.985 22.5806 16.305 22.5406 16.695H20.4856Z" fill="#3C3C3C"/>
<defs>
<linearGradient id="paint0_linear_1173_42739" x1="32.5" y1="27.625" x2="1.3816" y2="10.3381" gradientUnits="userSpaceOnUse">
<stop stop-color="#E16C17"/>
<stop offset="0.51596" stop-color="#FFCBA6"/>
<stop offset="1" stop-color="#E16C17"/>
</linearGradient>
</defs>
</svg>
