<svg width="34" height="39" viewBox="0 0 34 39" fill="none" xmlns="http://www.w3.org/2000/svg">
<path d="M33.25 26.5022V26.5014V12.4986V12.4978C33.2492 11.7547 33.0563 11.0242 32.6896 10.3795C32.3228 9.73463 31.7948 9.19765 31.1573 8.82358L31.1544 8.82189L19.1018 1.82215C19.1013 1.82186 19.1008 1.82158 19.1003 1.82129C18.4625 1.44735 17.7381 1.25 17 1.25C16.2619 1.25 15.5376 1.44734 14.8997 1.82127C14.8992 1.82156 14.8987 1.82185 14.8982 1.82215L2.84556 8.82189L2.84556 8.82188L2.84266 8.82358C2.20516 9.19765 1.67716 9.73463 1.31042 10.3795L1.95266 10.7447L1.31041 10.3795C0.943718 11.0242 0.75075 11.7547 0.75 12.4978V12.4986L0.75 26.5014L0.75 26.5022C0.75075 27.2453 0.943718 27.9758 1.31041 28.6205C1.67716 29.2654 2.20516 29.8023 2.84265 30.1764L2.84556 30.1781L14.8982 37.1779C14.8988 37.1782 14.8993 37.1785 14.8999 37.1788C15.5377 37.5527 16.262 37.75 17 37.75C17.738 37.75 18.4623 37.5527 19.1001 37.1788C19.1007 37.1785 19.1012 37.1782 19.1018 37.1779L31.1544 30.1781L31.1573 30.1764C31.7948 29.8023 32.3228 29.2654 32.6896 28.6205C33.0563 27.9758 33.2492 27.2453 33.25 26.5022Z" fill="url(#paint0_linear_1173_42727)" stroke="#3C3C3C" stroke-width="1.5" stroke-linecap="round" stroke-linejoin="round"/>
<path d="M16.303 18.015L15.808 20.325H17.713V22.2H15.403L14.863 24.75H12.868L13.408 22.2H10.678L10.138 24.75H8.15797L8.69797 22.2H6.43297V20.325H9.10297L9.59797 18.015H7.34797V16.14H10.003L10.528 13.65H12.508L11.983 16.14H14.713L15.238 13.65H17.233L16.708 16.14H18.628V18.015H16.303ZM14.308 18.015H11.578L11.083 20.325H13.813L14.308 18.015ZM20.7988 22.38C21.7588 21.58 22.5238 20.915 23.0938 20.385C23.6638 19.845 24.1388 19.285 24.5188 18.705C24.8988 18.125 25.0888 17.555 25.0888 16.995C25.0888 16.485 24.9688 16.085 24.7288 15.795C24.4888 15.505 24.1188 15.36 23.6188 15.36C23.1188 15.36 22.7338 15.53 22.4638 15.87C22.1938 16.2 22.0538 16.655 22.0438 17.235H20.0038C20.0438 16.035 20.3988 15.125 21.0688 14.505C21.7488 13.885 22.6088 13.575 23.6488 13.575C24.7888 13.575 25.6638 13.88 26.2738 14.49C26.8838 15.09 27.1888 15.885 27.1888 16.875C27.1888 17.655 26.9788 18.4 26.5588 19.11C26.1388 19.82 25.6588 20.44 25.1188 20.97C24.5788 21.49 23.8738 22.12 23.0038 22.86H27.4288V24.6H20.0188V23.04L20.7988 22.38Z" fill="#3C3C3C"/>
<defs>
<linearGradient id="paint0_linear_1173_42727" x1="32.5" y1="27.625" x2="1.3816" y2="10.3381" gradientUnits="userSpaceOnUse">
<stop stop-color="#7D7D7D"/>
<stop offset="0.51596" stop-color="white"/>
<stop offset="1" stop-color="#7D7D7D"/>
</linearGradient>
</defs>
</svg>
