<svg width="34" height="39" viewBox="0 0 34 39" fill="none" xmlns="http://www.w3.org/2000/svg">
<path d="M33.25 26.5022V26.5014V12.4986V12.4978C33.2492 11.7547 33.0563 11.0242 32.6896 10.3795C32.3228 9.73463 31.7948 9.19765 31.1573 8.82358L31.1544 8.82189L19.1018 1.82215C19.1013 1.82186 19.1008 1.82158 19.1003 1.82129C18.4625 1.44735 17.7381 1.25 17 1.25C16.2619 1.25 15.5376 1.44734 14.8997 1.82127C14.8992 1.82156 14.8987 1.82185 14.8982 1.82215L2.84556 8.82189L2.84556 8.82188L2.84266 8.82358C2.20516 9.19765 1.67716 9.73463 1.31042 10.3795L1.95266 10.7447L1.31041 10.3795C0.943718 11.0242 0.75075 11.7547 0.75 12.4978V12.4986L0.75 26.5014L0.75 26.5022C0.75075 27.2453 0.943718 27.9758 1.31041 28.6205C1.67716 29.2654 2.20516 29.8023 2.84265 30.1764L2.84556 30.1781L14.8982 37.1779C14.8988 37.1782 14.8993 37.1785 14.8999 37.1788C15.5377 37.5527 16.262 37.75 17 37.75C17.738 37.75 18.4623 37.5527 19.1001 37.1788C19.1007 37.1785 19.1012 37.1782 19.1018 37.1779L31.1544 30.1781L31.1573 30.1764C31.7948 29.8023 32.3228 29.2654 32.6896 28.6205C33.0563 27.9758 33.2492 27.2453 33.25 26.5022Z" fill="url(#paint0_linear_1173_42715)" stroke="#3C3C3C" stroke-width="1.5" stroke-linecap="round" stroke-linejoin="round"/>
<path d="M17.7733 17.913L17.3443 19.915H18.9953V21.54H16.9933L16.5253 23.75H14.7963L15.2643 21.54H12.8983L12.4303 23.75H10.7143L11.1823 21.54H9.21935V19.915H11.5333L11.9623 17.913H10.0123V16.288H12.3133L12.7683 14.13H14.4843L14.0293 16.288H16.3953L16.8503 14.13H18.5793L18.1243 16.288H19.7883V17.913H17.7733ZM16.0443 17.913H13.6783L13.2493 19.915H15.6153L16.0443 17.913ZM20.8767 15.95V14.273H24.0097V23.75H22.1377V15.95H20.8767Z" fill="#3C3C3C"/>
<defs>
<linearGradient id="paint0_linear_1173_42715" x1="32.5" y1="27.625" x2="1.3816" y2="10.3381" gradientUnits="userSpaceOnUse">
<stop stop-color="#DAA317"/>
<stop offset="0.51596" stop-color="#FFECBC"/>
<stop offset="1" stop-color="#E1A817"/>
</linearGradient>
</defs>
</svg>
