<svg width="50" height="56" viewBox="0 0 50 56" fill="none" xmlns="http://www.w3.org/2000/svg">
<path d="M49.6252 38.9119V38.9116V17.0889V17.0886C49.6242 16.0712 49.3587 15.0718 48.855 14.1906C48.3513 13.3093 47.627 12.577 46.7544 12.0675L46.7531 12.0668L27.8736 1.15621C27.8734 1.15609 27.8732 1.15597 27.873 1.15585C26.9997 0.646073 26.0088 0.377539 24.9999 0.377539C23.9909 0.377539 23 0.646079 22.1267 1.15587C22.1265 1.15598 22.1263 1.1561 22.1261 1.15621L3.24662 12.0667L3.24527 12.0675C2.37269 12.577 1.64842 13.3093 1.14473 14.1906C0.641051 15.0718 0.375519 16.0712 0.374487 17.0886V17.0889L0.374487 38.9116L0.374487 38.9119C0.375519 39.9293 0.641051 40.9287 1.14473 41.8099C1.64842 42.6912 2.37269 43.4235 3.24527 43.933L3.24662 43.9338L22.1261 54.8443C22.1262 54.8444 22.1263 54.8445 22.1265 54.8445C22.9998 55.3544 23.9908 55.623 24.9999 55.623C26.0089 55.623 26.9999 55.3544 27.8732 54.8445C27.8734 54.8445 27.8735 54.8444 27.8736 54.8443L46.7531 43.9338L46.7544 43.933C47.627 43.4235 48.3513 42.6912 48.855 41.8099C49.3587 40.9287 49.6242 39.9293 49.6252 38.9119Z" fill="url(#paint0_linear_7_5153)" stroke="white" stroke-width="0.7" stroke-linecap="round" stroke-linejoin="round"/>
<path fill-rule="evenodd" clip-rule="evenodd" d="M21.9397 0.828788C22.8698 0.28598 23.9253 0 25 0C26.0746 0 27.13 0.285951 28.0602 0.828705C28.0607 0.828992 28.0612 0.829278 28.0617 0.829565L46.9425 11.7409C47.872 12.2836 48.6434 13.0637 49.1798 14.0021C49.7162 14.9406 49.9989 16.0047 50 17.0879V38.9121C49.9989 39.9953 49.7162 41.0594 49.1798 41.9979C48.6434 42.9363 47.872 43.7164 46.9425 44.2591L46.9397 44.2607L28.0617 55.1704C28.0613 55.1706 28.061 55.1708 28.0607 55.171C27.1304 55.714 26.0748 56 25 56C23.9251 56 22.8695 55.7139 21.9392 55.1709C21.9389 55.1708 21.9386 55.1706 21.9383 55.1704L3.06031 44.2607L3.0575 44.2591C2.12797 43.7164 1.35658 42.9363 0.820185 41.9979C0.283813 41.0594 0.00109858 39.9953 0 38.9121V17.0879C0.00109858 16.0047 0.283812 14.9406 0.820185 14.0021C1.35658 13.0637 2.12797 12.2836 3.0575 11.7409L3.0603 11.7393L21.9383 0.829565C21.9388 0.829306 21.9392 0.829047 21.9397 0.828788ZM25 1.45455C24.1813 1.45455 23.3768 1.67246 22.6671 2.08682L22.6643 2.08845L3.7863 12.9981C3.78583 12.9984 3.78537 12.9987 3.7849 12.999C3.07654 13.4129 2.48749 14.0082 2.07731 14.7259C1.66691 15.4439 1.45018 16.2589 1.44928 17.089V38.911C1.45018 39.7411 1.66691 40.5561 2.07731 41.2741C2.48749 41.9918 3.07654 42.5871 3.7849 43.001C3.78537 43.0013 3.78583 43.0016 3.7863 43.0019L22.6671 53.9132C23.3768 54.3275 24.1813 54.5455 25 54.5455C25.8187 54.5455 26.6232 54.3275 27.3329 53.9132L27.3357 53.9116L46.2137 43.0019C46.2142 43.0016 46.2146 43.0013 46.2151 43.001C46.9235 42.5871 47.5125 41.9918 47.9227 41.2741C48.3332 40.556 48.5499 39.7408 48.5507 38.9106V17.0894C48.5499 16.2592 48.3332 15.444 47.9227 14.7259C47.5125 14.0082 46.9235 13.4129 46.2151 12.999C46.2146 12.9987 46.2142 12.9984 46.2137 12.9981L27.3357 2.08845L27.3329 2.08682C26.6232 1.67246 25.8187 1.45455 25 1.45455Z" fill="white"/>
<path d="M35.7097 28.3632C35.7097 34.3881 30.9148 39.2723 25 39.2723C19.0852 39.2723 14.2903 34.3881 14.2903 28.3632C14.2903 22.3383 19.0852 17.4541 25 17.4541C30.9148 17.4541 35.7097 22.3383 35.7097 28.3632Z" fill="url(#paint1_linear_7_5153)"/>
<path d="M34.8851 28.3632C34.8851 33.9431 30.4476 38.445 25 38.445C19.5524 38.445 15.1149 33.9431 15.1149 28.3632C15.1149 22.7832 19.5524 18.2814 25 18.2814C30.4476 18.2814 34.8851 22.7832 34.8851 28.3632ZM25 39.3723C30.9718 39.3723 35.8097 34.4416 35.8097 28.3632C35.8097 22.2848 30.9718 17.3541 25 17.3541C19.0282 17.3541 14.1903 22.2848 14.1903 28.3632C14.1903 34.4416 19.0282 39.3723 25 39.3723Z" fill="white" stroke="white" stroke-width="0.2"/>
<path d="M18.1157 33.8545C18.1157 31.8031 19.1922 29.9032 20.9488 28.8544L46.7389 13.4551C47.8628 14.1319 48.5505 15.3509 48.5505 16.6663V40.1273C48.5505 41.173 47.9913 42.1382 47.0859 42.6555L26.3957 54.4758C25.5273 54.9719 24.4655 54.9841 23.586 54.5081L19.6385 52.3716C18.7005 51.864 18.1157 50.8807 18.1157 49.8111V33.8545Z" fill="url(#paint2_linear_7_5153)"/>
<defs>
<linearGradient id="paint0_linear_7_5153" x1="24.9998" y1="75.6366" x2="24.9999" y2="2.54572" gradientUnits="userSpaceOnUse">
<stop stop-color="#FFF9CD"/>
<stop offset="1" stop-color="#CB9200"/>
</linearGradient>
<linearGradient id="paint1_linear_7_5153" x1="14.2903" y1="26.1814" x2="36.3644" y2="28.7607" gradientUnits="userSpaceOnUse">
<stop stop-color="#FF8E04"/>
<stop offset="1" stop-color="#E1FF29"/>
</linearGradient>
<linearGradient id="paint2_linear_7_5153" x1="47.1012" y1="14.9102" x2="23.7751" y2="54.1157" gradientUnits="userSpaceOnUse">
<stop stop-color="#FFB800"/>
<stop offset="0.478391" stop-color="#FFFEC9"/>
<stop offset="1" stop-color="#FFB800"/>
</linearGradient>
</defs>
</svg>
