<svg width="360" height="213" viewBox="0 0 360 213" fill="none" xmlns="http://www.w3.org/2000/svg">
<rect x="0.5" y="0.5" width="359" height="212" rx="4.5" stroke="#B5B5B5"/>
<path d="M108.774 46.2354C107.137 46.2354 105.657 45.9552 104.335 45.3947C103.034 44.8342 102.003 44.0271 101.241 42.9733C100.479 41.9196 100.086 40.6753 100.064 39.2404H105.108C105.175 40.2045 105.512 40.9668 106.117 41.5273C106.745 42.0878 107.597 42.368 108.673 42.368C109.772 42.368 110.635 42.1102 111.262 41.5945C111.89 41.0564 112.204 40.3614 112.204 39.5095C112.204 38.8145 111.991 38.2428 111.565 37.7944C111.139 37.346 110.601 36.9985 109.951 36.7519C109.323 36.4828 108.449 36.1914 107.328 35.8775C105.803 35.4291 104.559 34.9919 103.595 34.5659C102.653 34.1175 101.835 33.4561 101.14 32.5818C100.467 31.685 100.131 30.4967 100.131 29.017C100.131 27.627 100.479 26.4163 101.174 25.385C101.869 24.3537 102.844 23.569 104.099 23.031C105.355 22.4705 106.79 22.1902 108.404 22.1902C110.825 22.1902 112.787 22.7843 114.289 23.9726C115.814 25.1384 116.654 26.7751 116.811 28.8825H111.632C111.588 28.0754 111.24 27.414 110.59 26.8984C109.962 26.3603 109.121 26.0913 108.068 26.0913C107.148 26.0913 106.409 26.3267 105.848 26.7975C105.31 27.2683 105.041 27.9521 105.041 28.8489C105.041 29.4766 105.243 30.0035 105.646 30.4295C106.072 30.833 106.588 31.1693 107.193 31.4384C107.821 31.685 108.695 31.9764 109.816 32.3127C111.341 32.7611 112.585 33.2095 113.549 33.6579C114.513 34.1063 115.343 34.7789 116.038 35.6757C116.733 36.5725 117.08 37.7495 117.08 39.2068C117.08 40.4623 116.755 41.6281 116.105 42.7043C115.455 43.7804 114.502 44.6436 113.247 45.2938C111.991 45.9215 110.5 46.2354 108.774 46.2354ZM132.058 46.2354C129.861 46.2354 127.843 45.7198 126.005 44.6884C124.166 43.6571 122.709 42.2335 121.633 40.4175C120.557 38.5791 120.019 36.5052 120.019 34.196C120.019 31.9092 120.557 29.8578 121.633 28.0418C122.709 26.2034 124.166 24.7685 126.005 23.7372C127.843 22.7059 129.861 22.1902 132.058 22.1902C134.278 22.1902 136.295 22.7059 138.111 23.7372C139.95 24.7685 141.396 26.2034 142.45 28.0418C143.526 29.8578 144.064 31.9092 144.064 34.196C144.064 36.5052 143.526 38.5791 142.45 40.4175C141.396 42.2335 139.95 43.6571 138.111 44.6884C136.273 45.7198 134.255 46.2354 132.058 46.2354ZM132.058 42.0317C133.471 42.0317 134.715 41.7178 135.791 41.0901C136.867 40.4399 137.708 39.5207 138.313 38.3324C138.919 37.1442 139.221 35.7654 139.221 34.196C139.221 32.6266 138.919 31.259 138.313 30.0932C137.708 28.9049 136.867 27.9969 135.791 27.3692C134.715 26.7414 133.471 26.4276 132.058 26.4276C130.646 26.4276 129.39 26.7414 128.292 27.3692C127.215 27.9969 126.375 28.9049 125.769 30.0932C125.164 31.259 124.861 32.6266 124.861 34.196C124.861 35.7654 125.164 37.1442 125.769 38.3324C126.375 39.5207 127.215 40.4399 128.292 41.0901C129.39 41.7178 130.646 42.0317 132.058 42.0317ZM152.275 42.2671H160.01V46H147.567V22.5265H152.275V42.2671ZM177.328 32.0101V35.9784H163.069V32.0101H177.328ZM199.726 29.7905C199.726 31.046 199.423 32.2231 198.818 33.3216C198.235 34.4202 197.305 35.3058 196.027 35.9784C194.771 36.651 193.179 36.9873 191.251 36.9873H187.317V46H182.608V22.5265H191.251C193.067 22.5265 194.614 22.8404 195.892 23.4681C197.17 24.0959 198.123 24.9591 198.751 26.0576C199.401 27.1562 199.726 28.4005 199.726 29.7905ZM191.05 33.1871C192.35 33.1871 193.314 32.8957 193.942 32.3127C194.569 31.7074 194.883 30.8667 194.883 29.7905C194.883 27.5037 193.605 26.3603 191.05 26.3603H187.317V33.1871H191.05ZM207.777 26.3267V32.2119H215.68V35.9447H207.777V42.1662H216.689V46H203.069V22.4929H216.689V26.3267H207.777ZM233.074 46L227.895 36.8527H225.675V46H220.967V22.5265H229.778C231.594 22.5265 233.141 22.8516 234.419 23.5018C235.697 24.1295 236.65 24.9927 237.278 26.0913C237.928 27.1674 238.253 28.3781 238.253 29.7233C238.253 31.2702 237.805 32.6715 236.908 33.927C236.011 35.16 234.677 36.012 232.906 36.4828L238.522 46H233.074ZM225.675 33.3216H229.61C230.888 33.3216 231.841 33.019 232.469 32.4136C233.096 31.7859 233.41 30.9227 233.41 29.8241C233.41 28.748 233.096 27.9185 232.469 27.3356C231.841 26.7302 230.888 26.4276 229.61 26.4276H225.675V33.3216ZM259.629 29.7905C259.629 31.046 259.326 32.2231 258.721 33.3216C258.138 34.4202 257.207 35.3058 255.929 35.9784C254.674 36.651 253.082 36.9873 251.154 36.9873H247.219V46H242.511V22.5265H251.154C252.97 22.5265 254.517 22.8404 255.795 23.4681C257.073 24.0959 258.026 24.9591 258.653 26.0576C259.304 27.1562 259.629 28.4005 259.629 29.7905ZM250.952 33.1871C252.253 33.1871 253.217 32.8957 253.844 32.3127C254.472 31.7074 254.786 30.8667 254.786 29.7905C254.786 27.5037 253.508 26.3603 250.952 26.3603H247.219V33.1871H250.952Z" fill="url(#paint0_linear_189_504)"/>
<path d="M205.211 99.7917V88.2417H207.958V99.7917H205.211ZM200.668 95.3V92.7333H212.501V95.3H200.668ZM217.642 103V86.3167L219.105 87.831H213.843V85.0333H220.979V103H217.642ZM226.545 103.18C225.963 103.18 225.467 102.983 225.056 102.589C224.645 102.179 224.44 101.665 224.44 101.049C224.44 100.399 224.645 99.8858 225.056 99.5093C225.467 99.1158 225.963 98.919 226.545 98.919C227.127 98.919 227.623 99.1158 228.033 99.5093C228.444 99.8858 228.649 100.399 228.649 101.049C228.649 101.665 228.444 102.179 228.033 102.589C227.623 102.983 227.127 103.18 226.545 103.18ZM236.764 103.257C235.497 103.257 234.257 103.077 233.042 102.718C231.844 102.341 230.835 101.828 230.013 101.178L231.425 98.5853C232.075 99.1158 232.862 99.5436 233.786 99.8687C234.727 100.194 235.703 100.356 236.712 100.356C237.893 100.356 238.817 100.108 239.484 99.612C240.169 99.1158 240.511 98.4484 240.511 97.61C240.511 97.0453 240.366 96.5491 240.075 96.1213C239.801 95.6936 239.305 95.3684 238.586 95.146C237.884 94.9236 236.918 94.8123 235.686 94.8123H231.348L232.272 85.0333H242.821V87.831H233.504L235.249 86.2397L234.556 93.5547L232.811 91.989H236.43C238.21 91.989 239.638 92.2286 240.716 92.7077C241.811 93.1697 242.607 93.8199 243.103 94.6583C243.617 95.4797 243.873 96.4208 243.873 97.4817C243.873 98.5254 243.617 99.4837 243.103 100.356C242.59 101.229 241.803 101.931 240.742 102.461C239.698 102.991 238.372 103.257 236.764 103.257ZM244.649 103L250.681 95.146L250.629 96.8657L244.88 89.294H248.448L252.477 94.684H251.117L255.172 89.294H258.637L252.837 96.8657L252.862 95.146L258.868 103H255.249L251.014 97.2763L252.349 97.456L248.191 103H244.649ZM201.413 133V115.033H209.831C211.987 115.033 213.63 115.461 214.759 116.317C215.889 117.155 216.453 118.284 216.453 119.705C216.453 120.663 216.231 121.484 215.786 122.169C215.341 122.836 214.742 123.358 213.989 123.734C213.254 124.094 212.449 124.273 211.577 124.273L212.039 123.349C213.048 123.349 213.955 123.538 214.759 123.914C215.564 124.273 216.197 124.804 216.659 125.505C217.138 126.207 217.377 127.08 217.377 128.123C217.377 129.663 216.787 130.861 215.606 131.717C214.426 132.572 212.672 133 210.345 133H201.413ZM204.749 130.382H210.139C211.388 130.382 212.347 130.177 213.014 129.766C213.681 129.355 214.015 128.697 214.015 127.79C214.015 126.9 213.681 126.25 213.014 125.839C212.347 125.411 211.388 125.197 210.139 125.197H204.493V122.605H209.472C210.636 122.605 211.525 122.4 212.141 121.989C212.774 121.578 213.091 120.962 213.091 120.141C213.091 119.303 212.774 118.678 212.141 118.267C211.525 117.857 210.636 117.651 209.472 117.651H204.749V130.382ZM226.79 133.18C225.387 133.18 224.138 132.88 223.043 132.281C221.948 131.665 221.084 130.827 220.451 129.766C219.818 128.705 219.501 127.499 219.501 126.147C219.501 124.778 219.818 123.572 220.451 122.528C221.084 121.467 221.948 120.637 223.043 120.038C224.138 119.439 225.387 119.14 226.79 119.14C228.211 119.14 229.468 119.439 230.563 120.038C231.676 120.637 232.54 121.459 233.156 122.502C233.789 123.546 234.105 124.761 234.105 126.147C234.105 127.499 233.789 128.705 233.156 129.766C232.54 130.827 231.676 131.665 230.563 132.281C229.468 132.88 228.211 133.18 226.79 133.18ZM226.79 130.433C227.577 130.433 228.279 130.262 228.895 129.92C229.511 129.578 229.99 129.082 230.332 128.431C230.692 127.781 230.871 127.02 230.871 126.147C230.871 125.257 230.692 124.496 230.332 123.863C229.99 123.212 229.511 122.716 228.895 122.374C228.279 122.032 227.586 121.861 226.816 121.861C226.029 121.861 225.327 122.032 224.711 122.374C224.112 122.716 223.633 123.212 223.274 123.863C222.915 124.496 222.735 125.257 222.735 126.147C222.735 127.02 222.915 127.781 223.274 128.431C223.633 129.082 224.112 129.578 224.711 129.92C225.327 130.262 226.02 130.433 226.79 130.433ZM243.333 133.18C241.93 133.18 240.681 132.88 239.586 132.281C238.491 131.665 237.627 130.827 236.994 129.766C236.361 128.705 236.044 127.499 236.044 126.147C236.044 124.778 236.361 123.572 236.994 122.528C237.627 121.467 238.491 120.637 239.586 120.038C240.681 119.439 241.93 119.14 243.333 119.14C244.754 119.14 246.011 119.439 247.106 120.038C248.219 120.637 249.083 121.459 249.699 122.502C250.332 123.546 250.648 124.761 250.648 126.147C250.648 127.499 250.332 128.705 249.699 129.766C249.083 130.827 248.219 131.665 247.106 132.281C246.011 132.88 244.754 133.18 243.333 133.18ZM243.333 130.433C244.12 130.433 244.822 130.262 245.438 129.92C246.054 129.578 246.533 129.082 246.875 128.431C247.235 127.781 247.414 127.02 247.414 126.147C247.414 125.257 247.235 124.496 246.875 123.863C246.533 123.212 246.054 122.716 245.438 122.374C244.822 122.032 244.129 121.861 243.359 121.861C242.572 121.861 241.87 122.032 241.254 122.374C240.655 122.716 240.176 123.212 239.817 123.863C239.458 124.496 239.278 125.257 239.278 126.147C239.278 127.02 239.458 127.781 239.817 128.431C240.176 129.082 240.655 129.578 241.254 129.92C241.87 130.262 242.563 130.433 243.333 130.433ZM257.951 133.18C256.805 133.18 255.701 133.034 254.64 132.743C253.597 132.435 252.767 132.067 252.151 131.64L253.383 129.201C253.999 129.595 254.734 129.92 255.59 130.177C256.446 130.433 257.301 130.562 258.157 130.562C259.166 130.562 259.893 130.425 260.338 130.151C260.8 129.877 261.031 129.509 261.031 129.047C261.031 128.671 260.877 128.389 260.569 128.2C260.261 127.995 259.859 127.841 259.363 127.738C258.867 127.636 258.311 127.542 257.695 127.456C257.096 127.37 256.488 127.259 255.872 127.122C255.273 126.968 254.726 126.754 254.23 126.481C253.733 126.19 253.331 125.805 253.023 125.326C252.715 124.847 252.561 124.213 252.561 123.426C252.561 122.554 252.809 121.801 253.306 121.168C253.802 120.517 254.495 120.021 255.385 119.679C256.292 119.32 257.361 119.14 258.593 119.14C259.517 119.14 260.45 119.243 261.391 119.448C262.332 119.653 263.11 119.944 263.726 120.321L262.494 122.759C261.844 122.365 261.185 122.1 260.518 121.963C259.868 121.809 259.218 121.732 258.567 121.732C257.592 121.732 256.865 121.878 256.386 122.169C255.924 122.46 255.693 122.827 255.693 123.272C255.693 123.683 255.847 123.991 256.155 124.196C256.463 124.402 256.865 124.564 257.361 124.684C257.857 124.804 258.405 124.906 259.004 124.992C259.62 125.06 260.227 125.172 260.826 125.326C261.425 125.48 261.972 125.694 262.469 125.967C262.982 126.224 263.393 126.592 263.701 127.071C264.009 127.55 264.163 128.175 264.163 128.945C264.163 129.8 263.906 130.545 263.393 131.178C262.896 131.811 262.186 132.307 261.262 132.666C260.338 133.009 259.235 133.18 257.951 133.18ZM272.085 133.18C270.579 133.18 269.415 132.795 268.594 132.025C267.773 131.238 267.362 130.083 267.362 128.56V116.265H270.57V128.483C270.57 129.133 270.733 129.638 271.058 129.997C271.4 130.356 271.871 130.536 272.47 130.536C273.188 130.536 273.787 130.348 274.266 129.971L275.165 132.256C274.788 132.564 274.326 132.795 273.779 132.949C273.231 133.103 272.666 133.18 272.085 133.18ZM265.103 121.963V119.397H274.241V121.963H265.103Z" fill="#3C3C3C"/>
<g clip-path="url(#clip0_189_504)">
<path d="M131.5 147C152.763 147 170 129.763 170 108.5C170 87.237 152.763 70 131.5 70C110.237 70 93 87.237 93 108.5C93 129.763 110.237 147 131.5 147Z" fill="#FDDE00"/>
<path d="M112.76 97.22C112.76 97.22 110.769 99.7268 111.433 111.081C111.433 111.081 107.082 122.215 108.557 127.892C110.032 133.569 115.783 133.274 115.783 133.274C115.783 133.274 124.999 141.384 132.077 134.233C139.155 127.081 126.179 99.3581 126.179 99.3581L124.557 89.7732C124.557 89.7732 122.787 91.1741 123.008 100.39C123.229 109.607 119.395 103.118 119.395 103.118L112.76 97.22Z" fill="#3C2D0C"/>
<path d="M113.497 107.247L111.064 114.104L110.179 118.897C110.179 118.897 107.156 129.588 119.617 129.44C119.617 129.44 129.349 138.14 135.69 132.316L137.386 130.472L140.335 125.901L145.201 111.376C145.201 111.376 143.653 101.423 133.847 97.2937C133.847 97.2937 133.036 96.8514 131.561 97.4412C131.561 97.4412 127.506 88.2986 124.925 89.4046C124.925 89.4046 122.713 90.5843 124.63 99.5794L121.165 101.128C121.165 101.128 117.375 93.9413 113.866 95.3767C110.621 96.7039 113.497 107.247 113.497 107.247Z" fill="#E78C19"/>
<path d="M126.105 93.9021L126.4 97.8835C126.4 97.8835 126.621 100.169 129.054 99.3581C129.742 99.1289 130.346 98.65 130.282 97.8639C130.235 97.2753 129.824 96.7423 129.556 96.2345C129.055 95.2837 128.654 94.2748 128.072 93.3691C127.774 92.9041 127.161 91.8638 126.474 91.9851C126.474 91.9851 125.967 91.8376 126.105 93.9021Z" fill="#EFB99D"/>
<path d="M115.447 98.372C115.493 98.3416 116.484 97.0866 118.543 100.128C120.603 103.169 120.396 102.768 120.396 102.768C120.396 102.768 121.502 103.985 119.235 105.547C118.74 105.913 118.201 106.214 117.63 106.443C117.276 106.586 116.897 106.658 116.515 106.657C116.084 106.636 115.891 106.416 115.784 106.011C115.436 104.684 115.043 103.364 114.845 102.004C114.695 100.979 114.395 99.0604 115.447 98.372Z" fill="#EFB99D"/>
<path d="M139.392 104.5C139.392 105.223 138.335 105.809 137.032 105.809C135.729 105.809 134.672 105.223 134.672 104.5C134.672 103.777 135.751 102.713 137.054 102.713C138.358 102.713 139.392 103.777 139.392 104.5Z" fill="white"/>
<path d="M125.781 110.144C126.482 108.905 126.409 107.537 125.617 107.089C124.825 106.641 123.615 107.282 122.913 108.521C122.212 109.761 122.285 111.129 123.077 111.577C123.869 112.025 125.08 111.384 125.781 110.144Z" fill="white"/>
<path d="M129.128 116.132L135.58 112.777C135.58 112.777 143.616 108.574 145.57 111.819C147.524 115.063 145.57 120.003 145.57 120.003C145.57 120.003 144.722 125.79 138.824 126.307L135.654 126.749L131.598 126.86C131.598 126.86 125.073 127.228 120.281 123.689L118.769 121.846C118.769 121.846 115.709 117.643 117.848 114.62C119.986 111.597 127.285 116.279 127.285 116.279C127.285 116.279 128.28 116.795 129.128 116.132Z" fill="white"/>
<path d="M143.763 99.395C144.618 99.395 145.312 98.7018 145.312 97.8467C145.312 96.9916 144.618 96.2983 143.763 96.2983C142.908 96.2983 142.215 96.9916 142.215 97.8467C142.215 98.7018 142.908 99.395 143.763 99.395Z" fill="#E72D36"/>
<path d="M140.334 95.5979C141.19 95.5979 141.883 94.9047 141.883 94.0496C141.883 93.1944 141.19 92.5012 140.334 92.5012C139.479 92.5012 138.786 93.1944 138.786 94.0496C138.786 94.9047 139.479 95.5979 140.334 95.5979Z" fill="#E72D36"/>
<path d="M134.842 94.3813C135.697 94.3813 136.391 93.6881 136.391 92.833C136.391 91.9779 135.697 91.2847 134.842 91.2847C133.987 91.2847 133.294 91.9779 133.294 92.833C133.294 93.6881 133.987 94.3813 134.842 94.3813Z" fill="#E72D36"/>
<path d="M136.058 81.8472C136.39 86.4185 135.73 90.5474 134.621 90.5474C133.511 90.5474 132.04 86.0867 132.04 81.8472C132.04 80.0962 132.958 79.8196 134.068 79.8196C135.177 79.8196 135.932 80.1008 136.058 81.8472Z" fill="#E72D36"/>
<path d="M146.316 84.7002C144.63 88.9618 142.242 92.3945 141.243 91.9128C140.243 91.4311 140.855 86.7745 142.696 82.9558C143.456 81.3786 144.403 81.5279 145.403 82.0096C146.402 82.4913 146.96 83.0721 146.316 84.7002Z" fill="#E72D36"/>
<path d="M153.647 92.9889C149.936 95.6815 146.079 97.2979 145.494 96.3548C144.909 95.4116 147.926 91.8091 151.529 89.5735C153.018 88.6502 153.737 89.2846 154.322 90.2277C154.906 91.1708 155.065 91.9603 153.647 92.9889Z" fill="#E72D36"/>
<path d="M128.823 111.634C128.684 111.645 128.549 111.662 128.418 111.685C128.434 111.732 128.443 111.781 128.444 111.83C128.444 112.302 127.71 112.687 126.786 112.712C126.78 112.752 126.778 112.792 126.78 112.832C126.825 113.403 127.811 113.792 128.983 113.701C130.156 113.61 131.07 113.074 131.026 112.503C130.981 111.932 129.995 111.543 128.823 111.634Z" fill="black"/>
<path d="M136.979 109.615C136.84 109.626 136.705 109.644 136.574 109.666C136.59 109.713 136.599 109.762 136.6 109.812C136.6 110.284 135.866 110.668 134.943 110.694C134.936 110.734 134.934 110.774 134.937 110.814C134.981 111.385 135.967 111.774 137.14 111.683C138.312 111.592 139.226 111.055 139.182 110.484C139.138 109.913 138.151 109.524 136.979 109.615Z" fill="black"/>
<path d="M139.653 112.003C139.653 112.003 136.418 112.943 136.612 114.768C136.805 116.593 140.704 117.533 140.704 117.533C140.704 117.533 141.755 117.947 142.363 116.952C142.971 115.957 143.856 114.602 143.607 112.666C143.607 112.666 143.524 111.229 139.653 112.003Z" fill="black"/>
</g>
<path d="M93.6016 175.558H96.8408V193H93.6016V175.558ZM84.5815 193H81.3422V175.558H84.5815V193ZM93.8507 185.525H84.3074V182.759H93.8507V185.525ZM107.196 193.174C105.834 193.174 104.621 192.884 103.558 192.302C102.495 191.704 101.656 190.89 101.041 189.86C100.427 188.83 100.119 187.659 100.119 186.347C100.119 185.018 100.427 183.847 101.041 182.834C101.656 181.804 102.495 180.998 103.558 180.417C104.621 179.835 105.834 179.545 107.196 179.545C108.574 179.545 109.795 179.835 110.859 180.417C111.938 180.998 112.777 181.795 113.375 182.809C113.99 183.822 114.297 185.002 114.297 186.347C114.297 187.659 113.99 188.83 113.375 189.86C112.777 190.89 111.938 191.704 110.859 192.302C109.795 192.884 108.574 193.174 107.196 193.174ZM107.196 190.508C107.96 190.508 108.641 190.342 109.239 190.01C109.837 189.678 110.302 189.196 110.634 188.565C110.983 187.933 111.158 187.194 111.158 186.347C111.158 185.483 110.983 184.744 110.634 184.129C110.302 183.498 109.837 183.016 109.239 182.684C108.641 182.352 107.968 182.186 107.221 182.186C106.457 182.186 105.775 182.352 105.177 182.684C104.596 183.016 104.131 183.498 103.782 184.129C103.433 184.744 103.259 185.483 103.259 186.347C103.259 187.194 103.433 187.933 103.782 188.565C104.131 189.196 104.596 189.678 105.177 190.01C105.775 190.342 106.448 190.508 107.196 190.508ZM117.276 193V174.511H120.39V193H117.276ZM130.11 193.174C128.83 193.174 127.676 192.892 126.646 192.327C125.633 191.746 124.835 190.948 124.254 189.935C123.673 188.922 123.382 187.726 123.382 186.347C123.382 184.968 123.673 183.772 124.254 182.759C124.835 181.746 125.633 180.957 126.646 180.392C127.676 179.827 128.83 179.545 130.11 179.545C131.223 179.545 132.219 179.794 133.1 180.292C133.98 180.774 134.678 181.513 135.193 182.51C135.708 183.506 135.965 184.786 135.965 186.347C135.965 187.892 135.716 189.171 135.218 190.184C134.719 191.181 134.03 191.929 133.149 192.427C132.269 192.925 131.256 193.174 130.11 193.174ZM130.483 190.508C131.231 190.508 131.895 190.342 132.477 190.01C133.075 189.678 133.548 189.196 133.897 188.565C134.262 187.933 134.445 187.194 134.445 186.347C134.445 185.483 134.262 184.744 133.897 184.129C133.548 183.498 133.075 183.016 132.477 182.684C131.895 182.352 131.231 182.186 130.483 182.186C129.736 182.186 129.063 182.352 128.465 182.684C127.884 183.016 127.41 183.498 127.045 184.129C126.696 184.744 126.521 185.483 126.521 186.347C126.521 187.194 126.696 187.933 127.045 188.565C127.41 189.196 127.884 189.678 128.465 190.01C129.063 190.342 129.736 190.508 130.483 190.508ZM134.52 193V189.86L134.645 186.322L134.395 182.784V174.511H137.485V193H134.52ZM150.315 193V176.804L151.735 178.274H146.627V175.558H153.554V193H150.315ZM158.26 193V175.558H160.926L168.551 188.291H167.155L174.656 175.558H177.322L177.347 193H174.282L174.257 180.367H174.905L168.526 191.007H167.081L160.602 180.367H161.35V193H158.26ZM185.746 189.885V178.673H188.412V189.885H185.746ZM181.335 185.525V183.033H192.822V185.525H181.335ZM203.642 193V175.558H211.815C213.908 175.558 215.502 175.973 216.599 176.804C217.695 177.618 218.243 178.714 218.243 180.093C218.243 181.023 218.027 181.82 217.595 182.485C217.163 183.133 216.582 183.639 215.851 184.005C215.137 184.354 214.356 184.528 213.509 184.528L213.957 183.631C214.938 183.631 215.818 183.814 216.599 184.179C217.379 184.528 217.994 185.043 218.443 185.724C218.908 186.405 219.14 187.252 219.14 188.266C219.14 189.761 218.567 190.924 217.421 191.754C216.275 192.585 214.572 193 212.313 193H203.642ZM206.881 190.458H212.114C213.326 190.458 214.256 190.259 214.904 189.86C215.552 189.462 215.876 188.822 215.876 187.942C215.876 187.078 215.552 186.447 214.904 186.048C214.256 185.633 213.326 185.425 212.114 185.425H206.632V182.908H211.466C212.595 182.908 213.459 182.709 214.057 182.31C214.672 181.912 214.979 181.314 214.979 180.516C214.979 179.702 214.672 179.096 214.057 178.697C213.459 178.299 212.595 178.099 211.466 178.099H206.881V190.458ZM230.77 193.249C229.408 193.249 228.154 193.025 227.008 192.576C225.862 192.128 224.865 191.505 224.018 190.708C223.17 189.894 222.514 188.947 222.049 187.867C221.584 186.771 221.351 185.575 221.351 184.279C221.351 182.983 221.584 181.795 222.049 180.716C222.514 179.619 223.17 178.673 224.018 177.875C224.865 177.061 225.862 176.43 227.008 175.981C228.154 175.533 229.4 175.309 230.745 175.309C232.107 175.309 233.353 175.533 234.483 175.981C235.629 176.43 236.626 177.061 237.473 177.875C238.32 178.673 238.976 179.619 239.441 180.716C239.907 181.795 240.139 182.983 240.139 184.279C240.139 185.575 239.907 186.771 239.441 187.867C238.976 188.963 238.32 189.91 237.473 190.708C236.626 191.505 235.629 192.128 234.483 192.576C233.353 193.025 232.116 193.249 230.77 193.249ZM230.745 190.409C231.626 190.409 232.44 190.259 233.187 189.96C233.935 189.661 234.583 189.237 235.131 188.689C235.679 188.125 236.103 187.477 236.402 186.746C236.717 185.998 236.875 185.176 236.875 184.279C236.875 183.382 236.717 182.568 236.402 181.837C236.103 181.09 235.679 180.442 235.131 179.893C234.583 179.329 233.935 178.897 233.187 178.598C232.44 178.299 231.626 178.149 230.745 178.149C229.865 178.149 229.051 178.299 228.303 178.598C227.573 178.897 226.925 179.329 226.36 179.893C225.812 180.442 225.38 181.09 225.064 181.837C224.765 182.568 224.616 183.382 224.616 184.279C224.616 185.159 224.765 185.973 225.064 186.721C225.38 187.468 225.812 188.125 226.36 188.689C226.908 189.237 227.556 189.661 228.303 189.96C229.051 190.259 229.865 190.409 230.745 190.409ZM243.573 193V175.558H246.239L257.178 188.988H255.857V175.558H259.071V193H256.405L245.466 179.57H246.787V193H243.573ZM266.635 188.889L266.461 185.051L275.606 175.558H279.244L271.644 183.631L269.85 185.6L266.635 188.889ZM263.745 193V175.558H266.984V193H263.745ZM275.905 193L269.227 185.051L271.37 182.684L279.692 193H275.905Z" fill="#3C3C3C"/>
<defs>
<linearGradient id="paint0_linear_189_504" x1="23.1221" y1="9" x2="72.4715" y2="150.722" gradientUnits="userSpaceOnUse">
<stop stop-color="#F7931A"/>
<stop offset="1" stop-color="#AC1CC7"/>
<stop offset="1" stop-color="#851D99"/>
</linearGradient>
<clipPath id="clip0_189_504">
<rect width="77" height="77" fill="white" transform="translate(93 70)"/>
</clipPath>
</defs>
</svg>
