<svg width="1400" height="134" viewBox="0 0 1400 134" fill="none" xmlns="http://www.w3.org/2000/svg">
<rect x="0.5" y="0.5" width="1399" height="133" rx="4.5" stroke="#3C3C3C"/>
<g clip-path="url(#clip0_189_417)">
<path d="M68 104C88.4345 104 105 87.4345 105 67C105 46.5655 88.4345 30 68 30C47.5655 30 31 46.5655 31 67C31 87.4345 47.5655 104 68 104Z" fill="#FDDE00"/>
<path d="M49.9903 56.1594C49.9903 56.1594 48.0771 58.5686 48.7149 69.4807C48.7149 69.4807 44.5342 80.1802 45.9514 85.6363C47.3686 91.0923 52.8955 90.8089 52.8955 90.8089C52.8955 90.8089 61.7527 98.6033 68.555 91.7301C75.3574 84.8568 62.8864 58.2143 62.8864 58.2143L61.3275 49.0028C61.3275 49.0028 59.627 50.3491 59.8395 59.2063C60.0521 68.0636 56.3675 61.8281 56.3675 61.8281L49.9903 56.1594Z" fill="#3C2D0C"/>
<path d="M50.6989 65.7961L48.3606 72.3859L47.5103 76.9916C47.5103 76.9916 44.6051 87.266 56.5801 87.1243C56.5801 87.1243 65.9333 95.4855 72.0271 89.8878L73.6568 88.1163L76.4911 83.7231L81.1677 69.7641C81.1677 69.7641 79.6797 60.1983 70.2556 56.2303C70.2556 56.2303 69.4762 55.8052 68.059 56.372C68.059 56.372 64.1618 47.5857 61.6818 48.6485C61.6818 48.6485 59.5561 49.7823 61.3984 58.4269L58.0681 59.9149C58.0681 59.9149 54.4254 53.0085 51.0532 54.388C47.9354 55.6634 50.6989 65.7961 50.6989 65.7961Z" fill="#E78C19"/>
<path d="M62.8149 52.9708L63.0984 56.7971C63.0984 56.7971 63.3109 58.9937 65.6493 58.2143C66.3101 57.994 66.8906 57.5337 66.8295 56.7783C66.7837 56.2126 66.3887 55.7004 66.1317 55.2123C65.6505 54.2986 65.2651 53.329 64.7056 52.4586C64.4193 52.0117 63.8299 51.0119 63.1692 51.1285C63.1692 51.1285 62.6821 50.9868 62.8149 52.9708Z" fill="#EFB99D"/>
<path d="M52.5714 57.2665C52.6161 57.2373 53.568 56.0312 55.5474 58.9538C57.527 61.8767 57.3277 61.4914 57.3277 61.4914C57.3277 61.4914 58.3906 62.6606 56.2117 64.1619C55.7368 64.5137 55.2187 64.8032 54.6701 65.0232C54.3293 65.1602 53.9652 65.2299 53.5979 65.2285C53.1843 65.2088 52.9981 64.9976 52.8959 64.6083C52.5611 63.3328 52.1839 62.0643 51.9928 60.7573C51.8487 59.7721 51.5608 57.9281 52.5714 57.2665Z" fill="#EFB99D"/>
<path d="M75.5841 63.1557C75.5841 63.8503 74.5686 64.4134 73.316 64.4134C72.0633 64.4134 71.0479 63.8503 71.0479 63.1557C71.0479 62.4611 72.0848 61.4384 73.3374 61.4384C74.5901 61.4384 75.5841 62.4611 75.5841 63.1557Z" fill="#FBFBFB"/>
<path d="M62.5035 68.5802C63.1775 67.3893 63.107 66.0747 62.346 65.6441C61.585 65.2134 60.4217 65.8297 59.7477 67.0206C59.0737 68.2116 59.1442 69.5261 59.9052 69.9568C60.6662 70.3875 61.8295 69.7712 62.5035 68.5802Z" fill="#FBFBFB"/>
<path d="M65.7199 74.3344L71.9199 71.1104C71.9199 71.1104 79.6434 67.0715 81.5212 70.1893C83.3989 73.307 81.5212 78.0545 81.5212 78.0545C81.5212 78.0545 80.7063 83.6168 75.0377 84.1128L71.9908 84.538L68.0936 84.6443C68.0936 84.6443 61.8227 84.9985 57.2169 81.5974L55.7644 79.8259C55.7644 79.8259 52.8238 75.787 54.8786 72.8819C56.9335 69.9767 63.9484 74.4762 63.9484 74.4762C63.9484 74.4762 64.905 74.9722 65.7199 74.3344Z" fill="#FBFBFB"/>
<path d="M79.7859 58.2497C80.6077 58.2497 81.2739 57.5835 81.2739 56.7617C81.2739 55.9399 80.6077 55.2737 79.7859 55.2737C78.9641 55.2737 78.2979 55.9399 78.2979 56.7617C78.2979 57.5835 78.9641 58.2497 79.7859 58.2497Z" fill="#E72D36"/>
<path d="M76.4909 54.6005C77.3128 54.6005 77.979 53.9343 77.979 53.1125C77.979 52.2907 77.3128 51.6245 76.4909 51.6245C75.6691 51.6245 75.0029 52.2907 75.0029 53.1125C75.0029 53.9343 75.6691 54.6005 76.4909 54.6005Z" fill="#E72D36"/>
<path d="M71.2116 53.4314C72.0335 53.4314 72.6997 52.7651 72.6997 51.9433C72.6997 51.1215 72.0335 50.4553 71.2116 50.4553C70.3898 50.4553 69.7236 51.1215 69.7236 51.9433C69.7236 52.7651 70.3898 53.4314 71.2116 53.4314Z" fill="#E72D36"/>
<path d="M72.3813 41.3856C72.7001 45.7788 72.0659 49.7468 70.9996 49.7468C69.9332 49.7468 68.5195 45.4599 68.5195 41.3856C68.5195 39.7029 69.4017 39.437 70.4681 39.437C71.5345 39.437 72.2595 39.7073 72.3813 41.3856Z" fill="#E72D36"/>
<path d="M82.2381 44.1274C80.6178 48.223 78.3236 51.5219 77.3629 51.059C76.4022 50.5961 76.99 46.121 78.7591 42.451C79.4897 40.9353 80.3999 41.0788 81.3606 41.5417C82.3213 42.0046 82.857 42.5628 82.2381 44.1274Z" fill="#E72D36"/>
<path d="M89.2837 52.0932C85.7173 54.6808 82.01 56.2343 81.448 55.3279C80.886 54.4215 83.785 50.9594 87.2484 48.8109C88.6789 47.9235 89.3698 48.5331 89.9318 49.4395C90.4938 50.3459 90.6462 51.1046 89.2837 52.0932Z" fill="#E72D36"/>
<path d="M65.4268 70.0117C65.2931 70.0221 65.1632 70.0389 65.0377 70.0607C65.0533 70.1056 65.0616 70.1528 65.0624 70.2003C65.0624 70.6539 64.3573 71.0234 63.4696 71.0483C63.4633 71.0864 63.4614 71.1251 63.464 71.1636C63.5066 71.7122 64.4544 72.0861 65.581 71.9986C66.7076 71.9111 67.5864 71.3954 67.5438 70.8468C67.5012 70.2981 66.5534 69.9242 65.4268 70.0117Z" fill="black"/>
<path d="M73.2656 68.0719C73.132 68.0823 73.0021 68.0991 72.8765 68.1209C72.8922 68.1658 72.9005 68.213 72.9012 68.2605C72.9012 68.7141 72.1961 69.0836 71.3085 69.1085C71.3022 69.1465 71.3003 69.1852 71.3029 69.2238C71.3455 69.7724 72.2933 70.1463 73.4199 70.0588C74.5465 69.9713 75.4252 69.4556 75.3826 68.907C75.34 68.3583 74.3922 67.9844 73.2656 68.0719Z" fill="black"/>
<path d="M75.8352 70.3665C75.8352 70.3665 72.7263 71.2699 72.9123 73.0236C73.0983 74.7774 76.8449 75.6808 76.8449 75.6808C76.8449 75.6808 77.8547 76.0794 78.4392 75.1228C79.0238 74.1662 79.8741 72.8642 79.635 71.0042C79.635 71.0042 79.5552 69.6225 75.8352 70.3665Z" fill="black"/>
</g>
<path d="M142.105 87.55C139.098 87.55 136.22 87.1283 133.47 86.285C130.72 85.405 128.538 84.2867 126.925 82.93L129.4 77.375C130.94 78.585 132.847 79.5933 135.12 80.4C137.393 81.2067 139.722 81.61 142.105 81.61C144.122 81.61 145.753 81.39 147 80.95C148.247 80.51 149.163 79.9233 149.75 79.19C150.337 78.42 150.63 77.5583 150.63 76.605C150.63 75.4317 150.208 74.4967 149.365 73.8C148.522 73.0667 147.422 72.4983 146.065 72.095C144.745 71.655 143.26 71.2517 141.61 70.885C139.997 70.5183 138.365 70.0967 136.715 69.62C135.102 69.1067 133.617 68.465 132.26 67.695C130.94 66.8883 129.858 65.825 129.015 64.505C128.172 63.185 127.75 61.4983 127.75 59.445C127.75 57.355 128.3 55.4483 129.4 53.725C130.537 51.965 132.242 50.5717 134.515 49.545C136.825 48.4817 139.74 47.95 143.26 47.95C145.57 47.95 147.862 48.2433 150.135 48.83C152.408 49.4167 154.388 50.26 156.075 51.36L153.82 56.915C152.097 55.8883 150.318 55.1367 148.485 54.66C146.652 54.1467 144.892 53.89 143.205 53.89C141.225 53.89 139.612 54.1283 138.365 54.605C137.155 55.0817 136.257 55.705 135.67 56.475C135.12 57.245 134.845 58.125 134.845 59.115C134.845 60.2883 135.248 61.2417 136.055 61.975C136.898 62.6717 137.98 63.2217 139.3 63.625C140.657 64.0283 142.16 64.4317 143.81 64.835C145.46 65.2017 147.092 65.6233 148.705 66.1C150.355 66.5767 151.84 67.2 153.16 67.97C154.517 68.74 155.598 69.785 156.405 71.105C157.248 72.425 157.67 74.0933 157.67 76.11C157.67 78.1633 157.102 80.07 155.965 81.83C154.865 83.5533 153.16 84.9467 150.85 86.01C148.54 87.0367 145.625 87.55 142.105 87.55ZM182.8 87.55C179.793 87.55 177.025 87.055 174.495 86.065C171.965 85.075 169.765 83.7 167.895 81.94C166.025 80.1433 164.577 78.0533 163.55 75.67C162.523 73.25 162.01 70.61 162.01 67.75C162.01 64.89 162.523 62.2683 163.55 59.885C164.577 57.465 166.025 55.375 167.895 53.615C169.765 51.8183 171.965 50.425 174.495 49.435C177.025 48.445 179.775 47.95 182.745 47.95C185.752 47.95 188.502 48.445 190.995 49.435C193.525 50.425 195.725 51.8183 197.595 53.615C199.465 55.375 200.913 57.465 201.94 59.885C202.967 62.2683 203.48 64.89 203.48 67.75C203.48 70.61 202.967 73.25 201.94 75.67C200.913 78.09 199.465 80.18 197.595 81.94C195.725 83.7 193.525 85.075 190.995 86.065C188.502 87.055 185.77 87.55 182.8 87.55ZM182.745 81.28C184.688 81.28 186.485 80.95 188.135 80.29C189.785 79.63 191.215 78.695 192.425 77.485C193.635 76.2383 194.57 74.8083 195.23 73.195C195.927 71.545 196.275 69.73 196.275 67.75C196.275 65.77 195.927 63.9733 195.23 62.36C194.57 60.71 193.635 59.28 192.425 58.07C191.215 56.8233 189.785 55.87 188.135 55.21C186.485 54.55 184.688 54.22 182.745 54.22C180.802 54.22 179.005 54.55 177.355 55.21C175.742 55.87 174.312 56.8233 173.065 58.07C171.855 59.28 170.902 60.71 170.205 62.36C169.545 63.9733 169.215 65.77 169.215 67.75C169.215 69.6933 169.545 71.49 170.205 73.14C170.902 74.79 171.855 76.2383 173.065 77.485C174.275 78.695 175.705 79.63 177.355 80.29C179.005 80.95 180.802 81.28 182.745 81.28ZM211.059 87V48.5H218.209V80.95H238.339V87H211.059ZM241.624 74.57V68.85H256.749V74.57H241.624ZM264.931 87V48.5H280.771C284.181 48.5 287.096 49.05 289.516 50.15C291.972 51.25 293.861 52.8267 295.181 54.88C296.501 56.9333 297.161 59.3717 297.161 62.195C297.161 65.0183 296.501 67.4567 295.181 69.51C293.861 71.5633 291.972 73.14 289.516 74.24C287.096 75.34 284.181 75.89 280.771 75.89H268.891L272.081 72.535V87H264.931ZM272.081 73.305L268.891 69.84H280.441C283.594 69.84 285.959 69.18 287.536 67.86C289.149 66.5033 289.956 64.615 289.956 62.195C289.956 59.7383 289.149 57.85 287.536 56.53C285.959 55.21 283.594 54.55 280.441 54.55H268.891L272.081 51.03V73.305ZM310.901 64.505H330.041V70.39H310.901V64.505ZM311.451 81.005H333.176V87H304.301V48.5H332.406V54.495H311.451V81.005ZM341.147 87V48.5H356.987C360.397 48.5 363.312 49.05 365.732 50.15C368.188 51.25 370.077 52.8267 371.397 54.88C372.717 56.9333 373.377 59.3717 373.377 62.195C373.377 65.0183 372.717 67.4567 371.397 69.51C370.077 71.5267 368.188 73.085 365.732 74.185C363.312 75.2483 360.397 75.78 356.987 75.78H345.107L348.297 72.535V87H341.147ZM366.337 87L356.602 73.03H364.247L374.037 87H366.337ZM348.297 73.305L345.107 69.895H356.657C359.81 69.895 362.175 69.2167 363.752 67.86C365.365 66.5033 366.172 64.615 366.172 62.195C366.172 59.7383 365.365 57.85 363.752 56.53C362.175 55.21 359.81 54.55 356.657 54.55H345.107L348.297 51.03V73.305ZM381.376 87V48.5H397.216C400.626 48.5 403.541 49.05 405.961 50.15C408.418 51.25 410.306 52.8267 411.626 54.88C412.946 56.9333 413.606 59.3717 413.606 62.195C413.606 65.0183 412.946 67.4567 411.626 69.51C410.306 71.5633 408.418 73.14 405.961 74.24C403.541 75.34 400.626 75.89 397.216 75.89H385.336L388.526 72.535V87H381.376ZM388.526 73.305L385.336 69.84H396.886C400.039 69.84 402.404 69.18 403.981 67.86C405.594 66.5033 406.401 64.615 406.401 62.195C406.401 59.7383 405.594 57.85 403.981 56.53C402.404 55.21 400.039 54.55 396.886 54.55H385.336L388.526 51.03V73.305Z" fill="url(#paint0_linear_189_417)"/>
<path d="M805.665 78.3C804.025 78.3 802.515 78.04 801.135 77.52C799.775 76.98 798.585 76.23 797.565 75.27C796.545 74.29 795.755 73.14 795.195 71.82C794.635 70.5 794.355 69.06 794.355 67.5C794.355 65.94 794.635 64.5 795.195 63.18C795.755 61.86 796.545 60.72 797.565 59.76C798.605 58.78 799.815 58.03 801.195 57.51C802.575 56.97 804.085 56.7 805.725 56.7C807.505 56.7 809.105 56.99 810.525 57.57C811.965 58.15 813.175 59 814.155 60.12L811.695 62.52C810.875 61.7 809.985 61.1 809.025 60.72C808.085 60.32 807.045 60.12 805.905 60.12C804.805 60.12 803.785 60.3 802.845 60.66C801.905 61.02 801.095 61.53 800.415 62.19C799.735 62.85 799.205 63.63 798.825 64.53C798.465 65.43 798.285 66.42 798.285 67.5C798.285 68.56 798.465 69.54 798.825 70.44C799.205 71.34 799.735 72.13 800.415 72.81C801.095 73.47 801.895 73.98 802.815 74.34C803.735 74.7 804.755 74.88 805.875 74.88C806.915 74.88 807.915 74.72 808.875 74.4C809.855 74.06 810.785 73.5 811.665 72.72L813.885 75.63C812.785 76.51 811.505 77.18 810.045 77.64C808.605 78.08 807.145 78.3 805.665 78.3ZM810.195 75.12V67.26H813.885V75.63L810.195 75.12ZM826.199 78.21C824.419 78.21 822.859 77.86 821.519 77.16C820.199 76.44 819.169 75.46 818.429 74.22C817.709 72.98 817.349 71.57 817.349 69.99C817.349 68.39 817.699 66.98 818.399 65.76C819.119 64.52 820.099 63.55 821.339 62.85C822.599 62.15 824.029 61.8 825.629 61.8C827.189 61.8 828.579 62.14 829.799 62.82C831.019 63.5 831.979 64.46 832.679 65.7C833.379 66.94 833.729 68.4 833.729 70.08C833.729 70.24 833.719 70.42 833.699 70.62C833.699 70.82 833.689 71.01 833.669 71.19H820.319V68.7H831.689L830.219 69.48C830.239 68.56 830.049 67.75 829.649 67.05C829.249 66.35 828.699 65.8 827.999 65.4C827.319 65 826.529 64.8 825.629 64.8C824.709 64.8 823.899 65 823.199 65.4C822.519 65.8 821.979 66.36 821.579 67.08C821.199 67.78 821.009 68.61 821.009 69.57V70.17C821.009 71.13 821.229 71.98 821.669 72.72C822.109 73.46 822.729 74.03 823.529 74.43C824.329 74.83 825.249 75.03 826.289 75.03C827.189 75.03 827.999 74.89 828.719 74.61C829.439 74.33 830.079 73.89 830.639 73.29L832.649 75.6C831.929 76.44 831.019 77.09 829.919 77.55C828.839 77.99 827.599 78.21 826.199 78.21ZM843.361 78.21C841.601 78.21 840.241 77.76 839.281 76.86C838.321 75.94 837.841 74.59 837.841 72.81V58.44H841.591V72.72C841.591 73.48 841.781 74.07 842.161 74.49C842.561 74.91 843.111 75.12 843.811 75.12C844.651 75.12 845.351 74.9 845.911 74.46L846.961 77.13C846.521 77.49 845.981 77.76 845.341 77.94C844.701 78.12 844.041 78.21 843.361 78.21ZM835.201 65.1V62.1H845.881V65.1H835.201ZM863.137 74.25V60.75H866.347V74.25H863.137ZM857.827 69V66H871.657V69H857.827ZM877.666 78V58.5L879.376 60.27H873.226V57H881.566V78H877.666ZM888.072 78.21C887.392 78.21 886.812 77.98 886.332 77.52C885.852 77.04 885.612 76.44 885.612 75.72C885.612 74.96 885.852 74.36 886.332 73.92C886.812 73.46 887.392 73.23 888.072 73.23C888.752 73.23 889.332 73.46 889.812 73.92C890.292 74.36 890.532 74.96 890.532 75.72C890.532 76.44 890.292 77.04 889.812 77.52C889.332 77.98 888.752 78.21 888.072 78.21ZM900.016 78.3C898.536 78.3 897.086 78.09 895.666 77.67C894.266 77.23 893.086 76.63 892.126 75.87L893.776 72.84C894.536 73.46 895.456 73.96 896.536 74.34C897.636 74.72 898.776 74.91 899.956 74.91C901.336 74.91 902.416 74.62 903.196 74.04C903.996 73.46 904.396 72.68 904.396 71.7C904.396 71.04 904.226 70.46 903.886 69.96C903.566 69.46 902.986 69.08 902.146 68.82C901.326 68.56 900.196 68.43 898.756 68.43H893.686L894.766 57H907.096V60.27H896.206L898.246 58.41L897.436 66.96L895.396 65.13H899.626C901.706 65.13 903.376 65.41 904.636 65.97C905.916 66.51 906.846 67.27 907.426 68.25C908.026 69.21 908.326 70.31 908.326 71.55C908.326 72.77 908.026 73.89 907.426 74.91C906.826 75.93 905.906 76.75 904.666 77.37C903.446 77.99 901.896 78.3 900.016 78.3ZM909.233 78L916.283 68.82L916.223 70.83L909.503 61.98H913.673L918.383 68.28H916.793L921.533 61.98H925.583L918.803 70.83L918.833 68.82L925.853 78H921.623L916.673 71.31L918.233 71.52L913.373 78H909.233ZM937.271 78V57H947.111C949.631 57 951.551 57.5 952.871 58.5C954.191 59.48 954.851 60.8 954.851 62.46C954.851 63.58 954.591 64.54 954.071 65.34C953.551 66.12 952.851 66.73 951.971 67.17C951.111 67.59 950.171 67.8 949.151 67.8L949.691 66.72C950.871 66.72 951.931 66.94 952.871 67.38C953.811 67.8 954.551 68.42 955.091 69.24C955.651 70.06 955.931 71.08 955.931 72.3C955.931 74.1 955.241 75.5 953.861 76.5C952.481 77.5 950.431 78 947.711 78H937.271ZM941.171 74.94H947.471C948.931 74.94 950.051 74.7 950.831 74.22C951.611 73.74 952.001 72.97 952.001 71.91C952.001 70.87 951.611 70.11 950.831 69.63C950.051 69.13 948.931 68.88 947.471 68.88H940.871V65.85H946.691C948.051 65.85 949.091 65.61 949.811 65.13C950.551 64.65 950.921 63.93 950.921 62.97C950.921 61.99 950.551 61.26 949.811 60.78C949.091 60.3 948.051 60.06 946.691 60.06H941.171V74.94ZM966.933 78.21C965.293 78.21 963.833 77.86 962.553 77.16C961.273 76.44 960.263 75.46 959.523 74.22C958.783 72.98 958.413 71.57 958.413 69.99C958.413 68.39 958.783 66.98 959.523 65.76C960.263 64.52 961.273 63.55 962.553 62.85C963.833 62.15 965.293 61.8 966.933 61.8C968.593 61.8 970.063 62.15 971.343 62.85C972.643 63.55 973.653 64.51 974.373 65.73C975.113 66.95 975.483 68.37 975.483 69.99C975.483 71.57 975.113 72.98 974.373 74.22C973.653 75.46 972.643 76.44 971.343 77.16C970.063 77.86 968.593 78.21 966.933 78.21ZM966.933 75C967.853 75 968.673 74.8 969.393 74.4C970.113 74 970.673 73.42 971.073 72.66C971.493 71.9 971.703 71.01 971.703 69.99C971.703 68.95 971.493 68.06 971.073 67.32C970.673 66.56 970.113 65.98 969.393 65.58C968.673 65.18 967.863 64.98 966.963 64.98C966.043 64.98 965.223 65.18 964.503 65.58C963.803 65.98 963.243 66.56 962.823 67.32C962.403 68.06 962.193 68.95 962.193 69.99C962.193 71.01 962.403 71.9 962.823 72.66C963.243 73.42 963.803 74 964.503 74.4C965.223 74.8 966.033 75 966.933 75ZM986.269 78.21C984.629 78.21 983.169 77.86 981.889 77.16C980.609 76.44 979.599 75.46 978.859 74.22C978.119 72.98 977.749 71.57 977.749 69.99C977.749 68.39 978.119 66.98 978.859 65.76C979.599 64.52 980.609 63.55 981.889 62.85C983.169 62.15 984.629 61.8 986.269 61.8C987.929 61.8 989.399 62.15 990.679 62.85C991.979 63.55 992.989 64.51 993.709 65.73C994.449 66.95 994.819 68.37 994.819 69.99C994.819 71.57 994.449 72.98 993.709 74.22C992.989 75.46 991.979 76.44 990.679 77.16C989.399 77.86 987.929 78.21 986.269 78.21ZM986.269 75C987.189 75 988.009 74.8 988.729 74.4C989.449 74 990.009 73.42 990.409 72.66C990.829 71.9 991.039 71.01 991.039 69.99C991.039 68.95 990.829 68.06 990.409 67.32C990.009 66.56 989.449 65.98 988.729 65.58C988.009 65.18 987.199 64.98 986.299 64.98C985.379 64.98 984.559 65.18 983.839 65.58C983.139 65.98 982.579 66.56 982.159 67.32C981.739 68.06 981.529 68.95 981.529 69.99C981.529 71.01 981.739 71.9 982.159 72.66C982.579 73.42 983.139 74 983.839 74.4C984.559 74.8 985.369 75 986.269 75ZM1003.36 78.21C1002.02 78.21 1000.73 78.04 999.485 77.7C998.265 77.34 997.295 76.91 996.575 76.41L998.015 73.56C998.735 74.02 999.595 74.4 1000.6 74.7C1001.6 75 1002.6 75.15 1003.6 75.15C1004.78 75.15 1005.63 74.99 1006.15 74.67C1006.69 74.35 1006.96 73.92 1006.96 73.38C1006.96 72.94 1006.78 72.61 1006.42 72.39C1006.06 72.15 1005.59 71.97 1005.01 71.85C1004.43 71.73 1003.78 71.62 1003.06 71.52C1002.36 71.42 1001.65 71.29 1000.93 71.13C1000.23 70.95 999.585 70.7 999.005 70.38C998.425 70.04 997.955 69.59 997.595 69.03C997.235 68.47 997.055 67.73 997.055 66.81C997.055 65.79 997.345 64.91 997.925 64.17C998.505 63.41 999.315 62.83 1000.36 62.43C1001.42 62.01 1002.67 61.8 1004.11 61.8C1005.19 61.8 1006.28 61.92 1007.38 62.16C1008.48 62.4 1009.39 62.74 1010.11 63.18L1008.67 66.03C1007.91 65.57 1007.14 65.26 1006.36 65.1C1005.6 64.92 1004.84 64.83 1004.08 64.83C1002.94 64.83 1002.09 65 1001.53 65.34C1000.99 65.68 1000.72 66.11 1000.72 66.63C1000.72 67.11 1000.9 67.47 1001.26 67.71C1001.62 67.95 1002.09 68.14 1002.67 68.28C1003.25 68.42 1003.89 68.54 1004.59 68.64C1005.31 68.72 1006.02 68.85 1006.72 69.03C1007.42 69.21 1008.06 69.46 1008.64 69.78C1009.24 70.08 1009.72 70.51 1010.08 71.07C1010.44 71.63 1010.62 72.36 1010.62 73.26C1010.62 74.26 1010.32 75.13 1009.72 75.87C1009.14 76.61 1008.31 77.19 1007.23 77.61C1006.15 78.01 1004.86 78.21 1003.36 78.21ZM1019.87 78.21C1018.11 78.21 1016.75 77.76 1015.79 76.86C1014.83 75.94 1014.35 74.59 1014.35 72.81V58.44H1018.1V72.72C1018.1 73.48 1018.29 74.07 1018.67 74.49C1019.07 74.91 1019.62 75.12 1020.32 75.12C1021.16 75.12 1021.86 74.9 1022.42 74.46L1023.47 77.13C1023.03 77.49 1022.49 77.76 1021.85 77.94C1021.21 78.12 1020.55 78.21 1019.87 78.21ZM1011.71 65.1V62.1H1022.39V65.1H1011.71ZM1043.73 78.21C1042.37 78.21 1041.16 77.91 1040.1 77.31C1039.04 76.71 1038.2 75.81 1037.58 74.61C1036.98 73.39 1036.68 71.85 1036.68 69.99C1036.68 68.11 1036.99 66.57 1037.61 65.37C1038.25 64.17 1039.1 63.28 1040.16 62.7C1041.24 62.1 1042.43 61.8 1043.73 61.8C1045.31 61.8 1046.7 62.14 1047.9 62.82C1049.12 63.5 1050.08 64.45 1050.78 65.67C1051.5 66.89 1051.86 68.33 1051.86 69.99C1051.86 71.65 1051.5 73.09 1050.78 74.31C1050.08 75.53 1049.12 76.49 1047.9 77.19C1046.7 77.87 1045.31 78.21 1043.73 78.21ZM1034.85 78V55.74H1038.6V65.7L1038.3 69.96L1038.42 74.22V78H1034.85ZM1043.31 75C1044.21 75 1045.01 74.8 1045.71 74.4C1046.43 74 1047 73.42 1047.42 72.66C1047.84 71.9 1048.05 71.01 1048.05 69.99C1048.05 68.95 1047.84 68.06 1047.42 67.32C1047 66.56 1046.43 65.98 1045.71 65.58C1045.01 65.18 1044.21 64.98 1043.31 64.98C1042.41 64.98 1041.6 65.18 1040.88 65.58C1040.16 65.98 1039.59 66.56 1039.17 67.32C1038.75 68.06 1038.54 68.95 1038.54 69.99C1038.54 71.01 1038.75 71.9 1039.17 72.66C1039.59 73.42 1040.16 74 1040.88 74.4C1041.6 74.8 1042.41 75 1043.31 75ZM1056.3 84.03C1055.52 84.03 1054.74 83.9 1053.96 83.64C1053.18 83.38 1052.53 83.02 1052.01 82.56L1053.51 79.8C1053.89 80.14 1054.32 80.41 1054.8 80.61C1055.28 80.81 1055.77 80.91 1056.27 80.91C1056.95 80.91 1057.5 80.74 1057.92 80.4C1058.34 80.06 1058.73 79.49 1059.09 78.69L1060.02 76.59L1060.32 76.14L1066.38 61.98H1069.98L1062.48 79.29C1061.98 80.49 1061.42 81.44 1060.8 82.14C1060.2 82.84 1059.52 83.33 1058.76 83.61C1058.02 83.89 1057.2 84.03 1056.3 84.03ZM1059.6 78.57L1052.37 61.98H1056.27L1062.15 75.81L1059.6 78.57ZM1089.7 61.8C1090.98 61.8 1092.12 62.05 1093.12 62.55C1094.14 63.05 1094.94 63.82 1095.52 64.86C1096.1 65.88 1096.39 67.2 1096.39 68.82V78H1092.64V69.3C1092.64 67.88 1092.3 66.82 1091.62 66.12C1090.96 65.42 1090.03 65.07 1088.83 65.07C1087.95 65.07 1087.17 65.25 1086.49 65.61C1085.81 65.97 1085.28 66.51 1084.9 67.23C1084.54 67.93 1084.36 68.82 1084.36 69.9V78H1080.61V55.74H1084.36V66.3L1083.55 64.98C1084.11 63.96 1084.92 63.18 1085.98 62.64C1087.06 62.08 1088.3 61.8 1089.7 61.8ZM1108.38 78.21C1106.74 78.21 1105.28 77.86 1104 77.16C1102.72 76.44 1101.71 75.46 1100.97 74.22C1100.23 72.98 1099.86 71.57 1099.86 69.99C1099.86 68.39 1100.23 66.98 1100.97 65.76C1101.71 64.52 1102.72 63.55 1104 62.85C1105.28 62.15 1106.74 61.8 1108.38 61.8C1110.04 61.8 1111.51 62.15 1112.79 62.85C1114.09 63.55 1115.1 64.51 1115.82 65.73C1116.56 66.95 1116.93 68.37 1116.93 69.99C1116.93 71.57 1116.56 72.98 1115.82 74.22C1115.1 75.46 1114.09 76.44 1112.79 77.16C1111.51 77.86 1110.04 78.21 1108.38 78.21ZM1108.38 75C1109.3 75 1110.12 74.8 1110.84 74.4C1111.56 74 1112.12 73.42 1112.52 72.66C1112.94 71.9 1113.15 71.01 1113.15 69.99C1113.15 68.95 1112.94 68.06 1112.52 67.32C1112.12 66.56 1111.56 65.98 1110.84 65.58C1110.12 65.18 1109.31 64.98 1108.41 64.98C1107.49 64.98 1106.67 65.18 1105.95 65.58C1105.25 65.98 1104.69 66.56 1104.27 67.32C1103.85 68.06 1103.64 68.95 1103.64 69.99C1103.64 71.01 1103.85 71.9 1104.27 72.66C1104.69 73.42 1105.25 74 1105.95 74.4C1106.67 74.8 1107.48 75 1108.38 75ZM1120.51 78V55.74H1124.26V78H1120.51ZM1135.97 78.21C1134.43 78.21 1133.04 77.87 1131.8 77.19C1130.58 76.49 1129.62 75.53 1128.92 74.31C1128.22 73.09 1127.87 71.65 1127.87 69.99C1127.87 68.33 1128.22 66.89 1128.92 65.67C1129.62 64.45 1130.58 63.5 1131.8 62.82C1133.04 62.14 1134.43 61.8 1135.97 61.8C1137.31 61.8 1138.51 62.1 1139.57 62.7C1140.63 63.28 1141.47 64.17 1142.09 65.37C1142.71 66.57 1143.02 68.11 1143.02 69.99C1143.02 71.85 1142.72 73.39 1142.12 74.61C1141.52 75.81 1140.69 76.71 1139.63 77.31C1138.57 77.91 1137.35 78.21 1135.97 78.21ZM1136.42 75C1137.32 75 1138.12 74.8 1138.82 74.4C1139.54 74 1140.11 73.42 1140.53 72.66C1140.97 71.9 1141.19 71.01 1141.19 69.99C1141.19 68.95 1140.97 68.06 1140.53 67.32C1140.11 66.56 1139.54 65.98 1138.82 65.58C1138.12 65.18 1137.32 64.98 1136.42 64.98C1135.52 64.98 1134.71 65.18 1133.99 65.58C1133.29 65.98 1132.72 66.56 1132.28 67.32C1131.86 68.06 1131.65 68.95 1131.65 69.99C1131.65 71.01 1131.86 71.9 1132.28 72.66C1132.72 73.42 1133.29 74 1133.99 74.4C1134.71 74.8 1135.52 75 1136.42 75ZM1141.28 78V74.22L1141.43 69.96L1141.13 65.7V55.74H1144.85V78H1141.28ZM1149.78 78V61.98H1153.53V78H1149.78ZM1151.67 59.34C1150.97 59.34 1150.39 59.12 1149.93 58.68C1149.49 58.24 1149.27 57.71 1149.27 57.09C1149.27 56.45 1149.49 55.92 1149.93 55.5C1150.39 55.06 1150.97 54.84 1151.67 54.84C1152.37 54.84 1152.94 55.05 1153.38 55.47C1153.84 55.87 1154.07 56.38 1154.07 57C1154.07 57.66 1153.85 58.22 1153.41 58.68C1152.97 59.12 1152.39 59.34 1151.67 59.34ZM1167.54 61.8C1168.82 61.8 1169.96 62.05 1170.96 62.55C1171.98 63.05 1172.78 63.82 1173.36 64.86C1173.94 65.88 1174.23 67.2 1174.23 68.82V78H1170.48V69.3C1170.48 67.88 1170.14 66.82 1169.46 66.12C1168.8 65.42 1167.87 65.07 1166.67 65.07C1165.79 65.07 1165.01 65.25 1164.33 65.61C1163.65 65.97 1163.12 66.51 1162.74 67.23C1162.38 67.93 1162.2 68.82 1162.2 69.9V78H1158.45V61.98H1162.02V66.3L1161.39 64.98C1161.95 63.96 1162.76 63.18 1163.82 62.64C1164.9 62.08 1166.14 61.8 1167.54 61.8ZM1186.28 84.03C1184.8 84.03 1183.35 83.83 1181.93 83.43C1180.53 83.05 1179.38 82.49 1178.48 81.75L1180.16 78.93C1180.86 79.51 1181.74 79.97 1182.8 80.31C1183.88 80.67 1184.97 80.85 1186.07 80.85C1187.83 80.85 1189.12 80.44 1189.94 79.62C1190.76 78.82 1191.17 77.61 1191.17 75.99V73.14L1191.47 69.51L1191.35 65.88V61.98H1194.92V75.57C1194.92 78.47 1194.18 80.6 1192.7 81.96C1191.22 83.34 1189.08 84.03 1186.28 84.03ZM1185.8 77.28C1184.28 77.28 1182.9 76.96 1181.66 76.32C1180.44 75.66 1179.47 74.75 1178.75 73.59C1178.05 72.43 1177.7 71.07 1177.7 69.51C1177.7 67.97 1178.05 66.62 1178.75 65.46C1179.47 64.3 1180.44 63.4 1181.66 62.76C1182.9 62.12 1184.28 61.8 1185.8 61.8C1187.16 61.8 1188.38 62.07 1189.46 62.61C1190.54 63.15 1191.4 63.99 1192.04 65.13C1192.7 66.27 1193.03 67.73 1193.03 69.51C1193.03 71.29 1192.7 72.76 1192.04 73.92C1191.4 75.06 1190.54 75.91 1189.46 76.47C1188.38 77.01 1187.16 77.28 1185.8 77.28ZM1186.37 74.1C1187.31 74.1 1188.15 73.91 1188.89 73.53C1189.63 73.13 1190.2 72.59 1190.6 71.91C1191.02 71.21 1191.23 70.41 1191.23 69.51C1191.23 68.61 1191.02 67.82 1190.6 67.14C1190.2 66.44 1189.63 65.91 1188.89 65.55C1188.15 65.17 1187.31 64.98 1186.37 64.98C1185.43 64.98 1184.58 65.17 1183.82 65.55C1183.08 65.91 1182.5 66.44 1182.08 67.14C1181.68 67.82 1181.48 68.61 1181.48 69.51C1181.48 70.41 1181.68 71.21 1182.08 71.91C1182.5 72.59 1183.08 73.13 1183.82 73.53C1184.58 73.91 1185.43 74.1 1186.37 74.1ZM1210.36 78V58.5L1212.07 60.27H1205.92V57H1214.26V78H1210.36ZM1219.93 78V57H1223.14L1232.32 72.33H1230.64L1239.67 57H1242.88L1242.91 78H1239.22L1239.19 62.79H1239.97L1232.29 75.6H1230.55L1222.75 62.79H1223.65V78H1219.93ZM1253.02 74.25V60.75H1256.23V74.25H1253.02ZM1247.71 69V66H1261.54V69H1247.71ZM1274.57 78V57H1284.41C1286.93 57 1288.85 57.5 1290.17 58.5C1291.49 59.48 1292.15 60.8 1292.15 62.46C1292.15 63.58 1291.89 64.54 1291.37 65.34C1290.85 66.12 1290.15 66.73 1289.27 67.17C1288.41 67.59 1287.47 67.8 1286.45 67.8L1286.99 66.72C1288.17 66.72 1289.23 66.94 1290.17 67.38C1291.11 67.8 1291.85 68.42 1292.39 69.24C1292.95 70.06 1293.23 71.08 1293.23 72.3C1293.23 74.1 1292.54 75.5 1291.16 76.5C1289.78 77.5 1287.73 78 1285.01 78H1274.57ZM1278.47 74.94H1284.77C1286.23 74.94 1287.35 74.7 1288.13 74.22C1288.91 73.74 1289.3 72.97 1289.3 71.91C1289.3 70.87 1288.91 70.11 1288.13 69.63C1287.35 69.13 1286.23 68.88 1284.77 68.88H1278.17V65.85H1283.99C1285.35 65.85 1286.39 65.61 1287.11 65.13C1287.85 64.65 1288.22 63.93 1288.22 62.97C1288.22 61.99 1287.85 61.26 1287.11 60.78C1286.39 60.3 1285.35 60.06 1283.99 60.06H1278.47V74.94ZM1307.23 78.3C1305.59 78.3 1304.08 78.03 1302.7 77.49C1301.32 76.95 1300.12 76.2 1299.1 75.24C1298.08 74.26 1297.29 73.12 1296.73 71.82C1296.17 70.5 1295.89 69.06 1295.89 67.5C1295.89 65.94 1296.17 64.51 1296.73 63.21C1297.29 61.89 1298.08 60.75 1299.1 59.79C1300.12 58.81 1301.32 58.05 1302.7 57.51C1304.08 56.97 1305.58 56.7 1307.2 56.7C1308.84 56.7 1310.34 56.97 1311.7 57.51C1313.08 58.05 1314.28 58.81 1315.3 59.79C1316.32 60.75 1317.11 61.89 1317.67 63.21C1318.23 64.51 1318.51 65.94 1318.51 67.5C1318.51 69.06 1318.23 70.5 1317.67 71.82C1317.11 73.14 1316.32 74.28 1315.3 75.24C1314.28 76.2 1313.08 76.95 1311.7 77.49C1310.34 78.03 1308.85 78.3 1307.23 78.3ZM1307.2 74.88C1308.26 74.88 1309.24 74.7 1310.14 74.34C1311.04 73.98 1311.82 73.47 1312.48 72.81C1313.14 72.13 1313.65 71.35 1314.01 70.47C1314.39 69.57 1314.58 68.58 1314.58 67.5C1314.58 66.42 1314.39 65.44 1314.01 64.56C1313.65 63.66 1313.14 62.88 1312.48 62.22C1311.82 61.54 1311.04 61.02 1310.14 60.66C1309.24 60.3 1308.26 60.12 1307.2 60.12C1306.14 60.12 1305.16 60.3 1304.26 60.66C1303.38 61.02 1302.6 61.54 1301.92 62.22C1301.26 62.88 1300.74 63.66 1300.36 64.56C1300 65.44 1299.82 66.42 1299.82 67.5C1299.82 68.56 1300 69.54 1300.36 70.44C1300.74 71.34 1301.26 72.13 1301.92 72.81C1302.58 73.47 1303.36 73.98 1304.26 74.34C1305.16 74.7 1306.14 74.88 1307.2 74.88ZM1322.64 78V57H1325.85L1339.02 73.17H1337.43V57H1341.3V78H1338.09L1324.92 61.83H1326.51V78H1322.64ZM1350.41 73.05L1350.2 68.43L1361.21 57H1365.59L1356.44 66.72L1354.28 69.09L1350.41 73.05ZM1346.93 78V57H1350.83V78H1346.93ZM1361.57 78L1353.53 68.43L1356.11 65.58L1366.13 78H1361.57Z" fill="#3C3C3C"/>
<defs>
<linearGradient id="paint0_linear_189_417" x1="125" y1="42" x2="177.029" y2="181.501" gradientUnits="userSpaceOnUse">
<stop stop-color="#F7931A"/>
<stop offset="1" stop-color="#AC1CC7"/>
<stop offset="1" stop-color="#851D99"/>
</linearGradient>
<clipPath id="clip0_189_417">
<rect width="74" height="74" fill="white" transform="translate(31 30)"/>
</clipPath>
</defs>
</svg>
