<svg width="31" height="32" viewBox="0 0 31 32" fill="none" xmlns="http://www.w3.org/2000/svg">
<circle cx="15.5" cy="16" r="15.5" fill="url(#paint0_linear_254_455)"/>
<path d="M14.4721 16.9089C14.4721 16.5389 14.5321 16.2139 14.6521 15.9339C14.7721 15.6539 14.9271 15.4039 15.1171 15.1839C15.3071 14.9639 15.5071 14.7589 15.7171 14.5689C15.9371 14.3789 16.1421 14.1939 16.3321 14.0139C16.5221 13.8339 16.6771 13.6439 16.7971 13.4439C16.9171 13.2439 16.9771 13.0189 16.9771 12.7689C16.9771 12.3489 16.8071 12.0089 16.4671 11.7489C16.1271 11.4889 15.6721 11.3589 15.1021 11.3589C14.5521 11.3589 14.0721 11.4589 13.6621 11.6589C13.2621 11.8589 12.9271 12.1439 12.6571 12.5139L11.2021 11.5689C11.6221 10.9989 12.1721 10.5539 12.8521 10.2339C13.5321 9.90392 14.3371 9.73892 15.2671 9.73892C15.9971 9.73892 16.6371 9.84892 17.1871 10.0689C17.7371 10.2789 18.1671 10.5889 18.4771 10.9989C18.7871 11.3989 18.9421 11.8889 18.9421 12.4689C18.9421 12.8689 18.8771 13.2189 18.7471 13.5189C18.6271 13.8189 18.4671 14.0839 18.2671 14.3139C18.0771 14.5339 17.8721 14.7439 17.6521 14.9439C17.4321 15.1339 17.2221 15.3239 17.0221 15.5139C16.8321 15.7039 16.6771 15.9089 16.5571 16.1289C16.4371 16.3489 16.3771 16.6089 16.3771 16.9089H14.4721ZM15.4321 20.4939C15.0821 20.4939 14.7921 20.3789 14.5621 20.1489C14.3421 19.9189 14.2321 19.6439 14.2321 19.3239C14.2321 19.0039 14.3421 18.7339 14.5621 18.5139C14.7921 18.2839 15.0821 18.1689 15.4321 18.1689C15.7821 18.1689 16.0671 18.2839 16.2871 18.5139C16.5071 18.7339 16.6171 19.0039 16.6171 19.3239C16.6171 19.6439 16.5071 19.9189 16.2871 20.1489C16.0671 20.3789 15.7821 20.4939 15.4321 20.4939Z" fill="white"/>
<defs>
<linearGradient id="paint0_linear_254_455" x1="-6.92904e-08" y1="12.9" x2="31.9313" y2="16.7006" gradientUnits="userSpaceOnUse">
<stop stop-color="#5855FF"/>
<stop offset="1" stop-color="#DC1FFF"/>
</linearGradient>
</defs>
</svg>
