<svg width="286" height="226" viewBox="0 0 286 226" fill="none" xmlns="http://www.w3.org/2000/svg">
<g filter="url(#filter0_f_618_4808)">
<ellipse cx="143" cy="202.5" rx="125" ry="5.5" fill="black" fill-opacity="0.15"/>
</g>
<circle cx="241.5" cy="81.5" r="27.5" fill="#687EE6"/>
<path d="M240.887 66.8333L240.687 67.5018V86.8994L240.887 87.0958L250.05 81.7734L240.887 66.8333Z" fill="#C3CCF5"/>
<path d="M240.885 66.8333L231.722 81.7735L240.885 87.0958V77.6808V66.8333Z" fill="white"/>
<path d="M240.887 88.7979L240.775 88.9331V95.8429L240.887 96.1667L250.056 83.4783L240.887 88.7979Z" fill="#C3CCF5"/>
<path d="M240.885 96.1667V88.7979L231.722 83.4783L240.885 96.1667Z" fill="white"/>
<path d="M240.884 87.0992L250.046 81.7768L240.884 77.6841V87.0992Z" fill="#8799EA"/>
<path d="M231.722 81.7768L240.885 87.0992V77.6841L231.722 81.7768Z" fill="#C3CCF5"/>
<circle cx="162" cy="35" r="35" fill="black"/>
<path d="M152.208 41.8612C152.396 41.6713 152.649 41.5645 152.914 41.5645H177.419C177.867 41.5645 178.09 42.1105 177.772 42.425L172.93 47.3033C172.742 47.4932 172.489 47.6 172.224 47.6H147.724C147.277 47.6 147.054 47.0541 147.371 46.7395L152.208 41.8612Z" fill="url(#paint0_linear_618_4808)"/>
<path d="M152.208 23.63C152.396 23.4401 152.649 23.3333 152.914 23.3333H177.419C177.867 23.3333 178.09 23.8793 177.773 24.1938L172.93 29.0721C172.742 29.262 172.489 29.3689 172.224 29.3689H147.724C147.277 29.3689 147.054 28.8229 147.371 28.5083L152.208 23.63Z" fill="url(#paint1_linear_618_4808)"/>
<path d="M172.93 32.6868C172.742 32.4969 172.489 32.3901 172.224 32.3901H147.724C147.277 32.3901 147.054 32.9361 147.371 33.2506L152.214 38.1289C152.402 38.3188 152.655 38.4256 152.92 38.4256H177.425C177.872 38.4256 178.096 37.8796 177.778 37.5651L172.93 32.6868Z" fill="url(#paint2_linear_618_4808)"/>
<path d="M18.24 148.35C16.5133 148.35 14.8217 148.105 13.165 147.615C11.5317 147.102 10.155 146.402 9.035 145.515L10.995 141.98C11.8817 142.703 12.955 143.287 14.215 143.73C15.475 144.173 16.7933 144.395 18.17 144.395C19.8033 144.395 21.075 144.068 21.985 143.415C22.895 142.738 23.35 141.828 23.35 140.685C23.35 139.565 22.93 138.678 22.09 138.025C21.25 137.372 19.8967 137.045 18.03 137.045H15.79V133.93L22.79 125.6L23.385 127.315H10.225V123.5H26.92V126.545L19.92 134.875L17.54 133.475H18.905C21.915 133.475 24.1667 134.152 25.66 135.505C27.1767 136.835 27.935 138.55 27.935 140.65C27.935 142.027 27.585 143.298 26.885 144.465C26.185 145.632 25.1117 146.577 23.665 147.3C22.2417 148 20.4333 148.35 18.24 148.35ZM33.6411 148.245C32.8478 148.245 32.1711 147.977 31.6111 147.44C31.0511 146.88 30.7711 146.18 30.7711 145.34C30.7711 144.453 31.0511 143.753 31.6111 143.24C32.1711 142.703 32.8478 142.435 33.6411 142.435C34.4344 142.435 35.1111 142.703 35.6711 143.24C36.2311 143.753 36.5111 144.453 36.5111 145.34C36.5111 146.18 36.2311 146.88 35.6711 147.44C35.1111 147.977 34.4344 148.245 33.6411 148.245ZM39.4828 148V144.955L49.2128 135.715C50.0295 134.945 50.6361 134.268 51.0328 133.685C51.4295 133.102 51.6861 132.565 51.8028 132.075C51.9428 131.562 52.0128 131.083 52.0128 130.64C52.0128 129.52 51.6278 128.657 50.8578 128.05C50.0878 127.42 48.9561 127.105 47.4628 127.105C46.2728 127.105 45.1878 127.315 44.2078 127.735C43.2511 128.155 42.4228 128.797 41.7228 129.66L38.5378 127.21C39.4945 125.927 40.7778 124.935 42.3878 124.235C44.0211 123.512 45.8411 123.15 47.8478 123.15C49.6211 123.15 51.1611 123.442 52.4678 124.025C53.7978 124.585 54.8128 125.39 55.5128 126.44C56.2361 127.49 56.5978 128.738 56.5978 130.185C56.5978 130.978 56.4928 131.772 56.2828 132.565C56.0728 133.335 55.6761 134.152 55.0928 135.015C54.5095 135.878 53.6578 136.847 52.5378 137.92L44.1728 145.865L43.2278 144.15H57.5428V148H39.4828ZM58.773 148L66.998 137.29L66.928 139.635L59.088 129.31H63.953L69.448 136.66H67.593L73.123 129.31H77.848L69.938 139.635L69.973 137.29L78.163 148H73.228L67.453 140.195L69.273 140.44L63.603 148H58.773ZM91.0643 148V122.03H95.4393V148H91.0643ZM109.582 148.245C107.668 148.245 105.965 147.837 104.472 147.02C102.978 146.18 101.8 145.037 100.937 143.59C100.073 142.143 99.6415 140.498 99.6415 138.655C99.6415 136.788 100.073 135.143 100.937 133.72C101.8 132.273 102.978 131.142 104.472 130.325C105.965 129.508 107.668 129.1 109.582 129.1C111.518 129.1 113.233 129.508 114.727 130.325C116.243 131.142 117.422 132.262 118.262 133.685C119.125 135.108 119.557 136.765 119.557 138.655C119.557 140.498 119.125 142.143 118.262 143.59C117.422 145.037 116.243 146.18 114.727 147.02C113.233 147.837 111.518 148.245 109.582 148.245ZM109.582 144.5C110.655 144.5 111.612 144.267 112.452 143.8C113.292 143.333 113.945 142.657 114.412 141.77C114.902 140.883 115.147 139.845 115.147 138.655C115.147 137.442 114.902 136.403 114.412 135.54C113.945 134.653 113.292 133.977 112.452 133.51C111.612 133.043 110.667 132.81 109.617 132.81C108.543 132.81 107.587 133.043 106.747 133.51C105.93 133.977 105.277 134.653 104.787 135.54C104.297 136.403 104.052 137.442 104.052 138.655C104.052 139.845 104.297 140.883 104.787 141.77C105.277 142.657 105.93 143.333 106.747 143.8C107.587 144.267 108.532 144.5 109.582 144.5ZM124.767 155.035C123.857 155.035 122.947 154.883 122.037 154.58C121.127 154.277 120.369 153.857 119.762 153.32L121.512 150.1C121.956 150.497 122.457 150.812 123.017 151.045C123.577 151.278 124.149 151.395 124.732 151.395C125.526 151.395 126.167 151.197 126.657 150.8C127.147 150.403 127.602 149.738 128.022 148.805L129.107 146.355L129.457 145.83L136.527 129.31H140.727L131.977 149.505C131.394 150.905 130.741 152.013 130.017 152.83C129.317 153.647 128.524 154.218 127.637 154.545C126.774 154.872 125.817 155.035 124.767 155.035ZM128.617 148.665L120.182 129.31H124.732L131.592 145.445L128.617 148.665ZM154.396 148V144.22L154.151 143.415V136.8C154.151 135.517 153.766 134.525 152.996 133.825C152.226 133.102 151.059 132.74 149.496 132.74C148.446 132.74 147.407 132.903 146.381 133.23C145.377 133.557 144.526 134.012 143.826 134.595L142.111 131.41C143.114 130.64 144.304 130.068 145.681 129.695C147.081 129.298 148.527 129.1 150.021 129.1C152.727 129.1 154.816 129.753 156.286 131.06C157.779 132.343 158.526 134.338 158.526 137.045V148H154.396ZM148.516 148.245C147.116 148.245 145.891 148.012 144.841 147.545C143.791 147.055 142.974 146.39 142.391 145.55C141.831 144.687 141.551 143.718 141.551 142.645C141.551 141.595 141.796 140.65 142.286 139.81C142.799 138.97 143.627 138.305 144.771 137.815C145.914 137.325 147.431 137.08 149.321 137.08H154.746V139.985H149.636C148.142 139.985 147.139 140.23 146.626 140.72C146.112 141.187 145.856 141.77 145.856 142.47C145.856 143.263 146.171 143.893 146.801 144.36C147.431 144.827 148.306 145.06 149.426 145.06C150.499 145.06 151.456 144.815 152.296 144.325C153.159 143.835 153.777 143.112 154.151 142.155L154.886 144.78C154.466 145.877 153.707 146.728 152.611 147.335C151.537 147.942 150.172 148.245 148.516 148.245ZM164.141 148V122.03H168.516V148H164.141ZM182.216 148.245C180.162 148.245 178.576 147.72 177.456 146.67C176.336 145.597 175.776 144.022 175.776 141.945V125.18H180.151V141.84C180.151 142.727 180.372 143.415 180.816 143.905C181.282 144.395 181.924 144.64 182.741 144.64C183.721 144.64 184.537 144.383 185.191 143.87L186.416 146.985C185.902 147.405 185.272 147.72 184.526 147.93C183.779 148.14 183.009 148.245 182.216 148.245ZM172.696 132.95V129.45H185.156V132.95H172.696ZM191.213 155.035C190.303 155.035 189.393 154.883 188.483 154.58C187.573 154.277 186.814 153.857 186.208 153.32L187.958 150.1C188.401 150.497 188.903 150.812 189.463 151.045C190.023 151.278 190.594 151.395 191.178 151.395C191.971 151.395 192.613 151.197 193.103 150.8C193.593 150.403 194.048 149.738 194.468 148.805L195.553 146.355L195.903 145.83L202.973 129.31H207.173L198.423 149.505C197.839 150.905 197.186 152.013 196.463 152.83C195.763 153.647 194.969 154.218 194.083 154.545C193.219 154.872 192.263 155.035 191.213 155.035ZM195.063 148.665L186.628 129.31H191.178L198.038 145.445L195.063 148.665Z" fill="url(#paint3_linear_618_4808)"/>
<path d="M14.8285 108.4V89.6H16.4685V108.4H14.8285ZM15.4485 106.2C14.3552 106.2 13.3085 106.047 12.3085 105.74C11.3085 105.42 10.5152 105.013 9.92852 104.52L10.8285 102.5C11.3885 102.94 12.0818 103.307 12.9085 103.6C13.7352 103.893 14.5818 104.04 15.4485 104.04C16.1818 104.04 16.7752 103.96 17.2285 103.8C17.6818 103.64 18.0152 103.427 18.2285 103.16C18.4418 102.88 18.5485 102.567 18.5485 102.22C18.5485 101.793 18.3952 101.453 18.0885 101.2C17.7818 100.933 17.3818 100.727 16.8885 100.58C16.4085 100.42 15.8685 100.273 15.2685 100.14C14.6818 100.007 14.0885 99.8533 13.4885 99.68C12.9018 99.4933 12.3618 99.26 11.8685 98.98C11.3885 98.6867 10.9952 98.3 10.6885 97.82C10.3818 97.34 10.2285 96.7267 10.2285 95.98C10.2285 95.22 10.4285 94.5267 10.8285 93.9C11.2418 93.26 11.8618 92.7533 12.6885 92.38C13.5285 91.9933 14.5885 91.8 15.8685 91.8C16.7085 91.8 17.5418 91.9067 18.3685 92.12C19.1952 92.3333 19.9152 92.64 20.5285 93.04L19.7085 95.06C19.0818 94.6867 18.4352 94.4133 17.7685 94.24C17.1018 94.0533 16.4618 93.96 15.8485 93.96C15.1285 93.96 14.5418 94.0467 14.0885 94.22C13.6485 94.3933 13.3218 94.62 13.1085 94.9C12.9085 95.18 12.8085 95.5 12.8085 95.86C12.8085 96.2867 12.9552 96.6333 13.2485 96.9C13.5552 97.1533 13.9485 97.3533 14.4285 97.5C14.9218 97.6467 15.4685 97.7933 16.0685 97.94C16.6685 98.0733 17.2618 98.2267 17.8485 98.4C18.4485 98.5733 18.9885 98.8 19.4685 99.08C19.9618 99.36 20.3552 99.74 20.6485 100.22C20.9552 100.7 21.1085 101.307 21.1085 102.04C21.1085 102.787 20.9018 103.48 20.4885 104.12C20.0885 104.747 19.4685 105.253 18.6285 105.64C17.7885 106.013 16.7285 106.2 15.4485 106.2ZM27.3266 106.2C26.34 106.2 25.3733 106.06 24.4266 105.78C23.4933 105.487 22.7066 105.087 22.0666 104.58L23.1666 102.56C23.6733 102.973 24.2866 103.307 25.0066 103.56C25.74 103.813 26.5 103.94 27.2866 103.94C28.2066 103.94 28.9266 103.747 29.4466 103.36C29.98 102.973 30.2466 102.453 30.2466 101.8C30.2466 101.36 30.1333 100.973 29.9066 100.64C29.6933 100.307 29.3066 100.053 28.7466 99.88C28.2 99.7067 27.4466 99.62 26.4866 99.62H23.1066L23.8266 92H32.0466V94.18H24.7866L26.1466 92.94L25.6066 98.64L24.2466 97.42H27.0666C28.4533 97.42 29.5666 97.6067 30.4066 97.98C31.26 98.34 31.88 98.8467 32.2666 99.5C32.6666 100.14 32.8666 100.873 32.8666 101.7C32.8666 102.513 32.6666 103.26 32.2666 103.94C31.8666 104.62 31.2533 105.167 30.4266 105.58C29.6133 105.993 28.58 106.2 27.3266 106.2ZM38.9087 106.2C37.922 106.2 36.9553 106.06 36.0087 105.78C35.0753 105.487 34.2887 105.087 33.6487 104.58L34.7487 102.56C35.2553 102.973 35.8687 103.307 36.5887 103.56C37.322 103.813 38.082 103.94 38.8687 103.94C39.7887 103.94 40.5087 103.747 41.0287 103.36C41.562 102.973 41.8287 102.453 41.8287 101.8C41.8287 101.36 41.7153 100.973 41.4887 100.64C41.2753 100.307 40.8887 100.053 40.3287 99.88C39.782 99.7067 39.0287 99.62 38.0687 99.62H34.6887L35.4087 92H43.6287V94.18H36.3687L37.7287 92.94L37.1887 98.64L35.8287 97.42H38.6487C40.0353 97.42 41.1487 97.6067 41.9887 97.98C42.842 98.34 43.462 98.8467 43.8487 99.5C44.2487 100.14 44.4487 100.873 44.4487 101.7C44.4487 102.513 44.2487 103.26 43.8487 103.94C43.4487 104.62 42.8353 105.167 42.0087 105.58C41.1953 105.993 40.162 106.2 38.9087 106.2ZM51.7884 106.2C50.6817 106.2 49.6817 105.92 48.7884 105.36C47.9084 104.8 47.215 103.987 46.7084 102.92C46.2017 101.84 45.9484 100.533 45.9484 99C45.9484 97.4667 46.2017 96.1667 46.7084 95.1C47.215 94.02 47.9084 93.2 48.7884 92.64C49.6817 92.08 50.6817 91.8 51.7884 91.8C52.9084 91.8 53.9084 92.08 54.7884 92.64C55.6684 93.2 56.3617 94.02 56.8684 95.1C57.3884 96.1667 57.6484 97.4667 57.6484 99C57.6484 100.533 57.3884 101.84 56.8684 102.92C56.3617 103.987 55.6684 104.8 54.7884 105.36C53.9084 105.92 52.9084 106.2 51.7884 106.2ZM51.7884 103.94C52.4417 103.94 53.0084 103.767 53.4884 103.42C53.9684 103.06 54.3417 102.513 54.6084 101.78C54.8884 101.047 55.0284 100.12 55.0284 99C55.0284 97.8667 54.8884 96.94 54.6084 96.22C54.3417 95.4867 53.9684 94.9467 53.4884 94.6C53.0084 94.24 52.4417 94.06 51.7884 94.06C51.1617 94.06 50.6017 94.24 50.1084 94.6C49.6284 94.9467 49.2484 95.4867 48.9684 96.22C48.7017 96.94 48.5684 97.8667 48.5684 99C48.5684 100.12 48.7017 101.047 48.9684 101.78C49.2484 102.513 49.6284 103.06 50.1084 103.42C50.6017 103.767 51.1617 103.94 51.7884 103.94ZM62.7254 102.7L62.5854 99.62L69.9254 92H72.8454L66.7454 98.48L65.3054 100.06L62.7254 102.7ZM60.4054 106V92H63.0054V106H60.4054ZM70.1654 106L64.8054 99.62L66.5254 97.72L73.2054 106H70.1654ZM84.643 106L78.523 92H81.343L86.803 104.66H85.183L90.703 92H93.303L87.203 106H84.643ZM98.5396 106.14C97.4463 106.14 96.4729 105.907 95.6196 105.44C94.7663 104.96 94.0929 104.307 93.5996 103.48C93.1063 102.653 92.8596 101.713 92.8596 100.66C92.8596 99.5933 93.1063 98.6533 93.5996 97.84C94.0929 97.0133 94.7663 96.3667 95.6196 95.9C96.4729 95.4333 97.4463 95.2 98.5396 95.2C99.6463 95.2 100.626 95.4333 101.48 95.9C102.346 96.3667 103.02 97.0067 103.5 97.82C103.993 98.6333 104.24 99.58 104.24 100.66C104.24 101.713 103.993 102.653 103.5 103.48C103.02 104.307 102.346 104.96 101.48 105.44C100.626 105.907 99.6463 106.14 98.5396 106.14ZM98.5396 104C99.1529 104 99.6996 103.867 100.18 103.6C100.66 103.333 101.033 102.947 101.3 102.44C101.58 101.933 101.72 101.34 101.72 100.66C101.72 99.9667 101.58 99.3733 101.3 98.88C101.033 98.3733 100.66 97.9867 100.18 97.72C99.6996 97.4533 99.1596 97.32 98.5596 97.32C97.9463 97.32 97.3996 97.4533 96.9196 97.72C96.4529 97.9867 96.0796 98.3733 95.7996 98.88C95.5196 99.3733 95.3796 99.9667 95.3796 100.66C95.3796 101.34 95.5196 101.933 95.7996 102.44C96.0796 102.947 96.4529 103.333 96.9196 103.6C97.3996 103.867 97.9396 104 98.5396 104ZM106.63 106V91.16H109.13V106H106.63Z" fill="#EEEEEE"/>
<defs>
<filter id="filter0_f_618_4808" x="0.343739" y="179.344" width="285.313" height="46.3125" filterUnits="userSpaceOnUse" color-interpolation-filters="sRGB">
<feFlood flood-opacity="0" result="BackgroundImageFix"/>
<feBlend mode="normal" in="SourceGraphic" in2="BackgroundImageFix" result="shape"/>
<feGaussianBlur stdDeviation="8.82813" result="effect1_foregroundBlur_618_4808"/>
</filter>
<linearGradient id="paint0_linear_618_4808" x1="175.08" y1="20.4184" x2="157.89" y2="53.0601" gradientUnits="userSpaceOnUse">
<stop stop-color="#00FFA3"/>
<stop offset="1" stop-color="#DC1FFF"/>
</linearGradient>
<linearGradient id="paint1_linear_618_4808" x1="167.665" y1="16.5136" x2="150.475" y2="49.1553" gradientUnits="userSpaceOnUse">
<stop stop-color="#00FFA3"/>
<stop offset="1" stop-color="#DC1FFF"/>
</linearGradient>
<linearGradient id="paint2_linear_618_4808" x1="171.348" y1="18.454" x2="154.159" y2="51.0958" gradientUnits="userSpaceOnUse">
<stop stop-color="#00FFA3"/>
<stop offset="1" stop-color="#DC1FFF"/>
</linearGradient>
<linearGradient id="paint3_linear_618_4808" x1="9" y1="132" x2="137.057" y2="233.105" gradientUnits="userSpaceOnUse">
<stop stop-color="#F7931A"/>
<stop offset="1" stop-color="#AC1CC7"/>
</linearGradient>
</defs>
</svg>
