<svg width="287" height="226" viewBox="0 0 287 226" fill="none" xmlns="http://www.w3.org/2000/svg">
<g filter="url(#filter0_f_618_4575)">
<ellipse cx="144" cy="202.5" rx="125" ry="5.5" fill="black" fill-opacity="0.3"/>
</g>
<path d="M264.252 85.0476C260.913 98.4406 247.346 106.591 233.95 103.252C220.56 99.9126 212.408 86.3468 215.749 72.9549C219.087 59.5605 232.653 51.4092 246.045 54.7481C259.44 58.087 267.591 71.6543 264.252 85.0479L264.252 85.0476H264.252Z" fill="#F7931A"/>
<path d="M249.393 75.8313C249.809 73.0293 247.691 71.5231 244.795 70.5183L245.735 66.7227L243.441 66.147L242.526 69.8426C241.923 69.6911 241.304 69.5484 240.688 69.4069L241.61 65.6868L239.317 65.1111L238.377 68.9055C237.878 68.791 237.388 68.6779 236.913 68.5587L236.915 68.5468L233.752 67.7511L233.142 70.2189C233.142 70.2189 234.844 70.6118 234.808 70.636C235.737 70.8695 235.905 71.4889 235.877 71.9798L234.806 76.3039C234.87 76.3203 234.953 76.344 235.045 76.381C234.968 76.3619 234.887 76.341 234.802 76.3206L233.302 82.378C233.189 82.6623 232.901 83.0889 232.251 82.9269C232.274 82.9605 230.584 82.5078 230.584 82.5078L229.445 85.1526L232.43 85.9022C232.986 86.0424 233.53 86.1892 234.066 86.3272L233.117 90.1664L235.408 90.7421L236.348 86.9437C236.974 87.1148 237.581 87.2727 238.176 87.4215L237.239 91.202L239.533 91.7777L240.482 87.9458C244.394 88.6914 247.335 88.3908 248.573 84.8272C249.57 81.958 248.523 80.3031 246.465 79.2239C247.964 78.8757 249.093 77.8828 249.394 75.8316L249.393 75.8311L249.393 75.8313ZM244.152 83.2338C243.443 86.103 238.647 84.552 237.092 84.1631L238.352 79.0768C239.907 79.4678 244.893 80.2416 244.152 83.2338H244.152ZM244.862 75.7897C244.215 78.3995 240.223 77.0737 238.928 76.7485L240.07 72.1356C241.365 72.4608 245.535 73.0676 244.862 75.7897H244.862Z" fill="white"/>
<circle cx="163" cy="35" r="35" fill="black"/>
<path d="M153.208 41.8612C153.396 41.6713 153.649 41.5645 153.914 41.5645H178.419C178.867 41.5645 179.09 42.1105 178.772 42.425L173.93 47.3033C173.742 47.4932 173.489 47.6 173.224 47.6H148.724C148.277 47.6 148.054 47.0541 148.371 46.7395L153.208 41.8612Z" fill="url(#paint0_linear_618_4575)"/>
<path d="M153.208 23.6301C153.396 23.4402 153.649 23.3333 153.914 23.3333H178.419C178.867 23.3333 179.09 23.8793 178.773 24.1939L173.93 29.0721C173.742 29.262 173.489 29.3689 173.224 29.3689H148.724C148.277 29.3689 148.054 28.8229 148.371 28.5083L153.208 23.6301Z" fill="url(#paint1_linear_618_4575)"/>
<path d="M173.93 32.6869C173.742 32.4969 173.489 32.3901 173.224 32.3901H148.724C148.277 32.3901 148.054 32.9361 148.371 33.2506L153.214 38.1289C153.402 38.3188 153.655 38.4257 153.92 38.4257H178.425C178.872 38.4257 179.096 37.8797 178.778 37.5651L173.93 32.6869Z" fill="url(#paint2_linear_618_4575)"/>
<path d="M8.74197 143.625V127.875H12.487V143.625H8.74197ZM2.54697 137.5V134H18.682V137.5H2.54697ZM40.2494 148.35C38.5227 148.35 36.831 148.105 35.1744 147.615C33.541 147.102 32.1644 146.402 31.0444 145.515L32.9694 141.98C33.856 142.703 34.9294 143.287 36.1894 143.73C37.4727 144.173 38.8027 144.395 40.1794 144.395C41.7894 144.395 43.0494 144.057 43.9594 143.38C44.8927 142.703 45.3594 141.793 45.3594 140.65C45.3594 139.88 45.161 139.203 44.7644 138.62C44.391 138.037 43.7144 137.593 42.7344 137.29C41.7777 136.987 40.4594 136.835 38.7794 136.835H32.8644L34.1244 123.5H48.5094V127.315H35.8044L38.1844 125.145L37.2394 135.12L34.8594 132.985H39.7944C42.221 132.985 44.1694 133.312 45.6394 133.965C47.1327 134.595 48.2177 135.482 48.8944 136.625C49.5944 137.745 49.9444 139.028 49.9444 140.475C49.9444 141.898 49.5944 143.205 48.8944 144.395C48.1944 145.585 47.121 146.542 45.6744 147.265C44.251 147.988 42.4427 148.35 40.2494 148.35ZM62.7888 148.35C60.8521 148.35 59.1021 147.86 57.5388 146.88C55.9988 145.9 54.7855 144.477 53.8988 142.61C53.0121 140.72 52.5688 138.433 52.5688 135.75C52.5688 133.067 53.0121 130.792 53.8988 128.925C54.7855 127.035 55.9988 125.6 57.5388 124.62C59.1021 123.64 60.8521 123.15 62.7888 123.15C64.7488 123.15 66.4988 123.64 68.0388 124.62C69.5788 125.6 70.7921 127.035 71.6788 128.925C72.5888 130.792 73.0438 133.067 73.0438 135.75C73.0438 138.433 72.5888 140.72 71.6788 142.61C70.7921 144.477 69.5788 145.9 68.0388 146.88C66.4988 147.86 64.7488 148.35 62.7888 148.35ZM62.7888 144.395C63.9321 144.395 64.9238 144.092 65.7638 143.485C66.6038 142.855 67.2571 141.898 67.7238 140.615C68.2138 139.332 68.4588 137.71 68.4588 135.75C68.4588 133.767 68.2138 132.145 67.7238 130.885C67.2571 129.602 66.6038 128.657 65.7638 128.05C64.9238 127.42 63.9321 127.105 62.7888 127.105C61.6921 127.105 60.7121 127.42 59.8488 128.05C59.0088 128.657 58.3438 129.602 57.8538 130.885C57.3871 132.145 57.1538 133.767 57.1538 135.75C57.1538 137.71 57.3871 139.332 57.8538 140.615C58.3438 141.898 59.0088 142.855 59.8488 143.485C60.7121 144.092 61.6921 144.395 62.7888 144.395ZM97.4815 148.245C95.9648 148.245 94.5765 147.895 93.3165 147.195C92.0798 146.495 91.0881 145.445 90.3415 144.045C89.6181 142.622 89.2565 140.825 89.2565 138.655C89.2565 136.462 89.6065 134.665 90.3065 133.265C91.0298 131.865 92.0098 130.827 93.2465 130.15C94.4831 129.45 95.8948 129.1 97.4815 129.1C99.3248 129.1 100.946 129.497 102.346 130.29C103.77 131.083 104.89 132.192 105.706 133.615C106.546 135.038 106.966 136.718 106.966 138.655C106.966 140.592 106.546 142.283 105.706 143.73C104.89 145.153 103.77 146.262 102.346 147.055C100.946 147.848 99.3248 148.245 97.4815 148.245ZM87.1215 154.79V129.31H91.2865V133.72L91.1465 138.69L91.4965 143.66V154.79H87.1215ZM96.9915 144.5C98.0415 144.5 98.9748 144.267 99.7915 143.8C100.631 143.333 101.296 142.657 101.786 141.77C102.276 140.883 102.521 139.845 102.521 138.655C102.521 137.442 102.276 136.403 101.786 135.54C101.296 134.653 100.631 133.977 99.7915 133.51C98.9748 133.043 98.0415 132.81 96.9915 132.81C95.9415 132.81 94.9965 133.043 94.1565 133.51C93.3165 133.977 92.6515 134.653 92.1615 135.54C91.6715 136.403 91.4265 137.442 91.4265 138.655C91.4265 139.845 91.6715 140.883 92.1615 141.77C92.6515 142.657 93.3165 143.333 94.1565 143.8C94.9965 144.267 95.9415 144.5 96.9915 144.5ZM119.516 148.245C117.602 148.245 115.899 147.837 114.406 147.02C112.912 146.18 111.734 145.037 110.871 143.59C110.007 142.143 109.576 140.498 109.576 138.655C109.576 136.788 110.007 135.143 110.871 133.72C111.734 132.273 112.912 131.142 114.406 130.325C115.899 129.508 117.602 129.1 119.516 129.1C121.452 129.1 123.167 129.508 124.661 130.325C126.177 131.142 127.356 132.262 128.196 133.685C129.059 135.108 129.491 136.765 129.491 138.655C129.491 140.498 129.059 142.143 128.196 143.59C127.356 145.037 126.177 146.18 124.661 147.02C123.167 147.837 121.452 148.245 119.516 148.245ZM119.516 144.5C120.589 144.5 121.546 144.267 122.386 143.8C123.226 143.333 123.879 142.657 124.346 141.77C124.836 140.883 125.081 139.845 125.081 138.655C125.081 137.442 124.836 136.403 124.346 135.54C123.879 134.653 123.226 133.977 122.386 133.51C121.546 133.043 120.601 132.81 119.551 132.81C118.477 132.81 117.521 133.043 116.681 133.51C115.864 133.977 115.211 134.653 114.721 135.54C114.231 136.403 113.986 137.442 113.986 138.655C113.986 139.845 114.231 140.883 114.721 141.77C115.211 142.657 115.864 143.333 116.681 143.8C117.521 144.267 118.466 144.5 119.516 144.5ZM133.674 148V129.31H138.049V148H133.674ZM135.879 126.23C135.063 126.23 134.386 125.973 133.849 125.46C133.336 124.947 133.079 124.328 133.079 123.605C133.079 122.858 133.336 122.24 133.849 121.75C134.386 121.237 135.063 120.98 135.879 120.98C136.696 120.98 137.361 121.225 137.874 121.715C138.411 122.182 138.679 122.777 138.679 123.5C138.679 124.27 138.423 124.923 137.909 125.46C137.396 125.973 136.719 126.23 135.879 126.23ZM154.396 129.1C155.89 129.1 157.22 129.392 158.386 129.975C159.576 130.558 160.51 131.457 161.186 132.67C161.863 133.86 162.201 135.4 162.201 137.29V148H157.826V137.85C157.826 136.193 157.43 134.957 156.636 134.14C155.866 133.323 154.781 132.915 153.381 132.915C152.355 132.915 151.445 133.125 150.651 133.545C149.858 133.965 149.24 134.595 148.796 135.435C148.376 136.252 148.166 137.29 148.166 138.55V148H143.791V129.31H147.956V134.35L147.221 132.81C147.875 131.62 148.82 130.71 150.056 130.08C151.316 129.427 152.763 129.1 154.396 129.1ZM174.786 148.245C172.733 148.245 171.146 147.72 170.026 146.67C168.906 145.597 168.346 144.022 168.346 141.945V125.18H172.721V141.84C172.721 142.727 172.943 143.415 173.386 143.905C173.853 144.395 174.495 144.64 175.311 144.64C176.291 144.64 177.108 144.383 177.761 143.87L178.986 146.985C178.473 147.405 177.843 147.72 177.096 147.93C176.35 148.14 175.58 148.245 174.786 148.245ZM165.266 132.95V129.45H177.726V132.95H165.266ZM188.36 148.245C186.797 148.245 185.292 148.047 183.845 147.65C182.422 147.23 181.29 146.728 180.45 146.145L182.13 142.82C182.97 143.357 183.974 143.8 185.14 144.15C186.307 144.5 187.474 144.675 188.64 144.675C190.017 144.675 191.009 144.488 191.615 144.115C192.245 143.742 192.56 143.24 192.56 142.61C192.56 142.097 192.35 141.712 191.93 141.455C191.51 141.175 190.962 140.965 190.285 140.825C189.609 140.685 188.85 140.557 188.01 140.44C187.194 140.323 186.365 140.172 185.525 139.985C184.709 139.775 183.962 139.483 183.285 139.11C182.609 138.713 182.06 138.188 181.64 137.535C181.22 136.882 181.01 136.018 181.01 134.945C181.01 133.755 181.349 132.728 182.025 131.865C182.702 130.978 183.647 130.302 184.86 129.835C186.097 129.345 187.555 129.1 189.235 129.1C190.495 129.1 191.767 129.24 193.05 129.52C194.334 129.8 195.395 130.197 196.235 130.71L194.555 134.035C193.669 133.498 192.77 133.137 191.86 132.95C190.974 132.74 190.087 132.635 189.2 132.635C187.87 132.635 186.879 132.833 186.225 133.23C185.595 133.627 185.28 134.128 185.28 134.735C185.28 135.295 185.49 135.715 185.91 135.995C186.33 136.275 186.879 136.497 187.555 136.66C188.232 136.823 188.979 136.963 189.795 137.08C190.635 137.173 191.464 137.325 192.28 137.535C193.097 137.745 193.844 138.037 194.52 138.41C195.22 138.76 195.78 139.262 196.2 139.915C196.62 140.568 196.83 141.42 196.83 142.47C196.83 143.637 196.48 144.652 195.78 145.515C195.104 146.378 194.135 147.055 192.875 147.545C191.615 148.012 190.11 148.245 188.36 148.245Z" fill="url(#paint3_linear_618_4575)"/>
<path d="M3.39734 106V93L4.53734 94.18H0.437344V92H5.99734V106H3.39734ZM10.3345 106.14C9.8812 106.14 9.49453 105.987 9.17453 105.68C8.85453 105.36 8.69453 104.96 8.69453 104.48C8.69453 103.973 8.85453 103.573 9.17453 103.28C9.49453 102.973 9.8812 102.82 10.3345 102.82C10.7879 102.82 11.1745 102.973 11.4945 103.28C11.8145 103.573 11.9745 103.973 11.9745 104.48C11.9745 104.96 11.8145 105.36 11.4945 105.68C11.1745 105.987 10.7879 106.14 10.3345 106.14ZM13.6727 106V104.26L19.2327 98.98C19.6993 98.54 20.046 98.1533 20.2727 97.82C20.4993 97.4867 20.646 97.18 20.7127 96.9C20.7927 96.6067 20.8327 96.3333 20.8327 96.08C20.8327 95.44 20.6127 94.9467 20.1727 94.6C19.7327 94.24 19.086 94.06 18.2327 94.06C17.5527 94.06 16.9327 94.18 16.3727 94.42C15.826 94.66 15.3527 95.0267 14.9527 95.52L13.1327 94.12C13.6793 93.3867 14.4127 92.82 15.3327 92.42C16.266 92.0067 17.306 91.8 18.4527 91.8C19.466 91.8 20.346 91.9667 21.0927 92.3C21.8527 92.62 22.4327 93.08 22.8327 93.68C23.246 94.28 23.4527 94.9933 23.4527 95.82C23.4527 96.2733 23.3927 96.7267 23.2727 97.18C23.1527 97.62 22.926 98.0867 22.5927 98.58C22.2593 99.0733 21.7727 99.6267 21.1327 100.24L16.3527 104.78L15.8127 103.8H23.9927V106H13.6727ZM26.4933 106V92H33.0533C34.7333 92 36.0133 92.3333 36.8933 93C37.7733 93.6533 38.2133 94.5333 38.2133 95.64C38.2133 96.3867 38.0399 97.0267 37.6933 97.56C37.3466 98.08 36.8799 98.4867 36.2933 98.78C35.7199 99.06 35.0933 99.2 34.4133 99.2L34.7733 98.48C35.5599 98.48 36.2666 98.6267 36.8933 98.92C37.5199 99.2 38.0133 99.6133 38.3733 100.16C38.7466 100.707 38.9333 101.387 38.9333 102.2C38.9333 103.4 38.4733 104.333 37.5533 105C36.6333 105.667 35.2666 106 33.4533 106H26.4933ZM29.0933 103.96H33.2933C34.2666 103.96 35.0133 103.8 35.5333 103.48C36.0533 103.16 36.3133 102.647 36.3133 101.94C36.3133 101.247 36.0533 100.74 35.5333 100.42C35.0133 100.087 34.2666 99.92 33.2933 99.92H28.8933V97.9H32.7733C33.6799 97.9 34.3733 97.74 34.8533 97.42C35.3466 97.1 35.5933 96.62 35.5933 95.98C35.5933 95.3267 35.3466 94.84 34.8533 94.52C34.3733 94.2 33.6799 94.04 32.7733 94.04H29.0933V103.96ZM44.3528 106V94.2H39.7128V92H51.5928V94.2H46.9528V106H44.3528ZM59.8288 106.2C58.7621 106.2 57.7688 106.027 56.8488 105.68C55.9421 105.32 55.1488 104.82 54.4688 104.18C53.8021 103.527 53.2821 102.76 52.9088 101.88C52.5354 101 52.3488 100.04 52.3488 99C52.3488 97.96 52.5354 97 52.9088 96.12C53.2821 95.24 53.8088 94.48 54.4888 93.84C55.1688 93.1867 55.9621 92.6867 56.8688 92.34C57.7754 91.98 58.7688 91.8 59.8488 91.8C60.9954 91.8 62.0421 92 62.9888 92.4C63.9354 92.7867 64.7354 93.3667 65.3888 94.14L63.7088 95.72C63.2021 95.1733 62.6354 94.7667 62.0088 94.5C61.3821 94.22 60.7021 94.08 59.9688 94.08C59.2354 94.08 58.5621 94.2 57.9488 94.44C57.3488 94.68 56.8221 95.02 56.3688 95.46C55.9288 95.9 55.5821 96.42 55.3288 97.02C55.0888 97.62 54.9688 98.28 54.9688 99C54.9688 99.72 55.0888 100.38 55.3288 100.98C55.5821 101.58 55.9288 102.1 56.3688 102.54C56.8221 102.98 57.3488 103.32 57.9488 103.56C58.5621 103.8 59.2354 103.92 59.9688 103.92C60.7021 103.92 61.3821 103.787 62.0088 103.52C62.6354 103.24 63.2021 102.82 63.7088 102.26L65.3888 103.86C64.7354 104.62 63.9354 105.2 62.9888 105.6C62.0421 106 60.9888 106.2 59.8288 106.2ZM73.4073 106V92H76.0073V103.8H83.3273V106H73.4073ZM91.6861 106.2C90.5928 106.2 89.5861 106.02 88.6661 105.66C87.7461 105.3 86.9461 104.8 86.2661 104.16C85.5861 103.507 85.0594 102.747 84.6861 101.88C84.3128 101 84.1261 100.04 84.1261 99C84.1261 97.96 84.3128 97.0067 84.6861 96.14C85.0594 95.26 85.5861 94.5 86.2661 93.86C86.9461 93.2067 87.7461 92.7 88.6661 92.34C89.5861 91.98 90.5861 91.8 91.6661 91.8C92.7594 91.8 93.7594 91.98 94.6661 92.34C95.5861 92.7 96.3861 93.2067 97.0661 93.86C97.7461 94.5 98.2728 95.26 98.6461 96.14C99.0194 97.0067 99.2061 97.96 99.2061 99C99.2061 100.04 99.0194 101 98.6461 101.88C98.2728 102.76 97.7461 103.52 97.0661 104.16C96.3861 104.8 95.5861 105.3 94.6661 105.66C93.7594 106.02 92.7661 106.2 91.6861 106.2ZM91.6661 103.92C92.3728 103.92 93.0261 103.8 93.6261 103.56C94.2261 103.32 94.7461 102.98 95.1861 102.54C95.6261 102.087 95.9661 101.567 96.2061 100.98C96.4594 100.38 96.5861 99.72 96.5861 99C96.5861 98.28 96.4594 97.6267 96.2061 97.04C95.9661 96.44 95.6261 95.92 95.1861 95.48C94.7461 95.0267 94.2261 94.68 93.6261 94.44C93.0261 94.2 92.3728 94.08 91.6661 94.08C90.9594 94.08 90.3061 94.2 89.7061 94.44C89.1194 94.68 88.5994 95.0267 88.1461 95.48C87.7061 95.92 87.3594 96.44 87.1061 97.04C86.8661 97.6267 86.7461 98.28 86.7461 99C86.7461 99.7067 86.8661 100.36 87.1061 100.96C87.3594 101.56 87.7061 102.087 88.1461 102.54C88.5861 102.98 89.1061 103.32 89.7061 103.56C90.3061 103.8 90.9594 103.92 91.6661 103.92ZM101.962 106V92H104.102L112.882 102.78H111.822V92H114.402V106H112.262L103.482 95.22H104.542V106H101.962ZM124.693 106.2C123.6 106.2 122.593 106.027 121.673 105.68C120.767 105.32 119.973 104.82 119.293 104.18C118.613 103.527 118.087 102.76 117.713 101.88C117.34 101 117.153 100.04 117.153 99C117.153 97.96 117.34 97 117.713 96.12C118.087 95.24 118.613 94.48 119.293 93.84C119.987 93.1867 120.793 92.6867 121.713 92.34C122.633 91.98 123.64 91.8 124.733 91.8C125.92 91.8 126.987 91.9933 127.933 92.38C128.893 92.7667 129.7 93.3333 130.353 94.08L128.713 95.68C128.167 95.1333 127.573 94.7333 126.933 94.48C126.307 94.2133 125.613 94.08 124.853 94.08C124.12 94.08 123.44 94.2 122.813 94.44C122.187 94.68 121.647 95.02 121.193 95.46C120.74 95.9 120.387 96.42 120.133 97.02C119.893 97.62 119.773 98.28 119.773 99C119.773 99.7067 119.893 100.36 120.133 100.96C120.387 101.56 120.74 102.087 121.193 102.54C121.647 102.98 122.18 103.32 122.793 103.56C123.407 103.8 124.087 103.92 124.833 103.92C125.527 103.92 126.193 103.813 126.833 103.6C127.487 103.373 128.107 103 128.693 102.48L130.173 104.42C129.44 105.007 128.587 105.453 127.613 105.76C126.653 106.053 125.68 106.2 124.693 106.2ZM127.713 104.08V98.84H130.173V104.42L127.713 104.08Z" fill="#80CE00"/>
<defs>
<filter id="filter0_f_618_4575" x="1.34374" y="179.344" width="285.313" height="46.3125" filterUnits="userSpaceOnUse" color-interpolation-filters="sRGB">
<feFlood flood-opacity="0" result="BackgroundImageFix"/>
<feBlend mode="normal" in="SourceGraphic" in2="BackgroundImageFix" result="shape"/>
<feGaussianBlur stdDeviation="8.82813" result="effect1_foregroundBlur_618_4575"/>
</filter>
<linearGradient id="paint0_linear_618_4575" x1="176.08" y1="20.4184" x2="158.89" y2="53.0601" gradientUnits="userSpaceOnUse">
<stop stop-color="#00FFA3"/>
<stop offset="1" stop-color="#DC1FFF"/>
</linearGradient>
<linearGradient id="paint1_linear_618_4575" x1="168.665" y1="16.5136" x2="151.475" y2="49.1553" gradientUnits="userSpaceOnUse">
<stop stop-color="#00FFA3"/>
<stop offset="1" stop-color="#DC1FFF"/>
</linearGradient>
<linearGradient id="paint2_linear_618_4575" x1="172.348" y1="18.4541" x2="155.159" y2="51.0958" gradientUnits="userSpaceOnUse">
<stop stop-color="#00FFA3"/>
<stop offset="1" stop-color="#DC1FFF"/>
</linearGradient>
<linearGradient id="paint3_linear_618_4575" x1="-4.42565e-07" y1="132" x2="127.906" y2="232.478" gradientUnits="userSpaceOnUse">
<stop stop-color="#F7931A"/>
<stop offset="1" stop-color="#AC1CC7"/>
</linearGradient>
</defs>
</svg>
