<svg width="312" height="65" viewBox="0 0 312 65" fill="none" xmlns="http://www.w3.org/2000/svg">
<path d="M50.2703 0.363514H304.73C308.544 0.363514 311.637 3.45577 311.637 7.27027V57.7297C311.637 61.5442 308.544 64.6365 304.73 64.6365H50.2703C46.4558 64.6365 43.3635 61.5442 43.3635 57.7297V7.27027C43.3635 3.45577 46.4558 0.363514 50.2703 0.363514Z" fill="#131313" stroke="#B5B5B5" stroke-width="0.727027"/>
<path d="M124.155 40.3809V40.3806V24.6198V24.6195C124.154 23.8842 123.961 23.1619 123.594 22.5251C123.228 21.8883 122.701 21.3593 122.067 20.9914L122.066 20.9908L108.34 13.111C108.34 13.1109 108.339 13.1108 108.339 13.1106C107.704 12.7426 106.984 12.5488 106.251 12.5488C105.518 12.5488 104.798 12.7426 104.163 13.1107C104.163 13.1108 104.163 13.1109 104.163 13.111L90.4367 20.9908L90.4357 20.9914C89.8014 21.3593 89.2747 21.8883 88.9083 22.5251C88.5419 23.1619 88.3487 23.8842 88.3479 24.6195V24.6198L88.3479 40.3806L88.3479 40.3809C88.3487 41.1162 88.5419 41.8385 88.9083 42.4753C89.2747 43.1121 89.8014 43.6411 90.4357 44.009L90.4367 44.0096L104.163 51.8894C104.163 51.8895 104.163 51.8896 104.163 51.8897C104.798 52.2578 105.518 52.4516 106.251 52.4516C106.984 52.4516 107.704 52.2578 108.339 51.8898C108.339 51.8897 108.34 51.8895 108.34 51.8894L122.066 44.0096L122.067 44.009C122.701 43.6411 123.228 43.1121 123.594 42.4753C123.961 41.8385 124.154 41.1162 124.155 40.3809Z" fill="url(#paint0_linear_618_4667)" stroke="white" stroke-width="0.508919" stroke-linecap="round" stroke-linejoin="round"/>
<path fill-rule="evenodd" clip-rule="evenodd" d="M104.026 12.8763C104.703 12.4843 105.47 12.2778 106.251 12.2778C107.033 12.2778 107.8 12.4843 108.476 12.8763C108.477 12.8765 108.477 12.8767 108.477 12.8769L122.204 20.7573C122.88 21.1493 123.441 21.7126 123.831 22.3904C124.221 23.0682 124.426 23.8368 124.427 24.6191V40.3809C124.426 41.1632 124.221 41.9318 123.831 42.6096C123.441 43.2874 122.88 43.8507 122.204 44.2427L122.202 44.2439L108.477 52.1231C108.477 52.1232 108.477 52.1234 108.477 52.1235C107.8 52.5156 107.033 52.7222 106.251 52.7222C105.47 52.7222 104.702 52.5156 104.026 52.1235C104.026 52.1233 104.026 52.1232 104.025 52.1231L90.3006 44.2439L90.2986 44.2427C89.6228 43.8507 89.0619 43.2874 88.672 42.6096C88.282 41.9318 88.0765 41.1632 88.0757 40.3809V24.6191C88.0765 23.8368 88.282 23.0682 88.672 22.3904C89.0619 21.7126 89.6228 21.1493 90.2986 20.7573L90.3006 20.7561L104.025 12.8769C104.026 12.8767 104.026 12.8765 104.026 12.8763ZM106.251 13.3283C105.656 13.3283 105.071 13.4857 104.555 13.7849L104.553 13.7861L90.8284 21.6653C90.8281 21.6655 90.8277 21.6657 90.8274 21.6659C90.3124 21.9649 89.8841 22.3948 89.5859 22.9131C89.2876 23.4317 89.13 24.0203 89.1293 24.6199V40.3801C89.13 40.9797 89.2876 41.5683 89.5859 42.0869C89.8841 42.6052 90.3124 43.0351 90.8274 43.3341C90.8277 43.3343 90.8281 43.3345 90.8284 43.3347L104.555 51.2151C105.071 51.5143 105.656 51.6717 106.251 51.6717C106.847 51.6717 107.431 51.5143 107.947 51.2151L107.949 51.2139L121.674 43.3347C121.675 43.3345 121.675 43.3343 121.675 43.3341C122.19 43.0351 122.619 42.6052 122.917 42.0869C123.215 41.5682 123.373 40.9795 123.373 40.3799V24.6201C123.373 24.0205 123.215 23.4318 122.917 22.9131C122.619 22.3948 122.19 21.9649 121.675 21.6659C121.675 21.6657 121.675 21.6655 121.674 21.6653L107.949 13.7861L107.947 13.7849C107.431 13.4857 106.847 13.3283 106.251 13.3283Z" fill="white"/>
<path d="M114.038 32.7623C114.038 37.1136 110.552 40.6411 106.251 40.6411C101.951 40.6411 98.4651 37.1136 98.4651 32.7623C98.4651 28.411 101.951 24.8835 106.251 24.8835C110.552 24.8835 114.038 28.411 114.038 32.7623Z" fill="url(#paint1_linear_618_4667)"/>
<path d="M113.438 32.7623C113.438 36.7916 110.212 40.0431 106.251 40.0431C102.29 40.0431 99.0647 36.7916 99.0647 32.7623C99.0647 28.7331 102.29 25.4815 106.251 25.4815C110.212 25.4815 113.438 28.7331 113.438 32.7623ZM106.251 40.7138C110.593 40.7138 114.11 37.153 114.11 32.7623C114.11 28.3716 110.593 24.8108 106.251 24.8108C101.91 24.8108 98.3924 28.3716 98.3924 32.7623C98.3924 37.153 101.91 40.7138 106.251 40.7138Z" fill="white" stroke="white" stroke-width="0.145405"/>
<path d="M101.246 36.7283C101.246 35.2467 102.029 33.8746 103.306 33.117L122.056 21.9953C122.873 22.4841 123.373 23.3645 123.373 24.3146V41.2586C123.373 42.0138 122.967 42.7109 122.308 43.0845L107.266 51.6214C106.635 51.9797 105.863 51.9885 105.223 51.6447L102.353 50.1017C101.671 49.7351 101.246 49.0249 101.246 48.2525V36.7283Z" fill="url(#paint2_linear_618_4667)"/>
<path d="M138.997 25.9979C138.393 25.9979 137.848 25.8453 137.361 25.5399C136.881 25.2346 136.503 24.7911 136.227 24.2095C135.95 23.6206 135.812 22.9081 135.812 22.072C135.812 21.2359 135.95 20.5271 136.227 19.9454C136.503 19.3566 136.881 18.9094 137.361 18.6041C137.848 18.2987 138.393 18.1461 138.997 18.1461C139.607 18.1461 140.153 18.2987 140.632 18.6041C141.112 18.9094 141.49 19.3566 141.767 19.9454C142.05 20.5271 142.192 21.2359 142.192 22.072C142.192 22.9081 142.05 23.6206 141.767 24.2095C141.49 24.7911 141.112 25.2346 140.632 25.5399C140.153 25.8453 139.607 25.9979 138.997 25.9979ZM138.997 24.7656C139.353 24.7656 139.662 24.6711 139.924 24.4821C140.185 24.2858 140.389 23.9877 140.534 23.5879C140.687 23.188 140.763 22.6827 140.763 22.072C140.763 21.454 140.687 20.9487 140.534 20.5561C140.389 20.1563 140.185 19.8618 139.924 19.6728C139.662 19.4765 139.353 19.3784 138.997 19.3784C138.655 19.3784 138.35 19.4765 138.081 19.6728C137.819 19.8618 137.612 20.1563 137.459 20.5561C137.314 20.9487 137.241 21.454 137.241 22.072C137.241 22.6827 137.314 23.188 137.459 23.5879C137.612 23.9877 137.819 24.2858 138.081 24.4821C138.35 24.6711 138.655 24.7656 138.997 24.7656ZM142.662 25.8889L145.225 22.5518L145.203 23.2825L142.76 20.0654H144.276L145.988 22.3555H145.41L147.133 20.0654H148.605L146.141 23.2825L146.152 22.5518L148.703 25.8889H147.166L145.366 23.457L145.933 23.5333L144.167 25.8889H142.662ZM150.518 25.8889L153.669 18.8222L154.04 19.4547H149.711L150.387 18.7677V20.7524H149.067V18.2551H155V19.2039L152.033 25.8889H150.518ZM158.749 25.9979C158.117 25.9979 157.568 25.9034 157.103 25.7144C156.637 25.5254 156.277 25.26 156.023 24.9183C155.768 24.5693 155.641 24.1622 155.641 23.6969C155.641 23.2316 155.765 22.839 156.012 22.5191C156.259 22.1992 156.615 21.9557 157.081 21.7885C157.546 21.6212 158.102 21.5376 158.749 21.5376C159.396 21.5376 159.952 21.6212 160.418 21.7885C160.89 21.9557 161.25 22.2029 161.497 22.53C161.752 22.8499 161.879 23.2389 161.879 23.6969C161.879 24.1622 161.748 24.5693 161.486 24.9183C161.232 25.26 160.869 25.5254 160.396 25.7144C159.931 25.9034 159.382 25.9979 158.749 25.9979ZM158.749 24.8856C159.273 24.8856 159.687 24.7765 159.992 24.5584C160.298 24.3403 160.45 24.0386 160.45 23.6533C160.45 23.2752 160.298 22.9771 159.992 22.759C159.687 22.5409 159.273 22.4319 158.749 22.4319C158.226 22.4319 157.815 22.5409 157.517 22.759C157.219 22.9771 157.07 23.2752 157.07 23.6533C157.07 24.0386 157.219 24.3403 157.517 24.5584C157.815 24.7765 158.226 24.8856 158.749 24.8856ZM158.749 22.2792C158.16 22.2792 157.655 22.2029 157.233 22.0502C156.812 21.8902 156.485 21.6612 156.252 21.3631C156.027 21.0578 155.914 20.6943 155.914 20.2726C155.914 19.8364 156.03 19.462 156.263 19.1494C156.503 18.8295 156.837 18.5823 157.266 18.4078C157.695 18.2333 158.189 18.1461 158.749 18.1461C159.316 18.1461 159.814 18.2333 160.243 18.4078C160.672 18.5823 161.007 18.8295 161.247 19.1494C161.486 19.462 161.606 19.8364 161.606 20.2726C161.606 20.6943 161.49 21.0578 161.257 21.3631C161.032 21.6612 160.705 21.8902 160.276 22.0502C159.847 22.2029 159.338 22.2792 158.749 22.2792ZM158.749 21.4068C159.2 21.4068 159.556 21.3123 159.818 21.1232C160.08 20.9269 160.211 20.6652 160.211 20.338C160.211 19.9963 160.076 19.731 159.807 19.5419C159.538 19.3529 159.185 19.2584 158.749 19.2584C158.313 19.2584 157.964 19.3529 157.702 19.5419C157.441 19.731 157.31 19.9963 157.31 20.338C157.31 20.6652 157.437 20.9269 157.691 21.1232C157.953 21.3123 158.306 21.4068 158.749 21.4068ZM164.02 25.8889V18.8004L164.642 19.4438H162.406V18.2551H165.438V25.8889H164.02ZM168.174 25.8889V18.8004L168.795 19.4438H166.56V18.2551H169.591V25.8889H168.174ZM171.956 25.9652C171.709 25.9652 171.498 25.8816 171.324 25.7144C171.149 25.5399 171.062 25.3218 171.062 25.0601C171.062 24.7838 171.149 24.5657 171.324 24.4058C171.498 24.2385 171.709 24.1549 171.956 24.1549C172.204 24.1549 172.414 24.2385 172.589 24.4058C172.763 24.5657 172.851 24.7838 172.851 25.0601C172.851 25.3218 172.763 25.5399 172.589 25.7144C172.414 25.8816 172.204 25.9652 171.956 25.9652ZM174.619 25.9652C174.372 25.9652 174.161 25.8816 173.986 25.7144C173.812 25.5399 173.725 25.3218 173.725 25.0601C173.725 24.7838 173.812 24.5657 173.986 24.4058C174.161 24.2385 174.372 24.1549 174.619 24.1549C174.866 24.1549 175.077 24.2385 175.251 24.4058C175.426 24.5657 175.513 24.7838 175.513 25.0601C175.513 25.3218 175.426 25.5399 175.251 25.7144C175.077 25.8816 174.866 25.9652 174.619 25.9652ZM177.281 25.9652C177.034 25.9652 176.823 25.8816 176.649 25.7144C176.474 25.5399 176.387 25.3218 176.387 25.0601C176.387 24.7838 176.474 24.5657 176.649 24.4058C176.823 24.2385 177.034 24.1549 177.281 24.1549C177.528 24.1549 177.739 24.2385 177.914 24.4058C178.088 24.5657 178.176 24.7838 178.176 25.0601C178.176 25.3218 178.088 25.5399 177.914 25.7144C177.739 25.8816 177.528 25.9652 177.281 25.9652ZM181.599 25.9979C181.061 25.9979 180.534 25.9216 180.018 25.7689C179.509 25.609 179.08 25.3909 178.731 25.1146L179.341 24.0132C179.618 24.2385 179.952 24.4203 180.345 24.5584C180.737 24.6966 181.148 24.7656 181.577 24.7656C182.086 24.7656 182.482 24.6639 182.766 24.4603C183.049 24.2494 183.191 23.9659 183.191 23.6097C183.191 23.2607 183.06 22.9844 182.798 22.7809C182.537 22.5773 182.115 22.4755 181.533 22.4755H180.835V21.5049L183.016 18.9094L183.202 19.4438H179.101V18.2551H184.303V19.2039L182.122 21.7994L181.381 21.3631H181.806C182.744 21.3631 183.445 21.574 183.911 21.9957C184.383 22.4101 184.62 22.9444 184.62 23.5988C184.62 24.0277 184.511 24.4239 184.292 24.7874C184.074 25.151 183.74 25.4454 183.289 25.6708C182.846 25.8889 182.282 25.9979 181.599 25.9979ZM185.438 24.1549V23.1734L189.2 18.2551H190.716L187.008 23.1734L186.299 22.9553H192.352V24.1549H185.438ZM189.626 25.8889V24.1549L189.669 22.9553V21.4177H191V25.8889H189.626ZM195.252 25.9979C194.714 25.9979 194.187 25.9216 193.671 25.7689C193.162 25.609 192.733 25.3909 192.384 25.1146L192.994 24.0132C193.271 24.2385 193.605 24.4203 193.998 24.5584C194.39 24.6966 194.801 24.7656 195.23 24.7656C195.739 24.7656 196.135 24.6639 196.419 24.4603C196.702 24.2494 196.844 23.9659 196.844 23.6097C196.844 23.2607 196.713 22.9844 196.451 22.7809C196.19 22.5773 195.768 22.4755 195.186 22.4755H194.488V21.5049L196.67 18.9094L196.855 19.4438H192.755V18.2551H197.956V19.2039L195.775 21.7994L195.034 21.3631H195.459C196.397 21.3631 197.098 21.574 197.564 21.9957C198.036 22.4101 198.273 22.9444 198.273 23.5988C198.273 24.0277 198.164 24.4239 197.945 24.7874C197.727 25.151 197.393 25.4454 196.942 25.6708C196.499 25.8889 195.935 25.9979 195.252 25.9979ZM199.091 24.1549V23.1734L202.853 18.2551H204.369L200.661 23.1734L199.952 22.9553H206.005V24.1549H199.091ZM203.279 25.8889V24.1549L203.322 22.9553V21.4177H204.653V25.8889H203.279Z" fill="#B5B5B5"/>
<path d="M137.601 43.8889V34.4375L138.43 35.2954H135.449V33.7105H139.491V43.8889H137.601ZM141.365 41.5769V40.2683L146.381 33.7105H148.402L143.459 40.2683L142.513 39.9775H150.583V41.5769H141.365ZM146.948 43.8889V41.5769L147.006 39.9775V37.9273H148.78V43.8889H146.948ZM152.106 43.8889V33.7105H156.555C157.66 33.7105 158.63 33.9238 159.463 34.3503C160.297 34.7768 160.947 35.3681 161.412 36.1242C161.877 36.8804 162.11 37.7722 162.11 38.7997C162.11 39.8175 161.877 40.7094 161.412 41.4752C160.947 42.2313 160.297 42.8226 159.463 43.2491C158.63 43.6756 157.66 43.8889 156.555 43.8889H152.106ZM153.996 42.2894H156.468C157.234 42.2894 157.893 42.144 158.446 41.8532C159.008 41.5624 159.439 41.1553 159.74 40.6318C160.05 40.1084 160.205 39.4976 160.205 38.7997C160.205 38.0921 160.05 37.4814 159.74 36.9676C159.439 36.4441 159.008 36.037 158.446 35.7462C157.893 35.4554 157.234 35.31 156.468 35.31H153.996V42.2894ZM164.526 38.4507C164.197 38.4507 163.915 38.3393 163.683 38.1163C163.45 37.8836 163.334 37.5928 163.334 37.2439C163.334 36.8755 163.45 36.5847 163.683 36.3714C163.915 36.1485 164.197 36.037 164.526 36.037C164.856 36.037 165.137 36.1485 165.369 36.3714C165.602 36.5847 165.718 36.8755 165.718 37.2439C165.718 37.5928 165.602 37.8836 165.369 38.1163C165.137 38.3393 164.856 38.4507 164.526 38.4507ZM164.526 43.9907C164.197 43.9907 163.915 43.8792 163.683 43.6562C163.45 43.4236 163.334 43.1328 163.334 42.7838C163.334 42.4155 163.45 42.1246 163.683 41.9114C163.915 41.6884 164.197 41.5769 164.526 41.5769C164.856 41.5769 165.137 41.6884 165.369 41.9114C165.602 42.1246 165.718 42.4155 165.718 42.7838C165.718 43.1328 165.602 43.4236 165.369 43.6562C165.137 43.8792 164.856 43.9907 164.526 43.9907ZM170.83 43.8889V42.6239L174.872 38.7852C175.211 38.4653 175.463 38.1842 175.628 37.9418C175.793 37.6995 175.899 37.4765 175.948 37.2729C176.006 37.0597 176.035 36.861 176.035 36.6768C176.035 36.2115 175.875 35.8528 175.555 35.6008C175.235 35.3391 174.765 35.2082 174.145 35.2082C173.65 35.2082 173.2 35.2954 172.792 35.4699C172.395 35.6444 172.051 35.911 171.76 36.2696L170.437 35.2518C170.834 34.7187 171.368 34.3067 172.036 34.0159C172.715 33.7154 173.471 33.5651 174.305 33.5651C175.041 33.5651 175.681 33.6863 176.224 33.9286C176.777 34.1613 177.198 34.4957 177.489 34.9319C177.79 35.3681 177.94 35.8867 177.94 36.4878C177.94 36.8173 177.896 37.1469 177.809 37.4765C177.722 37.7964 177.557 38.1357 177.315 38.4944C177.072 38.853 176.718 39.2553 176.253 39.7012L172.778 43.0019L172.385 42.2894H178.332V43.8889H170.83ZM183.509 44.0343C182.666 44.0343 181.934 43.9083 181.314 43.6562C180.693 43.4042 180.213 43.0504 179.874 42.5948C179.535 42.1295 179.365 41.5866 179.365 40.9662C179.365 40.3458 179.53 39.8224 179.86 39.3959C180.189 38.9693 180.664 38.6446 181.285 38.4216C181.905 38.1987 182.647 38.0872 183.509 38.0872C184.372 38.0872 185.114 38.1987 185.734 38.4216C186.364 38.6446 186.844 38.9742 187.174 39.4104C187.513 39.8369 187.682 40.3555 187.682 40.9662C187.682 41.5866 187.508 42.1295 187.159 42.5948C186.82 43.0504 186.335 43.4042 185.705 43.6562C185.085 43.9083 184.353 44.0343 183.509 44.0343ZM183.509 42.5512C184.207 42.5512 184.76 42.4058 185.167 42.1149C185.574 41.8241 185.778 41.4218 185.778 40.9081C185.778 40.404 185.574 40.0066 185.167 39.7158C184.76 39.4249 184.207 39.2795 183.509 39.2795C182.811 39.2795 182.264 39.4249 181.866 39.7158C181.469 40.0066 181.27 40.404 181.27 40.9081C181.27 41.4218 181.469 41.8241 181.866 42.1149C182.264 42.4058 182.811 42.5512 183.509 42.5512ZM183.509 39.076C182.724 39.076 182.05 38.9742 181.488 38.7706C180.926 38.5574 180.49 38.252 180.18 37.8546C179.879 37.4474 179.729 36.9627 179.729 36.4005C179.729 35.8189 179.884 35.3197 180.194 34.9028C180.514 34.4763 180.96 34.1467 181.532 33.9141C182.104 33.6814 182.763 33.5651 183.509 33.5651C184.265 33.5651 184.929 33.6814 185.501 33.9141C186.073 34.1467 186.519 34.4763 186.839 34.9028C187.159 35.3197 187.319 35.8189 187.319 36.4005C187.319 36.9627 187.164 37.4474 186.854 37.8546C186.553 38.252 186.117 38.5574 185.545 38.7706C184.973 38.9742 184.295 39.076 183.509 39.076ZM183.509 37.9127C184.11 37.9127 184.585 37.7867 184.934 37.5347C185.283 37.2729 185.458 36.924 185.458 36.4878C185.458 36.0322 185.278 35.6783 184.92 35.4263C184.561 35.1743 184.091 35.0482 183.509 35.0482C182.928 35.0482 182.462 35.1743 182.113 35.4263C181.764 35.6783 181.59 36.0322 181.59 36.4878C181.59 36.924 181.76 37.2729 182.099 37.5347C182.448 37.7867 182.918 37.9127 183.509 37.9127ZM189.124 46.0845L189.967 42.8711L190.214 43.9471C189.875 43.9471 189.589 43.8453 189.356 43.6417C189.133 43.4284 189.022 43.1425 189.022 42.7838C189.022 42.4155 189.133 42.1246 189.356 41.9114C189.589 41.6884 189.87 41.5769 190.2 41.5769C190.539 41.5769 190.82 41.6884 191.043 41.9114C191.266 42.1343 191.377 42.4251 191.377 42.7838C191.377 42.8807 191.368 42.9874 191.348 43.1037C191.329 43.2103 191.295 43.3364 191.246 43.4818C191.208 43.6272 191.14 43.8113 191.043 44.0343L190.301 46.0845H189.124ZM196.829 44.0343C195.985 44.0343 195.253 43.9083 194.633 43.6562C194.013 43.4042 193.533 43.0504 193.194 42.5948C192.854 42.1295 192.685 41.5866 192.685 40.9662C192.685 40.3458 192.849 39.8224 193.179 39.3959C193.509 38.9693 193.984 38.6446 194.604 38.4216C195.224 38.1987 195.966 38.0872 196.829 38.0872C197.691 38.0872 198.433 38.1987 199.053 38.4216C199.683 38.6446 200.163 38.9742 200.493 39.4104C200.832 39.8369 201.002 40.3555 201.002 40.9662C201.002 41.5866 200.827 42.1295 200.478 42.5948C200.139 43.0504 199.654 43.4042 199.024 43.6562C198.404 43.9083 197.672 44.0343 196.829 44.0343ZM196.829 42.5512C197.527 42.5512 198.079 42.4058 198.486 42.1149C198.893 41.8241 199.097 41.4218 199.097 40.9081C199.097 40.404 198.893 40.0066 198.486 39.7158C198.079 39.4249 197.527 39.2795 196.829 39.2795C196.131 39.2795 195.583 39.4249 195.186 39.7158C194.788 40.0066 194.589 40.404 194.589 40.9081C194.589 41.4218 194.788 41.8241 195.186 42.1149C195.583 42.4058 196.131 42.5512 196.829 42.5512ZM196.829 39.076C196.044 39.076 195.37 38.9742 194.808 38.7706C194.245 38.5574 193.809 38.252 193.499 37.8546C193.198 37.4474 193.048 36.9627 193.048 36.4005C193.048 35.8189 193.203 35.3197 193.513 34.9028C193.833 34.4763 194.279 34.1467 194.851 33.9141C195.423 33.6814 196.082 33.5651 196.829 33.5651C197.585 33.5651 198.249 33.6814 198.821 33.9141C199.393 34.1467 199.839 34.4763 200.158 34.9028C200.478 35.3197 200.638 35.8189 200.638 36.4005C200.638 36.9627 200.483 37.4474 200.173 37.8546C199.873 38.252 199.436 38.5574 198.864 38.7706C198.292 38.9742 197.614 39.076 196.829 39.076ZM196.829 37.9127C197.43 37.9127 197.905 37.7867 198.254 37.5347C198.603 37.2729 198.777 36.924 198.777 36.4878C198.777 36.0322 198.598 35.6783 198.239 35.4263C197.88 35.1743 197.41 35.0482 196.829 35.0482C196.247 35.0482 195.782 35.1743 195.433 35.4263C195.084 35.6783 194.909 36.0322 194.909 36.4878C194.909 36.924 195.079 37.2729 195.418 37.5347C195.767 37.7867 196.237 37.9127 196.829 37.9127ZM203.929 43.8889L208.132 34.4666L208.626 35.31H202.853L203.755 34.3939V37.0403H201.996V33.7105H209.906V34.9755L205.951 43.8889H203.929ZM214.192 44.0343C213.475 44.0343 212.772 43.9325 212.084 43.7289C211.406 43.5157 210.834 43.2249 210.368 42.8565L211.168 41.3879C211.536 41.6884 211.982 41.9308 212.506 42.1149C213.039 42.2991 213.591 42.3912 214.163 42.3912C214.832 42.3912 215.356 42.2507 215.734 41.9695C216.122 41.6884 216.315 41.3104 216.315 40.8354C216.315 40.5155 216.233 40.2344 216.068 39.992C215.913 39.7497 215.632 39.5655 215.225 39.4395C214.827 39.3135 214.28 39.2505 213.582 39.2505H211.124L211.648 33.7105H217.624V35.2954H212.346L213.335 34.3939L212.942 38.538L211.953 37.651H214.003C215.012 37.651 215.821 37.7867 216.432 38.0581C217.052 38.3199 217.503 38.6882 217.784 39.1632C218.075 39.6285 218.22 40.1617 218.22 40.7627C218.22 41.354 218.075 41.8968 217.784 42.3912C217.493 42.8856 217.047 43.283 216.446 43.5835C215.855 43.884 215.104 44.0343 214.192 44.0343Z" fill="#EEEEEE"/>
<path d="M242.956 36V35.0512L245.987 32.1722C246.242 31.9323 246.431 31.7214 246.554 31.5397C246.678 31.3579 246.758 31.1907 246.794 31.038C246.838 30.8781 246.86 30.7291 246.86 30.5909C246.86 30.2419 246.74 29.9729 246.5 29.7839C246.26 29.5876 245.907 29.4895 245.442 29.4895C245.071 29.4895 244.733 29.5549 244.428 29.6858C244.13 29.8166 243.872 30.0166 243.654 30.2856L242.661 29.5222C242.959 29.1223 243.359 28.8133 243.861 28.5952C244.37 28.3699 244.937 28.2572 245.562 28.2572C246.115 28.2572 246.594 28.348 247.001 28.5298C247.416 28.7043 247.732 28.9551 247.95 29.2823C248.176 29.6094 248.288 29.9984 248.288 30.4491C248.288 30.6963 248.256 30.9435 248.19 31.1907C248.125 31.4306 248.001 31.6851 247.819 31.9541C247.638 32.2231 247.372 32.5248 247.023 32.8592L244.417 35.3348L244.122 34.8004H248.583V36H242.956ZM250.358 36.0763C250.111 36.0763 249.9 35.9927 249.726 35.8255C249.551 35.651 249.464 35.4329 249.464 35.1712C249.464 34.8949 249.551 34.6768 249.726 34.5169C249.9 34.3496 250.111 34.266 250.358 34.266C250.605 34.266 250.816 34.3496 250.991 34.5169C251.165 34.6768 251.252 34.8949 251.252 35.1712C251.252 35.4329 251.165 35.651 250.991 35.8255C250.816 35.9927 250.605 36.0763 250.358 36.0763ZM254.7 36.1091C254.162 36.1091 253.635 36.0327 253.119 35.88C252.61 35.7201 252.181 35.502 251.832 35.2257L252.432 34.1243C252.708 34.3496 253.042 34.5314 253.435 34.6695C253.835 34.8077 254.249 34.8767 254.678 34.8767C255.18 34.8767 255.572 34.7713 255.856 34.5605C256.147 34.3496 256.292 34.0661 256.292 33.7099C256.292 33.4699 256.23 33.2591 256.107 33.0774C255.99 32.8956 255.78 32.7575 255.474 32.6629C255.176 32.5684 254.765 32.5212 254.242 32.5212H252.399L252.792 28.3662H257.274V29.5549H253.315L254.057 28.8788L253.762 31.9868L253.021 31.3216H254.558C255.314 31.3216 255.921 31.4234 256.379 31.6269C256.845 31.8232 257.183 32.0995 257.394 32.4557C257.612 32.8047 257.721 33.2046 257.721 33.6553C257.721 34.0988 257.612 34.506 257.394 34.8767C257.176 35.2475 256.841 35.5456 256.39 35.771C255.947 35.9964 255.383 36.1091 254.7 36.1091ZM258.029 36L261.246 31.5724V32.6411L258.182 28.3662H259.785L262.064 31.5288L261.41 31.5397L263.667 28.3662H265.205L262.162 32.5648V31.5397L265.401 36H263.765L261.366 32.6411H262.01L259.643 36H258.029ZM269.531 36V28.3662H273.108C274.024 28.3662 274.722 28.548 275.202 28.9115C275.682 29.2677 275.922 29.7476 275.922 30.351C275.922 30.7581 275.827 31.1071 275.638 31.3979C275.449 31.6815 275.195 31.9032 274.875 32.0631C274.562 32.2158 274.221 32.2922 273.85 32.2922L274.046 31.8996C274.475 31.8996 274.86 31.9795 275.202 32.1395C275.544 32.2922 275.813 32.5175 276.009 32.8156C276.213 33.1137 276.314 33.4845 276.314 33.928C276.314 34.5823 276.064 35.0912 275.562 35.4547C275.06 35.8182 274.315 36 273.326 36H269.531ZM270.949 34.8876H273.239C273.77 34.8876 274.177 34.8004 274.461 34.6259C274.744 34.4514 274.886 34.1715 274.886 33.7862C274.886 33.4081 274.744 33.1319 274.461 32.9574C274.177 32.7756 273.77 32.6848 273.239 32.6848H270.84V31.5833H272.956C273.45 31.5833 273.828 31.4961 274.09 31.3216C274.359 31.1471 274.493 30.8854 274.493 30.5364C274.493 30.1801 274.359 29.9148 274.09 29.7403C273.828 29.5658 273.45 29.4786 272.956 29.4786H270.949V34.8876ZM280.314 36.0763C279.718 36.0763 279.187 35.9491 278.722 35.6946C278.256 35.4329 277.889 35.0767 277.62 34.6259C277.351 34.1752 277.217 33.6626 277.217 33.0883C277.217 32.5066 277.351 31.9941 277.62 31.5506C277.889 31.0998 278.256 30.7472 278.722 30.4928C279.187 30.2383 279.718 30.1111 280.314 30.1111C280.917 30.1111 281.452 30.2383 281.917 30.4928C282.39 30.7472 282.757 31.0962 283.018 31.5397C283.287 31.9832 283.422 32.4994 283.422 33.0883C283.422 33.6626 283.287 34.1752 283.018 34.6259C282.757 35.0767 282.39 35.4329 281.917 35.6946C281.452 35.9491 280.917 36.0763 280.314 36.0763ZM280.314 34.9095C280.648 34.9095 280.946 34.8368 281.208 34.6914C281.47 34.5459 281.673 34.3351 281.819 34.0588C281.972 33.7826 282.048 33.459 282.048 33.0883C282.048 32.7102 281.972 32.3867 281.819 32.1177C281.673 31.8414 281.47 31.6306 281.208 31.4852C280.946 31.3398 280.652 31.2671 280.325 31.2671C279.99 31.2671 279.692 31.3398 279.431 31.4852C279.176 31.6306 278.973 31.8414 278.82 32.1177C278.667 32.3867 278.591 32.7102 278.591 33.0883C278.591 33.459 278.667 33.7826 278.82 34.0588C278.973 34.3351 279.176 34.5459 279.431 34.6914C279.692 34.8368 279.987 34.9095 280.314 34.9095ZM287.343 36.0763C286.747 36.0763 286.216 35.9491 285.751 35.6946C285.285 35.4329 284.918 35.0767 284.649 34.6259C284.38 34.1752 284.246 33.6626 284.246 33.0883C284.246 32.5066 284.38 31.9941 284.649 31.5506C284.918 31.0998 285.285 30.7472 285.751 30.4928C286.216 30.2383 286.747 30.1111 287.343 30.1111C287.946 30.1111 288.481 30.2383 288.946 30.4928C289.418 30.7472 289.786 31.0962 290.047 31.5397C290.316 31.9832 290.451 32.4994 290.451 33.0883C290.451 33.6626 290.316 34.1752 290.047 34.6259C289.786 35.0767 289.418 35.4329 288.946 35.6946C288.481 35.9491 287.946 36.0763 287.343 36.0763ZM287.343 34.9095C287.677 34.9095 287.975 34.8368 288.237 34.6914C288.499 34.5459 288.702 34.3351 288.848 34.0588C289 33.7826 289.077 33.459 289.077 33.0883C289.077 32.7102 289 32.3867 288.848 32.1177C288.702 31.8414 288.499 31.6306 288.237 31.4852C287.975 31.3398 287.681 31.2671 287.354 31.2671C287.019 31.2671 286.721 31.3398 286.459 31.4852C286.205 31.6306 286.001 31.8414 285.849 32.1177C285.696 32.3867 285.62 32.7102 285.62 33.0883C285.62 33.459 285.696 33.7826 285.849 34.0588C286.001 34.3351 286.205 34.5459 286.459 34.6914C286.721 34.8368 287.016 34.9095 287.343 34.9095ZM293.554 36.0763C293.067 36.0763 292.598 36.0145 292.147 35.8909C291.703 35.7601 291.351 35.6038 291.089 35.422L291.613 34.386C291.874 34.5532 292.187 34.6914 292.55 34.8004C292.914 34.9095 293.277 34.964 293.641 34.964C294.07 34.964 294.379 34.9058 294.568 34.7895C294.764 34.6732 294.862 34.5169 294.862 34.3206C294.862 34.1606 294.797 34.0407 294.666 33.9607C294.535 33.8734 294.364 33.808 294.154 33.7644C293.943 33.7208 293.706 33.6808 293.445 33.6444C293.19 33.6081 292.932 33.5608 292.67 33.5027C292.416 33.4372 292.183 33.3464 291.972 33.23C291.762 33.1064 291.591 32.9429 291.46 32.7393C291.329 32.5357 291.264 32.2667 291.264 31.9323C291.264 31.5615 291.369 31.2416 291.58 30.9726C291.791 30.6963 292.085 30.4855 292.463 30.3401C292.849 30.1874 293.303 30.1111 293.826 30.1111C294.219 30.1111 294.615 30.1547 295.015 30.2419C295.415 30.3292 295.746 30.4528 296.007 30.6127L295.484 31.6487C295.208 31.4815 294.928 31.3688 294.644 31.3107C294.368 31.2452 294.092 31.2125 293.815 31.2125C293.401 31.2125 293.092 31.2743 292.889 31.3979C292.692 31.5215 292.594 31.6778 292.594 31.8669C292.594 32.0413 292.66 32.1722 292.79 32.2594C292.921 32.3467 293.092 32.4158 293.303 32.4666C293.514 32.5175 293.746 32.5612 294.001 32.5975C294.263 32.6266 294.521 32.6739 294.775 32.7393C295.03 32.8047 295.262 32.8956 295.473 33.0119C295.691 33.121 295.866 33.2773 295.997 33.4809C296.127 33.6844 296.193 33.9498 296.193 34.2769C296.193 34.6405 296.084 34.9567 295.866 35.2257C295.655 35.4947 295.353 35.7056 294.961 35.8582C294.568 36.0036 294.099 36.0763 293.554 36.0763ZM299.559 36.0763C298.919 36.0763 298.425 35.9128 298.076 35.5856C297.727 35.2512 297.552 34.7604 297.552 34.1134V28.8897H298.915V34.0806C298.915 34.3569 298.984 34.5714 299.123 34.7241C299.268 34.8767 299.468 34.9531 299.722 34.9531C300.028 34.9531 300.282 34.8731 300.486 34.7132L300.867 35.6837C300.708 35.8146 300.511 35.9128 300.279 35.9782C300.046 36.0436 299.806 36.0763 299.559 36.0763ZM296.593 31.3107V30.2201H300.475V31.3107H296.593Z" fill="url(#paint3_linear_618_4667)"/>
<path d="M19.85 51L24.15 16H28.7L24.4 51H19.85ZM1.15 42.5V37.95H32.75V42.5H1.15ZM6.85 51L11.2 16H15.75L11.4 51H6.85ZM2.85 29.05V24.5H34.35L34.4 29.05H2.85ZM57.1652 51V18.5L60.0152 21.45H49.7652V16H63.6652V51H57.1652Z" fill="#EEEEEE"/>
<defs>
<linearGradient id="paint0_linear_618_4667" x1="106.251" y1="66.9042" x2="106.251" y2="14.1164" gradientUnits="userSpaceOnUse">
<stop stop-color="#FFF9CD"/>
<stop offset="1" stop-color="#CB9200"/>
</linearGradient>
<linearGradient id="paint1_linear_618_4667" x1="98.4651" y1="31.1866" x2="114.511" y2="33.0739" gradientUnits="userSpaceOnUse">
<stop stop-color="#FF8E04"/>
<stop offset="1" stop-color="#E1FF29"/>
</linearGradient>
<linearGradient id="paint2_linear_618_4667" x1="122.32" y1="23.0462" x2="105.526" y2="51.4592" gradientUnits="userSpaceOnUse">
<stop stop-color="#FFB800"/>
<stop offset="0.478391" stop-color="#FFFEC9"/>
<stop offset="1" stop-color="#FFB800"/>
</linearGradient>
<linearGradient id="paint3_linear_618_4667" x1="239.297" y1="31.1656" x2="288.041" y2="58.9279" gradientUnits="userSpaceOnUse">
<stop stop-color="#F7931A"/>
<stop offset="1" stop-color="#AC1CC7"/>
</linearGradient>
</defs>
</svg>
