<svg width="286" height="226" viewBox="0 0 286 226" fill="none" xmlns="http://www.w3.org/2000/svg">
<g filter="url(#filter0_f_618_4708)">
<ellipse cx="143" cy="202.5" rx="125" ry="5.5" fill="black" fill-opacity="0.15"/>
</g>
<rect x="127" y="125" width="92" height="32" rx="16" fill="#5855FF"/>
<path d="M146.091 146.5V136.633H150.405C151.476 136.633 152.416 136.839 153.224 137.253C154.032 137.666 154.662 138.24 155.113 138.973C155.564 139.706 155.789 140.57 155.789 141.566C155.789 142.553 155.564 143.418 155.113 144.16C154.662 144.893 154.032 145.466 153.224 145.88C152.416 146.293 151.476 146.5 150.405 146.5H146.091ZM147.924 144.949H150.32C151.062 144.949 151.701 144.808 152.237 144.527C152.782 144.245 153.2 143.85 153.492 143.342C153.792 142.835 153.943 142.243 153.943 141.566C153.943 140.88 153.792 140.288 153.492 139.79C153.2 139.283 152.782 138.888 152.237 138.606C151.701 138.324 151.062 138.183 150.32 138.183H147.924V144.949ZM161.106 146.599C160.27 146.599 159.537 146.434 158.907 146.105C158.287 145.767 157.803 145.307 157.455 144.724C157.117 144.141 156.948 143.479 156.948 142.736C156.948 141.984 157.112 141.322 157.441 140.749C157.779 140.166 158.24 139.71 158.823 139.381C159.415 139.052 160.086 138.888 160.838 138.888C161.571 138.888 162.224 139.048 162.798 139.367C163.371 139.687 163.822 140.138 164.151 140.721C164.48 141.303 164.644 141.989 164.644 142.779C164.644 142.854 164.64 142.938 164.63 143.032C164.63 143.126 164.626 143.216 164.616 143.3H158.343V142.13H163.686L162.995 142.497C163.004 142.064 162.915 141.684 162.727 141.355C162.539 141.026 162.281 140.767 161.952 140.58C161.632 140.392 161.261 140.298 160.838 140.298C160.406 140.298 160.025 140.392 159.696 140.58C159.377 140.767 159.123 141.031 158.935 141.369C158.757 141.698 158.667 142.088 158.667 142.539V142.821C158.667 143.272 158.771 143.671 158.978 144.019C159.184 144.367 159.476 144.635 159.852 144.823C160.227 145.01 160.66 145.104 161.148 145.104C161.571 145.104 161.952 145.039 162.29 144.907C162.629 144.776 162.929 144.569 163.192 144.287L164.137 145.372C163.799 145.767 163.371 146.072 162.854 146.289C162.347 146.495 161.764 146.599 161.106 146.599ZM170.509 146.599C169.899 146.599 169.339 146.458 168.832 146.176C168.334 145.894 167.934 145.471 167.634 144.907C167.342 144.334 167.197 143.61 167.197 142.736C167.197 141.853 167.338 141.129 167.62 140.565C167.911 140.002 168.306 139.583 168.804 139.311C169.302 139.029 169.87 138.888 170.509 138.888C171.252 138.888 171.905 139.048 172.469 139.367C173.042 139.687 173.493 140.133 173.822 140.706C174.16 141.28 174.329 141.956 174.329 142.736C174.329 143.516 174.16 144.198 173.822 144.78C173.493 145.353 173.042 145.8 172.469 146.119C171.905 146.439 171.252 146.599 170.509 146.599ZM166.337 149.235V138.973H168.014V140.749L167.958 142.75L168.099 144.752V149.235H166.337ZM170.312 145.09C170.735 145.09 171.111 144.996 171.44 144.808C171.778 144.62 172.046 144.348 172.243 143.991C172.441 143.634 172.539 143.216 172.539 142.736C172.539 142.248 172.441 141.829 172.243 141.482C172.046 141.125 171.778 140.852 171.44 140.664C171.111 140.476 170.735 140.382 170.312 140.382C169.889 140.382 169.509 140.476 169.17 140.664C168.832 140.852 168.564 141.125 168.367 141.482C168.169 141.829 168.071 142.248 168.071 142.736C168.071 143.216 168.169 143.634 168.367 143.991C168.564 144.348 168.832 144.62 169.17 144.808C169.509 144.996 169.889 145.09 170.312 145.09ZM179.384 146.599C178.613 146.599 177.927 146.434 177.326 146.105C176.724 145.767 176.25 145.307 175.902 144.724C175.554 144.141 175.38 143.479 175.38 142.736C175.38 141.984 175.554 141.322 175.902 140.749C176.25 140.166 176.724 139.71 177.326 139.381C177.927 139.052 178.613 138.888 179.384 138.888C180.164 138.888 180.854 139.052 181.456 139.381C182.067 139.71 182.541 140.161 182.88 140.735C183.227 141.308 183.401 141.975 183.401 142.736C183.401 143.479 183.227 144.141 182.88 144.724C182.541 145.307 182.067 145.767 181.456 146.105C180.854 146.434 180.164 146.599 179.384 146.599ZM179.384 145.09C179.816 145.09 180.201 144.996 180.54 144.808C180.878 144.62 181.141 144.348 181.329 143.991C181.526 143.634 181.625 143.216 181.625 142.736C181.625 142.248 181.526 141.829 181.329 141.482C181.141 141.125 180.878 140.852 180.54 140.664C180.201 140.476 179.821 140.382 179.398 140.382C178.965 140.382 178.58 140.476 178.242 140.664C177.913 140.852 177.65 141.125 177.452 141.482C177.255 141.829 177.156 142.248 177.156 142.736C177.156 143.216 177.255 143.634 177.452 143.991C177.65 144.348 177.913 144.62 178.242 144.808C178.58 144.996 178.961 145.09 179.384 145.09ZM187.412 146.599C186.782 146.599 186.176 146.519 185.594 146.359C185.02 146.19 184.564 145.988 184.226 145.753L184.903 144.414C185.241 144.63 185.645 144.808 186.115 144.949C186.585 145.09 187.055 145.161 187.525 145.161C188.079 145.161 188.479 145.086 188.723 144.935C188.977 144.785 189.103 144.583 189.103 144.329C189.103 144.122 189.019 143.967 188.85 143.864C188.681 143.751 188.46 143.667 188.187 143.61C187.915 143.554 187.609 143.502 187.271 143.455C186.942 143.408 186.608 143.347 186.27 143.272C185.941 143.187 185.641 143.07 185.368 142.92C185.095 142.76 184.875 142.548 184.705 142.285C184.536 142.022 184.452 141.674 184.452 141.242C184.452 140.763 184.588 140.349 184.861 140.002C185.133 139.644 185.514 139.372 186.002 139.184C186.5 138.987 187.088 138.888 187.764 138.888C188.272 138.888 188.784 138.944 189.301 139.057C189.818 139.17 190.245 139.33 190.584 139.536L189.907 140.876C189.55 140.659 189.188 140.514 188.822 140.439C188.464 140.354 188.107 140.312 187.75 140.312C187.215 140.312 186.815 140.392 186.552 140.551C186.298 140.711 186.171 140.913 186.171 141.157C186.171 141.383 186.256 141.552 186.425 141.665C186.594 141.778 186.815 141.867 187.088 141.933C187.36 141.999 187.661 142.055 187.99 142.102C188.328 142.14 188.662 142.201 188.991 142.285C189.32 142.37 189.62 142.487 189.893 142.638C190.175 142.779 190.4 142.981 190.57 143.244C190.739 143.507 190.823 143.85 190.823 144.273C190.823 144.743 190.682 145.151 190.4 145.499C190.128 145.847 189.738 146.119 189.23 146.317C188.723 146.505 188.117 146.599 187.412 146.599ZM192.341 146.5V138.973H194.103V146.5H192.341ZM193.229 137.732C192.9 137.732 192.627 137.629 192.411 137.422C192.204 137.215 192.101 136.966 192.101 136.675C192.101 136.374 192.204 136.125 192.411 135.928C192.627 135.721 192.9 135.618 193.229 135.618C193.558 135.618 193.826 135.716 194.032 135.914C194.248 136.102 194.356 136.341 194.356 136.633C194.356 136.943 194.253 137.206 194.046 137.422C193.84 137.629 193.567 137.732 193.229 137.732ZM199.249 146.599C198.422 146.599 197.783 146.387 197.332 145.964C196.881 145.532 196.655 144.898 196.655 144.061V137.309H198.417V144.019C198.417 144.376 198.506 144.653 198.685 144.851C198.873 145.048 199.131 145.147 199.46 145.147C199.855 145.147 200.184 145.043 200.447 144.837L200.94 146.091C200.734 146.26 200.48 146.387 200.179 146.472C199.878 146.556 199.568 146.599 199.249 146.599ZM195.415 140.439V139.029H200.433V140.439H195.415Z" fill="white"/>
<circle cx="239" cy="79" r="25" fill="#2270C5"/>
<path d="M245.568 82.3224C245.568 79.291 243.501 78.2514 239.367 77.8168C236.414 77.4696 235.823 76.7772 235.823 75.5651C235.823 74.3529 236.808 73.5732 238.776 73.5732C240.548 73.5732 241.533 74.093 242.024 75.3925C242.124 75.6524 242.419 75.825 242.714 75.825H244.29C244.685 75.825 244.98 75.5651 244.98 75.2178V75.1305C244.585 73.2239 242.814 71.7519 240.55 71.5793V69.5001C240.55 69.1529 240.255 68.893 239.764 68.8077H238.287C237.893 68.8077 237.597 69.0676 237.501 69.5001V71.492C234.548 71.8392 232.677 73.5711 232.677 75.7376C232.677 78.5965 234.644 79.7234 238.779 80.1559C241.535 80.5884 242.421 81.1082 242.421 82.495C242.421 83.8818 241.044 84.8341 239.173 84.8341C236.615 84.8341 235.729 83.8818 235.433 82.5823C235.334 82.2351 235.039 82.0625 234.744 82.0625H233.071C232.677 82.0625 232.381 82.3224 232.381 82.6696V82.757C232.776 84.9235 234.349 86.4828 237.597 86.9153V88.9945C237.597 89.3417 237.893 89.6016 238.384 89.6869H239.861C240.255 89.6869 240.55 89.427 240.647 88.9945V86.9153C243.598 86.4808 245.568 84.6615 245.568 82.3224Z" fill="white"/>
<path d="M234.317 91.1474C227.194 88.6566 223.54 80.9195 226.19 74.0724C227.56 70.3372 230.574 67.4921 234.317 66.1581C234.684 65.981 234.865 65.7142 234.865 65.2681V64.0237C234.865 63.6673 234.684 63.4005 234.317 63.313C234.225 63.313 234.044 63.313 233.951 63.4026C225.276 66.0706 220.526 75.0521 223.266 83.5021C224.91 88.4816 228.838 92.3064 233.951 93.9072C234.318 94.0843 234.681 93.9072 234.773 93.5508C234.865 93.4611 234.865 93.3736 234.865 93.1943V91.95C234.865 91.681 234.591 91.3267 234.317 91.1474ZM243.997 63.4005C243.631 63.2233 243.267 63.4005 243.175 63.7569C243.083 63.8466 243.083 63.9341 243.083 64.1134V65.3577C243.083 65.7142 243.357 66.0685 243.631 66.2478C250.755 68.7386 254.409 76.4757 251.759 83.3228C250.389 87.058 247.375 89.9031 243.631 91.2371C243.265 91.4142 243.083 91.681 243.083 92.1271V93.3715C243.083 93.7279 243.265 93.9947 243.631 94.0822C243.723 94.0822 243.905 94.0822 243.997 93.9926C252.673 91.3246 257.423 82.3431 254.683 73.8931C253.039 68.8261 249.021 65.0013 243.997 63.4005Z" fill="white"/>
<circle cx="162" cy="35" r="35" fill="black"/>
<path d="M152.208 41.8612C152.396 41.6713 152.649 41.5645 152.914 41.5645H177.419C177.866 41.5645 178.09 42.1105 177.772 42.425L172.93 47.3033C172.742 47.4932 172.489 47.6 172.224 47.6H147.724C147.277 47.6 147.053 47.0541 147.371 46.7395L152.208 41.8612Z" fill="url(#paint0_linear_618_4708)"/>
<path d="M152.208 23.63C152.396 23.4401 152.649 23.3333 152.914 23.3333H177.419C177.867 23.3333 178.09 23.8793 177.772 24.1938L172.93 29.0721C172.742 29.262 172.489 29.3689 172.224 29.3689H147.724C147.277 29.3689 147.054 28.8229 147.371 28.5083L152.208 23.63Z" fill="url(#paint1_linear_618_4708)"/>
<path d="M172.93 32.6868C172.742 32.4969 172.489 32.3901 172.224 32.3901H147.724C147.277 32.3901 147.053 32.9361 147.371 33.2506L152.214 38.1289C152.402 38.3188 152.655 38.4256 152.92 38.4256H177.425C177.872 38.4256 178.096 37.8796 177.778 37.5651L172.93 32.6868Z" fill="url(#paint2_linear_618_4708)"/>
<path d="M32.4856 104.625V88.875H36.2306V104.625H32.4856ZM26.2906 98.5V95H42.4256V98.5H26.2906ZM63.993 109.35C62.2663 109.35 60.5747 109.105 58.918 108.615C57.2847 108.102 55.908 107.402 54.788 106.515L56.713 102.98C57.5997 103.703 58.673 104.287 59.933 104.73C61.2163 105.173 62.5463 105.395 63.923 105.395C65.533 105.395 66.793 105.057 67.703 104.38C68.6363 103.703 69.103 102.793 69.103 101.65C69.103 100.88 68.9047 100.203 68.508 99.62C68.1347 99.0367 67.458 98.5933 66.478 98.29C65.5213 97.9867 64.203 97.835 62.523 97.835H56.608L57.868 84.5H72.253V88.315H59.548L61.928 86.145L60.983 96.12L58.603 93.985H63.538C65.9647 93.985 67.913 94.3117 69.383 94.965C70.8763 95.595 71.9613 96.4817 72.638 97.625C73.338 98.745 73.688 100.028 73.688 101.475C73.688 102.898 73.338 104.205 72.638 105.395C71.938 106.585 70.8647 107.542 69.418 108.265C67.9947 108.988 66.1863 109.35 63.993 109.35ZM86.5325 109.35C84.5958 109.35 82.8458 108.86 81.2825 107.88C79.7425 106.9 78.5291 105.477 77.6425 103.61C76.7558 101.72 76.3125 99.4333 76.3125 96.75C76.3125 94.0667 76.7558 91.7917 77.6425 89.925C78.5291 88.035 79.7425 86.6 81.2825 85.62C82.8458 84.64 84.5958 84.15 86.5325 84.15C88.4925 84.15 90.2425 84.64 91.7825 85.62C93.3225 86.6 94.5358 88.035 95.4225 89.925C96.3325 91.7917 96.7875 94.0667 96.7875 96.75C96.7875 99.4333 96.3325 101.72 95.4225 103.61C94.5358 105.477 93.3225 106.9 91.7825 107.88C90.2425 108.86 88.4925 109.35 86.5325 109.35ZM86.5325 105.395C87.6758 105.395 88.6675 105.092 89.5075 104.485C90.3475 103.855 91.0008 102.898 91.4675 101.615C91.9575 100.332 92.2025 98.71 92.2025 96.75C92.2025 94.7667 91.9575 93.145 91.4675 91.885C91.0008 90.6017 90.3475 89.6567 89.5075 89.05C88.6675 88.42 87.6758 88.105 86.5325 88.105C85.4358 88.105 84.4558 88.42 83.5925 89.05C82.7525 89.6567 82.0875 90.6017 81.5975 91.885C81.1308 93.145 80.8975 94.7667 80.8975 96.75C80.8975 98.71 81.1308 100.332 81.5975 101.615C82.0875 102.898 82.7525 103.855 83.5925 104.485C84.4558 105.092 85.4358 105.395 86.5325 105.395ZM110.082 109.35C108.146 109.35 106.396 108.86 104.832 107.88C103.292 106.9 102.079 105.477 101.192 103.61C100.306 101.72 99.8623 99.4333 99.8623 96.75C99.8623 94.0667 100.306 91.7917 101.192 89.925C102.079 88.035 103.292 86.6 104.832 85.62C106.396 84.64 108.146 84.15 110.082 84.15C112.042 84.15 113.792 84.64 115.332 85.62C116.872 86.6 118.086 88.035 118.972 89.925C119.882 91.7917 120.337 94.0667 120.337 96.75C120.337 99.4333 119.882 101.72 118.972 103.61C118.086 105.477 116.872 106.9 115.332 107.88C113.792 108.86 112.042 109.35 110.082 109.35ZM110.082 105.395C111.226 105.395 112.217 105.092 113.057 104.485C113.897 103.855 114.551 102.898 115.017 101.615C115.507 100.332 115.752 98.71 115.752 96.75C115.752 94.7667 115.507 93.145 115.017 91.885C114.551 90.6017 113.897 89.6567 113.057 89.05C112.217 88.42 111.226 88.105 110.082 88.105C108.986 88.105 108.006 88.42 107.142 89.05C106.302 89.6567 105.637 90.6017 105.147 91.885C104.681 93.145 104.447 94.7667 104.447 96.75C104.447 98.71 104.681 100.332 105.147 101.615C105.637 102.898 106.302 103.855 107.142 104.485C108.006 105.092 108.986 105.395 110.082 105.395ZM126.842 109L143.572 84.5H147.002L130.272 109H126.842ZM128.872 97.695C127.729 97.695 126.714 97.415 125.827 96.855C124.94 96.295 124.252 95.5133 123.762 94.51C123.272 93.5067 123.027 92.3283 123.027 90.975C123.027 89.6217 123.272 88.4433 123.762 87.44C124.252 86.4367 124.94 85.655 125.827 85.095C126.714 84.535 127.729 84.255 128.872 84.255C130.062 84.255 131.089 84.535 131.952 85.095C132.839 85.655 133.527 86.4367 134.017 87.44C134.507 88.4433 134.752 89.6217 134.752 90.975C134.752 92.3283 134.507 93.5067 134.017 94.51C133.527 95.5133 132.839 96.295 131.952 96.855C131.089 97.415 130.062 97.695 128.872 97.695ZM128.907 95.245C129.84 95.245 130.564 94.8833 131.077 94.16C131.614 93.4133 131.882 92.3517 131.882 90.975C131.882 89.5983 131.614 88.5483 131.077 87.825C130.564 87.0783 129.84 86.705 128.907 86.705C127.974 86.705 127.227 87.0783 126.667 87.825C126.13 88.5717 125.862 89.6217 125.862 90.975C125.862 92.3283 126.13 93.3783 126.667 94.125C127.227 94.8717 127.974 95.245 128.907 95.245ZM144.937 109.245C143.794 109.245 142.779 108.965 141.892 108.405C141.005 107.845 140.317 107.063 139.827 106.06C139.337 105.057 139.092 103.878 139.092 102.525C139.092 101.172 139.337 99.9933 139.827 98.99C140.317 97.9867 141.005 97.205 141.892 96.645C142.779 96.085 143.794 95.805 144.937 95.805C146.127 95.805 147.154 96.085 148.017 96.645C148.904 97.205 149.592 97.9867 150.082 98.99C150.572 99.9933 150.817 101.172 150.817 102.525C150.817 103.878 150.572 105.057 150.082 106.06C149.592 107.063 148.904 107.845 148.017 108.405C147.154 108.965 146.127 109.245 144.937 109.245ZM144.937 106.795C145.87 106.795 146.605 106.422 147.142 105.675C147.679 104.928 147.947 103.878 147.947 102.525C147.947 101.172 147.679 100.122 147.142 99.375C146.605 98.6283 145.87 98.255 144.937 98.255C144.027 98.255 143.292 98.6283 142.732 99.375C142.195 100.098 141.927 101.148 141.927 102.525C141.927 103.902 142.195 104.963 142.732 105.71C143.292 106.433 144.027 106.795 144.937 106.795Z" fill="url(#paint3_linear_618_4708)"/>
<defs>
<filter id="filter0_f_618_4708" x="0.343739" y="179.344" width="285.313" height="46.3125" filterUnits="userSpaceOnUse" color-interpolation-filters="sRGB">
<feFlood flood-opacity="0" result="BackgroundImageFix"/>
<feBlend mode="normal" in="SourceGraphic" in2="BackgroundImageFix" result="shape"/>
<feGaussianBlur stdDeviation="8.82813" result="effect1_foregroundBlur_618_4708"/>
</filter>
<linearGradient id="paint0_linear_618_4708" x1="175.08" y1="20.4184" x2="157.89" y2="53.0601" gradientUnits="userSpaceOnUse">
<stop stop-color="#00FFA3"/>
<stop offset="1" stop-color="#DC1FFF"/>
</linearGradient>
<linearGradient id="paint1_linear_618_4708" x1="167.665" y1="16.5136" x2="150.475" y2="49.1553" gradientUnits="userSpaceOnUse">
<stop stop-color="#00FFA3"/>
<stop offset="1" stop-color="#DC1FFF"/>
</linearGradient>
<linearGradient id="paint2_linear_618_4708" x1="171.348" y1="18.454" x2="154.159" y2="51.0958" gradientUnits="userSpaceOnUse">
<stop stop-color="#00FFA3"/>
<stop offset="1" stop-color="#DC1FFF"/>
</linearGradient>
<linearGradient id="paint3_linear_618_4708" x1="24" y1="93" x2="130.299" y2="146.982" gradientUnits="userSpaceOnUse">
<stop stop-color="#F7931A"/>
<stop offset="1" stop-color="#AC1CC7"/>
</linearGradient>
</defs>
</svg>
