<svg width="226" height="50" viewBox="0 0 226 50" fill="none" xmlns="http://www.w3.org/2000/svg">
<path d="M21.2778 5.55556C21.2778 2.64072 23.6407 0.277778 26.5556 0.277778H220.444C223.359 0.277778 225.722 2.64072 225.722 5.55556V44.4444C225.722 47.3593 223.359 49.7222 220.444 49.7222H26.5556C23.6407 49.7222 21.2778 47.3593 21.2778 44.4444V5.55556Z" fill="white" stroke="#636363" stroke-width="0.555556"/>
<path d="M82.8469 31.0622V31.062V18.9383V18.9381C82.8463 18.373 82.6993 17.8179 82.4202 17.3283C82.1411 16.8387 81.7398 16.4319 81.2563 16.1487L81.2555 16.1483L70.7953 10.0869C70.7952 10.0868 70.795 10.0868 70.7949 10.0867C70.3109 9.80342 69.7618 9.65419 69.2026 9.65419C68.6434 9.65419 68.0943 9.80342 67.6103 10.0867C67.6102 10.0868 67.6101 10.0868 67.6099 10.0869L57.1497 16.1483L57.1489 16.1487C56.6654 16.4319 56.2641 16.8387 55.985 17.3283C55.706 17.8179 55.5589 18.373 55.5583 18.9381V18.9383L55.5583 31.062L55.5583 31.0622C55.5589 31.6273 55.706 32.1824 55.985 32.672C56.2641 33.1616 56.6654 33.5684 57.1489 33.8515L57.1497 33.852L67.6099 39.9134C67.6101 39.9135 67.6102 39.9135 67.6103 39.9136C68.0943 40.1969 68.6434 40.3461 69.2026 40.3461C69.7618 40.3461 70.311 40.1969 70.7949 39.9136C70.795 39.9135 70.7952 39.9135 70.7953 39.9134L81.2555 33.852L81.2563 33.8515C81.7398 33.5684 82.1411 33.1616 82.4202 32.672C82.6993 32.1824 82.8463 31.6273 82.8469 31.0622Z" fill="url(#paint0_linear_618_4883)" stroke="white" stroke-width="0.388889" stroke-linecap="round" stroke-linejoin="round"/>
<path fill-rule="evenodd" clip-rule="evenodd" d="M67.5071 9.9049C68.0225 9.60334 68.6073 9.44446 69.2027 9.44446C69.7981 9.44446 70.3829 9.60332 70.8982 9.90485C70.8985 9.90501 70.8988 9.90517 70.899 9.90533L81.36 15.9672C81.875 16.2687 82.3024 16.702 82.5996 17.2234C82.8968 17.7448 83.0534 18.336 83.0541 18.9378V31.0623C83.0534 31.664 82.8968 32.2552 82.5996 32.7766C82.3024 33.298 81.875 33.7313 81.36 34.0328L81.3585 34.0338L70.899 40.0947C70.8988 40.0948 70.8987 40.0949 70.8985 40.095C70.3831 40.3967 69.7982 40.5556 69.2027 40.5556C68.6072 40.5556 68.0223 40.3966 67.5069 40.095C67.5067 40.0949 67.5065 40.0948 67.5064 40.0947L57.0469 34.0338L57.0454 34.0328C56.5304 33.7313 56.103 33.298 55.8058 32.7766C55.5086 32.2552 55.352 31.664 55.3513 31.0623V18.9378C55.352 18.336 55.5086 17.7448 55.8058 17.2234C56.103 16.702 56.5304 16.2687 57.0454 15.9672L57.0469 15.9663L67.5064 9.90533C67.5066 9.90518 67.5069 9.90504 67.5071 9.9049ZM69.2027 10.2525C68.7491 10.2525 68.3033 10.3736 67.9102 10.6038L67.9086 10.6047L57.4492 16.6657C57.4489 16.6658 57.4486 16.666 57.4484 16.6661C57.0559 16.8961 56.7296 17.2268 56.5023 17.6255C56.2749 18.0244 56.1548 18.4772 56.1543 18.9384V31.0617C56.1548 31.5228 56.2749 31.9756 56.5023 32.3745C56.7296 32.7732 57.0559 33.104 57.4484 33.3339C57.4486 33.3341 57.4489 33.3342 57.4492 33.3344L67.9102 39.3962C68.3033 39.6264 68.7491 39.7475 69.2027 39.7475C69.6563 39.7475 70.1021 39.6264 70.4952 39.3962L70.4968 39.3953L80.9562 33.3344C80.9565 33.3342 80.9568 33.3341 80.957 33.3339C81.3495 33.104 81.6758 32.7732 81.9031 32.3745C82.1305 31.9755 82.2506 31.5227 82.2511 31.0614V18.9386C82.2506 18.4773 82.1305 18.0245 81.9031 17.6255C81.6758 17.2268 81.3495 16.8961 80.957 16.6661C80.9568 16.666 80.9565 16.6658 80.9562 16.6657L70.4968 10.6047L70.4952 10.6038C70.1021 10.3736 69.6563 10.2525 69.2027 10.2525Z" fill="white"/>
<path d="M75.1365 25.2018C75.1365 28.549 72.4798 31.2624 69.2027 31.2624C65.9256 31.2624 63.269 28.549 63.269 25.2018C63.269 21.8546 65.9256 19.1412 69.2027 19.1412C72.4798 19.1412 75.1365 21.8546 75.1365 25.2018Z" fill="url(#paint1_linear_618_4883)"/>
<path d="M74.6794 25.2018C74.6794 28.3019 72.2208 30.8028 69.2027 30.8028C66.1847 30.8028 63.726 28.3019 63.726 25.2018C63.726 22.1017 66.1847 19.6008 69.2027 19.6008C72.2208 19.6008 74.6794 22.1017 74.6794 25.2018ZM69.2027 31.3179C72.5116 31.3179 75.192 28.5785 75.192 25.2018C75.192 21.825 72.5116 19.0856 69.2027 19.0856C65.8938 19.0856 63.2134 21.825 63.2134 25.2018C63.2134 28.5785 65.8938 31.3179 69.2027 31.3179Z" fill="white" stroke="white" stroke-width="0.111111"/>
<path d="M65.3884 28.2525C65.3884 27.1128 65.9848 26.0574 66.9581 25.4746L81.2472 16.9195C81.8699 17.2955 82.2509 17.9727 82.2509 18.7035V31.7374C82.2509 32.3183 81.9411 32.8545 81.4395 33.1419L69.976 39.7088C69.4948 39.9844 68.9066 39.9912 68.4193 39.7267L66.2321 38.5398C65.7124 38.2578 65.3884 37.7115 65.3884 37.1173V28.2525Z" fill="url(#paint2_linear_618_4883)"/>
<path d="M94.1649 20.3056C93.7038 20.3056 93.2871 20.1889 92.9149 19.9556C92.5482 19.7222 92.2593 19.3833 92.0482 18.9389C91.8371 18.4889 91.7315 17.9445 91.7315 17.3056C91.7315 16.6667 91.8371 16.125 92.0482 15.6806C92.2593 15.2306 92.5482 14.8889 92.9149 14.6556C93.2871 14.4222 93.7038 14.3056 94.1649 14.3056C94.6315 14.3056 95.0482 14.4222 95.4149 14.6556C95.7815 14.8889 96.0704 15.2306 96.2815 15.6806C96.4982 16.125 96.6065 16.6667 96.6065 17.3056C96.6065 17.9445 96.4982 18.4889 96.2815 18.9389C96.0704 19.3833 95.7815 19.7222 95.4149 19.9556C95.0482 20.1889 94.6315 20.3056 94.1649 20.3056ZM94.1649 19.3639C94.4371 19.3639 94.6732 19.2917 94.8732 19.1472C95.0732 18.9972 95.2288 18.7695 95.3399 18.4639C95.4565 18.1583 95.5149 17.7722 95.5149 17.3056C95.5149 16.8333 95.4565 16.4472 95.3399 16.1472C95.2288 15.8417 95.0732 15.6167 94.8732 15.4722C94.6732 15.3222 94.4371 15.2472 94.1649 15.2472C93.9038 15.2472 93.6704 15.3222 93.4649 15.4722C93.2649 15.6167 93.1065 15.8417 92.9899 16.1472C92.8788 16.4472 92.8232 16.8333 92.8232 17.3056C92.8232 17.7722 92.8788 18.1583 92.9899 18.4639C93.1065 18.7695 93.2649 18.9972 93.4649 19.1472C93.6704 19.2917 93.9038 19.3639 94.1649 19.3639ZM97.6553 20.2222V15.7722H98.647V16.9972L98.5303 16.6389C98.6636 16.3389 98.872 16.1111 99.1553 15.9556C99.4442 15.8 99.8025 15.7222 100.23 15.7222V16.7139C100.186 16.7028 100.144 16.6972 100.105 16.6972C100.066 16.6917 100.028 16.6889 99.9886 16.6889C99.5942 16.6889 99.2803 16.8056 99.047 17.0389C98.8136 17.2667 98.697 17.6083 98.697 18.0639V20.2222H97.6553ZM102.952 20.2806C102.463 20.2806 102.085 20.1556 101.818 19.9056C101.552 19.65 101.418 19.275 101.418 18.7806V14.7889H102.46V18.7556C102.46 18.9667 102.513 19.1306 102.618 19.2472C102.729 19.3639 102.882 19.4222 103.077 19.4222C103.31 19.4222 103.504 19.3611 103.66 19.2389L103.952 19.9806C103.829 20.0806 103.679 20.1556 103.502 20.2056C103.324 20.2556 103.141 20.2806 102.952 20.2806ZM100.685 16.6389V15.8056H103.652V16.6389H100.685ZM104.376 20.2222V19.4972L106.693 17.2972C106.887 17.1139 107.032 16.9528 107.126 16.8139C107.221 16.675 107.282 16.5472 107.31 16.4306C107.343 16.3083 107.36 16.1945 107.36 16.0889C107.36 15.8222 107.268 15.6167 107.085 15.4722C106.901 15.3222 106.632 15.2472 106.276 15.2472C105.993 15.2472 105.735 15.2972 105.501 15.3972C105.273 15.4972 105.076 15.65 104.91 15.8556L104.151 15.2722C104.379 14.9667 104.685 14.7306 105.068 14.5639C105.457 14.3917 105.89 14.3056 106.368 14.3056C106.79 14.3056 107.157 14.375 107.468 14.5139C107.785 14.6472 108.026 14.8389 108.193 15.0889C108.365 15.3389 108.451 15.6361 108.451 15.9806C108.451 16.1695 108.426 16.3583 108.376 16.5472C108.326 16.7306 108.232 16.925 108.093 17.1306C107.954 17.3361 107.751 17.5667 107.485 17.8222L105.493 19.7139L105.268 19.3056H108.676V20.2222H104.376ZM110.235 20.2222V14.8056L110.71 15.2972H109.002V14.3889H111.318V20.2222H110.235ZM113.45 20.2222L115.859 14.8222L116.142 15.3056H112.834L113.35 14.7806V16.2972H112.342V14.3889H116.875V15.1139L114.609 20.2222H113.45ZM117.78 20.2806C117.591 20.2806 117.43 20.2167 117.297 20.0889C117.164 19.9556 117.097 19.7889 117.097 19.5889C117.097 19.3778 117.164 19.2111 117.297 19.0889C117.43 18.9611 117.591 18.8972 117.78 18.8972C117.969 18.8972 118.13 18.9611 118.264 19.0889C118.397 19.2111 118.464 19.3778 118.464 19.5889C118.464 19.7889 118.397 19.9556 118.264 20.0889C118.13 20.2167 117.969 20.2806 117.78 20.2806ZM119.815 20.2806C119.626 20.2806 119.465 20.2167 119.331 20.0889C119.198 19.9556 119.131 19.7889 119.131 19.5889C119.131 19.3778 119.198 19.2111 119.331 19.0889C119.465 18.9611 119.626 18.8972 119.815 18.8972C120.004 18.8972 120.165 18.9611 120.298 19.0889C120.431 19.2111 120.498 19.3778 120.498 19.5889C120.498 19.7889 120.431 19.9556 120.298 20.0889C120.165 20.2167 120.004 20.2806 119.815 20.2806ZM121.849 20.2806C121.66 20.2806 121.499 20.2167 121.366 20.0889C121.233 19.9556 121.166 19.7889 121.166 19.5889C121.166 19.3778 121.233 19.2111 121.366 19.0889C121.499 18.9611 121.66 18.8972 121.849 18.8972C122.038 18.8972 122.199 18.9611 122.333 19.0889C122.466 19.2111 122.533 19.3778 122.533 19.5889C122.533 19.7889 122.466 19.9556 122.333 20.0889C122.199 20.2167 122.038 20.2806 121.849 20.2806ZM125.477 20.2806C125.022 20.2806 124.616 20.1833 124.261 19.9889C123.905 19.7889 123.624 19.5167 123.419 19.1722C123.213 18.8278 123.111 18.4361 123.111 17.9972C123.111 17.5528 123.213 17.1611 123.419 16.8222C123.624 16.4778 123.905 16.2083 124.261 16.0139C124.616 15.8195 125.022 15.7222 125.477 15.7222C125.938 15.7222 126.347 15.8195 126.702 16.0139C127.063 16.2083 127.344 16.475 127.544 16.8139C127.749 17.1528 127.852 17.5472 127.852 17.9972C127.852 18.4361 127.749 18.8278 127.544 19.1722C127.344 19.5167 127.063 19.7889 126.702 19.9889C126.347 20.1833 125.938 20.2806 125.477 20.2806ZM125.477 19.3889C125.733 19.3889 125.961 19.3333 126.161 19.2222C126.361 19.1111 126.516 18.95 126.627 18.7389C126.744 18.5278 126.802 18.2806 126.802 17.9972C126.802 17.7083 126.744 17.4611 126.627 17.2556C126.516 17.0445 126.361 16.8833 126.161 16.7722C125.961 16.6611 125.736 16.6056 125.486 16.6056C125.23 16.6056 125.002 16.6611 124.802 16.7722C124.608 16.8833 124.452 17.0445 124.336 17.2556C124.219 17.4611 124.161 17.7083 124.161 17.9972C124.161 18.2806 124.219 18.5278 124.336 18.7389C124.452 18.95 124.608 19.1111 124.802 19.2222C125.002 19.3333 125.227 19.3889 125.477 19.3889ZM128.848 20.2222V15.7722H129.84V16.9972L129.723 16.6389C129.857 16.3389 130.065 16.1111 130.348 15.9556C130.637 15.8 130.996 15.7222 131.423 15.7222V16.7139C131.379 16.7028 131.337 16.6972 131.298 16.6972C131.259 16.6917 131.221 16.6889 131.182 16.6889C130.787 16.6889 130.473 16.8056 130.24 17.0389C130.007 17.2667 129.89 17.6083 129.89 18.0639V20.2222H128.848ZM131.964 20.2222V19.4972L134.281 17.2972C134.475 17.1139 134.62 16.9528 134.714 16.8139C134.809 16.675 134.87 16.5472 134.897 16.4306C134.931 16.3083 134.947 16.1945 134.947 16.0889C134.947 15.8222 134.856 15.6167 134.672 15.4722C134.489 15.3222 134.22 15.2472 133.864 15.2472C133.581 15.2472 133.322 15.2972 133.089 15.3972C132.861 15.4972 132.664 15.65 132.497 15.8556L131.739 15.2722C131.967 14.9667 132.272 14.7306 132.656 14.5639C133.045 14.3917 133.478 14.3056 133.956 14.3056C134.378 14.3056 134.745 14.375 135.056 14.5139C135.372 14.6472 135.614 14.8389 135.781 15.0889C135.953 15.3389 136.039 15.6361 136.039 15.9806C136.039 16.1695 136.014 16.3583 135.964 16.5472C135.914 16.7306 135.82 16.925 135.681 17.1306C135.542 17.3361 135.339 17.5667 135.072 17.8222L133.081 19.7139L132.856 19.3056H136.264V20.2222H131.964ZM138.723 20.3056C138.312 20.3056 137.909 20.2472 137.514 20.1306C137.126 20.0083 136.798 19.8417 136.531 19.6306L136.998 18.7889C137.209 18.9611 137.464 19.1 137.764 19.2056C138.064 19.3111 138.378 19.3639 138.706 19.3639C139.095 19.3639 139.398 19.2861 139.614 19.1306C139.831 18.9695 139.939 18.7528 139.939 18.4806C139.939 18.2139 139.839 18.0028 139.639 17.8472C139.439 17.6917 139.117 17.6139 138.673 17.6139H138.139V16.8722L139.806 14.8889L139.948 15.2972H136.814V14.3889H140.789V15.1139L139.123 17.0972L138.556 16.7639H138.881C139.598 16.7639 140.134 16.925 140.489 17.2472C140.851 17.5639 141.031 17.9722 141.031 18.4722C141.031 18.8 140.948 19.1028 140.781 19.3806C140.614 19.6583 140.359 19.8833 140.014 20.0556C139.676 20.2222 139.245 20.3056 138.723 20.3056Z" fill="#636363"/>
<path d="M93.0982 34.2222V27L93.7315 27.6556H91.4538V26.4445H94.5426V34.2222H93.0982ZM95.9744 32.4556V31.4556L99.8077 26.4445H101.352L97.5744 31.4556L96.8522 31.2333H103.019V32.4556H95.9744ZM100.241 34.2222V32.4556L100.286 31.2333V29.6667H101.641V34.2222H100.241ZM104.182 34.2222V26.4445H107.582C108.427 26.4445 109.168 26.6074 109.805 26.9333C110.442 27.2593 110.938 27.7111 111.293 28.2889C111.649 28.8667 111.827 29.5482 111.827 30.3333C111.827 31.1111 111.649 31.7926 111.293 32.3778C110.938 32.9556 110.442 33.4074 109.805 33.7333C109.168 34.0593 108.427 34.2222 107.582 34.2222H104.182ZM105.627 33H107.516C108.101 33 108.605 32.8889 109.027 32.6667C109.456 32.4445 109.786 32.1333 110.016 31.7333C110.253 31.3333 110.371 30.8667 110.371 30.3333C110.371 29.7926 110.253 29.3259 110.016 28.9333C109.786 28.5333 109.456 28.2222 109.027 28C108.605 27.7778 108.101 27.6667 107.516 27.6667H105.627V33ZM113.673 30.0667C113.421 30.0667 113.206 29.9815 113.029 29.8111C112.851 29.6333 112.762 29.4111 112.762 29.1445C112.762 28.863 112.851 28.6407 113.029 28.4778C113.206 28.3074 113.421 28.2222 113.673 28.2222C113.925 28.2222 114.14 28.3074 114.318 28.4778C114.495 28.6407 114.584 28.863 114.584 29.1445C114.584 29.4111 114.495 29.6333 114.318 29.8111C114.14 29.9815 113.925 30.0667 113.673 30.0667ZM113.673 34.3C113.421 34.3 113.206 34.2148 113.029 34.0445C112.851 33.8667 112.762 33.6445 112.762 33.3778C112.762 33.0963 112.851 32.8741 113.029 32.7111C113.206 32.5407 113.421 32.4556 113.673 32.4556C113.925 32.4556 114.14 32.5407 114.318 32.7111C114.495 32.8741 114.584 33.0963 114.584 33.3778C114.584 33.6445 114.495 33.8667 114.318 34.0445C114.14 34.2148 113.925 34.3 113.673 34.3ZM118.49 34.2222V33.2556L121.579 30.3222C121.838 30.0778 122.031 29.863 122.157 29.6778C122.282 29.4926 122.364 29.3222 122.401 29.1667C122.445 29.0037 122.468 28.8519 122.468 28.7111C122.468 28.3556 122.345 28.0815 122.101 27.8889C121.857 27.6889 121.497 27.5889 121.023 27.5889C120.645 27.5889 120.301 27.6556 119.99 27.7889C119.686 27.9222 119.423 28.1259 119.201 28.4L118.19 27.6222C118.494 27.2148 118.901 26.9 119.412 26.6778C119.931 26.4482 120.508 26.3333 121.145 26.3333C121.708 26.3333 122.197 26.4259 122.612 26.6111C123.034 26.7889 123.357 27.0445 123.579 27.3778C123.808 27.7111 123.923 28.1074 123.923 28.5667C123.923 28.8185 123.89 29.0704 123.823 29.3222C123.757 29.5667 123.631 29.8259 123.445 30.1C123.26 30.3741 122.99 30.6815 122.634 31.0222L119.979 33.5445L119.679 33H124.223V34.2222H118.49ZM128.179 34.3333C127.535 34.3333 126.975 34.237 126.501 34.0445C126.027 33.8519 125.661 33.5815 125.401 33.2333C125.142 32.8778 125.012 32.463 125.012 31.9889C125.012 31.5148 125.138 31.1148 125.39 30.7889C125.642 30.463 126.005 30.2148 126.479 30.0445C126.953 29.8741 127.52 29.7889 128.179 29.7889C128.838 29.7889 129.405 29.8741 129.879 30.0445C130.361 30.2148 130.727 30.4667 130.979 30.8C131.238 31.1259 131.368 31.5222 131.368 31.9889C131.368 32.463 131.235 32.8778 130.968 33.2333C130.709 33.5815 130.338 33.8519 129.857 34.0445C129.383 34.237 128.824 34.3333 128.179 34.3333ZM128.179 33.2C128.712 33.2 129.135 33.0889 129.446 32.8667C129.757 32.6445 129.912 32.337 129.912 31.9445C129.912 31.5593 129.757 31.2556 129.446 31.0333C129.135 30.8111 128.712 30.7 128.179 30.7C127.646 30.7 127.227 30.8111 126.924 31.0333C126.62 31.2556 126.468 31.5593 126.468 31.9445C126.468 32.337 126.62 32.6445 126.924 32.8667C127.227 33.0889 127.646 33.2 128.179 33.2ZM128.179 30.5445C127.579 30.5445 127.064 30.4667 126.635 30.3111C126.205 30.1482 125.872 29.9148 125.635 29.6111C125.405 29.3 125.29 28.9296 125.29 28.5C125.29 28.0556 125.409 27.6741 125.646 27.3556C125.89 27.0296 126.231 26.7778 126.668 26.6C127.105 26.4222 127.609 26.3333 128.179 26.3333C128.757 26.3333 129.264 26.4222 129.701 26.6C130.138 26.7778 130.479 27.0296 130.724 27.3556C130.968 27.6741 131.09 28.0556 131.09 28.5C131.09 28.9296 130.972 29.3 130.735 29.6111C130.505 29.9148 130.172 30.1482 129.735 30.3111C129.298 30.4667 128.779 30.5445 128.179 30.5445ZM128.179 29.6556C128.638 29.6556 129.001 29.5593 129.268 29.3667C129.535 29.1667 129.668 28.9 129.668 28.5667C129.668 28.2185 129.531 27.9482 129.257 27.7556C128.983 27.563 128.624 27.4667 128.179 27.4667C127.735 27.4667 127.379 27.563 127.112 27.7556C126.846 27.9482 126.712 28.2185 126.712 28.5667C126.712 28.9 126.842 29.1667 127.101 29.3667C127.368 29.5593 127.727 29.6556 128.179 29.6556ZM132.469 35.9L133.114 33.4445L133.303 34.2667C133.043 34.2667 132.825 34.1889 132.647 34.0333C132.477 33.8704 132.391 33.6519 132.391 33.3778C132.391 33.0963 132.477 32.8741 132.647 32.7111C132.825 32.5407 133.04 32.4556 133.291 32.4556C133.551 32.4556 133.766 32.5407 133.936 32.7111C134.106 32.8815 134.191 33.1037 134.191 33.3778C134.191 33.4519 134.184 33.5333 134.169 33.6222C134.154 33.7037 134.128 33.8 134.091 33.9111C134.062 34.0222 134.01 34.163 133.936 34.3333L133.369 35.9H132.469ZM138.357 34.3333C137.713 34.3333 137.153 34.237 136.679 34.0445C136.205 33.8519 135.839 33.5815 135.579 33.2333C135.32 32.8778 135.19 32.463 135.19 31.9889C135.19 31.5148 135.316 31.1148 135.568 30.7889C135.82 30.463 136.183 30.2148 136.657 30.0445C137.131 29.8741 137.698 29.7889 138.357 29.7889C139.016 29.7889 139.583 29.8741 140.057 30.0445C140.539 30.2148 140.905 30.4667 141.157 30.8C141.416 31.1259 141.546 31.5222 141.546 31.9889C141.546 32.463 141.413 32.8778 141.146 33.2333C140.887 33.5815 140.516 33.8519 140.035 34.0445C139.561 34.237 139.002 34.3333 138.357 34.3333ZM138.357 33.2C138.89 33.2 139.313 33.0889 139.624 32.8667C139.935 32.6445 140.09 32.337 140.09 31.9445C140.09 31.5593 139.935 31.2556 139.624 31.0333C139.313 30.8111 138.89 30.7 138.357 30.7C137.824 30.7 137.405 30.8111 137.102 31.0333C136.798 31.2556 136.646 31.5593 136.646 31.9445C136.646 32.337 136.798 32.6445 137.102 32.8667C137.405 33.0889 137.824 33.2 138.357 33.2ZM138.357 30.5445C137.757 30.5445 137.242 30.4667 136.813 30.3111C136.383 30.1482 136.05 29.9148 135.813 29.6111C135.583 29.3 135.468 28.9296 135.468 28.5C135.468 28.0556 135.587 27.6741 135.824 27.3556C136.068 27.0296 136.409 26.7778 136.846 26.6C137.283 26.4222 137.787 26.3333 138.357 26.3333C138.935 26.3333 139.442 26.4222 139.879 26.6C140.316 26.7778 140.657 27.0296 140.902 27.3556C141.146 27.6741 141.268 28.0556 141.268 28.5C141.268 28.9296 141.15 29.3 140.913 29.6111C140.683 29.9148 140.35 30.1482 139.913 30.3111C139.476 30.4667 138.957 30.5445 138.357 30.5445ZM138.357 29.6556C138.816 29.6556 139.179 29.5593 139.446 29.3667C139.713 29.1667 139.846 28.9 139.846 28.5667C139.846 28.2185 139.709 27.9482 139.435 27.7556C139.161 27.563 138.802 27.4667 138.357 27.4667C137.913 27.4667 137.557 27.563 137.29 27.7556C137.024 27.9482 136.89 28.2185 136.89 28.5667C136.89 28.9 137.02 29.1667 137.279 29.3667C137.546 29.5593 137.905 29.6556 138.357 29.6556ZM143.783 34.2222L146.994 27.0222L147.372 27.6667H142.961L143.65 26.9667V28.9889H142.305V26.4445H148.35V27.4111L145.328 34.2222H143.783ZM151.626 34.3333C151.077 34.3333 150.54 34.2556 150.014 34.1C149.496 33.937 149.059 33.7148 148.703 33.4333L149.314 32.3111C149.596 32.5407 149.937 32.7259 150.337 32.8667C150.744 33.0074 151.166 33.0778 151.603 33.0778C152.114 33.0778 152.514 32.9704 152.803 32.7556C153.1 32.5407 153.248 32.2519 153.248 31.8889C153.248 31.6445 153.185 31.4296 153.059 31.2445C152.94 31.0593 152.726 30.9185 152.414 30.8222C152.111 30.7259 151.692 30.6778 151.159 30.6778H149.281L149.681 26.4445H154.248V27.6556H150.214L150.97 26.9667L150.67 30.1333L149.914 29.4556H151.481C152.251 29.4556 152.87 29.5593 153.337 29.7667C153.811 29.9667 154.155 30.2482 154.37 30.6111C154.592 30.9667 154.703 31.3741 154.703 31.8333C154.703 32.2852 154.592 32.7 154.37 33.0778C154.148 33.4556 153.807 33.7593 153.348 33.9889C152.896 34.2185 152.322 34.3333 151.626 34.3333Z" fill="#3C3C3C"/>
<path d="M173.262 28V27.275L175.579 25.075C175.774 24.8917 175.918 24.7306 176.012 24.5917C176.107 24.4528 176.168 24.325 176.196 24.2083C176.229 24.0861 176.246 23.9722 176.246 23.8667C176.246 23.6 176.154 23.3944 175.971 23.25C175.787 23.1 175.518 23.025 175.162 23.025C174.879 23.025 174.621 23.075 174.387 23.175C174.16 23.275 173.962 23.4278 173.796 23.6333L173.037 23.05C173.265 22.7444 173.571 22.5083 173.954 22.3417C174.343 22.1694 174.776 22.0833 175.254 22.0833C175.676 22.0833 176.043 22.1528 176.354 22.2917C176.671 22.425 176.912 22.6167 177.079 22.8667C177.251 23.1167 177.337 23.4139 177.337 23.7583C177.337 23.9472 177.312 24.1361 177.262 24.325C177.212 24.5083 177.118 24.7028 176.979 24.9083C176.84 25.1139 176.637 25.3444 176.371 25.6L174.379 27.4917L174.154 27.0833H177.562V28H173.262ZM178.919 28.0583C178.73 28.0583 178.569 27.9944 178.436 27.8667C178.302 27.7333 178.236 27.5667 178.236 27.3667C178.236 27.1556 178.302 26.9889 178.436 26.8667C178.569 26.7389 178.73 26.675 178.919 26.675C179.108 26.675 179.269 26.7389 179.402 26.8667C179.536 26.9889 179.602 27.1556 179.602 27.3667C179.602 27.5667 179.536 27.7333 179.402 27.8667C179.269 27.9944 179.108 28.0583 178.919 28.0583ZM182.237 28.0833C181.826 28.0833 181.423 28.025 181.029 27.9083C180.64 27.7861 180.312 27.6194 180.045 27.4083L180.504 26.5667C180.715 26.7389 180.97 26.8778 181.27 26.9833C181.576 27.0889 181.892 27.1417 182.22 27.1417C182.604 27.1417 182.904 27.0611 183.12 26.9C183.342 26.7389 183.454 26.5222 183.454 26.25C183.454 26.0667 183.406 25.9056 183.312 25.7667C183.223 25.6278 183.062 25.5222 182.829 25.45C182.601 25.3778 182.287 25.3417 181.887 25.3417H180.479L180.779 22.1667H184.204V23.075H181.179L181.745 22.5583L181.52 24.9333L180.954 24.425H182.129C182.706 24.425 183.17 24.5028 183.52 24.6583C183.876 24.8083 184.134 25.0194 184.295 25.2917C184.462 25.5583 184.545 25.8639 184.545 26.2083C184.545 26.5472 184.462 26.8583 184.295 27.1417C184.129 27.425 183.873 27.6528 183.529 27.825C183.19 27.9972 182.759 28.0833 182.237 28.0833ZM184.781 28L187.239 24.6167V25.4333L184.897 22.1667H186.122L187.864 24.5833L187.364 24.5917L189.089 22.1667H190.264L187.939 25.375V24.5917L190.414 28H189.164L187.331 25.4333H187.822L186.014 28H184.781ZM193.57 28V22.1667H196.304C197.004 22.1667 197.537 22.3056 197.904 22.5833C198.27 22.8556 198.454 23.2222 198.454 23.6833C198.454 23.9944 198.381 24.2611 198.237 24.4833C198.092 24.7 197.898 24.8694 197.654 24.9917C197.415 25.1083 197.154 25.1667 196.87 25.1667L197.02 24.8667C197.348 24.8667 197.642 24.9278 197.904 25.05C198.165 25.1667 198.37 25.3389 198.52 25.5667C198.676 25.7944 198.754 26.0778 198.754 26.4167C198.754 26.9167 198.562 27.3056 198.179 27.5833C197.795 27.8611 197.226 28 196.47 28H193.57ZM194.654 27.15H196.404C196.809 27.15 197.12 27.0833 197.337 26.95C197.554 26.8167 197.662 26.6028 197.662 26.3083C197.662 26.0194 197.554 25.8083 197.337 25.675C197.12 25.5361 196.809 25.4667 196.404 25.4667H194.57V24.625H196.187C196.565 24.625 196.854 24.5583 197.054 24.425C197.259 24.2917 197.362 24.0917 197.362 23.825C197.362 23.5528 197.259 23.35 197.054 23.2167C196.854 23.0833 196.565 23.0167 196.187 23.0167H194.654V27.15ZM201.81 28.0583C201.354 28.0583 200.949 27.9611 200.593 27.7667C200.237 27.5667 199.957 27.2944 199.751 26.95C199.546 26.6056 199.443 26.2139 199.443 25.775C199.443 25.3306 199.546 24.9389 199.751 24.6C199.957 24.2556 200.237 23.9861 200.593 23.7917C200.949 23.5972 201.354 23.5 201.81 23.5C202.271 23.5 202.679 23.5972 203.035 23.7917C203.396 23.9861 203.676 24.2528 203.876 24.5917C204.082 24.9306 204.185 25.325 204.185 25.775C204.185 26.2139 204.082 26.6056 203.876 26.95C203.676 27.2944 203.396 27.5667 203.035 27.7667C202.679 27.9611 202.271 28.0583 201.81 28.0583ZM201.81 27.1667C202.065 27.1667 202.293 27.1111 202.493 27C202.693 26.8889 202.849 26.7278 202.96 26.5167C203.076 26.3056 203.135 26.0583 203.135 25.775C203.135 25.4861 203.076 25.2389 202.96 25.0333C202.849 24.8222 202.693 24.6611 202.493 24.55C202.293 24.4389 202.068 24.3833 201.818 24.3833C201.562 24.3833 201.335 24.4389 201.135 24.55C200.94 24.6611 200.785 24.8222 200.668 25.0333C200.551 25.2389 200.493 25.4861 200.493 25.775C200.493 26.0583 200.551 26.3056 200.668 26.5167C200.785 26.7278 200.94 26.8889 201.135 27C201.335 27.1111 201.56 27.1667 201.81 27.1667ZM207.181 28.0583C206.725 28.0583 206.32 27.9611 205.964 27.7667C205.609 27.5667 205.328 27.2944 205.122 26.95C204.917 26.6056 204.814 26.2139 204.814 25.775C204.814 25.3306 204.917 24.9389 205.122 24.6C205.328 24.2556 205.609 23.9861 205.964 23.7917C206.32 23.5972 206.725 23.5 207.181 23.5C207.642 23.5 208.05 23.5972 208.406 23.7917C208.767 23.9861 209.047 24.2528 209.247 24.5917C209.453 24.9306 209.556 25.325 209.556 25.775C209.556 26.2139 209.453 26.6056 209.247 26.95C209.047 27.2944 208.767 27.5667 208.406 27.7667C208.05 27.9611 207.642 28.0583 207.181 28.0583ZM207.181 27.1667C207.436 27.1667 207.664 27.1111 207.864 27C208.064 26.8889 208.22 26.7278 208.331 26.5167C208.447 26.3056 208.506 26.0583 208.506 25.775C208.506 25.4861 208.447 25.2389 208.331 25.0333C208.22 24.8222 208.064 24.6611 207.864 24.55C207.664 24.4389 207.439 24.3833 207.189 24.3833C206.934 24.3833 206.706 24.4389 206.506 24.55C206.311 24.6611 206.156 24.8222 206.039 25.0333C205.922 25.2389 205.864 25.4861 205.864 25.775C205.864 26.0583 205.922 26.3056 206.039 26.5167C206.156 26.7278 206.311 26.8889 206.506 27C206.706 27.1111 206.931 27.1667 207.181 27.1667ZM211.927 28.0583C211.555 28.0583 211.196 28.0111 210.852 27.9167C210.513 27.8167 210.244 27.6972 210.044 27.5583L210.444 26.7667C210.644 26.8944 210.882 27 211.16 27.0833C211.438 27.1667 211.716 27.2083 211.994 27.2083C212.321 27.2083 212.557 27.1639 212.702 27.075C212.852 26.9861 212.927 26.8667 212.927 26.7167C212.927 26.5944 212.877 26.5028 212.777 26.4417C212.677 26.375 212.546 26.325 212.385 26.2917C212.224 26.2583 212.044 26.2278 211.844 26.2C211.649 26.1722 211.452 26.1361 211.252 26.0917C211.057 26.0417 210.88 25.9722 210.719 25.8833C210.557 25.7889 210.427 25.6639 210.327 25.5083C210.227 25.3528 210.177 25.1472 210.177 24.8917C210.177 24.6083 210.257 24.3639 210.419 24.1583C210.58 23.9472 210.805 23.7861 211.094 23.675C211.388 23.5583 211.735 23.5 212.135 23.5C212.435 23.5 212.738 23.5333 213.044 23.6C213.349 23.6667 213.602 23.7611 213.802 23.8833L213.402 24.675C213.191 24.5472 212.977 24.4611 212.76 24.4167C212.549 24.3667 212.338 24.3417 212.127 24.3417C211.81 24.3417 211.574 24.3889 211.419 24.4833C211.269 24.5778 211.194 24.6972 211.194 24.8417C211.194 24.975 211.244 25.075 211.344 25.1417C211.444 25.2083 211.574 25.2611 211.735 25.3C211.896 25.3389 212.074 25.3722 212.269 25.4C212.469 25.4222 212.666 25.4583 212.86 25.5083C213.055 25.5583 213.232 25.6278 213.394 25.7167C213.56 25.8 213.694 25.9194 213.794 26.075C213.894 26.2306 213.944 26.4333 213.944 26.6833C213.944 26.9611 213.86 27.2028 213.694 27.4083C213.532 27.6139 213.302 27.775 213.002 27.8917C212.702 28.0028 212.344 28.0583 211.927 28.0583ZM216.516 28.0583C216.027 28.0583 215.649 27.9333 215.382 27.6833C215.116 27.4278 214.982 27.0528 214.982 26.5583V22.5667H216.024V26.5333C216.024 26.7444 216.077 26.9083 216.182 27.025C216.293 27.1417 216.446 27.2 216.641 27.2C216.874 27.2 217.068 27.1389 217.224 27.0167L217.516 27.7583C217.393 27.8583 217.243 27.9333 217.066 27.9833C216.888 28.0333 216.705 28.0583 216.516 28.0583ZM214.249 24.4167V23.5833H217.216V24.4167H214.249Z" fill="url(#paint3_linear_618_4883)"/>
<path d="M9.925 34L12.075 16.5H14.35L12.2 34H9.925ZM0.575 29.75V27.475H16.375V29.75H0.575ZM3.425 34L5.6 16.5H7.875L5.7 34H3.425ZM1.425 23.025V20.75H17.175L17.2 23.025H1.425ZM25.5576 34V31.825L32.5076 25.225C33.091 24.675 33.5243 24.1917 33.8076 23.775C34.091 23.3583 34.2743 22.975 34.3576 22.625C34.4576 22.2583 34.5076 21.9167 34.5076 21.6C34.5076 20.8 34.2326 20.1833 33.6826 19.75C33.1326 19.3 32.3243 19.075 31.2576 19.075C30.4076 19.075 29.6326 19.225 28.9326 19.525C28.2493 19.825 27.6576 20.2833 27.1576 20.9L24.8826 19.15C25.566 18.2333 26.4826 17.525 27.6326 17.025C28.7993 16.5083 30.0993 16.25 31.5326 16.25C32.7993 16.25 33.8993 16.4583 34.8326 16.875C35.7826 17.275 36.5076 17.85 37.0076 18.6C37.5243 19.35 37.7826 20.2417 37.7826 21.275C37.7826 21.8417 37.7076 22.4083 37.5576 22.975C37.4076 23.525 37.1243 24.1083 36.7076 24.725C36.291 25.3417 35.6826 26.0333 34.8826 26.8L28.9076 32.475L28.2326 31.25H38.4576V34H25.5576Z" fill="#3C3C3C"/>
<defs>
<linearGradient id="paint0_linear_618_4883" x1="69.2026" y1="51.4648" x2="69.2026" y2="10.8587" gradientUnits="userSpaceOnUse">
<stop stop-color="white"/>
<stop offset="1" stop-color="#414141"/>
</linearGradient>
<linearGradient id="paint1_linear_618_4883" x1="63.269" y1="23.9897" x2="75.5001" y2="25.415" gradientUnits="userSpaceOnUse">
<stop stop-color="#FF8E04"/>
<stop offset="1" stop-color="#E1FF29"/>
</linearGradient>
<linearGradient id="paint2_linear_618_4883" x1="81.448" y1="17.7279" x2="68.4723" y2="39.4778" gradientUnits="userSpaceOnUse">
<stop stop-color="#AEAEAE"/>
<stop offset="0.478391" stop-color="white"/>
<stop offset="1" stop-color="#B7B7B7"/>
</linearGradient>
<linearGradient id="paint3_linear_618_4883" x1="170.595" y1="24" x2="208.029" y2="44.9835" gradientUnits="userSpaceOnUse">
<stop stop-color="#F7931A"/>
<stop offset="1" stop-color="#AC1CC7"/>
</linearGradient>
</defs>
</svg>
