<svg width="24" height="15" viewBox="0 0 24 15" fill="none" xmlns="http://www.w3.org/2000/svg">
<path fill-rule="evenodd" clip-rule="evenodd" d="M9.39749 1.13014L8.72506 0C6.82051 0.34527 5.77202 0.580978 3.95696 1.13014C0.932842 5.33679 0.337998 7.85608 0.533709 12.5342C2.65859 13.7786 3.94601 14.3127 6.40214 15L7.62473 13.3048L5.66859 12.5342L6.21875 12.1233C10.7306 13.5998 13.2604 13.7016 17.7722 12.1233L18.2613 12.5342L16.3663 13.3048L17.5277 15C19.839 14.4163 21.1284 13.8399 23.3961 12.5342C23.8388 7.99732 22.9012 5.50907 19.9118 1.13014C18.1655 0.502807 17.1685 0.187634 15.2048 0L14.5324 1.13014C12.5845 0.80317 11.4723 0.718251 9.39749 1.13014ZM17.8942 8.21739C17.8942 9.35222 16.9637 10.2722 15.8158 10.2722C14.6679 10.2722 13.7374 9.35222 13.7374 8.21739C13.7374 7.08256 14.6679 6.1626 15.8158 6.1626C16.9637 6.1626 17.8942 7.08256 17.8942 8.21739ZM8.1135 10.2722C9.26138 10.2722 10.1919 9.35222 10.1919 8.21739C10.1919 7.08256 9.26138 6.1626 8.1135 6.1626C6.96563 6.1626 6.0351 7.08256 6.0351 8.21739C6.0351 9.35222 6.96563 10.2722 8.1135 10.2722Z" fill="#B5B5B5"/>
</svg>
