<svg width="40" height="40" viewBox="0 0 40 40" fill="none" xmlns="http://www.w3.org/2000/svg">
    <circle cx="20" cy="20" r="19.5" fill="#fff" stroke="#CACACA"/>
    <path fill-rule="evenodd" clip-rule="evenodd" d="M11.556 12.221c0-.368.298-.666.666-.666h2.92c.369 0 .668.298.668.666v3.011a.667.667 0 0 1-.667.667h-2.92a.667.667 0 0 1-.667-.667v-3.01zm6.317 0c0-.368.299-.666.667-.666h2.92c.368 0 .667.298.667.667v3.01a.667.667 0 0 1-.667.667h-2.92a.667.667 0 0 1-.667-.667v-3.01zm6.985-.666a.667.667 0 0 0-.667.667v3.01c0 .369.298.667.667.667h2.92a.667.667 0 0 0 .667-.667v-3.01a.667.667 0 0 0-.667-.667h-2.92zm-13.302 6.94c0-.369.298-.668.666-.668h2.92c.369 0 .668.299.668.667v3.011a.667.667 0 0 1-.667.667h-2.92a.667.667 0 0 1-.667-.667v-3.01zm6.984-.668a.667.667 0 0 0-.667.667v3.011c0 .368.299.667.667.667h2.92a.667.667 0 0 0 .667-.667v-3.01a.667.667 0 0 0-.667-.668h-2.92zm5.65.667c0-.368.3-.666.668-.666h2.92c.368 0 .667.298.667.666v3.011a.667.667 0 0 1-.667.667h-2.92a.667.667 0 0 1-.667-.667v-3.01zM12.223 24.1a.667.667 0 0 0-.666.666v3.011c0 .368.298.667.666.667h2.92a.667.667 0 0 0 .668-.667v-3.01a.667.667 0 0 0-.667-.667h-2.92zm5.651.666c0-.368.299-.666.667-.666h2.92c.368 0 .667.298.667.666v3.011a.667.667 0 0 1-.667.667h-2.92a.667.667 0 0 1-.667-.667v-3.01zm6.985-.666a.667.667 0 0 0-.667.666v3.011c0 .368.298.667.667.667h2.92a.667.667 0 0 0 .667-.667v-3.01a.667.667 0 0 0-.667-.667h-2.92z" fill="url(#d27h7crt7a)"/>
    <defs>
        <linearGradient id="d27h7crt7a" x1="28.445" y1="29.332" x2="16" y2="15.999" gradientUnits="userSpaceOnUse">
            <stop stop-color="#DC1FFF"/>
            <stop offset="1" stop-color="#F7931A"/>
        </linearGradient>
    </defs>
</svg>
