<svg width="30" height="30" viewBox="0 0 30 30" fill="none" xmlns="http://www.w3.org/2000/svg">
    <path d="M15 30c8.284 0 15-6.716 15-15 0-8.284-6.716-15-15-15C6.716 0 0 6.716 0 15c0 8.284 6.716 15 15 15z" fill="#2F3FDA"/>
    <path d="M3.842 19.903a4.481 4.481 0 0 1 2.432 0 4.114 4.114 0 0 1 1.766.94c.376.356.404.488.695.676a2.47 2.47 0 0 0 2.132.122" stroke="#fff" stroke-width=".167" stroke-miterlimit="10"/>
    <path d="M8.529 21.32a3.174 3.174 0 0 1 2.254-.844 5.82 5.82 0 0 1 1.465.422c.357.122.535.216 1.4.564l.78.31M7.909 22.89a5.23 5.23 0 0 1 1.784-.15c.763.119 1.508.333 2.217.638 1.165.423 1.343.573 1.813.564.6-.039 1.17-.28 1.615-.686M14.051 23.096c.183-.259.438-.458.733-.573a1.775 1.775 0 0 1 1.306.066c.375.16.394.32.723.423.332.084.682.055.995-.085M19.01 23.942c.179-.26.43-.46.724-.573.43-.145.9-.122 1.315.065.375.16.394.32.723.423.33.082.676.052.986-.084M22.073 21.068a3.25 3.25 0 0 1 1.484-.752 3.062 3.062 0 0 1 1.972.254M16.56 21.283a3.438 3.438 0 0 1 1.878-.78 2.912 2.912 0 0 1 2.132.743" stroke="#fff" stroke-width=".167" stroke-miterlimit="10"/>
    <path d="M11.421 22.345a3.428 3.428 0 0 0 1.729 0 13.136 13.136 0 0 0 1.53-.686 3.898 3.898 0 0 1 1.814-.441 2.64 2.64 0 0 1 1.568.77" stroke="#fff" stroke-width=".167" stroke-miterlimit="10"/>
    <path d="M16.728 22.167a3.428 3.428 0 0 0 1.728 0 15.426 15.426 0 0 0 1.532-.677 3.813 3.813 0 0 1 1.812-.45 2.667 2.667 0 0 1 1.569.77" stroke="#fff" stroke-width=".167" stroke-miterlimit="10"/>
    <path d="M10.172 17.79a5.541 5.541 0 0 1 .207-4.903 5.57 5.57 0 0 1 4.414-2.612 5.636 5.636 0 0 1 4.114 1.654 5.71 5.71 0 0 1 1.184 5.86l1.784-.112a6.915 6.915 0 0 0 .292-2.02 7.458 7.458 0 0 0-1.607-4.49 6.193 6.193 0 0 0-.939-1.032 7.74 7.74 0 0 0-3.935-1.54h-.592s-.338 0-.695.056a8.603 8.603 0 0 0-3.889 1.559 6.934 6.934 0 0 0-.939.939 7.946 7.946 0 0 0-1.55 3.823v.639c-.01.2-.01.4 0 .6.036.41.108.816.216 1.212a.59.59 0 0 0 .085.31l1.85.057zM14.596 5.692a.808.808 0 0 1 .536-.197.695.695 0 0 1 .46.169l-.188 2.3h-.498l-.31-2.272zM14.897 7.965l-.367.32a.133.133 0 0 0 0 .065.338.338 0 0 0 0 .197h1.306a.272.272 0 0 0 0-.197.179.179 0 0 0-.047-.085l-.348-.281-.544-.02zM7.664 8.904a.77.77 0 0 1 .245-.507.714.714 0 0 1 .45-.197l1.466 1.784-.367.357-1.794-1.437z" fill="#fff" stroke="#fff" stroke-width=".333" stroke-miterlimit="10"/>
    <path d="M9.458 10.332v.48a.15.15 0 0 0 0 .065.32.32 0 0 0 .132.14c.15-.168.32-.347.507-.525.134-.139.275-.27.423-.395a.328.328 0 0 0-.141-.14h-.535l-.386.375zM22.43 8.895a.789.789 0 0 0-.244-.498.836.836 0 0 0-.451-.197l-1.466 1.794.367.347 1.794-1.446z" fill="#fff" stroke="#fff" stroke-width=".333" stroke-miterlimit="10"/>
    <path d="M20.626 10.322V10.877a.654.654 0 0 1-.14.14 6.644 6.644 0 0 0-.508-.535 8.21 8.21 0 0 0-.423-.394.33.33 0 0 1 .141-.141h.085l.45.047.395.329zM5.138 16.118a.77.77 0 0 1-.01-.996l2.349.226v.507l-2.34.263z" fill="#fff" stroke="#fff" stroke-width=".333" stroke-miterlimit="10"/>
    <path d="m7.42 15.855.31.375h.066a.459.459 0 0 0 .197 0 6.252 6.252 0 0 1 0-.732v-.582a.338.338 0 0 0-.197 0 .15.15 0 0 0-.075 0l-.244.422-.057.517zM25.05 16.108a.817.817 0 0 0 .188-.535.732.732 0 0 0-.178-.46l-2.302.225v.507l2.292.263zM22.768 15.845l-.31.376h-.075a.33.33 0 0 1-.188 0v-.733a5.77 5.77 0 0 0 0-.582c.067-.02.139-.02.206 0l.104.066.29.357-.027.516z" fill="#fff" stroke="#fff" stroke-width=".333" stroke-miterlimit="10"/>
    <path d="M14.972 26.835c6.458 0 11.694-5.278 11.694-11.788 0-6.51-5.236-11.788-11.694-11.788-6.459 0-11.694 5.278-11.694 11.788 0 6.51 5.235 11.788 11.694 11.788z" stroke="#fff" stroke-width=".667" stroke-miterlimit="10"/>
    <path d="M14.972 28.253c7.22 0 13.074-5.9 13.074-13.178 0-7.278-5.853-13.178-13.074-13.178S1.897 7.797 1.897 15.075c0 7.278 5.854 13.178 13.075 13.178z" stroke="#fff" stroke-width=".133" stroke-miterlimit="10"/>
    <path opacity=".43" d="M11.769 17.377c0-.066.291-.141.376-.17.526-.122 1.587-.244 2.348-.319.573-.056 2.536-.253 3.475-.282.14 0 .676 0 .714.141.038.141 0 .122 0 .141a.488.488 0 0 1-.291.15c-.188 0-.376.113-.573.141-.198.029-.658.104-.996.141l-.62.066-.939.113a19.9 19.9 0 0 1-3.034 0c-.084.01-.17.01-.253 0-.132-.057-.207-.085-.207-.122z" fill="#3F200B"/>
    <path d="M10.736 14.662c.037-.067.082-.13.131-.188a.874.874 0 0 1 .367-.235c.23-.09.465-.166.704-.225.94-.197.676-.15 1.137-.235l.883-.16c.394-.056.685-.075 1.155-.112a22.234 22.234 0 0 1 3.203 0l.253.046c.197.036.389.093.573.17.052.019.097.051.132.093.037.03.066.069.084.113v.31c-.106.839-.263 1.67-.47 2.49a.42.42 0 0 1-.056.112.49.49 0 0 1-.15.113 1.925 1.925 0 0 1-.235.093c-.654.166-1.32.285-1.991.357l-1.503.113c-1.24.075-1.878.075-2.254.066h-.62a.525.525 0 0 1-.423-.225c0-.17-.103-.339-.16-.508-.262-.78-.488-1.503-.76-2.188z" fill="#fff"/>
    <path d="M12.37 13.93a4.31 4.31 0 0 1 1.052-.864c.37-.192.77-.317 1.184-.367a3.839 3.839 0 0 1 1.37 0c.327.076.643.192.94.347.219.107.429.23.63.367a21.21 21.21 0 0 0-2.818.103 21.81 21.81 0 0 0-2.358.413z" fill="#fff"/>
    <path d="M19.274 14.352a2.966 2.966 0 0 0-1.062-.244v-.197c.373.011.74.094 1.08.244a.29.29 0 0 1 0 .094.205.205 0 0 1-.018.103zM19.18 14.972a2.686 2.686 0 0 0-1.005-.253v-.188c.355 0 .707.074 1.033.216a.425.425 0 0 1 0 .103.375.375 0 0 1-.028.122zM16.606 14.634a11.853 11.853 0 0 0-5.485.939.394.394 0 0 1-.066-.113.152.152 0 0 1 0-.084 12.21 12.21 0 0 1 5.636-.94l-.085.198z" fill="#2F3FDA"/>
    <path d="M16.87 14.033a13.723 13.723 0 0 0-5.956.94.485.485 0 0 1-.066-.104.207.207 0 0 1 0-.094 14.156 14.156 0 0 1 6.078-.94l-.057.198zM17.189 14.352a.16.16 0 0 0 .103.056H17.715c.06.018.114.05.16.094.065.062.114.14.14.225a.545.545 0 0 1 .056.282.413.413 0 0 1-.3.348.563.563 0 0 1-.282 0h-.225a.123.123 0 0 0-.085 0v.084l-.122-.103v-.366l.16-.085a.33.33 0 0 0 0 .17.253.253 0 0 0 .084.112.31.31 0 0 0 .122.066.32.32 0 0 0 .141 0 .375.375 0 0 0 .141 0 .347.347 0 0 0 .132-.066.215.215 0 0 0 .065-.066.16.16 0 0 0 0-.094.272.272 0 0 0 0-.084.253.253 0 0 0-.094-.047l-.197-.085-.197-.056-.179-.047a.338.338 0 0 1-.14-.075.413.413 0 0 1-.075-.104.688.688 0 0 1 0-.131.615.615 0 0 1 0-.132.47.47 0 0 1 .047-.122.424.424 0 0 1 .14-.169.367.367 0 0 1 .188-.075.423.423 0 0 1 .216 0 .507.507 0 0 1 .197.15l.057-.093.15.065v.3l-.14.114a.338.338 0 0 0-.067-.17.5.5 0 0 0-.131-.103.33.33 0 0 0-.17-.047.3.3 0 0 0-.159 0 .254.254 0 0 0-.122.066.206.206 0 0 0-.047.132c0 .019.003.038.01.056z" fill="#2F3FDA"/>
</svg>
