<svg width="48" height="48" viewBox="0 0 48 48" fill="none" xmlns="http://www.w3.org/2000/svg">
    <rect x=".5" y=".5" width="47" height="47" rx="23.5" fill="url(#ov4xidz0ba)" fill-opacity=".6"/>
    <rect x=".5" y=".5" width="47" height="47" rx="23.5" stroke="url(#2qfu52lk6b)"/>
    <path d="M12 14.547s1.247-.229 1.782-.764c.535-.535.764-1.782.764-1.782s.228 1.247.763 1.782c.536.536 1.782.764 1.782.764s-1.246.228-1.782.764c-.535.535-.763 1.782-.763 1.782s-.229-1.247-.764-1.782c-.535-.536-1.782-.764-1.782-.764zM30 28.727s2.315-.425 3.31-1.419c.993-.994 1.417-3.309 1.417-3.309s.424 2.315 1.419 3.31c.994.993 3.309 1.418 3.309 1.418s-2.315.424-3.31 1.418c-.994.994-1.418 3.309-1.418 3.309s-.424-2.315-1.418-3.31C32.315 29.152 30 28.728 30 28.728zM24.95 23.836l8.54-10.177a1.306 1.306 0 1 0-2.001-1.679l-8.54 10.177c-1.969-.792-4.143.19-5.682 1.759l6.938 5.822c1.279-1.788 1.868-4.1.745-5.902zM20.89 37.767l2.702-6.84-7.39-6.201-6.267 3.849a.654.654 0 0 0-.078 1.057l6.617 6.07a.5.5 0 0 0 .663.01l3.239-2.775c.09-.077.215.038.146.134l-2.41 3.373a.2.2 0 0 0 .042.275l1.708 1.308a.655.655 0 0 0 1.028-.26z" fill="#fff"/>
    <defs>
        <linearGradient id="ov4xidz0ba" x1="0" y1="19.2" x2="49.442" y2="25.085" gradientUnits="userSpaceOnUse">
            <stop stop-color="#F7931A"/>
            <stop offset="1" stop-color="#AC1CC7"/>
        </linearGradient>
        <linearGradient id="2qfu52lk6b" x1="0" y1="19.2" x2="49.442" y2="25.085" gradientUnits="userSpaceOnUse">
            <stop stop-color="#F7931A"/>
            <stop offset="1" stop-color="#AC1CC7"/>
        </linearGradient>
    </defs>
</svg>
