<svg width="22" height="18" viewBox="0 0 22 18" fill="none" xmlns="http://www.w3.org/2000/svg">
<path d="M1.34876 7.83905L14.4534 2.49635C15.747 1.93981 20.134 0.15891 20.134 0.15891C20.134 0.15891 22.1587 -0.620235 21.99 1.27197C21.9338 2.05112 21.4838 4.77813 21.0339 7.72775L19.6278 16.4653C19.6278 16.4653 19.5153 17.7453 18.5592 17.9679C17.603 18.1906 16.0282 17.1888 15.747 16.9662C15.522 16.7992 11.5288 14.2948 10.0665 13.0705C9.67276 12.7365 9.22281 12.0687 10.1227 11.2896C12.1475 9.453 14.5659 7.17122 16.0282 5.72423C16.7032 5.05639 17.3781 3.4981 14.5659 5.39031L6.63562 10.6774C6.63562 10.6774 5.73573 11.2339 4.04844 10.733C2.36114 10.2321 0.39263 9.56431 0.39263 9.56431C0.39263 9.56431 -0.957206 8.72951 1.34876 7.83905Z" fill="#B5B5B5"/>
</svg>
