<svg width="30" height="30" viewBox="0 0 30 30" fill="none" xmlns="http://www.w3.org/2000/svg">
<circle cx="15" cy="15" r="15" fill="#262642"/>
<path fill-rule="evenodd" clip-rule="evenodd" d="M11.4378 6.26207C12.0234 6.16259 12.6597 6.09993 13.3337 6.1C14.7913 6.10015 15.9428 6.67091 16.7112 7.2173C17.0969 7.49157 17.3953 7.76592 17.5996 7.9743C17.7021 8.07885 17.7819 8.16786 17.8382 8.23344C17.8664 8.26626 17.8887 8.29331 17.9052 8.31363L17.9254 8.33897L17.9322 8.34765L17.9348 8.35095L17.9359 8.35234C17.9361 8.35264 17.9368 8.35355 17.2227 8.90136L17.9368 8.35355C18.2393 8.74793 18.1649 9.3129 17.7705 9.61544C17.3773 9.91708 16.8145 9.84397 16.5113 9.45267M16.5113 9.45267L16.5063 9.44638C16.5002 9.43885 16.4889 9.42506 16.4724 9.4059C16.4395 9.3675 16.3863 9.30799 16.3141 9.23431C16.169 9.08622 15.9508 8.88528 15.6681 8.68424C15.0996 8.28001 14.3066 7.9001 13.3335 7.9C12.771 7.89994 12.236 7.95226 11.7393 8.03665C9.76996 8.37117 8.33048 10.1727 8.39954 12.1978C8.46162 14.0181 9.60506 15.6541 11.2723 16.2379C11.845 16.4385 12.3875 16.5575 12.8474 16.5575C14.0999 16.5574 15.0257 16.1514 15.6374 15.7527C15.945 15.5521 16.1729 15.3533 16.3201 15.2095C16.3934 15.1378 16.4459 15.0804 16.4776 15.0444C16.4934 15.0263 16.5039 15.0137 16.5091 15.0074C16.5101 15.006 16.5113 15.0047 16.5123 15.0033C16.5123 15.0034 16.5126 15.003 16.5123 15.0033L16.5117 15.0041L16.5104 15.0058L16.5091 15.0074C16.5101 15.006 16.5113 15.0047 16.5123 15.0033C16.8158 14.6132 17.3777 14.5406 17.7705 14.8418C18.1649 15.1444 18.2393 15.7093 17.9368 16.1037L17.2227 15.5559C17.9368 16.1037 17.9371 16.1034 17.9368 16.1037L17.9357 16.1052L17.9345 16.1068L17.9316 16.1105L17.924 16.1201C17.9183 16.1274 17.911 16.1365 17.9022 16.1472C17.8846 16.1687 17.8609 16.197 17.8311 16.2309C17.7716 16.2988 17.6874 16.39 17.5785 16.4965C17.361 16.7092 17.042 16.9858 16.6204 17.2606C15.7737 17.8125 14.5119 18.3573 12.8476 18.3575C12.1071 18.3575 11.3505 18.1725 10.6774 17.9368C8.25853 17.0898 6.68607 14.7658 6.60059 12.2592C6.5018 9.36243 8.55194 6.7523 11.4378 6.26207M16.5113 9.45267L16.5101 9.45107C16.5101 9.45106 16.5101 9.45109 16.5101 9.45107" fill="#14B8A6"/>
<path fill-rule="evenodd" clip-rule="evenodd" d="M17.5713 23.3992C16.9794 23.4483 16.3403 23.4564 15.6693 23.399C14.2172 23.2746 13.1208 22.6078 12.404 21.998C12.0442 21.6919 11.7714 21.3932 11.5865 21.1682C11.4938 21.0553 11.4222 20.9598 11.3719 20.8897C11.3468 20.8546 11.3269 20.8257 11.3123 20.8041L11.2944 20.7771L11.2884 20.7679L11.2862 20.7644L11.2852 20.7629C11.285 20.7626 11.2844 20.7616 12.0448 20.277L11.2844 20.7616C11.0182 20.343 11.1428 19.7866 11.5628 19.519C11.9814 19.2521 12.5356 19.373 12.8028 19.7886M12.8028 19.7886L12.8073 19.7953C12.8127 19.8034 12.8227 19.8181 12.8374 19.8385C12.8668 19.8796 12.9144 19.9434 12.9798 20.023C13.1112 20.1829 13.3106 20.4016 13.5743 20.626C14.1046 21.0771 14.8606 21.5231 15.8299 21.6061C16.3899 21.6541 16.9271 21.6476 17.4292 21.606C19.4214 21.4407 21.0163 19.7685 21.1281 17.745C21.2285 15.9261 20.235 14.1986 18.6257 13.4749C18.0733 13.2265 17.5438 13.0619 17.0859 13.0227C15.8382 12.9161 14.8799 13.2416 14.235 13.5867C13.9106 13.7602 13.6659 13.9388 13.5065 14.0696C13.4271 14.1348 13.3696 14.1874 13.3349 14.2207C13.3175 14.2373 13.3059 14.2489 13.3002 14.2548C13.299 14.2561 13.2978 14.2573 13.2966 14.2586C13.2965 14.2586 13.2962 14.259 13.2966 14.2586L13.2973 14.2578L13.2987 14.2563L13.3002 14.2548C13.299 14.2561 13.2978 14.2573 13.2966 14.2586C12.9595 14.6214 12.3932 14.6459 12.0286 14.3124C11.6626 13.9775 11.6386 13.4085 11.9752 13.0414L12.6379 13.6477C11.9752 13.0414 11.9749 13.0417 11.9752 13.0414L11.9764 13.04L11.9778 13.0385L11.981 13.035L11.9894 13.0261C11.9958 13.0194 12.0038 13.011 12.0135 13.001C12.033 12.9811 12.0591 12.955 12.0918 12.9237C12.1571 12.8611 12.2491 12.7774 12.3672 12.6806C12.6028 12.4873 12.9452 12.239 13.3897 12.0011C14.2824 11.5234 15.5881 11.0882 17.2461 11.2299C17.9836 11.2929 18.7204 11.5415 19.3698 11.8335C21.7049 12.8836 23.0642 15.3331 22.9259 17.8372C22.7662 20.7311 20.491 23.157 17.5713 23.3992M12.8028 19.7886L12.8039 19.7903L12.8045 19.7913" fill="#14B8A6"/>
</svg>
