<svg width="35" height="35" viewBox="0 0 35 35" fill="none" xmlns="http://www.w3.org/2000/svg">
<path d="M18.646 6.61039C18.2361 6.2749 18.0312 6.10715 17.8049 6.04267C17.6052 5.98578 17.3948 5.98578 17.1951 6.04267C16.9688 6.10715 16.7639 6.2749 16.354 6.61039L8.44129 13.087C7.91236 13.52 7.64789 13.7364 7.45736 14.0075C7.28859 14.2477 7.16287 14.5182 7.08637 14.8058C7 15.1305 7 15.4831 7 16.1883V25.0711C7 26.4464 7 27.134 7.25432 27.6592C7.47802 28.1213 7.83498 28.4969 8.27402 28.7324C8.77315 29 9.42654 29 10.7333 29H13.0667C13.3934 29 13.5567 29 13.6815 28.9331C13.7913 28.8742 13.8805 28.7803 13.9364 28.6648C14 28.5335 14 28.3616 14 28.0178V19.9145C14 19.2269 14 18.8831 14.1272 18.6204C14.239 18.3894 14.4175 18.2016 14.637 18.0839C14.8866 17.9501 15.2133 17.9501 15.8667 17.9501H19.1333C19.7867 17.9501 20.1134 17.9501 20.363 18.0839C20.5825 18.2016 20.761 18.3894 20.8728 18.6204C21 18.8831 21 19.2269 21 19.9145V28.0178C21 28.3616 21 28.5335 21.0636 28.6648C21.1195 28.7803 21.2087 28.8742 21.3185 28.9331C21.4433 29 21.6066 29 21.9333 29H24.2667C25.5735 29 26.2269 29 26.726 28.7324C27.165 28.4969 27.522 28.1213 27.7457 27.6592C28 27.134 28 26.4464 28 25.0711V16.1883C28 15.4831 28 15.1305 27.9136 14.8058C27.8371 14.5182 27.7114 14.2477 27.5426 14.0075C27.3521 13.7364 27.0876 13.52 26.5587 13.087L18.646 6.61039Z" fill="url(#paint0_linear_18589_14261)" stroke="#EEEEEE" stroke-width="2" stroke-linecap="round" stroke-linejoin="round"/>
<defs>
<linearGradient id="paint0_linear_18589_14261" x1="7" y1="17.6419" x2="26.7047" y2="22.694" gradientUnits="userSpaceOnUse">
<stop stop-color="#F7931A"/>
<stop offset="1" stop-color="#C31AE3"/>
</linearGradient>
</defs>
</svg>
