<svg width="20" height="20" viewBox="0 0 20 20" fill="none" xmlns="http://www.w3.org/2000/svg">
<path d="M10 17L9.91996 16.8833C9.36424 16.0729 9.08639 15.6676 8.71928 15.3743C8.39429 15.1146 8.01981 14.9198 7.61728 14.8009C7.1626 14.6667 6.66169 14.6667 5.65986 14.6667H4.56C3.66392 14.6667 3.21587 14.6667 2.87362 14.4971C2.57256 14.348 2.32779 14.11 2.17439 13.8173C2 13.4846 2 13.049 2 12.1778V5.48889C2 4.6177 2 4.1821 2.17439 3.84935C2.32779 3.55665 2.57256 3.31868 2.87362 3.16955C3.21587 3 3.66392 3 4.56 3H4.88C6.67217 3 7.56825 3 8.25277 3.33909C8.85489 3.63736 9.34443 4.1133 9.65122 4.6987C10 5.3642 10 6.23539 10 7.97778M10 17V7.97778M10 17L10.08 16.8833C10.6358 16.0729 10.9136 15.6676 11.2807 15.3743C11.6057 15.1146 11.9802 14.9198 12.3827 14.8009C12.8374 14.6667 13.3383 14.6667 14.3401 14.6667H15.44C16.3361 14.6667 16.7841 14.6667 17.1264 14.4971C17.4274 14.348 17.6722 14.11 17.8256 13.8173C18 13.4846 18 13.049 18 12.1778V5.48889C18 4.6177 18 4.1821 17.8256 3.84935C17.6722 3.55665 17.4274 3.31868 17.1264 3.16955C16.7841 3 16.3361 3 15.44 3H15.12C13.3278 3 12.4317 3 11.7472 3.33909C11.1451 3.63736 10.6556 4.1133 10.3488 4.6987C10 5.3642 10 6.23539 10 7.97778" stroke="#AEA0B9" stroke-width="1.2" stroke-linecap="round" stroke-linejoin="round"/>
</svg>
