<svg width="40" height="40" viewBox="0 0 40 40" fill="none" xmlns="http://www.w3.org/2000/svg">
<path d="M36.6667 14.1666C36.6667 20.15 31.8167 25 25.8333 25C25.55 25 25.25 24.9833 24.9667 24.9667C24.55 19.6833 20.3166 15.45 15.0333 15.0333C15.0166 14.75 15 14.45 15 14.1666C15 8.18331 19.85 3.33331 25.8333 3.33331C31.8167 3.33331 36.6667 8.18331 36.6667 14.1666Z" fill="url(#paint0_linear_17165_9487)" stroke="#EEEEEE" stroke-width="1.8" stroke-linecap="round" stroke-linejoin="round"/>
<path d="M24.9999 25.8333C24.9999 31.8167 20.1499 36.6667 14.1666 36.6667C8.18325 36.6667 3.33325 31.8167 3.33325 25.8333C3.33325 19.85 8.18325 15 14.1666 15C14.4499 15 14.7499 15.0166 15.0332 15.0333C20.3166 15.45 24.5499 19.6834 24.9666 24.9667C24.9833 25.25 24.9999 25.55 24.9999 25.8333Z" fill="url(#paint1_linear_17165_9487)" stroke="#EEEEEE" stroke-width="1.8" stroke-linecap="round" stroke-linejoin="round"/>
<path d="M11.6667 27.4207C11.6667 28.3135 12.3959 29.008 13.3334 29.008H15.1042C15.8334 29.008 16.5626 28.4127 16.5626 27.6191C16.5626 27.0407 16.3878 26.7121 16.123 26.4985C15.8308 26.2626 15.4326 26.2302 15.0571 26.2302H14.9243C13.3721 26.2302 11.6667 25.5999 11.6667 24.0476V24.0476C11.6667 23.254 12.2917 22.6588 13.1251 22.6588H15.0001C15.9376 22.6588 16.6667 23.3532 16.6667 24.2461" stroke="#EEEEEE" stroke-width="1.2" stroke-linecap="round" stroke-linejoin="round"/>
<path d="M14.0627 21.6667V30" stroke="#EEEEEE" stroke-width="1.2" stroke-linecap="round" stroke-linejoin="round"/>
<defs>
<linearGradient id="paint0_linear_17165_9487" x1="15" y1="14.3003" x2="35.0831" y2="19.9398" gradientUnits="userSpaceOnUse">
<stop stop-color="#F7931A"/>
<stop offset="1" stop-color="#C31AE3"/>
</linearGradient>
<linearGradient id="paint1_linear_17165_9487" x1="3.33325" y1="25.967" x2="23.4163" y2="31.6065" gradientUnits="userSpaceOnUse">
<stop stop-color="#F7931A"/>
<stop offset="1" stop-color="#C31AE3"/>
</linearGradient>
</defs>
</svg>
