<svg width="20" height="20" viewBox="0 0 20 20" fill="none" xmlns="http://www.w3.org/2000/svg">
<path d="M18.3333 9.14165V10.8584C18.3333 11.3167 17.9667 11.6917 17.5 11.7083H15.8667C14.9667 11.7083 14.1417 11.05 14.0667 10.15C14.0167 9.625 14.2167 9.13333 14.5667 8.79167C14.875 8.475 15.3 8.29169 15.7667 8.29169H17.5C17.9667 8.30835 18.3333 8.68332 18.3333 9.14165Z" fill="url(#paint0_linear_17162_858)" stroke="#3C3C3C" stroke-width="1.2" stroke-linecap="round" stroke-linejoin="round"/>
<path d="M14.5666 8.79168C14.2166 9.13334 14.0166 9.62501 14.0666 10.15C14.1416 11.05 14.9666 11.7083 15.8666 11.7083H17.5V12.9167C17.5 15.4167 15.8333 17.0834 13.3333 17.0834H5.83329C3.33329 17.0834 1.66663 15.4167 1.66663 12.9167V7.08335C1.66663 4.81669 3.03329 3.23335 5.15829 2.96668C5.37496 2.93335 5.59996 2.91669 5.83329 2.91669H13.3333C13.55 2.91669 13.7583 2.92501 13.9583 2.95834C16.1083 3.20834 17.5 4.80002 17.5 7.08335V8.2917H15.7666C15.2999 8.2917 14.8749 8.47501 14.5666 8.79168Z" fill="url(#paint1_linear_17162_858)" stroke="#3C3C3C" stroke-width="1.2" stroke-linecap="round" stroke-linejoin="round"/>
<path d="M10.8334 7.5H5.83337" stroke="#EEEEEE" stroke-width="1.2" stroke-linecap="round" stroke-linejoin="round"/>
<defs>
<linearGradient id="paint0_linear_17162_858" x1="14.0591" y1="10.0211" x2="17.8638" y2="11.3577" gradientUnits="userSpaceOnUse">
<stop stop-color="#F7931A"/>
<stop offset="1" stop-color="#C31AE3"/>
</linearGradient>
<linearGradient id="paint1_linear_17162_858" x1="1.66663" y1="10.0874" x2="16.0802" y2="14.6111" gradientUnits="userSpaceOnUse">
<stop stop-color="#F7931A"/>
<stop offset="1" stop-color="#C31AE3"/>
</linearGradient>
</defs>
</svg>
