<svg width="24" height="24" viewBox="0 0 24 24" fill="none" xmlns="http://www.w3.org/2000/svg">
<path d="M22 10.9699V13.03C22 13.58 21.56 14.0299 21 14.0499H19.0399C17.9599 14.0499 16.97 13.2599 16.88 12.1799C16.82 11.5499 17.0599 10.9599 17.4799 10.5499C17.8499 10.1699 18.36 9.94995 18.92 9.94995H21C21.56 9.96995 22 10.4199 22 10.9699Z" fill="url(#paint0_linear_16258_4168)" stroke="#EEEEEE" stroke-width="1.2" stroke-linecap="round" stroke-linejoin="round"/>
<path d="M17.48 10.55C17.06 10.96 16.82 11.55 16.88 12.18C16.97 13.26 17.96 14.05 19.04 14.05H21V15.5C21 18.5 19 20.5 16 20.5H7C4 20.5 2 18.5 2 15.5V8.5C2 5.78 3.64 3.88 6.19 3.56C6.45 3.52 6.72 3.5 7 3.5H16C16.26 3.5 16.51 3.50999 16.75 3.54999C19.33 3.84999 21 5.76 21 8.5V9.95001H18.92C18.36 9.95001 17.85 10.17 17.48 10.55Z" fill="url(#paint1_linear_16258_4168)" stroke="#EEEEEE" stroke-width="1.2" stroke-linecap="round" stroke-linejoin="round"/>
<path d="M13 9H7" stroke="#EEEEEE" stroke-width="1.2" stroke-linecap="round" stroke-linejoin="round"/>
<defs>
<linearGradient id="paint0_linear_16258_4168" x1="17.2983" y1="11.9999" x2="21.5725" y2="11.9999" gradientUnits="userSpaceOnUse">
<stop stop-color="#F7931A"/>
<stop offset="1" stop-color="#7A227A"/>
</linearGradient>
<linearGradient id="paint1_linear_16258_4168" x1="3.58333" y1="12" x2="19.4167" y2="12" gradientUnits="userSpaceOnUse">
<stop stop-color="#F7931A"/>
<stop offset="1" stop-color="#7A227A"/>
</linearGradient>
</defs>
</svg>
