<svg width="20" height="20" viewBox="0 0 20 20" fill="none" xmlns="http://www.w3.org/2000/svg">
<path d="M13.3333 10.75V14.25C13.3333 17.1667 12.1666 18.3334 9.24996 18.3334H5.74996C2.83329 18.3334 1.66663 17.1667 1.66663 14.25V10.75C1.66663 7.83335 2.83329 6.66669 5.74996 6.66669H9.24996C12.1666 6.66669 13.3333 7.83335 13.3333 10.75Z" fill="#1C1C1C" stroke="#636363" stroke-width="1.2" stroke-linecap="round" stroke-linejoin="round"/>
<path d="M18.3333 5.75002V9.25002C18.3333 12.1667 17.1666 13.3334 14.25 13.3334H13.3333V10.75C13.3333 7.83335 12.1666 6.66669 9.24996 6.66669H6.66663V5.75002C6.66663 2.83335 7.83329 1.66669 10.75 1.66669H14.25C17.1666 1.66669 18.3333 2.83335 18.3333 5.75002Z" fill="#1C1C1C" stroke="#636363" stroke-width="1.2" stroke-linecap="round" stroke-linejoin="round"/>
</svg>
