<svg width="24" height="24" viewBox="0 0 24 24" fill="none" xmlns="http://www.w3.org/2000/svg">
<path d="M16 12.9V17.1C16 20.6 14.6 22 11.1 22H6.9C3.4 22 2 20.6 2 17.1V12.9C2 9.4 3.4 8 6.9 8H11.1C14.6 8 16 9.4 16 12.9Z" fill="url(#paint0_linear_16258_4175)" stroke="#3C3C3C" stroke-width="1.2" stroke-linecap="round" stroke-linejoin="round"/>
<path d="M22 6.9V11.1C22 14.6 20.6 16 17.1 16H16V12.9C16 9.4 14.6 8 11.1 8H8V6.9C8 3.4 9.4 2 12.9 2H17.1C20.6 2 22 3.4 22 6.9Z" fill="url(#paint1_linear_16258_4175)" stroke="#3C3C3C" stroke-width="1.2" stroke-linecap="round" stroke-linejoin="round"/>
<defs>
<linearGradient id="paint0_linear_16258_4175" x1="1" y1="12" x2="22.5" y2="12" gradientUnits="userSpaceOnUse">
<stop stop-color="#F7931A"/>
<stop offset="1" stop-color="#7A227A"/>
</linearGradient>
<linearGradient id="paint1_linear_16258_4175" x1="1.5" y1="9" x2="23" y2="9" gradientUnits="userSpaceOnUse">
<stop stop-color="#F7931A"/>
<stop offset="1" stop-color="#7A227A"/>
</linearGradient>
</defs>
</svg>
