<svg width="19" height="15" viewBox="0 0 19 15" fill="none" xmlns="http://www.w3.org/2000/svg">
<g id="Clip path group">
<mask id="mask0_18472_32569" style="mask-type:luminance" maskUnits="userSpaceOnUse" x="0" y="0" width="19" height="15">
<g id="clip0">
<path id="Vector" d="M19 0.5H0V14.5H19V0.5Z" fill="white"/>
</g>
</mask>
<g mask="url(#mask0_18472_32569)">
<g id="Group">
<path id="Vector_2" d="M16.0843 1.74676C14.8733 1.21823 13.5747 0.828822 12.2169 0.605794C12.1922 0.60149 12.1675 0.612246 12.1548 0.633761C11.9877 0.916309 11.8027 1.28492 11.6732 1.57464C10.2128 1.36668 8.75994 1.36668 7.3295 1.57464C7.19993 1.27848 7.00822 0.916309 6.84046 0.633761C6.82772 0.612964 6.80302 0.602207 6.77829 0.605794C5.42126 0.828109 4.12265 1.21751 2.91091 1.74676C2.90042 1.75107 2.89143 1.75824 2.88546 1.76756C0.422268 5.26792 -0.252502 8.68224 0.0785176 12.0542C0.0800154 12.0707 0.0897511 12.0865 0.103232 12.0965C1.72837 13.2318 3.3026 13.9209 4.8476 14.3777C4.87232 14.3849 4.89852 14.3763 4.91426 14.3569C5.27973 13.8822 5.60551 13.3817 5.88484 12.8553C5.90132 12.8244 5.88558 12.7879 5.85189 12.7757C5.33515 12.5892 4.8431 12.3619 4.36979 12.1037C4.33235 12.0829 4.32935 12.032 4.36379 12.0076C4.46339 11.9366 4.56302 11.8627 4.65813 11.7882C4.67534 11.7745 4.69932 11.7717 4.71955 11.7803C7.82902 13.1306 11.1954 13.1306 14.2682 11.7803C14.2884 11.7709 14.3124 11.7738 14.3303 11.7874C14.4255 11.862 14.5251 11.9366 14.6254 12.0076C14.6599 12.032 14.6576 12.0829 14.6202 12.1037C14.1469 12.3669 13.6548 12.5892 13.1373 12.7749C13.1036 12.7871 13.0886 12.8244 13.1051 12.8553C13.3905 13.3809 13.7162 13.8815 14.075 14.3562C14.0899 14.3763 14.1169 14.3849 14.1416 14.3777C15.6941 13.9209 17.2683 13.2318 18.8935 12.0965C18.9077 12.0865 18.9167 12.0714 18.9182 12.0549C19.3144 8.15655 18.2546 4.77023 16.109 1.76827C16.1038 1.75824 16.0948 1.75107 16.0843 1.74676ZM6.34918 10.001C5.41302 10.001 4.64165 9.18351 4.64165 8.17951C4.64165 7.17551 5.39806 6.35798 6.34918 6.35798C7.30777 6.35798 8.07168 7.18268 8.0567 8.17951C8.0567 9.18351 7.30028 10.001 6.34918 10.001ZM12.6625 10.001C11.7264 10.001 10.955 9.18351 10.955 8.17951C10.955 7.17551 11.7114 6.35798 12.6625 6.35798C13.6211 6.35798 14.385 7.18268 14.37 8.17951C14.37 9.18351 13.6211 10.001 12.6625 10.001Z" fill="#AEA0B9"/>
</g>
</g>
</g>
</svg>
