<svg width="20" height="20" viewBox="0 0 20 20" fill="none" xmlns="http://www.w3.org/2000/svg">
<path d="M11.3125 9.2H6.625M8.1875 12.4H6.625M12.875 6H6.625M16 5.84V14.16C16 15.5041 16 16.1762 15.7445 16.6896C15.5198 17.1412 15.1613 17.5083 14.7203 17.7384C14.2189 18 13.5626 18 12.25 18H7.25C5.93738 18 5.28107 18 4.77971 17.7384C4.3387 17.5083 3.98016 17.1412 3.75545 16.6896C3.5 16.1762 3.5 15.5041 3.5 14.16V5.84C3.5 4.49587 3.5 3.82381 3.75545 3.31042C3.98016 2.85883 4.3387 2.49168 4.77971 2.26158C5.28107 2 5.93738 2 7.25 2H12.25C13.5626 2 14.2189 2 14.7203 2.26158C15.1613 2.49168 15.5198 2.85883 15.7445 3.31042C16 3.82381 16 4.49587 16 5.84Z" stroke="#636363" stroke-width="1.2" stroke-linecap="round" stroke-linejoin="round"/>
</svg>
