<svg width="24" height="24" viewBox="0 0 24 24" fill="none" xmlns="http://www.w3.org/2000/svg">
<path d="M15.103 9.91414L12.1148 12.4043C12.0483 12.4597 11.9517 12.4597 11.8852 12.4043L8.89697 9.91414C8.1286 9.27383 8.03251 8.12873 8.68343 7.36934L11.8638 3.65886C11.9354 3.57535 12.0646 3.57536 12.1362 3.65886L15.3166 7.36934C15.9675 8.12873 15.8714 9.27384 15.103 9.91414Z" fill="#131313" stroke="#636363" stroke-width="1.2"/>
<path d="M20 12.5V11.8422C20 11.6696 19.838 11.5447 19.6726 11.5939C18.8419 11.8407 16.6048 12.5596 15 13.5769C13.1943 14.7217 12.379 16.3462 12 16.3462C11.621 16.3462 10.8057 14.7217 9 13.5769C7.39524 12.5596 5.15806 11.8407 4.32741 11.5939C4.16195 11.5447 4 11.6696 4 11.8422V12.5C4 16.9183 7.58172 20.5 12 20.5C16.4183 20.5 20 16.9183 20 12.5Z" fill="#131313" stroke="#636363" stroke-width="1.2"/>
</svg>
