<svg width="24" height="24" viewBox="0 0 24 24" fill="none" xmlns="http://www.w3.org/2000/svg">
<path fill-rule="evenodd" clip-rule="evenodd" d="M12.1148 10.8081L15.103 8.31795C15.8714 7.67764 15.9675 6.53254 15.3166 5.77314L12.1362 2.06266C12.0646 1.97916 11.9354 1.97916 11.8638 2.06266L8.68343 5.77314C8.03251 6.53254 8.1286 7.67764 8.89697 8.31795L11.8852 10.8081C11.9517 10.8636 12.0483 10.8636 12.1148 10.8081ZM20 11.8422V12.5C20 16.9183 16.4183 20.5 12 20.5C7.58172 20.5 4 16.9183 4 12.5V11.8422C4 11.6696 4.16195 11.5447 4.32741 11.5939C5.15806 11.8407 7.39524 12.5596 9 13.5769C10.0788 14.2608 10.8041 15.116 11.2941 15.6937C11.6242 16.0829 11.8474 16.3462 12 16.3462C12.1526 16.3462 12.3758 16.0829 12.7059 15.6937C13.1959 15.116 13.9212 14.2608 15 13.5769C16.6048 12.5596 18.8419 11.8407 19.6726 11.5939C19.838 11.5447 20 11.6696 20 11.8422Z" fill="url(#paint0_linear_17110_7714)"/>
<path d="M15.103 8.31795L14.7189 7.85702V7.85702L15.103 8.31795ZM12.1148 10.8081L12.4989 11.2691V11.2691L12.1148 10.8081ZM15.3166 5.77314L14.861 6.16362V6.16362L15.3166 5.77314ZM12.1362 2.06266L11.6806 2.45314L11.6806 2.45314L12.1362 2.06266ZM11.8638 2.06266L11.4083 1.67219V1.67219L11.8638 2.06266ZM8.68343 5.77314L8.22787 5.38267L8.68343 5.77314ZM8.89697 8.31795L8.51286 8.77888L8.89697 8.31795ZM11.8852 10.8081L12.2693 10.3472L12.2693 10.3472L11.8852 10.8081ZM4.32741 11.5939L4.49832 11.0188H4.49832L4.32741 11.5939ZM9 13.5769L8.67874 14.0837V14.0837L9 13.5769ZM11.2941 15.6937L10.8365 16.0818H10.8365L11.2941 15.6937ZM12.7059 15.6937L12.2484 15.3056V15.3056L12.7059 15.6937ZM15 13.5769L14.6787 13.0702L15 13.5769ZM19.6726 11.5939L19.5017 11.0188L19.6726 11.5939ZM14.7189 7.85702L11.7307 10.3472L12.4989 11.2691L15.4871 8.77888L14.7189 7.85702ZM14.861 6.16362C15.2942 6.66895 15.2302 7.43094 14.7189 7.85702L15.4871 8.77888C16.5126 7.92435 16.6408 6.39614 15.7721 5.38267L14.861 6.16362ZM11.6806 2.45314L14.861 6.16362L15.7721 5.38267L12.5917 1.67219L11.6806 2.45314ZM12.3194 2.45314C12.1515 2.649 11.8485 2.64901 11.6806 2.45314L12.5917 1.67219C12.2807 1.30932 11.7193 1.30932 11.4083 1.67219L12.3194 2.45314ZM9.13898 6.16362L12.3194 2.45314L11.4083 1.67219L8.22787 5.38267L9.13898 6.16362ZM9.28108 7.85701C8.76978 7.43093 8.70584 6.66895 9.13898 6.16362L8.22787 5.38267C7.35919 6.39614 7.48742 7.92435 8.51286 8.77888L9.28108 7.85701ZM12.2693 10.3472L9.28108 7.85701L8.51286 8.77888L11.5011 11.2691L12.2693 10.3472ZM11.7307 10.3472C11.8867 10.2172 12.1133 10.2172 12.2693 10.3472L11.5011 11.2691C11.7901 11.5099 12.2099 11.5099 12.4989 11.2691L11.7307 10.3472ZM20.6 12.5V11.8422H19.4V12.5H20.6ZM12 21.1C16.7496 21.1 20.6 17.2496 20.6 12.5H19.4C19.4 16.5869 16.0869 19.9 12 19.9V21.1ZM3.4 12.5C3.4 17.2496 7.25035 21.1 12 21.1V19.9C7.91309 19.9 4.6 16.5869 4.6 12.5H3.4ZM3.4 11.8422V12.5H4.6V11.8422H3.4ZM4.49832 11.0188C3.93471 10.8513 3.4 11.2826 3.4 11.8422H4.6C4.6 12.0567 4.38919 12.2382 4.1565 12.1691L4.49832 11.0188ZM9.32126 13.0702C7.64003 12.0044 5.33189 11.2665 4.49832 11.0188L4.1565 12.1691C4.98424 12.415 7.15045 13.1148 8.67874 14.0837L9.32126 13.0702ZM11.7516 15.3056C11.261 14.7271 10.4847 13.8077 9.32126 13.0702L8.67874 14.0837C9.67295 14.714 10.3472 15.5049 10.8365 16.0818L11.7516 15.3056ZM12 15.7462C12.0674 15.7462 12.1188 15.7606 12.149 15.7719C12.1786 15.7829 12.1953 15.7937 12.1977 15.7952C12.1996 15.7964 12.1804 15.7835 12.1348 15.7385C12.0422 15.6473 11.9237 15.5085 11.7516 15.3056L10.8365 16.0818C10.9945 16.2681 11.1527 16.4555 11.2925 16.5932C11.363 16.6628 11.4488 16.74 11.5458 16.8027C11.636 16.861 11.795 16.9462 12 16.9462V15.7462ZM12.2484 15.3056C12.0763 15.5085 11.9578 15.6473 11.8652 15.7385C11.8196 15.7835 11.8004 15.7964 11.8023 15.7952C11.8047 15.7937 11.8214 15.7829 11.851 15.7719C11.8812 15.7606 11.9326 15.7462 12 15.7462V16.9462C12.205 16.9462 12.364 16.861 12.4542 16.8027C12.5512 16.74 12.637 16.6628 12.7075 16.5932C12.8473 16.4555 13.0055 16.2681 13.1635 16.0818L12.2484 15.3056ZM14.6787 13.0702C13.5153 13.8077 12.739 14.7271 12.2484 15.3056L13.1635 16.0818C13.6528 15.5049 14.327 14.714 15.3213 14.0837L14.6787 13.0702ZM19.5017 11.0188C18.6681 11.2665 16.36 12.0044 14.6787 13.0702L15.3213 14.0837C16.8495 13.1148 19.0158 12.415 19.8435 12.1691L19.5017 11.0188ZM20.6 11.8422C20.6 11.2826 20.0653 10.8513 19.5017 11.0188L19.8435 12.1691C19.6108 12.2382 19.4 12.0567 19.4 11.8422H20.6Z" fill="#3C3C3C"/>
<defs>
<linearGradient id="paint0_linear_17110_7714" x1="6.5" y1="3.5" x2="22.4359" y2="6.45526" gradientUnits="userSpaceOnUse">
<stop stop-color="#F7931A"/>
<stop offset="1" stop-color="#AC1CC7"/>
</linearGradient>
</defs>
</svg>
