<svg width="32" height="33" viewBox="0 0 32 33" fill="none" xmlns="http://www.w3.org/2000/svg">
<rect y="0.850342" width="32" height="32" rx="16" fill="#F7F0FD"/>
<g clip-path="url(#clip0_16692_8341)">
<path fill-rule="evenodd" clip-rule="evenodd" d="M19.1091 7.1353C18.8568 7.07094 18.6135 7.01227 18.4306 6.97516C17.5114 6.78867 16.3856 6.84668 15.6398 6.92158C15.0966 6.97613 14.5611 7.08267 14.0322 7.21925C13.6183 7.32614 13.1202 7.46579 12.7366 7.60727C8.52447 9.16083 6 12.6017 6 17.0152C6 22.447 10.2799 26.8503 15.5594 26.8503C19.9446 26.8503 23.7076 24.1331 24.7981 19.6611C24.8152 19.5913 24.8317 19.5159 24.8477 19.4376C24.999 18.6938 25.087 17.9087 24.8702 17.1815C24.8046 16.9619 24.6071 16.8118 24.3834 16.8118H16.1823C16.1641 16.8118 16.146 16.8145 16.1285 16.8198C16.0273 16.8503 15.9694 16.9593 15.9992 17.0632L16.3733 18.4419C16.6165 19.3379 17.4233 19.9591 18.3438 19.9591H20.0976C20.2541 19.9591 20.3512 20.1288 20.2651 20.2606C19.2288 21.8455 17.3847 22.7782 15.5641 22.7782C12.3964 22.7782 9.81547 20.2641 9.81547 17.005C9.81547 13.7459 12.4147 11.1802 15.5641 11.1802C15.6097 11.1802 15.6557 11.1806 15.7016 11.1813C16.3885 11.1916 17.0486 11.4083 17.6774 11.6874C17.8323 11.7562 18.0302 11.8174 18.2116 11.8661C18.5444 11.9555 18.8871 12.0019 19.2313 12.0128C19.3671 12.0171 19.5113 12.0184 19.6397 12.013C19.7765 12.0073 19.8448 11.8622 19.7776 11.7418L19.7099 11.6205C19.5819 11.3911 19.621 11.1112 19.7637 10.8909C19.8438 10.7674 19.9043 10.6425 19.9124 10.5383C19.923 10.401 19.8994 10.2839 19.8416 10.1869C19.7815 10.0862 19.6594 10.053 19.5437 10.0404C19.4345 10.0286 19.2964 10.0041 19.1917 9.95357C18.5696 9.65322 18.8383 8.60075 19.5278 8.58802C19.6209 8.5863 19.7137 8.6011 19.8027 8.63872C19.8418 8.65525 19.8804 8.67153 19.9179 8.68734C20.2209 8.81486 20.5379 8.93633 20.861 8.87782C20.9628 8.85939 21.0778 8.80418 21.2061 8.71221C21.2874 8.65389 21.2709 8.49003 21.2125 8.40839C20.7084 7.70345 19.9443 7.34831 19.1091 7.1353ZM22.8597 10.5965L24.8849 12.3633C25.0791 12.5327 24.933 12.853 24.6797 12.8134L21.1062 12.2546C20.3783 12.1408 19.9584 11.3557 20.2631 10.6784L20.2983 10.6003C20.3689 10.4433 20.3689 10.2631 20.2983 10.1059C20.2108 9.91107 20.0226 9.78215 19.8113 9.77224L19.6978 9.76691C19.4387 9.75476 19.2549 9.50627 19.3166 9.25169L19.3196 9.23964C19.3816 8.98385 19.6727 8.86426 19.894 9.00362L20.0515 9.10278C20.3535 9.29288 20.7177 9.35373 21.0637 9.27189C21.1674 9.24735 21.2647 9.20037 21.3487 9.13418L21.3619 9.12379C21.5498 8.97575 21.8143 8.97959 21.9984 9.13302L22.0458 9.17256C22.3109 9.3936 22.4978 9.69583 22.5781 10.0335L22.6157 10.1918C22.6531 10.3491 22.7384 10.4907 22.8597 10.5965Z" fill="url(#paint0_linear_16692_8341)"/>
</g>
<defs>
<linearGradient id="paint0_linear_16692_8341" x1="25" y1="26.8503" x2="1.7078" y2="16.6913" gradientUnits="userSpaceOnUse">
<stop stop-color="#5855FF"/>
<stop offset="1" stop-color="#E036FF"/>
</linearGradient>
<clipPath id="clip0_16692_8341">
<rect width="21" height="21" fill="white" transform="translate(5 6.35034)"/>
</clipPath>
</defs>
</svg>
