<svg width="30" height="30" viewBox="0 0 30 30" fill="none" xmlns="http://www.w3.org/2000/svg">
<path fill-rule="evenodd" clip-rule="evenodd" d="M20.2997 0.864567C19.9291 0.770927 19.5719 0.685554 19.3033 0.63156C17.9894 0.367413 16.3879 0.4404 15.2935 0.544988C14.437 0.626849 13.5921 0.793434 12.7591 1.00871C12.1692 1.16114 11.4792 1.355 10.9421 1.55128C4.75691 3.81172 1.04993 8.8182 1.04993 15.2398C1.04993 23.1431 7.33462 29.5499 15.0872 29.5499C21.5266 29.5499 27.0522 25.5963 28.6536 19.0896C28.6786 18.988 28.7029 18.8783 28.7263 18.7644C28.9486 17.6822 29.0777 16.5398 28.7593 15.4819C28.6631 15.1622 28.3731 14.9439 28.0445 14.9439H16.0019C15.9751 14.9439 15.9485 14.9478 15.9228 14.9555C15.7743 14.9999 15.6893 15.1585 15.733 15.3096L16.238 17.1537C16.6212 18.553 17.8929 19.5232 19.3437 19.5232H21.7134C21.96 19.5232 22.1131 19.7882 21.9762 19.9933C20.4508 22.2802 17.7553 23.625 15.0941 23.625C10.4425 23.625 6.65265 19.9669 6.65265 15.2249C6.65265 10.483 10.4694 6.74995 15.0941 6.74995C15.1611 6.74995 15.2285 6.7505 15.296 6.7515C16.3046 6.76652 17.2739 7.0818 18.1973 7.4879C18.4095 7.58122 18.6767 7.66506 18.9278 7.73342C19.4517 7.87602 19.9921 7.9483 20.5348 7.96289C20.707 7.96753 20.886 7.96868 21.0493 7.96281C21.2649 7.95505 21.3726 7.72925 21.2668 7.54129L21.2049 7.43136C21.0031 7.07314 21.0674 6.63748 21.2863 6.28945C21.3911 6.12275 21.4682 5.95639 21.4792 5.81599C21.4846 5.74696 21.484 5.68143 21.4774 5.61941C21.4508 5.37034 21.1715 5.29643 20.9008 5.2248C20.8072 5.20003 20.7146 5.17554 20.6339 5.14417C20.6069 5.1337 20.5789 5.12161 20.5499 5.10773C19.5458 4.62732 20.001 2.8174 21.1006 2.99071C21.1742 3.0023 21.247 3.02226 21.3181 3.05204L21.4873 3.12278C21.9322 3.30832 22.3977 3.48506 22.8722 3.39993C23.0217 3.37311 23.1906 3.29279 23.3789 3.15898C23.4983 3.07412 23.4741 2.83569 23.3883 2.7169C22.648 1.69122 21.526 1.1745 20.2997 0.864567ZM25.9571 6.02669L28.6461 8.35119C29.0134 8.66865 28.7372 9.26901 28.258 9.19478L23.3823 8.43935C22.3134 8.27374 21.6968 7.1314 22.1443 6.14586L22.1959 6.03222C22.2995 5.80388 22.2996 5.54165 22.1959 5.313C22.0674 5.02947 21.7911 4.84188 21.4807 4.82746L21.3141 4.81971C20.9336 4.80203 20.6637 4.44047 20.7544 4.07007L20.7587 4.05253C20.8498 3.68036 21.2773 3.50636 21.6023 3.70912L21.8336 3.8534C22.2769 4.13 22.8117 4.21854 23.3198 4.09945C23.4722 4.06375 23.615 3.99539 23.7383 3.89908L23.7577 3.88397C24.0336 3.66857 24.4221 3.67416 24.6923 3.8974L24.762 3.95492C25.1513 4.27654 25.4257 4.71629 25.5436 5.20763L25.5988 5.43787C25.6537 5.66682 25.7791 5.8728 25.9571 6.02669Z" fill="url(#paint0_linear_16692_8428)"/>
<defs>
<linearGradient id="paint0_linear_16692_8428" x1="28.95" y1="29.5499" x2="-5.1518" y2="14.539" gradientUnits="userSpaceOnUse">
<stop stop-color="#5855FF"/>
<stop offset="1" stop-color="#E036FF"/>
</linearGradient>
</defs>
</svg>
