<svg width="26" height="27" viewBox="0 0 26 27" fill="none" xmlns="http://www.w3.org/2000/svg">
<path id="Combined-Shape" fill-rule="evenodd" clip-rule="evenodd" d="M17.5106 0.131052C18.5162 0.289449 19.2267 0.498023 19.6421 0.756775C20.0575 1.01553 20.4989 1.52449 20.9663 2.28367C20.7142 2.49698 20.4947 2.6204 20.3079 2.65395C20.121 2.68749 19.811 2.65911 19.3779 2.5688L18.8616 2.33006C18.3638 2.09988 17.7767 2.31919 17.5432 2.82251C17.3414 3.25763 17.5243 3.77691 17.9517 3.98236C17.9881 3.99983 18.0256 4.01467 18.064 4.02678L18.7528 4.24394C18.9474 4.40046 19.0336 4.62026 19.0115 4.90333C18.9894 5.18641 18.8605 5.46164 18.6247 5.72903L18.9979 6.77122C18.5479 6.8725 18.0071 6.90235 17.3756 6.86076C16.4284 6.79837 15.9651 6.50426 15.9574 6.45991C15.9534 6.4364 15.6456 6.26254 15.0342 5.93831C14.4044 5.7718 13.7439 5.68328 13.0631 5.68328C8.73437 5.68328 5.22524 9.26221 5.22524 13.677C5.22524 18.0919 8.73437 21.6708 13.0631 21.6708C15.9678 21.6708 18.5035 20.0593 19.8574 17.6651L16.6072 17.6649C16.0285 17.6649 15.519 17.2768 15.3558 16.7116L14.4983 13.7421C14.4576 13.6013 14.5368 13.4537 14.675 13.4124C14.6989 13.4052 14.7237 13.4016 14.7486 13.4016H25.1212C25.427 13.4016 25.6969 13.6048 25.7864 13.9024C25.9288 14.3757 26 14.8855 26 15.4317C26 16.0458 25.8815 16.6599 25.6444 17.2739C24.1057 22.8847 19.0556 27 13.0631 27C5.84855 27 0 21.0351 0 13.677C0 7.69844 3.8612 2.63959 9.17904 0.952913C9.20294 0.926047 9.22827 0.905986 9.25518 0.892983C9.95225 0.556217 11.0083 0.392096 12.0903 0.214788L12.2315 0.19157C12.3964 0.164361 12.5616 0.136659 12.7259 0.107809C13.5863 -0.0433061 15.1812 -0.0355586 17.5106 0.131052ZM21.3348 2.75405C21.6993 3.04399 21.9342 3.28841 22.0395 3.4873C22.1414 3.67955 22.2408 4.006 22.3378 4.46662L22.3478 4.51475L24.9034 6.86463C24.9879 6.94232 25.0449 7.04584 25.0662 7.15924L25.0702 7.18368L25.111 7.47455C25.1216 7.55007 25.0808 7.62268 25.013 7.65233L25 7.65738L24.8696 7.70164L24.7926 7.69124C22.2636 7.34863 20.724 7.05701 20.1739 6.81639C19.6515 6.58788 19.569 6.05252 19.9265 5.21031C19.9693 5.10934 19.9736 4.99603 19.939 4.89241L19.931 4.87036L19.6853 4.2449C19.6666 4.19725 19.6399 4.15335 19.6064 4.11511L19.5892 4.09647L19.0682 3.56551C18.9124 3.53336 18.7401 3.58338 18.5843 3.55123C18.5484 3.54383 18.464 3.51572 18.331 3.46691C18.3222 3.46365 18.3135 3.45998 18.3049 3.4559C18.1536 3.38349 18.0886 3.1999 18.1597 3.04584C18.2435 2.86451 18.4374 2.7642 18.6307 2.80231C18.7784 2.83145 18.8846 2.85696 18.9493 2.87883C19.0548 2.91457 19.1963 2.99032 19.3738 3.10607C19.9058 3.21286 20.2963 3.24391 20.5453 3.19921C20.7944 3.15451 21.0575 3.00612 21.3348 2.75405Z" fill="url(#paint0_linear_16039_5157)"/>
<defs>
<linearGradient id="paint0_linear_16039_5157" x1="3.61085" y1="5.32886" x2="21.7627" y2="22.986" gradientUnits="userSpaceOnUse">
<stop stop-color="#5855FF"/>
<stop offset="1" stop-color="#DC1FFF"/>
</linearGradient>
</defs>
</svg>
