<svg width="95" height="22" viewBox="0 0 95 22" fill="none" xmlns="http://www.w3.org/2000/svg">
<g clip-path="url(#clip0_16692_8421)">
<g clip-path="url(#clip1_16692_8421)">
<path fill-rule="evenodd" clip-rule="evenodd" d="M13.5331 2.07646C13.2861 2.01403 13.0479 1.95712 12.8689 1.92112C11.9929 1.74502 10.9253 1.79368 10.1957 1.86341C9.62467 1.91798 9.06143 2.02904 8.50604 2.17255C8.11279 2.27417 7.65281 2.40341 7.29476 2.53427C3.17127 4.04122 0.699951 7.37888 0.699951 11.66C0.699951 16.9288 4.88975 21.2 10.0581 21.2C14.351 21.2 18.0348 18.5643 19.1024 14.2265C19.119 14.1588 19.1353 14.0856 19.1508 14.0097C19.299 13.2882 19.3851 12.5266 19.1729 11.8213C19.1087 11.6082 18.9154 11.4627 18.6964 11.4627H10.6679C10.6501 11.4627 10.6323 11.4653 10.6152 11.4704C10.5162 11.5 10.4595 11.6057 10.4886 11.7065L10.8253 12.9359C11.0808 13.8687 11.9286 14.5155 12.8958 14.5155H14.4756C14.64 14.5155 14.7421 14.6922 14.6508 14.829C13.6339 16.3536 11.8368 17.25 10.0627 17.25C6.96169 17.25 4.4351 14.8114 4.4351 11.65C4.4351 8.48874 6.97959 6.00005 10.0627 6.00005C10.1074 6.00005 10.1524 6.00041 10.1973 6.00108C10.8697 6.0111 11.516 6.22128 12.1316 6.49201C12.273 6.55423 12.4511 6.61012 12.6186 6.65569C12.9678 6.75076 13.328 6.79895 13.6899 6.80868C13.8047 6.81177 13.924 6.81254 14.0329 6.80862C14.1766 6.80345 14.2484 6.65292 14.1779 6.52761L14.1366 6.45432C14.0021 6.21551 14.0449 5.92507 14.1909 5.69305C14.2607 5.58192 14.3122 5.47101 14.3195 5.37741C14.3231 5.33139 14.3226 5.2877 14.3182 5.24635C14.3005 5.08031 14.1143 5.03103 13.9338 4.98328C13.8714 4.96677 13.8097 4.95044 13.7559 4.92953C13.7379 4.92255 13.7193 4.91449 13.7 4.90524C13.0305 4.58496 13.334 3.37835 14.0671 3.49389C14.1161 3.50162 14.1646 3.51492 14.212 3.53478L14.3249 3.58194C14.6215 3.70563 14.9318 3.82346 15.2481 3.7667C15.3478 3.74882 15.4604 3.69528 15.5859 3.60607C15.6655 3.54949 15.6494 3.39054 15.5922 3.31135C15.0987 2.62756 14.3507 2.28308 13.5331 2.07646ZM17.3047 5.51782L19.0974 7.06749C19.3422 7.27913 19.1581 7.67936 18.8387 7.62987L15.5882 7.12626C14.8756 7.01585 14.4645 6.25429 14.7628 5.59726L14.7972 5.5215C14.8663 5.36928 14.8663 5.19446 14.7973 5.04202C14.7116 4.853 14.5274 4.72795 14.3205 4.71833L14.2094 4.71317C13.9557 4.70138 13.7758 4.46034 13.8363 4.2134L13.8391 4.20171C13.8999 3.9536 14.1848 3.8376 14.4015 3.97277L14.5557 4.06896C14.8513 4.25336 15.2078 4.31238 15.5465 4.23299C15.6481 4.20919 15.7433 4.16362 15.8255 4.09941L15.8384 4.08933C16.0224 3.94574 16.2814 3.94946 16.4615 4.09829L16.508 4.13664C16.7675 4.35105 16.9504 4.64421 17.029 4.97178L17.0658 5.12527C17.1025 5.27791 17.186 5.41522 17.3047 5.51782Z" fill="url(#paint0_linear_16692_8421)"/>
</g>
<path d="M33.6102 9.68C33.3702 9.24 33.0402 8.905 32.6202 8.675C32.2002 8.445 31.7102 8.33 31.1502 8.33C30.5302 8.33 29.9802 8.47 29.5002 8.75C29.0202 9.03 28.6452 9.43 28.3752 9.95C28.1052 10.47 27.9702 11.07 27.9702 11.75C27.9702 12.45 28.1052 13.06 28.3752 13.58C28.6552 14.1 29.0402 14.5 29.5302 14.78C30.0202 15.06 30.5902 15.2 31.2402 15.2C32.0402 15.2 32.6952 14.99 33.2052 14.57C33.7152 14.14 34.0502 13.545 34.2102 12.785H30.6102V11.18H36.2802V13.01C36.1402 13.74 35.8402 14.415 35.3802 15.035C34.9202 15.655 34.3252 16.155 33.5952 16.535C32.8752 16.905 32.0652 17.09 31.1652 17.09C30.1552 17.09 29.2402 16.865 28.4202 16.415C27.6102 15.955 26.9702 15.32 26.5002 14.51C26.0402 13.7 25.8102 12.78 25.8102 11.75C25.8102 10.72 26.0402 9.8 26.5002 8.99C26.9702 8.17 27.6102 7.535 28.4202 7.085C29.2402 6.625 30.1502 6.395 31.1502 6.395C32.3302 6.395 33.3552 6.685 34.2252 7.265C35.0952 7.835 35.6952 8.64 36.0252 9.68H33.6102ZM42.6938 17.105C41.7138 17.105 40.8138 16.875 39.9938 16.415C39.1738 15.955 38.5238 15.32 38.0438 14.51C37.5638 13.69 37.3238 12.765 37.3238 11.735C37.3238 10.715 37.5638 9.8 38.0438 8.99C38.5238 8.17 39.1738 7.53 39.9938 7.07C40.8138 6.61 41.7138 6.38 42.6938 6.38C43.6838 6.38 44.5838 6.61 45.3938 7.07C46.2138 7.53 46.8588 8.17 47.3288 8.99C47.8088 9.8 48.0488 10.715 48.0488 11.735C48.0488 12.765 47.8088 13.69 47.3288 14.51C46.8588 15.32 46.2138 15.955 45.3938 16.415C44.5738 16.875 43.6738 17.105 42.6938 17.105ZM42.6938 15.23C43.3238 15.23 43.8788 15.09 44.3588 14.81C44.8388 14.52 45.2138 14.11 45.4838 13.58C45.7538 13.05 45.8888 12.435 45.8888 11.735C45.8888 11.035 45.7538 10.425 45.4838 9.905C45.2138 9.375 44.8388 8.97 44.3588 8.69C43.8788 8.41 43.3238 8.27 42.6938 8.27C42.0638 8.27 41.5038 8.41 41.0138 8.69C40.5338 8.97 40.1588 9.375 39.8888 9.905C39.6188 10.425 39.4838 11.035 39.4838 11.735C39.4838 12.435 39.6188 13.05 39.8888 13.58C40.1588 14.11 40.5338 14.52 41.0138 14.81C41.5038 15.09 42.0638 15.23 42.6938 15.23ZM54.4712 17.105C53.4912 17.105 52.5912 16.875 51.7712 16.415C50.9512 15.955 50.3012 15.32 49.8212 14.51C49.3412 13.69 49.1012 12.765 49.1012 11.735C49.1012 10.715 49.3412 9.8 49.8212 8.99C50.3012 8.17 50.9512 7.53 51.7712 7.07C52.5912 6.61 53.4912 6.38 54.4712 6.38C55.4612 6.38 56.3612 6.61 57.1712 7.07C57.9912 7.53 58.6362 8.17 59.1062 8.99C59.5862 9.8 59.8262 10.715 59.8262 11.735C59.8262 12.765 59.5862 13.69 59.1062 14.51C58.6362 15.32 57.9912 15.955 57.1712 16.415C56.3512 16.875 55.4512 17.105 54.4712 17.105ZM54.4712 15.23C55.1012 15.23 55.6562 15.09 56.1362 14.81C56.6162 14.52 56.9912 14.11 57.2612 13.58C57.5312 13.05 57.6662 12.435 57.6662 11.735C57.6662 11.035 57.5312 10.425 57.2612 9.905C56.9912 9.375 56.6162 8.97 56.1362 8.69C55.6562 8.41 55.1012 8.27 54.4712 8.27C53.8412 8.27 53.2812 8.41 52.7912 8.69C52.3112 8.97 51.9362 9.375 51.6662 9.905C51.3962 10.425 51.2612 11.035 51.2612 11.735C51.2612 12.435 51.3962 13.05 51.6662 13.58C51.9362 14.11 52.3112 14.52 52.7912 14.81C53.2812 15.09 53.8412 15.23 54.4712 15.23ZM65.0035 17.105C64.2735 17.105 63.6135 16.98 63.0235 16.73C62.4435 16.48 61.9835 16.12 61.6435 15.65C61.3035 15.18 61.1285 14.625 61.1185 13.985H63.3685C63.3985 14.415 63.5485 14.755 63.8185 15.005C64.0985 15.255 64.4785 15.38 64.9585 15.38C65.4485 15.38 65.8335 15.265 66.1135 15.035C66.3935 14.795 66.5335 14.485 66.5335 14.105C66.5335 13.795 66.4385 13.54 66.2485 13.34C66.0585 13.14 65.8185 12.985 65.5285 12.875C65.2485 12.755 64.8585 12.625 64.3585 12.485C63.6785 12.285 63.1235 12.09 62.6935 11.9C62.2735 11.7 61.9085 11.405 61.5985 11.015C61.2985 10.615 61.1485 10.085 61.1485 9.425C61.1485 8.805 61.3035 8.265 61.6135 7.805C61.9235 7.345 62.3585 6.995 62.9185 6.755C63.4785 6.505 64.1185 6.38 64.8385 6.38C65.9185 6.38 66.7935 6.645 67.4635 7.175C68.1435 7.695 68.5185 8.425 68.5885 9.365H66.2785C66.2585 9.005 66.1035 8.71 65.8135 8.48C65.5335 8.24 65.1585 8.12 64.6885 8.12C64.2785 8.12 63.9485 8.225 63.6985 8.435C63.4585 8.645 63.3385 8.95 63.3385 9.35C63.3385 9.63 63.4285 9.865 63.6085 10.055C63.7985 10.235 64.0285 10.385 64.2985 10.505C64.5785 10.615 64.9685 10.745 65.4685 10.895C66.1485 11.095 66.7035 11.295 67.1335 11.495C67.5635 11.695 67.9335 11.995 68.2435 12.395C68.5535 12.795 68.7085 13.32 68.7085 13.97C68.7085 14.53 68.5635 15.05 68.2735 15.53C67.9835 16.01 67.5585 16.395 66.9985 16.685C66.4385 16.965 65.7735 17.105 65.0035 17.105ZM72.6291 8.225V10.85H76.1541V12.515H72.6291V15.29H76.6041V17H70.5291V6.515H76.6041V8.225H72.6291ZM84.9775 6.53V8.225H80.6125V10.91H83.9575V12.575H80.6125V17H78.5125V6.53H84.9775ZM92.7366 17L90.4716 13.475L88.4166 17H86.0466L89.3466 11.72L86.0016 6.53H88.4166L90.6816 10.04L92.7216 6.53H95.0916L91.8066 11.795L95.1516 17H92.7366Z" fill="#3C3C3C"/>
</g>
<defs>
<linearGradient id="paint0_linear_16692_8421" x1="19.3" y1="21.2" x2="-3.43454" y2="11.1928" gradientUnits="userSpaceOnUse">
<stop stop-color="#5855FF"/>
<stop offset="1" stop-color="#E036FF"/>
</linearGradient>
<clipPath id="clip0_16692_8421">
<rect width="95" height="22" fill="white"/>
</clipPath>
<clipPath id="clip1_16692_8421">
<rect width="20" height="20" fill="white" transform="translate(0 1.5)"/>
</clipPath>
</defs>
</svg>
