<svg width="62" height="10" viewBox="0 0 62 10" fill="none" xmlns="http://www.w3.org/2000/svg">
<path d="M10.0371 5.27734C10.0413 5.30697 10.0456 5.33659 10.0498 5.36621C10.054 5.3916 10.0562 5.41911 10.0562 5.44873C10.0562 5.86768 10.0011 6.27181 9.89111 6.66113C9.78532 7.04622 9.63298 7.40804 9.43408 7.74658C9.23519 8.08512 8.99821 8.39193 8.72314 8.66699C8.44808 8.94206 8.14128 9.17904 7.80273 9.37793C7.46419 9.57682 7.10026 9.73128 6.71094 9.84131C6.32585 9.9471 5.92383 10 5.50488 10C5.08594 10 4.6818 9.9471 4.29248 9.84131C3.90739 9.73128 3.54557 9.57682 3.20703 9.37793C2.86849 9.17904 2.56169 8.94206 2.28662 8.66699C2.01156 8.39193 1.77458 8.08512 1.57568 7.74658C1.37679 7.40804 1.22233 7.04622 1.1123 6.66113C1.00651 6.27181 0.953613 5.86768 0.953613 5.44873C0.953613 5.02979 1.00651 4.62777 1.1123 4.24268C1.22233 3.85335 1.37679 3.48942 1.57568 3.15088C1.77458 2.81234 2.01156 2.50553 2.28662 2.23047C2.56169 1.9554 2.86849 1.71842 3.20703 1.51953C3.54557 1.32064 3.90739 1.16829 4.29248 1.0625C4.6818 0.952474 5.08594 0.897461 5.50488 0.897461C6.14388 0.897461 6.74056 1.01807 7.29492 1.25928C7.84928 1.50049 8.33382 1.83268 8.74854 2.25586L8.58984 2.39551L7.56152 3.29053C7.29069 3.03239 6.97965 2.82926 6.62842 2.68115C6.28141 2.53304 5.9069 2.45898 5.50488 2.45898C5.0944 2.45898 4.70719 2.53727 4.34326 2.69385C3.97933 2.85042 3.66195 3.06413 3.39111 3.33496C3.12028 3.60579 2.90658 3.92318 2.75 4.28711C2.59342 4.64681 2.51514 5.03402 2.51514 5.44873C2.51514 5.85921 2.59342 6.24642 2.75 6.61035C2.90658 6.97428 3.12028 7.29167 3.39111 7.5625C3.66195 7.83333 3.97933 8.04704 4.34326 8.20361C4.70719 8.36019 5.0944 8.43848 5.50488 8.43848C5.78841 8.43848 6.05924 8.40039 6.31738 8.32422C6.57975 8.24382 6.82308 8.13379 7.04736 7.99414C7.27588 7.85449 7.479 7.68734 7.65674 7.49268C7.8387 7.29801 7.99316 7.08431 8.12012 6.85156H5.50488V6.23584V5.27734H9.22461H10.0371ZM15.5723 8.42578C15.9574 8.42578 16.3128 8.35384 16.6387 8.20996C16.9688 8.06608 17.2734 7.85449 17.5527 7.5752C18.1156 7.02507 18.397 6.32471 18.397 5.47412C18.397 4.65739 18.1156 3.95492 17.5527 3.3667C17.0111 2.79964 16.3361 2.51611 15.5278 2.51611C14.7111 2.51611 14.0382 2.79964 13.5093 3.3667C12.9676 3.9126 12.6968 4.61507 12.6968 5.47412C12.6968 6.43896 13.048 7.20703 13.7505 7.77832C14.2795 8.20996 14.8867 8.42578 15.5723 8.42578ZM15.5723 10C14.2816 10 13.2004 9.55566 12.3286 8.66699C11.4653 7.74447 11.0337 6.68018 11.0337 5.47412C11.0337 4.6193 11.2368 3.84912 11.6431 3.16357C12.0324 2.46956 12.5825 1.91732 13.2935 1.50684C14.0002 1.10059 14.7598 0.897461 15.5723 0.897461C16.7826 0.897461 17.832 1.3418 18.7207 2.23047C19.6178 3.13607 20.0664 4.21729 20.0664 5.47412C20.0664 6.76058 19.6326 7.83757 18.7651 8.70508C17.8892 9.56836 16.8249 10 15.5723 10ZM25.7539 8.42578C26.139 8.42578 26.4945 8.35384 26.8203 8.20996C27.1504 8.06608 27.4551 7.85449 27.7344 7.5752C28.2972 7.02507 28.5786 6.32471 28.5786 5.47412C28.5786 4.65739 28.2972 3.95492 27.7344 3.3667C27.1927 2.79964 26.5177 2.51611 25.7095 2.51611C24.8927 2.51611 24.2199 2.79964 23.6909 3.3667C23.1493 3.9126 22.8784 4.61507 22.8784 5.47412C22.8784 6.43896 23.2297 7.20703 23.9321 7.77832C24.4611 8.20996 25.0684 8.42578 25.7539 8.42578ZM25.7539 10C24.4632 10 23.382 9.55566 22.5103 8.66699C21.647 7.74447 21.2153 6.68018 21.2153 5.47412C21.2153 4.6193 21.4185 3.84912 21.8247 3.16357C22.214 2.46956 22.7642 1.91732 23.4751 1.50684C24.1818 1.10059 24.9414 0.897461 25.7539 0.897461C26.9642 0.897461 28.0137 1.3418 28.9023 2.23047C29.7995 3.13607 30.248 4.21729 30.248 5.47412C30.248 6.76058 29.8143 7.83757 28.9468 8.70508C28.0708 9.56836 27.0065 10 25.7539 10ZM33.4536 10C32.2349 10 31.3081 9.36735 30.6733 8.10205L32.0889 7.25781C32.5036 8.03646 32.9733 8.42578 33.498 8.42578C33.7731 8.42578 34.0143 8.34538 34.2217 8.18457C34.4079 8.01107 34.501 7.82275 34.501 7.61963C34.501 7.42074 34.4354 7.21973 34.3042 7.0166C34.2196 6.91927 34.0968 6.79867 33.936 6.65479C33.7752 6.50667 33.5742 6.33105 33.333 6.12793C32.8717 5.74284 32.4888 5.4043 32.1841 5.1123C31.8836 4.81608 31.6636 4.56429 31.5239 4.35693C31.2277 3.93376 31.0796 3.51904 31.0796 3.11279C31.0796 2.50342 31.3081 1.98079 31.7651 1.54492C32.2391 1.11328 32.8019 0.897461 33.4536 0.897461C33.9022 0.897461 34.319 1.00537 34.7041 1.22119C34.903 1.31852 35.1082 1.45817 35.3198 1.64014C35.5314 1.8221 35.7557 2.04427 35.9927 2.30664L34.7422 3.39209C34.3232 2.80387 33.8937 2.50977 33.4536 2.50977C33.2082 2.50977 33.0347 2.56266 32.9331 2.66846C32.7977 2.77425 32.73 2.90967 32.73 3.07471C32.73 3.20166 32.7702 3.33285 32.8506 3.46826C32.931 3.5529 33.0706 3.6862 33.2695 3.86816C33.4727 4.0459 33.7371 4.27653 34.063 4.56006C34.4438 4.87744 34.7337 5.12923 34.9326 5.31543C35.0638 5.43392 35.1611 5.51855 35.2246 5.56934C35.8171 6.14062 36.1133 6.79655 36.1133 7.53711C36.1133 8.26497 35.87 8.85742 35.3833 9.31445C34.9009 9.77148 34.2576 10 33.4536 10ZM42.6514 0.897461V2.59229H38.8809V4.62354H42.6514V6.27393H38.8809V8.30518H42.6514V10H37.186V0.897461H42.6514ZM52.8203 0.897461V2.59229H49.5132V4.62354H52.8203V6.27393H49.5132V10H47.7739V0.897461H52.8203ZM61.9165 10H59.9614L57.8794 6.81348L55.7466 10H53.7915L56.8574 5.31543L53.9629 0.897461H55.918L58.8569 5.31543C59.424 6.18717 59.8789 6.88753 60.2217 7.4165C60.5687 7.94548 60.8078 8.30941 60.939 8.5083L61.9165 10ZM59.5742 4.21094L58.5586 2.72559L59.79 0.897461H61.7515L59.5742 4.21094Z" fill="#EEEEEE"/>
</svg>
