<svg width="127" height="21" viewBox="0 0 127 21" fill="none" xmlns="http://www.w3.org/2000/svg">
<path d="M14.5569 6.66133C14.1196 5.85955 13.5182 5.24911 12.7529 4.83C11.9876 4.41089 11.0947 4.20133 10.0742 4.20133C8.94445 4.20133 7.94223 4.45644 7.06756 4.96667C6.19289 5.47689 5.50956 6.20578 5.01756 7.15333C4.52556 8.10089 4.27956 9.19422 4.27956 10.4333C4.27956 11.7089 4.52556 12.8204 5.01756 13.768C5.52778 14.7156 6.22934 15.4444 7.12223 15.9547C8.01512 16.4649 9.05378 16.72 10.2382 16.72C11.696 16.72 12.8896 16.3373 13.8189 15.572C14.7482 14.7884 15.3587 13.7042 15.6502 12.3193H9.09023V9.39467H19.4222V12.7293C19.1671 14.0596 18.6205 15.2896 17.7822 16.4193C16.944 17.5491 15.8598 18.4602 14.5296 19.1527C13.2176 19.8269 11.7416 20.164 10.1016 20.164C8.26112 20.164 6.59378 19.754 5.09956 18.934C3.62356 18.0958 2.45734 16.9387 1.60089 15.4627C0.762672 13.9867 0.343561 12.3102 0.343561 10.4333C0.343561 8.55644 0.762672 6.88 1.60089 5.404C2.45734 3.90978 3.62356 2.75267 5.09956 1.93267C6.59378 1.09444 8.25201 0.675332 10.0742 0.675332C12.2245 0.675332 14.0922 1.20378 15.6776 2.26066C17.2629 3.29933 18.3562 4.76622 18.9576 6.66133H14.5569ZM31.1094 20.1913C29.3236 20.1913 27.6836 19.7722 26.1894 18.934C24.6951 18.0958 23.5107 16.9387 22.636 15.4627C21.7614 13.9684 21.324 12.2829 21.324 10.406C21.324 8.54733 21.7614 6.88 22.636 5.404C23.5107 3.90978 24.6951 2.74355 26.1894 1.90533C27.6836 1.06711 29.3236 0.647999 31.1094 0.647999C32.9134 0.647999 34.5534 1.06711 36.0294 1.90533C37.5236 2.74355 38.6989 3.90978 39.5554 5.404C40.43 6.88 40.8674 8.54733 40.8674 10.406C40.8674 12.2829 40.43 13.9684 39.5554 15.4627C38.6989 16.9387 37.5236 18.0958 36.0294 18.934C34.5351 19.7722 32.8951 20.1913 31.1094 20.1913ZM31.1094 16.7747C32.2574 16.7747 33.2687 16.5196 34.1434 16.0093C35.018 15.4809 35.7014 14.7338 36.1934 13.768C36.6854 12.8022 36.9314 11.6816 36.9314 10.406C36.9314 9.13044 36.6854 8.01889 36.1934 7.07133C35.7014 6.10555 35.018 5.36755 34.1434 4.85733C33.2687 4.34711 32.2574 4.092 31.1094 4.092C29.9614 4.092 28.9409 4.34711 28.048 4.85733C27.1734 5.36755 26.49 6.10555 25.998 7.07133C25.506 8.01889 25.26 9.13044 25.26 10.406C25.26 11.6816 25.506 12.8022 25.998 13.768C26.49 14.7338 27.1734 15.4809 28.048 16.0093C28.9409 16.5196 29.9614 16.7747 31.1094 16.7747ZM52.5703 20.1913C50.7845 20.1913 49.1445 19.7722 47.6503 18.934C46.1561 18.0958 44.9716 16.9387 44.097 15.4627C43.2223 13.9684 42.785 12.2829 42.785 10.406C42.785 8.54733 43.2223 6.88 44.097 5.404C44.9716 3.90978 46.1561 2.74355 47.6503 1.90533C49.1445 1.06711 50.7845 0.647999 52.5703 0.647999C54.3743 0.647999 56.0143 1.06711 57.4903 1.90533C58.9845 2.74355 60.1599 3.90978 61.0163 5.404C61.891 6.88 62.3283 8.54733 62.3283 10.406C62.3283 12.2829 61.891 13.9684 61.0163 15.4627C60.1599 16.9387 58.9845 18.0958 57.4903 18.934C55.9961 19.7722 54.3561 20.1913 52.5703 20.1913ZM52.5703 16.7747C53.7183 16.7747 54.7296 16.5196 55.6043 16.0093C56.479 15.4809 57.1623 14.7338 57.6543 13.768C58.1463 12.8022 58.3923 11.6816 58.3923 10.406C58.3923 9.13044 58.1463 8.01889 57.6543 7.07133C57.1623 6.10555 56.479 5.36755 55.6043 4.85733C54.7296 4.34711 53.7183 4.092 52.5703 4.092C51.4223 4.092 50.4019 4.34711 49.509 4.85733C48.6343 5.36755 47.951 6.10555 47.459 7.07133C46.967 8.01889 46.721 9.13044 46.721 10.406C46.721 11.6816 46.967 12.8022 47.459 13.768C47.951 14.7338 48.6343 15.4809 49.509 16.0093C50.4019 16.5196 51.4223 16.7747 52.5703 16.7747ZM71.7626 20.1913C70.4323 20.1913 69.2297 19.9636 68.1546 19.508C67.0977 19.0524 66.2595 18.3964 65.6399 17.54C65.0203 16.6836 64.7015 15.6722 64.6832 14.506H68.7832C68.8379 15.2896 69.1112 15.9091 69.6032 16.3647C70.1135 16.8202 70.8059 17.048 71.6806 17.048C72.5735 17.048 73.275 16.8384 73.7852 16.4193C74.2955 15.982 74.5506 15.4171 74.5506 14.7247C74.5506 14.1598 74.3775 13.6951 74.0312 13.3307C73.685 12.9662 73.2477 12.6838 72.7192 12.4833C72.209 12.2647 71.4983 12.0278 70.5872 11.7727C69.3481 11.4082 68.3368 11.0529 67.5532 10.7067C66.7879 10.3422 66.1228 9.80467 65.5579 9.094C65.0112 8.36511 64.7379 7.39933 64.7379 6.19667C64.7379 5.06689 65.0203 4.08289 65.5852 3.24467C66.1501 2.40644 66.9428 1.76867 67.9632 1.33133C68.9837 0.875777 70.1499 0.647999 71.4619 0.647999C73.4299 0.647999 75.0243 1.13089 76.2452 2.09667C77.4844 3.04422 78.1677 4.37444 78.2952 6.08733H74.0859C74.0495 5.43133 73.767 4.89378 73.2386 4.47467C72.7283 4.03733 72.045 3.81867 71.1886 3.81867C70.4415 3.81867 69.8401 4.01 69.3846 4.39267C68.9472 4.77533 68.7286 5.33111 68.7286 6.06C68.7286 6.57022 68.8926 6.99844 69.2206 7.34467C69.5668 7.67267 69.9859 7.946 70.4779 8.16467C70.9881 8.36511 71.6988 8.602 72.6099 8.87533C73.849 9.23978 74.8603 9.60422 75.6439 9.96867C76.4275 10.3331 77.1017 10.8798 77.6666 11.6087C78.2315 12.3376 78.5139 13.2942 78.5139 14.4787C78.5139 15.4991 78.2497 16.4467 77.7212 17.3213C77.1928 18.196 76.4183 18.8976 75.3979 19.426C74.3775 19.9362 73.1657 20.1913 71.7626 20.1913ZM85.6582 4.01V8.79333H92.0815V11.8273H85.6582V16.884H92.9015V20H81.8315V0.893998H92.9015V4.01H85.6582ZM108.16 0.921333V4.01H100.206V8.90267H106.301V11.9367H100.206V20H96.379V0.921333H108.16ZM122.298 20L118.171 13.5767L114.426 20H110.108L116.121 10.3787L110.026 0.921333H114.426L118.554 7.31733L122.271 0.921333H126.59L120.604 10.5153L126.699 20H122.298Z" fill="white"/>
</svg>
