<svg width="60" height="60" viewBox="0 0 60 60" fill="none" xmlns="http://www.w3.org/2000/svg">
<path fill-rule="evenodd" clip-rule="evenodd" d="M40.5995 1.72913C39.8584 1.54185 39.144 1.37111 38.6068 1.26312C35.9074 0.720431 32.6009 0.889255 30.4106 1.1072C28.8152 1.26595 27.2425 1.57597 25.6893 1.97344C24.4738 2.28449 23.011 2.69087 21.8844 3.10256C9.51398 7.62343 2.10001 17.6364 2.10001 30.4796C2.10001 46.2862 14.6694 59.0999 30.1745 59.0999C43.0533 59.0999 54.1046 51.1927 57.3073 38.1791C57.3573 37.976 57.4059 37.7566 57.4527 37.5288C57.8973 35.3644 58.1556 33.0796 57.5188 30.9637C57.3264 30.3244 56.7463 29.8879 56.0892 29.8879H32.0039C31.9504 29.8879 31.8972 29.8957 31.8458 29.911C31.5488 29.9999 31.3787 30.317 31.4661 30.6193L32.5649 34.6312C33.2789 37.2386 35.6484 39.0464 38.3518 39.0464H43.5025C43.962 39.0464 44.2474 39.5403 43.9943 39.9239C40.951 44.5358 35.535 47.2499 30.1883 47.2499C20.8852 47.2499 13.3054 39.9338 13.3054 30.4499C13.3054 20.966 20.9389 13.4999 30.1883 13.4999C30.3223 13.4999 30.4572 13.501 30.5921 13.503C32.6094 13.533 34.548 14.1636 36.3949 14.9758C36.8497 15.1758 37.4309 15.3541 37.9635 15.4958C38.9411 15.7559 39.9473 15.8909 40.9584 15.9225C41.357 15.935 41.7807 15.9391 42.1578 15.9233C42.5594 15.9066 42.76 15.4844 42.5628 15.1341L42.3638 14.781C41.9879 14.1135 42.1027 13.299 42.522 12.6579C42.7571 12.2984 42.9349 11.935 42.9586 11.632C42.9717 11.4635 42.967 11.3054 42.9444 11.1578C42.873 10.6912 42.3407 10.5663 41.8285 10.4462C41.6592 10.4065 41.4921 10.3673 41.3446 10.3165C41.2675 10.2899 41.186 10.2566 41.1 10.2155C39.0917 9.25463 40.0022 5.6348 42.2014 5.98141C42.3485 6.00461 42.4941 6.04452 42.6363 6.10409L42.9748 6.24557C43.8646 6.61665 44.7956 6.97012 45.7446 6.79986C46.0435 6.74622 46.3813 6.58558 46.7579 6.31795C46.9968 6.14823 46.9483 5.67138 46.7768 5.43381C45.2962 3.38245 43.0522 2.349 40.5995 1.72913ZM51.9143 12.0534L57.4664 16.8529C58.1507 17.4444 57.6361 18.5631 56.7433 18.4248L46.7647 16.8787C44.6269 16.5475 43.3937 14.2628 44.2886 12.2917L44.3918 12.0645C44.5991 11.6078 44.5992 11.0833 44.3919 10.626C44.1349 10.0589 43.5823 9.68378 42.9616 9.65493L42.6283 9.63944C41.8674 9.60407 41.3275 8.88096 41.5089 8.14014L41.5175 8.10507C41.6998 7.36073 42.5547 7.01273 43.2047 7.41825L43.6672 7.70681C44.5539 8.26001 45.6236 8.43708 46.6398 8.19892C46.9445 8.1275 47.23 7.99079 47.4768 7.79817L47.5155 7.76794C48.0673 7.33715 48.8443 7.34832 49.3848 7.7948L49.524 7.90986C50.3027 8.55309 50.8514 9.43258 51.0872 10.4153L51.1977 10.8757C51.3075 11.3337 51.5582 11.7456 51.9143 12.0534Z" fill="url(#paint0_linear_16832_148)"/>
<defs>
<linearGradient id="paint0_linear_16832_148" x1="57.9001" y1="59.0999" x2="-10.3035" y2="29.078" gradientUnits="userSpaceOnUse">
<stop stop-color="#5855FF"/>
<stop offset="1" stop-color="#E036FF"/>
</linearGradient>
</defs>
</svg>
