<svg width="35" height="35" viewBox="0 0 35 35" fill="none" xmlns="http://www.w3.org/2000/svg">
<g id="Theme=Lightmode">
<g id="vuesax/linear/menu">
<g id="menu">
<g id="Group">
<path id="Vector" d="M25.5791 12.1188C27.5604 12.1188 29.1666 10.5127 29.1666 8.53135C29.1666 6.55003 27.5604 4.94385 25.5791 4.94385C23.5978 4.94385 21.9916 6.55003 21.9916 8.53135C21.9916 10.5127 23.5978 12.1188 25.5791 12.1188Z" stroke="#3C3C3C" stroke-width="1.8" stroke-miterlimit="10" stroke-linecap="round" stroke-linejoin="round"/>
<path id="Vector_2" d="M9.42082 12.1188C11.4021 12.1188 13.0083 10.5127 13.0083 8.53135C13.0083 6.55003 11.4021 4.94385 9.42082 4.94385C7.4395 4.94385 5.83331 6.55003 5.83331 8.53135C5.83331 10.5127 7.4395 12.1188 9.42082 12.1188Z" stroke="#3C3C3C" stroke-width="1.8" stroke-miterlimit="10" stroke-linecap="round" stroke-linejoin="round"/>
<path id="Vector_3" d="M25.5791 30.0563C27.5604 30.0563 29.1666 28.4502 29.1666 26.4688C29.1666 24.4875 27.5604 22.8813 25.5791 22.8813C23.5978 22.8813 21.9916 24.4875 21.9916 26.4688C21.9916 28.4502 23.5978 30.0563 25.5791 30.0563Z" stroke="#3C3C3C" stroke-width="1.8" stroke-miterlimit="10" stroke-linecap="round" stroke-linejoin="round"/>
<path id="Vector_4" d="M9.42082 30.0563C11.4021 30.0563 13.0083 28.4502 13.0083 26.4688C13.0083 24.4875 11.4021 22.8813 9.42082 22.8813C7.4395 22.8813 5.83331 24.4875 5.83331 26.4688C5.83331 28.4502 7.4395 30.0563 9.42082 30.0563Z" stroke="#3C3C3C" stroke-width="1.8" stroke-miterlimit="10" stroke-linecap="round" stroke-linejoin="round"/>
</g>
</g>
</g>
</g>
</svg>
