<svg width="35" height="35" viewBox="0 0 35 35" fill="none" xmlns="http://www.w3.org/2000/svg">
<g id="Theme=Darkmode">
<g id="vuesax/linear/menu">
<g id="menu">
<g id="Group">
<path id="Vector" d="M25.5792 12.1188C27.5605 12.1188 29.1667 10.5127 29.1667 8.53135C29.1667 6.55003 27.5605 4.94385 25.5792 4.94385C23.5979 4.94385 21.9917 6.55003 21.9917 8.53135C21.9917 10.5127 23.5979 12.1188 25.5792 12.1188Z" stroke="#EEEEEE" stroke-width="1.8" stroke-miterlimit="10" stroke-linecap="round" stroke-linejoin="round"/>
<path id="Vector_2" d="M9.42088 12.1188C11.4022 12.1188 13.0084 10.5127 13.0084 8.53135C13.0084 6.55003 11.4022 4.94385 9.42088 4.94385C7.43956 4.94385 5.83337 6.55003 5.83337 8.53135C5.83337 10.5127 7.43956 12.1188 9.42088 12.1188Z" stroke="#EEEEEE" stroke-width="1.8" stroke-miterlimit="10" stroke-linecap="round" stroke-linejoin="round"/>
<path id="Vector_3" d="M25.5792 30.0563C27.5605 30.0563 29.1667 28.4502 29.1667 26.4688C29.1667 24.4875 27.5605 22.8813 25.5792 22.8813C23.5979 22.8813 21.9917 24.4875 21.9917 26.4688C21.9917 28.4502 23.5979 30.0563 25.5792 30.0563Z" stroke="#EEEEEE" stroke-width="1.8" stroke-miterlimit="10" stroke-linecap="round" stroke-linejoin="round"/>
<path id="Vector_4" d="M9.42088 30.0563C11.4022 30.0563 13.0084 28.4502 13.0084 26.4688C13.0084 24.4875 11.4022 22.8813 9.42088 22.8813C7.43956 22.8813 5.83337 24.4875 5.83337 26.4688C5.83337 28.4502 7.43956 30.0563 9.42088 30.0563Z" stroke="#EEEEEE" stroke-width="1.8" stroke-miterlimit="10" stroke-linecap="round" stroke-linejoin="round"/>
</g>
</g>
</g>
</g>
</svg>
