<svg width="24" height="24" viewBox="0 0 24 24" fill="none" xmlns="http://www.w3.org/2000/svg">
<mask id="path-1-inside-1_17162_923" fill="white">
<path fill-rule="evenodd" clip-rule="evenodd" d="M21.3407 16.7412C21.7239 16.0629 21.035 15.3261 20.2588 15.393C20.0298 15.4127 19.7981 15.4228 19.564 15.4228C15.153 15.4228 11.5773 11.847 11.5773 7.43609C11.5773 5.76095 12.093 4.20627 12.9743 2.92215C13.4125 2.28361 13.1102 1.32861 12.3357 1.32861C6.62745 1.32861 2 5.95607 2 11.6643C2 17.3726 6.62745 22 12.3357 22C16.1988 22 19.5669 19.8806 21.3407 16.7412Z"/>
</mask>
<path fill-rule="evenodd" clip-rule="evenodd" d="M21.3407 16.7412C21.7239 16.0629 21.035 15.3261 20.2588 15.393C20.0298 15.4127 19.7981 15.4228 19.564 15.4228C15.153 15.4228 11.5773 11.847 11.5773 7.43609C11.5773 5.76095 12.093 4.20627 12.9743 2.92215C13.4125 2.28361 13.1102 1.32861 12.3357 1.32861C6.62745 1.32861 2 5.95607 2 11.6643C2 17.3726 6.62745 22 12.3357 22C16.1988 22 19.5669 19.8806 21.3407 16.7412Z" fill="url(#paint0_linear_17162_923)"/>
<path d="M20.2588 15.393L20.0975 13.5207L20.2588 15.393ZM20.0975 13.5207C19.9221 13.5358 19.7441 13.5435 19.564 13.5435V17.302C19.852 17.302 20.1376 17.2896 20.4202 17.2652L20.0975 13.5207ZM19.564 13.5435C16.1909 13.5435 13.4565 10.8091 13.4565 7.43609H9.69805C9.69805 12.8849 14.1152 17.302 19.564 17.302V13.5435ZM13.4565 7.43609C13.4565 6.15254 13.8504 4.96664 14.5237 3.98554L11.4249 1.85876C10.3356 3.4459 9.69805 5.36937 9.69805 7.43609H13.4565ZM3.87922 11.6643C3.87922 6.99393 7.66532 3.20783 12.3357 3.20783V-0.550606C5.58959 -0.550606 0.120781 4.9182 0.120781 11.6643H3.87922ZM12.3357 20.1208C7.66532 20.1208 3.87922 16.3347 3.87922 11.6643H0.120781C0.120781 18.4104 5.58959 23.8792 12.3357 23.8792V20.1208ZM19.7046 15.8168C18.2505 18.3903 15.494 20.1208 12.3357 20.1208V23.8792C16.9036 23.8792 20.8833 21.371 22.9768 17.6656L19.7046 15.8168ZM14.5237 3.98554C15.098 3.1487 15.1953 2.10894 14.8727 1.23504C14.5297 0.30605 13.6377 -0.550606 12.3357 -0.550606V3.20783C12.123 3.20783 11.8854 3.13556 11.6839 2.98177C11.4954 2.83795 11.3951 2.66745 11.3469 2.53682C11.2594 2.30006 11.2888 2.05706 11.4249 1.85876L14.5237 3.98554ZM20.4202 17.2652C20.1845 17.2855 19.963 17.1935 19.8022 17.0041C19.7132 16.8993 19.6141 16.7293 19.5813 16.4949C19.5463 16.2441 19.6001 16.0017 19.7046 15.8168L22.9768 17.6656C23.6198 16.5277 23.3087 15.3268 22.6669 14.5712C22.0634 13.8605 21.1093 13.4335 20.0975 13.5207L20.4202 17.2652Z" fill="#3C3C3C" mask="url(#path-1-inside-1_17162_923)"/>
<defs>
<linearGradient id="paint0_linear_17162_923" x1="2" y1="11.7919" x2="20.1807" y2="16.5955" gradientUnits="userSpaceOnUse">
<stop stop-color="#F7931A"/>
<stop offset="1" stop-color="#C31AE3"/>
</linearGradient>
</defs>
</svg>
