<svg width="40" height="40" viewBox="0 0 40 40" fill="none" xmlns="http://www.w3.org/2000/svg">
<g id="State=Active, Feature=NFT&#39;s, Theme=Darkmode">
<g id="Group 27529">
<path id="Vector" d="M16.1 33H23.9C30.4 33 33 30.4 33 23.9V16.1C33 9.6 30.4 7 23.9 7H16.1C9.6 7 7 9.6 7 16.1V23.9C7 30.4 9.6 33 16.1 33Z" stroke="#EEEEEE" stroke-width="1.8" stroke-linecap="round" stroke-linejoin="round"/>
<g id="Union">
<path d="M13.4997 23.8999C11.495 23.8999 9.73759 25.6311 8.68516 26.9578C7.99245 27.831 8.04022 29.0357 8.65849 29.9631C9.65257 31.4543 11.3261 32.3499 13.1182 32.3499H25.7421C29.8815 32.3499 33.0302 28.633 32.3497 24.5499C32.3497 24.5499 30.2737 20.6499 27.1497 20.6499C23.8997 20.6499 20.553 25.8537 18.6997 25.8537C17.4252 25.8537 15.4497 23.8999 13.4997 23.8999Z" fill="url(#paint0_linear_15815_5845)"/>
<path d="M8.68516 26.9578L7.98008 26.3984H7.98008L8.68516 26.9578ZM32.3497 24.5499L33.2374 24.4019C33.2214 24.3059 33.1899 24.213 33.1441 24.127L32.3497 24.5499ZM8.65849 29.9631L9.40734 29.4639L8.65849 29.9631ZM9.39025 27.5171C9.88862 26.8889 10.5336 26.1919 11.2654 25.6587C12.0015 25.1223 12.7581 24.7999 13.4997 24.7999V22.9999C12.2366 22.9999 11.1121 23.5432 10.2053 24.204C9.29405 24.868 8.53413 25.7 7.98008 26.3984L9.39025 27.5171ZM13.4997 24.7999C14.2139 24.7999 15.0036 25.1668 15.9226 25.6672C16.3454 25.8975 16.8154 26.1656 17.245 26.3649C17.6658 26.5601 18.1765 26.7537 18.6997 26.7537V24.9537C18.5856 24.9537 18.3715 24.9032 18.0024 24.732C17.6423 24.565 17.2576 24.3446 16.7834 24.0864C15.9085 23.6099 14.7355 22.9999 13.4997 22.9999V24.7999ZM18.6997 26.7537C19.1332 26.7537 19.536 26.6048 19.8749 26.4296C20.2205 26.2509 20.5656 26.01 20.8985 25.7502C21.5521 25.2401 22.2912 24.5488 22.9963 23.9267C23.7278 23.2814 24.4593 22.6756 25.1876 22.2313C25.9208 21.7841 26.5723 21.5499 27.1497 21.5499V19.7499C26.102 19.7499 25.1165 20.1662 24.2502 20.6947C23.379 21.2261 22.5487 21.9213 21.8055 22.5769C21.0361 23.2557 20.3879 23.8654 19.7911 24.3311C19.4989 24.5592 19.2531 24.7247 19.0482 24.8307C18.8367 24.94 18.7295 24.9537 18.6997 24.9537V26.7537ZM27.1497 21.5499C28.3337 21.5499 29.41 22.2993 30.2631 23.2138C30.6758 23.6563 31.0031 24.1025 31.2273 24.4393C31.3389 24.6069 31.4235 24.7451 31.4791 24.8394C31.5068 24.8864 31.5272 24.9224 31.54 24.9453C31.5464 24.9567 31.5509 24.9649 31.5534 24.9695C31.5547 24.9719 31.5555 24.9733 31.5558 24.9739C31.5559 24.9742 31.556 24.9742 31.5559 24.974C31.5558 24.9739 31.5557 24.9738 31.5556 24.9736C31.5556 24.9735 31.5555 24.9733 31.5554 24.9732C31.5553 24.973 31.5552 24.9728 32.3497 24.5499C33.1441 24.127 33.144 24.1268 33.1438 24.1265C33.1438 24.1264 33.1436 24.1261 33.1435 24.1259C33.1433 24.1254 33.143 24.1249 33.1427 24.1244C33.1421 24.1232 33.1414 24.1219 33.1405 24.1203C33.1388 24.1171 33.1365 24.1129 33.1338 24.1079C33.1283 24.0978 33.1208 24.0841 33.1112 24.067C33.092 24.0327 33.0648 23.9848 33.0297 23.9253C32.9595 23.8062 32.8575 23.6398 32.7256 23.4417C32.463 23.0473 32.076 22.5185 31.5793 21.986C30.6134 20.9505 29.0896 19.7499 27.1497 19.7499V21.5499ZM25.7421 31.4499H13.1182V33.2499H25.7421V31.4499ZM13.1182 31.4499C11.627 31.4499 10.2345 30.7046 9.40734 29.4639L7.90965 30.4624C9.07064 32.2039 11.0252 33.2499 13.1182 33.2499V31.4499ZM31.4619 24.6979C32.051 28.2324 29.3253 31.4499 25.7421 31.4499V33.2499C30.4376 33.2499 34.0094 29.0336 33.2374 24.4019L31.4619 24.6979ZM7.98008 26.3984C7.00327 27.6298 7.11407 29.269 7.90965 30.4624L9.40734 29.4639C8.96637 28.8025 8.98163 28.0322 9.39025 27.5171L7.98008 26.3984Z" fill="#EEEEEE"/>
</g>
<path id="Vector_2" d="M14.5 17C15.8807 17 17 15.8807 17 14.5C17 13.1193 15.8807 12 14.5 12C13.1193 12 12 13.1193 12 14.5C12 15.8807 13.1193 17 14.5 17Z" fill="url(#paint1_linear_15815_5845)" stroke="#EEEEEE" stroke-width="1.8" stroke-linecap="round" stroke-linejoin="round"/>
</g>
</g>
<defs>
<linearGradient id="paint0_linear_15815_5845" x1="8.18018" y1="25.3299" x2="32.07" y2="31.2264" gradientUnits="userSpaceOnUse">
<stop stop-color="#F7931A"/>
<stop offset="1" stop-color="#7A227A"/>
</linearGradient>
<linearGradient id="paint1_linear_15815_5845" x1="12" y1="14" x2="17.1502" y2="14.613" gradientUnits="userSpaceOnUse">
<stop stop-color="#F7931A"/>
<stop offset="1" stop-color="#7A227A"/>
</linearGradient>
</defs>
</svg>
