<svg width="30" height="30" viewBox="0 0 30 30" fill="none" xmlns="http://www.w3.org/2000/svg">
<path d="M12.5 24.5H17.5V25C17.5 26.3807 16.3807 27.5 15 27.5V27.5C13.6193 27.5 12.5 26.3807 12.5 25V24.5Z" stroke="#B5B5B5" stroke-width="1.6"/>
<path d="M23.8448 21.5H6.04554C4.24974 21.5 3.38792 19.2958 4.70748 18.0777C6.48759 16.4345 7.5 14.1222 7.5 11.6996V10.3501C7.5 6.29073 10.7907 3 14.8501 3C19.0246 3 22.3611 6.4726 22.1942 10.6438L22.1624 11.4389C22.0598 14.0038 23.1369 16.4745 25.0859 18.1451C26.4302 19.2973 25.6153 21.5 23.8448 21.5Z" stroke="#B5B5B5" stroke-width="1.6"/>
</svg>
