<svg width="31" height="26" viewBox="0 0 31 26" fill="none" xmlns="http://www.w3.org/2000/svg">
<g id="Group 27547">
<path id="Ellipse 2935" d="M29.5 21.7517C29.5 21.8266 29.4375 22.1239 28.7648 22.5744C28.1288 23.0003 27.1425 23.423 25.8341 23.7935C23.231 24.5308 19.577 25 15.5 25C11.423 25 7.76904 24.5308 5.1659 23.7935C3.85746 23.423 2.87123 23.0003 2.23517 22.5744C1.56246 22.1239 1.5 21.8266 1.5 21.7517C1.5 21.6767 1.56246 21.3794 2.23517 20.9289C2.87123 20.503 3.85746 20.0803 5.1659 19.7098C7.76904 18.9725 11.423 18.5033 15.5 18.5033C19.577 18.5033 23.231 18.9725 25.8341 19.7098C27.1425 20.0803 28.1288 20.503 28.7648 20.9289C29.4375 21.3794 29.5 21.6767 29.5 21.7517Z" fill="#1C1C1C" stroke="#636363" stroke-width="2"/>
<g id="Stairs">
<path id="Vector" d="M10.5 3.68909H20.5" stroke="#636363" stroke-width="2" stroke-linecap="round" stroke-linejoin="round"/>
<path id="Vector_2" d="M10.5 8.67493H20.5" stroke="#636363" stroke-width="2" stroke-linecap="round" stroke-linejoin="round"/>
<path id="Vector_3" d="M10.5 13.661H20.5" stroke="#636363" stroke-width="2" stroke-linecap="round" stroke-linejoin="round"/>
<path id="Vector_4" d="M10.5 1V18.507" stroke="#636363" stroke-width="2" stroke-linecap="round" stroke-linejoin="round"/>
<path id="Vector_5" d="M20.5 1V18.507" stroke="#636363" stroke-width="2" stroke-linecap="round" stroke-linejoin="round"/>
</g>
</g>
</svg>
