<svg width="20" height="20" viewBox="0 0 20 20" fill="none" xmlns="http://www.w3.org/2000/svg">
<circle cx="10" cy="10" r="10" fill="#131313"/>
<path fill-rule="evenodd" clip-rule="evenodd" d="M6.95407 6.67972C7.12741 6.5136 7.03132 6.18521 6.79176 6.16943L5.03149 6.05355C4.84247 6.04111 4.70789 6.23394 4.78476 6.40707L5.4937 8.00368C5.59017 8.22095 5.926 8.20111 6.02495 7.98496C6.25033 7.49267 6.56723 7.05045 6.95407 6.67972ZM5.64215 9.74699C5.64215 9.50881 5.34246 9.35169 5.16548 9.51108L3.64785 10.8779C3.50679 11.0049 3.55164 11.2364 3.72993 11.3015L5.7014 12.0221C5.93779 12.1085 6.16988 11.8116 6.06059 11.5849C5.79236 11.0284 5.64215 10.4051 5.64215 9.74699ZM7.28877 13.1036C7.10008 12.9567 6.79107 13.0975 6.80873 13.336L6.95554 15.3177C6.96948 15.506 7.17794 15.6125 7.33871 15.5136L9.0749 14.4449C9.2874 14.3141 9.20228 13.9549 8.95914 13.8988C8.34027 13.756 7.77276 13.4803 7.28877 13.1036ZM10.9432 13.891C10.702 13.9487 10.6197 14.3038 10.8309 14.4338L12.5852 15.5136C12.7459 15.6125 12.9544 15.506 12.9683 15.3177L13.1182 13.2947C13.1361 13.0536 12.8193 12.9126 12.6308 13.0639C12.1445 13.4541 11.5707 13.741 10.9432 13.891ZM13.3518 12.327C13.3441 12.337 13.3389 12.3485 13.3365 12.3608C13.3244 12.4223 13.3842 12.4734 13.443 12.4519L16.1456 11.4641C16.3239 11.399 16.3687 11.1675 16.2277 11.0404L14.5946 9.56972C14.4564 9.44523 14.2272 9.56096 14.2272 9.74699C14.2272 10.7167 13.901 11.6108 13.3518 12.327ZM13.7981 7.88719C13.9006 8.09683 14.2257 8.11111 14.3204 7.89781L15.0199 6.32255C15.0968 6.14943 14.9622 5.95659 14.7732 5.96904L12.9969 6.08597C12.753 6.10203 12.6584 6.44357 12.839 6.6084C13.2342 6.96914 13.561 7.40251 13.7981 7.88719ZM10.8575 5.58338C11.0959 5.63526 11.3197 5.36178 11.1926 5.15342L10.1237 3.40145C10.0256 3.24053 9.79189 3.24053 9.69372 3.40145L8.61918 5.16278C8.49087 5.37309 8.72092 5.65006 8.961 5.59477C9.27382 5.52273 9.59976 5.48465 9.93466 5.48465C10.2514 5.48465 10.5602 5.51872 10.8575 5.58338Z" fill="#FF8A00"/>
<path d="M7.82387 4.1697C8.03424 4.07229 8.29403 4.16641 8.30659 4.39746C8.30679 4.40121 8.30697 4.40497 8.30714 4.40872C8.31346 4.55252 8.2912 4.69614 8.24162 4.8314C8.19205 4.96665 8.11613 5.09088 8.0182 5.197C7.92027 5.30312 7.80225 5.38904 7.67088 5.44987C7.53951 5.5107 7.39736 5.54524 7.25255 5.55152C7.10774 5.5578 6.96309 5.53569 6.82688 5.48646C6.69067 5.43724 6.56556 5.36185 6.45869 5.26461C6.4559 5.26207 6.45312 5.25952 6.45036 5.25695C6.28019 5.09888 6.37457 4.84077 6.58493 4.74336L7.2044 4.45653L7.82387 4.1697Z" fill="#FF8A00"/>
<path d="M12.0991 4.28664C11.8887 4.18923 11.6289 4.28336 11.6164 4.5144C11.6162 4.51815 11.616 4.52191 11.6158 4.52567C11.6095 4.66946 11.6318 4.81309 11.6813 4.94834C11.7309 5.08359 11.8068 5.20782 11.9048 5.31394C12.0027 5.42006 12.1207 5.50599 12.2521 5.56682C12.3835 5.62764 12.5256 5.66218 12.6704 5.66846C12.8152 5.67474 12.9599 5.65263 13.0961 5.60341C13.2323 5.55418 13.3574 5.47879 13.4643 5.38155C13.4671 5.37901 13.4698 5.37646 13.4726 5.37389C13.6428 5.21582 13.5484 4.95771 13.338 4.86031L12.7186 4.57347L12.0991 4.28664Z" fill="#FF8A00"/>
<path d="M10.5867 15.904C10.8185 15.904 11.0136 15.7094 10.9265 15.4945C10.9251 15.4912 10.9238 15.4879 10.9224 15.4845C10.8669 15.3516 10.7856 15.2307 10.6831 15.129C10.5806 15.0272 10.4589 14.9464 10.325 14.8914C10.1911 14.8363 10.0476 14.8079 9.90262 14.8079C9.75767 14.8079 9.61413 14.8363 9.48022 14.8914C9.3463 14.9464 9.22462 15.0272 9.12212 15.129C9.01962 15.2307 8.93832 15.3516 8.88285 15.4845C8.88146 15.4879 8.88009 15.4912 8.87874 15.4945C8.79161 15.7094 8.98676 15.904 9.21858 15.904H9.90262H10.5867Z" fill="#FF8A00"/>
<path d="M5.546 14.2128C5.67289 14.4068 5.94311 14.4648 6.07695 14.2761C6.0794 14.2727 6.08184 14.2692 6.08425 14.2657C6.16635 14.1471 6.22412 14.0136 6.25425 13.8728C6.28439 13.732 6.28631 13.5867 6.25989 13.4452C6.23348 13.3036 6.17925 13.1687 6.1003 13.048C6.02135 12.9272 5.91924 12.8232 5.79978 12.7416C5.68032 12.6601 5.54586 12.6027 5.40408 12.5728C5.26229 12.5429 5.11596 12.541 4.97344 12.5672C4.96925 12.568 4.96507 12.5688 4.96089 12.5696C4.73289 12.6143 4.67628 12.883 4.80317 13.077L5.17459 13.6449L5.546 14.2128Z" fill="#FF8A00"/>
<path d="M14.3303 14.1858C14.1902 14.3705 13.9165 14.4094 13.7962 14.2119C13.794 14.2083 13.7919 14.2047 13.7898 14.2011C13.7162 14.0771 13.6679 13.9399 13.6478 13.7974C13.6276 13.6549 13.6359 13.5098 13.6722 13.3704C13.7085 13.2311 13.7721 13.1002 13.8593 12.9853C13.9465 12.8703 14.0557 12.7735 14.1806 12.7005C14.3055 12.6274 14.4437 12.5795 14.5872 12.5595C14.7307 12.5395 14.8769 12.5477 15.0172 12.5837C15.0213 12.5848 15.0253 12.5859 15.0294 12.5869C15.2538 12.6473 15.2915 12.9192 15.1513 13.1039L14.7408 13.6449L14.3303 14.1858Z" fill="#FF8A00"/>
<path d="M3.83717 9.23115C3.78467 9.45695 3.92996 9.69045 4.15933 9.65518C4.16375 9.6545 4.16817 9.6538 4.17259 9.65306C4.31555 9.62931 4.4524 9.57782 4.57533 9.50155C4.69825 9.42528 4.80485 9.32571 4.88902 9.20853C4.97319 9.09135 5.0333 8.95886 5.06591 8.81862C5.09851 8.67837 5.10298 8.53312 5.07906 8.39116C5.05514 8.24921 5.00329 8.11332 4.92647 7.99125C4.84966 7.86919 4.74939 7.76335 4.63138 7.67977C4.62774 7.67718 4.62408 7.67463 4.6204 7.67209C4.42981 7.54054 4.19615 7.68717 4.14365 7.91297L3.99041 8.57206L3.83717 9.23115Z" fill="#FF8A00"/>
<path d="M16.1627 9.23115C16.2152 9.45695 16.0699 9.69045 15.8405 9.65518C15.8361 9.6545 15.8317 9.6538 15.8273 9.65306C15.6843 9.62931 15.5475 9.57782 15.4246 9.50155C15.3016 9.42528 15.195 9.32571 15.1109 9.20853C15.0267 9.09135 14.9666 8.95886 14.934 8.81862C14.9014 8.67837 14.8969 8.53312 14.9208 8.39116C14.9447 8.24921 14.9966 8.11332 15.0734 7.99125C15.1502 7.86919 15.2505 7.76335 15.3685 7.67977C15.3721 7.67718 15.3758 7.67463 15.3795 7.67209C15.5701 7.54054 15.8037 7.68717 15.8562 7.91297L16.0095 8.57206L16.1627 9.23115Z" fill="#FF8A00"/>
</svg>
