<svg width="20" height="20" viewBox="0 0 20 20" fill="none" xmlns="http://www.w3.org/2000/svg">
<circle cx="10" cy="10" r="10" fill="#F7F0FD"/>
<path fill-rule="evenodd" clip-rule="evenodd" d="M12.2794 3.9281C12.1201 3.88788 11.9664 3.8512 11.8509 3.82801C11.2704 3.71145 10.5593 3.74771 10.0883 3.79452C9.7452 3.82862 9.40698 3.8952 9.07296 3.98057C8.81155 4.04738 8.49697 4.13466 8.25471 4.22308C5.5944 5.19406 4 7.34461 4 10.103C4 13.4979 6.70309 16.25 10.0375 16.25C12.8071 16.25 15.1838 14.5517 15.8725 11.7567C15.8833 11.7131 15.8937 11.666 15.9038 11.617C15.9994 11.1522 16.0549 10.6614 15.918 10.207C15.8766 10.0697 15.7519 9.97594 15.6106 9.97594H10.4309C10.4194 9.97594 10.408 9.97761 10.3969 9.98091C10.3331 10 10.2965 10.0681 10.3153 10.133L10.5516 10.9947C10.7051 11.5547 11.2147 11.943 11.7961 11.943H12.9037C13.0026 11.943 13.0639 12.0491 13.0095 12.1314C12.355 13.122 11.1903 13.7049 10.0405 13.7049C8.03983 13.7049 6.40977 12.1336 6.40977 10.0966C6.40977 8.05972 8.05138 6.45619 10.0405 6.45619C10.0693 6.45619 10.0983 6.45642 10.1273 6.45685C10.5611 6.4633 10.9781 6.59873 11.3752 6.77317C11.473 6.81614 11.598 6.85442 11.7126 6.88486C11.9228 6.94072 12.1392 6.96971 12.3566 6.97651C12.4424 6.9792 12.5335 6.98006 12.6146 6.97668C12.7009 6.97308 12.7441 6.8824 12.7017 6.80718L12.6589 6.73132C12.578 6.58797 12.6027 6.41305 12.6929 6.27535C12.7435 6.19814 12.7817 6.12007 12.7868 6.055C12.7935 5.96918 12.7786 5.89596 12.742 5.83535C12.7041 5.77244 12.627 5.75167 12.5539 5.74382C12.4849 5.73641 12.3977 5.72112 12.3316 5.68952C11.9387 5.5018 12.1084 4.844 12.5439 4.83605C12.6027 4.83498 12.6613 4.84423 12.7175 4.86774C12.7422 4.87807 12.7665 4.88824 12.7903 4.89812C12.9816 4.97782 13.1818 5.05374 13.3859 5.01717C13.4502 5.00565 13.5228 4.97115 13.6038 4.91367C13.6552 4.87722 13.6448 4.7748 13.6079 4.72378C13.2895 4.28319 12.8069 4.06123 12.2794 3.9281ZM14.6482 6.09132L15.9273 7.19558C16.0499 7.30145 15.9577 7.50167 15.7977 7.47691L13.5408 7.12768C13.081 7.05655 12.8158 6.56585 13.0083 6.14251L13.0305 6.09369C13.0751 5.99561 13.0751 5.88297 13.0305 5.78475C12.9752 5.66296 12.8564 5.58238 12.7229 5.57618L12.6512 5.57286C12.4876 5.56526 12.3715 5.40995 12.4105 5.25084L12.4123 5.24331C12.4515 5.08345 12.6354 5.0087 12.7752 5.0958L12.8747 5.15777C13.0653 5.27659 13.2954 5.31462 13.5139 5.26347C13.5794 5.24813 13.6408 5.21877 13.6939 5.1774L13.7022 5.1709C13.8209 5.07838 13.988 5.08078 14.1042 5.17667L14.1342 5.20138C14.3016 5.33954 14.4196 5.52843 14.4703 5.73949L14.4941 5.83839C14.5177 5.93674 14.5716 6.02521 14.6482 6.09132Z" fill="url(#paint0_linear_18507_45917)"/>
<defs>
<linearGradient id="paint0_linear_18507_45917" x1="16" y1="16.25" x2="1.33873" y2="9.78807" gradientUnits="userSpaceOnUse">
<stop stop-color="#5855FF"/>
<stop offset="1" stop-color="#E036FF"/>
</linearGradient>
</defs>
</svg>
