<svg width="20" height="20" viewBox="0 0 20 20" fill="none" xmlns="http://www.w3.org/2000/svg">
<circle cx="10" cy="10" r="10" fill="#F7F0FD"/>
<mask id="mask0_18777_11796" style="mask-type:luminance" maskUnits="userSpaceOnUse" x="3" y="3" width="14" height="14">
<path d="M3.5 3.5H16.5V16.5H3.5V3.5Z" fill="white"/>
</mask>
<g mask="url(#mask0_18777_11796)">
<path fill-rule="evenodd" clip-rule="evenodd" d="M10 14.0625C11.0601 14.0639 12.0786 13.6496 12.8366 12.9084C12.8564 12.8889 12.8886 12.8889 12.9084 12.9084L14.5961 14.5961L16.3479 16.3479C16.3859 16.3859 16.3469 16.4486 16.2959 16.4321L13.5002 15.5C13.4931 15.4976 13.4855 15.4969 13.478 15.4979C13.4705 15.4988 13.4634 15.5014 13.457 15.5055C12.4219 16.1571 11.2232 16.502 10 16.5C6.41005 16.5 3.5 13.5899 3.5 10C3.5 6.41005 6.41005 3.5 10 3.5C13.5899 3.5 16.5 6.41005 16.5 10C16.5 11.5333 15.9693 12.9425 15.081 14.054C15.0766 14.0595 15.0711 14.064 15.0648 14.0672C15.0585 14.0704 15.0516 14.0723 15.0445 14.0726C15.0375 14.073 15.0304 14.0719 15.0239 14.0694C15.0173 14.0668 15.0113 14.0629 15.0063 14.0579L11.574 10.6259C11.5359 10.5882 11.5749 10.5252 11.626 10.5421L13.8067 11.2688C13.813 11.2709 13.8197 11.2718 13.8264 11.2713C13.833 11.2709 13.8395 11.2691 13.8455 11.2661C13.8514 11.2631 13.8567 11.2589 13.8611 11.2539C13.8654 11.2488 13.8687 11.243 13.8707 11.2366C13.9952 10.8466 14.0625 10.4313 14.0625 10C14.0625 7.7562 12.2438 5.9375 10 5.9375C7.7562 5.9375 5.9375 7.7562 5.9375 10C5.9375 12.2438 7.7562 14.0625 10 14.0625Z" fill="#00A4D6"/>
</g>
</svg>
