<svg width="20" height="20" viewBox="0 0 20 20" fill="none" xmlns="http://www.w3.org/2000/svg">
<circle cx="10" cy="10" r="10" fill="#F7F0FD"/>
<g clip-path="url(#clip0_18507_45911)">
<path d="M9.99996 4.16669C11.459 5.76406 12.2882 7.83704 12.3333 10C12.2882 12.163 11.459 14.236 9.99996 15.8334C8.54088 14.236 7.71169 12.163 7.66663 10C7.71169 7.83704 8.54088 5.76406 9.99996 4.16669Z" fill="url(#paint0_linear_18507_45911)"/>
<path d="M9.99996 15.8334C13.2216 15.8334 15.8333 13.2217 15.8333 10C15.8333 6.77836 13.2216 4.16669 9.99996 4.16669C6.7783 4.16669 4.16663 6.77836 4.16663 10C4.16663 13.2217 6.7783 15.8334 9.99996 15.8334Z" fill="url(#paint1_linear_18507_45911)"/>
<path d="M4.16663 10H15.8333M4.16663 10C4.16663 13.2217 6.7783 15.8334 9.99996 15.8334M4.16663 10C4.16663 6.77836 6.7783 4.16669 9.99996 4.16669M15.8333 10C15.8333 13.2217 13.2216 15.8334 9.99996 15.8334M15.8333 10C15.8333 6.77836 13.2216 4.16669 9.99996 4.16669M9.99996 4.16669C11.459 5.76406 12.2882 7.83704 12.3333 10C12.2882 12.163 11.459 14.236 9.99996 15.8334M9.99996 4.16669C8.54088 5.76406 7.71169 7.83704 7.66663 10C7.71169 12.163 8.54088 14.236 9.99996 15.8334" stroke="#3C3C3C" stroke-linecap="round" stroke-linejoin="round"/>
</g>
<defs>
<linearGradient id="paint0_linear_18507_45911" x1="4.16663" y1="10.072" x2="14.9806" y2="13.1087" gradientUnits="userSpaceOnUse">
<stop stop-color="#F7931A"/>
<stop offset="1" stop-color="#C31AE3"/>
</linearGradient>
<linearGradient id="paint1_linear_18507_45911" x1="4.16663" y1="10.072" x2="14.9806" y2="13.1087" gradientUnits="userSpaceOnUse">
<stop stop-color="#F7931A"/>
<stop offset="1" stop-color="#C31AE3"/>
</linearGradient>
<clipPath id="clip0_18507_45911">
<rect width="14" height="14" fill="white" transform="translate(3 3)"/>
</clipPath>
</defs>
</svg>
