<svg width="26" height="26" viewBox="0 0 26 26" fill="none" xmlns="http://www.w3.org/2000/svg">
<g id="Rewards">
<g id="Group 27524">
<path id="Vector" d="M23.0601 16.5083V16.5087C23.0596 16.9508 22.9438 17.3853 22.724 17.7684C22.5043 18.1515 22.1882 18.47 21.8072 18.6917L21.8058 18.6925L14.2548 23.0404C14.2546 23.0405 14.2544 23.0407 14.2541 23.0408C13.8729 23.2624 13.4404 23.3792 12.9999 23.3792C12.5595 23.3792 12.1269 23.2624 11.7458 23.0408C11.7455 23.0407 11.7453 23.0405 11.745 23.0404L4.19405 18.6925L4.19269 18.6917C3.81173 18.47 3.49563 18.1515 3.27584 17.7684C3.27584 17.7684 3.27584 17.7684 3.27584 17.7684L3.57892 17.5945L23.0601 16.5083ZM23.0601 16.5083V7.81089V7.81053M23.0601 16.5083V7.81053M23.0601 7.81053C23.0596 7.36837 22.9438 6.93394 22.724 6.55082C22.5043 6.16767 22.1882 5.84918 21.8072 5.62754L21.8058 5.62675M23.0601 7.81053L21.8058 5.62675M21.8058 5.62675L14.2548 1.27882M21.8058 5.62675L14.2548 1.27882M14.2548 1.27882C14.2546 1.27867 14.2543 1.27852 14.2541 1.27837M14.2548 1.27882L14.2541 1.27837M14.2541 1.27837C13.8729 1.05679 13.4404 0.940039 12.9999 0.940039C12.5595 0.940039 12.127 1.05679 11.7458 1.27837C11.7455 1.27852 11.7453 1.27867 11.745 1.27882L14.2541 1.27837Z" fill="url(#paint0_linear_16058_307)" stroke="white" stroke-width="0.7" stroke-linecap="round" stroke-linejoin="round"/>
<path id="Vector (Stroke)" fill-rule="evenodd" clip-rule="evenodd" d="M11.7759 1.33031C12.1479 1.11398 12.5701 1 13 1C13.4299 1 13.852 1.11397 14.2241 1.33028C14.2243 1.3304 14.2245 1.33051 14.2247 1.33062L21.777 5.67934C22.1488 5.89566 22.4574 6.20653 22.6719 6.58056C22.8865 6.95458 22.9996 7.3787 23 7.81041V16.5084C22.9996 16.9401 22.8865 17.3643 22.6719 17.7383C22.4574 18.1123 22.1488 18.4232 21.777 18.6395L21.7759 18.6401L14.2247 22.9882C14.2245 22.9883 14.2244 22.9884 14.2243 22.9885C13.8522 23.2048 13.4299 23.3188 13 23.3188C12.57 23.3188 12.1478 23.2048 11.7757 22.9884C11.7756 22.9884 11.7755 22.9883 11.7753 22.9882L4.22412 18.6401L4.223 18.6395C3.85119 18.4232 3.54263 18.1123 3.32807 17.7383C3.11353 17.3643 3.00044 16.9401 3 16.5084V7.81041C3.00044 7.3787 3.11352 6.95458 3.32807 6.58056C3.54263 6.20653 3.85119 5.89566 4.223 5.67934L4.22412 5.67869L11.7753 1.33062C11.7755 1.33052 11.7757 1.33042 11.7759 1.33031ZM13 1.57971C12.6725 1.57971 12.3507 1.66656 12.0669 1.8317L12.0657 1.83235L4.51452 6.18042C4.51433 6.18053 4.51415 6.18064 4.51396 6.18075C4.23062 6.34572 3.995 6.58299 3.83092 6.86901C3.66676 7.15519 3.58007 7.48 3.57971 7.81085V16.508C3.58007 16.8388 3.66676 17.1636 3.83092 17.4498C3.995 17.7358 4.23062 17.9731 4.51396 18.1381C4.51415 18.1382 4.51433 18.1383 4.51452 18.1384L12.0669 22.4871C12.3507 22.6523 12.6725 22.7391 13 22.7391C13.3275 22.7391 13.6493 22.6523 13.9331 22.4871L13.9343 22.4865L21.4855 18.1384C21.4857 18.1383 21.4859 18.1382 21.486 18.1381C21.7694 17.9731 22.005 17.7358 22.1691 17.4498C22.3333 17.1636 22.42 16.8387 22.4203 16.5078V7.811C22.42 7.4801 22.3333 7.15524 22.1691 6.86901C22.005 6.58299 21.7694 6.34572 21.486 6.18075C21.4859 6.18064 21.4857 6.18053 21.4855 6.18042L13.9343 1.83235L13.9331 1.8317C13.6493 1.66656 13.3275 1.57971 13 1.57971Z" fill="white"/>
<path id="Ellipse 2905" d="M17.284 12.3041C17.284 14.7054 15.366 16.652 13.0001 16.652C10.6341 16.652 8.71619 14.7054 8.71619 12.3041C8.71619 9.90289 10.6341 7.9563 13.0001 7.9563C15.366 7.9563 17.284 9.90289 17.284 12.3041Z" fill="url(#paint1_linear_16058_307)"/>
<path id="Ellipse 2905 (Stroke)" d="M16.8941 12.3041C16.8941 14.4955 15.1453 16.2621 13.0001 16.2621C10.8549 16.2621 9.10604 14.4955 9.10604 12.3041C9.10604 10.1128 10.8549 8.34615 13.0001 8.34615C15.1453 8.34615 16.8941 10.1128 16.8941 12.3041ZM13.0001 16.752C15.4226 16.752 17.384 14.7592 17.384 12.3041C17.384 9.84906 15.4226 7.8563 13.0001 7.8563C10.5775 7.8563 8.61619 9.84906 8.61619 12.3041C8.61619 14.7592 10.5775 16.752 13.0001 16.752Z" fill="white" stroke="white" stroke-width="0.2"/>
</g>
<path id="Subtract" d="M10.2463 14.4928C10.2463 13.6752 10.6769 12.918 11.3796 12.4999L21.6956 6.36255C22.1452 6.63229 22.4203 7.11812 22.4203 7.6424V16.9928C22.4203 17.4095 22.1966 17.7942 21.8344 18.0004L13.5583 22.7114C13.211 22.9091 12.7863 22.914 12.4345 22.7243L10.8554 21.8728C10.4802 21.6704 10.2463 21.2785 10.2463 20.8523V14.4928Z" fill="url(#paint2_linear_16058_307)"/>
<g id="Star 1" filter="url(#filter0_d_16058_307)">
<path d="M12.8706 9.95632C12.924 9.84919 13.0768 9.84919 13.1301 9.95632L13.2561 10.2095C13.6215 10.9435 14.2163 11.5383 14.9503 11.9037L15.2035 12.0297C15.3106 12.083 15.3106 12.2359 15.2035 12.2892L14.9503 12.4152C14.2163 12.7806 13.6215 13.3754 13.2561 14.1094L13.1301 14.3626C13.0768 14.4697 12.924 14.4697 12.8706 14.3626L12.7446 14.1094C12.3793 13.3754 11.7844 12.7806 11.0504 12.4152L10.7973 12.2892C10.6901 12.2359 10.6901 12.083 10.7973 12.0297L11.0504 11.9037C11.7844 11.5383 12.3793 10.9435 12.7446 10.2095L12.8706 9.95632Z" fill="white"/>
</g>
</g>
<defs>
<filter id="filter0_d_16058_307" x="0.716919" y="3.87598" width="24.5669" height="24.5669" filterUnits="userSpaceOnUse" color-interpolation-filters="sRGB">
<feFlood flood-opacity="0" result="BackgroundImageFix"/>
<feColorMatrix in="SourceAlpha" type="matrix" values="0 0 0 0 0 0 0 0 0 0 0 0 0 0 0 0 0 0 127 0" result="hardAlpha"/>
<feOffset dy="4"/>
<feGaussianBlur stdDeviation="5"/>
<feComposite in2="hardAlpha" operator="out"/>
<feColorMatrix type="matrix" values="0 0 0 0 0.075 0 0 0 0 1 0 0 0 0 0.670105 0 0 0 1 0"/>
<feBlend mode="normal" in2="BackgroundImageFix" result="effect1_dropShadow_16058_307"/>
<feBlend mode="normal" in="SourceGraphic" in2="effect1_dropShadow_16058_307" result="shape"/>
</filter>
<linearGradient id="paint0_linear_16058_307" x1="12.9999" y1="31.1451" x2="12.9999" y2="2.01468" gradientUnits="userSpaceOnUse">
<stop stop-color="#5BFFBC"/>
<stop offset="1" stop-color="#18495D"/>
</linearGradient>
<linearGradient id="paint1_linear_16058_307" x1="8.71619" y1="11.4346" x2="17.545" y2="12.4699" gradientUnits="userSpaceOnUse">
<stop stop-color="#FF8E04"/>
<stop offset="1" stop-color="#E1FF29"/>
</linearGradient>
<linearGradient id="paint2_linear_16058_307" x1="21.8405" y1="6.94248" x2="12.56" y2="22.5975" gradientUnits="userSpaceOnUse">
<stop stop-color="#5BFFBC"/>
<stop offset="1" stop-color="#18495D"/>
</linearGradient>
</defs>
</svg>
