<svg width="32" height="35" viewBox="0 0 32 35" fill="none" xmlns="http://www.w3.org/2000/svg">
<path d="M30.5 23.9018V23.9013V11.0987V11.0982C30.4994 10.4519 30.3336 9.81642 30.0183 9.2553C29.703 8.69409 29.2487 8.2263 28.6998 7.90023L28.6978 7.89908L17.8109 1.49892C17.8106 1.49872 17.8102 1.49852 17.8099 1.49833C17.2605 1.17225 16.6363 1 16 1C15.3637 1 14.7395 1.17225 14.1901 1.49832C14.1898 1.49852 14.1894 1.49872 14.1891 1.49892L3.30216 7.89908L3.30216 7.89908L3.30022 7.90023C2.75125 8.2263 2.29702 8.69409 1.9817 9.2553C1.66643 9.81642 1.50064 10.4519 1.5 11.0982V11.0987L1.5 23.9013L1.5 23.9018C1.50064 24.5481 1.66643 25.1836 1.9817 25.7447C2.29702 26.3059 2.75125 26.7737 3.30021 27.0998L3.30216 27.1009L14.1891 33.5011C14.1894 33.5013 14.1897 33.5015 14.1901 33.5016C14.7395 33.8277 15.3637 34 16 34C16.6363 34 17.2605 33.8277 17.8099 33.5016C17.8103 33.5015 17.8106 33.5013 17.8109 33.5011L28.6978 27.1009L28.6998 27.0998C29.2487 26.7737 29.703 26.3059 30.0183 25.7447C30.3336 25.1836 30.4994 24.5481 30.5 23.9018Z" fill="url(#paint0_linear_16242_3859)" stroke="white" stroke-linecap="round" stroke-linejoin="round"/>
<path d="M15.9604 10.9245C15.9663 10.9127 15.972 10.9083 15.976 10.9059C15.9815 10.9027 15.9897 10.9 16 10.9C16.0103 10.9 16.0185 10.9027 16.024 10.9059C16.028 10.9083 16.0337 10.9127 16.0396 10.9245L16.426 11.7007C17.5848 14.0287 19.4713 15.9152 21.7993 17.074L22.5755 17.4604C22.5873 17.4663 22.5917 17.472 22.5941 17.476C22.5973 17.4815 22.6 17.4897 22.6 17.5C22.6 17.5103 22.5973 17.5185 22.5941 17.524C22.5917 17.528 22.5873 17.5337 22.5755 17.5396L21.7993 17.926C19.4713 19.0848 17.5848 20.9713 16.426 23.2993L16.0396 24.0755C16.0337 24.0873 16.028 24.0917 16.024 24.0941C16.0185 24.0973 16.0103 24.1 16 24.1C15.9897 24.1 15.9815 24.0973 15.976 24.0941C15.972 24.0917 15.9663 24.0873 15.9604 24.0755L15.574 23.2993C14.4152 20.9713 12.5287 19.0848 10.2007 17.926L9.42455 17.5396C9.41265 17.5337 9.40831 17.528 9.40594 17.524C9.40274 17.5185 9.4 17.5103 9.4 17.5C9.4 17.4897 9.40274 17.4815 9.40594 17.476C9.40831 17.472 9.41265 17.4663 9.42455 17.4604L10.2007 17.074C12.5287 15.9152 14.4152 14.0287 15.574 11.7007L15.9604 10.9245Z" fill="url(#paint1_linear_16242_3859)" stroke="white" stroke-width="0.8"/>
<defs>
<linearGradient id="paint0_linear_16242_3859" x1="16" y1="45.4467" x2="16" y2="2.56666" gradientUnits="userSpaceOnUse">
<stop stop-color="#5BFFBC"/>
<stop offset="1" stop-color="#18495D"/>
</linearGradient>
<linearGradient id="paint1_linear_16242_3859" x1="13.201" y1="16.1003" x2="20.201" y2="17.5003" gradientUnits="userSpaceOnUse">
<stop stop-color="#E9E016"/>
<stop offset="1" stop-color="#FFA100"/>
</linearGradient>
</defs>
</svg>
