<svg width="35" height="38" viewBox="0 0 35 38" fill="none" xmlns="http://www.w3.org/2000/svg">
<path d="M33.3007 25.8209V25.8201V12.181V12.1802C33.2999 11.4535 33.1118 10.7389 32.7542 10.1081C32.3964 9.4772 31.8812 8.95149 31.2588 8.58513L31.2559 8.58343L19.5527 1.76556C19.5522 1.76527 19.5517 1.76499 19.5513 1.76471C18.9285 1.39847 18.221 1.20508 17.4999 1.20508C16.779 1.20508 16.0715 1.39845 15.4487 1.76465C15.4482 1.76495 15.4477 1.76525 15.4472 1.76556L3.74399 8.58343L3.74399 8.58343L3.74108 8.58514C3.11866 8.95149 2.60346 9.4772 2.24574 10.1081C1.88807 10.7389 1.69995 11.4535 1.69922 12.1802V12.181L1.69922 25.8201L1.69922 25.8209C1.69995 26.5476 1.88807 27.2621 2.24574 27.8929C2.60346 28.5239 3.11866 29.0496 3.74108 29.4159L3.74399 29.4176L15.4472 36.2355C15.4478 36.2359 15.4485 36.2362 15.4491 36.2366C16.0718 36.6027 16.7791 36.796 17.4999 36.796C18.2209 36.796 18.9283 36.6026 19.551 36.2365C19.5516 36.2362 19.5521 36.2358 19.5527 36.2355L31.2559 29.4176L31.2588 29.4159C31.8812 29.0496 32.3964 28.5239 32.7542 27.8929C33.1118 27.2621 33.2999 26.5476 33.3007 25.8209Z" fill="url(#paint0_linear_989_178)" stroke="white" stroke-width="1.5" stroke-linecap="round" stroke-linejoin="round"/>
<mask id="mask0_989_178" style="mask-type:alpha" maskUnits="userSpaceOnUse" x="2" y="1" width="31" height="36">
<path d="M32.5507 25.8201V12.181C32.5501 11.583 32.3952 10.9957 32.1017 10.478C31.8082 9.96035 31.3863 9.53046 30.8784 9.23148L19.1722 2.4119C18.6638 2.11263 18.087 1.95508 17.4999 1.95508C16.9128 1.95508 16.3361 2.11263 15.8276 2.4119L4.12152 9.23148C3.61358 9.53046 3.19169 9.96035 2.89817 10.478C2.60465 10.9957 2.44982 11.583 2.44922 12.181V25.8201C2.44982 26.4181 2.60465 27.0053 2.89817 27.523C3.19169 28.0407 3.61358 28.4706 4.12152 28.7696L15.8276 35.5892C16.3361 35.8884 16.9128 36.046 17.4999 36.046C18.087 36.046 18.6638 35.8884 19.1722 35.5892L30.8784 28.7696C31.3863 28.4706 31.8082 28.0407 32.1017 27.523C32.3952 27.0053 32.5501 26.4181 32.5507 25.8201Z" fill="white"/>
</mask>
<g mask="url(#mask0_989_178)">
<path d="M17.4604 12.4245C17.4663 12.4127 17.472 12.4083 17.476 12.4059C17.4815 12.4027 17.4897 12.4 17.5 12.4C17.5103 12.4 17.5185 12.4027 17.524 12.4059C17.528 12.4083 17.5337 12.4127 17.5396 12.4245L17.926 13.2007C19.0848 15.5287 20.9713 17.4152 23.2993 18.574L24.0755 18.9604C24.0873 18.9663 24.0917 18.972 24.0941 18.976C24.0973 18.9815 24.1 18.9897 24.1 19C24.1 19.0103 24.0973 19.0185 24.0941 19.024C24.0917 19.028 24.0873 19.0337 24.0755 19.0396L23.2993 19.426C20.9713 20.5848 19.0848 22.4713 17.926 24.7993L17.5396 25.5755C17.5337 25.5873 17.528 25.5917 17.524 25.5941C17.5185 25.5973 17.5103 25.6 17.5 25.6C17.4897 25.6 17.4815 25.5973 17.476 25.5941C17.472 25.5917 17.4663 25.5873 17.4604 25.5755L17.074 24.7993C15.9152 22.4713 14.0287 20.5848 11.7007 19.426L10.9245 19.0396C10.9127 19.0337 10.9083 19.028 10.9059 19.024C10.9027 19.0185 10.9 19.0103 10.9 19C10.9 18.9897 10.9027 18.9815 10.9059 18.976C10.9083 18.972 10.9127 18.9663 10.9245 18.9604L11.7007 18.574C14.0287 17.4152 15.9152 15.5287 17.074 13.2007L17.4604 12.4245Z" fill="url(#paint1_linear_989_178)" stroke="white" stroke-width="0.8"/>
</g>
<defs>
<linearGradient id="paint0_linear_989_178" x1="17.4999" y1="48.7733" x2="17.4999" y2="3.09144" gradientUnits="userSpaceOnUse">
<stop stop-color="#5BFFBC"/>
<stop offset="1" stop-color="#18495D"/>
</linearGradient>
<linearGradient id="paint1_linear_989_178" x1="14.701" y1="17.6003" x2="21.701" y2="19.0003" gradientUnits="userSpaceOnUse">
<stop stop-color="#E9E016"/>
<stop offset="1" stop-color="#FFA100"/>
</linearGradient>
</defs>
</svg>
