<svg width="67" height="75" viewBox="0 0 67 75" fill="none" xmlns="http://www.w3.org/2000/svg">
<path d="M66.3787 52.1141V52.1138V22.887V22.8866C66.3773 21.5446 66.0269 20.2264 65.3622 19.0641C64.6975 17.9018 63.7419 16.9362 62.5908 16.2644L62.5894 16.2636L37.2904 1.65102C37.2902 1.65087 37.2899 1.65072 37.2897 1.65057C36.1376 0.978407 34.8305 0.624396 33.4997 0.624396C32.1688 0.624396 30.8617 0.978446 29.7095 1.65068C29.7093 1.65079 29.7091 1.6509 29.7089 1.65102L4.40998 16.2636L4.40862 16.2644C3.25751 16.9362 2.30186 17.9018 1.63718 19.0641C0.97252 20.2264 0.622065 21.5446 0.620703 22.8866V22.887L0.620703 52.1138L0.620703 52.1141C0.622065 53.4561 0.97252 54.7743 1.63718 55.9366C2.30186 57.0989 3.25751 58.0646 4.40862 58.7363L4.40998 58.7371L29.7089 73.3497C29.7091 73.3498 29.7092 73.3499 29.7094 73.35C30.8616 74.0223 32.1688 74.3763 33.4997 74.3763C34.8305 74.3763 36.1377 74.0223 37.2898 73.3501C37.29 73.35 37.2902 73.3498 37.2904 73.3497L62.5894 58.7371L62.5908 58.7363C63.7419 58.0646 64.6975 57.0989 65.3622 55.9366C66.0269 54.7743 66.3773 53.4561 66.3787 52.1141Z" fill="url(#paint0_linear_459_8326)" stroke="white" stroke-width="0.7" stroke-linecap="round" stroke-linejoin="round"/>
<path fill-rule="evenodd" clip-rule="evenodd" d="M29.3992 1.10998C30.6456 0.383008 32.0599 0 33.5 0C34.94 0 36.3543 0.38297 37.6007 1.10987C37.6013 1.11026 37.602 1.11064 37.6026 1.11102L62.9029 15.7244C64.1485 16.4513 65.1822 17.496 65.901 18.7529C66.6197 20.0097 66.9985 21.4349 67 22.8856V52.1144C66.9985 53.5651 66.6197 54.9903 65.901 56.2471C65.1822 57.504 64.1485 58.5487 62.9029 59.2756L62.8992 59.2778L37.6026 73.889C37.6022 73.8892 37.6017 73.8895 37.6013 73.8898C36.3547 74.6169 34.9403 75 33.5 75C32.0597 75 30.6451 74.6169 29.3985 73.8896C29.3982 73.8894 29.3978 73.8892 29.3974 73.889L4.10081 59.2778L4.09705 59.2756C2.85147 58.5487 1.81782 57.504 1.09905 56.2471C0.380309 54.9903 0.0014721 53.5651 0 52.1144V22.8856C0.0014721 21.4349 0.380309 20.0097 1.09905 18.7529C1.81782 17.496 2.85148 16.4513 4.09705 15.7244L4.10081 15.7222L29.3974 1.11102C29.398 1.11068 29.3986 1.11033 29.3992 1.10998ZM33.5 1.94805C32.403 1.94805 31.3249 2.23991 30.374 2.79485L30.3702 2.79703L5.07364 17.4082C5.07301 17.4086 5.07239 17.409 5.07177 17.4093C4.12256 17.9637 3.33323 18.761 2.7836 19.7222C2.23365 20.6838 1.94324 21.7753 1.94203 22.8871V52.1129C1.94324 53.2247 2.23365 54.3161 2.7836 55.2778C3.33323 56.239 4.12257 57.0363 5.07177 57.5907C5.07239 57.591 5.07301 57.5914 5.07364 57.5918L30.374 72.2051C31.3249 72.7601 32.403 73.0519 33.5 73.0519C34.597 73.0519 35.6751 72.7601 36.626 72.2051L36.6298 72.203L61.9264 57.5918C61.927 57.5914 61.9276 57.591 61.9282 57.5907C62.8774 57.0363 63.6668 56.239 64.2164 55.2778C64.7664 54.316 65.0568 53.2243 65.058 52.1124V22.8876C65.0568 21.7757 64.7664 20.684 64.2164 19.7222C63.6668 18.761 62.8774 17.9637 61.9282 17.4093C61.9276 17.409 61.927 17.4086 61.9264 17.4082L36.6298 2.79703L36.626 2.79485C35.6751 2.23991 34.597 1.94805 33.5 1.94805Z" fill="#3C3C3C"/>
<mask id="mask0_459_8326" style="mask-type:alpha" maskUnits="userSpaceOnUse" x="0" y="0" width="65" height="73">
<path d="M65 51.103V21.897C64.9987 20.6166 64.6644 19.3591 64.0306 18.2505C63.3967 17.142 62.4857 16.2214 61.3889 15.5812L36.1111 0.978245C35.0132 0.337405 33.7678 3.05176e-05 32.5 3.05176e-05C31.2322 3.05176e-05 29.9868 0.337405 28.8889 0.978245L3.61111 15.5812C2.51428 16.2214 1.60326 17.142 0.969444 18.2505C0.335627 19.3591 0.00129907 20.6166 0 21.897V51.103C0.00129907 52.3834 0.335627 53.641 0.969444 54.7495C1.60326 55.8581 2.51428 56.7786 3.61111 57.4188L28.8889 72.0218C29.9868 72.6626 31.2322 73 32.5 73C33.7678 73 35.0132 72.6626 36.1111 72.0218L61.3889 57.4188C62.4857 56.7786 63.3967 55.8581 64.0306 54.7495C64.6644 53.641 64.9987 52.3834 65 51.103Z" fill="white"/>
</mask>
<g mask="url(#mask0_459_8326)">
<g filter="url(#filter0_d_459_8326)">
<path d="M32.7898 25.4399C33.0817 24.8534 33.9183 24.8534 34.2102 25.4399L34.9001 26.8258C36.9002 30.8438 40.1562 34.0999 44.1743 36.0999L45.5602 36.7898C46.1466 37.0817 46.1466 37.9184 45.5602 38.2103L44.1743 38.9001C40.1562 40.9002 36.9002 44.1562 34.9001 48.1743L34.2102 49.5602C33.9183 50.1466 33.0817 50.1466 32.7898 49.5602L32.0999 48.1743C30.0998 44.1562 26.8438 40.9002 22.8257 38.9001L21.4398 38.2103C20.8534 37.9184 20.8534 37.0817 21.4398 36.7898L22.8257 36.0999C26.8438 34.0999 30.0998 30.8438 32.0999 26.8258L32.7898 25.4399Z" fill="url(#paint1_linear_459_8326)"/>
<path d="M34.2734 27.1377L34.8702 26.8406L34.2734 27.1377C36.3414 31.2921 39.7079 34.6587 43.8623 36.7266L45.2482 37.4165C45.272 37.4283 45.2818 37.4405 45.2874 37.45C45.2945 37.4619 45.3 37.4792 45.3 37.5C45.3 37.5208 45.2945 37.5381 45.2874 37.5501C45.2818 37.5596 45.272 37.5718 45.2482 37.5836L43.8623 38.2735C39.7079 40.3414 36.3414 43.708 34.2734 47.8624L33.5836 49.2483C33.5718 49.272 33.5596 49.2818 33.5501 49.2874C33.5381 49.2945 33.5208 49.3 33.5 49.3C33.4792 49.3 33.4619 49.2945 33.4499 49.2874C33.4404 49.2818 33.4282 49.272 33.4164 49.2483L32.7266 47.8624C30.6586 43.708 27.2921 40.3414 23.1377 38.2735L22.8602 38.8308L23.1377 38.2735L21.7518 37.5836C21.728 37.5718 21.7182 37.5596 21.7126 37.5501C21.7055 37.5381 21.7 37.5208 21.7 37.5C21.7 37.4792 21.7055 37.4619 21.7126 37.45C21.7182 37.4405 21.728 37.4283 21.7518 37.4165L23.1377 36.7266C27.2921 34.6587 30.6586 31.2921 32.7266 27.1377L33.4164 25.7518C33.4282 25.728 33.4404 25.7182 33.4499 25.7126C33.4619 25.7056 33.4792 25.7 33.5 25.7C33.5208 25.7 33.5381 25.7056 33.5501 25.7126C33.5596 25.7182 33.5718 25.728 33.5836 25.7518L34.2734 27.1377Z" stroke="white" stroke-width="1.4"/>
</g>
</g>
<defs>
<filter id="filter0_d_459_8326" x="15" y="23" width="37" height="37" filterUnits="userSpaceOnUse" color-interpolation-filters="sRGB">
<feFlood flood-opacity="0" result="BackgroundImageFix"/>
<feColorMatrix in="SourceAlpha" type="matrix" values="0 0 0 0 0 0 0 0 0 0 0 0 0 0 0 0 0 0 127 0" result="hardAlpha"/>
<feOffset dy="4"/>
<feGaussianBlur stdDeviation="3"/>
<feComposite in2="hardAlpha" operator="out"/>
<feColorMatrix type="matrix" values="0 0 0 0 0.150312 0 0 0 0 0.4875 0 0 0 0 0.415479 0 0 0 1 0"/>
<feBlend mode="normal" in2="BackgroundImageFix" result="effect1_dropShadow_459_8326"/>
<feBlend mode="normal" in="SourceGraphic" in2="effect1_dropShadow_459_8326" result="shape"/>
</filter>
<linearGradient id="paint0_linear_459_8326" x1="33.4997" y1="101.299" x2="33.4997" y2="3.40946" gradientUnits="userSpaceOnUse">
<stop stop-color="#5BFFBC"/>
<stop offset="1" stop-color="#18495D"/>
</linearGradient>
<linearGradient id="paint1_linear_459_8326" x1="28.5018" y1="35.0006" x2="41.0018" y2="37.5006" gradientUnits="userSpaceOnUse">
<stop stop-color="#E9E016"/>
<stop offset="1" stop-color="#FFA100"/>
</linearGradient>
</defs>
</svg>
