<svg width="40" height="40" viewBox="0 0 40 40" fill="none" xmlns="http://www.w3.org/2000/svg">
<path d="M33.3334 17.5C33.3334 23.4833 28.4834 28.3333 22.5001 28.3333C22.2167 28.3333 21.9168 28.3166 21.6334 28.3C21.2168 23.0166 16.9834 18.7833 11.7001 18.3666C11.6834 18.0833 11.6667 17.7833 11.6667 17.5C11.6667 11.5166 16.5167 6.66663 22.5001 6.66663C28.4834 6.66663 33.3334 11.5166 33.3334 17.5Z" fill="#131313" stroke="#636363" stroke-width="1.8" stroke-linecap="round" stroke-linejoin="round"/>
<path d="M26.6667 22.5C26.6667 28.4833 21.8167 33.3333 15.8333 33.3333C9.85 33.3333 5 28.4833 5 22.5C5 16.5166 9.85 11.6666 15.8333 11.6666C16.1167 11.6666 16.4166 11.6833 16.7 11.6999C21.9833 12.1166 26.2167 16.35 26.6334 21.6333C26.65 21.9166 26.6667 22.2166 26.6667 22.5Z" fill="#131313" stroke="#636363" stroke-width="1.8" stroke-linecap="round" stroke-linejoin="round"/>
<path d="M13.3333 24.0872C13.3333 24.9801 14.0624 25.6745 14.9999 25.6745H16.7708C17.4999 25.6745 18.2291 25.0793 18.2291 24.2856C18.2291 23.7073 18.0543 23.3787 17.7896 23.165C17.4973 22.9292 17.0991 22.8967 16.7236 22.8967H16.5908C15.0386 22.8967 13.3333 22.2664 13.3333 20.7142V20.7142C13.3333 19.9206 13.9583 19.3253 14.7916 19.3253H16.6666C17.6041 19.3253 18.3333 20.0198 18.3333 20.9126" stroke="#636363" stroke-width="1.2" stroke-linecap="round" stroke-linejoin="round"/>
<path d="M15.7292 18.3334V26.6667" stroke="#636363" stroke-width="1.2" stroke-linecap="round" stroke-linejoin="round"/>
</svg>
