<svg width="40" height="40" viewBox="0 0 40 40" fill="none" xmlns="http://www.w3.org/2000/svg">
<g id="State=Default, Feature=Swap, Theme=Lightmode">
<path id="Vector" d="M33.3333 17.5001C33.3333 23.4834 28.4833 28.3334 22.5 28.3334C22.2166 28.3334 21.9166 28.3168 21.6333 28.3001C21.2166 23.0168 16.9833 18.7834 11.6999 18.3667C11.6833 18.0834 11.6666 17.7834 11.6666 17.5001C11.6666 11.5167 16.5166 6.66675 22.5 6.66675C28.4833 6.66675 33.3333 11.5167 33.3333 17.5001Z" fill="#EEEEEE" stroke="#636363" stroke-width="1.8" stroke-linecap="round" stroke-linejoin="round"/>
<path id="Vector_2" d="M26.6667 22.5001C26.6667 28.4834 21.8167 33.3334 15.8333 33.3334C9.85 33.3334 5 28.4834 5 22.5001C5 16.5167 9.85 11.6667 15.8333 11.6667C16.1167 11.6667 16.4166 11.6834 16.7 11.7001C21.9833 12.1167 26.2167 16.3501 26.6334 21.6334C26.65 21.9168 26.6667 22.2167 26.6667 22.5001Z" fill="#EEEEEE" stroke="#636363" stroke-width="1.8" stroke-linecap="round" stroke-linejoin="round"/>
<g id="Dollar sign">
<path id="Vector_3" d="M13.3334 24.0871C13.3334 24.98 14.0625 25.6744 15 25.6744H16.7709C17.5 25.6744 18.2292 25.0792 18.2292 24.2855C18.2292 23.7072 18.0544 23.3786 17.7897 23.1649C17.4975 22.9291 17.0992 22.8966 16.7237 22.8966H16.591C15.0387 22.8966 13.3334 22.2663 13.3334 20.7141V20.7141C13.3334 19.9204 13.9584 19.3252 14.7917 19.3252H16.6667C17.6042 19.3252 18.3334 20.0196 18.3334 20.9125" stroke="#636363" stroke-width="1.2" stroke-linecap="round" stroke-linejoin="round"/>
<path id="Vector_4" d="M15.7292 18.3333V26.6666" stroke="#636363" stroke-width="1.2" stroke-linecap="round" stroke-linejoin="round"/>
</g>
</g>
</svg>
