<svg width="25" height="25" viewBox="0 0 25 25" fill="none" xmlns="http://www.w3.org/2000/svg">
<g id="Socials=Telegram, Theme=Lightmode, State=Default">
<path id="Path-3" fill-rule="evenodd" clip-rule="evenodd" d="M3.88172 11.414C9.24289 9.1371 12.8266 7.66545 14.6327 6.9435C19.7359 4.88874 20.7966 4.52777 21.4847 4.5C21.628 4.5 21.9721 4.52777 22.2014 4.69437C22.3734 4.83321 22.4308 5.02757 22.4595 5.16641C22.4881 5.30525 22.5168 5.61068 22.4881 5.86059C22.2014 8.66506 21.026 15.5235 20.3953 18.6612C20.1372 19.994 19.6212 20.4383 19.1338 20.4938C18.073 20.5771 17.2416 19.7997 16.2095 19.161C14.6041 18.1336 13.6866 17.495 12.1098 16.4954C10.3037 15.3292 11.4791 14.6905 12.5112 13.6631C12.7692 13.3855 17.4997 9.24817 17.5857 8.85943C17.5857 8.8039 17.6143 8.63729 17.4997 8.55399C17.385 8.47069 17.2416 8.49846 17.127 8.52623C16.9549 8.55399 14.3747 10.22 9.35756 13.4965C8.61216 13.9963 7.95277 14.2185 7.35071 14.2185C6.69132 14.2185 5.42986 13.8575 4.48378 13.5521C3.337 13.1911 2.41958 12.9967 2.50559 12.3858C2.56293 12.0804 3.02164 11.7472 3.88172 11.414Z" fill="#AEA0B9"/>
</g>
</svg>
