<svg width="24" height="24" viewBox="0 0 24 24" fill="none" xmlns="http://www.w3.org/2000/svg">
<path d="M5.5 12H2" stroke="#3C3C3C" stroke-width="1.2" stroke-linecap="round" stroke-linejoin="round"/>
<path d="M13.5 12H11" stroke="#3C3C3C" stroke-width="1.2" stroke-linecap="round" stroke-linejoin="round"/>
<path d="M22 12H18.5" stroke="#3C3C3C" stroke-width="1.2" stroke-linecap="round" stroke-linejoin="round"/>
<mask id="path-4-inside-1_17110_7611" fill="white">
<path fill-rule="evenodd" clip-rule="evenodd" d="M7 4C5.89543 4 5 4.89543 5 6V18C5 19.1046 5.89543 20 7 20H9C10.1046 20 11 19.1046 11 18V6C11 4.89543 10.1046 4 9 4H7ZM15 7C13.8954 7 13 7.89543 13 9V15C13 16.1046 13.8954 17 15 17H17C18.1046 17 19 16.1046 19 15V9C19 7.89543 18.1046 7 17 7H15Z"/>
</mask>
<path fill-rule="evenodd" clip-rule="evenodd" d="M7 4C5.89543 4 5 4.89543 5 6V18C5 19.1046 5.89543 20 7 20H9C10.1046 20 11 19.1046 11 18V6C11 4.89543 10.1046 4 9 4H7ZM15 7C13.8954 7 13 7.89543 13 9V15C13 16.1046 13.8954 17 15 17H17C18.1046 17 19 16.1046 19 15V9C19 7.89543 18.1046 7 17 7H15Z" fill="url(#paint0_linear_17110_7611)"/>
<path d="M6.2 6C6.2 5.55817 6.55817 5.2 7 5.2V2.8C5.23269 2.8 3.8 4.23269 3.8 6H6.2ZM6.2 18V6H3.8V18H6.2ZM7 18.8C6.55817 18.8 6.2 18.4418 6.2 18H3.8C3.8 19.7673 5.23269 21.2 7 21.2V18.8ZM9 18.8H7V21.2H9V18.8ZM9.8 18C9.8 18.4418 9.44183 18.8 9 18.8V21.2C10.7673 21.2 12.2 19.7673 12.2 18H9.8ZM9.8 6V18H12.2V6H9.8ZM9 5.2C9.44183 5.2 9.8 5.55817 9.8 6H12.2C12.2 4.23269 10.7673 2.8 9 2.8V5.2ZM7 5.2H9V2.8H7V5.2ZM14.2 9C14.2 8.55817 14.5582 8.2 15 8.2V5.8C13.2327 5.8 11.8 7.23269 11.8 9H14.2ZM14.2 15V9H11.8V15H14.2ZM15 15.8C14.5582 15.8 14.2 15.4418 14.2 15H11.8C11.8 16.7673 13.2327 18.2 15 18.2V15.8ZM17 15.8H15V18.2H17V15.8ZM17.8 15C17.8 15.4418 17.4418 15.8 17 15.8V18.2C18.7673 18.2 20.2 16.7673 20.2 15H17.8ZM17.8 9V15H20.2V9H17.8ZM17 8.2C17.4418 8.2 17.8 8.55817 17.8 9H20.2C20.2 7.23269 18.7673 5.8 17 5.8V8.2ZM15 8.2H17V5.8H15V8.2Z" fill="#3C3C3C" mask="url(#path-4-inside-1_17110_7611)"/>
<defs>
<linearGradient id="paint0_linear_17110_7611" x1="13.5" y1="6" x2="19.5816" y2="14.7007" gradientUnits="userSpaceOnUse">
<stop stop-color="#F7931A"/>
<stop offset="1" stop-color="#AC1CC7"/>
</linearGradient>
</defs>
</svg>
