<svg width="20" height="20" viewBox="0 0 20 20" fill="none" xmlns="http://www.w3.org/2000/svg">
<path d="M14.7209 4.39881C14.8857 4.79723 15.2019 5.11392 15.6 5.27926L16.9962 5.85758C17.3946 6.02263 17.7112 6.3392 17.8762 6.73765C18.0413 7.1361 18.0413 7.58379 17.8762 7.98225L17.2983 9.37744C17.1332 9.77607 17.133 10.2242 17.2989 10.6227L17.8757 12.0174C17.9576 12.2148 17.9997 12.4263 17.9997 12.64C17.9998 12.8536 17.9577 13.0651 17.8759 13.2625C17.7942 13.4599 17.6743 13.6392 17.5233 13.7903C17.3722 13.9413 17.1928 14.0611 16.9954 14.1428L15.6003 14.7207C15.2019 14.8854 14.8852 15.2016 14.7199 15.5998L14.1416 16.996C13.9765 17.3945 13.66 17.711 13.2615 17.8761C12.8631 18.0411 12.4154 18.0411 12.017 17.8761L10.6218 17.2982C10.2234 17.1335 9.77586 17.1339 9.37766 17.2991L7.98151 17.8766C7.5833 18.0413 7.13601 18.0411 6.73789 17.8762C6.33978 17.7113 6.0234 17.3951 5.85825 16.9971L5.27978 15.6005C5.11504 15.2021 4.79884 14.8854 4.40068 14.72L3.00453 14.1417C2.60627 13.9767 2.2898 13.6604 2.12471 13.2621C1.95961 12.8639 1.95938 12.4164 2.12408 12.018L2.70197 10.6228C2.8666 10.2244 2.86627 9.77684 2.70104 9.37863L2.12398 7.98143C2.04216 7.78408 2.00003 7.57254 2 7.35891C1.99997 7.14527 2.04203 6.93372 2.12378 6.73635C2.20553 6.53897 2.32537 6.35964 2.47645 6.2086C2.62754 6.05756 2.8069 5.93777 3.00429 5.85608L4.39944 5.27817C4.7975 5.11358 5.11399 4.79776 5.27944 4.40005L5.85775 3.00385C6.02278 2.6054 6.33934 2.28883 6.73778 2.12378C7.13622 1.95874 7.58389 1.95874 7.98233 2.12378L9.37748 2.70169C9.77592 2.86633 10.2234 2.86599 10.6216 2.70076L12.0184 2.12468C12.4168 1.95973 12.8643 1.95976 13.2627 2.12477C13.6611 2.28978 13.9776 2.60626 14.1426 3.00461L14.7211 4.40122L14.7209 4.39881Z" fill="url(#paint0_linear_18540_5869)"/>
<path d="M10 10.6228V6.73765M10 12.88V12.8M14.7209 4.39881C14.8857 4.79723 15.2019 5.11392 15.6 5.27926L16.9962 5.85758C17.3946 6.02263 17.7112 6.3392 17.8762 6.73765C18.0413 7.1361 18.0413 7.58379 17.8762 7.98225L17.2983 9.37744C17.1332 9.77607 17.133 10.2242 17.2989 10.6227L17.8757 12.0174C17.9576 12.2148 17.9997 12.4263 17.9997 12.64C17.9998 12.8536 17.9577 13.0651 17.8759 13.2625C17.7942 13.4599 17.6743 13.6392 17.5233 13.7903C17.3722 13.9413 17.1928 14.0611 16.9954 14.1428L15.6003 14.7207C15.2019 14.8854 14.8852 15.2016 14.7199 15.5998L14.1416 16.996C13.9765 17.3945 13.66 17.711 13.2615 17.8761C12.8631 18.0411 12.4154 18.0411 12.017 17.8761L10.6218 17.2982C10.2234 17.1335 9.77586 17.1339 9.37766 17.2991L7.98151 17.8766C7.5833 18.0413 7.13601 18.0411 6.73789 17.8762C6.33978 17.7113 6.0234 17.3951 5.85825 16.9971L5.27978 15.6005C5.11504 15.2021 4.79884 14.8854 4.40068 14.72L3.00453 14.1417C2.60627 13.9767 2.2898 13.6604 2.12471 13.2621C1.95961 12.8639 1.95938 12.4164 2.12408 12.018L2.70197 10.6228C2.8666 10.2244 2.86627 9.77684 2.70104 9.37863L2.12398 7.98143C2.04216 7.78408 2.00003 7.57254 2 7.35891C1.99997 7.14527 2.04203 6.93372 2.12378 6.73635C2.20553 6.53897 2.32537 6.35964 2.47645 6.2086C2.62754 6.05756 2.8069 5.93777 3.00429 5.85608L4.39944 5.27817C4.7975 5.11358 5.11399 4.79776 5.27944 4.40005L5.85775 3.00385C6.02278 2.6054 6.33934 2.28883 6.73778 2.12378C7.13622 1.95874 7.58389 1.95874 7.98233 2.12378L9.37748 2.70169C9.77592 2.86633 10.2234 2.86599 10.6216 2.70076L12.0184 2.12468C12.4168 1.95973 12.8643 1.95976 13.2627 2.12477C13.6611 2.28978 13.9776 2.60626 14.1426 3.00461L14.7211 4.40122L14.7209 4.39881Z" stroke="white" stroke-width="1.2" stroke-linecap="round" stroke-linejoin="round"/>
<defs>
<linearGradient id="paint0_linear_18540_5869" x1="2" y1="10.0987" x2="16.8306" y2="14.2633" gradientUnits="userSpaceOnUse">
<stop stop-color="#F7931A"/>
<stop offset="1" stop-color="#C31AE3"/>
</linearGradient>
</defs>
</svg>
