<svg width="30" height="30" viewBox="0 0 30 30" fill="none" xmlns="http://www.w3.org/2000/svg">
    <circle cx="15" cy="15" r="14.5" fill="#fff" stroke="#B5B5B5"/>
    <path fill-rule="evenodd" clip-rule="evenodd" d="M8.667 9.333c0-.368.298-.667.666-.667h1.857c.369 0 .667.299.667.667v1.925a.667.667 0 0 1-.667.667H9.333a.667.667 0 0 1-.666-.667V9.333zm4.738 0c0-.368.298-.666.667-.666h1.857c.368 0 .666.298.666.666v1.925a.667.667 0 0 1-.666.667h-1.857a.667.667 0 0 1-.667-.667V9.333zm5.405-.666a.667.667 0 0 0-.667.666v1.925c0 .368.299.667.667.667h1.857a.667.667 0 0 0 .666-.667V9.333a.667.667 0 0 0-.666-.666H18.81zm-10.143 5.37c0-.367.298-.666.666-.666h1.857c.369 0 .667.299.667.667v1.925a.667.667 0 0 1-.667.666H9.333a.667.667 0 0 1-.666-.666v-1.925zm5.405-.666a.667.667 0 0 0-.667.667v1.925c0 .368.298.666.667.666h1.857a.667.667 0 0 0 .666-.666v-1.925a.667.667 0 0 0-.666-.667h-1.857zm4.071.667c0-.368.299-.667.667-.667h1.857c.368 0 .666.299.666.667v1.925a.667.667 0 0 1-.666.666H18.81a.667.667 0 0 1-.667-.666v-1.925zm-8.81 4.037a.667.667 0 0 0-.666.667v1.925c0 .368.298.666.666.666h1.857a.667.667 0 0 0 .667-.666v-1.925a.667.667 0 0 0-.667-.667H9.333zm4.072.667c0-.368.298-.667.667-.667h1.857c.368 0 .666.299.666.667v1.925a.667.667 0 0 1-.666.666h-1.857a.667.667 0 0 1-.667-.666v-1.925zm5.405-.667a.667.667 0 0 0-.667.667v1.925c0 .368.299.666.667.666h1.857a.667.667 0 0 0 .666-.666v-1.925a.667.667 0 0 0-.666-.667H18.81z" fill="url(#69ep3v6c0a)"/>
    <defs>
        <linearGradient id="69ep3v6c0a" x1="21.333" y1="22" x2="12" y2="12" gradientUnits="userSpaceOnUse">
            <stop stop-color="#DC1FFF"/>
            <stop offset="1" stop-color="#F7931A"/>
        </linearGradient>
    </defs>
</svg>
