<svg width="44" height="45" viewBox="0 0 44 45" fill="none" xmlns="http://www.w3.org/2000/svg">
<circle cx="22" cy="22.002" r="21.5" fill="#131313" stroke="#B5B5B5"/>
<mask id="mask0_1183_141025" style="mask-type:alpha" maskUnits="userSpaceOnUse" x="1" y="0" width="42" height="44">
<path d="M42.5 21.7012C42.5 33.3103 33.3108 42.7012 22 42.7012C10.6892 42.7012 1.5 33.3103 1.5 21.7012C1.5 10.092 10.6892 0.701172 22 0.701172C33.3108 0.701172 42.5 10.092 42.5 21.7012Z" fill="#1C1C1C" stroke="#B5B5B5"/>
</mask>
<g mask="url(#mask0_1183_141025)">
<path fill-rule="evenodd" clip-rule="evenodd" d="M22 23.002C25.3137 23.002 28 20.3157 28 17.002C28 13.6882 25.3137 11.002 22 11.002C18.6863 11.002 16 13.6882 16 17.002C16 20.3157 18.6863 23.002 22 23.002ZM22 60.002C31.3888 60.002 39 52.6147 39 43.502C39 34.3893 31.3888 27.002 22 27.002C12.6112 27.002 5 34.3893 5 43.502C5 52.6147 12.6112 60.002 22 60.002Z" fill="url(#paint0_linear_1183_141025)"/>
</g>
<defs>
<linearGradient id="paint0_linear_1183_141025" x1="11" y1="28.502" x2="28.2251" y2="24.4524" gradientUnits="userSpaceOnUse">
<stop stop-color="#5855FF"/>
<stop offset="1" stop-color="#DC1FFF"/>
</linearGradient>
</defs>
</svg>
