<svg width="30" height="30" viewBox="0 0 30 30" fill="none" xmlns="http://www.w3.org/2000/svg">
    <circle cx="15" cy="15" r="15" fill="#000"/>
    <path d="M22.97 11.494v6.82a2.084 2.084 0 0 1-1.04 1.805l-5.903 3.41a2.08 2.08 0 0 1-.876.272c-.018 0-.036.003-.054.004a1.739 1.739 0 0 1-.205 0c-.027 0-.055 0-.082-.006h-.025a2.045 2.045 0 0 1-.171-.023l-.025-.005-.034-.007a2.058 2.058 0 0 1-.612-.234L8.04 20.12A2.083 2.083 0 0 1 7 18.315v-6.821c0-.169.02-.337.061-.5 0-.01.005-.021.008-.031.003-.01 0-.007 0-.01a1.85 1.85 0 0 1 .051-.162 1.679 1.679 0 0 1 .104-.242l.061-.117a2.084 2.084 0 0 1 .75-.743l5.908-3.41a2.08 2.08 0 0 1 2.083 0l5.903 3.41c.229.133.43.307.594.515l.06.077c.022.027.035.05.052.075.025.039.049.078.072.122.022.044.046.085.066.129a2.312 2.312 0 0 1 .086.207 1.924 1.924 0 0 1 .11.68z" fill="#2BB673"/>
    <path d="M22.973 11.006a.33.33 0 0 1-.107.092L20.6 12.313c.076.011.153.014.23.008.148 0 .297.006.445.02.077.01.163.042.16.133-.002.091-.094.19-.16.249a1.243 1.243 0 0 1-.574.272 1.473 1.473 0 0 1-.644-.014.71.71 0 0 1-.344-.194l-2.642 1.418c.251.093.523.03.785-.014.091-.015.188-.003.23.09.04.085.01.184-.024.262-.085.22-.233.409-.425.545-.203.13-.413.09-.598-.05a2.684 2.684 0 0 1-.507-.512.05.05 0 0 1-.011-.026l-.786.422a.44.44 0 0 0-.235.381l-.036 2.935a.18.18 0 0 0 .027-.008.24.24 0 0 0 .134-.152c.023-.072.038-.147.045-.222l.037-.269.034-.25a.294.294 0 0 1 .068-.17.142.142 0 0 1 .157-.037.195.195 0 0 1 .09.114c.023.062.04.126.052.19a.305.305 0 0 1 .019.098 1.892 1.892 0 0 1 .037.346c.235-.078.35-.376.45-.58.06-.122.115-.252.183-.37.052-.091.152-.184.266-.145a.23.23 0 0 1 .134.202c.01.107.005.215-.018.32a.754.754 0 0 1-.129.317.877.877 0 0 1-.283.23c-.182.101-.38.17-.586.201l-.014.009a.047.047 0 0 1-.009.003c0 .027-.005.054-.008.082a1.428 1.428 0 0 1-.698 1.022l-.018 1.528c.065.01.131.009.196-.004a.902.902 0 0 0 .462-.245c.101-.097.19-.209.309-.285.099-.06.244-.108.35-.037.126.08.09.24.036.352-.03.06-.062.117-.097.173.194.082.428.079.63.046.208-.03.405-.107.58-.222.035-.024.069-.05.101-.078a.747.747 0 0 1-.27-.289 1.74 1.74 0 0 1-.175-.445 1.25 1.25 0 0 1 .055-.82.672.672 0 0 1 .244-.307.287.287 0 0 1 .334.012.304.304 0 0 1 .092.24c.167.04.34-.027.483-.114.153-.095.282-.225.374-.38l.023-.044c-.24.04-.486.04-.726 0a.93.93 0 0 1-.333-.112.654.654 0 0 1-.239-.272.574.574 0 0 1-.077-.358c.019-.106.098-.224.218-.217.129.009.2.131.264.229.051.083.113.16.183.229.1-.05.149-.173.18-.275.034-.134.058-.27.07-.408.011-.119.031-.237.06-.353a.746.746 0 0 1 .152-.306c.07-.077.19-.118.283-.05.091.069.112.197.127.299a.69.69 0 0 1-.005.227.395.395 0 0 0 .277-.11.948.948 0 0 0 .222-.377c.026-.07.05-.14.073-.21.023-.072.04-.143.066-.212.04-.105.123-.213.245-.207a.274.274 0 0 1 .238.196.644.644 0 0 1-.014.374c-.076.26-.264.445-.489.585-.206.13-.448.23-.694.196-.04.088-.087.173-.139.254-.122.201-.286.389-.51.476.098.052.203.09.312.114.07.017.142.03.213.044a.518.518 0 0 0 .156.014l.082-.198c.027-.066.05-.162.113-.213a.25.25 0 0 1 .191-.041c.291.039.252.347.167.587a.863.863 0 0 0 .995-.414c.034-.06.057-.127.095-.186a.328.328 0 0 1 .153-.122.28.28 0 0 1 .207-.028.319.319 0 0 1 .14.13c.045.06.08.126.104.197.04.146-.04.285-.136.39a1.226 1.226 0 0 1-.734.353c-.314.044-.632-.005-.942-.065-.151.25-.414.423-.678.532a1.808 1.808 0 0 1-.799.137c-.026.103-.055.205-.077.306-.049.232-.054.517.104.704l.033-.053c.097-.154.228-.335.428-.354.2-.019.267.213.255.374a.806.806 0 0 1-.245.498c-.15.14-.329.244-.524.306a3.921 3.921 0 0 1-.656.17 3.276 3.276 0 0 1-1.13-.025 2.18 2.18 0 0 1-.538.409c-.137.074-.284.141-.394.255a.599.599 0 0 0-.061.075l-.027 2.16a.323.323 0 0 1-.01.077 2.478 2.478 0 0 1-.117.012c-.019 0-.037.003-.055.004a1.737 1.737 0 0 1-.204 0c-.027 0-.055 0-.082-.006h-.026a.176.176 0 0 1-.025-.09l.024-1.882a.659.659 0 0 0-.157-.264c-.11-.114-.257-.18-.395-.255a2.199 2.199 0 0 1-.538-.41 3.273 3.273 0 0 1-1.129.026 3.976 3.976 0 0 1-.656-.17 1.39 1.39 0 0 1-.525-.306.806.806 0 0 1-.244-.498c-.012-.16.05-.393.255-.373.204.019.33.199.428.354l.033.053c.158-.188.152-.472.104-.705-.022-.103-.051-.204-.077-.305a1.816 1.816 0 0 1-.81-.142c-.265-.11-.528-.283-.679-.532-.31.06-.627.108-.942.065a1.227 1.227 0 0 1-.733-.354c-.097-.104-.176-.244-.137-.39a.68.68 0 0 1 .104-.197.323.323 0 0 1 .14-.13.284.284 0 0 1 .211.03.328.328 0 0 1 .153.123c.038.06.062.125.095.186a.863.863 0 0 0 .996.414c-.086-.24-.123-.55.166-.587a.245.245 0 0 1 .191.041c.061.05.085.14.113.212.028.072.053.133.082.2a.521.521 0 0 0 .156-.016 4.35 4.35 0 0 0 .213-.042 1.28 1.28 0 0 0 .313-.115c-.226-.087-.387-.275-.511-.476a2.181 2.181 0 0 1-.14-.254c-.243.035-.488-.067-.693-.197-.224-.14-.413-.325-.49-.584a.644.644 0 0 1-.013-.374.275.275 0 0 1 .238-.197c.122-.005.205.104.245.208.025.07.043.141.066.211.022.07.047.141.073.211.044.141.12.27.222.377.075.071.174.11.277.11a.69.69 0 0 1-.005-.228c.015-.101.04-.232.127-.298.088-.066.213-.028.283.05a.747.747 0 0 1 .151.306c.03.116.05.234.061.354.013.137.036.273.07.407.031.102.08.224.18.275.07-.069.132-.146.183-.23.061-.096.135-.22.264-.228.13-.008.2.111.218.217a.575.575 0 0 1-.077.359.653.653 0 0 1-.239.271.931.931 0 0 1-.333.112c-.24.04-.486.04-.726 0l.023.043c.092.155.22.286.374.38.142.088.316.154.483.114a.302.302 0 0 1 .092-.24.286.286 0 0 1 .334-.01c.11.075.195.181.244.305.11.26.13.549.054.821a1.765 1.765 0 0 1-.175.445.746.746 0 0 1-.27.289 1.428 1.428 0 0 0 .68.3c.205.033.438.036.632-.046a1.726 1.726 0 0 1-.097-.174c-.054-.112-.09-.271.035-.352.109-.07.252-.025.351.038.122.076.208.189.309.286.126.125.287.21.462.244a.57.57 0 0 0 .167.008l.018-1.528a1.428 1.428 0 0 1-.705-1.026l-.008-.082h-.01l-.013-.009a1.753 1.753 0 0 1-.593-.204.887.887 0 0 1-.283-.23.761.761 0 0 1-.128-.317 1.042 1.042 0 0 1-.018-.32.227.227 0 0 1 .134-.203c.114-.037.213.054.265.145.069.119.123.245.184.37.1.206.213.502.449.58a1.924 1.924 0 0 1 .037-.345c.001-.033.008-.066.02-.098.011-.065.029-.128.05-.19a.193.193 0 0 1 .092-.114.139.139 0 0 1 .157.037c.04.048.063.108.067.17l.034.25.037.269c.007.075.022.15.045.222a.24.24 0 0 0 .134.152c.02.008.04.012.061.013l.037-3.034a.386.386 0 0 0-.217-.35l-.846-.42c0 .01-.005.019-.011.027a2.682 2.682 0 0 1-.507.512c-.184.14-.396.179-.599.049a1.197 1.197 0 0 1-.428-.544c-.034-.08-.06-.178-.025-.262.043-.094.14-.106.231-.09.254.042.516.102.761.022l-2.704-1.346-.045.038a.713.713 0 0 1-.274.132c-.21.053-.43.058-.644.016a1.243 1.243 0 0 1-.573-.274c-.066-.06-.158-.154-.161-.248-.003-.094.084-.122.16-.133a4.344 4.344 0 0 1 .559-.017l-2.16-1.075a.329.329 0 0 1-.163-.176v-.01a1.85 1.85 0 0 1 .05-.162 1.679 1.679 0 0 1 .105-.242.337.337 0 0 1 .305 0l1.782.886a3.108 3.108 0 0 0-.206-.245 2.164 2.164 0 0 1-.219-.272.602.602 0 0 1-.117-.306.191.191 0 0 1 .184-.192c.104-.01.192.054.266.122.168.148.308.325.413.523.103.195.172.408.202.627l1.857.923a1.106 1.106 0 0 0-.077-.225c-.061-.137-.132-.27-.195-.407a2.57 2.57 0 0 1-.162-.402c-.026-.099-.061-.258.019-.34.157-.156.444.126.54.238.164.192.273.424.316.672.016.084.08.516.005.682l1.488.74a.432.432 0 0 0-.007-.08 2.528 2.528 0 0 1-.04-.13c-.013-.045-.042-.092-.062-.138-.06-.138-.097-.314.021-.433a.205.205 0 0 1 .172-.064.259.259 0 0 1 .164.109.66.66 0 0 1 .108.444.78.78 0 0 1-.127.406l.956.475a.518.518 0 0 0 .474-.007l.913-.49a.199.199 0 0 1-.017-.016.119.119 0 0 1-.018-.017l-.003-.003c-.1-.115-.135-.283-.146-.428a.654.654 0 0 1 .108-.444.255.255 0 0 1 .164-.11.206.206 0 0 1 .173.066c.118.12.08.295.021.433-.02.046-.042.091-.061.138-.019.046-.026.087-.04.13a.44.44 0 0 0 0 .158l1.49-.8c-.09-.15-.02-.612-.005-.7.044-.248.153-.48.316-.672.097-.111.383-.394.54-.237.083.082.046.24.02.339a2.6 2.6 0 0 1-.163.402c-.06.137-.132.27-.194.407-.035.073-.061.15-.078.23l1.662-.892c.021-.252.094-.498.212-.722.104-.198.244-.375.413-.522.075-.066.162-.13.266-.122a.19.19 0 0 1 .18.192.605.605 0 0 1-.116.305 2.215 2.215 0 0 1-.219.273 2 2 0 0 0-.276.351l2.005-1.075c.047-.026.1-.04.154-.04l.05.074c.026.039.05.078.072.119a.175.175 0 0 1 .067.128 1.961 1.961 0 0 1 .085.205z" fill="#231F20" stroke="#231F20" stroke-width=".049" stroke-miterlimit="10" style="mix-blend-mode:multiply" opacity=".54"/>
    <path d="M22.886 10.85a.33.33 0 0 1-.107.092l-2.266 1.216c.076.01.153.013.23.007.148 0 .297.006.445.02.077.01.163.042.16.133-.002.091-.094.19-.16.249a1.243 1.243 0 0 1-.574.272 1.473 1.473 0 0 1-.643-.014.71.71 0 0 1-.345-.194l-2.642 1.418c.252.093.524.03.785-.014.091-.015.188-.003.231.09.039.085.009.184-.025.262-.085.22-.233.409-.425.545-.203.13-.413.09-.598-.05a2.684 2.684 0 0 1-.507-.512.05.05 0 0 1-.011-.026l-.786.422a.44.44 0 0 0-.235.381l-.036 2.935a.18.18 0 0 0 .028-.008.24.24 0 0 0 .133-.152c.023-.072.038-.147.046-.222l.036-.269.035-.25a.294.294 0 0 1 .067-.17.142.142 0 0 1 .157-.037.195.195 0 0 1 .09.114c.023.063.04.128.052.194a.305.305 0 0 1 .02.097c.008.05.017.1.023.15.008.065.012.13.014.197.235-.079.348-.376.449-.58.06-.123.115-.252.183-.37.053-.092.152-.184.266-.146a.229.229 0 0 1 .134.203c.01.107.005.215-.017.32a.754.754 0 0 1-.13.317.876.876 0 0 1-.282.23c-.182.101-.38.17-.586.201l-.014.009a.057.057 0 0 1-.01.003c0 .027-.005.054-.008.081a1.428 1.428 0 0 1-.697 1.022l-.019 1.529c.065.01.132.008.196-.004a.903.903 0 0 0 .462-.245c.101-.097.19-.209.306-.285.099-.064.244-.108.35-.038.126.081.09.24.036.352-.029.06-.061.118-.097.174.194.081.428.078.63.046.208-.031.405-.107.58-.223.035-.024.07-.05.102-.077a.746.746 0 0 1-.27-.289 1.748 1.748 0 0 1-.175-.445 1.25 1.25 0 0 1 .054-.821.673.673 0 0 1 .244-.306.287.287 0 0 1 .334.012.301.301 0 0 1 .092.24c.167.04.34-.027.483-.114.153-.095.282-.226.374-.38l.024-.044c-.241.04-.486.04-.727 0a.93.93 0 0 1-.333-.112.654.654 0 0 1-.239-.272.573.573 0 0 1-.077-.358c.019-.106.098-.225.218-.217.12.008.2.131.264.228.051.084.113.161.183.23.1-.051.149-.173.18-.275.034-.134.058-.27.07-.408a2.39 2.39 0 0 1 .06-.353.746.746 0 0 1 .152-.306c.07-.078.191-.119.283-.05.091.068.112.197.127.298.011.076.01.153-.004.228a.395.395 0 0 0 .276-.11.947.947 0 0 0 .222-.377c.026-.07.051-.14.074-.211.022-.071.04-.142.066-.211.039-.105.122-.213.244-.208a.276.276 0 0 1 .238.197.644.644 0 0 1-.014.374c-.075.259-.264.444-.489.584-.206.13-.448.231-.694.197-.04.087-.087.172-.139.254-.122.201-.286.389-.51.476.098.051.203.09.312.114.07.017.142.03.213.043a.522.522 0 0 0 .157.015c.028-.066.054-.133.08-.199.028-.066.052-.162.114-.212a.25.25 0 0 1 .191-.041c.291.039.252.347.167.587a.864.864 0 0 0 .996-.414c.033-.061.056-.128.094-.183.037-.057.09-.1.153-.126a.28.28 0 0 1 .211-.03.318.318 0 0 1 .14.13c.045.06.08.126.104.198.04.146-.04.285-.136.389a1.225 1.225 0 0 1-.734.353c-.315.044-.632-.005-.942-.064-.151.248-.414.422-.678.532a1.807 1.807 0 0 1-.799.137c-.026.102-.055.204-.077.305-.049.233-.054.517.104.705l.033-.053c.097-.155.227-.336.428-.355.2-.018.267.213.255.374a.806.806 0 0 1-.245.498c-.15.14-.329.244-.524.306a3.93 3.93 0 0 1-.656.17 3.277 3.277 0 0 1-1.13-.025 2.178 2.178 0 0 1-.538.41c-.137.074-.284.14-.394.254a.599.599 0 0 0-.062.075l-.026 2.16a.319.319 0 0 1-.01.078 2.478 2.478 0 0 1-.118.011c-.018 0-.036.003-.054.004a1.782 1.782 0 0 1-.204 0c-.028 0-.055 0-.083-.005h-.025a.175.175 0 0 1-.025-.091l.024-1.882a.66.66 0 0 0-.157-.264c-.11-.114-.257-.184-.395-.255a2.201 2.201 0 0 1-.538-.41 3.273 3.273 0 0 1-1.129.026 3.986 3.986 0 0 1-.656-.17 1.391 1.391 0 0 1-.525-.305.806.806 0 0 1-.244-.499c-.012-.16.05-.393.255-.373.204.02.33.199.427.354l.034.053c.158-.188.152-.472.103-.704-.021-.104-.05-.205-.077-.306a1.815 1.815 0 0 1-.798-.137c-.264-.11-.527-.283-.678-.532-.31.061-.628.108-.943.065a1.227 1.227 0 0 1-.733-.354c-.097-.104-.176-.244-.136-.39a.68.68 0 0 1 .104-.197.323.323 0 0 1 .14-.13.284.284 0 0 1 .21.03.328.328 0 0 1 .154.126c.038.061.06.122.094.183a.864.864 0 0 0 .996.414c-.085-.24-.123-.55.166-.587a.245.245 0 0 1 .192.041c.06.05.085.14.113.213l.081.198a.521.521 0 0 0 .156-.015 4.35 4.35 0 0 0 .214-.042c.108-.025.213-.063.312-.115-.226-.087-.386-.275-.51-.476a2.158 2.158 0 0 1-.14-.254c-.244.035-.489-.067-.694-.197-.224-.14-.412-.325-.489-.584a.644.644 0 0 1-.013-.374.275.275 0 0 1 .237-.197c.123-.005.205.104.245.208.026.07.043.141.066.211.023.07.047.141.073.211.044.141.12.27.223.377.074.071.173.11.276.11a.692.692 0 0 1-.005-.228c.015-.101.04-.232.128-.298.087-.066.212-.027.283.05a.745.745 0 0 1 .15.306c.03.116.05.235.062.354.012.137.036.274.07.407.03.102.08.224.18.275.07-.069.131-.146.183-.23.06-.096.135-.22.264-.228.122-.008.199.112.218.217a.575.575 0 0 1-.078.359.653.653 0 0 1-.238.271.93.93 0 0 1-.333.112c-.24.04-.486.04-.727 0l.023.043c.093.155.221.286.375.38.142.088.316.154.483.115a.302.302 0 0 1 .091-.24.287.287 0 0 1 .334-.012c.11.076.195.182.245.306.11.26.129.55.054.821a1.765 1.765 0 0 1-.175.445.746.746 0 0 1-.27.289c.032.028.066.054.102.078.174.116.372.191.579.222.203.033.436.036.63-.046a1.725 1.725 0 0 1-.097-.173c-.054-.113-.09-.272.036-.352.108-.07.252-.026.35.037.12.076.208.189.306.286.127.125.287.21.462.245.055.01.111.013.167.008l.018-1.53a1.429 1.429 0 0 1-.718-1.029c-.004-.027-.006-.054-.009-.082a.042.042 0 0 1-.009-.003l-.014-.009a1.753 1.753 0 0 1-.586-.2.885.885 0 0 1-.284-.23.763.763 0 0 1-.128-.317 1.045 1.045 0 0 1-.018-.32.228.228 0 0 1 .135-.203c.113-.038.213.054.265.145.068.119.122.244.183.37.1.205.213.502.45.58a1.892 1.892 0 0 1 .037-.345c0-.034.007-.067.019-.098.012-.065.029-.129.051-.191a.193.193 0 0 1 .091-.113.139.139 0 0 1 .157.037c.04.048.063.107.067.17l.035.25.036.268c.008.076.023.15.046.223a.238.238 0 0 0 .133.152.21.21 0 0 0 .058.012l.038-3.033a.384.384 0 0 0-.217-.35l-.847-.42c0 .01-.004.019-.01.026a2.684 2.684 0 0 1-.508.512c-.183.14-.395.179-.598.05a1.196 1.196 0 0 1-.428-.545c-.034-.08-.061-.178-.025-.261.043-.094.14-.106.23-.091.254.043.517.102.762.022l-2.705-1.345-.044.037a.712.712 0 0 1-.275.133c-.21.052-.43.057-.643.015a1.244 1.244 0 0 1-.573-.273c-.067-.061-.159-.154-.162-.248-.003-.095.084-.123.16-.133.149-.015.297-.022.446-.021h.113l-2.16-1.074a.329.329 0 0 1-.163-.177v-.01a1.85 1.85 0 0 1 .051-.161 1.679 1.679 0 0 1 .104-.243.337.337 0 0 1 .306 0l1.781.886a3.108 3.108 0 0 0-.206-.245 2.163 2.163 0 0 1-.219-.272.602.602 0 0 1-.116-.305.192.192 0 0 1 .18-.192c.105-.01.192.053.266.119.169.147.309.324.413.522.103.196.172.408.202.627l1.856.922a1.103 1.103 0 0 0-.078-.224c-.061-.137-.131-.27-.194-.407a2.58 2.58 0 0 1-.163-.402c-.026-.099-.06-.258.02-.34.157-.156.444.126.54.237.164.194.273.427.316.676.015.084.08.516.004.682l1.496.746a.442.442 0 0 0-.007-.08 2.53 2.53 0 0 1-.04-.13c-.013-.044-.041-.092-.061-.138-.062-.138-.098-.313.02-.432a.206.206 0 0 1 .173-.065.259.259 0 0 1 .163.11c.088.13.127.287.108.444a.777.777 0 0 1-.126.406l.955.475a.518.518 0 0 0 .474-.008l.913-.489a.214.214 0 0 1-.016-.016.124.124 0 0 1-.019-.017l-.003-.004c-.1-.114-.134-.282-.145-.428a.655.655 0 0 1 .107-.444.255.255 0 0 1 .164-.109.206.206 0 0 1 .172.061c.118.123.08.295.021.433-.02.046-.042.091-.06.138-.02.046-.026.087-.041.13a.444.444 0 0 0 0 .159l1.49-.8c-.09-.151-.02-.612-.004-.7.043-.25.152-.483.316-.676.096-.111.383-.394.54-.237.082.082.046.24.02.34a2.6 2.6 0 0 1-.163.401c-.061.137-.133.27-.195.407-.035.074-.06.15-.078.23l1.664-.893a1.886 1.886 0 0 1 .623-1.247c.075-.066.162-.13.267-.122a.19.19 0 0 1 .18.192.605.605 0 0 1-.117.305 2.222 2.222 0 0 1-.219.273 2.002 2.002 0 0 0-.275.35l2.004-1.075c.047-.025.1-.039.154-.04l.05.075c.026.039.05.078.072.122a.178.178 0 0 1 .067.128 2.22 2.22 0 0 1 .086.208z" fill="#fff" stroke="#fff" stroke-width=".049" stroke-miterlimit="10"/>
    <path d="M23 11.53v6.821a2.085 2.085 0 0 1-1.039 1.805l-5.904 3.41a2.077 2.077 0 0 1-.762.26c-.038.006-.078.009-.117.012-.018 0-.036.003-.054.004a1.782 1.782 0 0 1-.204 0c-.028 0-.055 0-.083-.006h-.025a2.057 2.057 0 0 1-.17-.024l-.026-.004-.031-.007a2.055 2.055 0 0 1-.611-.234l-5.906-3.41a2.084 2.084 0 0 1-1.039-1.805v-6.821c0-.169.02-.337.061-.5 0-.011.005-.021.008-.032.003-.01 0-.006 0-.009.015-.055.032-.109.052-.162a1.68 1.68 0 0 1 .104-.243l.06-.116a2.082 2.082 0 0 1 .75-.744l5.905-3.41a2.08 2.08 0 0 1 2.082 0l5.904 3.41c.229.133.43.307.593.515l.061.077c.022.027.035.05.051.075.026.04.05.078.072.122.023.044.046.085.067.129a2.222 2.222 0 0 1 .085.207 2.067 2.067 0 0 1 .116.68z" stroke="#fff" stroke-width=".714" stroke-miterlimit="10"/>
</svg>
