<svg width="30" height="30" viewBox="0 0 30 30" fill="none" xmlns="http://www.w3.org/2000/svg">
    <path d="M15 30c8.284 0 15-6.716 15-15 0-8.284-6.716-15-15-15C6.716 0 0 6.716 0 15c0 8.284 6.716 15 15 15z" fill="#1075BD"/>
    <path d="M20.328 9.334H9.672C6.54 9.334 4 11.796 4 14.834c0 3.037 2.54 5.5 5.672 5.5h10.656c3.133 0 5.672-2.463 5.672-5.5 0-3.038-2.54-5.5-5.672-5.5z" fill="#fff"/>
    <path d="M20.128 19.434c2.637 0 4.774-2.073 4.774-4.63s-2.137-4.63-4.773-4.63c-2.637 0-4.774 2.073-4.774 4.63s2.137 4.63 4.773 4.63zm-10.248 0c2.637 0 4.774-2.073 4.774-4.63s-2.138-4.63-4.774-4.63-4.773 2.073-4.773 4.63 2.137 4.63 4.773 4.63z" fill="#4FBBEB" stroke="#010101" stroke-width=".275" stroke-miterlimit="10"/>
    <path d="M20.128 18.41c2.053 0 3.718-1.614 3.718-3.605 0-1.992-1.665-3.606-3.718-3.606s-3.717 1.614-3.717 3.606c0 1.99 1.665 3.605 3.718 3.605zm-10.248 0c2.054 0 3.718-1.614 3.718-3.605 0-1.992-1.665-3.606-3.718-3.606s-3.717 1.614-3.717 3.606c0 1.99 1.664 3.605 3.717 3.605z" fill="#fff" stroke="#010101" stroke-width=".55" stroke-miterlimit="10"/>
    <path d="M11.339 16.752c.619 0 1.121-.737 1.121-1.647s-.502-1.646-1.121-1.646c-.62 0-1.122.736-1.122 1.646 0 .91.502 1.646 1.122 1.646z" fill="#010101"/>
    <path d="M11.624 15.384c.242 0 .44-.288.44-.645 0-.355-.198-.644-.44-.644-.243 0-.44.288-.44.644 0 .357.197.645.44.645z" fill="#fff"/>
    <path d="M21.587 16.752c.619 0 1.121-.737 1.121-1.647s-.502-1.646-1.121-1.646c-.62 0-1.122.736-1.122 1.646 0 .91.503 1.646 1.122 1.646z" fill="#010101"/>
    <path d="M21.872 15.384c.243 0 .44-.288.44-.645 0-.355-.197-.644-.44-.644s-.44.288-.44.644c0 .357.197.645.44.645z" fill="#fff"/>
</svg>
