<svg width="30" height="31" viewBox="0 0 30 31" fill="none" xmlns="http://www.w3.org/2000/svg">
<path fill-rule="evenodd" clip-rule="evenodd" d="M12.3975 8.63014L11.7251 7.5C9.82051 7.84527 8.77202 8.08098 6.95696 8.63014C3.93284 12.8368 3.338 15.3561 3.53371 20.0342C5.65859 21.2786 6.94601 21.8127 9.40214 22.5L10.6247 20.8048L8.66859 20.0342L9.21875 19.6233C13.7306 21.0998 16.2604 21.2016 20.7722 19.6233L21.2613 20.0342L19.3663 20.8048L20.5277 22.5C22.839 21.9163 24.1284 21.3399 26.3961 20.0342C26.8388 15.4973 25.9012 13.0091 22.9118 8.63014C21.1655 8.00281 20.1685 7.68763 18.2048 7.5L17.5324 8.63014C15.5845 8.30317 14.4723 8.21825 12.3975 8.63014ZM20.8942 15.7174C20.8942 16.8522 19.9637 17.7722 18.8158 17.7722C17.6679 17.7722 16.7374 16.8522 16.7374 15.7174C16.7374 14.5826 17.6679 13.6626 18.8158 13.6626C19.9637 13.6626 20.8942 14.5826 20.8942 15.7174ZM11.1135 17.7722C12.2614 17.7722 13.1919 16.8522 13.1919 15.7174C13.1919 14.5826 12.2614 13.6626 11.1135 13.6626C9.96563 13.6626 9.0351 14.5826 9.0351 15.7174C9.0351 16.8522 9.96563 17.7722 11.1135 17.7722Z" fill="#EEEEEE"/>
</svg>
