<svg width="44" height="44" viewBox="0 0 44 44" fill="none" xmlns="http://www.w3.org/2000/svg">
<g id="Filtters button">
<g id="Refresh button">
<g id="Group 42">
<circle id="Ellipse 4" cx="22" cy="22" r="21" fill="#1C1C1C" stroke="#636363" stroke-width="2"/>
</g>
</g>
<g id="Icon">
<g id="Group 26573">
<path id="Rectangle 38" d="M7.5 17.1055C7.5 16.4151 8.05964 15.8555 8.75 15.8555H11.7566V18.3555H8.75C8.05964 18.3555 7.5 17.7958 7.5 17.1055V17.1055Z" fill="#636363"/>
<path id="Rectangle 39" d="M36.5 17.1055C36.5 16.4151 35.9404 15.8555 35.25 15.8555H17.5V18.3555H35.25C35.9404 18.3555 36.5 17.7958 36.5 17.1055Z" fill="#636363"/>
<circle id="Ellipse 27" cx="14.5" cy="17" r="2.75" stroke="#EEEEEE" stroke-width="1.5"/>
</g>
<g id="Group 26574">
<path id="Rectangle 38_2" d="M7.5 27.3438C7.5 26.6534 8.05964 26.0938 8.75 26.0938H26V28.5938H8.75C8.05964 28.5938 7.5 28.0341 7.5 27.3438V27.3438Z" fill="#636363"/>
<path id="Rectangle 39_2" d="M36.5 27.3438C36.5 26.6534 35.9404 26.0938 35.25 26.0938H31.5V28.5938H35.25C35.9404 28.5938 36.5 28.0341 36.5 27.3438V27.3438Z" fill="#636363"/>
<circle id="Ellipse 27_2" cx="28.5" cy="27" r="2.75" stroke="#EEEEEE" stroke-width="1.5"/>
</g>
</g>
</g>
</svg>
