<svg width="30" height="30" viewBox="0 0 30 30" fill="none" xmlns="http://www.w3.org/2000/svg">
    <circle cx="15" cy="15" r="15" fill="#1919A4"/>
    <path d="M11.537 16.122c-1.394 1.125-3.598 1.385-3.598 1.385s.066-.587.291-1.237c.245-.706.677-1.485 1.418-1.668.353-.087.649-.03.894.104.712.387.995 1.416.995 1.416z" fill="#fff"/>
    <path d="M11.537 16.122c-1.394 1.125-3.598 1.385-3.598 1.385s.066-.587.291-1.237a3.043 3.043 0 0 0 2.312-1.564c.712.387.995 1.416.995 1.416z" fill="#000072" opacity=".2"/>
    <path d="M7.94 17.654a.155.155 0 0 1-.114-.05.143.143 0 0 1-.038-.112c.013-.109.314-2.66 1.823-3.031.63-.156 1.191.083 1.624.691.31.438.444.912.45.932a.143.143 0 0 1-.05.15c-1.412 1.14-3.585 1.407-3.677 1.418a.168.168 0 0 1-.019.002zm2.033-2.946c-.097 0-.193.012-.287.036-1.09.268-1.47 2.005-1.567 2.588.552-.091 2.141-.416 3.243-1.261a3.058 3.058 0 0 0-.383-.759c-.287-.402-.624-.604-1.006-.604z" fill="#000072"/>
    <path d="M21.312 20.094c0 .266-.04.53-.119.784-.633 2.054-3.732 3.478-7.461 3.478-3.728 0-6.828-1.425-7.462-3.478a2.652 2.652 0 0 1-.118-.784c0-.631.223-1.245.624-1.81.394-.552.958-1.056 1.653-1.482a8.837 8.837 0 0 1 2.085-.915c.47-.14.948-.248 1.434-.322.59-.091 1.186-.137 1.784-.137 2.58 0 4.86.836 6.229 2.055.283.252.526.52.726.8.402.565.625 1.18.625 1.811z" fill="#FF759F"/>
    <path d="M18.305 18.415c.338 1.548.113 2.671-1.034 3.017-1.147.346-2.203-.388-2.203-.388-1.012.282-1.403-.336-1.403-.336-2.167.185-4.004-.559-4.534-1.857-.53-1.298.448-1.9.448-1.9.279-.426.593-.778.935-1.064.469-.14.948-.248 1.433-.322a11.63 11.63 0 0 1 1.785-.137c2.58 0 4.86.836 6.228 2.055-.668.48-1.655.932-1.655.932z" fill="#000072" opacity=".2"/>
    <path d="M14.433 21.703c1.223-.137 3.046-.576 4.316-1.92.104-.11.289.005.225.141-.419.897-1.557 2.308-4.54 2.04-.161-.015-.163-.242-.001-.26z" fill="#fff" opacity=".6"/>
    <path d="M21.312 20.094c0 .083-.004.165-.012.247-.05-.545-.264-1.073-.613-1.564-1.167-1.638-3.841-2.855-6.955-2.855-.598 0-1.194.045-1.784.136-.957.148-1.844.412-2.62.763-1.114.775-1.448 1.535-1.511 2.09-.014.127-.205.133-.227.007a1.97 1.97 0 0 1 .152-1.142 5.028 5.028 0 0 0-.965 1.002c-.35.49-.563 1.018-.613 1.562a2.66 2.66 0 0 1-.012-.247c0-.631.223-1.245.625-1.81.393-.552.957-1.056 1.652-1.482.96-.59 2.169-1.028 3.519-1.237.59-.091 1.186-.137 1.784-.137 3.114 0 5.788 1.217 6.955 2.856.402.565.625 1.18.625 1.81z" fill="#fff" opacity=".6"/>
    <path d="M21.312 20.092c0 .265-.04.53-.119.783v.001c-1.078 1.76-4.011 2.93-7.461 2.93s-6.383-1.17-7.462-2.93v-.001a2.65 2.65 0 0 1-.118-.783c0-.631.223-1.246.624-1.81-.017.12-.026.243-.026.365 0 2.27 3.126 3.926 6.982 3.926 3.856 0 6.982-1.655 6.982-3.926a2.5 2.5 0 0 0-.027-.366c.402.565.625 1.18.625 1.81z" fill="#000072" opacity=".2"/>
    <path d="M21.022 18.997a.155.155 0 0 1-.098-.035c-1.45-1.191-2.971-1.069-2.986-1.067a.15.15 0 0 1-.166-.132.148.148 0 0 1 .136-.16c.067-.006 1.66-.14 3.213 1.137.049.04.066.104.044.162a.152.152 0 0 1-.143.095zM9.473 17.89a.154.154 0 0 1-.12-.056c-.01-.011-.462-.505-1.843-.185a.156.156 0 0 1-.148-.04.142.142 0 0 1-.036-.144.15.15 0 0 1 .113-.1c1.601-.372 2.132.262 2.154.289a.142.142 0 0 1 .016.154.153.153 0 0 1-.136.082zM9.738 23.887a.15.15 0 0 1-.15-.126 4.553 4.553 0 0 1 1.51-4.102.156.156 0 0 1 .212.023.143.143 0 0 1-.021.205 3.974 3.974 0 0 0-.833.994c-.52.86-.711 1.816-.567 2.84a.142.142 0 0 1-.03.109.153.153 0 0 1-.12.057zM17.348 24.008a.154.154 0 0 1-.122-.06.142.142 0 0 1-.023-.13c.639-1.948-1.24-3.925-1.259-3.945a.142.142 0 0 1 .01-.204.156.156 0 0 1 .213.005c.02.021.51.533.922 1.308.552 1.036.691 2.047.404 2.923a.152.152 0 0 1-.145.102z" fill="#000072"/>
    <path d="M13.732 24.5c-2.074 0-4.004-.436-5.436-1.226C6.816 22.456 6 21.326 6 20.092c0-2.609 3.54-4.813 7.732-4.813 4.191 0 7.732 2.204 7.732 4.813 0 1.234-.816 2.364-2.297 3.182-1.432.79-3.362 1.226-5.435 1.226zm0-8.928c-1.976 0-3.85.492-5.277 1.385-1.367.855-2.151 1.998-2.151 3.135 0 1.125.762 2.165 2.144 2.929 1.386.765 3.263 1.187 5.284 1.187s3.898-.422 5.284-1.188c1.383-.763 2.144-1.803 2.144-2.928 0-1.137-.784-2.28-2.151-3.135-1.427-.893-3.301-1.385-5.277-1.385z" fill="#000072"/>
    <path d="M19.362 14.661s-.097.485-.305 1.19a15.518 15.518 0 0 1-.729 1.987c-.72 1.602-2.698 2.367-4.947 2.36-1.96-.007-3.71-.931-3.89-2.252-.158-1.156.6-2.047 1.259-2.512.086-.062.177-.119.27-.171.697-.39 1.237-.38 1.237-.38-1.116-2.399-1.041-4.034-.615-5.073.372-.907 1.01-1.358 1.357-1.466.45-.14.815.008 1.031.146.14.09.218.174.218.174l-.451.358c.28.946-.652 1.049-.652 1.049-.28 2.6.685 4.53.685 4.53 2.609 1.114 5.532.06 5.532.06z" fill="#fff"/>
    <path d="M19.362 14.662s-.097.484-.305 1.19a14.159 14.159 0 0 1-.117.378c-.007.018-.012.038-.018.057a15.528 15.528 0 0 1-.594 1.552c-.72 1.602-2.698 2.367-4.947 2.359-1.96-.007-3.71-.93-3.89-2.251-.158-1.157.6-2.048 1.259-2.513-.269 1.187-.32 3.244 2.479 3.416 2.656.164 3.72-1.106 4.112-1.922.075-.158-.064-.332-.242-.3-.455.085-.937.166-1.354.107-2.269-.325-3.488-1.852-3.488-1.852-1.116-2.398-1.04-4.034-.615-5.072 1.184.303 1.586-.902 1.586-.902.411-.081.662-.27.802-.418.14.089.218.174.218.174l-.451.358c.28.946-.652 1.049-.652 1.049-.28 2.6.685 4.53.685 4.53 2.609 1.114 5.532.06 5.532.06z" fill="#000072" opacity=".2"/>
    <path d="M13.415 20.345h-.034c-2.12-.008-3.857-1.03-4.04-2.379-.194-1.418.917-2.445 1.603-2.829a3.17 3.17 0 0 1 1.088-.382c-1.11-2.483-.906-4.085-.531-4.998.408-.995 1.104-1.443 1.451-1.551.827-.258 1.386.337 1.41.363a.143.143 0 0 1-.017.21l-.377.298c.069.295.033.546-.106.746-.162.233-.422.331-.576.37-.214 2.252.52 3.99.66 4.298 2.505 1.04 5.335.044 5.363.034a.157.157 0 0 1 .152.025.143.143 0 0 1 .05.14c-.002.016-.325 1.61-1.044 3.207-.689 1.534-2.576 2.448-5.051 2.448zm-1.161-5.316c-.018 0-.52.004-1.157.361-.622.347-1.628 1.273-1.455 2.538.079.582.507 1.119 1.204 1.511.697.392 1.597.61 2.536.613h.034c2.35 0 4.133-.848 4.772-2.271.54-1.2.852-2.397.97-2.9-.305.09-.862.231-1.565.314-.983.115-2.445.13-3.824-.459a.15.15 0 0 1-.075-.07c-.04-.08-.98-1.998-.7-4.61a.15.15 0 0 1 .135-.13c.002 0 .326-.041.482-.268.1-.146.114-.346.04-.595a.143.143 0 0 1 .05-.153l.315-.25a1.067 1.067 0 0 0-.97-.176c-.276.085-.895.485-1.262 1.38-.363.884-.551 2.461.611 4.959a.142.142 0 0 1-.011.14.154.154 0 0 1-.13.066z" fill="#000072"/>
    <path d="m12.425 19.853-.163.239-.073.106a1.458 1.458 0 0 1-.007.07l-.002.01c-.133.986-1.103 1.086-1.498 1.002-.404-.086-.584-.41-.584-.41s-.472.107-.628-.26c-.136-.32.573-.787.762-.904l.046-.027s.038-.141.119-.354a5.65 5.65 0 0 1 .102-.25 4.21 4.21 0 0 1 .65-1.062c.294-.337.667-.608 1.13-.672 1.038-.142 1.54.58 1.76 1.135a2.637 2.637 0 0 1 .14.488l.003.021c.102.652-1.757.868-1.757.868z" fill="#fff"/>
    <path d="M14.185 19.067a2.684 2.684 0 0 0-.096-.29c-.22-.555-.723-1.278-1.76-1.136-.463.064-.837.335-1.13.672a4.214 4.214 0 0 0-.65 1.062c-.04.09-.074.175-.103.25-.08.213-.119.354-.119.354l-.045.027c-.152.094-.64.414-.754.701a.426.426 0 0 1-.057-.098c-.136-.32.573-.786.762-.903l.045-.027s.039-.141.12-.354c.028-.075.063-.16.102-.25.143-.325.356-.726.65-1.062.294-.337.667-.608 1.13-.672 1.038-.142 1.54.58 1.76 1.135a2.637 2.637 0 0 1 .14.488l.003.021a.306.306 0 0 1 .002.082z" fill="#fff" opacity=".6"/>
    <path d="M12.34 20.21c-.01.128-.035.253-.076.374a1.2 1.2 0 0 1-.48.624c-.111.074-.234.13-.363.17a1.68 1.68 0 0 1-.391.069 1.399 1.399 0 0 1-.405-.03 1.054 1.054 0 0 1-.532-.31 1.376 1.376 0 0 1-.097-.12.672.672 0 0 1-.032-.049l.17.074-.024.004-.02.003a.782.782 0 0 1-.116.01.95.95 0 0 1-.156-.008.663.663 0 0 1-.31-.124c-.023-.016-.043-.038-.064-.058-.02-.02-.037-.043-.054-.066a.43.43 0 0 1-.042-.072l-.019-.037a.398.398 0 0 1-.014-.243.592.592 0 0 1 .064-.152c.05-.082.11-.159.179-.227a2.41 2.41 0 0 1 .202-.183 3.93 3.93 0 0 1 .44-.305l-.069.088a3.687 3.687 0 0 1 .121-.366c.045-.119.095-.236.147-.352.107-.232.23-.458.378-.671a3.1 3.1 0 0 1 .519-.593c.203-.175.444-.32.714-.397l.101-.027.104-.018c.017-.003.034-.007.052-.009l.05-.005c.035-.002.069-.007.104-.007.138-.007.278.002.414.027.138.026.271.07.396.13.123.063.237.14.339.232.202.182.348.405.455.639a2.353 2.353 0 0 1 .2.733.043.043 0 0 1-.016.04.047.047 0 0 1-.045.008.044.044 0 0 1-.029-.034 2.789 2.789 0 0 0-.272-.67 1.924 1.924 0 0 0-.447-.55 1.309 1.309 0 0 0-.627-.282 1.494 1.494 0 0 0-.351-.013c-.03.001-.06.006-.089.01l-.044.005-.043.008c-.028.006-.057.01-.085.017l-.083.024a1.662 1.662 0 0 0-.598.351c-.176.156-.33.342-.462.541-.067.1-.13.203-.187.309a5.492 5.492 0 0 0-.421.994l-.001.003a.145.145 0 0 1-.067.085c-.14.084-.274.177-.401.28-.062.049-.121.102-.177.158a.905.905 0 0 0-.135.17.318.318 0 0 0-.034.078.12.12 0 0 0-.002.054.036.036 0 0 1 .003.01l.01.019c.007.012.012.026.021.036.01.01.016.024.026.032.01.008.018.02.03.027.043.033.1.054.165.064a.65.65 0 0 0 .102.005c.018 0 .035-.002.053-.003l.025-.004.02-.003h.003a.165.165 0 0 1 .167.074l.016.024.022.03.048.056a.745.745 0 0 0 .38.223 1.365 1.365 0 0 0 .63-.034c.101-.032.197-.076.285-.133a.905.905 0 0 0 .221-.206c.123-.16.187-.362.204-.575a.146.146 0 0 1 .085-.124.157.157 0 0 1 .154.012c.045.03.07.082.064.134v.003h-.002z" fill="#000072"/>
    <path d="M12.074 20.104a1.158 1.158 0 0 0 .085-.094 2.46 2.46 0 0 0 .228-.327 1.899 1.899 0 0 0 .2-.491l.002-.004a.075.075 0 0 1 .086-.053.072.072 0 0 1 .06.079 1.913 1.913 0 0 1-.142.56 2.472 2.472 0 0 1-.2.392l-.042.063c-.014.02-.027.04-.046.064v.001a.156.156 0 0 1-.214.03.143.143 0 0 1-.017-.22z" fill="#000072"/>
    <path d="M12.18 20.279a1.476 1.476 0 0 1-.028.15c-.206.845-1.096.931-1.47.852-.404-.087-.584-.412-.584-.412s-.276.064-.475-.071a.42.42 0 0 1-.153-.189c-.156-.368.808-.93.808-.93.583.678 1.673.62 1.878.602a.226.226 0 0 1 .024-.002z" fill="#646484"/>
    <path d="M12.257 20.385a1.33 1.33 0 0 1-.104.042c-.89.316-1.92-.39-1.92-.39-.488.334-.61.59-.61.76a.42.42 0 0 1-.153-.188c-.156-.368.808-.93.808-.93.583.678 1.673.619 1.878.602l.021.02c.053.052.08.084.08.084z" fill="#fff" opacity=".6"/>
    <path d="M10.933 21.45c-.095 0-.19-.009-.283-.027a1.081 1.081 0 0 1-.624-.396c-.225.02-.558-.038-.696-.363-.196-.46.69-1.006.87-1.111a.156.156 0 0 1 .196.032c.558.65 1.646.56 1.769.548a.155.155 0 0 1 .125.043.143.143 0 0 1 .042.121c-.053.39-.238.703-.535.904a1.557 1.557 0 0 1-.864.248zm-.835-.727c.056 0 .108.03.135.077.005.01.155.267.483.337.17.036.577.046.906-.176a.913.913 0 0 0 .372-.526c-.387.008-1.208-.044-1.742-.567-.366.233-.698.55-.641.686.104.245.439.175.453.172a.159.159 0 0 1 .034-.003z" fill="#000072"/>
    <path d="M10.098 21.016a.154.154 0 0 1-.126-.065.142.142 0 0 1-.014-.137c.004-.01.102-.235.363-.524a.155.155 0 0 1 .26.047.142.142 0 0 1-.03.145c-.226.25-.312.442-.312.444a.153.153 0 0 1-.14.09z" fill="#000072"/>
    <path d="M16.765 21.053c-.926-.01-1.697-.487-1.697-.487-.563.27-.934.097-1.046-.075-.067-.102-.102-.289-.044-.518.04-.158.124-.337.271-.522.157-.195.467-.309.77-.374.402-.088.79-.091.79-.091-.202-.314-.258-1.266-.258-1.266l1.62-1.072c.058.085.114.168.166.25.56.88.771 1.657.822 2.597.057 1.028-.63 1.567-1.394 1.558z" fill="#fff"/>
    <path d="M17.226 16.613a4.224 4.224 0 0 1 .883 1.592c.085.293.146.592.181.894.008.076.017.151.023.226l.008.113c0 .02.003.038.003.057l.001.06.002.119c0 .04-.005.08-.008.12-.003.08-.02.16-.034.24a.438.438 0 0 1-.014.058l-.017.06c-.011.039-.022.078-.039.116l-.047.115-.06.11a1.483 1.483 0 0 1-.33.385 1.557 1.557 0 0 1-.955.334h-.063l-.061-.002-.123-.006c-.08-.009-.161-.014-.24-.03a3.938 3.938 0 0 1-1.134-.37c-.036-.019-.071-.036-.106-.056l-.107-.062.145.007c-.16.076-.337.135-.527.152a.872.872 0 0 1-.573-.14.529.529 0 0 1-.194-.26.8.8 0 0 1-.036-.287c.004-.09.02-.18.046-.268a1.478 1.478 0 0 1 .242-.47l.04-.052c.015-.018.032-.04.05-.056a.868.868 0 0 1 .11-.096c.156-.112.326-.176.494-.226.168-.05.338-.081.508-.105.17-.023.342-.036.514-.04l-.123.216a1.172 1.172 0 0 1-.11-.349 3.423 3.423 0 0 1-.043-.332 6.856 6.856 0 0 1-.023-.657.042.042 0 0 1 .04-.039.043.043 0 0 1 .044.033c.032.213.073.426.125.634.026.103.056.205.09.303l.028.073.03.068.033.064.036.052a.14.14 0 0 1-.049.196.154.154 0 0 1-.075.02c-.16.005-.319.018-.477.039a3.236 3.236 0 0 0-.463.095c-.15.043-.292.1-.401.18a.579.579 0 0 0-.075.064l-.03.035-.034.045a1.206 1.206 0 0 0-.199.383.873.873 0 0 0-.035.202.532.532 0 0 0 .038.225.22.22 0 0 0 .075.083.46.46 0 0 0 .17.072.72.72 0 0 0 .202.012c.14-.013.284-.057.42-.123a.152.152 0 0 1 .14.005l.005.003c.502.271 1.099.45 1.668.444l.051-.002a.323.323 0 0 0 .051-.004l.101-.013.099-.023c.033-.006.064-.02.096-.03.256-.085.47-.258.6-.486l.048-.086.038-.091c.014-.03.023-.062.032-.094l.014-.048a.28.28 0 0 0 .013-.049c.011-.066.027-.13.03-.199.002-.034.007-.067.008-.102l-.001-.102v-.052l-.003-.054-.007-.108c-.005-.073-.012-.144-.018-.216a5.165 5.165 0 0 0-.156-.848c-.155-.555-.413-1.077-.696-1.6a.063.063 0 0 1 .022-.084.069.069 0 0 1 .088.012z" fill="#000072"/>
    <path d="m15.81 18.84.027.002.023.003.046.007.087.017a2.177 2.177 0 0 1 1.037.561c.017.016.018.04.004.058a.045.045 0 0 1-.06.008l-.002-.002a2.128 2.128 0 0 0-.564-.276 1.92 1.92 0 0 0-.456-.085c-.025 0-.05-.003-.075-.002H15.823l-.014.001a.16.16 0 0 1-.16-.05.145.145 0 0 1-.018-.162.156.156 0 0 1 .146-.082l.033.002z" fill="#000072"/>
    <path d="M15.068 20.566c-.563.27-.934.097-1.046-.075-.112-.172-.135-.585.227-1.04.157-.195.467-.309.77-.374 0 0-.491.883.049 1.49z" fill="#646484"/>
    <path d="M14.521 20.853c-.316 0-.535-.141-.628-.284-.157-.24-.151-.72.236-1.206.156-.195.444-.339.857-.428a.155.155 0 0 1 .155.054.142.142 0 0 1 .013.158c-.005.007-.435.803.029 1.325.03.034.043.08.033.124a.147.147 0 0 1-.08.102 1.425 1.425 0 0 1-.615.155zm.24-1.552c-.184.066-.317.147-.391.24-.316.396-.302.745-.22.872.073.111.314.216.684.09-.261-.42-.175-.9-.073-1.202z" fill="#000072"/>
    <path d="M22.555 14.658c-.674.086-1.506-1.06-1.731-2.468l-.09-1.317-.045-.653s1.012 0 1.866 1.624a4.33 4.33 0 0 1 .345.883c.259.95.169 1.865-.345 1.93z" fill="#8D8CAA"/>
    <path d="M22.588 14.652c.224-.334.224-1.02.033-1.725a4.327 4.327 0 0 0-.345-.883c-.568-1.079-1.205-1.44-1.569-1.562l-.018-.262s1.012 0 1.867 1.624a4.33 4.33 0 0 1 .345.883c.252.93.171 1.824-.313 1.925z" fill="#fff" opacity=".6"/>
    <path d="M22.555 14.657c-.674.087-1.506-1.06-1.731-2.467l-.09-1.317c.262.277 1.593 1.742 1.481 2.802 0 0-.084.383.225.499.276.103.592-.787.46-1.447.259.95.168 1.865-.345 1.93z" fill="#000072" opacity=".2"/>
    <path d="M22.485 14.808c-.754 0-1.584-1.173-1.811-2.596a.18.18 0 0 1-.002-.012l-.135-1.97a.143.143 0 0 1 .041-.11.155.155 0 0 1 .111-.046c.045 0 1.116.02 2.002 1.704.5.948.65 2.13.344 2.69a.606.606 0 0 1-.55.34zm-1.51-2.634c.219 1.356.973 2.342 1.507 2.342a.405.405 0 0 0 .053-.004c.096-.012.171-.07.23-.18.23-.418.145-1.491-.345-2.422-.594-1.128-1.263-1.432-1.567-1.514l.122 1.778z" fill="#000072"/>
    <path d="M20.845 10.915a6.161 6.161 0 0 1 .582.62c.178.219.342.448.482.692.071.122.134.248.19.377.057.13.103.263.14.4.034.137.06.277.067.42.007.142-.002.284-.029.425a.083.083 0 0 1-.094.06.08.08 0 0 1-.07-.086v-.002c.02-.127.023-.257.01-.385a1.928 1.928 0 0 0-.078-.381 2.49 2.49 0 0 0-.145-.367 3.26 3.26 0 0 0-.194-.348 4.95 4.95 0 0 0-.488-.64 6.037 6.037 0 0 0-.575-.566l-.002-.002a.143.143 0 0 1-.05-.138.148.148 0 0 1 .1-.11.157.157 0 0 1 .15.027l.004.004z" fill="#000072"/>
    <path d="m19.392 8.806-.205-.056-.553-.152-.92-.253s.47-.745.574-1.694a3.01 3.01 0 0 0-.05-1.005s.107.06.256.195c.4.36 1.106 1.254.898 2.965z" fill="#fff"/>
    <path d="M18.634 8.598c.193-1.075-.088-1.992-.31-2.265.035-.319-.007-.342-.086-.687 0 0 .952 1.386.95 3.104l-.554-.152z" fill="#000072" opacity=".2"/>
    <path d="M23.848 10.512c-.031-.016-1.754-.928-3.035.412l-.242-.482-.338-.674-.207-.413s2.298-1.116 3.626.832l.069.106c.044.07.086.143.127.22z" fill="#fff"/>
    <path d="M19.392 8.953a.157.157 0 0 1-.041-.006l-1.68-.462a.15.15 0 0 1-.099-.087.141.141 0 0 1 .012-.13c.008-.012.803-1.295.506-2.59a.144.144 0 0 1 .059-.15.157.157 0 0 1 .166-.008c.062.035 1.521.884 1.229 3.303a.15.15 0 0 1-.151.13zm-1.453-.699 1.32.363c.074-.85-.083-1.6-.456-2.18-.1-.158-.22-.304-.355-.435.092.993-.317 1.891-.51 2.252z" fill="#000072"/>
    <path d="M19.404 7.89a.155.155 0 0 1-.102-.038c-.391-.344-1.168-.215-1.176-.213a.152.152 0 0 1-.177-.118.147.147 0 0 1 .122-.17c.038-.007.933-.158 1.436.285.046.04.061.105.039.16a.152.152 0 0 1-.142.094zM19.18 6.986a.155.155 0 0 1-.104-.04c-.265-.24-.74-.069-.744-.067a.154.154 0 0 1-.194-.085.145.145 0 0 1 .084-.188c.027-.01.657-.24 1.062.127.046.041.06.105.037.16a.152.152 0 0 1-.14.093zM20.813 11.07c-.008 0-.015 0-.023-.002a.151.151 0 0 1-.114-.08l-.787-1.57a.144.144 0 0 1 .068-.194 3.865 3.865 0 0 1 1.497-.334c.768-.01 1.831.253 2.53 1.555a.142.142 0 0 1-.03.172.157.157 0 0 1-.18.023c-.004-.003-.424-.225-.986-.285-.738-.08-1.365.145-1.864.667a.155.155 0 0 1-.111.048zm-.582-1.642.626 1.246c.54-.483 1.219-.693 1.976-.609.22.025.438.072.65.14-.487-.679-1.154-1.022-1.988-1.022h-.026a3.635 3.635 0 0 0-1.238.245z" fill="#000072"/>
    <path d="M21.676 10.487a.154.154 0 0 1-.123-.06.141.141 0 0 1-.02-.132c.245-.71-.31-1.14-.315-1.144a.144.144 0 0 1 .037-.25.157.157 0 0 1 .15.02c.253.19.666.743.415 1.466-.02.06-.078.1-.144.1z" fill="#000072"/>
    <path d="M23.721 10.293c-1.116-.647-2.454-.244-3.15.149l-.338-.674c1.617-.547 2.795-.016 3.419.42l.069.105z" fill="#000072" opacity=".2"/>
    <path d="M22.54 10.34a.153.153 0 0 1-.135-.08.142.142 0 0 1 .012-.152c.184-.246-.015-.684-.107-.832a.143.143 0 0 1 .054-.198.156.156 0 0 1 .207.047c.018.029.432.7.092 1.154a.153.153 0 0 1-.123.061z" fill="#000072"/>
    <path d="M18.703 8.345s-.307.245-.834.422a3.428 3.428 0 0 1-1.602.14c-2.303-.34-2.436-1.485-2.436-1.485l.046-.011c2.793-.65 4.707.905 4.826.934z" fill="#8D8CAA"/>
    <path d="M18.703 8.345s-.067.054-.193.129c-.562-.354-2.274-1.354-4.602-.824-.067-.138-.077-.229-.077-.229l.046-.01c2.793-.65 4.707.905 4.826.934z" fill="#fff" opacity=".6"/>
    <path d="M17.87 8.767a3.428 3.428 0 0 1-1.603.14c-2.303-.34-2.436-1.486-2.436-1.486l.046-.01c.492.35.883.365.883.365a4.395 4.395 0 0 1 1.96.324c.413.17.8.394 1.15.667z" fill="#000072" opacity=".2"/>
    <path d="M16.784 9.092c-.181 0-.362-.014-.54-.04-2.39-.354-2.558-1.564-2.564-1.615a.147.147 0 0 1 .114-.158c1.686-.406 3.324-.113 4.87.87.036.024.077.05.093.058.05.019.087.062.096.113a.144.144 0 0 1-.053.137c-.037.03-.81.635-2.016.635zM14.02 7.528c.041.103.126.259.295.427.278.276.847.64 1.975.807a3.279 3.279 0 0 0 2.137-.412c-1.405-.872-2.886-1.148-4.407-.822z" fill="#000072"/>
    <path d="m14.696 7.702.174-.008.087-.004.087.001c.058.001.117 0 .175.003l.173.011c.231.019.461.051.688.098.227.046.451.103.672.17l.165.053.164.058.163.061c.053.022.106.043.163.069a.144.144 0 0 1 .024.252.157.157 0 0 1-.151.013l-.006-.002-.004-.002a4.778 4.778 0 0 0-.297-.136l-.154-.062-.155-.059a6.753 6.753 0 0 0-.638-.195 5.435 5.435 0 0 0-.655-.125l-.166-.02-.166-.01-.084-.006H14.7a.082.082 0 0 1-.085-.079.081.081 0 0 1 .081-.081z" fill="#000072"/>
    <path d="M20.037 14.618c-2.091 2.143-5.24 1.085-5.24 1.085l-.02-.005c-.588-.128-.658.547-1.014.803-.36.26-1.056.282-1.056.282.36-.433.045-.888-.113-1.385-.157-.498.202-.91.202-.91s-1.011-.952-.922-2.38a1.8 1.8 0 0 1 .277-.875c.21-.328.512-.555.81-.728.352-.203.7-.33.893-.453.395-.254.554-.295 1.283-.837.14-.104.303-.228.493-.375 1.169-.91 3.076-.92 4.317 0 .611.453 1.111 1.225 1.292 2.132.225 1.126-.043 2.459-1.202 3.646z" fill="#fff"/>
    <path d="M21.09 12.933a3.747 3.747 0 0 0 .043-1.662c-.18-.907-.68-1.68-1.292-2.133a3.53 3.53 0 0 0-1.491-.625.1.1 0 0 1 0 .014c0 .132-.226.24-.506.24-.279 0-.505-.108-.505-.24 0-.022.006-.044.018-.063-.674.053-1.324.278-1.833.674-.19.148-.352.271-.493.376-.73.541-.888.582-1.284.836-.191.123-.54.25-.891.454-.3.172-.6.4-.81.727a1.707 1.707 0 0 0-.136.258c.041-.214.123-.419.242-.605.21-.327.511-.554.81-.727.351-.203.7-.33.892-.454.396-.254.554-.295 1.283-.836.141-.105.303-.228.493-.376 1.17-.909 3.077-.92 4.317 0 .612.454 1.112 1.226 1.292 2.133.134.67.082 1.363-.15 2.009z" fill="#fff" opacity=".6"/>
    <path d="M20.037 14.57c-2.091 2.144-5.24 1.085-5.24 1.085l-.02-.005c-.588-.127-.658.547-1.014.804-.36.26-1.056.281-1.056.281.36-.433.045-.887-.113-1.385-.157-.498.202-.909.202-.909s-1.011-.953-.922-2.38c.023-.355.127-.64.277-.876-.07.722-.04 2.754 2.357 3.698 1.531.604 3.233.243 4.544-.625-.113.01-.226.009-.338-.006-1.281-.174-1.91-.996-1.91-1.84 0-.844.483-1.448.111-1.654-.454-.251-1.214.94-2.18.875-.833-.057-1.648-.674-1.774-1.176.352-.203.7-.33.892-.453.396-.254.555-.295 1.284-.837l5.428 3.604c.38-.568.622-1.199.674-1.847.225 1.126-.043 2.46-1.202 3.647z" fill="#000072" opacity=".2"/>
    <path d="M14.776 15.65c-.587-.127-.657.548-1.013.804-.36.26-1.056.282-1.056.282.36-.434.045-.888-.113-1.386-.157-.497.203-.909.203-.909s.726.911 1.98 1.21z" fill="#8D8CAA"/>
    <path d="M12.707 16.881a.153.153 0 0 1-.137-.083.142.142 0 0 1 .018-.154c.22-.265.134-.53-.025-.939a5.107 5.107 0 0 1-.114-.313c-.13-.412.042-.767.152-.938-.254-.278-.956-1.164-.878-2.403.078-1.233 1.09-1.707 1.695-1.99.143-.067.267-.125.351-.179.125-.08.228-.14.327-.198.285-.166.579-.337 1.438-1.006 1.234-.96 3.213-.96 4.506-.002.782.58 1.322 1.599 1.41 2.66.07.84-.098 2.102-1.302 3.335-.885.906-2.1 1.388-3.514 1.392h-.02a6.433 6.433 0 0 1-1.86-.267c-.271-.064-.379.081-.559.365-.095.149-.193.303-.34.41-.394.284-1.113.31-1.143.31h-.005zm5.06-8.633c-.742 0-1.477.219-2.042.658-.875.68-1.178.857-1.471 1.028-.101.06-.197.115-.316.192-.101.065-.234.126-.387.198-.615.288-1.458.681-1.525 1.745-.084 1.341.867 2.258.877 2.267.056.054.06.14.01.2-.003.002-.304.358-.174.771.032.1.07.2.108.296.122.315.248.638.132.96.217-.03.51-.094.693-.226.1-.073.18-.198.264-.33.175-.275.393-.618.9-.493a6.201 6.201 0 0 0 1.779.257h.027c1.344-.007 2.449-.444 3.284-1.3 1.128-1.156 1.287-2.33 1.222-3.112-.082-.981-.578-1.92-1.294-2.451-.593-.44-1.344-.66-2.087-.66z" fill="#000072"/>
    <path d="m13.847 11.904.01.006.006.004.01.007.02.015.034.03a.575.575 0 0 1 .143.21.656.656 0 0 1 .034.376l-.012.067a.316.316 0 0 0-.008.057.275.275 0 0 0 .097.243.34.34 0 0 0 .21.072h.03l.034-.001.067-.004c.046-.003.093-.006.14-.007.095-.003.194-.005.3.015a.518.518 0 0 1 .317.173l.017.018a.149.149 0 0 1-.018.216.163.163 0 0 1-.224-.018.153.153 0 0 1-.034-.062.143.143 0 0 0-.037-.066.295.295 0 0 0-.085-.054.858.858 0 0 0-.24-.054c-.044-.004-.089-.008-.134-.009l-.068-.002-.035-.001-.039-.003a.525.525 0 0 1-.29-.114.45.45 0 0 1-.152-.419l.005-.063a.338.338 0 0 0 0-.059.377.377 0 0 0-.07-.205.306.306 0 0 0-.116-.092.204.204 0 0 0-.021-.007l-.01-.002h-.004l.001.001a.144.144 0 0 1-.078-.192.154.154 0 0 1 .2-.075zM14.511 14.17a.947.947 0 0 0 .426.299.907.907 0 0 0 .517.015l.063-.015c.022-.006.042-.015.063-.022l.062-.021.058-.028c.04-.016.073-.04.108-.061.018-.011.032-.025.048-.037l.023-.018.02-.02a.434.434 0 0 0 .128-.34.202.202 0 0 0-.005-.036l-.001-.006a.146.146 0 0 1 .116-.171c.081-.017.161.031.18.109l.005.028.002.023v.045a.654.654 0 0 1-.05.252.696.696 0 0 1-.2.272l-.033.027-.034.023c-.023.015-.045.032-.069.044-.048.024-.095.05-.145.067l-.074.027-.075.02c-.025.006-.05.014-.075.018l-.077.012a1.063 1.063 0 0 1-.87-.23 1.072 1.072 0 0 1-.197-.224.048.048 0 0 1 .015-.066.052.052 0 0 1 .068.011l.003.003z" fill="#000072"/>
    <path d="M15.732 13.797a.534.534 0 0 1 .53-.097c.05.018.095.044.136.076.04.033.073.072.1.115.049.085.068.178.053.266a.073.073 0 0 1-.053.057.077.077 0 0 1-.076-.02l-.004-.003c-.055-.058-.098-.106-.14-.142a.583.583 0 0 0-.131-.084.815.815 0 0 0-.17-.056c-.065-.015-.139-.027-.22-.044l-.005-.001a.04.04 0 0 1-.03-.028.039.039 0 0 1 .01-.04v.001zM12.707 16.881a.153.153 0 0 1-.137-.083.142.142 0 0 1 .018-.154c.22-.265.134-.53-.025-.939-.04-.1-.08-.205-.114-.313-.18-.567.215-1.026.231-1.045a.152.152 0 0 1 .12-.053c.046.002.09.022.117.058.007.008.712.874 1.896 1.156a.15.15 0 0 1 .11.1.142.142 0 0 1-.035.143.156.156 0 0 1-.145.042c-.264-.057-.37.086-.548.367-.095.15-.193.304-.34.41-.394.285-1.113.31-1.143.311h-.005zm.108-2.196c-.075.143-.154.372-.075.622.031.099.07.199.108.295.122.315.248.639.132.96.216-.03.51-.094.692-.226.101-.072.18-.197.264-.329.082-.128.172-.27.298-.374a4.129 4.129 0 0 1-1.419-.948z" fill="#000072"/>
    <path d="m20.871 12.44-.056 1.98a.2.2 0 0 1-.082.155l-.35.254a.28.28 0 0 1-.264.035.257.257 0 0 1-.075-.444l.16-.13a.199.199 0 0 0 .073-.167l-.053-.78s.48-.434.647-.902z" fill="#99785C"/>
    <path d="m20.871 12.44-.056 1.98a.2.2 0 0 1-.082.155l-.35.254a.28.28 0 0 1-.264.035.257.257 0 0 1-.075-.444l.16-.13a.199.199 0 0 0 .073-.167l-.053-.78s.48-.434.647-.902z" fill="#39005E" opacity=".2"/>
    <path d="M20.871 12.441s-.699 1.567-1.98 1.394c-.876-.119-1.447-.54-1.722-1.064a1.685 1.685 0 0 1-.183-.95c.056-.753.45-1.288.105-1.48-.455-.252-1.214.94-2.181.875a2.384 2.384 0 0 1-1.485-.703 1.421 1.421 0 0 1-.197-.256.9.9 0 0 1-.068-.143.512.512 0 0 1-.027-.305.773.773 0 0 1 .133-.25c.307-.414 1.022-.93 1.31-1.13a.222.222 0 0 1 .248-.003l1.041.692.644.427.186.123.347.23 2.294 1.523.643.428.186.123.347.23.36.24z" fill="#8CD3FF"/>
    <path d="M20.871 12.441c-.037.08-.078.157-.123.232l-.253-.167-.347-.23-.186-.124-.643-.427-2.294-1.523-.348-.23-.186-.124-.643-.427-1.041-.692a.222.222 0 0 0-.248.003c-.288.2-1.003.716-1.31 1.13a.918.918 0 0 0-.11.185.466.466 0 0 1-.005-.238.769.769 0 0 1 .133-.25c.306-.414 1.021-.93 1.31-1.13a.222.222 0 0 1 .247-.002l1.042.691.643.427.186.123.347.231 2.294 1.523.644.427.186.123.346.23.36.24z" fill="#fff" opacity=".6"/>
    <path d="m16.509 9.545-3.35.57a.512.512 0 0 1-.025-.306.773.773 0 0 1 .133-.25l2.598-.44.644.426z" fill="url(#qlpz7stm7a)"/>
    <path d="m17.042 9.9-3.617.614a1.428 1.428 0 0 1-.196-.256l3.466-.589.347.23z" fill="url(#ubux16t6hb)"/>
    <path d="m19.98 11.85-2.963.503a1.661 1.661 0 0 1-.038-.357c0-.06.002-.117.007-.174l2.35-.4.644.428z" fill="url(#oko93tclyc)"/>
    <path d="m20.512 12.203-3.343.568a1.667 1.667 0 0 1-.113-.27l3.11-.528.346.23z" fill="url(#xggdauzgwd)"/>
    <path d="M19.089 13.995c-.074 0-.147-.005-.22-.014-.635-.086-1.163-.333-1.527-.715a1.836 1.836 0 0 1-.515-1.27c0-.378.091-.707.164-.971.097-.35.127-.499.025-.556-.127-.07-.386.114-.66.308-.395.278-.885.624-1.456.586-.75-.05-1.414-.502-1.714-.9-.184-.244-.253-.482-.2-.689.109-.417.853-1.01 1.458-1.433a.455.455 0 0 1 .51-.006l5.833 3.873c.165.11.217.321.12.49-.23.405-.847 1.297-1.818 1.297zm-2.137-3.836c.076 0 .15.02.215.056.315.174.219.52.118.884-.072.261-.154.557-.154.896 0 .671.466 1.517 1.78 1.695.911.123 1.513-.75 1.73-1.132a.082.082 0 0 0-.026-.109L14.78 8.576a.14.14 0 0 0-.158.001c-.763.535-1.277 1.02-1.342 1.268-.03.118.023.276.151.446.269.355.866.737 1.49.78.46.03.881-.268 1.254-.531.284-.2.539-.38.776-.38z" fill="#000072"/>
    <path d="M20.22 15.03a.441.441 0 0 1-.157-.03.401.401 0 0 1-.117-.692l.16-.128a.055.055 0 0 0 .02-.047l-.054-.78a.143.143 0 0 1 .042-.11c.004-.004.387-.392.54-.822a.153.153 0 0 1 .168-.097.148.148 0 0 1 .128.143l.017 1.952v.005a.342.342 0 0 1-.143.269l-.349.254a.433.433 0 0 1-.255.083zm.16-1.633.049.717a.344.344 0 0 1-.128.29l-.16.128a.114.114 0 0 0-.04.108c.007.04.035.073.074.088.039.015.083.01.116-.015l.35-.254a.055.055 0 0 0 .022-.041l-.012-1.359c-.083.118-.173.23-.271.338z" fill="#000072"/>
    <path d="M13.797 9.023c.281.946-.651 1.049-.651 1.049s-.837.183-1.504-.262c.373-.906 1.01-1.358 1.357-1.466a1.21 1.21 0 0 1 1.057.163l.024.017a.81.81 0 0 1 .043.032l.02.015a.855.855 0 0 1 .057.047l.013.012a.138.138 0 0 1 .01.01l.01.008.006.007a.7.7 0 0 1 .01.01l-.452.358z" fill="#646484"/>
    <path d="m14.248 8.665-.121.096a1.206 1.206 0 0 0-1.005-.13c-.323.101-.902.502-1.28 1.293a1.55 1.55 0 0 1-.2-.114c.373-.906 1.01-1.358 1.357-1.466a1.21 1.21 0 0 1 1.057.163l.024.017c.016.01.03.021.043.032l.02.015a.855.855 0 0 1 .057.047l.013.012a.134.134 0 0 1 .01.01l.01.008.006.007.01.01z" fill="#fff" opacity=".6"/>
    <path d="M13.797 9.023c.281.945-.651 1.049-.651 1.049s-.837.183-1.504-.262c1.185.304 1.587-.901 1.587-.901.41-.081.662-.27.802-.418l.025.016.024.017c.016.01.03.021.043.032l.02.015a.859.859 0 0 1 .057.048l.013.011a.132.132 0 0 1 .01.01l.01.009.006.006.01.01-.452.358z" fill="#000072" opacity=".2"/>
    <path d="M12.724 10.257c-.324 0-.77-.06-1.168-.326a.143.143 0 0 1-.055-.174c.408-.995 1.104-1.443 1.451-1.551.827-.258 1.386.337 1.41.363a.143.143 0 0 1-.017.21l-.377.298c.069.295.033.546-.106.746-.22.317-.623.384-.69.393-.04.009-.21.04-.448.04zm-.892-.504c.583.322 1.273.178 1.28.177a.153.153 0 0 1 .017-.003c.002 0 .326-.041.482-.268.1-.146.114-.347.04-.595a.143.143 0 0 1 .05-.153l.315-.25a1.067 1.067 0 0 0-.97-.177c-.264.082-.843.452-1.214 1.27z" fill="#000072"/>
    <path d="m13.69 9.149-.005-.004a.183.183 0 0 0-.024-.016l-.037-.02a.982.982 0 0 0-.435-.112 1.167 1.167 0 0 0-.188.009h-.005a.065.065 0 0 1-.07-.048.062.062 0 0 1 .042-.073 1.308 1.308 0 0 1 .426-.073 1.24 1.24 0 0 1 .334.044c.019.006.037.01.056.017l.028.01.016.007.017.008a.143.143 0 0 1 .053.2.155.155 0 0 1-.208.051z" fill="#000072"/>
    <path d="m12.425 19.853-.163.24-.073.105a1.476 1.476 0 0 1-.007.07c-1.031.08-1.685-.343-1.95-.562l.046-.027s.038-.141.119-.353a5.85 5.85 0 0 1 .102-.25c.13.157.36.322.768.386.606.096.992-.41 1.171-.724l.002-.005c.087-.154.253-.225.425-.282.606-.2 1.31.482 1.314.514a.644.644 0 0 0 .003.02c.102.652-1.757.868-1.757.868zM16.765 21.053c-.926-.011-1.697-.487-1.697-.487-.563.27-.934.097-1.046-.075-.067-.102-.102-.289-.044-.518.13.078.382.11.865-.081 0 0 1.724.703 2.435.212.712-.49.237-2.508.059-3.206.56.88.771 1.657.822 2.597.057 1.027-.63 1.567-1.394 1.558z" fill="#000072" opacity=".2"/>
    <defs>
        <linearGradient id="qlpz7stm7a" x1="17.65" y1="9.434" x2="14.582" y2="11.694" gradientUnits="userSpaceOnUse">
            <stop stop-color="#fff"/>
            <stop offset="1" stop-color="#fff"/>
        </linearGradient>
        <linearGradient id="ubux16t6hb" x1="17.991" y1="9.987" x2="14.983" y2="12.203" gradientUnits="userSpaceOnUse">
            <stop stop-color="#fff"/>
            <stop offset="1" stop-color="#fff"/>
        </linearGradient>
        <linearGradient id="oko93tclyc" x1="19.972" y1="11.777" x2="16.889" y2="14.047" gradientUnits="userSpaceOnUse">
            <stop stop-color="#fff"/>
            <stop offset="1" stop-color="#fff"/>
        </linearGradient>
        <linearGradient id="xggdauzgwd" x1="20.326" y1="12.311" x2="17.311" y2="14.531" gradientUnits="userSpaceOnUse">
            <stop stop-color="#fff"/>
            <stop offset="1" stop-color="#fff"/>
        </linearGradient>
    </defs>
</svg>
