<svg width="20" height="20" viewBox="0 0 20 20" fill="none" xmlns="http://www.w3.org/2000/svg">
<circle cx="10" cy="10" r="10" fill="url(#paint0_linear_13081_132581)"/>
<path fill-rule="evenodd" clip-rule="evenodd" d="M11.6015 5.42957C11.9586 5.48372 12.2108 5.55503 12.3583 5.64349C12.5058 5.73195 12.6625 5.90596 12.8284 6.16551C12.7389 6.23843 12.661 6.28063 12.5947 6.2921C12.5283 6.30357 12.4183 6.29386 12.2645 6.26299L12.0812 6.18137C11.9044 6.10267 11.696 6.17765 11.6131 6.34973C11.5415 6.49849 11.6064 6.67602 11.7582 6.74626C11.7711 6.75223 11.7844 6.7573 11.798 6.76144L12.0426 6.83568C12.1116 6.8892 12.1423 6.96434 12.1344 7.06112C12.1266 7.1579 12.0808 7.25199 11.9971 7.34341L12.1296 7.69971C11.9698 7.73434 11.7778 7.74454 11.5536 7.73032C11.2173 7.70899 11.0529 7.60844 11.0501 7.59328C11.0487 7.58525 10.9394 7.5258 10.7223 7.41496C10.4988 7.35803 10.2643 7.32777 10.0226 7.32777C8.48573 7.32777 7.23988 8.55133 7.23988 10.0607C7.23988 11.57 8.48573 12.7936 10.0226 12.7936C11.0538 12.7936 11.954 12.2426 12.4347 11.4241L11.2808 11.4241C11.0754 11.4241 10.8945 11.2914 10.8365 11.0981L10.5321 10.0829C10.5177 10.0348 10.5457 9.98433 10.5948 9.97019C10.6033 9.96774 10.6121 9.9665 10.6209 9.9665H14.3036C14.4121 9.9665 14.5079 10.036 14.5397 10.1377C14.5903 10.2995 14.6155 10.4738 14.6155 10.6606C14.6155 10.8705 14.5735 11.0804 14.4893 11.2904C13.943 13.2086 12.1501 14.6155 10.0226 14.6155C7.46117 14.6155 5.38477 12.5763 5.38477 10.0607C5.38477 8.01671 6.75561 6.28719 8.6436 5.71055C8.65208 5.70136 8.66107 5.6945 8.67063 5.69006C8.91811 5.57493 9.29303 5.51882 9.67718 5.4582L9.72733 5.45026C9.78587 5.44096 9.84451 5.43149 9.90283 5.42162C10.2083 5.36996 10.7745 5.37261 11.6015 5.42957ZM12.9593 6.32632C13.0886 6.42545 13.172 6.50901 13.2095 6.577C13.2456 6.64273 13.2809 6.75434 13.3153 6.91182L13.3189 6.92827L14.2262 7.73165C14.2562 7.75821 14.2765 7.7936 14.284 7.83237L14.2854 7.84073L14.2999 7.94017C14.3037 7.96599 14.2892 7.99081 14.2651 8.00095L14.2605 8.00267L14.2142 8.0178L14.1869 8.01425C13.289 7.89712 12.7424 7.79742 12.5471 7.71516C12.3616 7.63703 12.3323 7.454 12.4592 7.16607C12.4745 7.13155 12.476 7.09281 12.4637 7.05738L12.4609 7.04985L12.3736 6.83601C12.367 6.81972 12.3575 6.80471 12.3456 6.79164L12.3395 6.78527L12.1545 6.60374C12.0992 6.59275 12.0381 6.60985 11.9827 6.59886C11.97 6.59633 11.94 6.58672 11.8928 6.57003C11.8897 6.56892 11.8866 6.56767 11.8836 6.56627C11.8298 6.54151 11.8068 6.47875 11.832 6.42608C11.8617 6.36409 11.9306 6.32979 11.9992 6.34282C12.0517 6.35278 12.0894 6.3615 12.1123 6.36898C12.1498 6.3812 12.2 6.4071 12.263 6.44667C12.4519 6.48318 12.5906 6.49379 12.679 6.47851C12.7674 6.46323 12.8608 6.4125 12.9593 6.32632Z" fill="white"/>
<defs>
<linearGradient id="paint0_linear_13081_132581" x1="-4.47035e-08" y1="8" x2="20.6008" y2="10.452" gradientUnits="userSpaceOnUse">
<stop stop-color="#5855FF"/>
<stop offset="1" stop-color="#DC1FFF"/>
</linearGradient>
</defs>
</svg>
