<svg width="30" height="30" viewBox="0 0 30 30" fill="none" xmlns="http://www.w3.org/2000/svg">
    <circle cx="15" cy="15" r="15" fill="#1A1C1E"/>
    <path d="M12.944 6.776c-.344-.341-.357-.544-.064-.96.21-.299.323-.316 2.08-.316 1.023 0 1.983.066 2.135.147.18.095.277.297.277.577 0 .372-.555.99-4.162 4.638-2.478 2.506-4.247 4.408-4.372 4.7-.317.746-.177 1.851.315 2.492.403.524 1.331 1.05 1.862 1.054 1.053.009 1.353-.219 4.5-3.409 2.522-2.556 3.14-3.112 3.46-3.111.524.002.93.588.717 1.035-.082.173-1.463 1.654-3.07 3.291-3.233 3.297-3.705 3.635-5.2 3.732-1.612.104-3.029-.653-3.862-2.065-.309-.522-.494-.868-.544-1.809-.1-1.901.158-2.16 4.096-6.11l.043-.042c1.848-1.853 3.36-3.412 3.36-3.465 0-.052-.29-.095-.643-.095-.452 0-.727-.084-.928-.284z" fill="url(#85c2c1tjia)"/>
    <path d="M13.303 13.196c2.979-3.046 3.484-3.47 4.543-3.813 1.234-.4 2.96.049 3.98 1.036.806.78 1.182 1.746 1.174 3.021-.01 1.695-.196 1.963-4.1 5.904L15.48 22.8h.628c.802 0 1.264.31 1.264.85 0 .71-.4.851-2.389.851-1.563 0-1.785-.03-2.04-.283-.156-.156-.285-.416-.285-.577 0-.192 1.422-1.733 4.156-4.502 2.286-2.315 4.259-4.4 4.384-4.634.297-.557.29-1.725-.014-2.297-.594-1.118-2.156-1.641-3.295-1.105-.305.144-1.69 1.45-3.34 3.152-1.55 1.599-2.973 2.965-3.16 3.035a.758.758 0 0 1-1.016-.704c0-.32.547-.953 2.93-3.39z" fill="url(#rf4st34zqb)"/>
    <defs>
        <linearGradient id="85c2c1tjia" x1="15" y1="5.5" x2="15" y2="24.5" gradientUnits="userSpaceOnUse">
            <stop stop-color="#C1E7FE"/>
            <stop offset="1" stop-color="#94C5FD"/>
        </linearGradient>
        <linearGradient id="rf4st34zqb" x1="15" y1="5.5" x2="15" y2="24.5" gradientUnits="userSpaceOnUse">
            <stop stop-color="#C1E7FE"/>
            <stop offset="1" stop-color="#94C5FD"/>
        </linearGradient>
    </defs>
</svg>
