<svg width="30" height="30" viewBox="0 0 30 30" fill="none" xmlns="http://www.w3.org/2000/svg">
    <circle cx="15" cy="15" r="15" fill="url(#yo3wzqmbda)"/>
    <path fill-rule="evenodd" clip-rule="evenodd" d="M11 7h4.1l-3.408 7.066a1 1 0 0 0 .9 1.434h4.072a.2.2 0 0 1 .176.295L15.1 19H9.045c-1.858 0-3.067-1.956-2.236-3.618L11 7zm8 16h-4.5l3.723-7.032a1 1 0 0 0-.884-1.468h-4.02a.2.2 0 0 1-.18-.287L14.7 11h6.255c1.858 0 3.067 1.956 2.236 3.618L19 23z" fill="url(#embazz8okb)"/>
    <defs>
        <linearGradient id="yo3wzqmbda" x1="2.5" y1="19" x2="27" y2="8.5" gradientUnits="userSpaceOnUse">
            <stop stop-color="#223459"/>
            <stop offset="1" stop-color="#080B14"/>
        </linearGradient>
        <linearGradient id="embazz8okb" x1="15" y1="7" x2="15" y2="23" gradientUnits="userSpaceOnUse">
            <stop stop-color="#4B81F4"/>
            <stop offset="1" stop-color="#A9C1FF"/>
        </linearGradient>
    </defs>
</svg>
