<svg width="51" height="56" viewBox="0 0 51 56" fill="none" xmlns="http://www.w3.org/2000/svg">
<path d="M50.5 39.2023V16.7977C50.499 15.8155 50.2418 14.8508 49.7543 14.0004C49.2667 13.15 48.5659 12.4438 47.7222 11.9527L28.2778 0.750411C27.4332 0.258808 26.4752 0 25.5 0C24.5248 0 23.5668 0.258808 22.7222 0.750411L3.27778 11.9527C2.43406 12.4438 1.73328 13.15 1.24573 14.0004C0.758174 14.8508 0.500999 15.8155 0.5 16.7977V39.2023C0.500999 40.1845 0.758174 41.1492 1.24573 41.9996C1.73328 42.85 2.43406 43.5562 3.27778 44.0473L22.7222 55.2496C23.5668 55.7412 24.5248 56 25.5 56C26.4752 56 27.4332 55.7412 28.2778 55.2496L47.7222 44.0473C48.5659 43.5562 49.2667 42.85 49.7543 41.9996C50.2418 41.1492 50.499 40.1845 50.5 39.2023Z" fill="url(#paint0_linear_2361_89721)"/>
<path d="M25.5 20.125V35.875" stroke="white" stroke-width="2.5" stroke-linecap="round" stroke-linejoin="round"/>
<path d="M30.0282 22.155H23.2347C22.3939 22.155 21.5876 22.45 20.993 22.9751C20.3985 23.5002 20.0645 24.2124 20.0645 24.955C20.0645 25.6976 20.3985 26.4098 20.993 26.9349C21.5876 27.46 22.3939 27.755 23.2347 27.755H27.7637C28.6045 27.755 29.4109 28.05 30.0055 28.5751C30.6 29.1002 30.934 29.8124 30.934 30.555C30.934 31.2976 30.6 32.0098 30.0055 32.5349C29.4109 33.06 28.6045 33.355 27.7637 33.355H20.0645" stroke="white" stroke-width="2.5" stroke-linecap="round" stroke-linejoin="round"/>
<defs>
<linearGradient id="paint0_linear_2361_89721" x1="0.5" y1="22.4" x2="52.1484" y2="27.8888" gradientUnits="userSpaceOnUse">
<stop stop-color="#F7931A"/>
<stop offset="1" stop-color="#AC1CC7"/>
</linearGradient>
</defs>
</svg>
