<svg width="26" height="30" viewBox="0 0 26 30" fill="none" xmlns="http://www.w3.org/2000/svg">
<path fill-rule="evenodd" clip-rule="evenodd" d="M13.286 0C9.62928 0 6.6649 2.96437 6.6649 6.62111V8.50958C5.12238 9.02775 3.8901 10.2822 3.4378 11.9156L0.184225 23.6654C-0.697737 26.8505 1.69797 29.9997 5.0029 29.9997H20.9969C24.2303 29.9997 26.6134 26.977 25.8589 23.8329L23.0391 12.0832C22.6406 10.4226 21.4395 9.12373 19.9071 8.55827V6.62111C19.9071 2.96437 16.9428 0 13.286 0ZM17.9071 8.24995V6.62111C17.9071 4.06894 15.8382 2 13.286 2C10.7338 2 8.6649 4.06894 8.6649 6.62111V8.24995H17.9071Z" fill="url(#paint0_linear_14477_96851)"/>
<defs>
<linearGradient id="paint0_linear_14477_96851" x1="15" y1="30" x2="7.42113" y2="4.3909" gradientUnits="userSpaceOnUse">
<stop stop-color="#F7931A"/>
<stop offset="1" stop-color="#AC1CC7"/>
</linearGradient>
</defs>
</svg>
