<svg width="30" height="30" viewBox="0 0 30 30" fill="none" xmlns="http://www.w3.org/2000/svg">
    <circle cx="15" cy="15" r="14.5" fill="#fff" stroke="#B5B5B5"/>
    <path d="m18.948 12.05 1.015 1.221c.116.138.22.25.261.315.304.309.474.727.474 1.162-.029.514-.356.864-.658 1.238l-.71.855-.371.442a.105.105 0 0 0 .024.158c.017.01.037.016.057.015h3.703c.566 0 1.279.487 1.237 1.227a1.28 1.28 0 0 1-.37.896 1.254 1.254 0 0 1-.886.372h-5.8c-.381 0-1.408.043-1.695-.854a1.074 1.074 0 0 1-.024-.58c.084-.284.216-.55.39-.788.292-.443.608-.886.919-1.316.401-.562.814-1.107 1.22-1.68a.107.107 0 0 0 0-.13L16.26 12.83a.103.103 0 0 0-.165 0c-.394.538-2.122 2.92-2.49 3.403-.37.483-1.277.51-1.779 0l-2.304-2.336a.105.105 0 0 0-.18.075v4.493c.005.319-.088.631-.268.894-.179.262-.435.461-.732.57a1.249 1.249 0 0 1-1.144-.165 1.269 1.269 0 0 1-.531-1.036v-8.077c.013-.291.117-.57.296-.799.18-.228.426-.393.703-.472a1.386 1.386 0 0 1 1.356.372l3.543 3.583a.102.102 0 0 0 .158-.014l2.517-3.518a1.259 1.259 0 0 1 .956-.463h6.547a1.248 1.248 0 0 1 .946.435 1.274 1.274 0 0 1 .3 1.005 1.303 1.303 0 0 1-.44.798 1.28 1.28 0 0 1-.852.309h-3.666a.103.103 0 0 0-.1.11.105.105 0 0 0 .017.051z" fill="url(#zpu28e4lia)"/>
    <defs>
        <linearGradient id="zpu28e4lia" x1="15.333" y1="9.334" x2="15.333" y2="20" gradientUnits="userSpaceOnUse">
            <stop stop-color="#950AE9"/>
            <stop offset="1" stop-color="#FB4E9D"/>
        </linearGradient>
    </defs>
</svg>
