<svg width="22" height="22" viewBox="0 0 22 22" fill="none" xmlns="http://www.w3.org/2000/svg">
    <circle cx="11" cy="11" r="10.5" fill="#fff" stroke="#B5B5B5"/>
    <path d="m13.895 8.835.744.897c.086.1.161.183.192.23.222.227.347.533.347.853-.02.376-.26.633-.482.907l-.521.627-.272.325a.076.076 0 0 0-.011.083.076.076 0 0 0 .07.043h2.716c.415 0 .938.358.907.9a.938.938 0 0 1-.27.657.92.92 0 0 1-.651.273H12.41c-.28 0-1.033.031-1.243-.626a.789.789 0 0 1-.018-.426c.061-.208.158-.404.286-.578.214-.325.446-.65.674-.964.294-.413.597-.812.894-1.233a.078.078 0 0 0 0-.096l-1.08-1.299a.076.076 0 0 0-.06-.03.075.075 0 0 0-.061.03c-.29.395-1.557 2.142-1.827 2.496-.27.354-.936.373-1.304 0l-1.69-1.713a.076.076 0 0 0-.119.012.078.078 0 0 0-.013.043v3.295c.004.234-.064.463-.196.655-.131.193-.319.339-.537.418a.917.917 0 0 1-1.125-.452.94.94 0 0 1-.103-.428V7.811c.01-.214.085-.419.217-.586.132-.167.312-.289.516-.346a1.016 1.016 0 0 1 .994.272L9.214 9.78a.075.075 0 0 0 .116-.01l1.846-2.58a.923.923 0 0 1 .7-.34h4.802a.916.916 0 0 1 .694.32.934.934 0 0 1-.103 1.321.938.938 0 0 1-.624.227h-2.689a.075.075 0 0 0-.065.04.078.078 0 0 0 .004.078z" fill="url(#4xhfcl00oa)"/>
    <defs>
        <linearGradient id="4xhfcl00oa" x1="11.244" y1="6.844" x2="11.244" y2="14.666" gradientUnits="userSpaceOnUse">
            <stop stop-color="#950AE9"/>
            <stop offset="1" stop-color="#FB4E9D"/>
        </linearGradient>
    </defs>
</svg>
