<svg width="30" height="30" viewBox="0 0 30 30" fill="none" xmlns="http://www.w3.org/2000/svg">
    <circle cx="15" cy="15" r="15" fill="#000"/>
    <path d="M24.45 20.413c.142.26-.034.587-.315.587h-3.17a.361.361 0 0 1-.316-.193l-6.152-11.22c-.142-.26.033-.587.315-.587H18c.13 0 .25.074.315.193l6.135 11.22zM15.912 17.363a.413.413 0 0 1-.014.422L14.134 20.5a.353.353 0 0 1-.614-.025L7.55 9.587c-.142-.26.034-.587.315-.587h3.19a.36.36 0 0 1 .314.19l4.543 8.173zM10.381 20.305c.145.26-.03.589-.313.589H7.88c-.201 0-.365-.175-.365-.39v-3.94c0-.397.49-.54.68-.2l2.186 3.94z" fill="#fff"/>
</svg>
