<svg width="61" height="69" viewBox="0 0 61 69" fill="none" xmlns="http://www.w3.org/2000/svg">
<path d="M60.5 48.1028V20.8972C60.4988 19.7045 60.1902 18.5331 59.6051 17.5005C59.0201 16.4679 58.1791 15.6104 57.1667 15.014L33.8333 1.41121C32.8199 0.814267 31.6702 0.5 30.5 0.5C29.3298 0.5 28.1801 0.814267 27.1667 1.41121L3.83333 15.014C2.82088 15.6104 1.97993 16.4679 1.39487 17.5005C0.809809 18.5331 0.501199 19.7045 0.5 20.8972V48.1028C0.501199 49.2955 0.809809 50.4669 1.39487 51.4995C1.97993 52.5321 2.82088 53.3896 3.83333 53.986L27.1667 67.5888C28.1801 68.1857 29.3298 68.5 30.5 68.5C31.6702 68.5 32.8199 68.1857 33.8333 67.5888L57.1667 53.986C58.1791 53.3896 59.0201 52.5321 59.6051 51.4995C60.1902 50.4669 60.4988 49.2955 60.5 48.1028Z" fill="#EEEEEE"/>
<path fill-rule="evenodd" clip-rule="evenodd" d="M37.5833 45.125C36.8009 45.125 36.1667 44.4515 36.1667 43.6208V43.4403C36.1667 40.1173 33.6296 37.4234 30.5 37.4234C27.3704 37.4234 24.8333 40.1173 24.8333 43.4403V43.6208C24.8333 44.4515 24.1991 45.125 23.4167 45.125C22.6343 45.125 22 44.4515 22 43.6208V43.4403C22 38.4558 25.8056 34.415 30.5 34.415C35.1944 34.415 39 38.4558 39 43.4403V43.6208C39 44.4515 38.3657 45.125 37.5833 45.125Z" fill="#A934FF"/>
<path fill-rule="evenodd" clip-rule="evenodd" d="M35.0606 22.8125C35.8621 22.8125 36.5118 23.464 36.5118 24.2677V29.3898C36.5118 30.1935 35.8621 30.845 35.0606 30.845C34.2591 30.845 33.6094 30.1935 33.6094 29.3898V24.2677C33.6094 23.464 34.2591 22.8125 35.0606 22.8125Z" fill="#A934FF"/>
<path fill-rule="evenodd" clip-rule="evenodd" d="M26.3536 22.8125C27.155 22.8125 27.8048 23.464 27.8048 24.2677V29.3898C27.8048 30.1935 27.155 30.845 26.3536 30.845C25.5521 30.845 24.9023 30.1935 24.9023 29.3898V24.2677C24.9023 23.464 25.5521 22.8125 26.3536 22.8125Z" fill="#A934FF"/>
</svg>
