<svg width="61" height="67" viewBox="0 0 61 67" fill="none" xmlns="http://www.w3.org/2000/svg">
<path d="M60.5 46.7027V20.2973C60.4988 19.1397 60.1902 18.0027 59.6051 17.0005C59.0201 15.9982 58.1791 15.1659 57.1667 14.5871L33.8333 1.38441C32.8199 0.805024 31.6702 0.5 30.5 0.5C29.3298 0.5 28.1801 0.805024 27.1667 1.38441L3.83333 14.5871C2.82088 15.1659 1.97993 15.9982 1.39487 17.0005C0.809809 18.0027 0.501199 19.1397 0.5 20.2973V46.7027C0.501199 47.8603 0.809809 48.9973 1.39487 49.9995C1.97993 51.0018 2.82088 51.8341 3.83333 52.4129L27.1667 65.6156C28.1801 66.195 29.3298 66.5 30.5 66.5C31.6702 66.5 32.8199 66.195 33.8333 65.6156L57.1667 52.4129C58.1791 51.8341 59.0201 51.0018 59.6051 49.9995C60.1902 48.9973 60.4988 47.8603 60.5 46.7027Z" fill="#3C3C3C"/>
<path fill-rule="evenodd" clip-rule="evenodd" d="M37.5833 43.8125C36.8009 43.8125 36.1667 43.1588 36.1667 42.3525V42.1773C36.1667 38.9521 33.6296 36.3374 30.5 36.3374C27.3704 36.3374 24.8333 38.9521 24.8333 42.1773V42.3525C24.8333 43.1588 24.1991 43.8125 23.4167 43.8125C22.6343 43.8125 22 43.1588 22 42.3525V42.1773C22 37.3394 25.8056 33.4175 30.5 33.4175C35.1944 33.4175 39 37.3394 39 42.1773V42.3525C39 43.1588 38.3657 43.8125 37.5833 43.8125Z" fill="#EEEEEE"/>
<path fill-rule="evenodd" clip-rule="evenodd" d="M35.0606 22.1562C35.8621 22.1562 36.5118 22.7886 36.5118 23.5686V28.5401C36.5118 29.3202 35.8621 29.9525 35.0606 29.9525C34.2591 29.9525 33.6094 29.3202 33.6094 28.5401V23.5686C33.6094 22.7886 34.2591 22.1562 35.0606 22.1562Z" fill="#EEEEEE"/>
<path fill-rule="evenodd" clip-rule="evenodd" d="M26.3536 22.1562C27.155 22.1562 27.8048 22.7886 27.8048 23.5686V28.5401C27.8048 29.3202 27.155 29.9525 26.3536 29.9525C25.5521 29.9525 24.9023 29.3202 24.9023 28.5401V23.5686C24.9023 22.7886 25.5521 22.1562 26.3536 22.1562Z" fill="#EEEEEE"/>
</svg>
