<svg width="30" height="30" viewBox="0 0 30 30" fill="none" xmlns="http://www.w3.org/2000/svg">
    <circle cx="15" cy="15" r="15" fill="#2081E2"/>
    <path d="m7.952 15.994.056-.085 3.376-5.135a.117.117 0 0 1 .203.014c.564 1.23 1.05 2.758.822 3.71-.097.39-.364.92-.664 1.41a2.564 2.564 0 0 1-.126.21.116.116 0 0 1-.096.049H8.05c-.094 0-.148-.099-.099-.173z" fill="#fff"/>
    <path d="M23 16.948v.813c0 .047-.03.088-.072.106-.261.11-1.156.508-1.528 1.011C20.45 20.163 19.725 22 18.104 22H11.34C8.943 22 7 20.105 7 17.766v-.075c0-.062.052-.113.116-.113h3.77c.075 0 .13.068.123.139-.026.239.019.482.135.704a1.33 1.33 0 0 0 1.19.718H14.2v-1.417h-1.845c-.095 0-.151-.106-.096-.181l.066-.096c.175-.241.424-.616.672-1.042.17-.288.334-.595.466-.904.026-.056.048-.113.069-.168.036-.099.073-.191.1-.283.027-.078.048-.16.07-.236.062-.262.089-.54.089-.827 0-.113-.006-.23-.016-.343-.006-.124-.022-.247-.038-.37a3.676 3.676 0 0 0-.052-.33 5.41 5.41 0 0 0-.106-.492l-.015-.062c-.032-.113-.059-.22-.096-.333a12.32 12.32 0 0 0-.355-1.022c-.046-.128-.1-.251-.153-.374-.079-.186-.159-.354-.232-.514a7.085 7.085 0 0 1-.101-.206 7.282 7.282 0 0 0-.111-.225c-.027-.056-.057-.108-.079-.16l-.228-.41c-.032-.055.022-.121.084-.104l1.427.376H13.729l.188.051.207.057.076.021v-.824c0-.398.328-.721.733-.721.203 0 .387.08.519.211s.215.31.215.51v1.223l.152.042c.012.004.024.009.034.017l.159.117c.053.04.11.091.18.143a10.804 10.804 0 0 1 .619.53c.232.21.492.456.74.728.069.076.137.154.206.236.07.083.143.164.207.246.084.109.175.222.253.34.038.055.08.112.116.168.102.15.191.304.276.458.036.071.074.149.106.225.094.206.169.416.217.626a.764.764 0 0 1 .03.14v.01c.017.062.022.128.027.195a2.034 2.034 0 0 1-.116.918c-.032.088-.064.18-.105.267-.08.18-.175.36-.287.529a3.04 3.04 0 0 1-.121.19c-.047.067-.095.129-.137.19-.059.078-.122.16-.186.232a8.501 8.501 0 0 1-.444.513c-.053.061-.11.123-.169.179-.057.062-.116.118-.17.17-.089.087-.163.154-.226.21l-.147.13a.121.121 0 0 1-.078.03h-1.136v1.416h1.429c.32 0 .624-.11.87-.312.083-.072.45-.38.883-.846a.112.112 0 0 1 .055-.032l3.948-1.11a.116.116 0 0 1 .148.11z" fill="#fff"/>
</svg>
