<svg width="390" height="329" viewBox="0 0 390 329" fill="none" xmlns="http://www.w3.org/2000/svg">
<rect width="390" height="329" rx="15" fill="#131313"/>
<path d="M43 93H360" stroke="white" stroke-opacity="0.08" stroke-dasharray="3 3"/>
<path d="M43 138H360" stroke="white" stroke-opacity="0.08" stroke-dasharray="3 3"/>
<path d="M43 183H360" stroke="white" stroke-opacity="0.08" stroke-dasharray="3 3"/>
<path d="M43 228H360" stroke="white" stroke-opacity="0.08" stroke-dasharray="3 3"/>
<path d="M43 273H360" stroke="white" stroke-opacity="0.08" stroke-dasharray="3 3"/>
<path d="M42 159.426C58.3741 140.445 81.5196 118.579 101.074 123.084C128.55 129.414 130.279 183.503 150.091 184.411C170.042 185.326 176.448 130.872 207.91 126.492C228.745 123.592 238.01 145.79 265.729 151.476C285.655 155.565 315.709 151.242 360 114V273H42.4912C42.3274 235.142 42.1638 197.284 42 159.426Z" fill="url(#paint0_linear_13088_151115)"/>
<path d="M42 160.444C58.3728 141.037 81.5196 118.681 101.074 123.288C128.55 129.759 130.28 185.06 150.091 185.988C170.042 186.924 176.448 131.25 207.91 126.772C228.745 123.807 238.01 146.502 265.729 152.316C285.655 156.496 315.709 152.077 360 114" stroke="#B5B5B5" stroke-width="2" stroke-miterlimit="10" stroke-linecap="round"/>
<path d="M190.913 142C194.627 142 197.638 138.866 197.638 135C197.638 131.134 194.627 128 190.913 128C187.198 128 184.188 131.134 184.188 135C184.188 138.866 187.198 142 190.913 142Z" fill="#131313" stroke="#B5B5B5"/>
<path d="M190.913 141C194.096 141 196.677 138.314 196.677 135C196.677 131.686 194.096 129 190.913 129C187.729 129 185.148 131.686 185.148 135C185.148 138.314 187.729 141 190.913 141Z" fill="#131313" stroke="#B5B5B5" stroke-width="2"/>
<path d="M26.876 19.4H21.692V32H24.032V28.364H26.876C30.188 28.364 32.24 26.654 32.24 23.882C32.24 21.092 30.188 19.4 26.876 19.4ZM26.768 26.384H24.032V21.38H26.768C28.82 21.38 29.882 22.298 29.882 23.882C29.882 25.466 28.82 26.384 26.768 26.384ZM36.4149 23.792V22.388H34.2729V32H36.5229V27.338C36.5229 25.376 37.6029 24.368 39.3129 24.368C39.4749 24.368 39.6369 24.386 39.8349 24.422V22.28C38.2329 22.28 37.0629 22.784 36.4149 23.792ZM42.8776 20.804C43.7236 20.804 44.3176 20.192 44.3176 19.4C44.3176 18.662 43.7056 18.104 42.8776 18.104C42.0496 18.104 41.4376 18.698 41.4376 19.454C41.4376 20.21 42.0496 20.804 42.8776 20.804ZM41.7436 32H43.9936V22.388H41.7436V32ZM51.3567 32.126C53.2287 32.126 54.7227 31.316 55.4607 29.876L53.7327 28.868C53.1567 29.786 52.2927 30.2 51.3387 30.2C49.6827 30.2 48.4227 29.066 48.4227 27.194C48.4227 25.34 49.6827 24.188 51.3387 24.188C52.2927 24.188 53.1567 24.602 53.7327 25.52L55.4607 24.512C54.7227 23.054 53.2287 22.28 51.3567 22.28C48.3147 22.28 46.1547 24.314 46.1547 27.194C46.1547 30.074 48.3147 32.126 51.3567 32.126ZM66.3011 27.248C66.3011 24.242 64.2491 22.28 61.4411 22.28C58.5791 22.28 56.4731 24.332 56.4731 27.194C56.4731 30.056 58.5611 32.126 61.7831 32.126C63.4391 32.126 64.7891 31.586 65.6531 30.56L64.4471 29.174C63.7631 29.876 62.9171 30.218 61.8371 30.218C60.1631 30.218 58.9931 29.318 58.7231 27.914H66.2651C66.2831 27.698 66.3011 27.428 66.3011 27.248ZM61.4411 24.08C62.9171 24.08 63.9791 25.034 64.1591 26.42H58.7051C58.9211 25.016 59.9831 24.08 61.4411 24.08ZM82.5089 19.4V24.602H75.9929V19.4H73.6529V32H75.9929V26.6H82.5089V32H84.8489V19.4H82.5089ZM89.1432 20.804C89.9892 20.804 90.5832 20.192 90.5832 19.4C90.5832 18.662 89.9712 18.104 89.1432 18.104C88.3152 18.104 87.7032 18.698 87.7032 19.454C87.7032 20.21 88.3152 20.804 89.1432 20.804ZM88.0092 32H90.2592V22.388H88.0092V32ZM96.1823 32.126C98.8823 32.126 100.538 30.956 100.538 29.156C100.538 25.394 94.5983 27.122 94.5983 25.178C94.5983 24.548 95.2463 24.098 96.6143 24.098C97.5323 24.098 98.4503 24.278 99.3683 24.818L100.232 23.108C99.3683 22.586 97.9103 22.28 96.6323 22.28C94.0403 22.28 92.4023 23.468 92.4023 25.286C92.4023 29.12 98.3423 27.392 98.3423 29.228C98.3423 29.894 97.7483 30.29 96.3263 30.29C95.1203 30.29 93.8243 29.894 92.9783 29.336L92.1143 31.046C92.9783 31.658 94.5803 32.126 96.1823 32.126ZM107.624 29.876C107.282 30.146 106.832 30.272 106.364 30.272C105.5 30.272 105.032 29.768 105.032 28.832V24.26H107.606V22.46H105.032V20.264H102.782V22.46H101.198V24.26H102.782V28.886C102.782 31.01 103.988 32.126 106.094 32.126C106.904 32.126 107.714 31.91 108.254 31.478L107.624 29.876ZM114.109 32.126C117.097 32.126 119.239 30.074 119.239 27.194C119.239 24.314 117.097 22.28 114.109 22.28C111.157 22.28 108.997 24.314 108.997 27.194C108.997 30.074 111.157 32.126 114.109 32.126ZM114.109 30.2C112.489 30.2 111.265 29.03 111.265 27.194C111.265 25.358 112.489 24.188 114.109 24.188C115.747 24.188 116.971 25.358 116.971 27.194C116.971 29.03 115.747 30.2 114.109 30.2ZM123.532 23.792V22.388H121.39V32H123.64V27.338C123.64 25.376 124.72 24.368 126.43 24.368C126.592 24.368 126.754 24.386 126.952 24.422V22.28C125.35 22.28 124.18 22.784 123.532 23.792ZM136.052 22.388L133.01 29.498L129.986 22.388H127.646L131.84 32.036L131.678 32.414C131.246 33.368 130.778 33.746 129.986 33.746C129.374 33.746 128.762 33.494 128.33 33.08L127.43 34.736C128.042 35.294 129.05 35.618 130.004 35.618C131.606 35.618 132.83 34.952 133.712 32.774L138.212 22.388H136.052Z" fill="#EEEEEE"/>
<path d="M20.144 41.4V43.362H22.808V54H25.148V41.4H20.144ZM32.9035 54.18C35.9095 54.18 38.1775 51.84 38.1775 47.7C38.1775 43.56 35.9095 41.22 32.9035 41.22C29.9155 41.22 27.6475 43.56 27.6475 47.7C27.6475 51.84 29.9155 54.18 32.9035 54.18ZM32.9035 52.146C31.1935 52.146 30.0055 50.742 30.0055 47.7C30.0055 44.658 31.1935 43.254 32.9035 43.254C34.6315 43.254 35.8195 44.658 35.8195 47.7C35.8195 50.742 34.6315 52.146 32.9035 52.146ZM44.9314 49.932H49.8814V48.06H44.9314V49.932ZM55.9858 41.4V43.362H58.6498V54H60.9898V41.4H55.9858ZM69.2133 46.224C67.8093 46.224 66.6033 46.656 65.8473 47.538V47.52C65.8473 44.658 67.3413 43.182 69.7173 43.182C70.5993 43.182 71.4273 43.344 72.1113 43.794L72.9753 42.03C72.1293 41.49 70.9233 41.22 69.6633 41.22C66.0093 41.22 63.4893 43.596 63.4893 47.916C63.4893 51.966 65.5053 54.18 68.9433 54.18C71.5173 54.18 73.5513 52.596 73.5513 50.094C73.5513 47.736 71.6973 46.224 69.2133 46.224ZM68.8173 52.344C67.1433 52.344 66.2073 51.408 66.2073 50.22C66.2073 48.978 67.2513 48.06 68.7633 48.06C70.2933 48.06 71.2833 48.888 71.2833 50.202C71.2833 51.516 70.2753 52.344 68.8173 52.344ZM86.535 54.18C90.441 54.18 93.321 51.444 93.321 47.7C93.321 43.956 90.441 41.22 86.535 41.22C82.629 41.22 79.749 43.974 79.749 47.7C79.749 51.426 82.629 54.18 86.535 54.18ZM86.535 52.128C83.997 52.128 82.107 50.274 82.107 47.7C82.107 45.126 83.997 43.272 86.535 43.272C89.073 43.272 90.963 45.126 90.963 47.7C90.963 50.274 89.073 52.128 86.535 52.128ZM99.9954 54.126C101.867 54.126 103.361 53.316 104.099 51.876L102.371 50.868C101.795 51.786 100.931 52.2 99.9774 52.2C98.3214 52.2 97.0614 51.066 97.0614 49.194C97.0614 47.34 98.3214 46.188 99.9774 46.188C100.931 46.188 101.795 46.602 102.371 47.52L104.099 46.512C103.361 45.054 101.867 44.28 99.9954 44.28C96.9534 44.28 94.7934 46.314 94.7934 49.194C94.7934 52.074 96.9534 54.126 99.9954 54.126ZM111.315 51.876C110.973 52.146 110.523 52.272 110.055 52.272C109.191 52.272 108.723 51.768 108.723 50.832V46.26H111.297V44.46H108.723V42.264H106.473V44.46H104.889V46.26H106.473V50.886C106.473 53.01 107.679 54.126 109.785 54.126C110.595 54.126 111.405 53.91 111.945 53.478L111.315 51.876ZM117.8 54.126C120.788 54.126 122.93 52.074 122.93 49.194C122.93 46.314 120.788 44.28 117.8 44.28C114.848 44.28 112.688 46.314 112.688 49.194C112.688 52.074 114.848 54.126 117.8 54.126ZM117.8 52.2C116.18 52.2 114.956 51.03 114.956 49.194C114.956 47.358 116.18 46.188 117.8 46.188C119.438 46.188 120.662 47.358 120.662 49.194C120.662 51.03 119.438 52.2 117.8 52.2ZM130.409 44.28C129.185 44.28 128.105 44.694 127.331 45.558V40.644H125.081V54H127.223V52.758C127.979 53.676 129.095 54.126 130.409 54.126C133.217 54.126 135.287 52.182 135.287 49.194C135.287 46.206 133.217 44.28 130.409 44.28ZM130.157 52.2C128.537 52.2 127.295 51.03 127.295 49.194C127.295 47.358 128.537 46.188 130.157 46.188C131.777 46.188 133.001 47.358 133.001 49.194C133.001 51.03 131.777 52.2 130.157 52.2ZM146.457 49.248C146.457 46.242 144.405 44.28 141.597 44.28C138.735 44.28 136.629 46.332 136.629 49.194C136.629 52.056 138.717 54.126 141.939 54.126C143.595 54.126 144.945 53.586 145.809 52.56L144.603 51.174C143.919 51.876 143.073 52.218 141.993 52.218C140.319 52.218 139.149 51.318 138.879 49.914H146.421C146.439 49.698 146.457 49.428 146.457 49.248ZM141.597 46.08C143.073 46.08 144.135 47.034 144.315 48.42H138.861C139.077 47.016 140.139 46.08 141.597 46.08ZM150.761 45.792V44.388H148.619V54H150.869V49.338C150.869 47.376 151.949 46.368 153.659 46.368C153.821 46.368 153.983 46.386 154.181 46.422V44.28C152.579 44.28 151.409 44.784 150.761 45.792Z" fill="#B5B5B5"/>
<rect x="265" y="18" width="107" height="36" rx="18" fill="#5855FF"/>
<path d="M282.42 30.5V33.935H284.235V32.15H288.36L284.415 41H286.5L290.58 31.805V30.5H282.42ZM302.471 29.87V33.98C301.841 33.245 300.926 32.9 299.891 32.9C297.566 32.9 295.841 34.505 295.841 36.995C295.841 39.485 297.566 41.105 299.891 41.105C300.986 41.105 301.916 40.73 302.546 39.965V41H304.346V29.87H302.471ZM300.116 39.5C298.766 39.5 297.731 38.525 297.731 36.995C297.731 35.465 298.766 34.49 300.116 34.49C301.466 34.49 302.501 35.465 302.501 36.995C302.501 38.525 301.466 39.5 300.116 39.5ZM309.859 32.9C308.569 32.9 307.324 33.23 306.469 33.89L307.204 35.255C307.804 34.76 308.734 34.46 309.634 34.46C310.969 34.46 311.629 35.105 311.629 36.2V36.32H309.559C307.129 36.32 306.229 37.37 306.229 38.705C306.229 40.1 307.384 41.105 309.214 41.105C310.414 41.105 311.284 40.715 311.734 40.025V41H313.504V36.305C313.504 33.995 312.169 32.9 309.859 32.9ZM309.604 39.74C308.644 39.74 308.074 39.305 308.074 38.63C308.074 38.045 308.419 37.565 309.694 37.565H311.629V38.495C311.314 39.32 310.519 39.74 309.604 39.74ZM321.464 32.99L318.929 38.915L316.409 32.99H314.459L317.954 41.03L317.819 41.345C317.459 42.14 317.069 42.455 316.409 42.455C315.899 42.455 315.389 42.245 315.029 41.9L314.279 43.28C314.789 43.745 315.629 44.015 316.424 44.015C317.759 44.015 318.779 43.46 319.514 41.645L323.264 32.99H321.464ZM326.809 41.105C329.059 41.105 330.439 40.13 330.439 38.63C330.439 35.495 325.489 36.935 325.489 35.315C325.489 34.79 326.029 34.415 327.169 34.415C327.934 34.415 328.699 34.565 329.464 35.015L330.184 33.59C329.464 33.155 328.249 32.9 327.184 32.9C325.024 32.9 323.659 33.89 323.659 35.405C323.659 38.6 328.609 37.16 328.609 38.69C328.609 39.245 328.114 39.575 326.929 39.575C325.924 39.575 324.844 39.245 324.139 38.78L323.419 40.205C324.139 40.715 325.474 41.105 326.809 41.105Z" fill="white"/>
<path d="M343 33.5L348.36 37.9665C348.731 38.2756 349.269 38.2756 349.64 37.9665L355 33.5" stroke="white" stroke-width="2.5" stroke-linecap="round"/>
<path d="M379 157.778H369.9V154.034C369.9 153.228 370.03 152.539 370.29 151.967C370.55 151.386 370.923 150.94 371.408 150.628C371.893 150.316 372.47 150.16 373.137 150.16C373.804 150.16 374.381 150.316 374.866 150.628C375.351 150.94 375.724 151.386 375.984 151.967C376.244 152.539 376.374 153.228 376.374 154.034V156.842L375.581 156.088H379V157.778ZM375.763 156.088L374.944 156.842V154.112C374.944 153.367 374.788 152.808 374.476 152.435C374.155 152.054 373.709 151.863 373.137 151.863C372.556 151.863 372.11 152.054 371.798 152.435C371.486 152.808 371.33 153.367 371.33 154.112V156.842L370.498 156.088H375.763ZM379 148.692H372.058V147.145H373.969L373.41 147.327C372.942 147.119 372.587 146.794 372.344 146.352C372.101 145.901 371.98 145.342 371.98 144.675H373.527C373.51 144.744 373.501 144.809 373.501 144.87C373.492 144.93 373.488 144.991 373.488 145.052C373.488 145.667 373.67 146.157 374.034 146.521C374.389 146.885 374.922 147.067 375.633 147.067H379V148.692ZM379 143.296H372.058V141.671H379V143.296ZM370.914 142.477C370.914 142.781 370.819 143.032 370.628 143.231C370.437 143.422 370.208 143.517 369.939 143.517C369.662 143.517 369.432 143.422 369.25 143.231C369.059 143.032 368.964 142.781 368.964 142.477C368.964 142.174 369.055 141.927 369.237 141.736C369.41 141.537 369.631 141.437 369.9 141.437C370.186 141.437 370.429 141.533 370.628 141.723C370.819 141.914 370.914 142.165 370.914 142.477ZM379.091 136.353C379.091 137.081 378.939 137.731 378.636 138.303C378.324 138.867 377.899 139.309 377.362 139.629C376.825 139.95 376.214 140.11 375.529 140.11C374.836 140.11 374.225 139.95 373.696 139.629C373.159 139.309 372.738 138.867 372.435 138.303C372.132 137.731 371.98 137.081 371.98 136.353C371.98 135.677 372.119 135.084 372.396 134.572C372.665 134.052 373.063 133.658 373.592 133.389L374.32 134.637C373.991 134.845 373.748 135.101 373.592 135.404C373.436 135.699 373.358 136.02 373.358 136.366C373.358 136.765 373.445 137.125 373.618 137.445C373.791 137.766 374.043 138.017 374.372 138.199C374.693 138.381 375.078 138.472 375.529 138.472C375.98 138.472 376.37 138.381 376.699 138.199C377.02 138.017 377.267 137.766 377.44 137.445C377.613 137.125 377.7 136.765 377.7 136.366C377.7 136.02 377.622 135.699 377.466 135.404C377.31 135.101 377.067 134.845 376.738 134.637L377.466 133.389C377.986 133.658 378.389 134.052 378.675 134.572C378.952 135.084 379.091 135.677 379.091 136.353ZM379.091 128.823C379.091 129.595 378.939 130.271 378.636 130.851C378.324 131.423 377.899 131.87 377.362 132.19C376.825 132.502 376.214 132.658 375.529 132.658C374.836 132.658 374.225 132.507 373.696 132.203C373.159 131.891 372.738 131.467 372.435 130.929C372.132 130.383 371.98 129.764 371.98 129.07C371.98 128.394 372.127 127.792 372.422 127.263C372.717 126.735 373.133 126.319 373.67 126.015C374.207 125.712 374.84 125.56 375.568 125.56C375.637 125.56 375.715 125.565 375.802 125.573C375.889 125.573 375.971 125.578 376.049 125.586V131.371H374.97V126.444L375.308 127.081C374.909 127.073 374.558 127.155 374.255 127.328C373.952 127.502 373.713 127.74 373.54 128.043C373.367 128.338 373.28 128.68 373.28 129.07C373.28 129.469 373.367 129.82 373.54 130.123C373.713 130.418 373.956 130.652 374.268 130.825C374.571 130.99 374.931 131.072 375.347 131.072H375.607C376.023 131.072 376.391 130.977 376.712 130.786C377.033 130.596 377.28 130.327 377.453 129.98C377.626 129.634 377.713 129.235 377.713 128.784C377.713 128.394 377.652 128.043 377.531 127.731C377.41 127.419 377.219 127.142 376.959 126.899L377.96 126.028C378.324 126.34 378.606 126.735 378.805 127.211C378.996 127.679 379.091 128.217 379.091 128.823ZM381.522 118.795C380.733 119.306 379.823 119.7 378.792 119.978C377.752 120.246 376.634 120.381 375.438 120.381C374.242 120.381 373.124 120.246 372.084 119.978C371.035 119.7 370.125 119.306 369.354 118.795V117.248C370.307 117.776 371.282 118.166 372.279 118.418C373.267 118.66 374.32 118.782 375.438 118.782C376.556 118.782 377.613 118.66 378.61 118.418C379.598 118.166 380.569 117.776 381.522 117.248V118.795ZM379.13 112.923C379.13 113.633 379.03 114.314 378.831 114.964C378.623 115.614 378.359 116.129 378.038 116.511L376.725 115.926C377.011 115.562 377.249 115.111 377.44 114.574C377.631 114.036 377.726 113.486 377.726 112.923C377.726 112.446 377.674 112.06 377.57 111.766C377.466 111.471 377.327 111.254 377.154 111.116C376.972 110.977 376.768 110.908 376.543 110.908C376.266 110.908 376.045 111.007 375.88 111.207C375.707 111.406 375.572 111.666 375.477 111.987C375.373 112.299 375.278 112.65 375.191 113.04C375.104 113.421 375.005 113.807 374.892 114.197C374.771 114.578 374.619 114.929 374.437 115.25C374.246 115.562 373.995 115.817 373.683 116.017C373.371 116.216 372.972 116.316 372.487 116.316C371.993 116.316 371.542 116.186 371.135 115.926C370.719 115.657 370.39 115.254 370.147 114.717C369.896 114.171 369.77 113.482 369.77 112.65C369.77 112.104 369.839 111.562 369.978 111.025C370.117 110.487 370.316 110.019 370.576 109.621L371.889 110.154C371.646 110.561 371.469 110.981 371.356 111.415C371.235 111.848 371.174 112.264 371.174 112.663C371.174 113.131 371.23 113.512 371.343 113.807C371.456 114.093 371.603 114.305 371.785 114.444C371.967 114.574 372.175 114.639 372.409 114.639C372.686 114.639 372.912 114.543 373.085 114.353C373.25 114.153 373.38 113.898 373.475 113.586C373.57 113.265 373.666 112.91 373.761 112.52C373.848 112.13 373.947 111.744 374.06 111.363C374.173 110.973 374.32 110.622 374.502 110.31C374.684 109.989 374.931 109.733 375.243 109.543C375.555 109.343 375.949 109.244 376.426 109.244C376.911 109.244 377.362 109.378 377.778 109.647C378.185 109.907 378.515 110.31 378.766 110.856C379.009 111.402 379.13 112.091 379.13 112.923ZM379.13 103.304C379.13 104.015 379.013 104.669 378.779 105.267C378.545 105.865 378.22 106.385 377.804 106.827C377.379 107.269 376.885 107.611 376.322 107.854C375.75 108.097 375.126 108.218 374.45 108.218C373.774 108.218 373.154 108.097 372.591 107.854C372.019 107.611 371.525 107.269 371.109 106.827C370.684 106.385 370.355 105.865 370.121 105.267C369.887 104.669 369.77 104.019 369.77 103.317C369.77 102.606 369.887 101.956 370.121 101.367C370.355 100.769 370.684 100.249 371.109 99.807C371.525 99.365 372.019 99.0227 372.591 98.78C373.154 98.5374 373.774 98.416 374.45 98.416C375.126 98.416 375.75 98.5374 376.322 98.78C376.894 99.0227 377.388 99.365 377.804 99.807C378.22 100.249 378.545 100.769 378.779 101.367C379.013 101.956 379.13 102.602 379.13 103.304ZM377.648 103.317C377.648 102.858 377.57 102.433 377.414 102.043C377.258 101.653 377.037 101.315 376.751 101.029C376.456 100.743 376.118 100.522 375.737 100.366C375.347 100.201 374.918 100.119 374.45 100.119C373.982 100.119 373.557 100.201 373.176 100.366C372.786 100.522 372.448 100.743 372.162 101.029C371.867 101.315 371.642 101.653 371.486 102.043C371.33 102.433 371.252 102.858 371.252 103.317C371.252 103.776 371.33 104.201 371.486 104.591C371.642 104.972 371.867 105.31 372.162 105.605C372.448 105.891 372.786 106.116 373.176 106.281C373.557 106.437 373.982 106.515 374.45 106.515C374.909 106.515 375.334 106.437 375.724 106.281C376.114 106.116 376.456 105.891 376.751 105.605C377.037 105.319 377.258 104.981 377.414 104.591C377.57 104.201 377.648 103.776 377.648 103.317ZM379 96.6247H369.9V94.9347H377.57V90.1767H379V96.6247ZM381.522 88.2315V89.7785C380.569 89.2411 379.598 88.8511 378.61 88.6085C377.613 88.3571 376.556 88.2315 375.438 88.2315C374.32 88.2315 373.267 88.3571 372.279 88.6085C371.282 88.8511 370.307 89.2411 369.354 89.7785V88.2315C370.125 87.7115 371.035 87.3171 372.084 87.0485C373.124 86.7798 374.242 86.6455 375.438 86.6455C376.634 86.6455 377.752 86.7798 378.792 87.0485C379.823 87.3171 380.733 87.7115 381.522 88.2315Z" fill="#636363"/>
<path d="M174.486 319.13C173.775 319.13 173.121 319.013 172.523 318.779C171.925 318.545 171.405 318.22 170.963 317.804C170.521 317.379 170.179 316.885 169.936 316.322C169.693 315.75 169.572 315.126 169.572 314.45C169.572 313.774 169.693 313.154 169.936 312.591C170.179 312.019 170.521 311.525 170.963 311.109C171.405 310.684 171.925 310.355 172.523 310.121C173.121 309.887 173.771 309.77 174.473 309.77C175.184 309.77 175.834 309.887 176.423 310.121C177.021 310.355 177.541 310.684 177.983 311.109C178.425 311.525 178.767 312.019 179.01 312.591C179.253 313.154 179.374 313.774 179.374 314.45C179.374 315.126 179.253 315.75 179.01 316.322C178.767 316.894 178.425 317.388 177.983 317.804C177.541 318.22 177.021 318.545 176.423 318.779C175.834 319.013 175.188 319.13 174.486 319.13ZM174.473 317.648C174.932 317.648 175.357 317.57 175.747 317.414C176.137 317.258 176.475 317.037 176.761 316.751C177.047 316.456 177.268 316.118 177.424 315.737C177.589 315.347 177.671 314.918 177.671 314.45C177.671 313.982 177.589 313.557 177.424 313.176C177.268 312.786 177.047 312.448 176.761 312.162C176.475 311.867 176.137 311.642 175.747 311.486C175.357 311.33 174.932 311.252 174.473 311.252C174.014 311.252 173.589 311.33 173.199 311.486C172.818 311.642 172.48 311.867 172.185 312.162C171.899 312.448 171.674 312.786 171.509 313.176C171.353 313.557 171.275 313.982 171.275 314.45C171.275 314.909 171.353 315.334 171.509 315.724C171.674 316.114 171.899 316.456 172.185 316.751C172.471 317.037 172.809 317.258 173.199 317.414C173.589 317.57 174.014 317.648 174.473 317.648ZM184.194 319.091C183.466 319.091 182.816 318.939 182.244 318.636C181.681 318.324 181.239 317.899 180.918 317.362C180.598 316.825 180.437 316.214 180.437 315.529C180.437 314.836 180.598 314.225 180.918 313.696C181.239 313.159 181.681 312.738 182.244 312.435C182.816 312.132 183.466 311.98 184.194 311.98C184.87 311.98 185.464 312.119 185.975 312.396C186.495 312.665 186.89 313.063 187.158 313.592L185.91 314.32C185.702 313.991 185.447 313.748 185.143 313.592C184.849 313.436 184.528 313.358 184.181 313.358C183.783 313.358 183.423 313.445 183.102 313.618C182.782 313.791 182.53 314.043 182.348 314.372C182.166 314.693 182.075 315.078 182.075 315.529C182.075 315.98 182.166 316.37 182.348 316.699C182.53 317.02 182.782 317.267 183.102 317.44C183.423 317.613 183.783 317.7 184.181 317.7C184.528 317.7 184.849 317.622 185.143 317.466C185.447 317.31 185.702 317.067 185.91 316.738L187.158 317.466C186.89 317.986 186.495 318.389 185.975 318.675C185.464 318.952 184.87 319.091 184.194 319.091ZM191.265 319.091C190.502 319.091 189.913 318.896 189.497 318.506C189.081 318.107 188.873 317.522 188.873 316.751V310.524H190.498V316.712C190.498 317.041 190.58 317.297 190.745 317.479C190.918 317.661 191.157 317.752 191.46 317.752C191.824 317.752 192.127 317.657 192.37 317.466L192.825 318.623C192.634 318.779 192.4 318.896 192.123 318.974C191.846 319.052 191.56 319.091 191.265 319.091ZM187.729 313.41V312.11H192.357V313.41H187.729ZM197.053 319.091C196.343 319.091 195.71 318.939 195.155 318.636C194.601 318.324 194.163 317.899 193.842 317.362C193.522 316.825 193.361 316.214 193.361 315.529C193.361 314.836 193.522 314.225 193.842 313.696C194.163 313.159 194.601 312.738 195.155 312.435C195.71 312.132 196.343 311.98 197.053 311.98C197.773 311.98 198.41 312.132 198.964 312.435C199.528 312.738 199.965 313.154 200.277 313.683C200.598 314.212 200.758 314.827 200.758 315.529C200.758 316.214 200.598 316.825 200.277 317.362C199.965 317.899 199.528 318.324 198.964 318.636C198.41 318.939 197.773 319.091 197.053 319.091ZM197.053 317.7C197.452 317.7 197.807 317.613 198.119 317.44C198.431 317.267 198.674 317.015 198.847 316.686C199.029 316.357 199.12 315.971 199.12 315.529C199.12 315.078 199.029 314.693 198.847 314.372C198.674 314.043 198.431 313.791 198.119 313.618C197.807 313.445 197.456 313.358 197.066 313.358C196.668 313.358 196.312 313.445 196 313.618C195.697 313.791 195.454 314.043 195.272 314.372C195.09 314.693 194.999 315.078 194.999 315.529C194.999 315.971 195.09 316.357 195.272 316.686C195.454 317.015 195.697 317.267 196 317.44C196.312 317.613 196.663 317.7 197.053 317.7ZM206.16 319.091C205.571 319.091 205.046 318.961 204.587 318.701C204.128 318.441 203.764 318.051 203.495 317.531C203.235 317.002 203.105 316.335 203.105 315.529C203.105 314.714 203.239 314.047 203.508 313.527C203.785 313.007 204.154 312.621 204.613 312.37C205.081 312.11 205.597 311.98 206.16 311.98C206.845 311.98 207.447 312.127 207.967 312.422C208.496 312.717 208.912 313.128 209.215 313.657C209.527 314.186 209.683 314.81 209.683 315.529C209.683 316.248 209.527 316.872 209.215 317.401C208.912 317.93 208.496 318.346 207.967 318.649C207.447 318.944 206.845 319.091 206.16 319.091ZM202.312 319V309.354H203.937V313.67L203.807 315.516L203.859 317.362V319H202.312ZM205.978 317.7C206.368 317.7 206.715 317.613 207.018 317.44C207.33 317.267 207.577 317.015 207.759 316.686C207.941 316.357 208.032 315.971 208.032 315.529C208.032 315.078 207.941 314.693 207.759 314.372C207.577 314.043 207.33 313.791 207.018 313.618C206.715 313.445 206.368 313.358 205.978 313.358C205.588 313.358 205.237 313.445 204.925 313.618C204.613 313.791 204.366 314.043 204.184 314.372C204.002 314.693 203.911 315.078 203.911 315.529C203.911 315.971 204.002 316.357 204.184 316.686C204.366 317.015 204.613 317.267 204.925 317.44C205.237 317.613 205.588 317.7 205.978 317.7ZM214.487 319.091C213.716 319.091 213.04 318.939 212.459 318.636C211.887 318.324 211.441 317.899 211.12 317.362C210.808 316.825 210.652 316.214 210.652 315.529C210.652 314.836 210.804 314.225 211.107 313.696C211.419 313.159 211.844 312.738 212.381 312.435C212.927 312.132 213.547 311.98 214.24 311.98C214.916 311.98 215.519 312.127 216.047 312.422C216.576 312.717 216.992 313.133 217.295 313.67C217.599 314.207 217.75 314.84 217.75 315.568C217.75 315.637 217.746 315.715 217.737 315.802C217.737 315.889 217.733 315.971 217.724 316.049H211.939V314.97H216.866L216.229 315.308C216.238 314.909 216.156 314.558 215.982 314.255C215.809 313.952 215.571 313.713 215.267 313.54C214.973 313.367 214.63 313.28 214.24 313.28C213.842 313.28 213.491 313.367 213.187 313.54C212.893 313.713 212.659 313.956 212.485 314.268C212.321 314.571 212.238 314.931 212.238 315.347V315.607C212.238 316.023 212.334 316.391 212.524 316.712C212.715 317.033 212.984 317.28 213.33 317.453C213.677 317.626 214.076 317.713 214.526 317.713C214.916 317.713 215.267 317.652 215.579 317.531C215.891 317.41 216.169 317.219 216.411 316.959L217.282 317.96C216.97 318.324 216.576 318.606 216.099 318.805C215.631 318.996 215.094 319.091 214.487 319.091ZM219.311 319V312.058H220.858V313.969L220.676 313.41C220.884 312.942 221.209 312.587 221.651 312.344C222.102 312.101 222.661 311.98 223.328 311.98V313.527C223.259 313.51 223.194 313.501 223.133 313.501C223.072 313.492 223.012 313.488 222.951 313.488C222.336 313.488 221.846 313.67 221.482 314.034C221.118 314.389 220.936 314.922 220.936 315.633V319H219.311Z" fill="#636363"/>
<path d="M14.528 98V89.55L15.269 90.317H12.604V88.9H16.218V98H14.528ZM21.8192 98.13C21.0998 98.13 20.4498 97.948 19.8692 97.584C19.2972 97.22 18.8465 96.6913 18.5172 95.998C18.1878 95.296 18.0232 94.4467 18.0232 93.45C18.0232 92.4533 18.1878 91.6083 18.5172 90.915C18.8465 90.213 19.2972 89.68 19.8692 89.316C20.4498 88.952 21.0998 88.77 21.8192 88.77C22.5472 88.77 23.1972 88.952 23.7692 89.316C24.3412 89.68 24.7918 90.213 25.1212 90.915C25.4592 91.6083 25.6282 92.4533 25.6282 93.45C25.6282 94.4467 25.4592 95.296 25.1212 95.998C24.7918 96.6913 24.3412 97.22 23.7692 97.584C23.1972 97.948 22.5472 98.13 21.8192 98.13ZM21.8192 96.661C22.2438 96.661 22.6122 96.5483 22.9242 96.323C23.2362 96.089 23.4788 95.7337 23.6522 95.257C23.8342 94.7803 23.9252 94.178 23.9252 93.45C23.9252 92.7133 23.8342 92.111 23.6522 91.643C23.4788 91.1663 23.2362 90.8153 22.9242 90.59C22.6122 90.356 22.2438 90.239 21.8192 90.239C21.4118 90.239 21.0478 90.356 20.7272 90.59C20.4152 90.8153 20.1682 91.1663 19.9862 91.643C19.8128 92.111 19.7262 92.7133 19.7262 93.45C19.7262 94.178 19.8128 94.7803 19.9862 95.257C20.1682 95.7337 20.4152 96.089 20.7272 96.323C21.0478 96.5483 21.4118 96.661 21.8192 96.661ZM28.9282 95.855L28.8372 93.853L33.6082 88.9H35.5062L31.5412 93.112L30.6052 94.139L28.9282 95.855ZM27.4202 98V88.9H29.1102V98H27.4202ZM33.7642 98L30.2802 93.853L31.3982 92.618L35.7402 98H33.7642Z" fill="#636363"/>
<path d="M14.225 144.13C13.471 144.13 12.8167 144.017 12.262 143.792C11.7073 143.567 11.2783 143.25 10.975 142.843C10.6717 142.427 10.52 141.942 10.52 141.387C10.52 140.832 10.6673 140.364 10.962 139.983C11.2567 139.602 11.6813 139.311 12.236 139.112C12.7907 138.913 13.4537 138.813 14.225 138.813C14.9963 138.813 15.6593 138.913 16.214 139.112C16.7773 139.311 17.2063 139.606 17.501 139.996C17.8043 140.377 17.956 140.841 17.956 141.387C17.956 141.942 17.8 142.427 17.488 142.843C17.1847 143.25 16.7513 143.567 16.188 143.792C15.6333 144.017 14.979 144.13 14.225 144.13ZM14.225 142.804C14.849 142.804 15.343 142.674 15.707 142.414C16.071 142.154 16.253 141.794 16.253 141.335C16.253 140.884 16.071 140.529 15.707 140.269C15.343 140.009 14.849 139.879 14.225 139.879C13.601 139.879 13.1113 140.009 12.756 140.269C12.4007 140.529 12.223 140.884 12.223 141.335C12.223 141.794 12.4007 142.154 12.756 142.414C13.1113 142.674 13.601 142.804 14.225 142.804ZM14.225 139.697C13.523 139.697 12.9207 139.606 12.418 139.424C11.9153 139.233 11.5253 138.96 11.248 138.605C10.9793 138.241 10.845 137.808 10.845 137.305C10.845 136.785 10.9837 136.339 11.261 135.966C11.547 135.585 11.9457 135.29 12.457 135.082C12.9683 134.874 13.5577 134.77 14.225 134.77C14.901 134.77 15.4947 134.874 16.006 135.082C16.5173 135.29 16.916 135.585 17.202 135.966C17.488 136.339 17.631 136.785 17.631 137.305C17.631 137.808 17.4923 138.241 17.215 138.605C16.9463 138.96 16.5563 139.233 16.045 139.424C15.5337 139.606 14.927 139.697 14.225 139.697ZM14.225 138.657C14.7623 138.657 15.187 138.544 15.499 138.319C15.811 138.085 15.967 137.773 15.967 137.383C15.967 136.976 15.8067 136.659 15.486 136.434C15.1653 136.209 14.745 136.096 14.225 136.096C13.705 136.096 13.289 136.209 12.977 136.434C12.665 136.659 12.509 136.976 12.509 137.383C12.509 137.773 12.6607 138.085 12.964 138.319C13.276 138.544 13.6963 138.657 14.225 138.657ZM20.1934 144.091C19.8988 144.091 19.6474 143.991 19.4394 143.792C19.2314 143.584 19.1274 143.324 19.1274 143.012C19.1274 142.683 19.2314 142.423 19.4394 142.232C19.6474 142.033 19.8988 141.933 20.1934 141.933C20.4881 141.933 20.7394 142.033 20.9474 142.232C21.1554 142.423 21.2594 142.683 21.2594 143.012C21.2594 143.324 21.1554 143.584 20.9474 143.792C20.7394 143.991 20.4881 144.091 20.1934 144.091ZM25.3693 144.13C24.7279 144.13 24.0996 144.039 23.4843 143.857C22.8776 143.666 22.3663 143.406 21.9503 143.077L22.6653 141.764C22.9946 142.033 23.3933 142.249 23.8613 142.414C24.3379 142.579 24.8319 142.661 25.3433 142.661C25.9413 142.661 26.4093 142.535 26.7473 142.284C27.0939 142.033 27.2673 141.695 27.2673 141.27C27.2673 140.984 27.1936 140.733 27.0463 140.516C26.9076 140.299 26.6563 140.135 26.2923 140.022C25.9369 139.909 25.4473 139.853 24.8233 139.853H22.6263L23.0943 134.9H28.4373V136.317H23.7183L24.6023 135.511L24.2513 139.216L23.3673 138.423H25.2003C26.1016 138.423 26.8253 138.544 27.3713 138.787C27.9259 139.021 28.3289 139.35 28.5803 139.775C28.8403 140.191 28.9703 140.668 28.9703 141.205C28.9703 141.734 28.8403 142.219 28.5803 142.661C28.3203 143.103 27.9216 143.458 27.3843 143.727C26.8556 143.996 26.1839 144.13 25.3693 144.13ZM32.103 141.855L32.012 139.853L36.783 134.9H38.681L34.716 139.112L33.78 140.139L32.103 141.855ZM30.595 144V134.9H32.285V144H30.595ZM36.939 144L33.455 139.853L34.573 138.618L38.915 144H36.939Z" fill="#636363"/>
<path d="M19.088 190.13C18.4467 190.13 17.8183 190.039 17.203 189.857C16.5963 189.666 16.085 189.406 15.669 189.077L16.384 187.764C16.7133 188.033 17.112 188.249 17.58 188.414C18.0567 188.579 18.5507 188.661 19.062 188.661C19.66 188.661 20.128 188.535 20.466 188.284C20.8127 188.033 20.986 187.695 20.986 187.27C20.986 186.984 20.9123 186.733 20.765 186.516C20.6263 186.299 20.375 186.135 20.011 186.022C19.6557 185.909 19.166 185.853 18.542 185.853H16.345L16.813 180.9H22.156V182.317H17.437L18.321 181.511L17.97 185.216L17.086 184.423H18.919C19.8203 184.423 20.544 184.544 21.09 184.787C21.6447 185.021 22.0477 185.35 22.299 185.775C22.559 186.191 22.689 186.668 22.689 187.205C22.689 187.734 22.559 188.219 22.299 188.661C22.039 189.103 21.6403 189.458 21.103 189.727C20.5743 189.996 19.9027 190.13 19.088 190.13ZM25.8218 187.855L25.7308 185.853L30.5018 180.9H32.3998L28.4348 185.112L27.4988 186.139L25.8218 187.855ZM24.3138 190V180.9H26.0038V190H24.3138ZM30.6578 190L27.1738 185.853L28.2918 184.618L32.6338 190H30.6578Z" fill="#636363"/>
<path d="M15.955 236V234.869L19.569 231.437C19.8723 231.151 20.0977 230.9 20.245 230.683C20.3923 230.466 20.4877 230.267 20.531 230.085C20.583 229.894 20.609 229.717 20.609 229.552C20.609 229.136 20.466 228.815 20.18 228.59C19.894 228.356 19.4737 228.239 18.919 228.239C18.477 228.239 18.074 228.317 17.71 228.473C17.3547 228.629 17.047 228.867 16.787 229.188L15.604 228.278C15.9593 227.801 16.436 227.433 17.034 227.173C17.6407 226.904 18.3167 226.77 19.062 226.77C19.7207 226.77 20.2927 226.878 20.778 227.095C21.272 227.303 21.649 227.602 21.909 227.992C22.1777 228.382 22.312 228.846 22.312 229.383C22.312 229.678 22.273 229.972 22.195 230.267C22.117 230.553 21.9697 230.856 21.753 231.177C21.5363 231.498 21.22 231.857 20.804 232.256L17.697 235.207L17.346 234.57H22.663V236H15.955ZM25.7964 233.855L25.7054 231.853L30.4764 226.9H32.3744L28.4094 231.112L27.4734 232.139L25.7964 233.855ZM24.2884 236V226.9H25.9784V236H24.2884ZM30.6324 236L27.1484 231.853L28.2664 230.618L32.6084 236H30.6324Z" fill="#636363"/>
<path d="M24.368 282.13C23.6487 282.13 22.9987 281.948 22.418 281.584C21.846 281.22 21.3953 280.691 21.066 279.998C20.7367 279.296 20.572 278.447 20.572 277.45C20.572 276.453 20.7367 275.608 21.066 274.915C21.3953 274.213 21.846 273.68 22.418 273.316C22.9987 272.952 23.6487 272.77 24.368 272.77C25.096 272.77 25.746 272.952 26.318 273.316C26.89 273.68 27.3407 274.213 27.67 274.915C28.008 275.608 28.177 276.453 28.177 277.45C28.177 278.447 28.008 279.296 27.67 279.998C27.3407 280.691 26.89 281.22 26.318 281.584C25.746 281.948 25.096 282.13 24.368 282.13ZM24.368 280.661C24.7927 280.661 25.161 280.548 25.473 280.323C25.785 280.089 26.0277 279.734 26.201 279.257C26.383 278.78 26.474 278.178 26.474 277.45C26.474 276.713 26.383 276.111 26.201 275.643C26.0277 275.166 25.785 274.815 25.473 274.59C25.161 274.356 24.7927 274.239 24.368 274.239C23.9607 274.239 23.5967 274.356 23.276 274.59C22.964 274.815 22.717 275.166 22.535 275.643C22.3617 276.111 22.275 276.713 22.275 277.45C22.275 278.178 22.3617 278.78 22.535 279.257C22.717 279.734 22.964 280.089 23.276 280.323C23.5967 280.548 23.9607 280.661 24.368 280.661Z" fill="#636363"/>
<path d="M31.528 296.5V288.05L32.269 288.817H29.604V287.4H33.218V296.5H31.528ZM38.8192 296.63C38.0998 296.63 37.4498 296.448 36.8692 296.084C36.2972 295.72 35.8465 295.191 35.5172 294.498C35.1878 293.796 35.0232 292.947 35.0232 291.95C35.0232 290.953 35.1878 290.108 35.5172 289.415C35.8465 288.713 36.2972 288.18 36.8692 287.816C37.4498 287.452 38.0998 287.27 38.8192 287.27C39.5472 287.27 40.1972 287.452 40.7692 287.816C41.3412 288.18 41.7918 288.713 42.1212 289.415C42.4592 290.108 42.6282 290.953 42.6282 291.95C42.6282 292.947 42.4592 293.796 42.1212 294.498C41.7918 295.191 41.3412 295.72 40.7692 296.084C40.1972 296.448 39.5472 296.63 38.8192 296.63ZM38.8192 295.161C39.2438 295.161 39.6122 295.048 39.9242 294.823C40.2362 294.589 40.4788 294.234 40.6522 293.757C40.8342 293.28 40.9252 292.678 40.9252 291.95C40.9252 291.213 40.8342 290.611 40.6522 290.143C40.4788 289.666 40.2362 289.315 39.9242 289.09C39.6122 288.856 39.2438 288.739 38.8192 288.739C38.4118 288.739 38.0478 288.856 37.7272 289.09C37.4152 289.315 37.1682 289.666 36.9862 290.143C36.8128 290.611 36.7262 291.213 36.7262 291.95C36.7262 292.678 36.8128 293.28 36.9862 293.757C37.1682 294.234 37.4152 294.589 37.7272 294.823C38.0478 295.048 38.4118 295.161 38.8192 295.161Z" fill="#636363"/>
<path d="M86.528 296.5V288.05L87.269 288.817H84.604V287.4H88.218V296.5H86.528ZM91.4792 296.5V288.05L92.2202 288.817H89.5552V287.4H93.1692V296.5H91.4792Z" fill="#636363"/>
<path d="M137.528 296.5V288.05L138.269 288.817H135.604V287.4H139.218V296.5H137.528ZM140.906 296.5V295.369L144.52 291.937C144.824 291.651 145.049 291.4 145.196 291.183C145.344 290.966 145.439 290.767 145.482 290.585C145.534 290.394 145.56 290.217 145.56 290.052C145.56 289.636 145.417 289.315 145.131 289.09C144.845 288.856 144.425 288.739 143.87 288.739C143.428 288.739 143.025 288.817 142.661 288.973C142.306 289.129 141.998 289.367 141.738 289.688L140.555 288.778C140.911 288.301 141.387 287.933 141.985 287.673C142.592 287.404 143.268 287.27 144.013 287.27C144.672 287.27 145.244 287.378 145.729 287.595C146.223 287.803 146.6 288.102 146.86 288.492C147.129 288.882 147.263 289.346 147.263 289.883C147.263 290.178 147.224 290.472 147.146 290.767C147.068 291.053 146.921 291.356 146.704 291.677C146.488 291.998 146.171 292.357 145.755 292.756L142.648 295.707L142.297 295.07H147.614V296.5H140.906Z" fill="#636363"/>
<path d="M191.528 296.5V288.05L192.269 288.817H189.604V287.4H193.218V296.5H191.528ZM197.883 296.63C197.242 296.63 196.614 296.539 195.998 296.357C195.392 296.166 194.88 295.906 194.464 295.577L195.192 294.264C195.522 294.533 195.92 294.749 196.388 294.914C196.856 295.079 197.346 295.161 197.857 295.161C198.464 295.161 198.936 295.04 199.274 294.797C199.612 294.546 199.781 294.208 199.781 293.783C199.781 293.367 199.625 293.038 199.313 292.795C199.001 292.552 198.499 292.431 197.805 292.431H196.973V291.274L199.573 288.18L199.794 288.817H194.906V287.4H201.107V288.531L198.507 291.625L197.623 291.105H198.13C199.248 291.105 200.085 291.356 200.639 291.859C201.203 292.353 201.484 292.99 201.484 293.77C201.484 294.281 201.354 294.754 201.094 295.187C200.834 295.62 200.436 295.971 199.898 296.24C199.37 296.5 198.698 296.63 197.883 296.63Z" fill="#636363"/>
<path d="M245.528 296.5V288.05L246.269 288.817H243.604V287.4H247.218V296.5H245.528ZM248.893 294.433V293.263L253.378 287.4H255.185L250.765 293.263L249.92 293.003H257.135V294.433H248.893ZM253.885 296.5V294.433L253.937 293.003V291.17H255.523V296.5H253.885Z" fill="#636363"/>
<path d="M300.528 296.5V288.05L301.269 288.817H298.604V287.4H302.218V296.5H300.528ZM307.039 296.63C306.398 296.63 305.77 296.539 305.154 296.357C304.548 296.166 304.036 295.906 303.62 295.577L304.335 294.264C304.665 294.533 305.063 294.749 305.531 294.914C306.008 295.079 306.502 295.161 307.013 295.161C307.611 295.161 308.079 295.035 308.417 294.784C308.764 294.533 308.937 294.195 308.937 293.77C308.937 293.484 308.864 293.233 308.716 293.016C308.578 292.799 308.326 292.635 307.962 292.522C307.607 292.409 307.117 292.353 306.493 292.353H304.296L304.764 287.4H310.107V288.817H305.388L306.272 288.011L305.921 291.716L305.037 290.923H306.87C307.772 290.923 308.495 291.044 309.041 291.287C309.596 291.521 309.999 291.85 310.25 292.275C310.51 292.691 310.64 293.168 310.64 293.705C310.64 294.234 310.51 294.719 310.25 295.161C309.99 295.603 309.592 295.958 309.054 296.227C308.526 296.496 307.854 296.63 307.039 296.63Z" fill="#636363"/>
<path d="M354.528 296.5V288.05L355.269 288.817H352.604V287.4H356.218V296.5H354.528ZM361.962 296.63C361.139 296.63 360.433 296.457 359.843 296.11C359.254 295.755 358.803 295.243 358.491 294.576C358.179 293.909 358.023 293.085 358.023 292.106C358.023 291.066 358.21 290.186 358.582 289.467C358.964 288.748 359.488 288.202 360.155 287.829C360.831 287.456 361.607 287.27 362.482 287.27C362.942 287.27 363.379 287.318 363.795 287.413C364.22 287.508 364.58 287.656 364.874 287.855L364.25 289.129C363.999 288.964 363.726 288.852 363.431 288.791C363.145 288.722 362.842 288.687 362.521 288.687C361.663 288.687 360.983 288.951 360.48 289.48C359.978 290.009 359.726 290.789 359.726 291.82C359.726 291.985 359.731 292.18 359.739 292.405C359.748 292.622 359.778 292.843 359.83 293.068L359.31 292.496C359.466 292.141 359.679 291.846 359.947 291.612C360.225 291.369 360.55 291.187 360.922 291.066C361.304 290.945 361.715 290.884 362.157 290.884C362.755 290.884 363.288 291.001 363.756 291.235C364.224 291.46 364.597 291.785 364.874 292.21C365.152 292.626 365.29 293.116 365.29 293.679C365.29 294.277 365.143 294.797 364.848 295.239C364.554 295.681 364.155 296.023 363.652 296.266C363.15 296.509 362.586 296.63 361.962 296.63ZM361.871 295.304C362.218 295.304 362.526 295.243 362.794 295.122C363.063 294.992 363.271 294.81 363.418 294.576C363.574 294.342 363.652 294.069 363.652 293.757C363.652 293.28 363.488 292.903 363.158 292.626C362.829 292.349 362.387 292.21 361.832 292.21C361.468 292.21 361.148 292.279 360.87 292.418C360.602 292.548 360.385 292.73 360.22 292.964C360.064 293.198 359.986 293.467 359.986 293.77C359.986 294.047 360.06 294.303 360.207 294.537C360.355 294.771 360.567 294.957 360.844 295.096C361.13 295.235 361.473 295.304 361.871 295.304Z" fill="#636363"/>
<defs>
<linearGradient id="paint0_linear_13088_151115" x1="207.089" y1="277.805" x2="209.289" y2="121.02" gradientUnits="userSpaceOnUse">
<stop stop-color="#131313" stop-opacity="0.09"/>
<stop offset="0.189407" stop-color="#DC1FFF" stop-opacity="0.15"/>
<stop offset="1" stop-color="#F7931A" stop-opacity="0.4"/>
</linearGradient>
</defs>
</svg>
