<svg width="30" height="30" viewBox="0 0 30 30" fill="none" xmlns="http://www.w3.org/2000/svg">
    <path d="M15 30c8.284 0 15-6.716 15-15 0-8.284-6.716-15-15-15C6.716 0 0 6.716 0 15c0 8.284 6.716 15 15 15z" fill="#CCCDFF"/>
    <mask id="ta1tw8rgoa" style="mask-type:alpha" maskUnits="userSpaceOnUse" x="0" y="0" width="30" height="30">
        <path d="M15 30c8.284 0 15-6.716 15-15 0-8.284-6.716-15-15-15C6.716 0 0 6.716 0 15c0 8.284 6.716 15 15 15z" fill="#CCCDFF"/>
    </mask>
    <g mask="url(#ta1tw8rgoa)">
        <path d="M14.333 13.334h6.334" stroke="#DD6CF5" stroke-width="1.333"/>
        <path d="M14.333 12h6.334" stroke="#AA8CE5" stroke-width="1.333"/>
        <path d="M14.333 10.666h6.334" stroke="#81A7D9" stroke-width="1.333"/>
        <path d="M13.333 9.334h6.112" stroke="#4DC7C8" stroke-width="1.333"/>
        <path d="M12 8h6.333" stroke="#1BE8B7" stroke-width="1.333"/>
        <path d="M6.826 13.334h7.713M6.826 12h7.713" stroke="#fff" stroke-width="1.333"/>
        <path fill="#CCA35C" d="M10.667 17.334h10v6.667h-10zM20.667 17.467h2.667v4h-2.667z"/>
        <path d="M6.826 12H12" stroke="#AA8CE5" stroke-width="1.333"/>
        <path d="M6.667 16h3M8 16.666h3" stroke="#88A1DA" stroke-width="1.333"/>
        <path d="M6.667 18h4" stroke="#50C5C9" stroke-width="1.333"/>
        <path d="M8.333 19.334h2.334" stroke="#34D7C0" stroke-width="1.333"/>
        <path d="M12 25.6h6.667" stroke="#DD6CF5" stroke-width="1.333"/>
        <path d="M12 26.933h6.333" stroke="#A98CE5" stroke-width="1.333"/>
        <path d="M17.333 26.933h2.334" stroke="#81A6D8" stroke-width="1.333"/>
        <path d="M9.333 24.267H16" stroke="#DD6CF5" stroke-width="1.333"/>
        <path d="M8 25.6h3.667" stroke="#A98CE5" stroke-width="1.333"/>
        <path d="M6.667 26.933h5.398" stroke="#81A6D8" stroke-width="1.333"/>
        <path d="M6.667 28.267H22" stroke="#26C4C9" stroke-width="1.333"/>
        <path d="M6.667 29.6H22M9 20.666h2.333" stroke="#0AF2B4" stroke-width="1.333"/>
        <path d="M6.826 10.666h7.713M7.143 9.334h6.19M9.667 8H12" stroke="#fff" stroke-width="1.333"/>
        <path d="M2.333 13.334H7M11.333 17.334v-2" stroke="#DD6CF5" stroke-width="1.333"/>
        <path d="M16.667 17.334v-2" stroke="#0AF2B4" stroke-width="1.333"/>
        <path d="M21.333 17.466v-2.132" stroke="#DD6CF5" stroke-width="1.333"/>
        <path d="M12.667 18.666v-3.333" stroke="#A98CE5" stroke-width="1.333"/>
        <path d="M14 18.666v-3.333" stroke="#6CB3D2" stroke-width="1.333"/>
        <path d="M15.333 18.666v-3.333M17.333 18.666v-3.333" stroke="#34D7C0" stroke-width="1.333"/>
        <path d="M18.667 18.666v-3.333" stroke="#6CB3D2" stroke-width="1.333"/>
        <path d="M20 18.666v-3.333" stroke="#A98CE5" stroke-width="1.333"/>
        <path d="M7.667 18.666V20M9 20v1.333M24 18.782v2.552" stroke="#000" stroke-width="1.333"/>
        <path d="M2.667 12.667v2h18.666V10" stroke="#060817" stroke-width="1.333"/>
        <path d="M18.333 6.667H9.667M6.333 10v2h-3M7.667 8.666V10" stroke="#000" stroke-width="1.333"/>
        <path d="M12.667 10v1.333" stroke="#81A7D9" stroke-width="1.333"/>
        <path d="M11.333 8.666V10" stroke="#4DC7C8" stroke-width="1.333"/>
        <path d="M22.667 17.467V18.8M21.333 22.467V23.8M12.04 23.067h-1.773v-1.813M20.133 8.666V10M9 7.333v1.334M19 7.333v1.334M6.333 14.8V17m0 1.8V17m0 0H9v1.8M12 22h11.333M19.635 26.927H22M13.303 25.6h3.732M10.637 24.267h10.2M11.333 18.767v2.567" stroke="#000" stroke-width="1.333"/>
        <path d="M10.133 14v2.333" stroke="#000"/>
        <path d="M8.933 23.6v1.333M17.667 26.133v1.46M12.667 26.133v1.46M6.333 26.133v1.46M15.133 26.133v1.46M15.133 28.8v1.46M16.467 27.467v1.459M13.8 27.467v1.459" stroke="#000" stroke-width="1.333"/>
        <path d="M15.133 27.467v1.459" stroke="#FBF236" stroke-width="1.333"/>
        <path d="M19 24.733v1.581M11.333 24.666v1.581M7.6 24.933v1.333M22.667 27.467V28.8" stroke="#000" stroke-width="1.333"/>
    </g>
</svg>
