<svg width="30" height="30" viewBox="0 0 30 30" fill="none" xmlns="http://www.w3.org/2000/svg">
    <circle cx="15" cy="15" r="14.5" fill="#fff" stroke="#B5B5B5"/>
    <path d="M23.333 16.157a13.428 13.428 0 0 1-7.662 6.314c-3.4 1.103-5.554.349-8.552-1.055 3.299.297 5.582.27 8.399-1.925a13.391 13.391 0 0 0 3.724-4.511c1.418.174 2.799.572 4.091 1.177z" fill="#D81FFA"/>
    <path d="M19.252 14.98a13.392 13.392 0 0 1-3.727 4.51c-2.816 2.195-5.1 2.22-8.399 1.925 3.202-.847 5.34-1.652 7.231-4.674.334-.532.63-1.086.886-1.659a13.48 13.48 0 0 1 4.009-.103z" fill="#E167FF"/>
    <path d="M19.252 14.98a13.474 13.474 0 0 0-4.007.104c.549-1.223.91-2.522 1.07-3.852a13.533 13.533 0 0 1 4.24-.285 13.387 13.387 0 0 1-1.303 4.033z" fill="#0057FF"/>
    <path d="M15.245 15.084a13.77 13.77 0 0 0-1.826.457c-3.4 1.103-4.697 2.981-6.29 5.875.504-3.267 1.08-5.471 3.896-7.666a13.458 13.458 0 0 1 5.29-2.518 13.318 13.318 0 0 1-1.07 3.852z" fill="#189FFF"/>
    <path d="M16.316 11.232c-1.928.44-3.735 1.3-5.291 2.518-2.816 2.195-3.392 4.4-3.897 7.666-.646-3.242-.86-5.51 1.032-8.533A13.453 13.453 0 0 1 16.153 7c.278 1.393.332 2.822.163 4.232z" fill="#17EF97"/>
</svg>
