<svg width="35" height="35" viewBox="0 0 35 35" fill="none" xmlns="http://www.w3.org/2000/svg">
    <circle cx="17.5" cy="17.5" r="17" fill="#131313" stroke="#fff"/>
    <path d="M17.524 13.81a3.663 3.663 0 0 1 3.648 3.734 3.664 3.664 0 0 1-3.75 3.63 3.664 3.664 0 0 1-3.606-3.69 3.665 3.665 0 0 1 3.708-3.673z" fill="#C74AE3"/>
    <path d="M22.305 25.353c-3.21 2.585-8.945 1.66-11.916-1.819-3.268-3.826-2.887-9.567.862-12.966 3.702-3.358 9.43-3.173 12.922.418 3.39 3.485 3.54 9.268.368 12.531l-2.26-2.367c1.203-1.681 1.576-3.605.857-5.671-1.074-3.084-4.475-4.712-7.576-3.66-3.065 1.038-4.743 4.337-3.786 7.443.968 3.14 4.25 4.924 7.4 3.957.627-.193.975-.08 1.38.386.537.619 1.157 1.164 1.75 1.748z" fill="#38E7BB"/>
</svg>
