<svg width="25" height="27" viewBox="0 0 25 27" fill="none" xmlns="http://www.w3.org/2000/svg">
<path d="M2.47656 6.60767C2.47656 6.60767 3.49473 6.42117 3.93199 5.98391C4.36925 5.54665 4.55574 4.52849 4.55574 4.52849C4.55574 4.52849 4.74224 5.54665 5.1795 5.98391C5.61676 6.42117 6.63492 6.60767 6.63492 6.60767C6.63492 6.60767 5.61676 6.79416 5.1795 7.23142C4.74224 7.66868 4.55574 8.68685 4.55574 8.68685C4.55574 8.68685 4.36925 7.66868 3.93199 7.23142C3.49473 6.79416 2.47656 6.60767 2.47656 6.60767Z" fill="white"/>
<path d="M17.1758 18.1924C17.1758 18.1924 19.0666 17.846 19.8786 17.034C20.6906 16.222 21.037 14.3312 21.037 14.3312C21.037 14.3312 21.3833 16.222 22.1953 17.034C23.0074 17.846 24.8982 18.1924 24.8982 18.1924C24.8982 18.1924 23.0074 18.5387 22.1953 19.3507C21.3833 20.1628 21.037 22.0536 21.037 22.0536C21.037 22.0536 20.6906 20.1628 19.8786 19.3507C19.0666 18.5387 17.1758 18.1924 17.1758 18.1924Z" fill="white"/>
<path d="M13.0526 14.1961L20.0273 5.88394C20.2723 5.59201 20.343 5.19161 20.2127 4.83352C20.0823 4.47542 19.7707 4.21394 19.3954 4.14777C19.0201 4.08159 18.6381 4.22074 18.3931 4.51267L11.4184 12.8249C9.80974 12.1779 8.03363 12.9794 6.77684 14.2616L12.444 19.0167C13.4881 17.5563 13.969 15.668 13.0526 14.1962L13.0526 14.1961Z" fill="white"/>
<path d="M9.73502 25.5747L11.9424 19.988L5.9059 14.9228L0.787397 18.0668C0.641646 18.1569 0.547927 18.3113 0.535363 18.4822C0.5228 18.653 0.593023 18.8196 0.72387 18.9301L6.06848 23.8328C6.25493 24.0038 6.53976 24.0086 6.73187 23.8439L9.20107 21.7275C9.29074 21.6506 9.41617 21.7654 9.34752 21.8615L7.48779 24.4651C7.42509 24.5529 7.44329 24.6746 7.52892 24.7402L8.89564 25.787C9.02718 25.8967 9.20347 25.9369 9.36952 25.8949C9.53557 25.8529 9.67162 25.7339 9.73502 25.5747Z" fill="white"/>
</svg>
