<svg width="34" height="35" viewBox="0 0 34 35" fill="none" xmlns="http://www.w3.org/2000/svg">
<path d="M3.29688 8.14197C3.29688 8.14197 4.68905 7.88879 5.28694 7.29518C5.88482 6.70156 6.13982 5.31933 6.13982 5.31933C6.13982 5.31933 6.39482 6.70156 6.9927 7.29518C7.59059 7.88879 8.98277 8.14197 8.98277 8.14197C8.98277 8.14197 7.59059 8.39515 6.9927 8.98876C6.39482 9.58237 6.13982 10.9646 6.13982 10.9646C6.13982 10.9646 5.88482 9.58237 5.28694 8.98876C4.68905 8.39515 3.29688 8.14197 3.29688 8.14197Z" fill="url(#paint0_linear_2061_178052)"/>
<path d="M23.3984 23.8724C23.3984 23.8724 25.9838 23.4023 27.0941 22.2999C28.2044 21.1975 28.678 18.6306 28.678 18.6306C28.678 18.6306 29.1516 21.1975 30.2619 22.2999C31.3722 23.4023 33.9576 23.8724 33.9576 23.8724C33.9576 23.8724 31.3722 24.3426 30.2619 25.445C29.1516 26.5474 28.678 29.1143 28.678 29.1143C28.678 29.1143 28.2044 26.5474 27.0941 25.445C25.9838 24.3426 23.3984 23.8724 23.3984 23.8724Z" fill="url(#paint1_linear_2061_178052)"/>
<path d="M17.7593 18.4442L27.2961 7.15973C27.6311 6.76341 27.7277 6.21984 27.5495 5.7337C27.3713 5.24756 26.9452 4.89257 26.4321 4.80274C25.9189 4.71291 25.3966 4.90181 25.0616 5.29813L15.5247 16.5826C13.3252 15.7043 10.8967 16.7924 9.1782 18.5331L16.9272 24.9885C18.3548 23.0058 19.0124 20.4423 17.7593 18.4442L17.7593 18.4442Z" fill="url(#paint2_linear_2061_178052)"/>
<path d="M13.219 33.8938L16.2373 26.3094L7.98333 19.433L0.984597 23.7012C0.785306 23.8235 0.657161 24.0332 0.639981 24.2651C0.622804 24.497 0.718821 24.7232 0.897735 24.8732L8.32477 31.6374C8.51174 31.8077 8.79749 31.8123 8.99036 31.6482L12.7166 28.4771C12.8066 28.4005 12.9324 28.5148 12.8634 28.6106L10.1055 32.4442C10.0425 32.5317 10.0607 32.6529 10.1466 32.7182L12.0713 34.182C12.2512 34.3309 12.4922 34.3855 12.7193 34.3284C12.9463 34.2713 13.1323 34.1099 13.219 33.8938Z" fill="url(#paint3_linear_2061_178052)"/>
<defs>
<linearGradient id="paint0_linear_2061_178052" x1="4.43405" y1="9.27102" x2="7.69294" y2="6.68693" gradientUnits="userSpaceOnUse">
<stop stop-color="#F7931A"/>
<stop offset="1" stop-color="#AC1CC7"/>
</linearGradient>
<linearGradient id="paint1_linear_2061_178052" x1="25.5103" y1="25.9692" x2="31.5623" y2="21.1703" gradientUnits="userSpaceOnUse">
<stop stop-color="#F7931A"/>
<stop offset="1" stop-color="#AC1CC7"/>
</linearGradient>
<linearGradient id="paint2_linear_2061_178052" x1="17.6166" y1="8.5484" x2="25.2626" y2="15.7674" gradientUnits="userSpaceOnUse">
<stop stop-color="#F7931A"/>
<stop offset="1" stop-color="#AC1CC7"/>
</linearGradient>
<linearGradient id="paint3_linear_2061_178052" x1="3.59513" y1="20.5553" x2="13.676" y2="33.4146" gradientUnits="userSpaceOnUse">
<stop stop-color="#F7931A"/>
<stop offset="1" stop-color="#AC1CC7"/>
</linearGradient>
</defs>
</svg>
