<svg width="30" height="31" viewBox="0 0 30 31" fill="none" xmlns="http://www.w3.org/2000/svg">
<path d="M5.34876 14.3391L18.4534 8.99635C19.747 8.43981 24.134 6.65891 24.134 6.65891C24.134 6.65891 26.1587 5.87976 25.99 7.77197C25.9338 8.55112 25.4838 11.2781 25.0339 14.2277L23.6278 22.9653C23.6278 22.9653 23.5153 24.2453 22.5592 24.4679C21.603 24.6906 20.0282 23.6888 19.747 23.4662C19.522 23.2992 15.5288 20.7948 14.0665 19.5705C13.6728 19.2365 13.2228 18.5687 14.1227 17.7896C16.1475 15.953 18.5659 13.6712 20.0282 12.2242C20.7032 11.5564 21.3781 9.9981 18.5659 11.8903L10.6356 17.1774C10.6356 17.1774 9.73573 17.7339 8.04844 17.233C6.36114 16.7321 4.39263 16.0643 4.39263 16.0643C4.39263 16.0643 3.04279 15.2295 5.34876 14.3391Z" fill="#EEEEEE"/>
</svg>
