<svg width="30" height="30" viewBox="0 0 30 30" fill="none" xmlns="http://www.w3.org/2000/svg">
    <circle cx="15" cy="15" r="15" fill="#2E3146"/>
    <mask id="c47d2zz48a" style="mask-type:alpha" maskUnits="userSpaceOnUse" x="0" y="0" width="30" height="30">
        <circle cx="15" cy="15" r="15" fill="#6D75A2"/>
    </mask>
    <g mask="url(#c47d2zz48a)" fill="#75FCC6">
        <path fill-rule="evenodd" clip-rule="evenodd" d="M14.583 9.554a.03.03 0 0 0 .025.015c.01 0 .02-.007.026-.015L20.21.544c.007-.008.007-.02.002-.03C20.207.506 20.196.5 20.185.5l-5.551-8-5.603 8c-.011 0-.021.005-.026.015-.007.01-.007.021 0 .03l5.578 9.009zm.051 11.016c-.011-.018-.041-.018-.051 0l-5.578 9.008a.027.027 0 0 0 0 .032c.005.01.015.015.026.015l5.552 3.875 5.602-3.875c.01 0 .022-.006.027-.015a.03.03 0 0 0-.002-.032l-5.576-9.008z"/>
        <path d="m26.775.5-8.887 14.813 8.887 14.813L35 15.313 26.775.5z"/>
    </g>
</svg>
