<svg width="20" height="17" viewBox="0 0 20 17" fill="none" xmlns="http://www.w3.org/2000/svg">
<path d="M20 2.01256C19.2642 2.35423 18.4733 2.58434 17.6433 2.68806C18.4908 2.15725 19.1417 1.31614 19.4475 0.313782C18.655 0.805373 17.7767 1.16274 16.8417 1.35536C16.0942 0.521226 15.0267 0 13.8467 0C11.1975 0 9.25083 2.58521 9.84917 5.26892C6.44 5.09024 3.41667 3.38187 1.3925 0.785326C0.3175 2.71421 0.835 5.23754 2.66167 6.51533C1.99 6.49267 1.35667 6.30004 0.804167 5.97841C0.759167 7.96657 2.12167 9.8266 4.095 10.2406C3.5175 10.4045 2.885 10.4428 2.24167 10.3138C2.76333 12.0187 4.27833 13.259 6.075 13.2939C4.35 14.7085 2.17667 15.3404 0 15.072C1.81583 16.2896 3.97333 17 6.29 17C13.9083 17 18.2125 10.2703 17.9525 4.23431C18.7542 3.62854 19.45 2.87285 20 2.01256Z" fill="#B5B5B5"/>
</svg>
