<svg width="30" height="30" viewBox="0 0 30 30" fill="none" xmlns="http://www.w3.org/2000/svg">
    <circle cx="15" cy="15" r="14.5" fill="#fff" stroke="#B5B5B5"/>
    <path d="M13.63 17.36c0-.493.08-.927.24-1.3a3.82 3.82 0 0 1 .62-1c.253-.293.52-.567.8-.82.293-.253.566-.5.82-.74.253-.24.46-.493.62-.76.16-.267.24-.567.24-.9 0-.56-.227-1.013-.68-1.36-.454-.347-1.06-.52-1.82-.52-.734 0-1.374.133-1.92.4-.534.267-.98.647-1.34 1.14l-1.94-1.26c.56-.76 1.293-1.353 2.2-1.78.906-.44 1.98-.66 3.22-.66.973 0 1.826.147 2.56.44.733.28 1.306.693 1.72 1.24.413.533.62 1.187.62 1.96 0 .533-.087 1-.26 1.4-.16.4-.374.753-.64 1.06a9.754 9.754 0 0 1-.82.84c-.294.253-.574.507-.84.76a3.59 3.59 0 0 0-.62.82c-.16.293-.24.64-.24 1.04h-2.54zm1.28 4.78c-.467 0-.854-.153-1.16-.46a1.535 1.535 0 0 1-.44-1.1c0-.427.146-.787.44-1.08.306-.307.693-.46 1.16-.46.466 0 .846.153 1.14.46.293.293.44.653.44 1.08 0 .427-.147.793-.44 1.1-.294.307-.674.46-1.14.46z" fill="url(#c3zna06kfa)"/>
    <defs>
        <linearGradient id="c3zna06kfa" x1="7" y1="13.4" x2="23.481" y2="15.362" gradientUnits="userSpaceOnUse">
            <stop stop-color="#5855FF"/>
            <stop offset="1" stop-color="#DC1FFF"/>
        </linearGradient>
    </defs>
</svg>
