<svg width="30" height="31" viewBox="0 0 30 31" fill="none" xmlns="http://www.w3.org/2000/svg">
<path fill-rule="evenodd" clip-rule="evenodd" d="M24.0364 19.8557C22.6757 22.762 19.9971 24.9106 16.7878 25.5C16.9429 25.3331 17.0835 25.1516 17.2114 24.9651C17.2863 24.8554 17.3578 24.743 17.4257 24.6289C17.5115 24.4852 17.5914 24.3386 17.6664 24.1892C17.76 24.0055 17.8457 23.819 17.9265 23.6296C18.0371 23.3689 18.1379 23.1046 18.2293 22.8368C18.3393 22.5174 18.4364 22.1945 18.5242 21.8679C18.7028 21.2059 18.8428 20.5336 18.9522 19.8557L24.0364 19.8557ZM5.9636 19.8557H11.0477C11.1571 20.5336 11.2971 21.2058 11.4756 21.8678C11.5635 22.1945 11.6606 22.5174 11.7706 22.8367C11.862 23.1046 11.9627 23.3688 12.0734 23.6295C12.1542 23.8189 12.2398 24.0054 12.3334 24.1891C12.4085 24.3385 12.4884 24.4851 12.5742 24.6289C12.6421 24.7429 12.7135 24.8554 12.7885 24.9651C12.9163 25.1516 13.057 25.333 13.2121 25.4999C10.0027 24.9107 7.32431 22.762 5.96348 19.8556L5.9636 19.8557ZM17.5029 19.8557C17.4415 20.2098 17.3707 20.5627 17.29 20.9125C17.1328 21.5904 16.9378 22.2618 16.6765 22.9064C16.4957 23.3521 16.2837 23.7899 16.0064 24.1818C15.955 24.2551 15.9007 24.3262 15.8436 24.3952C15.8029 24.4446 15.76 24.4924 15.7157 24.5389C15.6857 24.5702 15.655 24.6007 15.6229 24.6303C15.4429 24.7965 15.2122 24.9534 14.9586 24.9352C14.8229 24.925 14.695 24.867 14.5821 24.7922C14.3764 24.6572 14.2065 24.4684 14.0585 24.2717C13.8108 23.9415 13.615 23.5713 13.4458 23.194C13.2128 22.6719 13.0308 22.1275 12.8785 21.5767C12.7221 21.0106 12.5971 20.4357 12.4971 19.8556L17.5029 19.8557ZM24.585 12.597C24.8551 13.5174 25 14.4915 25 15.5005C25 16.5094 24.8551 17.4835 24.585 18.4039H19.1413C19.2577 17.2622 19.3013 16.1124 19.2806 14.9648C19.2671 14.1743 19.2219 13.3838 19.1413 12.597H24.585ZM5.41502 12.597H10.8587C10.7781 13.3838 10.7329 14.1743 10.7194 14.9648C10.6987 16.1124 10.7423 17.2622 10.8587 18.4039H5.41502C5.14493 17.4835 5 16.5094 5 15.5005C5 14.4915 5.14493 13.5174 5.41502 12.597ZM17.7053 12.597C17.791 13.3919 17.8389 14.1918 17.8531 14.9909C17.8724 16.1037 17.8295 17.2179 17.7139 18.3249C17.7111 18.351 17.7082 18.3778 17.7053 18.4039H12.2951C12.2095 17.609 12.1615 16.8091 12.1473 16.01C12.128 14.8972 12.1709 13.783 12.2865 12.676L12.2951 12.597H17.7053ZM16.7874 5.50007C19.9975 6.09018 22.6761 8.23813 24.0369 11.1452H18.952C18.8099 10.2648 18.6184 9.39085 18.3534 8.54088C18.2664 8.26203 18.1713 7.98627 18.0663 7.71405C17.9792 7.48835 17.8842 7.26476 17.7813 7.04555C17.7085 6.89017 17.6313 6.73706 17.5492 6.58684C17.4833 6.46776 17.4148 6.34948 17.3419 6.23396C17.2863 6.14549 17.2278 6.05767 17.1677 5.97196C17.0521 5.80864 16.9256 5.64889 16.7877 5.50015L16.7874 5.50007ZM13.2131 5.50007C13.0752 5.64881 12.9488 5.80857 12.8332 5.97189C12.7731 6.0576 12.7146 6.14542 12.6589 6.23388C12.586 6.34941 12.5175 6.46768 12.4516 6.58677C12.3695 6.73696 12.2924 6.89008 12.2195 7.04548C12.1167 7.2647 12.0216 7.4883 11.9346 7.71398C11.8295 7.98618 11.7345 8.26195 11.6474 8.5408C11.3824 9.39077 11.1909 10.2647 11.0489 11.1452H5.96395C7.32462 8.23814 10.0032 6.09023 13.2134 5.5L13.2131 5.50007ZM17.5034 11.1452C17.4034 10.566 17.2784 9.99033 17.122 9.42424C16.9769 8.89796 16.8041 8.37758 16.5854 7.87739C16.4247 7.50863 16.239 7.14717 16.0068 6.81904C15.8633 6.61586 15.7004 6.42062 15.5033 6.26879C15.379 6.17303 15.239 6.09542 15.0834 6.06998C15.0491 6.06561 15.0148 6.06415 14.9797 6.0648C14.719 6.07873 14.4947 6.24999 14.3161 6.43C14.2833 6.46273 14.2519 6.49611 14.2211 6.53094C14.1761 6.58101 14.1332 6.63318 14.0918 6.68616C14.0462 6.74498 14.0033 6.8046 13.9612 6.86552C13.6854 7.26831 13.4739 7.71549 13.2939 8.16918C13.0604 8.76008 12.8803 9.37188 12.7332 9.99032C12.6426 10.3729 12.5647 10.7583 12.4975 11.1452L17.5034 11.1452Z" fill="#EEEEEE"/>
</svg>
