<svg width="30" height="30" viewBox="0 0 30 30" fill="none" xmlns="http://www.w3.org/2000/svg">
    <circle cx="15" cy="15" r="15" fill="#262642"/>
    <path d="M17.223 8.901s-1.459-1.9-3.89-1.901c-.618 0-1.204.057-1.745.15-2.427.412-4.172 2.618-4.088 5.079v0c.074 2.163 1.432 4.143 3.475 4.858.623.218 1.272.37 1.872.37 2.917 0 4.376-1.901 4.376-1.901" stroke="#14B8A6" stroke-width="1.8" stroke-linecap="round"/>
    <path d="M12.045 20.277s1.283 2.018 3.704 2.226c.616.052 1.204.045 1.751 0 2.456-.204 4.391-2.253 4.527-4.712v0c.12-2.161-1.057-4.25-3.03-5.137-.6-.27-1.233-.477-1.831-.528-2.906-.248-4.528 1.522-4.528 1.522" stroke="#14B8A6" stroke-width="1.8" stroke-linecap="round"/>
</svg>
