<svg width="26" height="30" viewBox="0 0 26 30" fill="none" xmlns="http://www.w3.org/2000/svg">
    <path fill-rule="evenodd" clip-rule="evenodd" d="M13.286 0a6.621 6.621 0 0 0-6.621 6.621V8.51a5 5 0 0 0-3.227 3.406L.184 23.666C-.698 26.85 1.698 30 5.003 30h15.994c3.233 0 5.616-3.023 4.862-6.167l-2.82-11.75a5 5 0 0 0-3.132-3.525V6.621A6.621 6.621 0 0 0 13.286 0zm4.621 8.25V6.621a4.621 4.621 0 1 0-9.242 0V8.25h9.242z" fill="#4E4E4E"/>
    <path d="M13.032 23.12a3.32 3.32 0 0 1-1.8-.504c-.528-.336-.944-.824-1.248-1.464-.304-.648-.456-1.432-.456-2.352 0-.92.152-1.7.456-2.34.304-.648.72-1.14 1.248-1.476a3.32 3.32 0 0 1 1.8-.504 3.28 3.28 0 0 1 1.8.504c.528.336.944.828 1.248 1.476.312.64.468 1.42.468 2.34 0 .92-.156 1.704-.468 2.352-.304.64-.72 1.128-1.248 1.464a3.28 3.28 0 0 1-1.8.504zm0-1.356c.392 0 .732-.104 1.02-.312.288-.216.512-.544.672-.984.168-.44.252-.996.252-1.668 0-.68-.084-1.236-.252-1.668-.16-.44-.384-.764-.672-.972a1.652 1.652 0 0 0-1.02-.324c-.376 0-.712.108-1.008.324-.288.208-.516.532-.684.972-.16.432-.24.988-.24 1.668 0 .672.08 1.228.24 1.668.168.44.396.768.684.984a1.71 1.71 0 0 0 1.008.312z" fill="#B5B5B5"/>
</svg>
