<svg width="114" height="48" viewBox="0 0 114 48" fill="none"
  xmlns="http://www.w3.org/2000/svg">
  <path d="M21.139 18.952v3.621h5.746v1.87h-5.746v4.556h-2.21v-11.9h8.687v1.853h-6.477zM29.383 19.921h2.125v9.078h-2.125v-9.078zm1.07-1.496c-.384 0-.707-.119-.968-.357a1.22 1.22 0 0 1-.391-.918c0-.363.13-.663.39-.901.262-.25.585-.374.97-.374s.708.119.969.357c.26.227.39.516.39.867 0 .374-.13.691-.39.952-.25.25-.572.374-.97.374zM40.077 28.999l-2.329-3.145-2.346 3.145h-2.346l3.536-4.607-3.383-4.471h2.363l2.227 2.975 2.227-2.975h2.295l-3.4 4.437 3.553 4.641h-2.397zM52.277 24.511c0 .147-.011.357-.034.629H45.12c.125.669.448 1.201.97 1.598.532.385 1.19.578 1.971.578.998 0 1.82-.329 2.465-.986l1.14 1.309a3.838 3.838 0 0 1-1.548 1.105c-.623.25-1.326.374-2.108.374-.997 0-1.875-.198-2.635-.595a4.36 4.36 0 0 1-1.768-1.649c-.408-.714-.612-1.519-.612-2.414 0-.884.199-1.677.595-2.38a4.324 4.324 0 0 1 1.683-1.666c.714-.397 1.519-.595 2.414-.595.884 0 1.672.198 2.363.595a4.014 4.014 0 0 1 1.632 1.649c.397.703.595 1.519.595 2.448zm-4.59-2.992c-.68 0-1.258.204-1.734.612-.464.397-.748.93-.85 1.598h5.151c-.09-.657-.368-1.19-.833-1.598-.464-.408-1.042-.612-1.734-.612zM63.21 16.385v12.614h-2.04v-1.173c-.352.43-.788.754-1.31.969a4.33 4.33 0 0 1-1.7.323c-.872 0-1.66-.193-2.362-.578a4.183 4.183 0 0 1-1.633-1.632c-.396-.714-.594-1.53-.594-2.448 0-.918.198-1.728.595-2.431a4.183 4.183 0 0 1 1.632-1.632c.702-.385 1.49-.578 2.362-.578.601 0 1.15.102 1.65.306.498.204.923.51 1.274.918v-4.658h2.125zm-4.794 10.914c.51 0 .969-.113 1.377-.34.407-.238.73-.572.968-1.003.238-.43.357-.93.357-1.496 0-.567-.119-1.065-.357-1.496a2.46 2.46 0 0 0-.969-.986 2.682 2.682 0 0 0-1.377-.357c-.51 0-.968.119-1.377.357a2.46 2.46 0 0 0-.968.986c-.239.43-.358.93-.358 1.496 0 .567.12 1.065.357 1.496.238.43.561.765.97 1.003.407.227.867.34 1.377.34zM75.788 17.099c1.03 0 1.926.17 2.686.51.77.34 1.36.827 1.768 1.462.408.635.612 1.388.612 2.261 0 .861-.204 1.615-.612 2.261-.408.635-.998 1.122-1.768 1.462-.76.34-1.655.51-2.686.51h-2.686v3.434h-2.21v-11.9h4.896zm-.102 6.596c.963 0 1.694-.204 2.193-.612.498-.408.748-.992.748-1.751 0-.76-.25-1.343-.748-1.751-.5-.408-1.23-.612-2.193-.612h-2.584v4.726h2.584zM84.796 21.247c.612-.952 1.69-1.428 3.23-1.428v2.023a2.697 2.697 0 0 0-.492-.051c-.828 0-1.474.244-1.939.731-.464.476-.697 1.167-.697 2.074v4.403h-2.124v-9.078h2.022v1.326zM89.83 19.921h2.124v9.078H89.83v-9.078zm1.07-1.496c-.385 0-.708-.119-.969-.357a1.22 1.22 0 0 1-.39-.918c0-.363.13-.663.39-.901.26-.25.584-.374.97-.374.385 0 .708.119.968.357.26.227.391.516.391.867 0 .374-.13.691-.39.952-.25.25-.573.374-.97.374zM98.908 29.118c-.94 0-1.785-.198-2.533-.595a4.387 4.387 0 0 1-1.75-1.649c-.42-.714-.63-1.519-.63-2.414 0-.895.21-1.694.63-2.397a4.416 4.416 0 0 1 1.733-1.649c.748-.397 1.598-.595 2.55-.595.896 0 1.678.181 2.346.544a3.52 3.52 0 0 1 1.53 1.564l-1.632.952a2.502 2.502 0 0 0-.986-.935 2.568 2.568 0 0 0-1.275-.323c-.793 0-1.45.26-1.972.782-.521.51-.782 1.196-.782 2.057s.255 1.553.765 2.074c.522.51 1.185.765 1.99.765.464 0 .889-.102 1.274-.306.397-.215.726-.533.986-.952l1.632.952a3.715 3.715 0 0 1-1.547 1.581c-.668.363-1.445.544-2.329.544zM113.022 24.511c0 .147-.011.357-.034.629h-7.123c.125.669.448 1.201.969 1.598.533.385 1.19.578 1.972.578.998 0 1.819-.329 2.465-.986l1.139 1.309a3.833 3.833 0 0 1-1.547 1.105c-.623.25-1.326.374-2.108.374-.997 0-1.875-.198-2.635-.595a4.367 4.367 0 0 1-1.768-1.649c-.408-.714-.612-1.519-.612-2.414 0-.884.199-1.677.595-2.38a4.324 4.324 0 0 1 1.683-1.666c.714-.397 1.519-.595 2.414-.595.884 0 1.672.198 2.363.595a4.01 4.01 0 0 1 1.632 1.649c.397.703.595 1.519.595 2.448zm-4.59-2.992c-.68 0-1.258.204-1.734.612-.464.397-.748.93-.85 1.598h5.151c-.09-.657-.368-1.19-.833-1.598-.464-.408-1.042-.612-1.734-.612z" fill="currentColor"/>
  <path d="M41 13.5V12c0-5.523-4.477-10-10-10H12C6.477 2 2 6.477 2 12v24c0 5.523 4.477 10 10 10h19c5.523 0 10-4.477 10-10v-1" stroke="currentColor" stroke-width="3" stroke-linecap="round"/>
</svg>
