<svg width="150" height="167" viewBox="0 0 150 167" fill="none" xmlns="http://www.w3.org/2000/svg">
<path fill-rule="evenodd" clip-rule="evenodd" d="M76.943 166.625C112.335 163.111 139.984 133.049 139.984 96.4839C139.984 57.5567 108.647 26 69.9919 26C31.3364 26 0 57.5567 0 96.4839C0 96.8793 0.00323332 97.274 0.00967478 97.6679L9.68875 101.212C22.5503 105.922 36.4427 107.082 49.907 104.569L60.8158 102.534L60.1858 115.567C59.4687 130.403 63.3411 145.1 71.2758 157.656L76.943 166.625Z" fill="#131313"/>
<mask id="mask0_8942_24450" style="mask-type:alpha" maskUnits="userSpaceOnUse" x="0" y="26" width="140" height="141">
<path fill-rule="evenodd" clip-rule="evenodd" d="M76.943 166.625C112.335 163.111 139.984 133.049 139.984 96.4839C139.984 57.5567 108.647 26 69.9919 26C31.3364 26 0 57.5567 0 96.4839C0 96.8793 0.00323332 97.274 0.00967478 97.6679L9.68875 101.212C22.5503 105.922 36.4427 107.082 49.907 104.569L60.8158 102.534L60.1858 115.567C59.4687 130.403 63.3411 145.1 71.2758 157.656L76.943 166.625Z" fill="#131313"/>
</mask>
<g mask="url(#mask0_8942_24450)">
<path fill-rule="evenodd" clip-rule="evenodd" d="M74.1598 127.127C74.0084 127.205 73.856 127.279 73.7027 127.348C74.9895 128.191 76.0727 129.365 76.8113 130.828C77.608 132.405 77.9003 134.113 77.7487 135.774C79.4052 136.377 80.8934 137.456 81.9927 138.981C85.0088 143.163 83.9559 149.113 79.641 152.271C79.5029 152.372 79.3632 152.469 79.2219 152.562C80.6201 153.194 81.8693 154.182 82.8248 155.507C85.8408 159.689 84.7879 165.639 80.473 168.797C76.1582 171.955 70.2153 171.125 67.1993 166.943C65.9489 165.21 65.3978 163.172 65.4887 161.155C64.012 160.529 62.691 159.511 61.6914 158.125C59.6543 155.3 59.4735 151.669 60.9002 148.636C59.8545 148.02 58.9202 147.186 58.168 146.143C55.6464 142.646 55.969 137.914 58.6642 134.61C58.6965 134.301 58.744 133.994 58.8066 133.69C57.4431 132.84 56.2951 131.626 55.5234 130.098C53.9528 126.989 54.3428 123.373 56.2275 120.601C55.2872 119.827 54.4918 118.854 53.9101 117.703C51.5854 113.101 53.556 107.388 58.3116 104.944C63.0671 102.5 68.8069 104.25 71.1316 108.852C71.2269 109.041 71.315 109.231 71.396 109.423C74.3953 109.777 77.1277 111.53 78.5613 114.369C80.886 118.971 78.9154 124.683 74.1598 127.127Z" fill="url(#paint0_linear_8942_24450)"/>
<path fill-rule="evenodd" clip-rule="evenodd" d="M16.614 91.2335C16.6471 91.4015 16.6758 91.5693 16.7002 91.7366C17.8824 90.7461 19.3294 90.0477 20.9597 89.7646C22.7176 89.4594 24.4605 89.6765 26.0342 90.3063C27.0867 88.8868 28.557 87.7687 30.3525 87.156C35.2682 85.4786 40.7604 88.2248 42.6196 93.2897C42.6792 93.4521 42.7344 93.6149 42.7851 93.778C43.793 92.618 45.1065 91.7054 46.665 91.1736C51.5807 89.4962 57.0728 92.2424 58.9321 97.3073C60.7914 102.372 58.3137 107.838 53.398 109.515C51.36 110.211 49.2229 110.146 47.2866 109.47C46.2619 110.707 44.8996 111.681 43.2692 112.237C39.9483 113.37 36.3644 112.484 33.8151 110.229C32.9217 111.054 31.8471 111.708 30.6207 112.127C26.5165 113.527 22.0104 111.844 19.5524 108.302C19.2564 108.18 18.9666 108.043 18.684 107.892C17.4741 108.953 15.9712 109.702 14.2683 109.998C10.8025 110.599 7.39498 109.171 5.22777 106.553C4.21097 107.231 3.04062 107.711 1.75655 107.934C-3.37365 108.825 -8.37633 105.267 -9.41724 99.9868C-10.4581 94.7068 -7.14312 89.7043 -2.01291 88.8135C-1.80306 88.777 -1.59343 88.748 -1.38427 88.7263C-0.197101 85.9487 2.27637 83.8355 5.44021 83.2861C10.5704 82.3953 15.5731 85.9534 16.614 91.2335Z" fill="url(#paint1_linear_8942_24450)"/>
</g>
<path fill-rule="evenodd" clip-rule="evenodd" d="M80.2712 93.6189L82.2019 95.2504C84.3616 97.0755 87.5797 96.794 89.3898 94.6216L130.079 45.7856C134.179 40.8641 137.792 35.4423 139.335 29.2068C140.845 23.0991 141.562 15.5044 137.413 11.6241C133.391 7.86153 126.423 9.1142 120.533 11.2615C113.329 13.8882 107.605 19.2858 102.682 25.195L63.2454 72.5279C61.4354 74.7003 61.7189 77.941 63.8787 79.7661L66.0292 81.5834L65.84 85.1059C65.8292 85.3077 65.9133 85.503 66.0672 85.633L76.8331 94.7307C77.0182 94.8872 77.2752 94.925 77.4968 94.8284L80.2712 93.6189Z" fill="url(#paint2_linear_8942_24450)"/>
<path d="M116.58 43.1728C116.58 47.3316 113.233 50.7012 109.105 50.7012C104.978 50.7012 101.631 47.3316 101.631 43.1728C101.631 39.0139 104.978 35.6444 109.105 35.6444C113.233 35.6444 116.58 39.0139 116.58 43.1728Z" fill="url(#paint3_linear_8942_24450)" stroke="white" stroke-width="0.319995"/>
<defs>
<linearGradient id="paint0_linear_8942_24450" x1="76.8788" y1="125.896" x2="28.6335" y2="138.433" gradientUnits="userSpaceOnUse">
<stop stop-color="white"/>
<stop offset="1" stop-color="#131313" stop-opacity="0"/>
</linearGradient>
<linearGradient id="paint1_linear_8942_24450" x1="16.1866" y1="88.2548" x2="14.1867" y2="138.236" gradientUnits="userSpaceOnUse">
<stop stop-color="white"/>
<stop offset="1" stop-color="#131313" stop-opacity="0"/>
</linearGradient>
<linearGradient id="paint2_linear_8942_24450" x1="136.746" y1="11.0468" x2="59.3012" y2="103.802" gradientUnits="userSpaceOnUse">
<stop stop-color="#D1D1D1"/>
<stop offset="1" stop-color="#212121"/>
</linearGradient>
<linearGradient id="paint3_linear_8942_24450" x1="109.105" y1="35.4844" x2="109.105" y2="50.8612" gradientUnits="userSpaceOnUse">
<stop stop-color="white"/>
<stop offset="1" stop-color="#64E3FF" stop-opacity="0.15"/>
</linearGradient>
</defs>
</svg>
