<svg width="97" height="48" viewBox="0 0 97 48" fill="none"
  xmlns="http://www.w3.org/2000/svg">
  <path d="M22.46 29.169c-1.213 0-2.307-.26-3.281-.782a5.934 5.934 0 0 1-2.295-2.193c-.556-.94-.833-1.989-.833-3.145s.277-2.199.833-3.128a5.775 5.775 0 0 1 2.295-2.193c.974-.533 2.068-.799 3.28-.799 1.213 0 2.307.266 3.282.799a5.813 5.813 0 0 1 2.295 2.176c.555.93.833 1.978.833 3.145s-.278 2.216-.833 3.145a5.935 5.935 0 0 1-2.295 2.193c-.975.521-2.069.782-3.281.782zm0-1.938c.793 0 1.507-.176 2.142-.527a3.952 3.952 0 0 0 1.496-1.496 4.334 4.334 0 0 0 .544-2.159c0-.793-.182-1.507-.544-2.142a3.799 3.799 0 0 0-1.496-1.496c-.635-.363-1.349-.544-2.142-.544-.794 0-1.508.181-2.142.544a3.798 3.798 0 0 0-1.496 1.496c-.363.635-.544 1.349-.544 2.142 0 .793.181 1.513.544 2.159a3.95 3.95 0 0 0 1.496 1.496c.634.351 1.348.527 2.142.527zM36.04 19.819c.883 0 1.671.193 2.362.578.703.385 1.253.93 1.65 1.632.396.703.594 1.513.594 2.431 0 .918-.198 1.734-.595 2.448a4.152 4.152 0 0 1-1.649 1.632c-.691.385-1.479.578-2.363.578-1.224 0-2.193-.408-2.907-1.224v4.403h-2.125V19.921h2.023v1.19a3.3 3.3 0 0 1 1.292-.969 4.456 4.456 0 0 1 1.717-.323zm-.239 7.48c.782 0 1.423-.26 1.921-.782.51-.521.765-1.207.765-2.057 0-.85-.255-1.536-.765-2.057-.498-.521-1.139-.782-1.92-.782-.51 0-.97.119-1.378.357a2.46 2.46 0 0 0-.969.986c-.238.43-.357.93-.357 1.496 0 .567.12 1.065.357 1.496.238.43.561.765.97 1.003.407.227.866.34 1.376.34zM51.196 24.511c0 .147-.012.357-.034.629h-7.123c.124.669.447 1.201.969 1.598.532.385 1.19.578 1.972.578.997 0 1.819-.329 2.465-.986l1.139 1.309a3.837 3.837 0 0 1-1.547 1.105c-.624.25-1.326.374-2.108.374-.998 0-1.876-.198-2.635-.595a4.361 4.361 0 0 1-1.768-1.649c-.408-.714-.612-1.519-.612-2.414 0-.884.198-1.677.595-2.38a4.324 4.324 0 0 1 1.683-1.666c.714-.397 1.518-.595 2.414-.595.884 0 1.671.198 2.363.595a4.013 4.013 0 0 1 1.632 1.649c.396.703.595 1.519.595 2.448zm-4.59-2.992c-.68 0-1.258.204-1.734.612-.465.397-.748.93-.85 1.598h5.15c-.09-.657-.368-1.19-.832-1.598-.465-.408-1.043-.612-1.734-.612zM58.388 19.819c1.145 0 2.063.334 2.754 1.003.691.669 1.037 1.66 1.037 2.975v5.202h-2.125v-4.93c0-.793-.187-1.388-.561-1.785-.374-.408-.907-.612-1.598-.612-.782 0-1.4.238-1.853.714-.453.465-.68 1.139-.68 2.023v4.59h-2.125v-9.078h2.023v1.173c.351-.42.793-.737 1.326-.952.532-.215 1.133-.323 1.802-.323zM78.209 22.811c.657.215 1.178.578 1.564 1.088.385.499.578 1.122.578 1.87 0 1.031-.397 1.83-1.19 2.397-.794.555-1.95.833-3.468.833h-5.916v-11.9h5.576c1.405 0 2.487.278 3.247.833.76.544 1.139 1.298 1.139 2.261 0 .59-.136 1.11-.408 1.564a2.793 2.793 0 0 1-1.122 1.054zm-6.222-3.978v3.281h3.128c.77 0 1.36-.136 1.768-.408.42-.283.629-.691.629-1.224 0-.544-.21-.952-.63-1.224-.407-.283-.997-.425-1.767-.425h-3.128zm3.57 8.432c1.711 0 2.567-.572 2.567-1.717s-.856-1.717-2.567-1.717h-3.57v3.434h3.57zM82.505 19.921h2.125v9.078h-2.125v-9.078zm1.071-1.496c-.385 0-.708-.119-.969-.357a1.22 1.22 0 0 1-.39-.918c0-.363.13-.663.39-.901.261-.25.584-.374.97-.374.385 0 .708.119.968.357.261.227.391.516.391.867 0 .374-.13.691-.39.952-.25.25-.573.374-.97.374zM96.31 16.385v12.614h-2.04v-1.173c-.35.43-.787.754-1.309.969a4.33 4.33 0 0 1-1.7.323c-.872 0-1.66-.193-2.363-.578a4.184 4.184 0 0 1-1.632-1.632c-.396-.714-.595-1.53-.595-2.448 0-.918.199-1.728.595-2.431a4.184 4.184 0 0 1 1.632-1.632c.703-.385 1.49-.578 2.363-.578.601 0 1.15.102 1.65.306.498.204.923.51 1.274.918v-4.658h2.125zm-4.794 10.914c.51 0 .97-.113 1.377-.34.408-.238.731-.572.97-1.003.237-.43.356-.93.356-1.496 0-.567-.119-1.065-.357-1.496a2.46 2.46 0 0 0-.969-.986 2.682 2.682 0 0 0-1.377-.357c-.51 0-.969.119-1.377.357a2.46 2.46 0 0 0-.969.986c-.238.43-.357.93-.357 1.496 0 .567.12 1.065.357 1.496.238.43.561.765.97 1.003.407.227.866.34 1.376.34z" fill="currentColor"/>
  <path d="M41 13.5V12c0-5.523-4.477-10-10-10H12C6.477 2 2 6.477 2 12v24c0 5.523 4.477 10 10 10h19c5.523 0 10-4.477 10-10v-1" stroke="currentColor" stroke-width="3" stroke-linecap="round"/>
</svg>
