<svg width="45" height="45" fill="none" xmlns="http://www.w3.org/2000/svg">
    <circle cx="22.5" cy="22.5" r="22.5" fill="#000"/>
    <path d="M22 35.996c-.62 0-1.24-.174-1.782-.49l-7.92-4.669a3.69 3.69 0 0 1-1.798-3.18V18.32c0-1.298.682-2.516 1.782-3.165l7.936-4.668a3.536 3.536 0 0 1 3.58 0l7.92 4.668c1.1.649 1.782 1.867 1.782 3.165v9.352c0 1.298-.682 2.516-1.782 3.165l-7.92 4.668a3.615 3.615 0 0 1-1.798.491zm0-24.734c-.403 0-.806.11-1.162.316l-7.936 4.685a2.382 2.382 0 0 0-1.162 2.057v9.352c0 .855.45 1.63 1.162 2.058l7.92 4.684a2.297 2.297 0 0 0 2.34 0l7.92-4.669a2.396 2.396 0 0 0 1.163-2.057V18.32c0-.855-.45-1.646-1.163-2.057l-7.904-4.685A2.35 2.35 0 0 0 22 11.262zm0 20.493c-.341 0-.666-.095-.96-.269l-5.766-3.387a1.982 1.982 0 0 1-.961-1.709v-6.788c0-.697.356-1.346.96-1.71l5.766-3.386a1.898 1.898 0 0 1 1.922 0l5.75 3.387c.589.348.96.997.96 1.709v6.788c0 .697-.371 1.361-.96 1.71l-5.766 3.386a1.78 1.78 0 0 1-.945.269zm0-16.569a.946.946 0 0 0-.496.143l-5.766 3.386c-.31.19-.495.523-.495.887v6.788c0 .364.186.697.495.887l5.766 3.386c.31.19.682.19.992 0l5.75-3.386c.31-.19.496-.523.496-.887v-6.788c0-.364-.186-.697-.496-.887l-5.75-3.386a.871.871 0 0 0-.496-.143zm0 12.265a1.1 1.1 0 0 1-.496-.127l-2.914-1.74a1.008 1.008 0 0 1-.496-.871v-3.45c0-.364.186-.696.496-.87l2.914-1.725c.31-.174.682-.174.992 0l2.914 1.725c.31.174.496.506.496.87v3.45a.989.989 0 0 1-.496.87l-2.914 1.725a.947.947 0 0 1-.496.143zm0-8.277a.405.405 0 0 0-.186.048L18.9 20.947a.381.381 0 0 0-.186.316v3.45c0 .127.078.253.186.332l2.914 1.725a.388.388 0 0 0 .372 0l2.914-1.725a.408.408 0 0 0 .186-.332v-3.45a.381.381 0 0 0-.186-.316l-2.914-1.725a.405.405 0 0 0-.186-.048z" fill="url(#a)"/>
    <defs>
        <linearGradient id="a" x1="10.5" y1="22.993" x2="33.506" y2="22.993" gradientUnits="userSpaceOnUse">
            <stop stop-color="#E168FD"/>
            <stop offset="1" stop-color="#7B00FC"/>
        </linearGradient>
    </defs>
</svg>
