<svg width="45" height="45" fill="none" xmlns="http://www.w3.org/2000/svg">
    <circle cx="22.5" cy="22.5" r="22.5" fill="#415BE0"/>
    <path d="M28.442 28.442a1.869 1.869 0 0 1-2.641-2.641 1.869 1.869 0 0 1 2.641 2.641zm-7.924 3.96 2.641-2.642a.927.927 0 0 1 1.319 0 .928.928 0 0 1 0 1.319l-2.642 2.641a.928.928 0 0 1-1.318 0 .936.936 0 0 1 0-1.318zm10.566-2.637 2.64 2.642a.927.927 0 0 1 0 1.318.927.927 0 0 1-1.317 0l-2.642-2.642a.928.928 0 0 1 0-1.318.928.928 0 0 1 1.319 0zM19.199 19.2a1.869 1.869 0 0 1-2.641-2.641 1.869 1.869 0 0 1 2.641 2.641zm1.319-5.283 2.641-2.64a.927.927 0 0 1 1.319 0 .928.928 0 0 1 0 1.318l-2.642 2.64a.928.928 0 0 1-1.318 0 .936.936 0 0 1 0-1.318zm1.323 6.602 2.641 2.641a.927.927 0 0 1 0 1.319.932.932 0 0 1-1.318 0l-2.642-2.642a.928.928 0 0 1 0-1.318.936.936 0 0 1 1.319 0zm-9.243-9.243 2.641 2.641a.927.927 0 0 1 0 1.319.928.928 0 0 1-1.318 0l-2.646-2.637a.927.927 0 0 1 0-1.318.929.929 0 0 1 1.323-.005z" fill="#fff"/>
</svg>
