<svg width="45" height="45" fill="none" xmlns="http://www.w3.org/2000/svg">
    <circle cx="22.5" cy="22.5" r="22.5" fill="#204FF9"/>
    <path d="M17.923 12a.77.77 0 0 0 0 1.54V12zm1.595.77h.77V12h-.77v.77zm0 5.662.69.34.08-.16v-.18h-.77zm5.607 0h-.77v.18l.08.16.69-.34zm0-5.662V12h-.77v.77h.77zm1.54.77a.77.77 0 0 0 0-1.54v1.54zm4.023 16.152.69-.34-.69.34zM17.923 13.539h1.595V12h-1.595v1.54zm.825-.77v5.663h1.54V12.77h-1.54zm.08 5.322-5.563 11.26 1.38.682 5.563-11.26-1.38-.682zM15.532 33H29.11v-1.54H15.532V33zm15.846-3.649-5.563-11.26-1.38.682 5.563 11.26 1.38-.682zm-5.483-10.92V12.77h-1.54v5.662h1.54zm-.77-4.892h1.54V12h-1.54v1.54zM29.11 33c1.875 0 3.098-1.968 2.268-3.649l-1.38.682a.99.99 0 0 1-.888 1.428V33zm-15.845-3.649c-.83 1.68.392 3.649 2.267 3.649v-1.54a.99.99 0 0 1-.887-1.427l-1.38-.682z" fill="#fff"/>
    <path d="M20.012 14.529h2.254M20.012 16.288h2.254" stroke="#fff" stroke-width=".7"/>
    <path d="M22.431 26.953a.99.99 0 1 0 0-1.98.99.99 0 0 0 0 1.98zM24.52 24.534a.55.55 0 1 0 0-1.1.55.55 0 0 0 0 1.1zM22.431 23.654a.55.55 0 1 0 0-1.1.55.55 0 0 0 0 1.1zM20.342 24.534a.55.55 0 1 0 0-1.1.55.55 0 0 0 0 1.1zM19.463 26.513a.55.55 0 1 0 0-1.1.55.55 0 0 0 0 1.1zM25.4 26.513a.55.55 0 1 0 0-1.1.55.55 0 0 0 0 1.1zM22.431 29.592a.55.55 0 1 0 0-1.1.55.55 0 0 0 0 1.1zM20.342 28.712a.55.55 0 1 0 0-1.1.55.55 0 0 0 0 1.1zM21.442 28.932a.22.22 0 1 0 0-.44.22.22 0 0 0 0 .44zM19.902 27.393a.22.22 0 1 0 0-.44.22.22 0 0 0 0 .44zM19.683 25.194a.22.22 0 1 0 0-.44.22.22 0 0 0 0 .44zM21.332 23.544a.22.22 0 1 0 0-.44.22.22 0 0 0 0 .44zM23.64 23.544a.22.22 0 1 0 0-.44.22.22 0 0 0 0 .44zM25.18 25.084a.22.22 0 1 0 0-.44.22.22 0 0 0 0 .44zM25.07 27.283a.22.22 0 1 0 0-.44.22.22 0 0 0 0 .44zM23.53 28.932a.22.22 0 1 0 0-.44.22.22 0 0 0 0 .44zM22.431 28.382a.22.22 0 1 0 0-.44.22.22 0 0 0 0 .44zM22.431 27.942a.22.22 0 1 0 0-.44.22.22 0 0 0 0 .44z" fill="#fff"/>
    <path d="M22.431 27.503a.22.22 0 1 0 0-.44.22.22 0 0 0 0 .44zM22.431 24.974a.22.22 0 1 0 0-.44.22.22 0 0 0 0 .44zM22.431 24.534a.22.22 0 1 0 0-.44.22.22 0 0 0 0 .44z" fill="#fff"/>
    <path d="M22.431 24.094a.22.22 0 1 0 0-.44.22.22 0 0 0 0 .44zM23.476 26.018a.22.22 0 1 0 .44 0 .22.22 0 0 0-.44 0z" fill="#fff"/>
    <path d="M23.915 26.018a.22.22 0 1 0 .44 0 .22.22 0 0 0-.44 0zM24.355 26.018a.22.22 0 1 0 .44 0 .22.22 0 0 0-.44 0zM20.067 26.018a.22.22 0 1 0 .44 0 .22.22 0 0 0-.44 0zM20.507 26.018a.22.22 0 1 0 .44 0 .22.22 0 0 0-.44 0z" fill="#fff"/>
    <path d="M20.947 26.018a.22.22 0 1 0 .44 0 .22.22 0 0 0-.44 0zM20.703 24.373a.22.22 0 1 0 .337.283.22.22 0 0 0-.337-.283z" fill="#fff"/>
    <path d="M21.04 24.655a.22.22 0 1 0 .337.283.22.22 0 0 0-.337-.283z" fill="#fff"/>
    <path d="M21.377 24.938a.22.22 0 1 0 .337.283.22.22 0 0 0-.337-.283zM23.122 26.791a.22.22 0 1 0 .337.283.22.22 0 0 0-.337-.283z" fill="#fff"/>
    <path d="M23.46 27.074a.22.22 0 1 0 .336.283.22.22 0 0 0-.337-.283z" fill="#fff"/>
    <path d="M23.796 27.357a.22.22 0 1 0 .337.282.22.22 0 0 0-.337-.282zM24.18 24.36a.22.22 0 1 0-.312.31.22.22 0 0 0 .311-.31z" fill="#fff"/>
    <path d="M23.868 24.67a.22.22 0 1 0-.31.311.22.22 0 0 0 .31-.31z" fill="#fff"/>
    <path d="M23.557 24.982a.22.22 0 1 0-.31.31.22.22 0 0 0 .31-.31zM21.76 26.778a.22.22 0 1 0-.31.311.22.22 0 0 0 .31-.31z" fill="#fff"/>
    <path d="M21.45 27.09a.22.22 0 1 0-.311.31.22.22 0 0 0 .31-.31z" fill="#fff"/>
    <path d="M21.138 27.4a.22.22 0 1 0-.31.312.22.22 0 0 0 .31-.312zM24.52 28.712a.55.55 0 1 0 0-1.1.55.55 0 0 0 0 1.1z" fill="#fff"/>
</svg>
