<svg width="45" height="45" fill="none" xmlns="http://www.w3.org/2000/svg">
    <circle cx="22.5" cy="22.5" r="22.5" fill="#E0E0E0"/>
    <path fill-rule="evenodd" clip-rule="evenodd" d="M21.17 18.692a.564.564 0 0 1-.334-.102.607.607 0 0 1-.048-.943 12.575 12.575 0 0 0 2.477-2.926c.477-.86 1.249-1.303 2.054-1.191a.566.566 0 0 1 .411.217.6.6 0 0 1 .126.458.608.608 0 0 1-.24.406.57.57 0 0 1-.452.096c-.47-.066-.786.4-.9.603a13.56 13.56 0 0 1-2.708 3.225.556.556 0 0 1-.386.157zm-9.72 10.055a.567.567 0 0 1-.327-.11.594.594 0 0 1-.209-.28.612.612 0 0 1 .164-.655c.67-.543 1.38-1.031 2.125-1.46a.56.56 0 0 1 .4.015.582.582 0 0 1 .295.28.608.608 0 0 1-.18.75 15.39 15.39 0 0 0-1.9 1.31.57.57 0 0 1-.368.14" fill="#28646E"/>
    <path fill-rule="evenodd" clip-rule="evenodd" d="M25.949 23.115c.23.22.497.125.74-.115 1.673-1.644 3.443-4.211 4.032-5.549a.524.524 0 0 1 .258-.308.493.493 0 0 1 .395-.022c.322.132.318.696.027 1.32a21.07 21.07 0 0 1-3.96 5.69.452.452 0 0 0-.145.337.464.464 0 0 0 .145.336c.186.17.491.16.772-.136a23.64 23.64 0 0 0 2.474-2.97.55.55 0 0 1 .232-.24.529.529 0 0 1 .323-.057c.277.056.322.331.237.662-.139.533-1.598 2.504-2.176 3.166-1.567 1.8-3.134 2.786-6.15 4.399-1.042.557-1.83 1.104-2.322 1.95-.436.753-.565 1-.609 1.094a.78.78 0 0 0-.027.568c.062.185.192.339.362.428a.693.693 0 0 0 .786-.117.73.73 0 0 0 .165-.231v-.039c0-.01-.02 0 .549-.975a4.125 4.125 0 0 1 1.777-1.612c3.025-1.418 4.26-2.536 6.014-4.34a20.777 20.777 0 0 0 2.203-3.103c.843-1.463.4-2.714-.362-2.926a.099.099 0 0 1-.058-.047.104.104 0 0 1-.01-.075.087.087 0 0 1 0-.028 7.921 7.921 0 0 0 .971-2.313c.15-.755-.06-1.675-1.066-1.898a.099.099 0 0 1-.06-.043.104.104 0 0 1-.014-.075c.064-.24.128-.543.169-.742.105-.422.048-.87-.16-1.248-.209-.38-.551-.661-.957-.786a1.646 1.646 0 0 0-1.354.293.132.132 0 0 1-.176-.021 1.054 1.054 0 0 0-.754-.349c-.633 0-1.253.188-1.692 1.188-.339.697-.81 1.675-2.227 3.295a24.696 24.696 0 0 1-4.295 3.716c-.2.133-.477.101-.447-.17.054-.436.508-3.375.596-4.225.125-1.394-.606-2.041-1.429-2.153-.677-.094-1.692.105-2.26 1.69a36.435 36.435 0 0 0-1.598 4.907c-.44 1.99-.484 4.05-.129 6.057a.6.6 0 0 1-.07.404 23.567 23.567 0 0 0-1.473 2.626.772.772 0 0 0-.026.536.748.748 0 0 0 .327.418c.166.093.36.114.54.06a.719.719 0 0 0 .425-.349l.02-.042c.217-.47.677-1.358.84-1.741.22-.432.417-.876.589-1.33.112-.38.112-.787 0-1.167a12.442 12.442 0 0 1 .118-4.877 51.64 51.64 0 0 1 1.692-5.454c.173-.439.416-.574.677-.55.26.024.71.143.579 1.045-.24 1.599-.579 3.629-.677 4.315-.054.349-.115 1.118.484 1.477.47.279.988.125 1.557-.268a29.573 29.573 0 0 0 4.89-4.284c1.459-1.686 1.923-2.693 2.298-3.602a.658.658 0 0 1 .321-.317.632.632 0 0 1 .444-.03c.156.044.339.26.213.717-.338 1.11-1.658 3.65-4.223 6.032a.514.514 0 0 0-.212.355.534.534 0 0 0 .11.4.478.478 0 0 0 .354.162.466.466 0 0 0 .353-.161 17.469 17.469 0 0 0 4.19-5.768c.197-.431.366-.876.505-1.33a.591.591 0 0 1 .215-.35.56.56 0 0 1 .387-.117c.281.06.467.348.38.846a8.776 8.776 0 0 1-.63 1.8c-.738 1.617-2.302 3.78-3.987 5.636a.491.491 0 0 0-.15.357.504.504 0 0 0 .15.357v.01zM15.52 15.069c.088-.08.054-.184.03-.264-.124-.412-.832-2.118-1.015-2.46a.26.26 0 0 0-.138-.147.247.247 0 0 0-.2.001c-.25.133-.478.304-.677.509-.225.179-.42.394-.579.637a.26.26 0 0 0 .098.348c.305.237 1.859 1.181 2.234 1.359.078.038.173.087.26 0l-.013.017zm-3.384.575c-.193 0-.274.083-.298.22-.022.291 0 .585.064.87.034.29.11.573.227.84.032.059.086.103.149.122.063.02.131.013.19-.018.338-.146 1.942-1.02 2.287-1.258.072-.048.16-.107.14-.23l-2.76-.546zm16.177 14.541c-.118 0-.152.115-.182.195-.143.4-.586 2.201-.643 2.588a.265.265 0 0 0 .09.283c.027.021.059.036.092.044.28.056.567.065.85.028.284-.003.566-.051.836-.143a.253.253 0 0 0 .14-.144.268.268 0 0 0-.005-.204c-.105-.376-.778-2.09-.971-2.476-.04-.077-.088-.174-.207-.167v-.004zm1.016-.832c-.058.108 0 .191.064.257.26.349 1.523 1.662 1.814 1.913a.255.255 0 0 0 .185.081.247.247 0 0 0 .184-.081c.19-.218.345-.465.46-.732.143-.253.245-.528.302-.815 0-.14-.034-.25-.22-.303-.366-.104-2.146-.404-2.563-.428-.084 0-.189 0-.243.09l.017.018zm-6.187 9.978c0 .132-.037.261-.108.371a.652.652 0 0 1-.29.247.63.63 0 0 1-.706-.144.682.682 0 0 1-.14-.727.66.66 0 0 1 .24-.298.634.634 0 0 1 .816.083.664.664 0 0 1 .188.468zm0-33.666a.68.68 0 0 1-.11.37.651.651 0 0 1-.29.245.63.63 0 0 1-.705-.146.672.672 0 0 1-.138-.726.661.661 0 0 1 .24-.298.634.634 0 0 1 .816.085.663.663 0 0 1 .187.47zm4.21 32.92a.68.68 0 0 1-.013.384.661.661 0 0 1-.218.312.633.633 0 0 1-.968-.234.679.679 0 0 1 .094-.728.641.641 0 0 1 .568-.22.632.632 0 0 1 .427.254c.051.07.089.149.11.233zm-8.46-32.52a.685.685 0 0 1-.064.505.66.66 0 0 1-.39.31.628.628 0 0 1-.49-.064.65.65 0 0 1-.302-.402.68.68 0 0 1 .063-.504.648.648 0 0 1 .39-.31.63.63 0 0 1 .49.064.662.662 0 0 1 .302.402zm12.346 30.678a.672.672 0 0 1-.038.743.65.65 0 0 1-.432.256.626.626 0 0 1-.48-.137.679.679 0 0 1-.22-.697.659.659 0 0 1 .298-.395.627.627 0 0 1 .481-.068c.163.043.303.15.39.298zM14.879 7.588a.676.676 0 0 1-.226.907.628.628 0 0 1-.487.072.645.645 0 0 1-.394-.303.678.678 0 0 1-.057-.497.66.66 0 0 1 .298-.396.627.627 0 0 1 .482-.068c.163.043.303.15.39.299l-.007-.014zm19.636 26.359a.672.672 0 0 1 0 .937.635.635 0 0 1-.91 0 .673.673 0 0 1 0-.937.634.634 0 0 1 .91 0zm-23.126-23.82a.672.672 0 0 1 0 .937.635.635 0 0 1-.91 0 .673.673 0 0 1 0-.937.634.634 0 0 1 .91 0zm25.596 20.2a.66.66 0 0 1 .305.4.68.68 0 0 1-.058.503.647.647 0 0 1-.387.314.628.628 0 0 1-.49-.06.66.66 0 0 1-.3-.402.68.68 0 0 1 .064-.503.647.647 0 0 1 .39-.31.628.628 0 0 1 .49.066l-.014-.007zM8.648 13.51a.649.649 0 0 1 .309.402.68.68 0 0 1-.063.508.656.656 0 0 1-.397.31.624.624 0 0 1-.493-.074.66.66 0 0 1-.29-.402.679.679 0 0 1 .066-.495.646.646 0 0 1 .385-.307.627.627 0 0 1 .483.058zm29.816 12.706c.166.042.308.15.396.301.088.15.114.33.073.501a.66.66 0 0 1-.293.408.628.628 0 0 1-.487.075h-.02a.638.638 0 0 1-.39-.31.677.677 0 0 1 .24-.904.631.631 0 0 1 .488-.065l-.007-.006zm-31.59-8.7a.65.65 0 0 1 .392.31.683.683 0 0 1 .063.506.663.663 0 0 1-.302.403.63.63 0 0 1-.491.065.652.652 0 0 1-.365-.317.683.683 0 0 1-.053-.488.664.664 0 0 1 .286-.393.63.63 0 0 1 .47-.083v-.004zm31.983 4.311a.63.63 0 0 1 .357.112.658.658 0 0 1 .237.297.68.68 0 0 1-.14.72.626.626 0 0 1-.7.143.647.647 0 0 1-.289-.242.676.676 0 0 1 .08-.836.642.642 0 0 1 .455-.194zm-32.714 0a.628.628 0 0 1 .455.194.663.663 0 0 1 .188.468.679.679 0 0 1-.188.468.643.643 0 0 1-.455.194.634.634 0 0 1-.455-.194.672.672 0 0 1 0-.936.634.634 0 0 1 .455-.194zm31.99-4.336a.628.628 0 0 1 .469.082.66.66 0 0 1 .286.39.679.679 0 0 1-.053.487.649.649 0 0 1-.364.316h-.017a.63.63 0 0 1-.49-.065.661.661 0 0 1-.302-.402.68.68 0 0 1 .063-.504.648.648 0 0 1 .39-.311l.018.007zm-31.618 8.7a.626.626 0 0 1 .707.215.67.67 0 0 1 .134.505.675.675 0 0 1-.265.447.633.633 0 0 1-.237.108.628.628 0 0 1-.489-.064.66.66 0 0 1-.301-.401.68.68 0 0 1 .062-.503.647.647 0 0 1 .39-.31v.003zm29.81-12.709a.63.63 0 0 1 .89.235.673.673 0 0 1-.247.91.627.627 0 0 1-.482.059.646.646 0 0 1-.385-.307.679.679 0 0 1-.066-.495.66.66 0 0 1 .29-.402zM8.011 30.338a.628.628 0 0 1 .717.043c.102.08.178.188.22.313a.68.68 0 0 1-.187.713.634.634 0 0 1-.713.09.652.652 0 0 1-.27-.267.682.682 0 0 1-.061-.498.664.664 0 0 1 .294-.4v.006zm25.6-20.208a.626.626 0 0 1 .7-.143c.118.05.218.136.29.244a.676.676 0 0 1 0 .735.648.648 0 0 1-.29.244.626.626 0 0 1-.7-.143.675.675 0 0 1 0-.937zM10.48 33.933a.626.626 0 0 1 .7-.143c.117.05.218.135.288.244a.676.676 0 0 1 0 .735.647.647 0 0 1-.288.243.625.625 0 0 1-.7-.142.66.66 0 0 1-.19-.469.674.674 0 0 1 .19-.468zm19.63-26.345a.65.65 0 0 1 .272-.262.627.627 0 0 1 .707.095.68.68 0 0 1-.031 1.022.632.632 0 0 1-1.012-.352.682.682 0 0 1 .063-.503zM13.764 36.743a.657.657 0 0 1 .386-.333.627.627 0 0 1 .696.23.67.67 0 0 1 .127.503.673.673 0 0 1-.48.547.627.627 0 0 1-.48-.068.66.66 0 0 1-.299-.395.678.678 0 0 1 .057-.497l-.007.014zM26.11 6.066a.671.671 0 0 1 .289-.41.632.632 0 0 1 .885.216.673.673 0 0 1 .078.5v.039a.66.66 0 0 1-.301.4.628.628 0 0 1-.489.065.647.647 0 0 1-.39-.31.68.68 0 0 1-.062-.504l-.01.004zm-8.45 32.517a.67.67 0 0 1 .293-.407.634.634 0 0 1 .488-.074.637.637 0 0 1 .395.303.676.676 0 0 1 .072.501.66.66 0 0 1-.301.401.628.628 0 0 1-.49.064.646.646 0 0 1-.389-.31.68.68 0 0 1-.062-.503" fill="#28646E"/>
</svg>
