<svg width="45" height="45" fill="none" xmlns="http://www.w3.org/2000/svg">
    <circle cx="22.5" cy="22.5" r="22.5" fill="url(#a)"/>
    <path d="m31.21 19.84-2.918-2.92L31.21 14h.002v5.84zM31.225 25.92h-.001L28.307 23l2.917-2.92h.001v5.84zM31.225 32h-.001l-2.917-2.92 2.917-2.92h.001V32zM28.2 28.96H28.2V23.12l.001-.001 2.919 2.92-2.919 2.92zM28.2 22.88H28.2v-5.84h.001l2.919 2.92-2.919 2.92zM28.199 28.96l-2.917-2.92 2.917-2.92v5.84zM28.199 22.88l-2.917-2.92 2.917-2.92v5.84zM28.087 22.992l.003.003-2.918 2.92-2.92-2.92.002-.003h5.833z" fill="#fff"/>
    <path d="m22.254 22.996-.001-.001 2.919-2.92 2.918 2.92-.003.001h-5.833zM22.138 28.96v-5.84l2.919 2.92-2.919 2.92z" fill="#fff"/>
    <path d="m22.138 28.96-2.917-2.92 2.917-2.92v5.84zM22.012 22.992l.002.003-2.919 2.92-2.917-2.92.001-.003h5.833z" fill="#fff"/>
    <path d="m16.18 22.996-.002-.001 2.917-2.92 2.919 2.92-.002.001H16.18zM16.039 28.96v-5.84l2.917 2.92-2.917 2.92zM16.039 22.88v-5.84l2.917 2.92-2.917 2.92zM16.039 28.96h-.002l-2.917-2.92 2.918-2.92V28.96zM16.039 22.88h-.002l-2.917-2.92 2.918-2.92v5.84zM13 32v-5.84l2.919 2.92L13 32zM13 25.92v-5.84L15.919 23 13 25.92zM13 19.84V14l2.919 2.92L13 19.84z" fill="#fff"/>
    <defs>
        <linearGradient id="a" x1="22.5" y1="0" x2="22.5" y2="45" gradientUnits="userSpaceOnUse">
            <stop stop-color="#2AB5E8"/>
            <stop offset="1" stop-color="#EC2482"/>
        </linearGradient>
    </defs>
</svg>
