<svg width="45" height="45" viewBox="0 0 45 45" fill="none" xmlns="http://www.w3.org/2000/svg">
<circle cx="22.5" cy="22.5" r="22.5" fill="#F8F8F8"/>
<path d="M22.5 34.7998C23.4665 34.7998 24.25 34.0163 24.25 33.0498C24.25 32.0833 23.4665 31.2998 22.5 31.2998C21.5335 31.2998 20.75 32.0833 20.75 33.0498C20.75 34.0163 21.5335 34.7998 22.5 34.7998Z" fill="#2261F6"/>
<path d="M22.5 14.5C23.4665 14.5 24.25 13.7165 24.25 12.75C24.25 11.7835 23.4665 11 22.5 11C21.5335 11 20.75 11.7835 20.75 12.75C20.75 13.7165 21.5335 14.5 22.5 14.5Z" fill="#2261F6"/>
<path d="M22.4999 19.2834C23.2731 19.2834 23.8999 18.6566 23.8999 17.8834C23.8999 17.1102 23.2731 16.4834 22.4999 16.4834C21.7267 16.4834 21.0999 17.1102 21.0999 17.8834C21.0999 18.6566 21.7267 19.2834 22.4999 19.2834Z" fill="#2261F6"/>
<path d="M17.6 16.7168C18.3732 16.7168 19 16.09 19 15.3168C19 14.5436 18.3732 13.9167 17.6 13.9167C16.8268 13.9167 16.2 14.5436 16.2 15.3168C16.2 16.09 16.8268 16.7168 17.6 16.7168Z" fill="#2261F6"/>
<path d="M17.6 32.0002C18.3732 32.0002 19 31.3734 19 30.6002C19 29.827 18.3732 29.2002 17.6 29.2002C16.8268 29.2002 16.2 29.827 16.2 30.6002C16.2 31.3734 16.8268 32.0002 17.6 32.0002Z" fill="#2261F6"/>
<path d="M26.8749 21.9084C27.6481 21.9084 28.2749 21.2816 28.2749 20.5084C28.2749 19.7352 27.6481 19.1084 26.8749 19.1084C26.1017 19.1084 25.4749 19.7352 25.4749 20.5084C25.4749 21.2816 26.1017 21.9084 26.8749 21.9084Z" fill="#2261F6"/>
<path d="M26.8749 26.7502C27.6481 26.7502 28.2749 26.1234 28.2749 25.3502C28.2749 24.577 27.6481 23.9502 26.8749 23.9502C26.1017 23.9502 25.4749 24.577 25.4749 25.3502C25.4749 26.1234 26.1017 26.7502 26.8749 26.7502Z" fill="#2261F6"/>
<path d="M22.4999 29.3166C23.2731 29.3166 23.8999 28.6898 23.8999 27.9166C23.8999 27.1434 23.2731 26.5166 22.4999 26.5166C21.7267 26.5166 21.0999 27.1434 21.0999 27.9166C21.0999 28.6898 21.7267 29.3166 22.4999 29.3166Z" fill="#2261F6"/>
<path d="M22.5002 24.0082C23.1123 24.0082 23.6085 23.512 23.6085 22.8998C23.6085 22.2877 23.1123 21.7915 22.5002 21.7915C21.8881 21.7915 21.3918 22.2877 21.3918 22.8998C21.3918 23.512 21.8881 24.0082 22.5002 24.0082Z" fill="#2261F6"/>
<path d="M17.6 26.5167C18.2121 26.5167 18.7084 26.0205 18.7084 25.4084C18.7084 24.7963 18.2121 24.3 17.6 24.3C16.9879 24.3 16.4917 24.7963 16.4917 25.4084C16.4917 26.0205 16.9879 26.5167 17.6 26.5167Z" fill="#2261F6"/>
<path d="M17.6 21.6166C18.2121 21.6166 18.7084 21.1204 18.7084 20.5082C18.7084 19.8961 18.2121 19.3999 17.6 19.3999C16.9879 19.3999 16.4917 19.8961 16.4917 20.5082C16.4917 21.1204 16.9879 21.6166 17.6 21.6166Z" fill="#2261F6"/>
<path d="M12.8167 18.7C13.2677 18.7 13.6333 18.3344 13.6333 17.8833C13.6333 17.4323 13.2677 17.0667 12.8167 17.0667C12.3656 17.0667 12 17.4323 12 17.8833C12 18.3344 12.3656 18.7 12.8167 18.7Z" fill="#2261F6"/>
<path d="M12.8167 23.7166C13.2677 23.7166 13.6333 23.351 13.6333 22.8999C13.6333 22.4489 13.2677 22.0833 12.8167 22.0833C12.3656 22.0833 12 22.4489 12 22.8999C12 23.351 12.3656 23.7166 12.8167 23.7166Z" fill="#2261F6"/>
<path d="M12.8167 28.7332C13.2677 28.7332 13.6333 28.3676 13.6333 27.9165C13.6333 27.4655 13.2677 27.0999 12.8167 27.0999C12.3656 27.0999 12 27.4655 12 27.9165C12 28.3676 12.3656 28.7332 12.8167 28.7332Z" fill="#2261F6"/>
<path d="M26.875 17.0669C27.8415 17.0669 28.625 16.2834 28.625 15.3169C28.625 14.3504 27.8415 13.5669 26.875 13.5669C25.9085 13.5669 25.125 14.3504 25.125 15.3169C25.125 16.2834 25.9085 17.0669 26.875 17.0669Z" fill="#2261F6"/>
<path d="M26.875 32.2918C27.8415 32.2918 28.625 31.5083 28.625 30.5418C28.625 29.5753 27.8415 28.7917 26.875 28.7917C25.9085 28.7917 25.125 29.5753 25.125 30.5418C25.125 31.5083 25.9085 32.2918 26.875 32.2918Z" fill="#2261F6"/>
<path d="M31.25 19.6333C32.2165 19.6333 33 18.8498 33 17.8833C33 16.9168 32.2165 16.1333 31.25 16.1333C30.2835 16.1333 29.5 16.9168 29.5 17.8833C29.5 18.8498 30.2835 19.6333 31.25 19.6333Z" fill="#2261F6"/>
<path d="M31.25 29.6668C32.2165 29.6668 33 28.8832 33 27.9168C33 26.9503 32.2165 26.1667 31.25 26.1667C30.2835 26.1667 29.5 26.9503 29.5 27.9168C29.5 28.8832 30.2835 29.6668 31.25 29.6668Z" fill="#2261F6"/>
<path d="M31.25 24.6499C32.2165 24.6499 33 23.8664 33 22.8999C33 21.9334 32.2165 21.1499 31.25 21.1499C30.2835 21.1499 29.5 21.9334 29.5 22.8999C29.5 23.8664 30.2835 24.6499 31.25 24.6499Z" fill="#2261F6"/>
</svg>
