<svg width="45" height="45" viewBox="0 0 45 45" fill="none" xmlns="http://www.w3.org/2000/svg">
<circle cx="22.5" cy="22.5" r="22.5" fill="black"/>
<path d="M23.6535 13.4318C23.6535 13.4318 20.5531 13.4471 18.8745 13.4758L19.336 12L13 16.4443L17.2567 20.9579L17.6488 19.7137C17.7199 19.4246 17.9514 19.2268 18.2405 19.2268L22.5615 19.2387C22.8522 19.2387 23.1041 19.0375 23.1666 18.7535L23.4709 17.3791L27.7292 21.886L21.3899 26.31L21.3933 26.2981L22.0999 24.1259H22.0982H17.9109C16.9101 24.1259 16.0243 24.77 15.7149 25.7217L13.0254 34H18.8897L19.9462 30.7476C20.0341 30.4788 20.2843 30.2962 20.5666 30.2962H23.6535C28.3108 30.2962 32.0856 26.5213 32.0856 21.864C32.0856 17.2067 28.3108 13.4318 23.6535 13.4318Z" fill="url(#paint0_linear)"/>
<defs>
<linearGradient id="paint0_linear" x1="22.543" y1="12" x2="22.543" y2="34" gradientUnits="userSpaceOnUse">
<stop stop-color="#826DF9"/>
<stop offset="0.2826" stop-color="#7F6DF9"/>
<stop offset="0.5233" stop-color="#746FFA"/>
<stop offset="0.7488" stop-color="#6371FC"/>
<stop offset="0.9637" stop-color="#4A74FF"/>
<stop offset="1" stop-color="#4575FF"/>
</linearGradient>
</defs>
</svg>
