<svg width="45" height="45" fill="none" xmlns="http://www.w3.org/2000/svg">
    <circle cx="22.5" cy="22.5" r="22.5" fill="url(#a)"/>
    <path d="m13.326 17.13.522.261s.682-2.893 1.435-4.63a7.915 7.915 0 0 1 1.518-2.304c.388-.408 1.005-.405 1.428-.034.505.443 1.137 1.065 1.423 1.62.384.745.717 1.566.717 1.566s.251.005.392.065c.132.057.26.196.26.196s.67-.274 1.175-.326c.509-.054 1.304.13 1.304.13s.507-1.24.978-2.022c.267-.443.683-.996 1.01-1.412a.62.62 0 0 1 .98.001c.643.82 1.756 2.305 2.314 3.433.73 1.474 1.435 3.848 1.435 3.848l.587-.457s.194.607-.13 1.37c-.166.39-.563 1.004-.683 1.186.092-.133.354-.485.683-.664.368-.202.782.065.782.065s-.412.27-.587.522c-.232.334-.22.945-.204 1.194a.365.365 0 0 0 .075.197c.314.414 1.646 2.23 2.02 3.63.356 1.329.066 3.392.066 3.392l-.717-1.696s.529 1.36-.327 2.935c-.4.738-2.266 2.29-2.934 2.934-.935.904-1.24 2.348-1.24 2.348s-.279-.44-.39-.782c-.141-.43 0-1.109 0-1.109S25.594 35 20.434 35c-4.696 0-5.609-2.674-5.609-2.674s.093.426 0 .718c-.084.262-.391.586-.391.586s-.216-1.093-.652-1.76a9.381 9.381 0 0 0-.516-.698c-.543-.677-1.025-1.413-1.232-2.255-.109-.443-.2-.934-.209-1.352-.022-1.137.587-2.934.587-2.934l-.913 1.043s.16-1.481.522-2.348c.292-.7.962-1.586 1.21-1.903a.506.506 0 0 0 .109-.27c.018-.226.041-.656-.015-.957-.102-.55-.652-1.109-.652-1.109s.457-.172.717-.065c.227.093.47.55.515.638-.055-.11-.407-.82-.515-1.356-.116-.574-.065-1.173-.065-1.173z" fill="#fff"/>
    <path d="m11.5 25.674.913-1.043s-.609 1.797-.587 2.934c.008.418.1.909.21 1.352.206.842.688 1.578 1.23 2.255.19.236.375.481.517.698.436.667.652 1.76.652 1.76s.307-.324.391-.587c.093-.29 0-.717 0-.717S15.74 35 20.435 35c5.16 0 6.782-2.413 6.782-2.413s-.14.68 0 1.109c.112.342.392.782.392.782s.303-1.444 1.239-2.348c.668-.645 2.533-2.196 2.934-2.934.856-1.575.327-2.935.327-2.935l.717 1.696s.29-2.063-.065-3.392c-.375-1.4-1.707-3.216-2.02-3.63a.365.365 0 0 1-.076-.197c-.016-.249-.028-.86.204-1.194.175-.252.587-.522.587-.522s-.414-.267-.782-.065c-.411.224-.718.717-.718.717s.521-.777.718-1.24c.324-.762.13-1.369.13-1.369l-.587.457s-.705-2.374-1.434-3.848c-.559-1.128-1.672-2.613-2.315-3.433a.62.62 0 0 0-.98-.001c-.327.415-.742.97-1.01 1.412-.471.782-.978 2.022-.978 2.022s-.795-.184-1.304-.13c-.505.052-1.174.326-1.174.326s-.129-.14-.261-.196c-.14-.06-.392-.065-.392-.065s-.333-.82-.717-1.565c-.286-.556-.918-1.178-1.423-1.621-.423-.371-1.04-.374-1.428.034a7.915 7.915 0 0 0-1.518 2.304c-.753 1.737-1.435 4.63-1.435 4.63l-.522-.26s-.05.599.065 1.173c.117.581.522 1.37.522 1.37s-.271-.55-.522-.652c-.26-.107-.717.065-.717.065s.55.56.652 1.109c.056.301.033.731.014.957a.506.506 0 0 1-.108.27c-.248.317-.918 1.204-1.21 1.903-.362.867-.522 2.348-.522 2.348z" stroke="#000" stroke-width=".3"/>
    <path d="M22.913 22.14c.531.099 1.02-.137 1.092-.527.073-.39-.3-.785-.83-.883-.532-.099-1.021.137-1.093.527-.073.39.3.785.83.883z" fill="#000"/>
    <path d="M22.913 22.14c.531.099 1.02-.137 1.092-.527.073-.39-.3-.785-.83-.883-.532-.099-1.021.137-1.093.527-.073.39.3.785.83.883z" fill="#000"/>
    <path d="M22.913 22.14c.531.099 1.02-.137 1.092-.527.073-.39-.3-.785-.83-.883-.532-.099-1.021.137-1.093.527-.073.39.3.785.83.883z" fill="#202020"/>
    <path d="M17.174 22.152c.468 0 .848-.32.848-.717 0-.396-.38-.717-.848-.717-.468 0-.848.32-.848.717 0 .396.38.717.848.717z" fill="#000"/>
    <path d="M17.174 22.152c.468 0 .848-.32.848-.717 0-.396-.38-.717-.848-.717-.468 0-.848.32-.848.717 0 .396.38.717.848.717z" fill="#000"/>
    <path d="M17.174 22.152c.468 0 .848-.32.848-.717 0-.396-.38-.717-.848-.717-.468 0-.848.32-.848.717 0 .396.38.717.848.717z" fill="#000"/>
    <path d="M16.815 21.435a.359.359 0 1 0 0-.718.359.359 0 0 0 0 .718zM23.467 21.435a.359.359 0 1 0 0-.718.359.359 0 0 0 0 .718z" fill="#fff"/>
    <path d="m17.52 27.627-.346-.192.492.852c.308.535.837.905 1.445 1.013l1.288.227c.697.123 1.422.005 1.992-.415.397-.293.835-.66 1.109-1.025.688-.915.913-2.543.913-2.543s-.657 1.147-1.24 1.695a5.92 5.92 0 0 1-.694.54c-.488.332-1.12.329-1.636.042l-1.517-.843-1.32.66a.521.521 0 0 1-.486-.01z" fill="#35201F" stroke="#000" stroke-width=".3"/>
    <path d="m18.226 27.565 1.108-.587s1.331.821 1.957 1.044c.32.114.457.065.457.065s-.398 1.36-.261 2.217c.018.113.045.233.079.356.175.642-.26 1.34-.927 1.34h-.904c-.795 0-1.527-.478-1.707-1.252-.095-.408-.16-.852-.128-1.226.13-1.5.326-1.957.326-1.957z" fill="#F78C92" stroke="#000" stroke-width=".3"/>
    <path d="M19.261 29.277c-.074.505 0 1.305 0 1.305s-.207-.75-.195-1.24c.012-.494.105-.769.26-1.238.105-.315.196-.457.392-.653.09-.09.226-.058.195.066-.065.26-.267.464-.39.782a3.909 3.909 0 0 0-.262.979z" fill="#000"/>
    <path d="M20.826 22.61s-.757-.342-1.37-.327c-.475.011-.807.061-1.239.26-.448.209-.708.355-1.043.718-.356.386-.482.743-.652 1.24-.115.332-.098.966-.063 1.448.03.419.2.812.459 1.142l.321.41" stroke="#000" stroke-width=".3"/>
    <path d="m24.152 24.826-.782-.848.105.264c.103.257.25.494.435.7l.308.34.065.262.26.065s.08.358.066.587c-.014.205-.13.521-.13.521s.325-.326.325-.587c0-.179-.018-.3-.038-.44a.7.7 0 0 0-.17-.37l-.444-.494z" fill="#101010"/>
    <mask id="b" style="mask-type:alpha" maskUnits="userSpaceOnUse" x="14" y="11" width="5" height="8">
        <path d="M18.5 13.489c-.033-2.35-.944-2.636-1.57-2.101a.76.76 0 0 0-.112.122 11.97 11.97 0 0 0-1.488 2.662c-.442 1.127-.726 3.232-.81 3.917-.012.1.088.172.18.132l.668-.29c.592-.256 1.128-.74 1.147-1.387v-.07c-.01-.31-.158-.777-.158-.777s.302.085.396.117c.04.014.163-.013.168-.056.017-.131.043-.29.084-.41.094-.28.369-.66.369-.66s.095.214.2.314a1 1 0 0 0 .266.159.098.098 0 0 0 .12-.036c.337-.482.548-1.048.54-1.636z" fill="#DEC0C0"/>
    </mask>
    <g mask="url(#b)">
        <path d="M18.5 13.489c-.033-2.35-.944-2.636-1.57-2.101a.76.76 0 0 0-.112.122 11.97 11.97 0 0 0-1.488 2.662c-.442 1.127-.726 3.232-.81 3.917-.012.1.088.172.18.132l.668-.29c.592-.256 1.128-.74 1.147-1.387v-.07c-.01-.31-.158-.777-.158-.777s.302.085.396.117c.04.014.163-.013.168-.056.017-.131.043-.29.084-.41.094-.28.369-.66.369-.66s.095.214.2.314a1 1 0 0 0 .266.159.098.098 0 0 0 .12-.036c.337-.482.548-1.048.54-1.636z" fill="#DEC0C0"/>
        <path d="M16.578 19.052c1.033.316 2.358-1.021 2.959-2.986.6-1.966.25-3.815-.783-4.131-1.034-.316-2.359 1.021-2.96 2.986-.6 1.966-.25 3.815.784 4.131z" fill="#D2B0AF"/>
    </g>
    <mask id="c" style="mask-type:alpha" maskUnits="userSpaceOnUse" x="24" y="10" width="5" height="9">
        <path d="M24.966 13.308c.03-2.358.922-2.646 1.535-2.11a.765.765 0 0 1 .111.122c.198.268.94 1.32 1.456 2.662.432 1.126.71 3.23.792 3.915a.128.128 0 0 1-.18.132l-.632-.28c-.591-.261-1.122-.75-1.14-1.396v-.069c.01-.31.155-.777.155-.777s-.295.085-.388.117c-.04.013-.16-.012-.164-.054a2.34 2.34 0 0 0-.082-.412c-.092-.28-.361-.66-.361-.66s-.093.214-.196.314a.967.967 0 0 1-.258.157.098.098 0 0 1-.121-.036c-.329-.481-.535-1.043-.527-1.625z" fill="#DEC0C0"/>
    </mask>
    <g mask="url(#c)">
        <path d="M24.966 13.308c.03-2.358.922-2.646 1.535-2.11a.765.765 0 0 1 .111.122c.198.268.94 1.32 1.456 2.662.432 1.126.71 3.23.792 3.915a.128.128 0 0 1-.18.132l-.632-.28c-.591-.261-1.122-.75-1.14-1.396v-.069c.01-.31.155-.777.155-.777s-.295.085-.388.117c-.04.013-.16-.012-.164-.054a2.34 2.34 0 0 0-.082-.412c-.092-.28-.361-.66-.361-.66s-.093.214-.196.314a.967.967 0 0 1-.258.157.098.098 0 0 1-.121-.036c-.329-.481-.535-1.043-.527-1.625z" fill="#DEC0C0"/>
        <path d="M26.847 18.862c-1.011.316-2.308-1.021-2.896-2.986-.587-1.966-.244-3.815.767-4.131 1.01-.316 2.307 1.021 2.895 2.987.588 1.965.245 3.814-.766 4.13z" fill="#D2B0AF"/>
    </g>
    <mask id="d" style="mask-type:alpha" maskUnits="userSpaceOnUse" x="16" y="22" width="7" height="5">
        <path d="M21.022 24.305c0 .35-.194.726-.498 1.018-.303.292-.696.482-1.068.482-.374 0-.8-.192-1.137-.486-.338-.296-.558-.67-.558-1.014 0-.334.208-.608.539-.805.33-.197.763-.304 1.156-.304.393 0 .791.106 1.087.3.294.194.479.467.479.809z" fill="#C4C4C4" stroke="#000" stroke-width="2"/>
    </mask>
    <g mask="url(#d)">
        <path d="M21.022 24.304c0 .35-.194.727-.498 1.019-.303.291-.696.481-1.068.481-.374 0-.8-.191-1.137-.486-.338-.295-.558-.67-.558-1.014 0-.333.208-.607.539-.804.33-.198.763-.304 1.156-.304.393 0 .791.106 1.087.3.294.194.479.466.479.808z" fill="#616161" stroke="#000" stroke-width=".5"/>
        <path d="M20.891 24.435c0 .576-.75 1.239-1.435 1.239-.684 0-1.565-.663-1.565-1.24 0-.576.657-.847 1.341-.847.685 0 1.66.271 1.66.848z" fill="#3B3B3B"/>
        <path d="M19.913 25.152c.132.195.222.322.456.326.171.003.185-.043.261-.196.057-.113.13-.326.13-.326s-.223.162-.325.196c-.162.054-.269-.077-.391-.196-.107-.103-.185-.178-.196-.326-.008-.104-.033-.289.065-.326.075-.028.196.13.196.13s.042-.188-.066-.26c-.084-.057-.167-.106-.26-.065-.137.059-.16.182-.196.326-.066.257.177.497.326.717zM18.715 24.964c-.11.14-.187.233-.385.236-.144.002-.155-.031-.22-.142-.048-.082-.11-.235-.11-.235s.189.117.275.141c.137.04.227-.055.33-.141.09-.074.156-.128.166-.236.006-.075.027-.208-.056-.235-.063-.02-.165.094-.165.094s-.036-.136.055-.188c.072-.041.142-.077.22-.047.116.043.135.131.166.235.055.186-.15.36-.276.518z" fill="#000"/>
    </g>
    <defs>
        <linearGradient id="a" x1="22.5" y1="0" x2="22.5" y2="45" gradientUnits="userSpaceOnUse">
            <stop stop-color="#42E9CD"/>
            <stop offset="1" stop-color="#9531DF"/>
        </linearGradient>
    </defs>
</svg>
