<svg width="45" height="45" fill="none" xmlns="http://www.w3.org/2000/svg">
    <circle cx="22.5" cy="22.5" r="22.5" fill="#1B0D39"/>
    <path fill-rule="evenodd" clip-rule="evenodd" d="M22.5 12c3.043 0 5.81 1.185 7.868 3.12A11.504 11.504 0 0 1 34 23.524a11.5 11.5 0 0 1-3.219 7.996l-8.362-8.38-8.279 8.298A11.499 11.499 0 0 1 11 23.525c0-3.241 1.335-6.17 3.484-8.264l.065-.063A11.448 11.448 0 0 1 22.5 12z" fill="url(#a)"/>
    <path fill-rule="evenodd" clip-rule="evenodd" d="M22.5 12c3.043 0 5.81 1.185 7.868 3.12l-7.949 7.964-7.87-7.886A11.448 11.448 0 0 1 22.5 12z" fill="url(#b)"/>
    <defs>
        <linearGradient id="a" x1="36.385" y1="22.02" x2="6.378" y2="23.1" gradientUnits="userSpaceOnUse">
            <stop stop-color="#FF8737"/>
            <stop offset="1" stop-color="#FFE947"/>
        </linearGradient>
        <linearGradient id="b" x1="25.31" y1="25.44" x2="23.317" y2="16.024" gradientUnits="userSpaceOnUse">
            <stop stop-color="#FF7B3D"/>
            <stop offset="1" stop-color="#FF9A37"/>
        </linearGradient>
    </defs>
</svg>
