<svg width="45" height="45" fill="none" xmlns="http://www.w3.org/2000/svg">
    <circle cx="22.5" cy="22.5" r="22.5" fill="#000"/>
    <path fill-rule="evenodd" clip-rule="evenodd" d="M32 25.472c-.3.328-.623.59-.977.799-.96.57-2.169.755-3.885.773h-.436.001-9.477L11 31h14.981c2.433-.009 4.599-1.592 5.42-3.853.204-.557.403-1.115.599-1.675zm-14.885-4.904h11.648c.35 0 .694.08 1.005.237a2.147 2.147 0 0 1 1.07 2.627c-.286.82-1.066 1.419-1.944 1.422H15.11a1.797 1.797 0 0 1-1.404-.753 1.745 1.745 0 0 1-.227-1.562l1.213-3.583c.603 1.108 1.816 1.6 2.423 1.613zm10.313-2.134L31.443 15h-12.93c-.577.002-1.091.412-1.28.952a1.85 1.85 0 0 0 .25 1.7 1.913 1.913 0 0 0 1.548.783c3.578-.014 5.328-.003 8.397-.001z" fill="#00F9BB"/>
</svg>
