<svg width="45" height="45" fill="none" xmlns="http://www.w3.org/2000/svg">
    <circle cx="22.5" cy="22.5" r="22.5" fill="#000"/>
    <path fill-rule="evenodd" clip-rule="evenodd" d="M32.992 29.176V17.07l-10.495-6.06v12.112l-10.49 6.056L22.5 35.237l10.485-6.053.006.004v-.008l.004-.002-.004-.002z" fill="#64C557"/>
    <path d="m12.01 17.07 10.493-6.06v12.118l-10.494 6.06V17.07z" fill="#118AB2"/>
    <path d="M22.506 11 33 17.058l-3.498 2.02-10.495-6.058L22.505 11z" fill="#00F8B7"/>
    <path d="M29.494 19.074v4.04L19 17.054v-4.039l10.494 6.06z" fill="#09BD8E"/>
    <path d="m18.993 17.06 10.495 6.059-3.498 2.02-10.495-6.06 3.498-2.019z" fill="#FFE3A3"/>
    <path d="M26.031 25.16v4.039l-10.494-6.06V19.1l10.494 6.06z" fill="#FFBB1D"/>
    <path d="M15.505 23.12 26 29.18l-3.498 2.02-10.495-6.06 3.498-2.019z" fill="#FF965E"/>
    <path d="M22.494 31.195v4.039L12 29.174v-4.039l10.494 6.06z" fill="#D94C00"/>
    <path d="m29.498 19.075 3.498-2.02v12.118l-3.498 2.02V19.075z" fill="#06D6A0"/>
    <path d="m25.994 25.136 3.498-2.02v8.079l-3.499 2.02v-8.079z" fill="#FFD166"/>
    <path d="m22.488 31.197 3.498-2.02v4.039l-3.498 2.02v-4.04z" fill="#F3722C"/>
</svg>
